<?xml version="1.0" encoding="UTF-8" standalone="no"?>
<svg
   xmlns:dc="http://purl.org/dc/elements/1.1/"
   xmlns:cc="http://creativecommons.org/ns#"
   xmlns:rdf="http://www.w3.org/1999/02/22-rdf-syntax-ns#"
   xmlns:svg="http://www.w3.org/2000/svg"
   xmlns="http://www.w3.org/2000/svg"
   xmlns:sodipodi="http://sodipodi.sourceforge.net/DTD/sodipodi-0.dtd"
   xmlns:inkscape="http://www.inkscape.org/namespaces/inkscape"
   viewBox="0 0 1280 320"
   version="1.1"
   id="svg584"
   sodipodi:docname="rodape_2020_1.svg"
   width="1280"
   height="320"
   inkscape:version="1.0.1 (3bc2e813f5, 2020-09-07)">
  <metadata
     id="metadata588">
    <rdf:RDF>
      <cc:Work
         rdf:about="">
        <dc:format>image/svg+xml</dc:format>
        <dc:type
           rdf:resource="http://purl.org/dc/dcmitype/StillImage" />
        <dc:title>rodape_2020</dc:title>
      </cc:Work>
    </rdf:RDF>
  </metadata>
  <sodipodi:namedview
     pagecolor="#ffffff"
     bordercolor="#666666"
     borderopacity="1"
     objecttolerance="10"
     gridtolerance="10"
     guidetolerance="10"
     inkscape:pageopacity="0"
     inkscape:pageshadow="2"
     inkscape:window-width="1366"
     inkscape:window-height="704"
     id="namedview586"
     showgrid="false"
     inkscape:zoom="0.6078125"
     inkscape:cx="575.3279"
     inkscape:cy="160"
     inkscape:window-x="0"
     inkscape:window-y="27"
     inkscape:window-maximized="1"
     inkscape:current-layer="svg584" />
  <defs
     id="defs512">
    <style
       id="style501">.cls-1{fill:none;}.cls-2{isolation:isolate;}.cls-3{fill:#fff;}.cls-4{fill:#1d1d1b;}.cls-5{fill:#3359a4;}.cls-6{fill:#ee84b3;}.cls-7{fill:#f0f0f0;}.cls-8{fill:#e85417;}.cls-9{mix-blend-mode:difference;}.cls-10{clip-path:url(#clip-path);}.cls-11{fill:#40a7de;}.cls-12{clip-path:url(#clip-path-2);}.cls-13{clip-path:url(#clip-path-3);}</style>
    <clipPath
       id="clip-path">
      <rect
         class="cls-1"
         x="1600"
         y="159.74001"
         width="0.0099999998"
         height="0.25999999"
         id="rect503" />
    </clipPath>
    <clipPath
       id="clip-path-2">
      <rect
         class="cls-1"
         x="1600"
         y="159.74001"
         width="160"
         height="138.85001"
         id="rect506" />
    </clipPath>
    <clipPath
       id="clip-path-3">
      <rect
         class="cls-1"
         x="1600"
         y="21.41"
         width="159.99001"
         height="138.33"
         id="rect509" />
    </clipPath>
  </defs>
  <title
     id="title514">rodape_2020</title>
  <path
     class="cls-3"
     d="m 240,0 a 80,80 0 0 1 0,160 H 0 V 0 Z"
     id="path516"
     style="isolation:isolate" />
  <path
     class="cls-4"
     d="M 640,160 A 160,160 0 1 1 480,0 160,160 0 0 1 640,160"
     id="path518"
     style="isolation:isolate" />
  <path
     class="cls-5"
     d="m 880,0 a 80,80 0 0 1 0,160 H 640 V 0 Z"
     id="path520"
     style="isolation:isolate" />
  <path
     class="cls-4"
     d="M 1280,160 A 160,160 0 1 1 1120,0 160,160 0 0 1 1280,160"
     id="path522"
     style="isolation:isolate" />
  <path
     class="cls-5"
     d="M 80,160 A 80,80 0 0 0 0,240 v 80 H 320 V 160 Z"
     id="path524"
     style="isolation:isolate" />
  <path
     class="cls-6"
     d="m 720,160 a 80,80 0 0 0 -80,80 v 80 H 960 V 160 Z"
     id="path526"
     style="isolation:isolate" />
  <g
     class="cls-9"
     id="g540"
     style="isolation:isolate">
    <g
       class="cls-10"
       clip-path="url(#clip-path)"
       id="g538">
      <path
         class="cls-11"
         d="M 1600,159.74 Z"
         id="path536" />
    </g>
  </g>
</svg>
