<svg xmlns="http://www.w3.org/2000/svg" xmlns:xlink="http://www.w3.org/1999/xlink" viewBox="0 0 1920 320"><defs><style>.cls-1{fill:none;}.cls-2{isolation:isolate;}.cls-3{fill:#fff;}.cls-4{fill:#1d1d1b;}.cls-5{fill:#3359a4;}.cls-6{fill:#ee84b3;}.cls-7{fill:#f0f0f0;}.cls-8{fill:#e85417;}.cls-9{mix-blend-mode:difference;}.cls-10{clip-path:url(#clip-path);}.cls-11{fill:#40a7de;}.cls-12{clip-path:url(#clip-path-2);}.cls-13{clip-path:url(#clip-path-3);}</style><clipPath id="clip-path"><rect class="cls-1" x="1600" y="159.74" width="0.01" height="0.26"/></clipPath><clipPath id="clip-path-2"><rect class="cls-1" x="1600" y="159.74" width="160" height="138.85"/></clipPath><clipPath id="clip-path-3"><rect class="cls-1" x="1600" y="21.41" width="159.99" height="138.33"/></clipPath></defs><title>rodape_2020</title><g class="cls-2"><g id="Camada_2" data-name="Camada 2"><g id="Camada_1-2" data-name="Camada 1"><path class="cls-3" d="M240,0a80,80,0,0,1,0,160H0V0Z"/><path class="cls-4" d="M640,160A160,160,0,1,1,480,0,160,160,0,0,1,640,160"/><path class="cls-5" d="M880,0a80,80,0,0,1,0,160H640V0Z"/><path class="cls-4" d="M1280,160A160,160,0,1,1,1120,0a160,160,0,0,1,160,160"/><path class="cls-5" d="M80,160A80,80,0,0,0,0,240v80H320V160Z"/><path class="cls-6" d="M720,160a80,80,0,0,0-80,80v80H960V160Z"/><path class="cls-5" d="M1440,160v-.26H1280V160a160,160,0,0,0,240,138.59A160,160,0,0,1,1440,160"/><path class="cls-7" d="M1520,21.41a160,160,0,0,0-240,138.33h160a159.93,159.93,0,0,1,80-138.33"/><path class="cls-8" d="M1520,21.41a160,160,0,0,0-240,138.33h160a159.93,159.93,0,0,1,80-138.33"/><path class="cls-8" d="M1680,298.59A160,160,0,0,1,1600,160a160,160,0,0,1-80,138.59,160.17,160.17,0,0,0,160,0"/><g class="cls-9"><g class="cls-10"><path class="cls-11" d="M1600,159.74v0Z"/></g></g><path class="cls-7" d="M1680,21.41a160.17,160.17,0,0,0-160,0,159.93,159.93,0,0,1,80,138.33h0a159.93,159.93,0,0,1,80-138.33"/><path class="cls-5" d="M1680,21.41a160.17,160.17,0,0,0-160,0,159.93,159.93,0,0,1,80,138.33h0a159.93,159.93,0,0,1,80-138.33"/><path class="cls-8" d="M1600,160v-.26H1440V160a160,160,0,0,0,80,138.59A160,160,0,0,0,1600,160"/><path class="cls-6" d="M1600,160v-.26H1440V160a160,160,0,0,0,80,138.59A160,160,0,0,0,1600,160"/><path class="cls-7" d="M1520,21.41a159.93,159.93,0,0,0-80,138.33h160a159.93,159.93,0,0,0-80-138.33"/><path class="cls-8" d="M1520,21.41a159.93,159.93,0,0,0-80,138.33h160a159.93,159.93,0,0,0-80-138.33"/><path class="cls-4" d="M1520,21.41a159.93,159.93,0,0,0-80,138.33h160a159.93,159.93,0,0,0-80-138.33"/><path class="cls-5" d="M1760,160a160,160,0,0,1-80,138.59A160,160,0,0,0,1920,160v-.26H1760V160"/><path class="cls-7" d="M1760,0a159.27,159.27,0,0,0-80,21.41,159.93,159.93,0,0,1,80,138.33h160A160,160,0,0,0,1760,0"/><path class="cls-8" d="M1760,0a159.27,159.27,0,0,0-80,21.41,159.93,159.93,0,0,1,80,138.33h160A160,160,0,0,0,1760,0"/><g class="cls-9"><g class="cls-12"><path class="cls-11" d="M1760,160v-.26H1600V160a160,160,0,0,0,80,138.59A160,160,0,0,0,1760,160"/></g></g><path class="cls-4" d="M1760,160v-.26H1600V160a160,160,0,0,0,80,138.59A160,160,0,0,0,1760,160"/><path class="cls-7" d="M1600,159.74h160a159.93,159.93,0,0,0-80-138.33,159.93,159.93,0,0,0-80,138.33"/><g class="cls-9"><g class="cls-13"><path class="cls-11" d="M1600,159.74h160a159.93,159.93,0,0,0-80-138.33,159.93,159.93,0,0,0-80,138.33"/></g></g><path class="cls-6" d="M1600,159.74h160a159.93,159.93,0,0,0-80-138.33,159.93,159.93,0,0,0-80,138.33"/></g></g></g></svg>