<svg xmlns="http://www.w3.org/2000/svg" viewBox="0 0 20.26 272.37"><defs><style>.cls-1{fill:#fff;}.cls-2{fill:#1d1d1b;}.cls-3{fill:#e85417;}.cls-4{fill:#3359a4;}</style></defs><title>seta_deslize</title><g id="Camada_2" data-name="Camada 2"><g id="Camada_1-2" data-name="Camada 1"><path class="cls-1" d="M13.34,21.91l0-16.8h5.37a9.37,9.37,0,0,1,4.65,1.07,7.75,7.75,0,0,1,3,3,8.64,8.64,0,0,1,1.08,4.35,8.49,8.49,0,0,1-1.07,4.34,7.69,7.69,0,0,1-3,3,9.62,9.62,0,0,1-4.65,1.09Zm2.3-2h3.09a7.05,7.05,0,0,0,3.33-.78,5.64,5.64,0,0,0,2.29-2.2,6.46,6.46,0,0,0,.83-3.39,6.56,6.56,0,0,0-.84-3.41A5.75,5.75,0,0,0,22,7.91a6.86,6.86,0,0,0-3.32-.76h-3.1Z" transform="translate(-9.95 -5.11)"/><path class="cls-1" d="M19.15,45.9a4.48,4.48,0,0,1-2.46-.65,4.75,4.75,0,0,1-2.27-4.09A4.37,4.37,0,0,1,15,39a3.94,3.94,0,0,1,1.57-1.59A4.52,4.52,0,0,1,15,35.81a4.14,4.14,0,0,1-.52-2,4.57,4.57,0,0,1,.6-2.35,4.77,4.77,0,0,1,1.67-1.7,4.45,4.45,0,0,1,2.33-.63h6.65v2H19.32a2.57,2.57,0,0,0-1.32.37,2.61,2.61,0,0,0-1.24,2.28,2.43,2.43,0,0,0,.35,1.27,2.66,2.66,0,0,0,2.27,1.27h5.45v2H19.55a2.82,2.82,0,0,0-1.53.4,2.76,2.76,0,0,0-1,1,2.69,2.69,0,0,0-.34,1.36A2.83,2.83,0,0,0,17,42.5a2.54,2.54,0,0,0,1,1,2.82,2.82,0,0,0,1.47.37h6.26v2Z" transform="translate(-9.95 -5.11)"/><path class="cls-1" d="M14.28,69.91v-2h7.27a2.51,2.51,0,0,0,1.44-.4,2.68,2.68,0,0,0,.93-1,2.65,2.65,0,0,0,.34-1.32,2.76,2.76,0,0,0-.33-1.33,2.52,2.52,0,0,0-.91-1,2.6,2.6,0,0,0-1.43-.37H18.42a5.14,5.14,0,0,1-2.49-.58,4.44,4.44,0,0,1-1.7-1.63,4.6,4.6,0,0,1-.61-2.37,5,5,0,0,1,.58-2.42,4.4,4.4,0,0,1,1.66-1.71,4.83,4.83,0,0,1,2.46-.62h7.12v2H18.54a2.59,2.59,0,0,0-1.4.37,2.53,2.53,0,0,0-.91,1,2.61,2.61,0,0,0-.31,1.26,2.73,2.73,0,0,0,.3,1.24,2.36,2.36,0,0,0,.89.94,2.56,2.56,0,0,0,1.36.36h3.24a5.25,5.25,0,0,1,2.59.6A4.11,4.11,0,0,1,26,62.5a4.82,4.82,0,0,1,.58,2.36,5.63,5.63,0,0,1-.59,2.6,4.35,4.35,0,0,1-1.66,1.79,4.74,4.74,0,0,1-2.47.65Z" transform="translate(-9.95 -5.11)"/><path class="cls-1" d="M20.51,93.9a4.56,4.56,0,0,1-2.36-.58,4,4,0,0,1-1.54-1.61,4.81,4.81,0,0,1-.54-2.29l0-12.31h2.31v12.6A2.14,2.14,0,0,0,19,91.25a2,2,0,0,0,1.55.61H25v2Z" transform="translate(-9.95 -5.11)"/><path class="cls-1" d="M15.73,117.91v-2H19V103.14H15.71v-2h8.76v2H21.25l0,12.72h3.21v2Z" transform="translate(-9.95 -5.11)"/><path class="cls-1" d="M17.34,141.91A3.2,3.2,0,0,1,14,138.62a3,3,0,0,1,.36-1.51,5,5,0,0,1,1.17-1.3l7.6-6.29a2.25,2.25,0,0,0,.58-.58,1.21,1.21,0,0,0,.17-.65,1,1,0,0,0-.17-.55,1.33,1.33,0,0,0-.42-.43,1,1,0,0,0-.57-.17h-8.2v-2h8.43a3.54,3.54,0,0,1,1.79.43,3,3,0,0,1,1.15,1.16,3.47,3.47,0,0,1,.4,1.65,3.34,3.34,0,0,1-.37,1.57,4.68,4.68,0,0,1-1.14,1.31l-7.6,6.27a4.22,4.22,0,0,0-.47.39.82.82,0,0,0-.24.34,1.53,1.53,0,0,0-.06.47,1.06,1.06,0,0,0,.16.56,1.16,1.16,0,0,0,.43.45,1.22,1.22,0,0,0,.64.17h8.66v2Z" transform="translate(-9.95 -5.11)"/><path class="cls-1" d="M19.29,165.9a4.57,4.57,0,0,1-2.46-.65,4.64,4.64,0,0,1-1.67-1.74,4.79,4.79,0,0,1-.61-2.35,4.49,4.49,0,0,1,.54-2.16,3.82,3.82,0,0,1,1.57-1.59,4.55,4.55,0,0,1-1.54-1.61,4.11,4.11,0,0,1-.53-2,4.55,4.55,0,0,1,.61-2.35,4.69,4.69,0,0,1,1.67-1.7,4.46,4.46,0,0,1,2.33-.64h6.64v2H19.46a2.47,2.47,0,0,0-1.32.36,2.76,2.76,0,0,0-.91.95,2.72,2.72,0,0,0-.33,1.34,2.36,2.36,0,0,0,.35,1.27,2.55,2.55,0,0,0,.95.92,2.61,2.61,0,0,0,1.32.35H25v2H19.69a2.88,2.88,0,0,0-1.53.39,2.84,2.84,0,0,0-1.33,2.39,2.88,2.88,0,0,0,.34,1.35,2.61,2.61,0,0,0,1,1,2.82,2.82,0,0,0,1.47.37h6.26v2Z" transform="translate(-9.95 -5.11)"/><polygon class="cls-2" points="20.26 250.99 6.75 253.9 0 255.35 3.94 261.02 11.82 272.37 20.26 250.99"/><polygon class="cls-3" points="20.26 226.99 6.75 229.9 0 231.35 3.94 237.03 11.82 248.37 20.26 226.99"/><polygon class="cls-4" points="20.26 202.99 6.75 205.9 0 207.35 3.94 213.03 11.82 224.37 20.26 202.99"/><polygon class="cls-1" points="20.26 178.99 6.75 181.9 0 183.35 3.94 189.03 11.82 200.37 20.26 178.99"/></g></g></svg>