<?xml version="1.0" encoding="utf-8"?>
<!-- Generator: Adobe Illustrator 23.0.1, SVG Export Plug-In . SVG Version: 6.00 Build 0)  -->
<svg version="1.1" id="Camada_1" xmlns="http://www.w3.org/2000/svg" xmlns:xlink="http://www.w3.org/1999/xlink" x="0px" y="0px"
	 viewBox="0 0 382 347.2" style="enable-background:new 0 0 382 347.2;" xml:space="preserve">
<style type="text/css">
	.st0{fill:#BA1F25;}
	.st1{fill:#1D396B;}
	.st2{fill:#1E396D;}
</style>
<title>Ativo 1</title>
<g>
	<g id="Camada_1-2">
		<path class="st0" d="M287.3,99.9L231.5,0l-23.4,13.8c0,0,4.1,8.3,2.8,20.7s-19.3,20.7-31.7,20.7s-25.4-19.2-31.7-27.6
			c0,0-43.4-40.7-84.1,16.5c-10,14.1-2.8,42.7-2.8,42.7l56.5,96.5l22.7-11.7c0,0-11-28.9,11-38.6s31.7,2.8,41.3,15.2
			s15.2,15.1,15.2,15.1s31.7,20.7,60.6-1.4S287.3,99.9,287.3,99.9z M116.4,131.6c0,0-24.8-41.3-31.7-57.9s12.4-28.9,12.4-28.9
			s22-11,34.4,1.4c0,0,19.3,31.7,33.1,57.9C144.8,103.8,126.3,114.3,116.4,131.6z M251.4,140.9c0,0-22,11-34.4-1.4
			c0,0-19.3-31.7-33.1-57.9c19.9,0.3,38.4-10.3,48.2-27.6c0,0,24.8,41.3,31.7,57.9S251.4,140.9,251.4,140.9z"/>
		<path class="st1" d="M208.8,219.8h-44.1v86.8h22.1v-30.3h27.6c0,0,16.5-5.5,16.5-19.3v-20.7C230.8,236.3,226.7,219.8,208.8,219.8z
			 M201.9,258.4h-13.8v-20.7h15.2c4.1,0,6.9,6.9,6.9,11C210.1,255.6,201.9,258.4,201.9,258.4z"/>
		<path class="st1" d="M279.7,220.5h-44.1v86.8h22V277h27.6c0,0,16.5-5.5,16.5-19.3V237C301.7,237,297.6,220.5,279.7,220.5z
			 M272.8,259H259v-20.7h15.2c4.1,0,6.9,6.9,6.9,11C281.1,256.3,272.8,259,272.8,259z"/>
		<path class="st1" d="M350.7,219.8l-31-0.7l-30.3,88.2h24.8l5.5-16.5h34.5l4.1,16.5h23.4L350.7,219.8z M323.1,274.9l12.4-40
			l12.4,40H323.1z"/>
		<path class="st2" d="M132.3,219.1l-31,0.7l-26.2,75.8l-2.8-1.4l-24.8-31.7l31.7-42.7H50.3L25.5,257l-1.4-37.2L0,219.1v86.8h24.8
			v-37.2l27.6,37.2h42.7l4.1-15.2h34.5l4.1,15.2h23.4L132.3,219.1z M104,274.9l12.4-38.6l12.4,38.6H104z"/>
		<path class="st2" d="M18.3,346.3c-2,0.6-4,0.9-6.1,0.9c-6.5,0-11.4-3.3-11.4-9.4c0-5.8,4.9-9.8,12.1-9.8c1.9-0.1,3.7,0.2,5.5,0.8
			l-0.7,2c-1.5-0.6-3-0.8-4.6-0.8c-5.4,0-9,2.8-9,7.7c0,4.6,3.3,7.5,8.9,7.5c1.7,0,3.3-0.2,4.9-0.8L18.3,346.3z"/>
		<path class="st2" d="M66.9,338.2h-9v6.7h10v2h-13v-18.6h12.5v2h-9.5v5.9h9L66.9,338.2z"/>
		<path class="st2" d="M104.7,328.6c1.9-0.3,3.8-0.4,5.7-0.4c3.2,0,5.3,0.5,6.7,1.5c1.2,0.8,1.8,2.1,1.8,3.5c0,2.5-1.9,4.1-4.4,4.8
			v0.1c1.7,0.5,3,2,3.4,3.8c0.4,1.8,1,3.5,1.8,5.1h-3.1c-0.7-1.4-1.2-2.9-1.5-4.5c-0.7-2.6-1.9-3.5-4.7-3.6h-2.8v8.1h-3L104.7,328.6
			z M107.7,337h3.1c3.2,0,5.2-1.4,5.2-3.5c0-2.4-2.2-3.5-5.3-3.5c-1,0-2,0-3,0.2L107.7,337z"/>
		<path class="st2" d="M159.9,341.1l-2.4,5.9h-3.1l7.9-18.6h3.6l7.9,18.6h-3.2l-2.5-5.9H159.9z M165.3,324.2l3.6,3.1h-2.6l-2.2-1.9
			h-0.1l-2.2,1.9h-2.4l3.5-3.1H165.3z M167.5,339.2l-2.3-5.4c-0.5-1.2-0.9-2.3-1.2-3.4h0c-0.3,1.1-0.7,2.2-1.2,3.4l-2.3,5.4H167.5z"
			/>
		<path class="st2" d="M229.4,338.8c-0.2-2.6-0.4-5.7-0.3-8H229c-0.8,2.2-1.8,4.5-2.9,7.1l-4.1,9h-2.3L216,338
			c-1-2.4-1.9-4.8-2.7-7.2h-0.1c-0.1,2.3-0.2,5.4-0.4,8.2l-0.6,8h-2.9l1.6-18.6h3.8l3.9,9c0.9,2,1.7,4.1,2.3,6.3h0.1
			c0.7-2.1,1.5-4.2,2.4-6.3l4.1-9h3.8L233,347h-3L229.4,338.8z"/>
		<path class="st2" d="M273.4,328.3v18.6h-3v-18.6H273.4z"/>
		<path class="st2" d="M327.6,346.3c-2,0.6-4,0.9-6.1,0.9c-6.5,0-11.5-3.3-11.5-9.4c0-5.8,4.9-9.8,12.1-9.8c1.9-0.1,3.7,0.2,5.5,0.8
			l-0.7,2c-1.5-0.5-3.1-0.8-4.7-0.8c-5.4,0-9,2.8-9,7.7c0,4.6,3.3,7.5,8.9,7.5c1.7,0,3.3-0.2,4.9-0.8L327.6,346.3z"/>
		<path class="st2" d="M368.1,341.1l-2.4,5.9h-3.1l7.9-18.6h3.6l7.9,18.6h-3.2l-2.5-5.9H368.1z M375.7,339.2l-2.3-5.4
			c-0.5-1.1-0.9-2.2-1.2-3.4h-0.1c-0.4,1.1-0.7,2.2-1.2,3.4l-2.3,5.4H375.7z"/>
	</g>
</g>
</svg>
