<?xml version="1.0" encoding="utf-8"?>
<!-- Generator: Adobe Illustrator 23.0.1, SVG Export Plug-In . SVG Version: 6.00 Build 0)  -->
<svg version="1.1" id="Camada_1" xmlns="http://www.w3.org/2000/svg" xmlns:xlink="http://www.w3.org/1999/xlink" x="0px" y="0px"
	 viewBox="0 0 265.8 266.1" style="enable-background:new 0 0 265.8 266.1;" xml:space="preserve">
<style type="text/css">
	.st0{fill:#013A4A;}
</style>
<title>Ativo 5</title>
<g>
	<g id="Camada_1-2">
		<g>
			<path class="st0" d="M136.7,135.2c0,16.2,0,32.2,0,48.4c-8.9,0-17.7,0-26.7,0c0-3.9,0-7.7,0-11.6c-3.3,0-6.5,0-10,0
				c0,1.1,0,2.3,0,3.5c0,2.4,0,4.9,0,7.3c0,0.7-0.1,1.2-1,1.2c-6.6,0-13.1-0.1-19.7-0.1c0,0-0.1-0.1-0.2-0.2c0-4.1,0-8.3,0-12.7
				c3,0,6,0,9.1,0c0-3.4,0-6.7,0-10.2c3.8,0,7.4,0,11.1,0c0-3,0-5.9,0-9c-1.7,0-3.4,0-5.1,0c-1.6,0-3.2,0-4.8,0
				c-1,0-1.4-0.3-1.4-1.3c0-3.6,0-7.2,0-10.8c0-1.1,0.5-1.3,1.4-1.3c3.7,0,7.3,0,11.1,0c0-2.5,0-4.9,0-7.3c-7.4,0-14.7,0-22.1,0
				c-0.1-0.3-0.2-0.7-0.2-1c0-3.7,0-7.3,0-11c0-1.1,0.3-1.5,1.4-1.4c2,0.1,4,0,6,0c2.2,0,2.2,0,2.2-2.1c0-2.7,0-5.5,0-8.4
				c4,0,8,0,12,0c0-2.9,0-5.5,0-8.4c-3.7,0-7.3,0-11.1,0c0-3.6,0-6.9,0-10.5c-3.5,0-6.9,0-10.4,0c0-3.8,0-7.4,0-11.2
				c-2.9,0-5.7,0-8.7,0c0,3.6,0,7.3,0,11c-4,0-7.8,0-11.7,0c-0.1-0.4-0.2-0.8-0.2-1.2c0-3.8,0-7.5,0-11.3c0-1,0.3-1.4,1.3-1.3
				c2.9,0.1,5.9,0,9,0c0-2.9,0-5.7,0-8.8c-2.2,0-4.6,0-6.9,0c-3.4,0-3.4,0-3.4-3.3c0-2.2,0-4.3,0-6.5c0-1.1,0.3-1.6,1.5-1.6
				c3.3,0.1,6.5,0.1,9.8,0c1.3,0,1.6,0.5,1.5,1.7c-0.1,2.6,0,5.3,0,8.1c3.6,0,7.2,0,10.8,0c0,3.4,0,6.7,0,10c6.5,0,12.8,0,19.2,0
				c0-2.9,0-5.8,0-8.9c-3.7,0-7.3,0-11,0c0-3,0-5.8,0-8.9c-3.6,0-7.2,0-10.8,0c0-3.7,0-7.1,0-10.8c-2.4,0-4.6,0-6.9,0
				c-3.7,0-3.7,0-3.7-3.8c0-2.8,0-5.6,0-8.6c-2.9,0-5.6,0-8.4,0c-2,0-2,0-2-2.1c0-2.6,0-5.3,0-7.9c0-1,0.2-1.5,1.4-1.5
				c3.3,0.1,6.7,0,10.2,0c0,3.3,0,6.5,0,10c2.1,0,4.1,0,6.1,0c1.9,0,3.9,0,6,0c0,3.4,0,6.7,0,10.1c2.3,0,4.5,0,6.8,0
				c0-6.6,0-13.3,0-20.1c4.3,0,8.3,0,12.4,0c0-3.2,0-6.1,0-9.2c-3.9,0-7.7,0-11.6,0c-0.1-0.4-0.3-0.7-0.3-1c0-3.3,0-6.5,0-9.8
				c0-0.4,0.5-1,0.8-1c3.7-0.1,7.4,0,11.4,0c0,2.7,0,5.3,0,7.9c0,2,0,2,2,2c2.3,0,4.5,0,6.9,0c0-3.3,0-6.5,0-9.9
				c0.6,0,1.1-0.1,1.6-0.1c24.4,0,48.9-0.1,73.3,0.1c5.3,0,10.4,1.7,15.4,3.6c17.3,6.6,29.7,18.3,36.5,35.6
				c4.2,10.6,6.6,21.7,5.8,33.2c-1.3,20.2-10.6,36.2-26.6,48.4c-6.2,4.7-12.9,8.6-20.2,11.5c-4.3,1.7-8.9,2.2-13.5,2.2
				c-14.5,0.1-28.9,0-43.4,0C138.3,135.2,137.6,135.2,136.7,135.2z M160.1,48.6c-6.6,0-13.1,0.1-19.7,0c-1.6,0-2,0.4-2,2
				c0.1,11.6,0.1,23.1,0,34.7c0,1.7,0.5,1.9,2,1.9c12.3-0.1,24.6,0,36.9,0c4.2,0,7.8-1.7,10.9-4.4c4.8-4.2,6.2-10,6.7-16.1
				c0.3-3.5-1.3-6.6-3-9.5c-3-5.3-7.4-8.7-13.9-8.7C172.1,48.6,166.1,48.6,160.1,48.6z M110.7,64.7c0,3.6,0,7,0,10.4
				c0,0.3,0.6,0.7,0.9,0.7c3,0.1,6,0,9,0c0-3.8,0-7.4,0-11.1C117.4,64.7,114.2,64.7,110.7,64.7z M120.7,107.4c-3.2,0-6.2,0-9.1,0
				c-0.3,0-0.8,0.6-0.9,0.9c-0.1,3-0.1,6.1,0,9.1c0,0.4,0.6,1,0.9,1c2.7,0.1,5.5,0.1,8.2,0c0.3,0,0.8-0.5,0.8-0.8
				C120.8,114.3,120.7,110.9,120.7,107.4z M110.1,150.2c0-3.1,0-6.1,0-9c0-0.3-0.4-0.8-0.6-0.9c-2.7-0.1-5.3,0-8,0
				c0,3.4,0,6.6,0,9.9C104.3,150.2,107.1,150.2,110.1,150.2z M110,87.2c-2.7,0-5.4,0-8.1,0c-0.3,0-0.8,0.6-0.8,0.9
				c-0.1,2.4-0.1,4.9,0,7.3c0,0.3,0.4,0.8,0.7,0.8c2.7,0.1,5.4,0,8.2,0C110,93.2,110,90.3,110,87.2z M101.4,42.3c3,0,5.8,0,8.7,0
				c0-2.8,0-5.5,0-8.1c0-0.3-0.6-0.8-1-0.8c-2.2-0.1-4.4,0-6.6,0c-0.8,0-1.1,0.3-1.1,1.1C101.4,37,101.4,39.5,101.4,42.3z"/>
			<path class="st0" d="M133.7,245.4c41.8,0,83.7,0,125.5-0.1c4.3,0,7.7,3.2,7.4,7.4c-0.2,2.2,0,4.3,0,6.5c0,4.9-2.5,7.5-7.4,7.5
				c-53.4,0-106.8,0-160.3,0c-30.2,0-60.4,0-90.7,0c-5.1,0-7.6-2.5-7.6-7.6c0-2.2,0.1-4.4,0-6.7c-0.2-4.5,3.7-7.1,7-7.1
				C49.7,245.4,91.7,245.4,133.7,245.4z M207.7,261.7c0-4.1,0-8,0-11.9c-1.7-0.5-2.7,0-3.4,1.6c-0.9,2-2,3.8-3.1,5.9
				c-1.1-2.1-2.2-4-3.1-5.9c-1-1.9-1.1-2-3.3-1.6c0,3.9,0,7.9,0,11.8c0.7,0,1.4,0,2.1,0c0-2.5,0-4.9,0-7.3c1.2,1.6,2,3.2,3,4.9
				c0.9,1.6,1.9,1.6,2.8,0c0.9-1.6,1.7-3.2,2.6-4.8c0.1,0,0.2,0,0.3,0.1c0,2.4,0,4.8,0,7.2C206.4,261.7,206.9,261.7,207.7,261.7z
				 M38.9,257.4c-1.3-2.4-2.5-4.6-3.7-6.9c-0.5-1.1-1.4-1-2.2-0.8c-0.4,0.1-0.7,1-0.8,1.5c-0.1,2.9,0,5.9,0,8.8
				c0,1.9,0.1,1.9,2.2,1.5c0-2.5,0-5.1,0-8.1c1.1,2,1.9,3.7,2.8,5.3c0.4,0.6,1,1.4,1.6,1.4c0.5,0,1.2-0.7,1.6-1.3
				c1-1.5,1.8-3.2,2.6-4.7c0.1,0,0.2,0.1,0.3,0.1c0,2.5,0,5,0,7.5c2.1,0.2,2.1,0.2,2.1-1.8c0-2.1,0-4.2,0-6.3c0-1.3,0-2.5,0-3.7
				c-1.8-0.5-2.8-0.1-3.5,1.5C41.2,253.4,40.1,255.2,38.9,257.4z M62.4,261.7c0-2.5,0-4.9,0-7.8c2,2.5,3.7,4.6,5.4,6.7
				c0.7,0.9,1.4,1.5,2.6,1c0-4,0-7.9,0-11.9c-0.7,0-1.3,0-2.1,0c0,2.5,0,4.8,0,7.2c-2-2-3.7-4.1-5.4-6.3c-0.7-0.9-1.4-1.2-2.6-0.8
				c0,3.9,0,7.9,0,11.8c0.4,0,0.7,0.1,1,0.1C61.6,261.8,61.9,261.8,62.4,261.7z M127.6,261.8c3.8,0,6.3-2.4,6.3-6.1
				c0-3.7-2.5-6.2-6.3-6.2c-3.6,0-6.2,2.6-6.1,6.1C121.5,259.4,124,261.8,127.6,261.8z M18.2,255.7c0,3.8,2.3,6.2,6,6.2
				c3.9,0,6.2-2.3,6.3-6.1c0-3.8-2.3-6.2-6-6.2C20.6,249.6,18.2,251.9,18.2,255.7z M240.8,261.6c-1.2-1.8-2.3-3.4-3.3-5
				c2.1-1.4,2.7-2.7,2.1-4.6c-0.4-1.5-1.9-2.4-4.1-2.4c-0.9,0-1.9,0.1-2.8,0c-1.2-0.1-1.5,0.3-1.5,1.5c0.1,2.9,0,5.9,0,8.8
				c0,2.1,0.2,2.2,2.5,1.6c0-1.4,0-2.8,0-4.7c0.8,0.5,1.4,0.7,1.8,1.2c0.6,0.7,1.1,1.5,1.5,2.3C237.8,261.9,239,262.1,240.8,261.6z
				 M146.9,257.4c-1.2-1.1-2.3-2-3.3-3c-0.3-0.2-0.6-0.6-0.6-0.9c0-0.6,0.1-1.4,0.4-1.8c0.2-0.2,1.3-0.1,1.5,0.2
				c0.7,1,1.5,0.9,2.3,0.4c-0.3-2.2-1.7-3-4-2.7s-2.8,1.7-2.2,5.5c-0.2,0.1-0.3,0.2-0.5,0.3c-1.3,1.1-1.9,2.7-1.4,4.3
				c0.5,1.3,1.8,2.2,3.6,2.1c0.9,0,1.8-0.1,2.5-0.5c0.9-0.4,1.5-0.4,2.4,0.1c0.6,0.4,1.6,0.3,2.4,0.4c0.1-0.1,0.1-0.3,0.2-0.4
				c-0.7-0.8-1.4-1.6-2-2.2c0.3-1.1,0.7-2.1,0.8-3.1c0.1-0.3-0.4-1-0.5-1c-0.5,0.1-1,0.3-1.3,0.7C147,256.2,147,256.9,146.9,257.4z
				 M55.5,249.8c0,2.3,0,4.6,0,6.8c0,2-0.9,3-2.6,3c-1.7,0-2.6-1-2.7-3c0-2.3,0-4.5,0-6.9c-1,0.2-2.3-0.8-2.4,0.9
				c-0.2,2.3-0.1,4.6,0,7c0.2,2.5,2,4.2,4.4,4.3c3.2,0.1,5-1,5.5-3.9c0.3-2,0.2-4.1,0.3-6.1C58,249.6,57.9,249.6,55.5,249.8z
				 M87.5,261.9c1.2-0.2,2.4,0.5,2.8-1c0.4-1.7,1.4-2.2,3-1.9c0.5,0.1,0.9,0.1,1.4,0c0.9-0.1,1.3,0.3,1.6,1.1c0.7,2,0.9,2,2.9,1.6
				c0-0.2,0-0.4-0.1-0.6c-1.4-3.5-2.7-7.1-4.2-10.6c-0.2-0.4-0.9-0.7-1.4-0.7s-1.3,0.3-1.5,0.7c-0.9,1.9-1.7,4-2.5,6
				C88.9,258.2,88.2,259.9,87.5,261.9z M230.2,261.6c-1.5-3.9-3-7.6-4.5-11.3c-0.2-0.4-1.1-0.6-1.7-0.6c-0.5,0-1.1,0.5-1.3,0.9
				c-1.2,2.9-2.4,5.9-3.5,8.9c-0.3,0.7-0.5,1.4-0.7,2.2c1.4,0.2,2.5,0.3,2.8-1.2c0.3-1.3,1-1.8,2.3-1.6c0.6,0.1,1.1,0.1,1.7,0
				c1.1-0.1,1.7,0.3,1.9,1.3C227.5,261.8,228.5,262.1,230.2,261.6z M193.6,261.6c-1.5-3.7-2.9-7.3-4.3-10.9c-0.3-0.9-0.8-1-1.6-1
				s-1.3,0.2-1.6,1c-0.9,2.5-2,5-2.9,7.5c-0.4,1.1-0.8,2.3-1.3,3.5c1.3,0.1,2.4,0.5,2.8-1c0.3-1.5,1.2-2,2.7-1.8
				c0.5,0.1,0.9,0.1,1.4,0c1.1-0.2,1.7,0.3,1.9,1.3C190.9,261.8,191.9,262.1,193.6,261.6z M121.5,261.6c-1.5-3.9-3-7.7-4.6-11.4
				c-0.3-0.8-2.4-0.8-2.7,0c-1.5,3.7-3,7.5-4.5,11.4c1.3,0.2,2.5,0.5,2.9-1.1c0.3-1.5,1.2-1.9,2.6-1.7c0.6,0.1,1.1,0.1,1.7,0
				c0.9-0.1,1.4,0.3,1.6,1.2C118.7,261.8,119.8,262.1,121.5,261.6z M257.1,261.6c0-0.2,0-0.4,0-0.6c-1.4-3.5-2.7-7.1-4.2-10.6
				c-0.2-0.4-1.1-0.7-1.7-0.7c-0.4,0-1.1,0.5-1.3,0.9c-1.2,2.8-2.3,5.6-3.4,8.4c-0.3,0.8-0.6,1.7-0.9,2.6c1.3,0.2,2.5,0.4,2.8-1.1
				s1.2-1.9,2.5-1.7c0.5,0.1,0.9,0.1,1.4,0c1.1-0.2,1.7,0.2,2,1.3C254.7,261.7,255.6,262.2,257.1,261.6z M106.3,261.9
				c0.6-0.2,1.4-0.4,2.1-0.8c0.5-0.3,1-1.1,0.9-1.6c-0.3-1-1-0.7-1.8-0.3c-2.4,1.4-5,0.1-5.4-2.7c-0.2-1.6-0.1-3.1,1.3-4.2
				c1.3-1,2.8-0.9,4.2-0.1c0.1,0,0.2,0.2,0.3,0.1c0.5-0.2,1.1-0.3,1.3-0.6c0.2-0.2-0.1-1.1-0.3-1.2c-1.2-0.4-2.5-0.8-3.8-0.9
				c-2.6-0.1-4.7,1.7-5.4,4.2c-0.7,3,0.4,6.2,2.7,7.2c1.2,0.5,2.2,1.1,2.7,2.2c-0.4,0.3-0.7,0.5-1.1,0.8c0.4,0.2,0.9,0.6,1.2,0.5
				c0.7-0.1,1.6-0.4,1.9-0.9C107.2,263.3,106.5,262.5,106.3,261.9z M163.4,249.8c-2.6,0-5.1,0-7.6,0c0,4,0,7.9,0,11.9
				c2.6,0,5,0,7.5,0c0-0.6,0-1.2,0-1.9c-1.8,0-3.4,0-5.1,0c0-1.2,0-2.2,0-3.3c1.4,0,2.7,0,4,0c0.4-1.4,0-2-1.4-1.9
				c-0.9,0.1-1.7,0-2.6,0c0-1.1,0-2,0-3.1c1.8,0,3.4,0,5.1,0C163.4,250.9,163.4,250.4,163.4,249.8z M212.6,261.7
				c0-0.4,0.1-0.8,0.1-1.1c0.1-2.8,0.1-2.8,2.8-3.1c2.2-0.3,3.6-1.8,3.7-3.9c0-1.9-1.3-3.6-3.3-3.8c-1.8-0.2-3.6,0-5.3,0
				c0,4.1,0,8,0,12C211.2,261.7,211.9,261.7,212.6,261.7z M17.7,260c-0.6-1.1-1.1-1.5-2.3-0.7c-0.7,0.4-1.7,0.5-2.5,0.4
				c-1.6-0.2-2.5-1.3-2.8-2.9s-0.2-3.2,1.2-4.4c1.3-1.1,2.7-1.1,4.2-0.3c0.9,0.5,1.6,0.3,1.8-0.5c0.1-0.4-0.4-1.2-0.9-1.4
				c-3.7-2-8.1,0.1-8.9,4.4c-0.5,2.6,0.8,5.6,2.9,6.7C12.8,262.5,15.8,262,17.7,260z M83.3,262.1c1.1-0.4,2.3-0.7,3.4-1.2
				c0.3-0.2,0.6-1,0.5-1.4c-0.3-0.7-0.8-0.8-1.6-0.4c-0.8,0.4-2,0.8-2.9,0.6c-2.4-0.5-3.5-3.1-2.6-5.7c0.7-2.1,2.6-2.9,5-2
				c0.8,0.4,1.6,0.6,2.1-0.4c0.5-1.1-0.6-1.3-1.2-1.6c-2-1-5.2-0.5-6.8,1c-1.8,1.7-2.4,4.8-1.3,7.4
				C78.7,260.7,80.5,261.8,83.3,262.1z M169,249.4c-2.2,0.1-3.7,1.1-4.1,2.8c-0.4,2.1,0.4,3.3,2.7,4.2c0.5,0.2,1.1,0.2,1.4,0.5
				c0.5,0.5,1.2,1.4,1.1,1.7c-0.3,0.6-1.1,1.1-1.8,1.2c-0.5,0.1-1.2-0.5-1.8-0.6c-0.5-0.1-1.4,0-1.7,0.3c-0.7,0.8,0,1.5,0.7,1.6
				c1.3,0.3,2.7,0.7,4.1,0.6c1.8-0.1,3-1.8,3.1-3.7c0.1-1.5-0.7-2.5-2.6-3.2c-0.6-0.2-1.3-0.3-1.7-0.7c-0.5-0.4-0.8-1-1.1-1.6
				c0.6-0.3,1.2-0.8,1.9-1c0.5-0.1,1,0.5,1.6,0.5c0.5,0,1.1-0.2,1.3-0.6c0.2-0.3-0.1-1.1-0.4-1.3C170.8,249.9,169.8,249.7,169,249.4
				z M182.9,249.8c-3.2,0-6.3,0-9.5,0c0,0.7,0,1.2,0,1.8c1.2,0.1,2.4,0.1,3.7,0.2c0,3.4,0,6.6,0,9.9c0.8,0,1.4,0,2.2,0
				c0-0.6,0.1-1.1,0.1-1.7c0-2.4,0-4.7,0-7.1c0-0.9,0.3-1.3,1.3-1.2c0.7,0.1,1.5,0,2.3,0C182.9,251,182.9,250.5,182.9,249.8z
				 M75.4,249.8c-0.7,0-1.4,0-2.1,0c0,4,0,8,0,11.9c0.8,0,1.4,0,2.1,0C75.4,257.7,75.4,253.8,75.4,249.8z M244.3,261.8
				c0-4.1,0-8,0-12c-0.8,0-1.4,0-2.1,0c0,4.1,0,8,0,12C242.9,261.8,243.5,261.8,244.3,261.8z M118.5,246.9c-0.3,0-0.8-0.3-1-0.1
				c-0.9,1-1.7,0.4-2.6,0c-1.5-0.5-2.4,0.4-2.3,2.2c0.2,0,0.6,0.2,0.7,0c1-0.7,1.9-0.4,3,0C117.6,249.4,118.3,248.6,118.5,246.9z"/>
			<path class="st0" d="M230.7,231.3c0.7,0,1.2,0,1.8,0c8.2,0,16.4,0,24.6,0.1c1.3,0,1.9-0.3,1.8-1.7s-0.1-2.8,0-4.2
				c0.1-1.2-0.4-1.6-1.6-1.6c-6.5,0.1-13,0-19.5,0c-3.9,0-6.7-2.7-7-6.9c1.6,0,3.3,0,4.8,0c-1.3-1.2-2.7-2.1-3.6-3.4
				c-1.7-2.2-1.8-4.8-0.4-7.3c1.3-2.5,3.3-3.8,6.2-3.8c8.9,0,17.8,0,26.6,0c0.4,0,0.7,0,1,0.1c0.5,3.3-2.6,6.7-6.3,6.8
				c-6.6,0.1-13.1,0.1-19.7,0c-1.5,0-2,0.3-1.9,1.9c0.1,1.8,0,3.7,0,5.7c0.7,0,1.2,0.1,1.8,0.1c6.1,0,12.3,0,18.4-0.2
				c4.9-0.1,8.2,3.6,7.9,7.7c-0.2,2.4,0,4.9-0.1,7.3c-0.1,3.5-3.1,6.3-6.5,6.4c-7,0-13.9,0-20.9,0
				C233.9,238.2,231.4,236,230.7,231.3z"/>
			<path class="st0" d="M55.9,238.2c-3.6,0-7.1,0-10.7,0c-3.7,0-6.7-2.9-6.7-6.7c-0.1-7.4-0.1-14.8,0-22.1c0-3.9,3-6.8,6.9-6.9
				c7,0,14,0,21.1,0c4,0,6.9,2.8,7,6.7c0.1,7.4,0.1,14.9,0,22.3c-0.1,3.8-3.1,6.6-6.9,6.6C62.9,238.3,59.4,238.3,55.9,238.2
				C55.9,238.3,55.9,238.2,55.9,238.2z M39.7,231.3c0.6,0.1,0.9,0.1,1.2,0.1c8.2,0,16.3,0,24.5,0c1.1,0,1.2-0.6,1.2-1.5
				c0-4.4,0-8.9,0-13.3c0-2.7,1.3-4.6,3.4-6c0.5-0.4,1.1-0.6,1.8-1c-0.2-0.1-0.3-0.2-0.4-0.2c-8.3,0-16.6,0-24.9-0.1
				c-1.1,0-1.3,0.5-1.3,1.4c0,4.5,0,9,0,13.5c0,2.8-1.4,4.8-3.8,6.1C41,230.7,40.5,230.9,39.7,231.3z"/>
			<path class="st0" d="M84.2,202.6c1.2,0,2.4,0,3.5,0c5.6,0,11.3,0.2,16.9,0c3.8-0.1,7.3,2.5,7.5,6.8c0.1,2.9,0.1,5.9-0.2,8.8
				c-0.3,3.4-3.2,5.8-6.7,5.9c-4.5,0-9-0.1-13.5,0c-3.4,0.1-5.6-1.4-7.1-4.3c-0.1-0.2-0.2-0.4-0.3-0.5c0,0-0.1-0.1-0.3-0.2
				c0,6.4,0,12.7,0,19c-3,0.7-6.4-2.2-6.8-5.4c-0.1-1-0.1-2-0.1-2.9c0-8.4,0-16.7,0-25.1c0-0.6,0-1.1,0-1.6c2.5-1,6.3,2.4,6.5,4.7
				c0.2,2.5,0.2,5,0.3,7.6c0,0.5,0,1,0,1.7c7.1,0,14,0,21.2,0c0-2.2,0-4.6-0.1-6.9c0-0.2-0.9-0.5-1.4-0.5c-4.2,0-8.5,0-12.7,0
				C87.2,209.4,84.4,206.7,84.2,202.6z"/>
			<path class="st0" d="M175.2,216.9c7.1,0,14,0,20.9,0c0.8,2.8-2.6,7.1-6.4,7.1c-4.2,0-8.5,0-12.7,0c-0.5,0-1,0-1.7,0
				c0,2.3-0.1,4.4,0.1,6.6c0,0.3,0.9,0.8,1.4,0.8c5.9,0.1,11.8,0,17.7,0c0.6,0,1.1,0,1.7,0c0.5,3.1-2.4,6.7-5.7,6.8
				c-5.3,0.1-10.6,0.1-16,0c-3-0.1-5.8-3.2-5.9-6.5c-0.1-2.7-0.1-5.4,0-8.1c0.1-2.9,1.6-5,4.4-6.2c0.4-0.2,0.8-0.3,1.1-0.5
				c0,0,0-0.1,0.1-0.2c-0.4-0.2-0.8-0.3-1.2-0.5c-3.2-1.4-5-4.6-4.3-7.9c0.7-3.6,3.3-5.8,6.9-5.8c6.5,0,13,0,19.5,0
				c0.4,0,0.8,0.1,1.2,0.1c0.4,3.4-3,6.7-6.1,6.7c-4.3,0-8.7,0.1-13,0c-1.4,0-1.9,0.4-1.8,1.8C175.3,213,175.2,214.8,175.2,216.9z"
				/>
			<path class="st0" d="M81.3,162.6c-4.3,0-8.3,0-12.4,0c0-3.6,0-7.1,0-10.7c-3.3,0-6.6,0-10.1,0c0,1.1,0,2.3,0,3.4
				c0,2.2,0,4.4,0,6.7c0,0.4-0.5,1.2-0.8,1.2c-3.9,0.1-7.7,0.1-11.7,0.1c0-4.1,0-8,0-12.2c1.5,0,3.1,0,4.6,0c1.8,0,3.5-0.1,5.3,0
				c1.4,0.1,1.7-0.5,1.7-1.8c-0.1-3.3,0-6.5,0-9.8c0-0.6,0-1.1,0-1.8c4.3,0,8.4,0,12.7,0c0,3.8,0,7.7,0,11.7c2.7,0,5.3,0,7.8,0
				c3.2,0,2.8-0.4,2.9,2.9C81.3,155.7,81.3,159.1,81.3,162.6z"/>
			<path class="st0" d="M228,238.2c-0.7,0-1.2,0.1-1.7,0.1c-6.4,0-12.8-0.1-19.2,0c-4.1,0.1-7.3-3.7-7.2-7.2c0.2-9,0.1-18,0-26.9
				c0-0.5,0-0.9,0-1.3c3.4-0.5,6.7,2.7,6.8,6.5c0.1,6,0,12.1,0,18.1c0,4,0,4,4.1,4c3.2,0,6.4,0,9.6-0.1c3.1,0,5.4,1.2,6.8,4
				C227.6,236.1,227.7,237.1,228,238.2z"/>
			<path class="st0" d="M47.2,98.7c-3.9,0-7.6,0-11.4,0c0-4.7,0-9.3,0-14c4.5,0,9,0,13.7,0c0,3.7,0,7.4,0,11.3c3,0,5.8,0.1,8.7,0
				c1.3,0,1.7,0.4,1.6,1.7c-0.1,3.3-0.1,6.5,0,9.8c0,1.1-0.2,1.6-1.4,1.5c-3.3-0.1-6.6-0.1-9.9,0c-1,0-1.3-0.3-1.3-1.3
				C47.2,104.7,47.2,101.8,47.2,98.7z"/>
			<path class="st0" d="M126.4,204.4c3-2.6,7-2.6,9.6,0.3c9.6,10.6,19,21.2,28.5,31.8c-2.7,2.6-7,2.5-9.7-0.5
				c-4.6-5.1-9.2-10.2-13.8-15.3s-9.3-10.3-13.9-15.4C127,205.1,126.7,204.8,126.4,204.4z"/>
			<path class="st0" d="M40.2,67c-5,0-9.8,0-14.7,0c0-5,0-9.9,0-15c4.9,0,9.7,0,14.7,0C40.2,57,40.2,62,40.2,67z"/>
			<path class="st0" d="M115.7,202.7c3.4-0.1,6.5,2.6,6.7,5.9c0.2,2.3,0.1,4.6,0.1,7c0,7.1,0,14.2,0,21.4c0,0.4,0,0.8-0.1,1.2
				c-2.3,0.3-4.9-1.2-6-3.6c-0.5-1-0.8-2.2-0.8-3.3c-0.1-9.3,0-18.6,0-27.9C115.7,203.2,115.7,203,115.7,202.7z"/>
			<path class="st0" d="M36.9,202.6c0.1,3.6-2.7,6.8-5.9,6.8c-9.4,0.1-18.9,0-28.3,0c-0.1,0-0.2-0.1-0.3-0.1
				c-0.7-2.5,2.5-6.7,6.1-6.7c5.8,0,11.6,0,17.3,0C29.5,202.6,33.1,202.6,36.9,202.6z"/>
			<path class="st0" d="M39.3,141.8c-4.7,0-9.1,0-13.7,0c0-4.7,0-9.3,0-14c4.6,0,9.1,0,13.7,0C39.3,132.5,39.3,137.1,39.3,141.8z"/>
			<path class="st0" d="M49.2,35.1c-0.4,0-0.8,0.1-1.1,0.1c-4.2,0-8.3,0-12.6,0c0-4.5,0-9,0-13.5c4.5,0,9.1,0,13.8,0
				C49.2,26.1,49.2,30.5,49.2,35.1z"/>
			<path class="st0" d="M67.9,108.9c0-4.4,0-8.5,0-12.7c0-0.3,0.5-0.8,0.8-0.8c4.1-0.1,8.1,0,12.3,0c0.1,0.5,0.2,0.9,0.2,1.3
				c0,3.7,0,7.3,0,11c0,0.7,0,1.3-1,1.3C76.2,108.9,72.2,108.9,67.9,108.9z"/>
			<path class="st0" d="M58.7,117.7c3.1,0,6.1,0,9.1,0c4.1,0,4.1,0,4.1,4.1c0,2.5,0,5.1,0,7.6c0,1.1-0.2,1.6-1.4,1.6
				c-3.5-0.1-6.9,0-10.4,0c-0.8,0-1.4-0.1-1.4-1.1C58.7,125.8,58.7,121.8,58.7,117.7z"/>
			<path class="st0" d="M16.3,209.8c3.2,0.1,6.4,2.7,6.5,5.9c0.2,7.5,0.1,14.9,0.1,22.4c-3,0.4-6.6-2.5-6.7-5.7
				c-0.2-7.4,0-14.8,0-22.3C16.2,210,16.3,209.9,16.3,209.8z"/>
			<path class="st0" d="M70.3,171.1c0,4.3,0,8.4,0,12.8c-0.7,0-1.3,0.1-2,0.1c-3,0-6,0-9,0c-0.5,0-1.3-0.5-1.3-0.8
				c-0.1-4-0.1-7.9-0.1-12C62.2,171.1,66.2,171.1,70.3,171.1z"/>
			<path class="st0" d="M81.1,0.6c0,3.9,0,7.7,0,11.5c-4.2,0-8.2,0-12.5,0c0-3.8,0-7.6,0-11.5C72.8,0.6,76.9,0.6,81.1,0.6z"/>
			<path class="st0" d="M152,218.5c-1.6-1.7-3-3.4-4.6-5.1c1-1.2,2-2.3,3.1-3.5c1.5-1.7,3-3.4,4.6-5.1c2.6-2.9,6.8-3,9.5-0.2
				C160.4,209.1,156.3,213.8,152,218.5z"/>
			<path class="st0" d="M126.4,236.6c4.2-4.7,8.4-9.3,12.7-14c1.5,1.7,3,3.4,4.6,5.1c-2.8,3-5.3,6.1-8.1,8.9
				C133.1,238.9,129.4,238.9,126.4,236.6z"/>
			<path class="st0" d="M124.1,255.8c0-2.6,1.4-4.2,3.7-4.2c2.1,0,3.7,1.8,3.6,4.1c0,2.4-1.6,4.2-3.7,4.1
				C125.5,259.9,124.1,258.2,124.1,255.8z"/>
			<path class="st0" d="M27.9,255.6c0,2.6-1.4,4.3-3.6,4.3s-3.6-1.6-3.6-4.1s1.3-4.1,3.6-4.1C26.5,251.6,27.9,253.1,27.9,255.6z"/>
			<path class="st0" d="M233.8,255.6c0-1.6,0-2.7,0-4.3c1.1,0.3,2.2,0.5,3,1c0.3,0.2,0.4,1.8,0,2C236.1,255,235,255.2,233.8,255.6z"
				/>
			<path class="st0" d="M142.5,256.3c0.9,1,1.8,1.9,2.7,2.8c-1.3,1.2-2.4,1.3-3.3,0.4C141.1,258.6,141.2,257.7,142.5,256.3z"/>
			<path class="st0" d="M91.7,257c0.6-1.6,1.1-2.9,1.8-4.6c0.6,1.7,1.1,3.1,1.6,4.6C93.9,257,92.9,257,91.7,257z"/>
			<path class="st0" d="M226,257c-1.2,0-2.2,0-3.4,0c0.5-1.5,1-2.9,1.6-4.6C224.9,254.1,225.4,255.5,226,257z"/>
			<path class="st0" d="M187.6,252.3c0.6,1.8,1.1,3.2,1.6,4.7c-1.2,0-2.1,0-3.3,0C186.5,255.5,187,254.1,187.6,252.3z"/>
			<path class="st0" d="M115.5,252.4c0.6,1.7,1.1,3.1,1.7,4.6c-1.1,0-2.1,0-3.3,0C114.4,255.5,114.9,254.1,115.5,252.4z"/>
			<path class="st0" d="M253.1,257c-1.2,0-2.2,0-3.4,0c0.5-1.5,1-2.8,1.6-4.6C252,254.2,252.5,255.5,253.1,257z"/>
			<path class="st0" d="M212.8,255.5c0-1.4,0-2.5,0-3.8c1.3-0.2,2.7-0.4,3.5,0.8c0.3,0.5,0.4,1.6,0,2.1
				C215.6,256,214.1,255.6,212.8,255.5z"/>
		</g>
	</g>
</g>
</svg>
