<svg id="Camada_1" data-name="Camada 1" xmlns="http://www.w3.org/2000/svg" viewBox="0 0 1080 1080"><defs><style>.cls-1{fill:#617786;}</style></defs><title>NOTICIAS</title><path class="cls-1" d="M903.94,865.94H234.86c-9,0-18.2-.69-27.12,0-.39,0-.79,0-1.18,0v15c40.3-3.6,84.61-34,84.61-78.22V281.2c0-18.64-3.17-40.65,11-55.22,8.83-9.08,20.21-11.92,32.35-11.92H894.63c4.65,0,9.53-.31,14.16.26C929.08,216.8,943,234.48,943,254.38c.06,16.95,0,33.9,0,50.86v473.1c0,15.94.09,31.89,0,47.83a39.59,39.59,0,0,1-39.1,39.77c-9.64.14-9.67,15.14,0,15A54.82,54.82,0,0,0,958,826.68c.05-4.26,0-8.53,0-12.79V272.19c0-5.87,0-11.73,0-17.6,0-21-11.23-41.11-30.67-50.17-16.39-7.64-36.56-5.36-54.23-5.36H335.86c-10.93,0-21.47,1.23-31.36,6.54-18.23,9.77-28.29,29-28.33,49.29q0,27.64,0,55.29V800.87a57.68,57.68,0,0,1-12,34.62c-13.31,17.48-37,28.61-57.58,30.45-9.45.84-9.81,15,0,15H875.65c9,0,18.09.25,27.12,0,.39,0,.78,0,1.17,0C913.59,880.94,913.61,865.94,903.94,865.94Z"/><path class="cls-1" d="M276.17,282V758.77c0,13.08.1,26.16,0,39.23-.2,27-16.39,52.06-41.43,62.64-24,10.16-54.3,6.18-74.09-11C145,835.93,137,816.8,137,796.15q0-14.79,0-29.59v-216c0-9.65-15-9.67-15,0V788.45c0,13.23.47,26.19,5.32,38.77,10.81,28,36.05,48.69,65.93,52.83,28.52,4,58-5.19,77.23-27.21a84.75,84.75,0,0,0,20.73-56c0-5.68,0-11.35,0-17V282c0-9.65-15-9.67-15,0Z"/><path class="cls-1" d="M858.89,610H743.68c-3.37,0-11.22,1.43-13.93-1.34s-1.34-10.46-1.34-13.92V493.43c0-4.49-.58-9.42,0-13.88.78-6,8.09-4.5,12.49-4.5H841.59c5.6,0,11.45-.49,17,0s4.76,6.11,4.76,10.31V550c0,18.11.72,36.38,0,54.48-.11,2.85-1.19,5.34-4.5,5.52-9.6.52-9.66,15.53,0,15,10.89-.59,19.05-8.51,19.5-19.5.06-1.3,0-2.62,0-3.93V498.31c0-6.15.22-12.35,0-18.5-.44-12.38-9.93-19.76-21.75-19.76H793.4c-19.81,0-39.65-.29-59.47,0-11.85.17-20.36,8.67-20.52,20.52-.1,7.18,0,14.37,0,21.55V603.28c0,11.81,7.39,21.31,19.76,21.75,18.37.66,36.87,0,55.25,0h70.47C868.54,625,868.56,610,858.89,610Z"/><path class="cls-1" d="M378.58,410.65H810.29c19.86,0,39.89.77,59.74,0h.86c9.65,0,9.67-15,0-15H439.18c-19.86,0-39.89-.76-59.74,0-.29,0-.57,0-.86,0-9.65,0-9.67,15,0,15Z"/><path class="cls-1" d="M378.58,689.43H810.29c19.86,0,39.89.77,59.74,0h.86c9.65,0,9.67-15,0-15H439.18c-19.86,0-39.89-.76-59.74,0-.29,0-.57,0-.86,0-9.65,0-9.67,15,0,15Z"/><path class="cls-1" d="M378.58,607.87H617.11c9.65,0,9.67-15,0-15H378.58c-9.65,0-9.67,15,0,15Z"/><path class="cls-1" d="M383,792H621.56c9.65,0,9.67-15,0-15H383c-9.65,0-9.67,15,0,15Z"/><path class="cls-1" d="M383,509.26H621.56c9.65,0,9.67-15,0-15H383c-9.65,0-9.67,15,0,15Z"/><path class="cls-1" d="M199.7,350.81V733.37c0,17.57-.7,35.3,0,52.87,0,.25,0,.51,0,.76,0,9.66,15,9.67,15,0V404.45c0-17.57.7-35.31,0-52.87,0-.26,0-.51,0-.77,0-9.65-15-9.67-15,0Z"/><path class="cls-1" d="M375.4,312H807.11c19.86,0,39.89.77,59.74,0,.29,0,.58,0,.87,0,9.65,0,9.66-15,0-15H436c-19.86,0-39.89-.76-59.74,0-.28,0-.57,0-.86,0-9.65,0-9.67,15,0,15Z"/></svg>