<?xml version="1.0" encoding="UTF-8" standalone="no"?>
<svg
   xmlns:dc="http://purl.org/dc/elements/1.1/"
   xmlns:cc="http://creativecommons.org/ns#"
   xmlns:rdf="http://www.w3.org/1999/02/22-rdf-syntax-ns#"
   xmlns:svg="http://www.w3.org/2000/svg"
   xmlns="http://www.w3.org/2000/svg"
   xmlns:sodipodi="http://sodipodi.sourceforge.net/DTD/sodipodi-0.dtd"
   xmlns:inkscape="http://www.inkscape.org/namespaces/inkscape"
   id="Camada_1"
   data-name="Camada 1"
   viewBox="0 0 212.02945 93.169472"
   version="1.1"
   sodipodi:docname="banner_noticia_padrao.svg"
   width="212.02945"
   height="93.169472"
   inkscape:version="1.0.1 (3bc2e813f5, 2020-09-07)">
  <metadata
     id="metadata214">
    <rdf:RDF>
      <cc:Work
         rdf:about="">
        <dc:format>image/svg+xml</dc:format>
        <dc:type
           rdf:resource="http://purl.org/dc/dcmitype/StillImage" />
        <dc:title>banner_noticia_padrão</dc:title>
      </cc:Work>
    </rdf:RDF>
  </metadata>
  <sodipodi:namedview
     pagecolor="#ffffff"
     bordercolor="#666666"
     borderopacity="1"
     objecttolerance="10"
     gridtolerance="10"
     guidetolerance="10"
     inkscape:pageopacity="0"
     inkscape:pageshadow="2"
     inkscape:window-width="1366"
     inkscape:window-height="704"
     id="namedview212"
     showgrid="false"
     inkscape:zoom="2.55"
     inkscape:cx="149.52124"
     inkscape:cy="24.81465"
     inkscape:window-x="0"
     inkscape:window-y="27"
     inkscape:window-maximized="1"
     inkscape:current-layer="Camada_1" />
  <defs
     id="defs143">
    <style
       id="style141">.cls-1{fill:#f1f1f1;}.cls-2{fill:#e85417;}.cls-3{fill:#ee84b3;}.cls-4{fill:#3359a4;}.cls-5{fill:#1d1d1b;}</style>
  </defs>
  <title
     id="title145">banner_noticia_padrão</title>
  <rect
     class="cls-1"
     width="212.02945"
     height="93.163818"
     id="rect147"
     x="0"
     y="0"
     style="stroke-width:0.573781" />
  <g
     id="g227"
     transform="matrix(0.55006052,0,0,0.56578606,0,-19.993394)">
    <polygon
       class="cls-2"
       points="34.65,163.55 71.11,127.09 71.11,200 34.65,200 0,200 0,199.02 "
       id="polygon149" />
    <polygon
       class="cls-3"
       points="4.71,111.19 34.27,43.08 58.47,80.56 70.57,99.31 48.62,103.27 "
       id="polygon151" />
    <path
       class="cls-4"
       d="M 0,183 V 110.1 A 36.45,36.45 0 0 1 36.45,146.55 36.45,36.45 0 0 1 0,183"
       id="path153" />
    <path
       class="cls-4"
       d="m 71.11,163.55 a 36.46,36.46 0 1 0 36.45,-36.46 36.45,36.45 0 0 0 -36.45,36.46"
       id="path155" />
    <rect
       class="cls-5"
       x="52.09"
       y="102.79"
       width="72.910004"
       height="24.299999"
       id="rect157" />
  </g>
  <g
     id="g255"
     transform="matrix(0.58397706,0,0,0.56953338,37.492928,-2.3351095)">
    <polygon
       class="cls-5"
       points="257.64,45.63 258.37,45.63 259.06,44.24 258.14,44.24 "
       id="polygon159" />
    <path
       class="cls-5"
       d="m 223.43,34.43 a 3.51,3.51 0 0 0 -0.92,-0.42 3.64,3.64 0 0 0 -2.42,0.1 3.38,3.38 0 0 0 -1.11,0.72 3.19,3.19 0 0 0 -0.75,1.06 3.11,3.11 0 0 0 -0.27,1.29 v 5.12 h 2.1 v -5.12 a 1.17,1.17 0 0 1 0.12,-0.52 1.19,1.19 0 0 1 0.3,-0.43 1.44,1.44 0 0 1 0.44,-0.28 1.63,1.63 0 0 1 0.55,-0.1 1.34,1.34 0 0 1 1,0.39 1.43,1.43 0 0 1 0.42,0.94 V 42.3 H 225 v -5.12 a 3.08,3.08 0 0 0 -0.42,-1.57 3.48,3.48 0 0 0 -1.14,-1.18"
       id="path161" />
    <path
       class="cls-5"
       d="m 228.8,36.53 a 2.26,2.26 0 0 1 0.82,-0.51 2.58,2.58 0 0 1 0.91,-0.17 2.69,2.69 0 0 1 0.93,0.17 2.31,2.31 0 0 1 0.81,0.51 l 1.49,-1.41 a 4.61,4.61 0 0 0 -1.49,-0.95 4.92,4.92 0 0 0 -1.74,-0.32 4.85,4.85 0 0 0 -3.13,1.2 4.4,4.4 0 0 0 -1,1.36 3.84,3.84 0 0 0 -0.4,1.77 4.06,4.06 0 0 0 0.31,1.56 4.55,4.55 0 0 0 0.92,1.39 4.79,4.79 0 0 0 1.44,1 4.48,4.48 0 0 0 1.9,0.39 4.92,4.92 0 0 0 1.74,-0.32 4.45,4.45 0 0 0 1.49,-0.95 l -1.49,-1.41 a 2.34,2.34 0 0 1 -0.81,0.52 2.68,2.68 0 0 1 -0.93,0.16 2.51,2.51 0 0 1 -0.87,-0.16 2.41,2.41 0 0 1 -0.79,-0.46 2.46,2.46 0 0 1 -0.58,-0.73 2.08,2.08 0 0 1 -0.22,-1 2.27,2.27 0 0 1 0.18,-0.88 2.24,2.24 0 0 1 0.55,-0.77"
       id="path163" />
    <path
       class="cls-5"
       d="m 241.12,34.6 a 5.25,5.25 0 0 0 -1.2,-0.55 4.66,4.66 0 0 0 -1.36,-0.2 4.71,4.71 0 0 0 -1.76,0.34 4.54,4.54 0 0 0 -1.45,0.92 4.4,4.4 0 0 0 -1,1.37 4,4 0 0 0 -0.36,1.7 4,4 0 0 0 0.36,1.69 4.19,4.19 0 0 0 1,1.37 4.72,4.72 0 0 0 1.46,0.93 4.54,4.54 0 0 0 1.77,0.34 4.61,4.61 0 0 0 1.77,-0.34 4.58,4.58 0 0 0 2.44,-2.3 4.14,4.14 0 0 0 -0.19,-3.75 4.81,4.81 0 0 0 -1.46,-1.52 m -0.3,4.49 a 2.27,2.27 0 0 1 -0.89,1 2.49,2.49 0 0 1 -1.37,0.39 2.58,2.58 0 0 1 -1,-0.18 2.61,2.61 0 0 1 -0.78,-0.5 2.42,2.42 0 0 1 -0.52,-0.74 2.18,2.18 0 0 1 -0.19,-0.91 2.11,2.11 0 0 1 0.19,-0.9 2.22,2.22 0 0 1 0.53,-0.75 2.43,2.43 0 0 1 0.78,-0.5 2.56,2.56 0 0 1 1,-0.18 2.5,2.5 0 0 1 0.94,0.18 2.86,2.86 0 0 1 0.78,0.49 2.66,2.66 0 0 1 0.54,0.74 2.21,2.21 0 0 1 0.2,0.92 2.11,2.11 0 0 1 -0.2,0.91"
       id="path165" />
    <path
       class="cls-5"
       d="m 249.69,34.43 a 3.44,3.44 0 0 0 -0.91,-0.42 3.7,3.7 0 0 0 -1,-0.16 3.74,3.74 0 0 0 -1.39,0.26 3.38,3.38 0 0 0 -1.11,0.72 3.34,3.34 0 0 0 -0.75,1.06 3.11,3.11 0 0 0 -0.27,1.29 v 5.12 h 2.11 v -5.12 a 1.31,1.31 0 0 1 0.11,-0.52 1.5,1.5 0 0 1 0.3,-0.43 1.48,1.48 0 0 1 0.45,-0.28 1.63,1.63 0 0 1 0.55,-0.1 1.34,1.34 0 0 1 1,0.39 1.42,1.42 0 0 1 0.41,0.94 v 5.12 h 2.11 v -5.12 a 3.08,3.08 0 0 0 -0.42,-1.57 3.3,3.3 0 0 0 -1.14,-1.18"
       id="path167" />
    <polygon
       class="cls-5"
       points="258.61,34.06 252.28,34.06 252.28,36.06 254.4,36.06 254.4,42.3 256.5,42.3 256.5,36.06 258.61,36.06 "
       id="polygon169" />
    <path
       class="cls-5"
       d="m 260.22,35.76 a 3.88,3.88 0 0 0 -0.57,1.13 4,4 0 0 0 -0.21,1.29 v 4.12 h 2.11 v -4.12 a 2.27,2.27 0 0 1 0.19,-0.9 2.54,2.54 0 0 1 0.52,-0.74 2.56,2.56 0 0 1 1.75,-0.69 v -2 a 4.68,4.68 0 0 0 -2.16,0.52 4.41,4.41 0 0 0 -1.63,1.39"
       id="path171" />
    <path
       class="cls-5"
       d="m 271.63,34.6 a 5.18,5.18 0 0 0 -1.19,-0.55 4.75,4.75 0 0 0 -3.13,0.14 4.65,4.65 0 0 0 -1.45,0.92 4.22,4.22 0 0 0 -1,1.37 3.88,3.88 0 0 0 -0.37,1.7 4,4 0 0 0 0.36,1.69 4.35,4.35 0 0 0 1,1.37 4.72,4.72 0 0 0 1.46,0.93 4.54,4.54 0 0 0 1.77,0.34 4.61,4.61 0 0 0 1.77,-0.34 4.56,4.56 0 0 0 1.45,-0.93 4.37,4.37 0 0 0 1,-1.37 4.14,4.14 0 0 0 -0.19,-3.75 4.81,4.81 0 0 0 -1.46,-1.52 m -0.29,4.49 a 2.35,2.35 0 0 1 -0.9,1 2.47,2.47 0 0 1 -1.37,0.39 2.49,2.49 0 0 1 -1.75,-0.68 2.42,2.42 0 0 1 -0.52,-0.74 2.18,2.18 0 0 1 -0.19,-0.91 2.11,2.11 0 0 1 0.19,-0.9 2.22,2.22 0 0 1 0.53,-0.75 2.47,2.47 0 0 1 0.79,-0.5 2.57,2.57 0 0 1 1.86,0 2.86,2.86 0 0 1 0.78,0.49 2.66,2.66 0 0 1 0.54,0.74 2.06,2.06 0 0 1 0.2,0.92 2.25,2.25 0 0 1 -0.19,0.91"
       id="path173" />
    <path
       class="cls-5"
       d="m 280,39.71 a 1.11,1.11 0 0 0 0,-0.19 2.68,2.68 0 0 0 -2.74,-2.31 h -0.09 a 0.63,0.63 0 0 1 -0.65,-0.55 v -0.11 a 0.63,0.63 0 0 1 0.65,-0.54 h 2.5 v -1.95 h -2.48 a 2.76,2.76 0 0 0 -1.07,0.21 2.8,2.8 0 0 0 -0.89,0.56 2.74,2.74 0 0 0 -0.61,0.82 2.47,2.47 0 0 0 -0.21,0.85 v 0.22 c 0,0.06 0,0.12 0,0.17 v 0 a 2.48,2.48 0 0 0 0.2,0.67 2.31,2.31 0 0 0 0.44,0.66 l 0.16,0.17 a 3,3 0 0 0 0.89,0.56 2.87,2.87 0 0 0 1.1,0.21 h 0.05 a 0.63,0.63 0 0 1 0.65,0.55 v 0.1 a 0.64,0.64 0 0 1 -0.65,0.55 h -2.51 v 1.94 h 2.62 a 2.72,2.72 0 0 0 2.55,-1.88 v 0 c 0,0 0,-0.1 0,-0.14 V 40.1 a 1.33,1.33 0 0 0 0,-0.28 z"
       id="path175" />
    <polygon
       class="cls-5"
       points="211.04,42.3 212.86,42.3 216.59,42.3 216.59,40.31 212.86,40.31 212.86,39.13 215.84,39.13 215.84,37.32 212.86,37.32 212.86,36.06 216.59,36.06 216.59,34.06 212.86,34.06 211.04,34.06 210.75,34.06 210.75,42.3 "
       id="polygon177" />
    <path
       class="cls-5"
       d="m 213.15,49.44 c 0,0.64 -0.29,1 -0.81,1 -0.52,0 -0.81,-0.34 -0.81,-1 v -3.06 h -0.8 v 3.06 a 1.61,1.61 0 1 0 3.22,0 v -3.06 h -0.8 z"
       id="path179" />
    <polygon
       class="cls-5"
       points="218.22,51.1 219.01,51.1 219.01,46.38 218.21,46.38 218.21,49.52 216.59,46.38 215.8,46.38 215.8,51.1 216.6,51.1 216.6,47.97 "
       id="polygon181" />
    <polygon
       class="cls-5"
       points="224.15,50.36 222.88,50.36 222.88,47.13 224.15,47.13 224.15,46.38 220.8,46.38 220.8,47.13 222.08,47.13 222.08,50.36 220.8,50.36 220.8,51.1 224.15,51.1 "
       id="polygon183" />
    <polygon
       class="cls-5"
       points="228.59,46.38 227.55,49.76 226.5,46.38 225.68,46.38 227.18,51.1 227.91,51.1 229.4,46.38 "
       id="polygon185" />
    <polygon
       class="cls-5"
       points="234.06,48.21 231.94,48.21 231.94,47.13 234.29,47.13 234.29,46.38 231.14,46.38 231.14,51.1 234.29,51.1 234.29,50.36 231.94,50.36 231.94,48.95 234.06,48.95 "
       id="polygon187" />
    <path
       class="cls-5"
       d="m 239.31,47.67 a 1.24,1.24 0 0 0 -1.41,-1.29 h -1.7 V 51.1 H 237 V 49 h 0.44 l 1.33,2.15 h 0.91 l -1.35,-2.19 a 1.18,1.18 0 0 0 1,-1.24 m -2.3,-0.54 h 0.89 c 0.43,0 0.61,0.15 0.61,0.54 0,0.39 -0.18,0.54 -0.61,0.54 H 237 Z"
       id="path189" />
    <path
       class="cls-5"
       d="m 242.85,48.26 c -0.69,-0.2 -0.83,-0.37 -0.83,-0.57 a 0.65,0.65 0 0 1 0.73,-0.63 1,1 0 0 1 1,0.85 v 0.11 l 0.72,-0.17 v -0.1 a 1.64,1.64 0 0 0 -1.7,-1.43 1.38,1.38 0 0 0 -1.53,1.37 c 0,0.64 0.41,1 1.43,1.32 0.86,0.25 1,0.46 1,0.7 0,0.43 -0.37,0.71 -0.94,0.71 a 0.94,0.94 0 0 1 -1,-1 V 49.31 H 241 v 0.11 a 1.67,1.67 0 0 0 1.8,1.73 c 1,0 1.74,-0.59 1.74,-1.46 0,-0.68 -0.46,-1.09 -1.64,-1.45"
       id="path191" />
    <polygon
       class="cls-5"
       points="249.5,50.36 248.22,50.36 248.22,47.13 249.5,47.13 249.5,46.38 246.15,46.38 246.15,47.13 247.42,47.13 247.42,50.36 246.15,50.36 246.15,51.1 249.5,51.1 "
       id="polygon193" />
    <polygon
       class="cls-5"
       points="254.57,46.38 251.22,46.38 251.22,47.13 252.49,47.13 252.49,51.1 253.29,51.1 253.29,47.13 254.57,47.13 "
       id="polygon195" />
    <path
       class="cls-5"
       d="m 257.59,46.38 -1.49,4.72 h 0.81 l 0.4,-1.29 h 1.3 l 0.4,1.29 h 0.81 l -1.49,-4.72 z m 0.79,2.69 h -0.84 l 0.42,-1.59 z"
       id="path197" />
    <path
       class="cls-5"
       d="m 264.66,47.67 a 1.24,1.24 0 0 0 -1.41,-1.29 h -1.7 v 4.72 h 0.8 V 49 h 0.45 l 1.33,2.15 h 0.9 l -1.35,-2.19 a 1.18,1.18 0 0 0 1,-1.24 m -2.31,-0.54 h 0.9 c 0.43,0 0.61,0.15 0.61,0.54 0,0.39 -0.18,0.54 -0.61,0.54 h -0.9 z"
       id="path199" />
    <polygon
       class="cls-5"
       points="269.77,50.36 268.5,50.36 268.5,47.13 269.77,47.13 269.77,46.38 266.43,46.38 266.43,47.13 267.7,47.13 267.7,50.36 266.43,50.36 266.43,51.1 269.77,51.1 "
       id="polygon201" />
    <path
       class="cls-5"
       d="m 273.17,46.32 c -1.15,0 -1.81,0.88 -1.81,2.42 0,1.54 0.66,2.43 1.81,2.43 1.15,0 1.81,-0.89 1.81,-2.43 0,-1.54 -0.66,-2.42 -1.81,-2.42 m 0,4.1 c -0.87,0 -1,-1.05 -1,-1.68 0,-0.63 0.13,-1.68 1,-1.68 0.87,0 1,1 1,1.68 0,0.68 -0.13,1.68 -1,1.68"
       id="path203" />
    <path
       class="cls-5"
       d="m 278.33,48.26 c -0.69,-0.2 -0.83,-0.37 -0.83,-0.57 0,-0.38 0.29,-0.63 0.74,-0.63 a 1,1 0 0 1 1,0.85 v 0.11 l 0.72,-0.17 v -0.1 a 1.63,1.63 0 0 0 -1.69,-1.43 1.38,1.38 0 0 0 -1.54,1.37 c 0,0.64 0.42,1 1.44,1.32 0.86,0.25 1,0.46 1,0.7 0,0.43 -0.37,0.71 -0.94,0.71 a 1,1 0 0 1 -1,-1 v -0.11 h -0.77 v 0.11 a 1.68,1.68 0 0 0 1.81,1.73 c 1,0 1.74,-0.59 1.74,-1.46 0,-0.68 -0.46,-1.09 -1.65,-1.45"
       id="path205" />
    <path
       class="cls-5"
       d="m 181.31,20 a 22.5,22.5 0 1 0 22.5,22.5 22.5,22.5 0 0 0 -22.5,-22.5 m -16.9,16.38 1.43,-1.38 2.86,-2.86 1.43,1.43 -2.86,2.86 1,0.95 2.31,-2.38 1.42,1.37 -2.35,2.35 1,1 2.86,-2.87 1.43,1.44 -2.94,2.85 -1.43,1.43 -1.43,-1.43 -3.34,-3.33 z m 9.51,16.13 -1.63,-1.2 -4,5.44 -1.63,-1.19 4,-5.44 -1.66,-1.2 1.19,-1.63 4.9,3.58 z m 1.62,-22 3.33,-4.24 a 3.38,3.38 0 0 1 1,-0.87 3.42,3.42 0 0 1 1.23,-0.4 3.28,3.28 0 0 1 1.28,0.09 3.37,3.37 0 0 1 1.21,0.61 3.47,3.47 0 0 1 0.69,0.74 3.09,3.09 0 0 1 0.42,0.88 3.37,3.37 0 0 1 0.12,1.61 3.26,3.26 0 0 1 -0.67,1.51 l -3.33,4.24 -1.59,-1.25 3.33,-4.24 a 1.43,1.43 0 0 0 0.28,-1 1.26,1.26 0 0 0 -0.5,-0.9 1.54,1.54 0 0 0 -0.48,-0.24 1.26,1.26 0 0 0 -0.51,0 1.28,1.28 0 0 0 -0.49,0.16 1.25,1.25 0 0 0 -0.41,0.35 l -3.34,4.24 z m 3.07,15.42 a 4.22,4.22 0 0 1 -0.53,-2.09 4.09,4.09 0 0 1 0.35,-1.71 4.61,4.61 0 0 1 0.94,-1.39 4.53,4.53 0 0 1 1.4,-0.94 4.4,4.4 0 0 1 3.39,0 4.61,4.61 0 0 1 1.39,0.94 4.46,4.46 0 0 1 0.95,1.39 4.25,4.25 0 0 1 0.34,1.71 4.31,4.31 0 0 1 -0.35,1.73 4.46,4.46 0 0 1 -1,1.39 4.51,4.51 0 0 1 -1.4,0.93 4.34,4.34 0 0 1 -1.68,0.33 4,4 0 0 1 -1.31,-0.2 4.62,4.62 0 0 1 -1.14,-0.55 4.81,4.81 0 0 1 -1.4,-1.54 M 188,57.29 186.89,55.2 a 0.63,0.63 0 0 0 -0.42,-0.33 0.64,0.64 0 0 0 -0.49,0.05 0.62,0.62 0 0 0 -0.34,0.41 0.65,0.65 0 0 0 0.06,0.51 2.66,2.66 0 0 1 0.27,0.76 2.57,2.57 0 0 1 0,0.78 2.74,2.74 0 0 1 -0.45,1.22 2.5,2.5 0 0 1 -1,0.88 2.61,2.61 0 0 1 -1,0.31 2.76,2.76 0 0 1 -1.95,-0.61 2.7,2.7 0 0 1 -0.66,-0.81 l -1.11,-2.09 1.79,-1 1.1,2.09 a 0.67,0.67 0 0 0 0.4,0.32 0.64,0.64 0 0 0 0.51,0 0.69,0.69 0 0 0 0.33,-0.4 0.67,0.67 0 0 0 0,-0.52 2.55,2.55 0 0 1 -0.3,-1 2.72,2.72 0 0 1 0.11,-1 2.87,2.87 0 0 1 0.49,-0.91 2.44,2.44 0 0 1 0.82,-0.67 2.32,2.32 0 0 1 1,-0.3 2.74,2.74 0 0 1 1.94,0.59 2.57,2.57 0 0 1 0.68,0.82 l 1.11,2.09 z m 2.46,-28.55 1.76,1 a 2.18,2.18 0 0 0 -0.3,0.9 2.27,2.27 0 0 0 0.08,0.9 2.36,2.36 0 0 0 0.4,0.81 2.43,2.43 0 0 0 0.7,0.61 l 3.81,2.16 -1,1.76 -3.81,-2.17 a 4.15,4.15 0 0 1 -1,-0.81 4.89,4.89 0 0 1 -0.73,-1 4.56,4.56 0 0 1 -0.45,-2.06 4.36,4.36 0 0 1 0.58,-2.06 m 8,20.07 a 4.38,4.38 0 0 1 -1.06,1.32 4.2,4.2 0 0 1 -1.51,0.83 l -0.74,-2 a 2.29,2.29 0 0 0 0.83,-0.45 2.55,2.55 0 0 0 0.56,-0.71 2.46,2.46 0 0 0 0.26,-0.86 2.32,2.32 0 0 0 -0.1,-0.93 2.36,2.36 0 0 0 -0.44,-0.83 2.29,2.29 0 0 0 -0.71,-0.57 2.26,2.26 0 0 0 -1,-0.27 2.29,2.29 0 0 0 -0.91,0.15 2.32,2.32 0 0 0 -0.77,0.46 2.66,2.66 0 0 0 -0.53,0.65 2.37,2.37 0 0 0 -0.26,0.87 2.28,2.28 0 0 0 0.1,0.93 l -1.93,0.6 a 4.17,4.17 0 0 1 -0.18,-1.71 4.39,4.39 0 0 1 0.48,-1.63 4.1,4.1 0 0 1 1.2,-1.42 4.57,4.57 0 0 1 1.53,-0.76 4.52,4.52 0 0 1 3.19,0.34 4.2,4.2 0 0 1 1.41,1.18 4.39,4.39 0 0 1 0.89,3.18 4.15,4.15 0 0 1 -0.46,1.56"
       id="path207" />
    <path
       class="cls-5"
       d="m 180.29,42.94 a 2.3,2.3 0 0 1 0.85,-1 2.36,2.36 0 0 1 1.32,-0.4 2.41,2.41 0 0 1 0.93,0.19 2.49,2.49 0 0 1 0.75,0.51 2.34,2.34 0 0 1 0.68,1.66 2.36,2.36 0 0 1 -0.18,0.92 2.32,2.32 0 0 1 -0.51,0.75 2.27,2.27 0 0 1 -0.75,0.51 2.39,2.39 0 0 1 -0.92,0.18 2.26,2.26 0 0 1 -0.9,-0.18 2.52,2.52 0 0 1 -0.75,-0.5 2.32,2.32 0 0 1 -0.51,-0.75 2.07,2.07 0 0 1 -0.2,-0.93 2.22,2.22 0 0 1 0.19,-0.91"
       id="path209" />
  </g>
</svg>
