<svg xmlns="http://www.w3.org/2000/svg" xmlns:xlink="http://www.w3.org/1999/xlink" viewBox="0 0 1408.43 352.67"><defs><style>.cls-1{fill:none;}.cls-2{isolation:isolate;}.cls-3{fill:#3359a4;}.cls-4{fill:#e85417;}.cls-5{fill:#ee84b3;}.cls-6{mix-blend-mode:difference;}.cls-7{clip-path:url(#clip-path);}.cls-8{fill:#40a7de;}.cls-9{fill:#1d1d1b;}.cls-10{fill:#f0f0f0;}</style><clipPath id="clip-path"><rect class="cls-1" x="704.21" width="352.11" height="305.55"/></clipPath></defs><title>elemento_superior</title><g class="cls-2"><g id="Camada_2" data-name="Camada 2"><g id="Camada_1-2" data-name="Camada 1"><path class="cls-3" d="M352.11.56V0H0C0,.19,0,.38,0,.56,0,195,157.64,352.67,352.11,352.67a350.49,350.49,0,0,0,176-47.12c-105.24-60.88-176-174.66-176-305"/><path class="cls-4" d="M880.27,305.55C775,244.67,704.21,130.89,704.21.56c0,130.33-70.81,244.11-176.05,305a350.49,350.49,0,0,0,176.05,47.12,350.52,350.52,0,0,0,176.06-47.12"/><path class="cls-4" d="M704.21.56V0H352.11V.56c0,130.33,70.81,244.11,176,305C633.4,244.67,704.21,130.89,704.21.56"/><path class="cls-5" d="M704.21.56V0H352.11V.56c0,130.33,70.81,244.11,176,305C633.4,244.67,704.21,130.89,704.21.56"/><path class="cls-3" d="M1056.32.56c0,130.33-70.81,244.11-176,305a350.46,350.46,0,0,0,176,47.12c194.46,0,352.11-157.64,352.11-352.11,0-.18,0-.37,0-.56H1056.31c0,.19,0,.38,0,.56"/><g class="cls-6"><g class="cls-7"><path class="cls-8" d="M1056.32.56c0-.18,0-.37,0-.56H704.22c0,.19,0,.38,0,.56,0,130.33,70.81,244.11,176.06,305,105.24-60.88,176-174.66,176-305"/></g></g><path class="cls-9" d="M1056.32.56c0-.18,0-.37,0-.56H704.22c0,.19,0,.38,0,.56,0,130.33,70.81,244.11,176.06,305,105.24-60.88,176-174.66,176-305"/><path class="cls-10" d="M666.77,306.29a4.58,4.58,0,0,1-2.3-.56,3.85,3.85,0,0,1-1.48-1.46,4.12,4.12,0,0,1-.5-2,4.44,4.44,0,0,1,.54-2.1,4.68,4.68,0,0,1,1.51-1.71l8.21-5.87a6.2,6.2,0,0,0,1.8-2,4.63,4.63,0,0,0,.61-2.27,4,4,0,0,0-.57-2.14,4.28,4.28,0,0,0-1.68-1.48,5.9,5.9,0,0,0-2.68-.55h-6.52v-3.06h6.88a8.84,8.84,0,0,1,4.34,1,7,7,0,0,1,3.69,6.24,7.71,7.71,0,0,1-.92,3.69,8.73,8.73,0,0,1-2.86,3l-8.17,5.69a1.58,1.58,0,0,0-.56.56,1.41,1.41,0,0,0-.2.7,1.13,1.13,0,0,0,.38.88,1.5,1.5,0,0,0,1.06.35h11.88v3.06Z"/><path class="cls-10" d="M692.58,306.75a9.55,9.55,0,0,1-4.71-1.15,8.59,8.59,0,0,1-3.28-3.13A8.47,8.47,0,0,1,683.4,298v-8.71a8.38,8.38,0,0,1,1.19-4.41,8.54,8.54,0,0,1,3.28-3.11,9.56,9.56,0,0,1,4.71-1.16,9.33,9.33,0,0,1,4.65,1.16,8.77,8.77,0,0,1,3.26,3.11,8.29,8.29,0,0,1,1.2,4.41V298a8.39,8.39,0,0,1-1.2,4.43,8.82,8.82,0,0,1-3.26,3.13A9.32,9.32,0,0,1,692.58,306.75Zm0-3.06a5.65,5.65,0,0,0,2.83-.72,5.73,5.73,0,0,0,2.05-1.92,4.85,4.85,0,0,0,.78-2.68V289a4.86,4.86,0,0,0-.78-2.69,5.73,5.73,0,0,0-2.05-1.92,5.65,5.65,0,0,0-2.83-.72,5.87,5.87,0,0,0-2.86.72,5.77,5.77,0,0,0-2.09,1.92,4.93,4.93,0,0,0-.77,2.69v9.36a4.93,4.93,0,0,0,.77,2.68,5.77,5.77,0,0,0,2.09,1.92A5.87,5.87,0,0,0,692.58,303.69Z"/><path class="cls-10" d="M710,306.29a4.56,4.56,0,0,1-2.3-.56,3.85,3.85,0,0,1-1.48-1.46,4.12,4.12,0,0,1-.5-2,4.44,4.44,0,0,1,.54-2.1,4.68,4.68,0,0,1,1.51-1.71l8.21-5.87a6.2,6.2,0,0,0,1.8-2,4.63,4.63,0,0,0,.61-2.27,3.9,3.9,0,0,0-.58-2.14,4.18,4.18,0,0,0-1.67-1.48,5.9,5.9,0,0,0-2.68-.55h-6.52v-3.06h6.88a8.84,8.84,0,0,1,4.34,1,7,7,0,0,1,3.69,6.24,7.71,7.71,0,0,1-.92,3.69,8.73,8.73,0,0,1-2.86,3l-8.18,5.69a1.55,1.55,0,0,0-.55.56,1.31,1.31,0,0,0-.2.7,1.13,1.13,0,0,0,.38.88,1.5,1.5,0,0,0,1.06.35h11.88v3.06Z"/><path class="cls-10" d="M735.78,306.75a9.55,9.55,0,0,1-4.71-1.15,8.59,8.59,0,0,1-3.28-3.13A8.47,8.47,0,0,1,726.6,298v-8.71a8.38,8.38,0,0,1,1.19-4.41,8.54,8.54,0,0,1,3.28-3.11,9.56,9.56,0,0,1,4.71-1.16,9.33,9.33,0,0,1,4.65,1.16,8.77,8.77,0,0,1,3.26,3.11,8.29,8.29,0,0,1,1.2,4.41V298a8.39,8.39,0,0,1-1.2,4.43,8.82,8.82,0,0,1-3.26,3.13A9.32,9.32,0,0,1,735.78,306.75Zm0-3.06a5.65,5.65,0,0,0,2.83-.72,5.73,5.73,0,0,0,2-1.92,4.85,4.85,0,0,0,.78-2.68V289a4.86,4.86,0,0,0-.78-2.69,5.73,5.73,0,0,0-2-1.92,5.65,5.65,0,0,0-2.83-.72,5.87,5.87,0,0,0-2.86.72,5.77,5.77,0,0,0-2.09,1.92,4.93,4.93,0,0,0-.77,2.69v9.36a4.93,4.93,0,0,0,.77,2.68,5.77,5.77,0,0,0,2.09,1.92A5.87,5.87,0,0,0,735.78,303.69Z"/><polygon class="cls-10" points="810.82 163.51 808.36 163.51 807.02 167.23 808.99 167.23 810.82 163.51"/><path class="cls-10" d="M715,137.12a9.55,9.55,0,0,0-2.46-1.13,9.78,9.78,0,0,0-2.8-.41,9.66,9.66,0,0,0-3.72.7,9.12,9.12,0,0,0-5,4.76,8.4,8.4,0,0,0-.73,3.49V158.3H706V144.53a3.37,3.37,0,0,1,.3-1.41,3.52,3.52,0,0,1,.81-1.15,3.69,3.69,0,0,1,1.2-.75,3.92,3.92,0,0,1,1.47-.27,3.59,3.59,0,0,1,2.67,1.06,3.75,3.75,0,0,1,1.11,2.52V158.3h5.67V144.53a8.33,8.33,0,0,0-1.13-4.24,9.19,9.19,0,0,0-3.06-3.17"/><path class="cls-10" d="M729.47,142.78a6.53,6.53,0,0,1,2.19-1.38,7,7,0,0,1,2.46-.45,7.13,7.13,0,0,1,2.5.45,6.34,6.34,0,0,1,2.19,1.38l4-3.8a12,12,0,0,0-4-2.54,13,13,0,0,0-4.67-.86,12.56,12.56,0,0,0-4.48.84,12.83,12.83,0,0,0-3.93,2.36,12.14,12.14,0,0,0-2.8,3.67,10.49,10.49,0,0,0-1.08,4.77,11.16,11.16,0,0,0,.85,4.19,11.71,11.71,0,0,0,2.46,3.72,12.6,12.6,0,0,0,3.88,2.68,12,12,0,0,0,5.1,1,12.8,12.8,0,0,0,4.67-.86,12,12,0,0,0,4-2.54l-4-3.79a6.31,6.31,0,0,1-2.19,1.37,7.13,7.13,0,0,1-2.5.45,7.17,7.17,0,0,1-4.46-1.66,6.54,6.54,0,0,1-1.55-2,5.66,5.66,0,0,1-.61-2.63,5.93,5.93,0,0,1,.5-2.37,6.2,6.2,0,0,1,1.47-2.07"/><path class="cls-10" d="M762.6,137.58a13.63,13.63,0,0,0-3.22-1.46,12.28,12.28,0,0,0-3.66-.54,12.75,12.75,0,0,0-8.65,3.36,11.77,11.77,0,0,0-2.66,3.69,10.69,10.69,0,0,0-1,4.59,10.85,10.85,0,0,0,1,4.54,11.43,11.43,0,0,0,2.65,3.69,12.67,12.67,0,0,0,3.91,2.49,12.88,12.88,0,0,0,9.51,0,12.33,12.33,0,0,0,3.91-2.49,11.9,11.9,0,0,0,2.65-3.69,11,11,0,0,0-.51-10.08,12.86,12.86,0,0,0-3.91-4.1m-.8,12.07a6.12,6.12,0,0,1-2.4,2.77,6.62,6.62,0,0,1-3.68,1.06,6.87,6.87,0,0,1-2.62-.5,6.75,6.75,0,0,1-2.09-1.34,6.08,6.08,0,0,1-1.4-2,6.07,6.07,0,0,1,0-4.87,6.14,6.14,0,0,1,1.42-2,6.63,6.63,0,0,1,2.11-1.35,7,7,0,0,1,2.58-.48,6.63,6.63,0,0,1,2.51.48,7.14,7.14,0,0,1,2.1,1.33,6.5,6.5,0,0,1,1.45,2,5.63,5.63,0,0,1,.55,2.48,6,6,0,0,1-.53,2.43"/><path class="cls-10" d="M785.64,137.12a9.55,9.55,0,0,0-2.46-1.13,10,10,0,0,0-6.52.29,9.28,9.28,0,0,0-3,1.91,9.12,9.12,0,0,0-2,2.85,8.41,8.41,0,0,0-.74,3.49V158.3h5.67V144.53a3.23,3.23,0,0,1,.31-1.41,3.52,3.52,0,0,1,.81-1.15,3.76,3.76,0,0,1,1.19-.75,3.94,3.94,0,0,1,1.48-.27,3.55,3.55,0,0,1,2.66,1.06,3.81,3.81,0,0,1,1.12,2.52V158.3h5.67V144.53a8.25,8.25,0,0,0-1.14-4.24,9,9,0,0,0-3.06-3.17"/><polygon class="cls-10" points="792.61 141.5 798.29 141.5 798.29 158.3 803.96 158.3 803.96 141.5 809.63 141.5 809.63 136.13 792.61 136.13 792.61 141.5"/><path class="cls-10" d="M813.94,140.7a11.27,11.27,0,0,0-1.53,3,10.84,10.84,0,0,0-.55,3.48V158.3h5.67V147.22a5.8,5.8,0,0,1,.51-2.42,6.58,6.58,0,0,1,1.4-2,6.73,6.73,0,0,1,2.1-1.36,6.85,6.85,0,0,1,2.61-.5v-5.37a12.56,12.56,0,0,0-5.83,1.38,12.06,12.06,0,0,0-4.38,3.74"/><path class="cls-10" d="M844.63,137.58a13.38,13.38,0,0,0-3.21-1.46,12.34,12.34,0,0,0-3.67-.54,12.7,12.7,0,0,0-8.64,3.36,12,12,0,0,0-2.67,3.69,11.23,11.23,0,0,0,0,9.13,11.74,11.74,0,0,0,2.65,3.69,12.79,12.79,0,0,0,3.91,2.49,12.71,12.71,0,0,0,13.43-2.49,12.06,12.06,0,0,0,2.65-3.69,11,11,0,0,0-.51-10.08,13,13,0,0,0-3.92-4.1m-.79,12.07a6.25,6.25,0,0,1-2.4,2.77,6.66,6.66,0,0,1-3.69,1.06,6.85,6.85,0,0,1-2.61-.5,6.68,6.68,0,0,1-2.1-1.34,6.24,6.24,0,0,1-1.4-2,6.07,6.07,0,0,1,0-4.87,6.29,6.29,0,0,1,1.42-2,6.67,6.67,0,0,1,2.12-1.35,6.87,6.87,0,0,1,2.57-.48,6.63,6.63,0,0,1,2.51.48,6.89,6.89,0,0,1,2.1,1.33,6.53,6.53,0,0,1,1.46,2,5.77,5.77,0,0,1,.55,2.48,6,6,0,0,1-.53,2.43"/><path class="cls-10" d="M867.13,151.32c0-.17,0-.34,0-.51a7.22,7.22,0,0,0-7.38-6.2h-.25a1.7,1.7,0,0,1-1.74-1.48s0-.09,0-.14a.86.86,0,0,1,0-.16,1.7,1.7,0,0,1,1.74-1.46h6.74v-5.24h-6.68a7.89,7.89,0,0,0-2.87.56,7.74,7.74,0,0,0-2.4,1.5,7.33,7.33,0,0,0-1.63,2.22,6.18,6.18,0,0,0-.57,2.28c0,.05,0,.1,0,.14v.28a1.21,1.21,0,0,0,0,.19l0,.44h0a6.47,6.47,0,0,0,.52,1.79,7.25,7.25,0,0,0,1.19,1.79c.14.15.27.29.42.43a7.61,7.61,0,0,0,2.4,1.52,7.7,7.7,0,0,0,3,.56h.13a1.69,1.69,0,0,1,1.73,1.47,1,1,0,0,1,0,.28,1.69,1.69,0,0,1-1.73,1.47H853v5.24h7a7.32,7.32,0,0,0,6.87-5.06v0c0-.13.07-.26.1-.39a4,4,0,0,0,.09-.48,6.31,6.31,0,0,0,.08-.76Z"/><polygon class="cls-10" points="696.65 141.5 696.65 136.13 686.62 136.13 681.74 136.13 680.94 136.13 680.94 158.3 681.74 158.3 686.62 158.3 696.65 158.3 696.65 152.93 686.62 152.93 686.62 149.76 694.63 149.76 694.63 144.9 686.62 144.9 686.62 141.5 696.65 141.5"/><path class="cls-10" d="M687.39,177.5c0,1.69-.78,2.63-2.18,2.63s-2.17-.94-2.17-2.63v-8.23h-2.15v8.23c0,2.94,1.57,4.63,4.32,4.63s4.33-1.69,4.33-4.63v-8.23h-2.15Z"/><polygon class="cls-10" points="701 177.7 696.66 169.27 694.53 169.27 694.53 181.95 696.69 181.95 696.69 173.53 701.02 181.95 703.15 181.95 703.15 169.27 701 169.27 701 177.7"/><polygon class="cls-10" points="707.97 171.27 711.39 171.27 711.39 179.95 707.97 179.95 707.97 181.95 716.97 181.95 716.97 179.95 713.55 179.95 713.55 171.27 716.97 171.27 716.97 169.27 707.97 169.27 707.97 171.27"/><polygon class="cls-10" points="726.1 178.35 723.27 169.27 721.09 169.27 725.1 181.95 727.08 181.95 731.1 169.27 728.91 169.27 726.1 178.35"/><polygon class="cls-10" points="735.75 181.95 744.23 181.95 744.23 179.95 737.91 179.95 737.91 176.17 743.6 176.17 743.6 174.17 737.91 174.17 737.91 171.27 744.23 171.27 744.23 169.27 735.75 169.27 735.75 181.95"/><path class="cls-10" d="M757.74,172.72c0-2.16-1.42-3.45-3.8-3.45h-4.56V182h2.16v-5.78h1.2l3.57,5.78h2.43l-3.63-5.9a3.16,3.16,0,0,0,2.63-3.33m-6.2-1.45h2.4c1.17,0,1.64.42,1.64,1.45s-.47,1.45-1.64,1.45h-2.4Z"/><path class="cls-10" d="M767.24,174.3c-1.86-.54-2.23-1-2.23-1.53,0-1,.78-1.68,2-1.68a2.58,2.58,0,0,1,2.6,2.28l0,.31,1.94-.47,0-.27a4.39,4.39,0,0,0-4.55-3.85c-2.47,0-4.14,1.48-4.14,3.68,0,1.72,1.12,2.75,3.87,3.56,2.32.68,2.79,1.25,2.79,1.89,0,1.16-1,1.91-2.52,1.91a2.54,2.54,0,0,1-2.78-2.63v-.3h-2.07v.3c0,2.77,2,4.62,4.85,4.62s4.67-1.56,4.67-3.9c0-1.84-1.23-2.94-4.42-3.92"/><polygon class="cls-10" points="776.12 171.27 779.54 171.27 779.54 179.95 776.12 179.95 776.12 181.95 785.12 181.95 785.12 179.95 781.7 179.95 781.7 171.27 785.12 171.27 785.12 169.27 776.12 169.27 776.12 171.27"/><polygon class="cls-10" points="789.75 171.27 793.17 171.27 793.17 181.95 795.33 181.95 795.33 171.27 798.75 171.27 798.75 169.27 789.75 169.27 789.75 171.27"/><path class="cls-10" d="M806.88,169.27l-4,12.68h2.19l1.08-3.46h3.49l1.07,3.46h2.18l-4-12.68ZM809,176.5h-2.25l1.13-4.29Z"/><path class="cls-10" d="M825.89,172.72c0-2.16-1.43-3.45-3.81-3.45h-4.55V182h2.15v-5.78h1.21l3.57,5.78h2.43l-3.63-5.9a3.17,3.17,0,0,0,2.63-3.33m-6.21-1.45h2.4c1.17,0,1.65.42,1.65,1.45s-.48,1.45-1.65,1.45h-2.4Z"/><polygon class="cls-10" points="830.63 171.27 834.06 171.27 834.06 179.95 830.63 179.95 830.63 181.95 839.64 181.95 839.64 179.95 836.21 179.95 836.21 171.27 839.64 171.27 839.64 169.27 830.63 169.27 830.63 171.27"/><path class="cls-10" d="M848.76,169.09c-3.08,0-4.85,2.38-4.85,6.52s1.77,6.52,4.85,6.52,4.86-2.38,4.86-6.52-1.77-6.52-4.86-6.52m0,11c-2.34,0-2.69-2.83-2.69-4.52s.35-4.52,2.69-4.52,2.7,2.83,2.7,4.52-.35,4.52-2.7,4.52"/><path class="cls-10" d="M862.65,174.3c-1.86-.54-2.23-1-2.23-1.53,0-1,.77-1.68,2-1.68a2.58,2.58,0,0,1,2.6,2.28l0,.31,1.94-.47,0-.27a4.4,4.4,0,0,0-4.56-3.85c-2.47,0-4.13,1.48-4.13,3.68,0,1.72,1.12,2.75,3.86,3.56,2.32.68,2.8,1.25,2.8,1.89,0,1.16-1,1.91-2.53,1.91a2.54,2.54,0,0,1-2.78-2.63v-.3h-2.07v.3c0,2.77,2,4.62,4.85,4.62s4.68-1.56,4.68-3.9c0-1.84-1.24-2.94-4.42-3.92"/><path class="cls-10" d="M601.79,98.33a60.5,60.5,0,1,0,60.49,60.49,60.5,60.5,0,0,0-60.49-60.49m-45.42,44,3.84-3.85,7.69-7.68,3.85,3.84-7.69,7.69,2.56,2.56,6.32-6.32,3.74,3.74-6.32,6.32,2.67,2.67,7.68-7.69,3.85,3.84-7.69,7.69L573,159l-3.85-3.85-9-9Zm25.57,43.36-4.39-3.21-10.71,14.62-4.38-3.21,10.7-14.63-4.38-3.21,3.21-4.38,13.16,9.63Zm4.35-59.1,9-11.41a8.84,8.84,0,0,1,2.74-2.34,9.44,9.44,0,0,1,3.29-1.08,9.16,9.16,0,0,1,3.45.24A8.89,8.89,0,0,1,608,113.7a8.71,8.71,0,0,1,1.85,2,9.25,9.25,0,0,1,1.48,6.69,8.84,8.84,0,0,1-1.81,4l-9,11.4-4.28-3.36,9-11.4a4,4,0,0,0,.74-2.67,3.32,3.32,0,0,0-1.35-2.42,3.81,3.81,0,0,0-1.28-.66,3.54,3.54,0,0,0-1.37-.11,3.66,3.66,0,0,0-1.33.44,3.44,3.44,0,0,0-1.11.94l-9,11.4Zm8.24,41.43a11.7,11.7,0,0,1-.49-10.2,12.15,12.15,0,0,1,2.54-3.73,11.87,11.87,0,0,1,3.75-2.53,11.56,11.56,0,0,1,4.55-.92,11.35,11.35,0,0,1,4.57.93,12.16,12.16,0,0,1,3.75,2.51,11.8,11.8,0,0,1,2.54,3.74,11.56,11.56,0,0,1,.92,4.6,11.35,11.35,0,0,1-.94,4.64,12,12,0,0,1-2.56,3.74,11.9,11.9,0,0,1-3.75,2.5,11.55,11.55,0,0,1-4.53.9,11.42,11.42,0,0,1-3.52-.54,12.9,12.9,0,0,1-3.08-1.49,12.68,12.68,0,0,1-3.75-4.15m25.1,30.52-3-5.6a1.71,1.71,0,0,0-1.12-.91,1.87,1.87,0,0,0-1.34.16,1.68,1.68,0,0,0-.91,1.1,1.82,1.82,0,0,0,.17,1.35,7.17,7.17,0,0,1,.72,2,7.12,7.12,0,0,1-1.11,5.37,7.21,7.21,0,0,1-5.4,3.2,7.13,7.13,0,0,1-2.77-.31,7.38,7.38,0,0,1-2.45-1.32,7.19,7.19,0,0,1-1.8-2.19l-3-5.6,4.8-2.55,3,5.6a1.72,1.72,0,0,0,1.09.88,1.83,1.83,0,0,0,2.12-2.58,7,7,0,0,1-.83-2.79,7.16,7.16,0,0,1,.32-2.77,7.28,7.28,0,0,1,1.3-2.44,7.25,7.25,0,0,1,5-2.61,7.27,7.27,0,0,1,2.76.3,7.39,7.39,0,0,1,2.46,1.3,6.92,6.92,0,0,1,1.83,2.21l3,5.6Zm6.62-76.75,4.73,2.68a6.11,6.11,0,0,0-.8,2.43,6.18,6.18,0,0,0,.21,2.43,6.45,6.45,0,0,0,1.08,2.16,6.22,6.22,0,0,0,1.89,1.63L643.6,139l-2.68,4.73-10.24-5.82a11.52,11.52,0,0,1-2.8-2.19,12.4,12.4,0,0,1-2-2.8,11.93,11.93,0,0,1-1.22-5.53,11.57,11.57,0,0,1,1.55-5.54m21.41,54a11.82,11.82,0,0,1-2.84,3.56,11.41,11.41,0,0,1-4.08,2.22l-1.61-5.18a6.33,6.33,0,0,0,2.21-1.21,6.52,6.52,0,0,0,2.21-4.21,6.2,6.2,0,0,0-.26-2.51,6.42,6.42,0,0,0-1.21-2.23,6.31,6.31,0,0,0-1.89-1.53,6,6,0,0,0-2.63-.72,6.46,6.46,0,0,0-4.52,1.62,6.33,6.33,0,0,0-1.42,1.77,6.51,6.51,0,0,0-.71,2.33,5.88,5.88,0,0,0,.26,2.51L626,173.81a11.35,11.35,0,0,1-.48-4.61,12,12,0,0,1,1.3-4.37A11.29,11.29,0,0,1,630,161a12.23,12.23,0,0,1,4.13-2,11.89,11.89,0,0,1,4.44-.33,11.69,11.69,0,0,1,4.13,1.25A11.11,11.11,0,0,1,646.5,163a12.05,12.05,0,0,1,2.41,8.56,11.4,11.4,0,0,1-1.25,4.19"/><path class="cls-10" d="M599.05,160a6.33,6.33,0,0,1,8.33-3.37,6.37,6.37,0,0,1,2,1.36,6.13,6.13,0,0,1,1.35,2,6.35,6.35,0,0,1,.48,2.46,6.25,6.25,0,0,1-.48,2.47,6.41,6.41,0,0,1-1.36,2,6.34,6.34,0,0,1-2,1.36,6.42,6.42,0,0,1-4.87,0,6.73,6.73,0,0,1-2-1.34,6.58,6.58,0,0,1-1.4-2,6,6,0,0,1-.52-2.5,6.2,6.2,0,0,1,.51-2.46"/></g></g></g></svg>