<svg xmlns="http://www.w3.org/2000/svg" viewBox="0 0 1916.92 239.62"><defs><style>.cls-1{fill:#e85417;}.cls-2{fill:#3359a4;}.cls-3{fill:#fff;}.cls-4{fill:#ee84b3;}</style></defs><title>rodape_dinamismo</title><g id="Camada_2" data-name="Camada 2"><g id="Camada_1-2" data-name="Camada 1"><polygon class="cls-1" points="479.23 1.21 479.23 119.81 599.04 239.62 599.04 1.21 479.23 1.21"/><polygon class="cls-2" points="359.42 1.21 359.42 239.62 479.23 239.62 479.23 119.81 360.63 1.21 359.42 1.21"/><polygon class="cls-3" points="479.23 239.62 599.04 239.62 479.23 119.81 479.23 239.62"/><polygon class="cls-2" points="838.65 1.21 838.65 239.62 958.46 119.81 839.86 1.21 838.65 1.21"/><polygon class="cls-1" points="1077.06 1.21 958.46 119.81 1078.27 239.62 1078.27 1.21 1077.06 1.21"/><polygon class="cls-4" points="838.65 239.62 1078.27 239.62 958.46 119.81 838.65 239.62"/><polygon class="cls-4" points="1437.69 1.21 1437.69 239.62 1557.5 119.81 1438.9 1.21 1437.69 1.21"/><polygon class="cls-1" points="1676.1 1.21 1557.5 119.81 1677.31 239.62 1677.31 1.21 1676.1 1.21"/><polygon class="cls-3" points="1437.69 239.62 1677.31 239.62 1557.5 119.81 1437.69 239.62"/><path class="cls-2" d="M119.81,0V239.62A119.81,119.81,0,0,0,119.81,0"/><path class="cls-1" d="M119.81,0H0V119.81A119.81,119.81,0,0,1,119.81,0"/><path class="cls-1" d="M0,119.81V239.62H119.81A119.81,119.81,0,0,1,0,119.81"/><path class="cls-4" d="M0,119.81A119.81,119.81,0,0,0,119.81,239.62V0A119.81,119.81,0,0,0,0,119.81"/><rect class="cls-1" x="239.62" width="119.81" height="239.62"/><rect class="cls-3" x="1078.27" width="119.81" height="239.62"/><path class="cls-1" d="M1258,0a59.91,59.91,0,0,0,0,119.81h179.71V0Z"/><path class="cls-2" d="M1377.79,119.81H1198.08V239.62h179.71a59.91,59.91,0,0,0,0-119.81"/><polygon class="cls-2" points="599.04 239.62 718.85 0 838.65 239.62 599.04 239.62"/><path class="cls-2" d="M1916.92,119.81A119.81,119.81,0,1,1,1797.11,0a119.81,119.81,0,0,1,119.81,119.81"/></g></g></svg>