<svg xmlns="http://www.w3.org/2000/svg" viewBox="0 0 339.69 126.13"><defs><style>.cls-1{fill:#fff;}</style></defs><title>logo_eu_2</title><g id="Camada_2" data-name="Camada 2"><g id="Camada_1-2" data-name="Camada 1"><polygon class="cls-1" points="280.99 67.95 278.42 67.95 277.03 71.83 279.07 71.83 280.99 67.95"/><path class="cls-1" d="M181.12,40.44a10,10,0,0,0-2.56-1.18,10.44,10.44,0,0,0-6.8.3,9.71,9.71,0,0,0-3.12,2,9.34,9.34,0,0,0-2.09,3,8.69,8.69,0,0,0-.77,3.63V62.52h5.92V48.16a3.49,3.49,0,0,1,.31-1.47,3.79,3.79,0,0,1,.85-1.2,4,4,0,0,1,1.24-.78,4.3,4.3,0,0,1,1.54-.28,3.76,3.76,0,0,1,2.78,1.1,3.91,3.91,0,0,1,1.16,2.63V62.52h5.91V48.16a8.61,8.61,0,0,0-1.18-4.42,9.5,9.5,0,0,0-3.19-3.3"/><path class="cls-1" d="M196.18,46.33a6.64,6.64,0,0,1,2.29-1.43,7.07,7.07,0,0,1,2.56-.47,7.25,7.25,0,0,1,2.6.47,6.69,6.69,0,0,1,2.28,1.43l4.19-3.95a12.5,12.5,0,0,0-4.21-2.65,13.42,13.42,0,0,0-4.86-.9,13.2,13.2,0,0,0-4.68.88,13.44,13.44,0,0,0-4.09,2.46A12.49,12.49,0,0,0,189.34,46a10.89,10.89,0,0,0-1.12,5,11.44,11.44,0,0,0,.88,4.37,12.13,12.13,0,0,0,2.56,3.88,13.32,13.32,0,0,0,4,2.8A12.72,12.72,0,0,0,201,63.1a13.42,13.42,0,0,0,4.86-.9,12.66,12.66,0,0,0,4.21-2.65l-4.19-4A6.57,6.57,0,0,1,203.63,57a7.46,7.46,0,0,1-2.6.46,7.11,7.11,0,0,1-2.43-.44,7.19,7.19,0,0,1-2.23-1.29,6.94,6.94,0,0,1-1.61-2,5.9,5.9,0,0,1-.63-2.75,6.2,6.2,0,0,1,.51-2.46,6.41,6.41,0,0,1,1.54-2.17"/><path class="cls-1" d="M230.71,40.92a14,14,0,0,0-3.35-1.53,13.28,13.28,0,0,0-12.83,3,12.25,12.25,0,0,0-2.78,3.85,11.08,11.08,0,0,0-1,4.77,11.26,11.26,0,0,0,1,4.74,12.14,12.14,0,0,0,2.76,3.85,13.26,13.26,0,0,0,4.08,2.59,13.27,13.27,0,0,0,14-2.59,12.46,12.46,0,0,0,2.76-3.85,11.42,11.42,0,0,0-.53-10.5,13.25,13.25,0,0,0-4.08-4.28m-.83,12.58a6.41,6.41,0,0,1-2.5,2.89,6.9,6.9,0,0,1-3.84,1.11,7,7,0,0,1-2.72-.53,6.79,6.79,0,0,1-2.19-1.4,6.32,6.32,0,0,1-1.46-7.14,6.46,6.46,0,0,1,1.48-2.1,7.11,7.11,0,0,1,2.21-1.4,7.25,7.25,0,0,1,2.68-.5,7,7,0,0,1,2.62.5,7.4,7.4,0,0,1,2.19,1.38,6.82,6.82,0,0,1,1.51,2.08,5.87,5.87,0,0,1,.58,2.57,6.13,6.13,0,0,1-.56,2.54"/><path class="cls-1" d="M254.74,40.44a10.07,10.07,0,0,0-2.57-1.18,10.2,10.2,0,0,0-2.91-.43,10.36,10.36,0,0,0-3.89.73,9.77,9.77,0,0,0-3.11,2,9.34,9.34,0,0,0-2.09,3,8.69,8.69,0,0,0-.77,3.63V62.52h5.91V48.16a3.5,3.5,0,0,1,.32-1.47,3.79,3.79,0,0,1,.85-1.2,4,4,0,0,1,1.24-.78,4.3,4.3,0,0,1,1.54-.28,3.74,3.74,0,0,1,2.77,1.1,3.92,3.92,0,0,1,1.17,2.63V62.52h5.91V48.16a8.61,8.61,0,0,0-1.18-4.42,9.5,9.5,0,0,0-3.19-3.3"/><polygon class="cls-1" points="262 45.01 267.92 45.01 267.92 62.52 273.83 62.52 273.83 45.01 279.75 45.01 279.75 39.41 262 39.41 262 45.01"/><path class="cls-1" d="M284.24,44.17a12,12,0,0,0-1.6,3.17,11.43,11.43,0,0,0-.57,3.62V62.52H288V51a6.16,6.16,0,0,1,.53-2.52A6.82,6.82,0,0,1,290,46.37a7,7,0,0,1,4.91-1.94v-5.6a13.09,13.09,0,0,0-6.07,1.44,12.73,12.73,0,0,0-4.57,3.9"/><path class="cls-1" d="M316.23,40.92a14.1,14.1,0,0,0-3.34-1.53,13.29,13.29,0,0,0-12.84,3,12.4,12.4,0,0,0-2.78,3.85,11.7,11.7,0,0,0,0,9.51A12.14,12.14,0,0,0,300,59.55a13.26,13.26,0,0,0,4.08,2.59,13.28,13.28,0,0,0,14-2.59,12.8,12.8,0,0,0,2.76-3.85,11.12,11.12,0,0,0,1-4.74,11,11,0,0,0-1.56-5.76,13,13,0,0,0-4.08-4.28m-.82,12.58a6.44,6.44,0,0,1-2.51,2.89,6.9,6.9,0,0,1-3.84,1.11,7,7,0,0,1-2.72-.53,6.9,6.9,0,0,1-2.19-1.4,6.37,6.37,0,0,1-1.46-2.07,6.33,6.33,0,0,1,0-5.07,6.61,6.61,0,0,1,1.48-2.1,7.11,7.11,0,0,1,2.21-1.4,7.25,7.25,0,0,1,2.68-.5,7,7,0,0,1,2.62.5,7.27,7.27,0,0,1,2.19,1.38,6.85,6.85,0,0,1,1.52,2.08A5.86,5.86,0,0,1,316,51a6.12,6.12,0,0,1-.55,2.54"/><path class="cls-1" d="M339.69,55.24c0-.18,0-.36-.05-.54A7.51,7.51,0,0,0,332,48.24h-.25a1.77,1.77,0,0,1-1.82-1.54.66.66,0,0,1,0-.14.91.91,0,0,1,0-.17,1.78,1.78,0,0,1,1.82-1.52h7V39.41h-7a8.22,8.22,0,0,0-5.5,2.15,7.45,7.45,0,0,0-1.69,2.31,6.28,6.28,0,0,0-.6,2.37.86.86,0,0,0,0,.16v.28a1.27,1.27,0,0,0,0,.2l0,.46h0a6.09,6.09,0,0,0,.54,1.87,7.28,7.28,0,0,0,1.24,1.86c.14.16.28.31.43.46a8.29,8.29,0,0,0,2.51,1.58,8.09,8.09,0,0,0,3.09.58H332a1.76,1.76,0,0,1,1.81,1.53.76.76,0,0,1,0,.15.61.61,0,0,1,0,.14A1.76,1.76,0,0,1,332,57.06h-7v5.46h7.33a7.63,7.63,0,0,0,7.16-5.28v0c0-.13.08-.27.11-.41s.07-.33.09-.49a6.77,6.77,0,0,0,.08-.8Z"/><polygon class="cls-1" points="161.96 45.01 161.96 39.41 151.5 39.41 146.41 39.41 145.59 39.41 145.59 62.52 146.41 62.52 151.5 62.52 161.96 62.52 161.96 56.92 151.5 56.92 151.5 53.61 159.85 53.61 159.85 48.55 151.5 48.55 151.5 45.01 161.96 45.01"/><path class="cls-1" d="M152.3,82.53c0,1.77-.8,2.74-2.26,2.74s-2.27-1-2.27-2.74V74h-2.24v8.58c0,3.07,1.64,4.83,4.51,4.83s4.51-1.76,4.51-4.83V74H152.3Z"/><polygon class="cls-1" points="166.49 82.75 161.97 73.95 159.75 73.95 159.75 87.17 162 87.17 162 78.4 166.52 87.17 168.74 87.17 168.74 73.95 166.49 73.95 166.49 82.75"/><polygon class="cls-1" points="173.76 76.03 177.33 76.03 177.33 85.09 173.76 85.09 173.76 87.18 183.15 87.18 183.15 85.09 179.58 85.09 179.58 76.03 183.15 76.03 183.15 73.95 173.76 73.95 173.76 76.03"/><polygon class="cls-1" points="192.66 83.42 189.72 73.95 187.44 73.95 191.63 87.17 193.69 87.17 197.87 73.95 195.59 73.95 192.66 83.42"/><polygon class="cls-1" points="202.73 87.17 211.57 87.17 211.57 85.09 204.97 85.09 204.97 81.15 210.91 81.15 210.91 79.06 204.97 79.06 204.97 76.03 211.57 76.03 211.57 73.95 202.73 73.95 202.73 87.17"/><path class="cls-1" d="M225.65,77.55c0-2.25-1.48-3.6-4-3.6h-4.76V87.18h2.25v-6h1.26l3.72,6h2.53L222.91,81a3.29,3.29,0,0,0,2.74-3.47M219.18,76h2.51c1.21,0,1.71.44,1.71,1.51s-.5,1.51-1.71,1.51h-2.51Z"/><path class="cls-1" d="M235.56,79.2c-1.94-.56-2.33-1-2.33-1.59,0-1.07.81-1.76,2.06-1.76A2.7,2.7,0,0,1,238,78.23l.06.32,2-.49,0-.28a4.59,4.59,0,0,0-4.75-4c-2.57,0-4.31,1.54-4.31,3.84,0,1.78,1.17,2.86,4,3.71,2.41.71,2.91,1.3,2.91,2,0,1.21-1,2-2.63,2a2.64,2.64,0,0,1-2.9-2.74v-.31h-2.16v.31c0,2.89,2,4.83,5.06,4.83s4.88-1.64,4.88-4.08c0-1.91-1.29-3.06-4.61-4.08"/><polygon class="cls-1" points="244.81 76.03 248.38 76.03 248.38 85.09 244.81 85.09 244.81 87.18 254.19 87.18 254.19 85.09 250.62 85.09 250.62 76.03 254.19 76.03 254.19 73.95 244.81 73.95 244.81 76.03"/><polygon class="cls-1" points="259.02 76.03 262.59 76.03 262.59 87.18 264.83 87.18 264.83 76.03 268.4 76.03 268.4 73.95 259.02 73.95 259.02 76.03"/><path class="cls-1" d="M276.88,74l-4.19,13.23H275l1.13-3.61h3.63l1.12,3.61h2.27L278.94,74Zm2.21,7.54h-2.34L277.92,77Z"/><path class="cls-1" d="M296.69,77.55c0-2.25-1.48-3.6-4-3.6H288V87.18h2.25v-6h1.25l3.72,6h2.54L294,81a3.29,3.29,0,0,0,2.74-3.47M290.23,76h2.5c1.22,0,1.72.44,1.72,1.51s-.5,1.51-1.72,1.51h-2.5Z"/><polygon class="cls-1" points="301.64 76.03 305.21 76.03 305.21 85.09 301.64 85.09 301.64 87.18 311.03 87.18 311.03 85.09 307.46 85.09 307.46 76.03 311.03 76.03 311.03 73.95 301.64 73.95 301.64 76.03"/><path class="cls-1" d="M320.54,73.77c-3.21,0-5.05,2.48-5.05,6.79s1.84,6.8,5.05,6.8,5.07-2.48,5.07-6.8-1.85-6.79-5.07-6.79m0,11.5c-2.44,0-2.81-3-2.81-4.71s.37-4.71,2.81-4.71,2.82,3,2.82,4.71-.37,4.71-2.82,4.71"/><path class="cls-1" d="M335,79.2c-1.94-.56-2.33-1-2.33-1.59,0-1.07.81-1.76,2.06-1.76a2.7,2.7,0,0,1,2.71,2.38l.06.32,2-.49,0-.28a4.58,4.58,0,0,0-4.75-4c-2.57,0-4.31,1.54-4.31,3.84,0,1.78,1.17,2.86,4,3.71,2.42.71,2.91,1.3,2.91,2,0,1.21-1,2-2.63,2a2.64,2.64,0,0,1-2.9-2.74v-.31H329.7v.31c0,2.89,2,4.83,5.05,4.83s4.88-1.64,4.88-4.08c0-1.91-1.29-3.06-4.61-4.08"/><path class="cls-1" d="M63.06,0a63.07,63.07,0,1,0,63.07,63.07A63.06,63.06,0,0,0,63.06,0M15.71,45.91l4-4,8-8,4,4-8,8,2.67,2.67L33,42l3.9,3.9-6.58,6.59,2.77,2.78,8-8,4,4-8,8-4,4-4-4-9.35-9.36ZM42.37,91.12,37.8,87.76,26.63,103l-4.57-3.35L33.22,84.42l-4.57-3.35L32,76.5l13.72,10ZM46.9,29.5l9.34-11.89a9.11,9.11,0,0,1,2.86-2.44A9.76,9.76,0,0,1,62.53,14a9.12,9.12,0,0,1,3.59.26A9.23,9.23,0,0,1,69.51,16a9.43,9.43,0,0,1,1.93,2.06,9.3,9.3,0,0,1,1.19,2.46A9.47,9.47,0,0,1,73,25.06a9.15,9.15,0,0,1-1.88,4.22L61.77,41.17l-4.47-3.5,9.34-11.89A4.06,4.06,0,0,0,67.41,23,3.47,3.47,0,0,0,66,20.47a3.72,3.72,0,0,0-2.76-.79,3.77,3.77,0,0,0-1.38.44,3.92,3.92,0,0,0-1.16,1L51.36,33Zm8.6,43.19A12.19,12.19,0,0,1,55,62.06a12.59,12.59,0,0,1,2.65-3.89,12.31,12.31,0,0,1,8.65-3.6,11.92,11.92,0,0,1,4.76,1A12.52,12.52,0,0,1,75,58.17a12.1,12.1,0,0,1,2.65,3.89,12.46,12.46,0,0,1,0,9.64,12.86,12.86,0,0,1-2.66,3.89A12.42,12.42,0,0,1,71,78.19a12,12,0,0,1-4.72,1,11.59,11.59,0,0,1-3.66-.57A13,13,0,0,1,59.41,77a13.23,13.23,0,0,1-3.91-4.33m26.17,31.82-3.1-5.84a1.74,1.74,0,0,0-1.17-.94,1.89,1.89,0,0,0-1.39.16,1.74,1.74,0,0,0-1,1.15,1.85,1.85,0,0,0,.17,1.4,7.44,7.44,0,0,1,.75,2.15,7.71,7.71,0,0,1,.1,2.19,8,8,0,0,1-1.25,3.41,7.56,7.56,0,0,1-5.63,3.33,7.53,7.53,0,0,1-2.89-.32,7.89,7.89,0,0,1-2.56-1.39,7.34,7.34,0,0,1-1.87-2.27l-3.1-5.84,5-2.66,3.11,5.84a1.76,1.76,0,0,0,1.12.91,1.86,1.86,0,0,0,1.43-.13,1.94,1.94,0,0,0,.78-2.56,7.46,7.46,0,0,1-.86-2.9,7.56,7.56,0,0,1,.33-2.89,7.65,7.65,0,0,1,1.37-2.54,7.16,7.16,0,0,1,2.29-1.89A7.36,7.36,0,0,1,76.22,92a7.91,7.91,0,0,1,2.88.31,7.68,7.68,0,0,1,2.57,1.36,7.21,7.21,0,0,1,1.9,2.3l3.1,5.84Zm6.89-80,4.94,2.79a6.34,6.34,0,0,0-.83,2.53,6.55,6.55,0,0,0,.21,2.54A7,7,0,0,0,94,34.61a6.48,6.48,0,0,0,2,1.7l10.68,6.07-2.8,4.93L93.18,41.24A12.25,12.25,0,0,1,90.26,39a13.08,13.08,0,0,1-2-2.92A12.32,12.32,0,0,1,87,30.28a12,12,0,0,1,1.6-5.78m22.33,56.25a12.41,12.41,0,0,1-3,3.71,12.1,12.1,0,0,1-4.25,2.31L102,81.36a6.33,6.33,0,0,0,2.31-1.26,6.81,6.81,0,0,0,2.3-4.38,6.56,6.56,0,0,0-.27-2.62,6.68,6.68,0,0,0-1.26-2.32,6.58,6.58,0,0,0-2-1.6,6.21,6.21,0,0,0-2.75-.75,6.78,6.78,0,0,0-2.56.4,6.87,6.87,0,0,0-2.14,1.29A6.49,6.49,0,0,0,94.17,72a6.88,6.88,0,0,0-.75,2.43A6.58,6.58,0,0,0,93.69,77l-5.41,1.68a12.16,12.16,0,0,1-.5-4.81,12.32,12.32,0,0,1,1.37-4.55,11.63,11.63,0,0,1,3.34-4,12.8,12.8,0,0,1,4.31-2.11,12.46,12.46,0,0,1,8.93.95,11.64,11.64,0,0,1,4,3.29,12.91,12.91,0,0,1,2.13,4.28,12.7,12.7,0,0,1,.38,4.64,11.79,11.79,0,0,1-1.3,4.38"/><path class="cls-1" d="M60.21,64.29a6.42,6.42,0,0,1,2.4-2.93,6.59,6.59,0,0,1,6.29-.58A6.75,6.75,0,0,1,71,62.19a6.6,6.6,0,0,1,1.91,4.67,6.58,6.58,0,0,1-.51,2.57,6.58,6.58,0,0,1-6.1,4A6.29,6.29,0,0,1,63.78,73a6.81,6.81,0,0,1-3.56-3.5,6.31,6.31,0,0,1-.54-2.6,6.53,6.53,0,0,1,.53-2.57"/></g></g></svg>