<svg xmlns="http://www.w3.org/2000/svg" viewBox="0 0 346 91.61"><title>logo_ufcrussas_2</title><g id="Camada_2" data-name="Camada 2"><g id="Camada_1-2" data-name="Camada 1"><path d="M70.38,64.29a14.88,14.88,0,0,0-.6-2.54A59.22,59.22,0,0,1,68,55.32a11.54,11.54,0,0,1,.3-6c0-.1.09-.21.13-.32a.83.83,0,0,0-.19-1.08.85.85,0,0,0-1.11.06l-.31.24a15.73,15.73,0,0,0-3.4,3.37C63.22,51,63,50.5,62.71,50a11.1,11.1,0,0,1-1.17-4.64V45a.88.88,0,0,0-.59-.84.87.87,0,0,0-1,.33,3.45,3.45,0,0,0-.2.32l0,0v0c-1.59,3.85-1.29,7-.31,10.85l-1.67-.14a1,1,0,0,0-1.25,1.13c-.06,1.22-.11,2.44-.16,3.66a12.51,12.51,0,0,1-4,8.91L52.44,67a11.07,11.07,0,0,0,2.36-6.61l1.48-34-.74-.1c-.64-.08-1.28-.17-1.92-.24l.11-3.84a.87.87,0,0,0,.4-.26,1,1,0,0,0,.24-.65,2.24,2.24,0,0,0-.2-4.23h-.06L53,16.88,53,16.81a5.36,5.36,0,0,0,2.71-3.41,3.45,3.45,0,0,0-.91-2.73.25.25,0,0,1-.07-.17,4.06,4.06,0,0,1,.4-1c.17-.33.35-.66.49-1a4.76,4.76,0,0,0,.17-3.89s0-.1,0-.14a.66.66,0,0,0-.63-.5c-.44,0-.61.32-.69.67a2.31,2.31,0,0,1-1,1.38.92.92,0,0,1-.07-.53,3.55,3.55,0,0,1,.31-.88A3.4,3.4,0,0,0,54,3.1,4.57,4.57,0,0,0,52.74.38L52.65.26a.64.64,0,0,0-.8-.19.64.64,0,0,0-.34.74.52.52,0,0,0,0,.11,3.51,3.51,0,0,1-1.76,3.3,7.62,7.62,0,0,0-1.91,1.33,8.71,8.71,0,0,0-1.49,2l-.15-.19a1.42,1.42,0,0,0-.12-.13.66.66,0,0,0-.7-.18.68.68,0,0,0-.44.58s0,.08,0,.13,0,.07,0,.11a3.34,3.34,0,0,1-1,2c-.21.23-.4.47-.62.7a2.6,2.6,0,0,0-.81,2,3,3,0,0,0,.71,1.64l.31.45a14,14,0,0,0,2,2.08l-.14.18-1,.15h-.06a2.24,2.24,0,0,0-.27,4.2.91.91,0,0,0,.63.94l.09,3c-1.71-.11-3.42-.2-5.14-.25l.08-2.74a.87.87,0,0,0,.4-.26,1,1,0,0,0,.24-.65,2.24,2.24,0,0,0-.2-4.23h-.06L39,16.88l0-.05a5.42,5.42,0,0,0,2.74-3.43,3.45,3.45,0,0,0-.91-2.73c0-.05-.08-.12-.07-.17a4.51,4.51,0,0,1,.4-1c.17-.33.35-.66.49-1a4.76,4.76,0,0,0,.17-3.89s0-.1-.05-.14a.66.66,0,0,0-.63-.5c-.44,0-.61.32-.69.67a2.31,2.31,0,0,1-1,1.38.92.92,0,0,1-.07-.53,3.55,3.55,0,0,1,.31-.88,3.4,3.4,0,0,0,.38-1.53A4.57,4.57,0,0,0,38.76.38L38.67.26a.64.64,0,0,0-.8-.19.65.65,0,0,0-.34.74.52.52,0,0,0,0,.11,3.51,3.51,0,0,1-1.76,3.3,7.62,7.62,0,0,0-1.91,1.33,8.71,8.71,0,0,0-1.49,2l-.15-.19-.11-.13a.68.68,0,0,0-.71-.18.7.7,0,0,0-.44.58.62.62,0,0,1,0,.13s0,.07,0,.11a3.34,3.34,0,0,1-1,2c-.21.23-.4.47-.62.7a2.63,2.63,0,0,0-.81,2,3,3,0,0,0,.71,1.64l.31.45a14.07,14.07,0,0,0,2,2l-.16.21-1,.15h-.06a2.24,2.24,0,0,0-.27,4.2,1,1,0,0,0,.24.68.93.93,0,0,0,.39.26l.08,2.73c-1.73.05-3.45.14-5.18.25l.09-3a.92.92,0,0,0,.4-.26,1,1,0,0,0,.24-.65,2.24,2.24,0,0,0-.2-4.23H26l-1.09-.16-.07-.1a5.31,5.31,0,0,0,2.67-3.38,3.45,3.45,0,0,0-.91-2.73.25.25,0,0,1-.07-.17,4.48,4.48,0,0,1,.39-1c.17-.33.36-.66.5-1a4.8,4.8,0,0,0,.17-3.89,1.21,1.21,0,0,1-.05-.14.66.66,0,0,0-.64-.5c-.43,0-.61.32-.68.67a2.4,2.4,0,0,1-1,1.38.92.92,0,0,1-.07-.53,3.19,3.19,0,0,1,.31-.88,3.26,3.26,0,0,0,.37-1.53A4.5,4.5,0,0,0,24.59.38L24.5.26a.65.65,0,0,0-1.14.55s0,.07,0,.11a3.5,3.5,0,0,1-1.75,3.3,7.44,7.44,0,0,0-1.91,1.33,8.75,8.75,0,0,0-1.5,2l-.14-.19L18,7.26a.66.66,0,0,0-.7-.18.68.68,0,0,0-.44.58.53.53,0,0,0,0,.13l0,.11a3.36,3.36,0,0,1-1,2c-.2.23-.4.47-.61.7a2.56,2.56,0,0,0-.81,2,3,3,0,0,0,.71,1.64l.31.45a13.77,13.77,0,0,0,2,2.1l-.11.16-1,.15h-.06a2.25,2.25,0,0,0-.28,4.2,1.09,1.09,0,0,0,.24.68,1,1,0,0,0,.4.26L16.68,26l-1.81.24-.72.11,1.47,34a11.13,11.13,0,0,0,2.24,6.46l.07,2.39a12.45,12.45,0,0,1-3.87-8.79C14,59.19,14,58,13.9,56.75a1,1,0,0,0-1.25-1.13L11,55.76c1-3.81,1.28-7-.3-10.85l0,0,0,0a2.14,2.14,0,0,0-.2-.32.87.87,0,0,0-1-.33.88.88,0,0,0-.59.84v.28A11,11,0,0,1,7.71,50C7.46,50.5,7.2,51,7,51.56a15.73,15.73,0,0,0-3.4-3.37L3.25,48a.85.85,0,0,0-1.11-.06A.84.84,0,0,0,2,49c0,.11.09.22.13.32a11.44,11.44,0,0,1,.3,6A57,57,0,0,1,.64,61.75,14.88,14.88,0,0,0,0,64.29a2.53,2.53,0,0,0,.47,2.1,1.85,1.85,0,0,0,1.23.54h0l4.11.39h0a21.71,21.71,0,0,0,7.5,10.34,25.42,25.42,0,0,0,4.9,2.91l.12,4.17h-.89l-.7,0,0,.69a1.42,1.42,0,0,0,.44,1,2.92,2.92,0,0,0,.78.46.81.81,0,0,1,.33.25,1.14,1.14,0,0,1,0,.49,1.65,1.65,0,0,0,.18.87,1,1,0,0,0,.24.27,1.33,1.33,0,0,0,.6.28,1.91,1.91,0,0,0,3.45,0,1.36,1.36,0,0,0,.61-.28c.5-.41.38-.89.41-1.46a.5.5,0,0,1,0-.12.07.07,0,0,1,0,0,.78.78,0,0,1,.34-.25,3.08,3.08,0,0,0,.78-.46,1.41,1.41,0,0,0,.43-1l0-.69-.69,0c-.3,0-.64,0-1,0l.06-2.26a45.24,45.24,0,0,0,8.52,1.15l.08,2.55c-.32,0-.65,0-.94,0h-.69l0,.69a1.41,1.41,0,0,0,.43,1,2.81,2.81,0,0,0,.78.46.7.7,0,0,1,.33.25,1.34,1.34,0,0,1,0,.49,1.53,1.53,0,0,0,.17.87,1.05,1.05,0,0,0,.24.28,1.36,1.36,0,0,0,.6.27,1.92,1.92,0,0,0,3.46,0,1.36,1.36,0,0,0,.6-.27c.5-.42.39-.9.41-1.46,0,0,0-.09,0-.13l0,0a.7.7,0,0,1,.33-.25,2.81,2.81,0,0,0,.78-.46,1.42,1.42,0,0,0,.44-1l0-.69h-.69a8.57,8.57,0,0,0-1,0l.07-2.56a44.78,44.78,0,0,0,8.48-1.12h0l.06,2.22h-.89l-.69,0,0,.69a1.42,1.42,0,0,0,.44,1,2.92,2.92,0,0,0,.78.46.7.7,0,0,1,.33.25,1.32,1.32,0,0,1,0,.49,1.55,1.55,0,0,0,.17.87,1,1,0,0,0,.24.27,1.33,1.33,0,0,0,.6.28,1.92,1.92,0,0,0,3.46,0,1.38,1.38,0,0,0,.6-.28c.5-.41.39-.89.41-1.46a.5.5,0,0,1,0-.12.08.08,0,0,1,0,0,.7.7,0,0,1,.33-.25,3.08,3.08,0,0,0,.78-.46,1.41,1.41,0,0,0,.43-1l0-.69-.69,0c-.3,0-.64,0-1,0l.12-4.12-.14.06a25.56,25.56,0,0,0,5.16-3,21.71,21.71,0,0,0,7.5-10.34h0l4.11-.39h0a1.85,1.85,0,0,0,1.23-.54,2.53,2.53,0,0,0,.47-2.1M54.05,59,52.9,57.58l1.26-1.08Zm-.83-37.42a35.85,35.85,0,0,0-8,0c-.46.05-.42-.17-.43-.5a26.65,26.65,0,0,1,4.47-.3,27,27,0,0,1,4.4.29c0,.33,0,.56-.42.51m-1.73,1.07a.57.57,0,0,0-.59.55l0,2.55-1.77-.18v-2a.58.58,0,0,1,.6-.55h.13a.6.6,0,0,0-1.17.14l0,2.33h0l-1.78-.15,0-1.78a.57.57,0,0,1,.59-.55h.14a.6.6,0,0,0-1.17.14l.05,2.14h0l-.86-.06h0l-.09-3.31a35.11,35.11,0,0,1,7.39,0l-.12,4-1.47-.16,0-2.2a.59.59,0,0,1,.6-.55h.14a.59.59,0,0,0-.58-.41M44,14.25c-.1-.15-.21-.29-.3-.44a2.42,2.42,0,0,1-.6-1.32,2,2,0,0,1,.65-1.5c.23-.24.4-.46.62-.71a3.91,3.91,0,0,0,1.21-2.62,2.55,2.55,0,0,1,.64,1.77A8.94,8.94,0,0,1,48.31,6a6.85,6.85,0,0,1,1.76-1.22,4.09,4.09,0,0,0,2-4.17,4.33,4.33,0,0,1,1.27,2.51c0,.91-.56,1.47-.68,2.31a1.56,1.56,0,0,0,.18,1c-.34.37-1,1-1,1.6a14.08,14.08,0,0,1,1.6-1.26A2.94,2.94,0,0,0,55,4.59a4.11,4.11,0,0,1,0,3.68,15.1,15.1,0,0,0-.94,2.12.83.83,0,0,0,.2.67c1.77,2.07.37,4-1.73,5.27a3.15,3.15,0,0,0-1.25-.28L51,16c2-1.2,3.72-3.28,1.25-5.34.35,1.88-.9,4.13-2.52,5.28H48.67a3.76,3.76,0,0,0,1.58-2.85,5.24,5.24,0,0,0-.32-2.42c-.22-.6-.38-.73-.14-1.36a6.68,6.68,0,0,1,1-1.64A4.58,4.58,0,0,0,52,3.39a6.12,6.12,0,0,1-1.46,3.22A6.2,6.2,0,0,1,50,7.1c-.35.3-.66.65-1,.92a7.46,7.46,0,0,0-2.12,3l.66-.41a3.35,3.35,0,0,0,.42-.26,4.4,4.4,0,0,0,1.4-2A3.33,3.33,0,0,1,48,11.16a4,4,0,0,0-1.11,1.44,2.68,2.68,0,0,0-.19.9,3.27,3.27,0,0,0,.15,1,2.63,2.63,0,0,1-.2-.33,2.9,2.9,0,0,1-.35-1.69,2.28,2.28,0,0,0-.62,1.6c0,.14,0,.29,0,.43a3.12,3.12,0,0,1,.07-2.34,3.07,3.07,0,0,1,.75-.82A7.76,7.76,0,0,0,45.65,9a5.22,5.22,0,0,1-.52,2.37,2.65,2.65,0,0,0-.23,2,5.13,5.13,0,0,0,1.88,2.57.32.32,0,0,0,0,.17,2.67,2.67,0,0,0-.82.2h0a13.11,13.11,0,0,1-1.93-2m5.68-3.48A5.09,5.09,0,0,1,50,13.09a3.64,3.64,0,0,1-.74,2,5.36,5.36,0,0,1-1,.9l-.72,0h0a0,0,0,0,0-.06,0l-.45-1.54a2.89,2.89,0,0,1-.14-.92,2.61,2.61,0,0,1,.17-.83,3.71,3.71,0,0,1,1.05-1.34,3.72,3.72,0,0,0,1.21-1.59,5.21,5.21,0,0,0,.24-1.41l0-.57c.18-.17.34-.34.53-.49a6.51,6.51,0,0,0,.54-.51,5.07,5.07,0,0,0,1.17-2,3.14,3.14,0,0,1,0,.51,4.68,4.68,0,0,1-1.18,2.28h0a6.61,6.61,0,0,0-1.05,1.7c-.28.7-.1.88.13,1.52M47.46,16h-.11l-.43-.31a4.84,4.84,0,0,1-1-1v-.63a2.94,2.94,0,0,1,.18-.89,3.55,3.55,0,0,0,.37,1.08c.06.12.13.23.2.35Zm4.79.88.16.22a25.8,25.8,0,0,0-3.17-.17,25.35,25.35,0,0,0-3.26.18l.21-.28c.35-.37,5.76-.35,6.06.05M50.13,16a6.32,6.32,0,0,0,2.44-4.7c1.4,1.52.5,3.05-1.16,4.22a8.09,8.09,0,0,1-.79.5l-.49,0m-1-7.8,0,.05a4.19,4.19,0,0,1-1.33,1.95l-.39.26h0A6.83,6.83,0,0,1,49.13,8.2l0,0m-3.93,5.38c0-.1-.08-.2-.11-.3a2.42,2.42,0,0,1,.23-1.86,7.9,7.9,0,0,0,.47-1.51,4.43,4.43,0,0,1,.41,1.35,3.15,3.15,0,0,0-.7.8h0v0a3.55,3.55,0,0,0-.28,1.49m-.73,7.11a1.54,1.54,0,0,1,0-2.93,28.28,28.28,0,0,1,9.48,0,1.54,1.54,0,0,1,0,2.93,26.6,26.6,0,0,0-4.74-.34,26.6,26.6,0,0,0-4.74.34M30.05,14.25c-.1-.15-.21-.29-.3-.44a2.42,2.42,0,0,1-.6-1.32A2,2,0,0,1,29.8,11c.23-.24.4-.46.62-.71a3.91,3.91,0,0,0,1.21-2.62,2.55,2.55,0,0,1,.64,1.77A8.94,8.94,0,0,1,34.33,6a7,7,0,0,1,1.76-1.22,4.09,4.09,0,0,0,2-4.17,4.33,4.33,0,0,1,1.27,2.51c0,.91-.56,1.47-.68,2.31a1.56,1.56,0,0,0,.18,1c-.34.37-1,1-1,1.6a13.14,13.14,0,0,1,1.59-1.26,2.94,2.94,0,0,0,1.53-2.16,4.11,4.11,0,0,1,0,3.68,14,14,0,0,0-.93,2.12.79.79,0,0,0,.19.67c1.78,2.07.36,4-1.76,5.29a3.07,3.07,0,0,0-1.27-.3h-.16c2-1.2,3.74-3.29,1.27-5.35.35,1.89-.9,4.13-2.53,5.28H34.75a3.76,3.76,0,0,0,1.58-2.85A5.24,5.24,0,0,0,36,10.69c-.23-.6-.38-.73-.14-1.36a6.68,6.68,0,0,1,1-1.64,4.58,4.58,0,0,0,1.18-4.3A6.2,6.2,0,0,1,36.6,6.61a6.2,6.2,0,0,1-.52.49c-.35.3-.66.65-1,.92A7.46,7.46,0,0,0,33,11l.66-.41a4.28,4.28,0,0,0,.42-.26,4.48,4.48,0,0,0,1.4-2,3.36,3.36,0,0,1-1.37,2.84A4,4,0,0,0,33,12.6a2.68,2.68,0,0,0-.19.9,3.24,3.24,0,0,0,.14,1c-.06-.1-.13-.21-.19-.33a2.83,2.83,0,0,1-.35-1.69,2.33,2.33,0,0,0-.63,1.6v.43a3.12,3.12,0,0,1,.07-2.34,3.07,3.07,0,0,1,.75-.82A7.76,7.76,0,0,0,31.73,9a5.22,5.22,0,0,1-.52,2.37,2.65,2.65,0,0,0-.23,2,5.13,5.13,0,0,0,1.88,2.57.29.29,0,0,0,0,.16,3.35,3.35,0,0,0-.9.19h0a13.83,13.83,0,0,1-1.91-2m5.74-3.48a5.09,5.09,0,0,1,.31,2.32,3.58,3.58,0,0,1-.75,2,5,5,0,0,1-1,.9l-.72,0h0s0,0-.06,0l-.46-1.54a3.2,3.2,0,0,1-.13-.92,2.61,2.61,0,0,1,.17-.83,3.71,3.71,0,0,1,1.05-1.34,3.72,3.72,0,0,0,1.21-1.59,5.21,5.21,0,0,0,.24-1.41l0-.57a6.15,6.15,0,0,1,.53-.49,6.51,6.51,0,0,0,.54-.51,5.07,5.07,0,0,0,1.17-2,3.14,3.14,0,0,1,0,.51,4.68,4.68,0,0,1-1.18,2.28h0a6.58,6.58,0,0,0-1,1.7c-.28.7-.1.88.13,1.52M33.53,16h-.12L33,15.7a5,5,0,0,1-1-1v-.63a2.94,2.94,0,0,1,.18-.89,3.55,3.55,0,0,0,.37,1.08c.06.12.13.23.2.35Zm4.69.88.16.22a25.8,25.8,0,0,0-3.17-.17,25.35,25.35,0,0,0-3.26.18l.21-.28c.35-.37,5.76-.35,6.06.05m-2-.9a6.3,6.3,0,0,0,2.45-4.7c1.39,1.52.49,3.05-1.16,4.22-.26.18-.53.35-.8.51l-.49,0m-1-7.8,0,.05a4.19,4.19,0,0,1-1.33,1.95l-.39.26h0A6.83,6.83,0,0,1,35.21,8.2l0,0m-3.93,5.38c0-.1-.08-.2-.11-.3a2.42,2.42,0,0,1,.23-1.86,7.9,7.9,0,0,0,.47-1.51,4.43,4.43,0,0,1,.41,1.35,3.15,3.15,0,0,0-.7.8h0v0a3.55,3.55,0,0,0-.28,1.49m-.84,7.11a1.54,1.54,0,0,1,0-2.93,28.28,28.28,0,0,1,9.48,0,1.54,1.54,0,0,1,0,2.93,26.6,26.6,0,0,0-4.74-.34,26.73,26.73,0,0,0-4.74.34m7,1.95a.58.58,0,0,0-.59.55l0,1.7H35.07V23.57a.58.58,0,0,1,.6-.55h.14a.6.6,0,0,0-.58-.41.56.56,0,0,0-.59.55v1.69l-1.79,0,0-1.31a.58.58,0,0,1,.6-.55h.13a.6.6,0,0,0-1.17.14l0,1.72-.85,0-.09-3a35.11,35.11,0,0,1,7.39,0l-.09,3-1.49,0h0l0-1.31A.57.57,0,0,1,37.9,23H38a.59.59,0,0,0-.58-.41m-6.29-1.07c-.46.05-.42-.17-.43-.5a26.65,26.65,0,0,1,4.47-.3,26.89,26.89,0,0,1,4.4.29c0,.33,0,.56-.42.51a35.85,35.85,0,0,0-8,0m24.27,5.54L54.21,55.26l-3.5-4.08-1.9,1.63L46.15,49.7l1.9-1.63L44,43.3l-1.9,1.62-2.66-3.11,1.9-1.62-4.09-4.77L35.32,37l-2.66-3.11,1.9-1.62-4.08-4.77-1.9,1.62L25.86,26h0a147.09,147.09,0,0,1,29.58,1.12M15.88,14.25l-.31-.44A2.39,2.39,0,0,1,15,12.49a2,2,0,0,1,.64-1.5c.23-.24.4-.46.63-.71a3.94,3.94,0,0,0,1.2-2.62,2.5,2.5,0,0,1,.64,1.77A8.82,8.82,0,0,1,20.16,6a6.85,6.85,0,0,1,1.76-1.22A4.1,4.1,0,0,0,24,.61a4.39,4.39,0,0,1,1.27,2.51c0,.91-.57,1.47-.68,2.31a1.44,1.44,0,0,0,.18,1c-.34.37-1,1-1,1.6a14.91,14.91,0,0,1,1.59-1.26,3,3,0,0,0,1.54-2.16,4.11,4.11,0,0,1-.05,3.68,15,15,0,0,0-.93,2.12.83.83,0,0,0,.2.67c1.76,2.06.38,4-1.71,5.26a3.21,3.21,0,0,0-1.23-.27l-.23,0c2-1.2,3.72-3.28,1.25-5.34.36,1.88-.9,4.13-2.52,5.28H20.59a3.82,3.82,0,0,0,1.58-2.85,5.37,5.37,0,0,0-.33-2.42c-.22-.6-.38-.73-.13-1.36a6.39,6.39,0,0,1,1-1.64,4.57,4.57,0,0,0,1.17-4.3,6.18,6.18,0,0,1-1.45,3.22,6.39,6.39,0,0,1-.53.49c-.35.3-.65.65-1,.92a7.58,7.58,0,0,0-2.13,3l.67-.41a3.21,3.21,0,0,0,.41-.26,4.4,4.4,0,0,0,1.4-2,3.32,3.32,0,0,1-1.36,2.84,3.86,3.86,0,0,0-1.11,1.44,2.45,2.45,0,0,0-.19.9,3,3,0,0,0,.14,1,2.59,2.59,0,0,1-.19-.33,2.91,2.91,0,0,1-.36-1.69,2.28,2.28,0,0,0-.62,1.6,3.09,3.09,0,0,0,0,.43,3,3,0,0,1,.07-2.34,3.07,3.07,0,0,1,.75-.82A7.5,7.5,0,0,0,17.56,9a5.35,5.35,0,0,1-.51,2.37,2.56,2.56,0,0,0-.23,2,5.11,5.11,0,0,0,1.87,2.57.31.31,0,0,0,0,.17,2.42,2.42,0,0,0-.87.22,13.36,13.36,0,0,1-1.95-2m5.75-3.48a5.09,5.09,0,0,1,.31,2.32,3.65,3.65,0,0,1-.75,2,5.63,5.63,0,0,1-1,.9l-.72,0h0s0,0-.06,0L19,14.43a2.88,2.88,0,0,1-.13-.92,2.16,2.16,0,0,1,.17-.83,3.58,3.58,0,0,1,1-1.34,3.75,3.75,0,0,0,1.22-1.59,4.84,4.84,0,0,0,.23-1.41l.05-.57c.17-.17.34-.34.52-.49a6.51,6.51,0,0,0,.54-.51,5,5,0,0,0,1.17-2,3.08,3.08,0,0,1,0,.51,4.78,4.78,0,0,1-1.19,2.28h0a6.32,6.32,0,0,0-1,1.7c-.28.7-.11.88.13,1.52M19.37,16h-.11l-.43-.31a5.08,5.08,0,0,1-1-1V14.5a2.94,2.94,0,0,1,0-.42,2.44,2.44,0,0,1,.18-.89,3.53,3.53,0,0,0,.36,1.08c.07.12.13.23.21.35Zm4.78.88.16.22a25.8,25.8,0,0,0-3.17-.17,25.35,25.35,0,0,0-3.26.18l.2-.28c.36-.37,5.77-.35,6.07.05M22,16a6.29,6.29,0,0,0,2.44-4.7c1.4,1.52.5,3.05-1.16,4.22a8.09,8.09,0,0,1-.79.5L22,16Zm-1-7.8,0,.05a4.21,4.21,0,0,1-1.34,1.95,3.77,3.77,0,0,1-.39.26h0A6.73,6.73,0,0,1,21.05,8.2l0,0m-3.94,5.38-.11-.3a2.52,2.52,0,0,1,.23-1.86,8,8,0,0,0,.48-1.51,4.73,4.73,0,0,1,.41,1.35,3.19,3.19,0,0,0-.71.8h0v0a3.55,3.55,0,0,0-.28,1.49m-.74,7.11a1.54,1.54,0,0,1,0-2.93,28.28,28.28,0,0,1,9.48,0,1.54,1.54,0,0,1,0,2.93,26.67,26.67,0,0,0-4.74-.34,26.6,26.6,0,0,0-4.74.34m.26.38a26.84,26.84,0,0,1,4.48-.3,27,27,0,0,1,4.4.29c0,.33,0,.56-.42.51a35.85,35.85,0,0,0-8,0h0c-.46.05-.42-.17-.44-.5m8,4.19-1.48.12V23.57a.59.59,0,0,1,.6-.55H24a.6.6,0,0,0-.58-.41.57.57,0,0,0-.59.55l0,2.22L21,25.56v-2a.58.58,0,0,1,.6-.55h.13a.6.6,0,0,0-1.17.14l0,2.43h0l-1.76.19-.06-2.22a.57.57,0,0,1,.59-.55h.14a.59.59,0,0,0-.58-.41.57.57,0,0,0-.59.55l.06,2.67h0l-.85.1-.11-4a35,35,0,0,1,7.38,0l-.09,3.3ZM15,27.09c3.37-.47,6.69-.83,10-1.06l3.51,4.11,1.9-1.63,3.19,3.72-1.91,1.63L35.25,38l1.9-1.63,3.18,3.72-1.9,1.63L42,45.9l1.9-1.62L47.08,48l-1.91,1.63,3.16,3.69.41.47,1.9-1.62,3.18,3.71-1.9,1.63L54,59.94l0,.37c-.17,4.24-2.42,8.5-9.3,10.47l-3.1-3.62-.4-.47-1.9,1.62L36.11,64.6h0L38,63l-3.57-4.16-1.9,1.62-3.18-3.72,1.9-1.62L27.7,50.92l-1.9,1.63-3.18-3.72,1.9-1.62L21,43l-1.9,1.63L15.87,41l1.9-1.62L15.4,36.55ZM51.57,67.93l-.06,2.12-.14.11-.5.37,0-2c.24-.2.46-.41.68-.62m-1.2,1,0,1.91c-.3.2-.61.38-.93.56V69.62h0q.5-.32,1-.66M49,71.67c-.28.15-.56.28-.85.41l0-1.72c.3-.14.6-.3.89-.46Zm-2-.8.6-.25,0,1.7-.6.23h0Zm-.67,1.93-.12,0h0A30.79,30.79,0,0,1,38.2,74.2l0-1.57a29.82,29.82,0,0,0,7.83-1.45l.05,1.66.12,0M15.56,40.31l-.11-2.49,1.34,1.43Zm.87,20-.81-18.58L19,45.65,20.88,44l2.66,3.11-1.9,1.63,4.08,4.77,1.9-1.63L30.28,55l-1.9,1.63,4.09,4.77,1.9-1.63L37,62.89l-1.9,1.63,4.08,4.77,1.9-1.63,2.83,3.24-.13.11a36.53,36.53,0,0,1-8.6.9c-14.45,0-18.55-5.82-18.78-11.6m21,12.36,0,1.57-.56,0,0-1.56Zm-1.1,0v1.56h-.87l0-1.56h.9m-1.36,1.57h-.8l0-1.56h.84Zm-1.36,0-.59,0-.05-1.57h0l.6,0Zm-1.44-.06a30.79,30.79,0,0,1-8-1.4l0-1.66h0a29.35,29.35,0,0,0,7.88,1.48l0,1.58Zm-9.4-1.93h0l0-1.71.62.26-.05,1.68.11,0-.11,0h0l-.6-.23m-.48-2,0,1.74c-.31-.14-.62-.29-.92-.45V69.8c.31.18.62.35,1,.51m-2.29.5h0l-.07,0,.07,0,0-2,.08.06c.27.21.55.4.84.59v1.83l0,0,0,0h0c-.3-.16-.59-.34-.88-.53m-.5-.34-.06,0h0l-.35-.27-.27-.2-.05-2.14c.2.2.41.39.63.58l0,2,.06,0M2,66.13c-3.92,0,3.59-10.07.87-17.13-.24-.61-.36-.62.24-.17,1.4,1.07,3.33,2.79,4,4.64,1-2.88,2.52-4.43,2.63-8.13,0-.34,0-.61.24-.12,1.68,4.06,1.08,7.34.11,10.91H9.87l-3.74.32-.52,0a1.78,1.78,0,0,0-.84.22c-1.34,1-1.34,4.21-1.4,5.49C3.26,64.29,3,66.13,2,66.13m1,.08a3.2,3.2,0,0,0,.64-1.37,15,15,0,0,0,.3-2.59c0-.23,0-.54,0-.91h0v0h0v0h0v0h0v-.08h0v0h0v0H4c0-.33,0-.7.09-1.06H4v0H4v0h0v0h0c0-.23.06-.46.1-.69h0v-.1h0c0-.18.08-.37.12-.54h0c.05-.17.11-.34.17-.5h0l0,0h0v0h0v0h0v0h0v0h0v0h0a.08.08,0,0,1,0-.05h0l0-.06h0l0-.06h0l0,0h0l0,0h0l.14,3.37v0H5a23.18,23.18,0,0,0,.93,5.56ZM21.14,89.49a.95.95,0,1,1,1.14-.92,1,1,0,0,1-1.14.92m3.65-4.07c0,.9-1,.67-1.45,1.39-.31.49.05,1.18-.3,1.47a.8.8,0,0,1-.31.14,1.64,1.64,0,0,0-3.18,0,.74.74,0,0,1-.31-.14c-.35-.29,0-1-.3-1.47-.45-.72-1.41-.49-1.45-1.39,1.94,0,1.52.14,2.68,1.32l.27-.19A4.13,4.13,0,0,1,20,85.21a1.57,1.57,0,0,1,1.13-.8,1.57,1.57,0,0,1,1.13.8,4.14,4.14,0,0,1-.44,1.34l.28.19c1.15-1.18.73-1.36,2.68-1.32m-5.68-4.48.55.23.08,3.26a2.14,2.14,0,0,0-.32.45l-.06.1a.61.61,0,0,0-.14-.07Zm.94.38.87.31v2.13a2.56,2.56,0,0,0-.74.3l0-2.7Zm2.07,2.76a2.34,2.34,0,0,0-.76-.31l0-2-.17,0h0l.91.28,0,2.06Zm.33-2h0l.86.24-.26-.07L23,85l-.07,0-.05-.1a2.51,2.51,0,0,0-.38-.51h0l.06-2.23Zm12.76,8.82A.94.94,0,1,1,36.35,90a1,1,0,0,1-1.14.92m3.65-4.07c0,.91-1,.67-1.45,1.39-.3.49.05,1.18-.3,1.48a.73.73,0,0,1-.31.13,1.64,1.64,0,0,0-3.18,0,.79.79,0,0,1-.31-.13c-.35-.3,0-1-.3-1.48-.45-.72-1.41-.48-1.45-1.39,1.95,0,1.53.14,2.68,1.33l.28-.2a4.09,4.09,0,0,1-.44-1.33,1.54,1.54,0,0,1,1.13-.8,1.54,1.54,0,0,1,1.13.8A4.08,4.08,0,0,1,35.91,88l.27.2c1.16-1.19.74-1.37,2.68-1.33M35,83.7v1.51a2.46,2.46,0,0,0-.73.28l0-1.8H33.8l.05,2.16a2,2,0,0,0-.36.49l-.05.09-.1,0s0-.09,0-.14l-.07-2.56-.55,0c.56,0,1.13,0,1.69,0H35Zm1.18,0,0,1.81a2.48,2.48,0,0,0-.73-.29V83.7H36l1.07,0L37,86.23v.18h0l-.06-.09a2.25,2.25,0,0,0-.41-.55l0-2.1h-.39M49,83.76a2.56,2.56,0,0,0-.74.3l0-2L48,82.1c.49-.14,1-.29,1.45-.45l-.42.14Zm-1.19.67a2.14,2.14,0,0,0-.32.45l-.06.1-.13-.07-.08-2.6h0l.7-.19-.14,0Zm1.4,5.06a.95.95,0,1,1,1.14-.92,1,1,0,0,1-1.14.92m3.65-4.07c0,.9-1,.67-1.45,1.39-.31.49.05,1.18-.3,1.47a.8.8,0,0,1-.31.14,1.64,1.64,0,0,0-3.18,0,.74.74,0,0,1-.31-.14c-.35-.29,0-1-.3-1.47-.45-.72-1.41-.49-1.45-1.39,1.94,0,1.53.14,2.68,1.32l.27-.19a4.13,4.13,0,0,1-.43-1.34,1.57,1.57,0,0,1,1.13-.8,1.57,1.57,0,0,1,1.13.8,4.14,4.14,0,0,1-.44,1.34l.28.19c1.15-1.18.74-1.36,2.68-1.32m-3.42-1.65V81.64c.3-.11.6-.21.9-.33l-.15.06,0,2.7a2.25,2.25,0,0,0-.73-.3m1.12.6.07-3.16h0l.57-.23h0l-.11,4L51,85l0-.1a2.78,2.78,0,0,0-.37-.51m6-7.35c-6.09,4.63-13.94,5.87-21.37,5.87h0c-7.43,0-15.28-1.24-21.37-5.87A21.12,21.12,0,0,1,5.46,60.77l-.14-3.36c0-.3,0-.34.12-.36h.21l7.07-.6c.42,0,.36-.06.38.36.05,1.22.1,2.44.16,3.66a13.28,13.28,0,0,0,5.31,10.36c4.65,3.54,11,4.28,16.64,4.28v0c5.68,0,12-.74,16.65-4.28a13.31,13.31,0,0,0,5.31-10.36c0-1.22.1-2.44.16-3.66,0-.42,0-.4.37-.36l7.07.6H65c.16,0,.14.06.13.36L65,60.77A21.12,21.12,0,0,1,56.58,77m8-10.56a23.18,23.18,0,0,0,.94-5.56h0v0l.15-3.37h0v0h0l0,0h0l0,.06h0l0,.06h0l0,.05h0v0h0v0h0l0,0h0l0,0h0l0,0h0l0,0h0c.06.16.12.33.17.5h0c0,.17.09.36.13.54h0l0,.1h0c0,.23.08.46.11.69h0v0h0v0h0v0h0c0,.36.07.73.09,1.06h0v0h0v0h0v.08h0v0h0v0h0v0h0c0,.37,0,.68,0,.91a14.08,14.08,0,0,0,.3,2.59,3,3,0,0,0,.64,1.37Zm3.92-.33c-1,0-1.29-1.84-1.4-3.91-.06-1.28-.06-4.53-1.4-5.49a1.81,1.81,0,0,0-.84-.22l-.53,0-3.73-.32h-.18c-1-3.57-1.56-6.85.12-10.91.26-.49.23-.22.24.12.11,3.7,1.63,5.25,2.63,8.13.64-1.85,2.58-3.57,4-4.64.59-.45.48-.44.24.17-2.73,7.06,4.79,17.15.87,17.13"/><path d="M37.5,77.35v-.26s0-.1,0-.16v0h0l-.87,0h-1l-.45,0h0l-.39,0h0v0a.49.49,0,0,0,0,.12s0,.1,0,.15,0,.2,0,.3v0h0l.39-.05h0l.45,0c0,.29,0,.57,0,.85V79c0,.39,0,.78,0,1.17s0,.61,0,.91v0h0l.29,0h.35l.31,0h0v0c0-.32,0-.63,0-1,0-.53,0-1.07,0-1.6v-.25c0-.17,0-.33,0-.5s0-.23,0-.35l.44,0,.45,0h0v0c0-.05,0-.1,0-.16"/><path d="M62,62.2l-1.13.32h0a.84.84,0,0,0-.21-.61,1.37,1.37,0,0,0-1.54-.24,1.25,1.25,0,0,0-.43.8c0,.17-.06.35-.08.52s0,.33-.07.48a1.78,1.78,0,0,1-.09.33v.06h0l.91.13c.38.06.77.13,1.15.21l.21,0c.34.06.68.13,1,.21s.55.13.82.21h0v0l0-.27a1.22,1.22,0,0,1,0-.17,1,1,0,0,1,0-.17,2,2,0,0,1,.07-.26v0h0l-.54-.08-.6-.11-.72-.14c.39-.12.78-.24,1.17-.34s.58-.14.87-.19h0a2.89,2.89,0,0,1,0-.29.75.75,0,0,1,0-.2c0-.07,0-.13,0-.2l.09-.33v0h0c-.36.12-.73.25-1.1.36m-1.52,1.14h0l-.81-.16-.38-.08L59,63.05s0,0,0-.07a.06.06,0,0,0,0,0,.74.74,0,0,1,.26-.46.83.83,0,0,1,.56,0,.86.86,0,0,1,.56.3.8.8,0,0,1,.07.61"/><path d="M60.22,65.31a2.22,2.22,0,0,0-1.62-.15,1.82,1.82,0,0,0-1.05,1.07,1.86,1.86,0,0,0,0,1.58,2.43,2.43,0,0,0,1.31,1.13,2.28,2.28,0,0,0,1.64.16A1.73,1.73,0,0,0,61.53,68a1.82,1.82,0,0,0,0-1.58,2.52,2.52,0,0,0-1.34-1.13m.93,2.5a.81.81,0,0,1-.71.5,2.61,2.61,0,0,1-1.28-.26,2.58,2.58,0,0,1-1.09-.75.84.84,0,0,1-.14-.86.83.83,0,0,1,.71-.49,2.78,2.78,0,0,1,1.3.26A2.7,2.7,0,0,1,61,67a.8.8,0,0,1,.14.85"/><path d="M59.11,70.59c-.28-.18-.55-.38-.82-.57l-.19-.14-.93-.7-.73-.58h0v0l-.15.27-.07.12-.12.14-.21.23h0c.28.18.56.36.83.55s.61.42.9.64.63.45.93.69.49.38.72.58h0v0l.16-.26.07-.11.13-.16.19-.22v0h0l-.71-.47"/><path d="M57,73c-.38-.37-.75-.75-1.12-1.14l-.18-.18-.34-.36c-.08-.08-.15-.17-.23-.26h0a3.11,3.11,0,0,1,.33-.29,3.38,3.38,0,0,1,.36-.27v0h0a1.31,1.31,0,0,1-.12-.11,1.14,1.14,0,0,1-.11-.11.27.27,0,0,1-.07-.08L55.45,70v0l-.6.63-.34.33-.36.34-.63.56h0l0,0,.08.08.12.1.19.22,0,0v0l.28-.35c.1-.11.2-.22.31-.32l.6.6.5.51.81.86c.2.22.4.45.59.68h0c.06-.07.12-.15.19-.22l.13-.13.12-.11.24-.2h0l0,0c-.23-.21-.46-.42-.69-.65"/><path d="M54.59,75.07c-.34-.2-.68-.4-1-.61a.86.86,0,0,0,.31-.57,1.2,1.2,0,0,0-.21-.73A1.1,1.1,0,0,0,53,72.6a1.32,1.32,0,0,0-.88.23l-.43.3-.4.28-.3.16,0,0h0v0c.19.25.36.5.53.75s.43.66.64,1l.11.18.53.88c.14.25.28.49.41.74v0h0l.21-.17.15-.09a1.19,1.19,0,0,1,.15-.09,1.34,1.34,0,0,1,.24-.12h0v0l-.32-.45-.33-.51-.39-.62c.35.19.71.4,1,.62a7.25,7.25,0,0,1,.73.5h0L55,76a.88.88,0,0,1,.17-.12l.18-.1.3-.17h0l0,0c-.34-.18-.68-.36-1-.55m-1.48-.81a.78.78,0,0,1-.4.47h0l-.44-.7c-.07-.11-.14-.22-.2-.33l-.14-.25a.1.1,0,0,0,0,0,.05.05,0,0,0,0,0,.68.68,0,0,1,.51-.12.75.75,0,0,1,.42.38.81.81,0,0,1,.16.6"/><path d="M50,74.66a1.79,1.79,0,0,0-1.5,0,1.84,1.84,0,0,0-1.15,1.08,2.82,2.82,0,0,0,1.12,3,1.77,1.77,0,0,0,1.51,0,1.86,1.86,0,0,0,1.16-1.08,2.58,2.58,0,0,0-.12-1.75,2.21,2.21,0,0,0-1-1.26m.38,3a.81.81,0,0,1-.51.69.83.83,0,0,1-.85-.16,3.2,3.2,0,0,1-.92-2.41.8.8,0,0,1,.52-.69.79.79,0,0,1,.84.17,2.67,2.67,0,0,1,.72,1.11,2.6,2.6,0,0,1,.2,1.29"/><path d="M46.43,77.75a.83.83,0,0,1,0-.15,1.08,1.08,0,0,1,0-.19s0-.06,0-.09v0h0l-.6.15-.45.12-.06-.3c0-.17-.08-.34-.11-.51l-.06-.35h0l.1,0,.2,0,.39-.08.39,0h0v0l0-.15a.36.36,0,0,1,0-.11l0-.12a.77.77,0,0,0,0-.15v0h0l-.61.15L45,75.9,44.7,76l-.68.12h0v0c.07.24.14.49.2.73s.17.7.24,1l.14.67c.07.31.14.62.19.94s.07.46.1.69v0h0l.25-.07.19,0,.21,0,.27,0h0v0c-.05-.12-.08-.25-.12-.38s-.07-.29-.1-.43l-.24-1.1a4.37,4.37,0,0,1,.5-.09l.57-.09h0v0a.56.56,0,0,1,0-.12"/><path d="M40.64,78.76c-.29-.7-.56-1.41-.83-2.11v0h0l0,0-.2,0h-.27c-.15.73-.3,1.45-.47,2.17s-.36,1.47-.55,2.19v0h0l.15,0,.13,0h.26v0L39,79.84l.31,0,.21,0,.31,0h.22l.21.58c.06.19.13.37.19.55h0l.26,0,.24,0h.2l.28,0h0v0c-.29-.67-.57-1.34-.85-2m-.74.46-.38,0-.34,0h0c0-.21.08-.41.13-.61s.09-.43.15-.65l.26.6c.08.19.15.39.22.59Z"/><path d="M33.15,76.93H33l-.19,0-.3,0h0v0c0,.32,0,.66,0,1s0,.74,0,1.11,0,.77-.06,1.16,0,.61-.08.92v0h0l.32,0h.12l.2,0,.3,0h0v0c0-.28,0-.56,0-.85s0-.66,0-1V79c0-.39,0-.77,0-1.16s.05-.62.08-.93v0h0l-.31,0"/><path d="M30.94,76.75H30.7l-.15,0h0v0c0,.24,0,.47-.05.71s-.05.57-.08.85l-.12,1.09h0c-.28-.45-.55-.91-.81-1.37s-.54-1-.79-1.49h-.34l-.12,0-.2,0h0v0l-.09,1.15c0,.31-.05.62-.09.93s-.08.76-.13,1.14-.09.62-.14.93v0h.27l.11,0,.15,0h0v0c0-.21,0-.41,0-.62s0-.31,0-.46l.17-1.63c.29.47.57,1,.85,1.43s.54,1,.79,1.49h.32l.11,0,.18,0h0v0l0-.54c0-.25,0-.5.07-.74l0-.29c.06-.56.12-1.12.19-1.68a8.7,8.7,0,0,1,.15-.89v0h-.16"/><path d="M26.93,76.24l-.11,0-.1,0-.17-.06h0v0a2.17,2.17,0,0,1-.15.35c-.05.11-.1.21-.16.32l-1,1.91L25,76.57c0-.12,0-.23,0-.35s0-.27,0-.41v0h0l-.32,0-.13,0-.21,0-.3-.08h0l.33,3.3s0,0,0,.07c0,.33.06.67.07,1v0h.19l.11,0,.11,0,.15,0h0v0c.08-.17.16-.34.25-.51l.24-.45,1.12-1.93.26-.43.32-.48,0,0h-.23"/><path d="M21.25,74.47a2.26,2.26,0,0,0-.42-.26,1.36,1.36,0,0,0-1-.07,1.32,1.32,0,0,0-.71.74,1.23,1.23,0,0,0-.11.71,2.65,2.65,0,0,0,.46.86,2.21,2.21,0,0,1,.34.57.53.53,0,0,1-.05.35.55.55,0,0,1-.32.33.62.62,0,0,1-.46,0,.64.64,0,0,1-.37-.37,1.13,1.13,0,0,1,0-.63v0l-.1,0h0l-.31.49-.24.36h0a1.57,1.57,0,0,0,.32.31,2.22,2.22,0,0,0,.42.25,1.48,1.48,0,0,0,1.13.09,1.37,1.37,0,0,0,.77-.78,1.31,1.31,0,0,0,.13-.7,2.31,2.31,0,0,0-.43-.84l-.11-.15c-.15-.2-.39-.56-.28-.82a.5.5,0,0,1,.29-.28.56.56,0,0,1,.42,0,.57.57,0,0,1,.32.31,1.14,1.14,0,0,1,.05.55v0l.07,0h0a4.08,4.08,0,0,1,.25-.33,4,4,0,0,1,.26-.32h0a1.43,1.43,0,0,0-.3-.35"/><path d="M18.77,73.82l.47-.33,0,0h0l-.17-.09-.1-.06-.08-.06-.14-.12h0a3.45,3.45,0,0,1-.28.26,2.1,2.1,0,0,1-.27.24L16.51,75,17.14,73c0-.11.06-.22.1-.33s.1-.26.16-.39h0l-.28-.16L17,72l-.17-.12-.24-.2,0,0-.93,3.19s0,0,0,.06c-.09.33-.19.65-.31,1v0h0l.15.07.09.06.1.07.12.11h0c.14-.14.28-.26.42-.39s.26-.22.4-.32l1.76-1.37.4-.3"/><path d="M15.42,71.21c.1.1.2.21.29.32a4.22,4.22,0,0,1,.27.36l0,0v0l.11-.12.11-.11.08-.07.12-.1h0l0,0-.63-.6-.33-.33-.34-.36-.56-.63v0h0l-.08.09a.52.52,0,0,1-.1.11l-.22.2,0,0,0,0c.12.09.24.18.35.28s.22.2.32.31l-.6.6-.51.49c-.28.28-.57.55-.86.81s-.45.4-.68.6h0v0l.22.19.13.13a1.31,1.31,0,0,1,.11.12,2.31,2.31,0,0,1,.2.24h0c.21-.24.43-.47.65-.69.37-.38.76-.76,1.14-1.13l.18-.17.36-.34Z"/><path d="M12.15,69.6a.83.83,0,0,0,.56.32,1.18,1.18,0,0,0,.73-.19,1.11,1.11,0,0,0,.57-.67,1.26,1.26,0,0,0-.21-.88c-.09-.15-.19-.29-.29-.44s-.19-.27-.27-.4-.11-.2-.16-.3a.05.05,0,0,0,0,0v0h0l-.76.52-1,.62-.18.11c-.3.17-.59.35-.89.51s-.5.27-.75.39h0l0,0,.15.22a1.3,1.3,0,0,1,.1.15,1.09,1.09,0,0,1,.08.15,1.34,1.34,0,0,1,.12.24v0h0l.45-.31.52-.32.63-.38c-.2.35-.42.7-.64,1a8.72,8.72,0,0,1-.52.72h0c.06.08.11.16.17.23a1.74,1.74,0,0,1,.11.18,1.62,1.62,0,0,1,.1.18l.16.3v0l0,0c.18-.33.37-.67.57-1s.41-.67.63-1Zm-.26-.87h0l.71-.43.34-.2.25-.13,0,0a.05.05,0,0,0,0,0,.68.68,0,0,1,.11.52A.84.84,0,0,1,13,69a.89.89,0,0,1-.61.15.81.81,0,0,1-.46-.41"/><path d="M10.47,66.82l.22-.08,1.09-.41.88-.29h0v0l-.14-.27-.06-.13-.06-.18a2.46,2.46,0,0,1-.07-.29v0h0l-.9.4-1,.41c-.36.14-.72.28-1.09.4l-.88.29h0c0,.1.1.19.14.29a1.17,1.17,0,0,1,.05.11l.06.19.09.29v0h0l.78-.34.93-.37"/><path d="M11.06,64.41l.51.07.56.1h0v0l-.06-.19,0-.11s0-.07,0-.1S12,64,12,64v0h-.4c-.12,0-.24,0-.36,0l-2.16-.2,1.91-1,.3-.16.38-.16h0c0-.11-.06-.21-.08-.32l0-.13a1.18,1.18,0,0,1,0-.2l0-.32v0L8.62,63l0,0c-.3.16-.6.32-.91.46h0l.06.17,0,.1s0,.08,0,.12,0,.11,0,.16v0h0l.57,0,.5,0Z"/><path d="M51,9.27a3.78,3.78,0,0,0,.09,3.78,1.55,1.55,0,0,0,0-.22A12.32,12.32,0,0,1,51.26,11c.27-1,1.12-1.29,1.84-2.09.32-.35.55-.7.84-1.06a2.26,2.26,0,0,0,.26-.37,3.14,3.14,0,0,0,.33-.91c-.72,1.26-2.65,1.5-3.5,2.7M53.85,7.6h0l-.09.11c-.28.34-.53.72-.83,1-.69.77-1.6,1.09-1.9,2.17a6.27,6.27,0,0,0-.11,1v0a3.16,3.16,0,0,1,.29-2.52c.6-.84,1.75-1.18,2.64-1.8"/><path d="M37.11,9.27a3.78,3.78,0,0,0,.09,3.78,1.55,1.55,0,0,0,0-.22A12.32,12.32,0,0,1,37.33,11c.28-1,1.13-1.29,1.85-2.09.32-.35.55-.7.84-1.06a3.09,3.09,0,0,0,.26-.37,3.14,3.14,0,0,0,.33-.91c-.72,1.26-2.65,1.5-3.5,2.7M39.93,7.6h0l-.09.11c-.28.34-.53.72-.83,1-.69.76-1.6,1.09-1.9,2.17a6.27,6.27,0,0,0-.11,1v0a3.16,3.16,0,0,1,.29-2.52c.6-.84,1.75-1.18,2.64-1.8"/><path d="M22.94,9.27a3.78,3.78,0,0,0,.1,3.78,1.7,1.7,0,0,1,0-.22A11.11,11.11,0,0,1,23.17,11c.28-1,1.13-1.29,1.85-2.09.31-.35.54-.7.83-1.06a3.18,3.18,0,0,0,.27-.37,3.14,3.14,0,0,0,.32-.91c-.72,1.26-2.64,1.5-3.5,2.7M25.77,7.6h0l-.09.11c-.29.34-.53.72-.83,1-.69.76-1.6,1.09-1.9,2.17a5.25,5.25,0,0,0-.12,1v0a3.16,3.16,0,0,1,.3-2.52c.6-.84,1.75-1.18,2.64-1.8"/><path d="M17.83,37.27a6,6,0,0,0,.93.33c.36.11.74.2,1.11.28l.46.1-1.08.1c-.28,0-.58.05-.85.1h-.07a.28.28,0,0,0-.25.27.28.28,0,0,0,.22.3l.06,0a4.4,4.4,0,0,0,.88.16c.33,0,.68.05,1,.06h.12l-.63.19a5.39,5.39,0,0,0-.68.22l-.06,0a.3.3,0,0,0-.21.29A.3.3,0,0,0,19,40l.07,0a3.23,3.23,0,0,0,.88,0c.36,0,.72-.07,1.08-.12h.07l-.53.3a4.66,4.66,0,0,0-.53.32.32.32,0,0,0-.16.37.3.3,0,0,0,.28.2h.06a4.91,4.91,0,0,0,1.59-.33l.47-.17-.51.47a3.06,3.06,0,0,0-.37.35.3.3,0,0,0-.07.36.27.27,0,0,0,.25.16h.06a3.84,3.84,0,0,0,1.67-.76l-.38.7v0l0,0a.3.3,0,0,0,.47.34,4.44,4.44,0,0,0,2.25-3.46,1.09,1.09,0,0,1,.09-.33l2.46,3.06a.34.34,0,0,0,.3.18.32.32,0,0,0,.27-.19.31.31,0,0,1,.16-.14.3.3,0,0,0,.11-.54L26.39,38a1.38,1.38,0,0,1,.34,0,4.19,4.19,0,0,0,3.78-1.71.3.3,0,0,0,0-.37.3.3,0,0,0-.31-.13h-.08l-.78.29a3.88,3.88,0,0,0,1-1.56s0,0,0,0a.33.33,0,0,0-.13-.28.32.32,0,0,0-.37,0,3.9,3.9,0,0,0-.4.31L29,34.9l.24-.44a5,5,0,0,0,.58-1.53v-.06a.3.3,0,0,0-.17-.3.31.31,0,0,0-.37.11c-.14.14-.28.31-.41.47l-.37.48,0-.06a10,10,0,0,0,.28-1,3.3,3.3,0,0,0,.1-.88v-.06a.29.29,0,0,0-.2-.29c-.19-.06-.3.05-.38.19s-.22.43-.33.64-.19.41-.28.61c0,0,0-.08,0-.12,0-.34.07-.68.09-1a4.32,4.32,0,0,0,0-.88v-.06a.29.29,0,0,0-.57-.08.25.25,0,0,0,0,.07c-.09.27-.16.55-.23.83l-.27,1,0-.45c0-.38-.05-.76-.1-1.13a6.15,6.15,0,0,0-.19-1s0,0,0-.06a.29.29,0,0,0-.3-.22.29.29,0,0,0-.27.26.17.17,0,0,1,0,.07c0,.3-.05.61-.07.91s0,.61-.05.91h0c-.08-.4-.16-.8-.26-1.19a8.67,8.67,0,0,0-.3-1c-.06-.14-.12-.29-.35-.25a.28.28,0,0,0-.24.29v.07c0,.33,0,.66.05,1s.05.59.08.88c-.12-.35-.24-.69-.37-1a8.35,8.35,0,0,0-.42-1c-.07-.15-.15-.3-.37-.23a.27.27,0,0,0-.21.27v.12c0,.35.11.7.18,1s.12.56.19.84l-.46-.88c-.18-.32-.36-.64-.56-1-.1-.13-.18-.29-.41-.21a.31.31,0,0,0-.19.28A.11.11,0,0,0,22,30a.29.29,0,0,0,0,.09,10.6,10.6,0,0,0,.31,1.06c.09.26.18.51.28.77l-.52-.74c-.23-.3-.46-.61-.71-.89-.11-.12-.24-.24-.44-.12a.28.28,0,0,0-.13.25.35.35,0,0,0,0,.07.11.11,0,0,1,0,.05l0,.07a9.41,9.41,0,0,0,.47,1c.16.31.33.61.5.91l-.72-.73a11,11,0,0,0-.88-.79l-.07-.05a.3.3,0,0,0-.38,0,.29.29,0,0,0-.05.38l0,.07a10.79,10.79,0,0,0,.66,1c.21.29.43.57.64.85-.28-.22-.57-.45-.87-.66a7.52,7.52,0,0,0-.95-.64l-.05,0-.05,0-.06,0a.31.31,0,0,0-.27.09c-.14.17-.06.31,0,.43a10.22,10.22,0,0,0,.77.84l.67.65-.72-.39c-.32-.17-.66-.34-1-.48l-.06,0,0,0a.28.28,0,0,0-.33.11c-.13.18,0,.32.1.43a9.82,9.82,0,0,0,.86.71l.82.61-.8-.31c-.33-.12-.67-.24-1-.33a.32.32,0,0,0-.27,0,.25.25,0,0,0-.15.13c-.1.2,0,.32.15.42a10.57,10.57,0,0,0,.91.56c.32.18.64.36,1,.53l-.87-.21-1-.21h-.07a.3.3,0,0,0-.32.2c-.07.22.07.3.2.38a7.76,7.76,0,0,0,.92.44c.38.16.76.3,1.14.44h0l-.93-.09L18,36.69h-.05a.29.29,0,0,0-.12.56.05.05,0,0,1,0,0m11,3.81c.07.07.06.06,0,.08a.58.58,0,0,0-.31.27c0,.07,0,0-.1,0l-2.59-3.22h0c-.12-.15.07-.31.21-.16ZM18,37c.84,0,2.76.26,3.82.32,0,0,.08,0,0-.08a28.48,28.48,0,0,1-3.9-1.51c-.07,0-.11-.05,0,0,.92.16,2.92.71,4,1,.06,0,.07,0,0-.07A38.63,38.63,0,0,1,18,34.48c-.05,0-.07,0-.06,0l.08,0a36.09,36.09,0,0,1,4,1.61c.05,0,.06,0,0-.05-1-.74-2.87-2-3.65-2.72-.09-.08-.06-.06,0,0a28.22,28.22,0,0,1,3.88,2.19c.06,0,.08,0,0-.05-.94-.89-2.63-2.37-3.3-3.21-.06-.08-.06-.07,0,0A36.56,36.56,0,0,1,22.79,35s.06,0,.05,0A34.69,34.69,0,0,1,20,31.24c-.07-.12-.08-.12,0,0a32.55,32.55,0,0,1,3.24,3.33s0,0,0,0a36.05,36.05,0,0,1-2.21-4c0-.12,0-.12,0,0,.72.79,1.95,2.72,2.67,3.77,0,0,.05,0,.05,0a29.5,29.5,0,0,1-1.6-4.2c0-.16,0-.09.06,0,.58.87,1.53,2.88,2.1,4,0,0,0,0,.06,0a33.57,33.57,0,0,1-1-4.21c0-.13,0-.11,0,0a42.46,42.46,0,0,1,1.48,4.1s.05,0,.07,0c-.1-1.1-.34-3.16-.35-4.09,0-.11,0-.08,0,0a26.23,26.23,0,0,1,.89,4.08s.06,0,.09,0c.1-1,.17-3,.26-3.79,0-.12,0-.09,0,0A21.23,21.23,0,0,1,26.47,34a.06.06,0,0,0,.09,0c.33-1,.7-2.71.9-3.29,0-.11,0-.08,0,0a17.38,17.38,0,0,1-.33,3.57s0,.06.07,0c.37-.72,1-2.2,1.31-2.74.06-.11,0-.06.05,0a12.5,12.5,0,0,1-.83,3.18s0,.07.06.07c.45-.51,1.28-1.69,1.63-2,.06-.06.06-.07.05,0a9.38,9.38,0,0,1-1.27,2.7c0,.07,0,.11.05.11a14.5,14.5,0,0,0,1.78-1.31c.07,0,.06,0,.06,0-.05.49-1.13,1.58-1.66,2.14,0,.05,0,.09,0,.1L30.24,36c.09,0,.08,0,0,.05a3.89,3.89,0,0,1-3.53,1.58h0A4.84,4.84,0,0,0,28.16,37c.09-.08,0-.19-.09-.11a5.15,5.15,0,0,1-1.43.65A5,5,0,0,0,28,36.14c.06-.1-.06-.17-.12-.07a5.55,5.55,0,0,1-1.43,1.43,6.19,6.19,0,0,0,1.17-2c0-.11-.1-.15-.14,0a6.08,6.08,0,0,1-1.16,2,8.38,8.38,0,0,0,.81-2.38c0-.11-.12-.14-.14,0a7.88,7.88,0,0,1-.8,2.35,8.3,8.3,0,0,0,.36-2.62c0-.12-.15-.11-.14,0a8.35,8.35,0,0,1-.34,2.53,9,9,0,0,0-.16-2.64c0-.11-.16-.08-.14,0a8.75,8.75,0,0,1,.16,2.55,10.59,10.59,0,0,0-.55-2.59c0-.1-.17-.06-.13,0a10.64,10.64,0,0,1,.54,2.55,14.61,14.61,0,0,0-.91-2.52c0-.1-.17,0-.13.06a13.78,13.78,0,0,1,.9,2.52,17.06,17.06,0,0,0-1.28-2.38c-.06-.1-.18,0-.12.07a18,18,0,0,1,1.27,2.37c-.52-.75-1.07-1.48-1.62-2.2-.07-.09-.18,0-.11.09.56.73,1.08,1.43,1.61,2.2-.67-.64-1.28-1.26-1.92-1.93-.08-.09-.18,0-.11.09.63.66,1.26,1.31,1.92,1.94a18.42,18.42,0,0,1-2.14-1.61C23,35.85,23,36,23,36a18.72,18.72,0,0,0,2.16,1.62,14.08,14.08,0,0,1-2.35-1.27c-.09-.06-.17.06-.07.12a14.81,14.81,0,0,0,2.34,1.28,10,10,0,0,1-2.43-.93.07.07,0,1,0-.07.13,9.72,9.72,0,0,0,2.47.93,8.54,8.54,0,0,1-2.49-.54.08.08,0,1,0-.05.14,9.15,9.15,0,0,0,2.58.55,8.08,8.08,0,0,1-2.55,0c-.11,0-.14.12,0,.14a7.86,7.86,0,0,0,2.65,0,8,8,0,0,1-2.45.44c-.11,0-.11.14,0,.14a8,8,0,0,0,2.47-.44,6,6,0,0,1-2.13.85c-.11,0-.08.16,0,.14a6,6,0,0,0,2.15-.85,5.46,5.46,0,0,1-1.63,1.2c-.11,0,0,.17.05.13a5.43,5.43,0,0,0,1.57-1.12A5.12,5.12,0,0,1,24.4,40a.07.07,0,1,0,.1.11,5.1,5.1,0,0,0,.88-1.34v0h0a4.17,4.17,0,0,1-2.1,3.25c-.08,0-.07,0,0,0l.91-1.65s0,0-.07,0c-.6.42-1.87,1.34-2.38,1.31-.07,0-.08,0,0-.06A15.28,15.28,0,0,0,23.23,40c0-.06,0-.08-.1-.06a9.8,9.8,0,0,1-2.86.85c-.09,0-.09,0,0-.06.4-.29,1.7-.94,2.27-1.3t-.06-.06h0a12.34,12.34,0,0,1-3.29.32c-.11,0-.1,0,0,0,.58-.22,2.13-.62,2.89-.87,0,0,0-.05,0-.08a17.08,17.08,0,0,1-3.59-.22c-.1,0-.11,0,0,0,.48-.08,1.7-.16,2.7-.28a6.25,6.25,0,0,0,.68-.09c.05,0,.09-.07,0-.1A21.8,21.8,0,0,1,18,37c-.07,0-.1,0,0,0"/><path d="M31.12,42.48l0,.07a9.41,9.41,0,0,0,.47,1c.16.31.33.61.5.91l-.72-.73c-.28-.27-.58-.55-.88-.79l-.07-.05a.3.3,0,0,0-.38,0,.3.3,0,0,0-.06.38.25.25,0,0,1,0,.07,10.79,10.79,0,0,0,.66,1l.64.86c-.28-.23-.57-.46-.87-.67a7.63,7.63,0,0,0-1-.64l-.05,0,0,0-.06,0a.3.3,0,0,0-.27.1c-.14.16-.06.3,0,.42a7.67,7.67,0,0,0,.77.84l.67.66-.72-.4c-.33-.17-.66-.34-1-.48l-.06,0,0,0a.32.32,0,0,0-.33.11c-.13.18,0,.32.09.43.27.25.57.49.86.71l.83.62-.8-.32c-.33-.12-.67-.24-1-.33a.36.36,0,0,0-.27,0,.23.23,0,0,0-.15.13c-.1.2,0,.32.15.42a10.57,10.57,0,0,0,.91.56c.31.19.64.36,1,.53l-.87-.21c-.32-.08-.64-.15-1-.21h-.06a.28.28,0,0,0-.32.2c-.07.21.06.29.19.37a10,10,0,0,0,.93.45c.38.15.76.3,1.14.43h0l-.93-.09-.92-.07h-.05a.29.29,0,0,0-.12.56l0,0a5.93,5.93,0,0,0,.92.33c.37.11.74.2,1.12.28l.46.1-1.08.1-.86.1H28.6a.31.31,0,0,0-.26.28.29.29,0,0,0,.22.3h.07a4.3,4.3,0,0,0,.87.16c.34,0,.69,0,1,.06h.12l-.63.18-.68.22-.06,0a.3.3,0,0,0-.21.29.32.32,0,0,0,.23.28h.07a3.33,3.33,0,0,0,.89,0c.36,0,.72-.07,1.08-.12h.07l-.53.3a4.72,4.72,0,0,0-.53.33.29.29,0,0,0,.12.56h.06a4.91,4.91,0,0,0,1.59-.33l.47-.17-.51.47a3.06,3.06,0,0,0-.37.35.3.3,0,0,0,.18.53H32a3.73,3.73,0,0,0,1.67-.76l-.38.7v0l0,.05a.3.3,0,0,0,.47.34,4.47,4.47,0,0,0,2.25-3.46A1.09,1.09,0,0,1,36,50.5l2.46,3.06a.34.34,0,0,0,.3.18.32.32,0,0,0,.27-.19.31.31,0,0,1,.16-.14.3.3,0,0,0,.11-.54l-2.66-2.93a1.35,1.35,0,0,1,.33,0,4.22,4.22,0,0,0,3.79-1.7.3.3,0,0,0-.27-.51h-.08l-.78.29a3.88,3.88,0,0,0,1-1.56.11.11,0,0,1,0-.05.34.34,0,0,0-.13-.28.32.32,0,0,0-.37,0,3.9,3.9,0,0,0-.4.31l-.54.43.24-.44a4.72,4.72,0,0,0,.57-1.53.13.13,0,0,0,0-.06.28.28,0,0,0-.17-.29.29.29,0,0,0-.37.1,4.6,4.6,0,0,0-.41.47l-.37.48,0-.06a9.39,9.39,0,0,0,.28-1,3.26,3.26,0,0,0,.1-.88v-.05a.3.3,0,0,0-.58-.11c-.12.21-.22.43-.33.65l-.28.6s0-.08,0-.12q.06-.51.09-1a4.42,4.42,0,0,0,0-.89.13.13,0,0,0,0-.06.29.29,0,0,0-.56-.07.14.14,0,0,0,0,.06c-.09.27-.17.56-.24.83s-.17.69-.26,1l0-.45c0-.38,0-.75-.1-1.13a8,8,0,0,0-.19-.95l0-.06a.29.29,0,0,0-.3-.22.29.29,0,0,0-.27.26A.15.15,0,0,1,36,42c0,.3,0,.61-.07.91s0,.61,0,.91h0c-.07-.4-.16-.8-.25-1.19a8.67,8.67,0,0,0-.3-1c-.06-.14-.12-.29-.35-.25a.29.29,0,0,0-.24.29v.07c0,.33,0,.66,0,1s0,.58.08.87c-.12-.34-.24-.69-.37-1a9.16,9.16,0,0,0-.42-1c-.07-.14-.15-.29-.38-.23a.3.3,0,0,0-.21.27.07.07,0,0,0,0,0v.07c0,.35.11.7.18,1.05s.12.56.19.83c-.15-.29-.3-.58-.46-.87s-.36-.65-.57-1c-.09-.13-.17-.29-.4-.21a.3.3,0,0,0-.19.28s0,0,0,.06,0,.06,0,.09a9.93,9.93,0,0,0,.32,1.06c.09.26.18.52.28.77-.17-.25-.35-.49-.53-.74a9.89,9.89,0,0,0-.71-.89c-.11-.12-.23-.24-.43-.12a.28.28,0,0,0-.13.25s0,.06,0,.07,0,0,0,0m8,10.58c.07.08.06.06,0,.08a.59.59,0,0,0-.31.27c0,.07,0,0-.1,0l-2.6-3.23c-.12-.15.08-.3.21-.16ZM31.45,42.43a43.31,43.31,0,0,1,2.68,3.77s0,0,0,0a28.34,28.34,0,0,1-1.6-4.2c0-.16,0-.09.06,0,.58.86,1.53,2.87,2.1,4,0,0,0,0,.06,0a33.17,33.17,0,0,1-1-4.21c0-.12,0-.11,0,0a42.46,42.46,0,0,1,1.48,4.1s0,0,.07,0c-.1-1.11-.34-3.16-.35-4.09,0-.12,0-.08,0,0A27.71,27.71,0,0,1,36,45.82s.05,0,.09,0c.1-1,.17-3,.26-3.8,0-.11,0-.09,0,0A21.22,21.22,0,0,1,36.74,46a.06.06,0,0,0,.09,0c.33-1,.7-2.71.9-3.29,0-.1,0-.08,0,0a17.38,17.38,0,0,1-.33,3.57c0,.05,0,.06.07.05.37-.72,1-2.19,1.31-2.74.06-.1,0-.06,0,0A12.5,12.5,0,0,1,38,46.83s0,.08.06.07c.44-.51,1.28-1.69,1.63-2,.06-.06.06-.07.05,0a9.38,9.38,0,0,1-1.27,2.7c0,.07,0,.11,0,.11a14,14,0,0,0,1.79-1.31c.07,0,.06,0,.06,0,0,.48-1.13,1.57-1.66,2.13-.05,0-.05.09,0,.1L40.51,48c.09,0,.08,0,0,0A3.88,3.88,0,0,1,37,49.62h0A4.9,4.9,0,0,0,38.43,49c.09-.07,0-.18-.09-.11a5.29,5.29,0,0,1-1.43.65,5.18,5.18,0,0,0,1.34-1.38c.06-.09-.06-.17-.12-.07a5.4,5.4,0,0,1-1.43,1.43,6.19,6.19,0,0,0,1.17-2c0-.11-.1-.15-.14,0a6.21,6.21,0,0,1-1.16,2A8.38,8.38,0,0,0,37.38,47a.08.08,0,1,0-.15,0,7.89,7.89,0,0,1-.79,2.34,8.3,8.3,0,0,0,.36-2.62.08.08,0,1,0-.15,0,8,8,0,0,1-.33,2.53,9,9,0,0,0-.16-2.64c0-.11-.16-.08-.14,0a8.75,8.75,0,0,1,.16,2.55,10.42,10.42,0,0,0-.55-2.58c0-.11-.17-.07-.14,0A9.84,9.84,0,0,1,36,49.21a13.78,13.78,0,0,0-.9-2.52c-.05-.1-.18,0-.13.06a13.78,13.78,0,0,1,.9,2.52,17.06,17.06,0,0,0-1.28-2.38c-.06-.1-.18,0-.12.07a18,18,0,0,1,1.27,2.37c-.52-.75-1.07-1.48-1.62-2.19-.07-.09-.19,0-.12.08.57.74,1.09,1.43,1.62,2.2-.68-.64-1.29-1.26-1.92-1.93-.08-.09-.18,0-.11.1.63.65,1.26,1.31,1.92,1.93a16.63,16.63,0,0,1-2.14-1.61c-.09-.08-.18,0-.1.11a18.8,18.8,0,0,0,2.16,1.63,14.14,14.14,0,0,1-2.35-1.28.07.07,0,1,0-.08.12,14.91,14.91,0,0,0,2.35,1.28A9.83,9.83,0,0,1,33,48.84a.07.07,0,1,0-.07.13,10.14,10.14,0,0,0,2.47.94,8.55,8.55,0,0,1-2.49-.55c-.11,0-.16.1,0,.14a8.81,8.81,0,0,0,2.58.55,8.08,8.08,0,0,1-2.55,0c-.11,0-.14.12,0,.14a8.19,8.19,0,0,0,2.66,0,8.25,8.25,0,0,1-2.45.43.07.07,0,1,0,0,.14,8.09,8.09,0,0,0,2.48-.44,5.81,5.81,0,0,1-2.13.85.08.08,0,1,0,0,.15,6.26,6.26,0,0,0,2.15-.86,5.46,5.46,0,0,1-1.63,1.2c-.11,0-.05.17,0,.13a5.08,5.08,0,0,0,1.57-1.12A5.4,5.4,0,0,1,34.67,52c-.08.08,0,.18.1.11a5.21,5.21,0,0,0,.88-1.33v0h0A4.17,4.17,0,0,1,33.54,54c-.09.05-.07,0,0,0l.9-1.64s0,0-.06,0c-.61.42-1.87,1.34-2.38,1.31-.08,0-.09,0,0-.06A16.09,16.09,0,0,0,33.5,52c0-.07,0-.09-.1-.06a9.78,9.78,0,0,1-2.86.84c-.09,0-.1,0,0-.05.4-.3,1.69-.94,2.26-1.3,0,0,0-.06-.05-.07h0a12.38,12.38,0,0,1-3.29.32c-.12,0-.1,0,0-.05.58-.22,2.13-.62,2.89-.87,0,0,0,0,0-.08a17.08,17.08,0,0,1-3.59-.22c-.11,0-.11,0,0,0,.48-.08,1.7-.17,2.7-.28.24,0,.48-.06.68-.1,0,0,.08-.07,0-.1a22.14,22.14,0,0,1-3.85-1c-.06,0-.09,0,0,0,.84,0,2.76.26,3.82.32,0,0,.08-.05,0-.08a28.48,28.48,0,0,1-3.9-1.51c-.07,0-.11,0,0,0,.92.15,2.91.7,4,1,.06,0,.07,0,0-.07a39.58,39.58,0,0,1-3.84-2.1s-.07-.05-.06-.05l.08,0a36.09,36.09,0,0,1,4,1.61s.06,0,0,0c-1-.74-2.87-2-3.65-2.72-.09-.08-.06-.06,0,0a28.22,28.22,0,0,1,3.88,2.19c.06,0,.08,0,0,0a44.24,44.24,0,0,1-3.3-3.21c-.06-.07-.06-.07,0,0A34.33,34.33,0,0,1,33.06,47s.06,0,0-.05a33.72,33.72,0,0,1-2.8-3.72c-.07-.12-.08-.11,0,0a33.61,33.61,0,0,1,3.25,3.33s0,0,0,0a35.44,35.44,0,0,1-2.21-4c-.05-.12-.05-.12,0,0"/><path d="M41.39,54.46l0,.07a9.41,9.41,0,0,0,.47,1c.16.31.32.61.49.91-.23-.24-.47-.49-.71-.72s-.58-.56-.88-.8a.18.18,0,0,1-.07,0,.3.3,0,0,0-.38,0,.31.31,0,0,0-.06.38.43.43,0,0,0,0,.07,8.64,8.64,0,0,0,.66,1c.21.29.42.58.64.86l-.87-.67c-.31-.22-.63-.45-1-.64l0,0,0,0-.07,0a.28.28,0,0,0-.26.1c-.14.16-.06.3,0,.42a8.82,8.82,0,0,0,.77.85l.67.65-.73-.4a9,9,0,0,0-1-.47l-.06,0h0a.29.29,0,0,0-.33.1c-.13.18,0,.33.09.44.27.25.57.48.86.7l.83.62-.81-.32c-.32-.12-.66-.24-1-.33a.39.39,0,0,0-.26,0,.28.28,0,0,0-.15.14c-.1.19,0,.31.15.41a8.42,8.42,0,0,0,.9.56c.32.19.65.36,1,.53l-.86-.21c-.32-.07-.64-.15-1-.2h-.06a.28.28,0,0,0-.32.2c-.07.21.06.29.19.37a8,8,0,0,0,.93.45c.37.15.76.3,1.14.43h0l-.93-.09c-.31,0-.61,0-.92-.06h-.06a.3.3,0,0,0-.29.23.28.28,0,0,0,.18.33l0,0a5.93,5.93,0,0,0,.92.33c.37.11.74.2,1.12.29l.46.09-1.08.11a8.39,8.39,0,0,0-.86.1h-.06a.29.29,0,0,0-.26.27.29.29,0,0,0,.22.3l.07,0a5.11,5.11,0,0,0,.87.15c.34,0,.68.05,1,.06h.12l-.63.18-.68.22-.06,0a.29.29,0,0,0-.21.29.3.3,0,0,0,.23.28h.07a3,3,0,0,0,.89,0,9.91,9.91,0,0,0,1.08-.12h.07l-.53.3a4.72,4.72,0,0,0-.53.33.31.31,0,0,0-.16.36.28.28,0,0,0,.28.2h0a4.93,4.93,0,0,0,1.6-.34l.47-.17-.51.47a4.12,4.12,0,0,0-.37.35.3.3,0,0,0,.18.53h.06a3.73,3.73,0,0,0,1.67-.76l-.38.7v0s0,0,0,.05a.31.31,0,0,0,.07.33.3.3,0,0,0,.39,0,4.49,4.49,0,0,0,2.26-3.47,1.17,1.17,0,0,1,.09-.33l2.46,3.06c.08.1.14.19.3.18a.32.32,0,0,0,.27-.19.25.25,0,0,1,.16-.14.28.28,0,0,0,.22-.2.32.32,0,0,0-.11-.34l-2.66-2.92a1.4,1.4,0,0,1,.33,0,4.22,4.22,0,0,0,3.79-1.7.3.3,0,0,0-.27-.51l-.05,0h0l-.78.29a3.86,3.86,0,0,0,1-1.55v-.06a.31.31,0,0,0-.12-.28.32.32,0,0,0-.37,0,3.9,3.9,0,0,0-.4.31l-.54.44.24-.45a5,5,0,0,0,.57-1.52.13.13,0,0,0,0-.06.29.29,0,0,0-.17-.3.29.29,0,0,0-.37.1,6,6,0,0,0-.41.47l-.37.48s0,0,0-.06a9.39,9.39,0,0,0,.28-1,3.26,3.26,0,0,0,.1-.88v0a.3.3,0,0,0-.2-.3.31.31,0,0,0-.38.19c-.12.21-.23.43-.33.65l-.28.6s0-.08,0-.12q.06-.51.09-1a4.42,4.42,0,0,0,0-.89.13.13,0,0,0,0-.06.29.29,0,0,0-.56-.07l0,.06c-.09.27-.16.56-.23.83s-.17.69-.26,1l0-.46c0-.38-.06-.75-.1-1.12a7.76,7.76,0,0,0-.19-1s0,0,0,0a.29.29,0,0,0-.57,0s0,.05,0,.07c0,.3-.05.61-.07.91s0,.61-.05.91h0c-.07-.4-.16-.8-.25-1.19a10.14,10.14,0,0,0-.3-1c-.06-.15-.13-.29-.35-.26a.29.29,0,0,0-.24.29v.07c0,.33,0,.66.05,1s0,.58.08.87c-.12-.34-.24-.69-.37-1a8.5,8.5,0,0,0-.42-1c-.07-.14-.15-.29-.38-.23a.3.3,0,0,0-.21.27v.05a.22.22,0,0,1,0,.08c0,.34.11.7.18,1s.12.56.19.84c-.15-.3-.31-.59-.46-.88s-.36-.65-.57-1c-.09-.14-.17-.3-.4-.21a.28.28,0,0,0-.19.27v.06s0,.06,0,.09a9.28,9.28,0,0,0,.32,1.06c.09.26.18.52.28.77-.17-.25-.35-.49-.53-.74a9.89,9.89,0,0,0-.71-.89c-.11-.12-.23-.24-.43-.11a.26.26,0,0,0-.13.24s0,.06,0,.07,0,0,0,.05m8,10.58c.07.08.06.06,0,.09a.52.52,0,0,0-.31.27c0,.06,0,0-.1,0l-2.6-3.23h0c-.12-.14.08-.3.21-.16ZM41.72,54.41c.73.79,2,2.72,2.68,3.77,0,0,0,0,0,0A30,30,0,0,1,42.85,54c0-.16,0-.09.06,0,.58.86,1.53,2.87,2.1,4,0,0,0,0,.06,0a33.17,33.17,0,0,1-1-4.21c0-.12,0-.1,0,0a41.73,41.73,0,0,1,1.48,4.11s0,0,.07,0c-.11-1.11-.34-3.16-.36-4.09,0-.12,0-.08,0,0a27.71,27.71,0,0,1,.89,4.08s0,0,.08,0c.11-1.05.18-3,.27-3.8,0-.11,0-.09,0,0A21,21,0,0,1,47,58s.05.06.09,0c.33-1,.7-2.71.9-3.29,0-.1,0-.08,0,0a17.32,17.32,0,0,1-.33,3.57s0,.06.07,0c.37-.71,1-2.19,1.31-2.74.06-.1,0-.05,0,0a11.85,11.85,0,0,1-.82,3.18s0,.08.06.07c.44-.51,1.28-1.69,1.63-2,.06-.06.06-.07,0,0a10.08,10.08,0,0,1-1.27,2.7c0,.06,0,.1,0,.11a16.75,16.75,0,0,0,1.79-1.32c.07,0,.06,0,0,0,0,.48-1.12,1.57-1.65,2.13,0,.06,0,.09,0,.1L50.78,60c.09,0,.08,0,0,.05a3.9,3.9,0,0,1-3.53,1.57h0a4.9,4.9,0,0,0,1.45-.66c.09-.07,0-.18-.09-.11a5.21,5.21,0,0,1-1.44.65,5.17,5.17,0,0,0,1.35-1.37c.06-.1-.07-.18-.12-.08A5.4,5.4,0,0,1,47,61.46a6.27,6.27,0,0,0,1.17-2c0-.1-.1-.15-.14,0a6,6,0,0,1-1.17,2A7.8,7.8,0,0,0,47.64,59c0-.11-.12-.13-.14,0a8,8,0,0,1-.8,2.35,8.41,8.41,0,0,0,.37-2.63c0-.11-.15-.11-.15,0a8,8,0,0,1-.34,2.53,8.61,8.61,0,0,0-.15-2.63c0-.12-.16-.09-.14,0a9.11,9.11,0,0,1,.16,2.55,10.42,10.42,0,0,0-.55-2.58c0-.11-.17-.06-.14,0a9.84,9.84,0,0,1,.54,2.55,13.78,13.78,0,0,0-.9-2.52c0-.1-.18,0-.13.06a14.88,14.88,0,0,1,.9,2.52,17.06,17.06,0,0,0-1.28-2.38c-.06-.1-.18,0-.12.08A16.19,16.19,0,0,1,46,61.31c-.51-.75-1.06-1.47-1.61-2.19a.08.08,0,1,0-.12.09c.57.73,1.09,1.43,1.62,2.19-.68-.64-1.29-1.26-1.92-1.93-.08-.08-.19,0-.11.1.63.66,1.26,1.31,1.92,1.93a16.63,16.63,0,0,1-2.14-1.61c-.09-.07-.18,0-.1.11a18.8,18.8,0,0,0,2.16,1.63,14.14,14.14,0,0,1-2.35-1.28.07.07,0,1,0-.08.12,14.91,14.91,0,0,0,2.35,1.28,10.22,10.22,0,0,1-2.43-.92c-.1-.06-.17.07-.07.12a10.14,10.14,0,0,0,2.47.94,8.87,8.87,0,0,1-2.49-.54c-.11,0-.16.09-.05.13a8.5,8.5,0,0,0,2.58.55A7.8,7.8,0,0,1,43.11,62c-.11,0-.14.12,0,.14a8.13,8.13,0,0,0,2.65.05,8.13,8.13,0,0,1-2.44.43.07.07,0,1,0,0,.14,8.08,8.08,0,0,0,2.48-.43,6.26,6.26,0,0,1-2.13.85c-.11,0-.09.16,0,.14a6.42,6.42,0,0,0,2.16-.85,5.43,5.43,0,0,1-1.63,1.19c-.11,0-.06.18.05.13a5.08,5.08,0,0,0,1.57-1.12A5.4,5.4,0,0,1,44.94,64c-.08.08,0,.19.1.11a5.21,5.21,0,0,0,.88-1.33v0h0A4.15,4.15,0,0,1,43.81,66c-.09,0-.07,0,0,0l.9-1.64s0,0-.06,0c-.61.42-1.87,1.34-2.38,1.31-.08,0-.09,0,0,0A17.65,17.65,0,0,0,43.77,64c0-.07,0-.09-.1-.06a9.78,9.78,0,0,1-2.86.84c-.09,0-.1,0,0-.05.4-.29,1.69-.94,2.26-1.3,0,0,0-.06,0-.07h0a11.88,11.88,0,0,1-3.28.32c-.12,0-.1,0,0,0,.58-.22,2.13-.62,2.89-.87,0,0,0-.05,0-.07A17.72,17.72,0,0,1,39,62.47c-.11,0-.11,0,0,0,.48-.08,1.7-.16,2.7-.28l.68-.09s.08-.08,0-.11a21.28,21.28,0,0,1-3.85-1c-.06,0-.1,0,0,0,.84,0,2.76.26,3.81.32.05,0,.08,0,0-.08a26.8,26.8,0,0,1-3.9-1.51c-.07,0-.11-.05,0,0,.92.16,2.91.7,4,1,.07,0,.07,0,0-.06a41.62,41.62,0,0,1-3.84-2.1l-.07-.06.09,0a34.11,34.11,0,0,1,4,1.6s.06,0,0-.05c-1-.73-2.86-2-3.64-2.71-.09-.09-.07-.07,0,0a29.31,29.31,0,0,1,3.88,2.19c.06,0,.08,0,0,0a44.32,44.32,0,0,1-3.3-3.22c-.06-.07-.06-.07,0,0A34.33,34.33,0,0,1,43.33,59s.05,0,.05,0a34.92,34.92,0,0,1-2.81-3.71c-.06-.13-.07-.12,0,0a33.61,33.61,0,0,1,3.25,3.33s0,0,0,0a35.44,35.44,0,0,1-2.21-4c0-.12-.06-.12,0,0"/><path d="M87.06,26.64a16.76,16.76,0,0,0,.34,3.59,8.93,8.93,0,0,0,.92,2.48,6.69,6.69,0,0,0,1.34,1.67,7.08,7.08,0,0,0,1.69,1.12,7.87,7.87,0,0,0,1.77.6,11.82,11.82,0,0,0,1.65.25c.52,0,1,0,1.37,0a11.14,11.14,0,0,0,2-.15,8.12,8.12,0,0,0,4.11-2,6.5,6.5,0,0,0,1.47-1.81,8.81,8.81,0,0,0,.84-2.16,14.23,14.23,0,0,0,.38-2.38c.06-.81.09-1.63.09-2.44V18.55c0-.42,0-.78,0-1.06s0-.53,0-.73,0-.4,0-.57a2.53,2.53,0,0,1,.26-1.17,1.14,1.14,0,0,1,.82-.5l.43-.07.41,0a1.3,1.3,0,0,0,.4,0,.22.22,0,0,0,.13-.21.21.21,0,0,0-.15-.21,1.42,1.42,0,0,0-.47-.05h-.94l-1,0-.85,0-.51,0-.33,0-.8,0-1.08,0H100.2a1.14,1.14,0,0,0-.46.05.21.21,0,0,0-.15.21.21.21,0,0,0,.12.21,1.18,1.18,0,0,0,.37,0h.37l.38,0a1.86,1.86,0,0,1,.3,0,1.76,1.76,0,0,1,.74.3,1.07,1.07,0,0,1,.38.54,3,3,0,0,1,.14.83c0,.17,0,.37,0,.57s0,.45,0,.73v1.06c0,.42,0,.94,0,1.57V26c0,.76,0,1.48,0,2.18a14.87,14.87,0,0,1-.21,2,7,7,0,0,1-.5,1.71,4.9,4.9,0,0,1-1,1.39,5.24,5.24,0,0,1-1.28.93,6.24,6.24,0,0,1-1.39.49,5.9,5.9,0,0,1-1.36.15,7.17,7.17,0,0,1-1.09-.07,4.88,4.88,0,0,1-1.25-.34,5.38,5.38,0,0,1-1.31-.78,4.93,4.93,0,0,1-.95-1,5.11,5.11,0,0,1-.72-1.42,9.48,9.48,0,0,1-.45-2,22,22,0,0,1-.15-2.75V18.55c0-.42,0-.78,0-1.06s0-.53,0-.73,0-.4,0-.57A2.67,2.67,0,0,1,91.12,15a1.14,1.14,0,0,1,.82-.5l.43-.07.41,0a1,1,0,0,0,.35,0,.21.21,0,0,0,.12-.21.21.21,0,0,0-.16-.21,1.45,1.45,0,0,0-.48-.05H91.7l-1,0-1,0L89,14l-1.15,0-1.51,0-1.61,0a1.25,1.25,0,0,0-.48.05.23.23,0,0,0,0,.42,1.18,1.18,0,0,0,.37,0l.64,0a3.74,3.74,0,0,1,.5.07,1.88,1.88,0,0,1,.74.3,1.13,1.13,0,0,1,.38.54,3,3,0,0,1,.13.83c0,.17,0,.37,0,.57s0,.45,0,.73,0,.64,0,1.05v8.1Zm4,28.4a.37.37,0,0,1,0-.21.23.23,0,0,1,.16,0h2.63l1,0c.3,0,.53,0,.68,0a2.13,2.13,0,0,1,.76.23,2,2,0,0,1,.49.39,1.44,1.44,0,0,1,.24.43,3.94,3.94,0,0,1,.14.51,3.58,3.58,0,0,1,0,.4.64.64,0,0,0,0,.28.22.22,0,0,0,.18.13.26.26,0,0,0,.26-.18,1.17,1.17,0,0,0,0-.38c0-.06,0-.17,0-.34s0-.36,0-.58,0-.45,0-.66,0-.4,0-.55c0-.46.1-.85.15-1.18s.08-.54.09-.63-.06-.27-.18-.27a.28.28,0,0,0-.2.08l-.18.22a1.26,1.26,0,0,1-.53.39,2.22,2.22,0,0,1-.73.13,6.13,6.13,0,0,1-.62,0H95l-3.74,0c-.09,0-.14,0-.17-.07a.33.33,0,0,1,0-.19V45.78a.6.6,0,0,1,.06-.32.2.2,0,0,1,.2-.08l4.5.08a3.64,3.64,0,0,1,1,.15,2.06,2.06,0,0,1,.63.33,1.16,1.16,0,0,1,.35.4,2.43,2.43,0,0,1,.15.62,3,3,0,0,1,0,.49,1.21,1.21,0,0,0,.08.36.24.24,0,0,0,.21.11.27.27,0,0,0,.22-.12.82.82,0,0,0,.08-.29c0-.1,0-.26,0-.48s0-.47,0-.73,0-.5,0-.72,0-.36,0-.44a8.52,8.52,0,0,1,.15-.86,2.24,2.24,0,0,0,.08-.45.29.29,0,0,0,0-.19.19.19,0,0,0-.15-.08.63.63,0,0,0-.22.07l-.25.11a2.27,2.27,0,0,1-.5.08l-.69,0H89.33l-.79,0-1.05,0-1.18,0H85.13a1.22,1.22,0,0,0-.51.06.23.23,0,0,0-.17.23.19.19,0,0,0,.15.18.82.82,0,0,0,.35.06h.64a3.74,3.74,0,0,1,.5.07,2,2,0,0,1,.74.3,1.16,1.16,0,0,1,.38.54,3.48,3.48,0,0,1,.14.83q0,.27,0,.57c0,.21,0,.45,0,.73s0,.64,0,1.06v9c0,1.41,0,2.65,0,3.7s-.06,1.91-.13,2.53a7.13,7.13,0,0,1-.14.77,1.41,1.41,0,0,1-.26.55.67.67,0,0,1-.45.28l-.46.09c-.17,0-.37,0-.59,0a.71.71,0,0,0-.34.06.19.19,0,0,0-.1.17.26.26,0,0,0,.16.24,1.3,1.3,0,0,0,.46.06l.94,0,1,0,1,0h.75l1.08,0,1.55,0c.58,0,1.19,0,1.81,0a1.35,1.35,0,0,0,.48-.07.23.23,0,0,0,.16-.23.18.18,0,0,0-.11-.17.87.87,0,0,0-.39-.06l-.47,0-.52,0-.47-.06A1.18,1.18,0,0,1,91.7,65a1.27,1.27,0,0,1-.33-.55,5.31,5.31,0,0,1-.14-.77c-.07-.62-.11-1.46-.12-2.53s0-2.29,0-3.7V55.05ZM103,58.67c0,.76,0,1.48,0,2.14s0,1.28,0,1.81,0,1-.08,1.33a3,3,0,0,1-.21.89.78.78,0,0,1-.55.43l-.4.07-.5,0a.53.53,0,0,0-.33.08.21.21,0,0,0-.08.18.2.2,0,0,0,.12.19.76.76,0,0,0,.37.07c.27,0,.55,0,.86,0l.92,0H104l.61,0,1.3,0,1.68,0,2.11.07,2.62,0a5.37,5.37,0,0,0,.74,0,.68.68,0,0,0,.41-.17.94.94,0,0,0,.22-.45,4.65,4.65,0,0,0,.12-.56c0-.25.08-.51.11-.79s.06-.56.09-.8,0-.45,0-.6a1.23,1.23,0,0,0,0-.39c0-.12-.09-.18-.19-.19a.22.22,0,0,0-.19.09,1,1,0,0,0-.1.29,3.7,3.7,0,0,1-.38,1.19,1.59,1.59,0,0,1-.73.65,4,4,0,0,1-.78.21,6.42,6.42,0,0,1-.87.09l-.78,0a10,10,0,0,1-2-.16,1.69,1.69,0,0,1-1.08-.62,2.36,2.36,0,0,1-.35-1.3c0-.18,0-.44,0-.76v-1c0-.37,0-.72,0-1.06V56.77a.5.5,0,0,1,0-.19.12.12,0,0,1,.12-.08h.62l.94,0,1,0,.9,0,.53,0a2.36,2.36,0,0,1,.77.18,1.18,1.18,0,0,1,.44.33,1.15,1.15,0,0,1,.22.46,4,4,0,0,1,.06.47c0,.15,0,.3,0,.43a.2.2,0,0,0,0,.15.25.25,0,0,0,.19.06.23.23,0,0,0,.17-.1.69.69,0,0,0,.07-.23,2,2,0,0,0,0-.23s0-.13,0-.26a3.91,3.91,0,0,1,0-.45l0-.51c0-.17,0-.32,0-.44,0-.42.08-.75.11-1s.06-.43.07-.56a1.46,1.46,0,0,0,0-.25.29.29,0,0,0-.06-.19.19.19,0,0,0-.14-.08.26.26,0,0,0-.17.09c-.06.07-.15.14-.24.23a1,1,0,0,1-.48.27,4,4,0,0,1-.75.11l-.64,0-1,0h-2.83a.14.14,0,0,1-.14-.08.45.45,0,0,1,0-.18V48.76a.29.29,0,0,1,0-.17.15.15,0,0,1,.13-.06h.58l.94,0,1.06,0,.92,0a4.52,4.52,0,0,1,.53,0,3.58,3.58,0,0,1,1,.19,1.11,1.11,0,0,1,.48.31,1.67,1.67,0,0,1,.25.4,1.6,1.6,0,0,1,.11.33c0,.12,0,.23,0,.33a2.45,2.45,0,0,1,0,.25.55.55,0,0,0,0,.24.18.18,0,0,0,.17.08.19.19,0,0,0,.16-.08.56.56,0,0,0,.09-.17c0-.06,0-.12,0-.16s0-.19,0-.34,0-.31,0-.48,0-.34,0-.49,0-.25,0-.32c0-.38,0-.68.07-.89l.09-.48a.9.9,0,0,0,0-.24.38.38,0,0,0,0-.16.15.15,0,0,0-.15-.07A.54.54,0,0,0,113,47l-.21.06-.45.08-.64.07h-7l-1,0-1.32,0H101a1.23,1.23,0,0,0-.43,0q-.15.06-.15.18a.22.22,0,0,0,.12.2.72.72,0,0,0,.32.07,5.62,5.62,0,0,1,.58,0,2.22,2.22,0,0,1,.44.06,2.28,2.28,0,0,1,.64.27.91.91,0,0,1,.34.41A1.89,1.89,0,0,1,103,49c0,.15,0,.31,0,.48s0,.38,0,.62,0,.54,0,.9v7.64Zm18.3-4.77V52c0-.64,0-1.21,0-1.72s0-.91,0-1.19a.58.58,0,0,1,.07-.33.48.48,0,0,1,.25-.17,1.32,1.32,0,0,1,.38-.1l.6-.06.6,0a16.16,16.16,0,0,1,1.64.08,11.43,11.43,0,0,1,1.82.32,10,10,0,0,1,1.89.71,9.08,9.08,0,0,1,1.83,1.26,5.69,5.69,0,0,1,.86.94,7.37,7.37,0,0,1,.77,1.34,8.36,8.36,0,0,1,.55,1.75,11,11,0,0,1,.22,2.16,14.52,14.52,0,0,1-.2,2.44,7.33,7.33,0,0,1-.68,2.09,5.19,5.19,0,0,1-1.31,1.64,6.93,6.93,0,0,1-1.62,1,7.83,7.83,0,0,1-1.84.53,13.11,13.11,0,0,1-2.15.15,8.18,8.18,0,0,1-1.7-.15,4.26,4.26,0,0,1-1.1-.37,1.72,1.72,0,0,1-.56-.47,1.11,1.11,0,0,1-.16-.43,5.86,5.86,0,0,1-.09-.66c0-.23,0-.45,0-.66s0-.49,0-.94,0-1,0-1.73,0-1.48,0-2.36Zm-3.45,4.77c0,.76,0,1.48,0,2.14s0,1.28,0,1.81,0,1-.09,1.33a2.71,2.71,0,0,1-.21.89.78.78,0,0,1-.55.43,3.27,3.27,0,0,1-.4.07l-.5,0a.53.53,0,0,0-.33.08.21.21,0,0,0-.08.18.2.2,0,0,0,.12.19.76.76,0,0,0,.37.07c.27,0,.55,0,.86,0l.93,0h.85l.61,0c.32,0,.71,0,1.16,0l1.44.11,1.56.09c.53,0,1,0,1.5.06a16.77,16.77,0,0,0,3.18-.3,13,13,0,0,0,2.47-.73,9.39,9.39,0,0,0,1.8-1,7.93,7.93,0,0,0,1.17-.94,8.82,8.82,0,0,0,1.38-1.74,9.26,9.26,0,0,0,1-2.32,10,10,0,0,0,.41-2.87,10.34,10.34,0,0,0-.34-2.66,9.14,9.14,0,0,0-.88-2.1,8.09,8.09,0,0,0-1.21-1.55,8.26,8.26,0,0,0-2.34-1.64,11.5,11.5,0,0,0-2.67-.84,20.13,20.13,0,0,0-2.75-.31c-.91,0-1.77,0-2.58,0h-1.19l-1.18,0-1,0h-.77l-1,0-1.32,0h-1.4a1.23,1.23,0,0,0-.43,0c-.1,0-.15.09-.15.18a.22.22,0,0,0,.12.2.73.73,0,0,0,.32.06l.58,0a3.13,3.13,0,0,1,.44.07,2.28,2.28,0,0,1,.64.27.88.88,0,0,1,.34.4,2.28,2.28,0,0,1,.13.68c0,.15,0,.31,0,.48s0,.38,0,.62v8.54Zm21.66,0v2.14c0,.68,0,1.28,0,1.81s-.05,1-.09,1.33a2.71,2.71,0,0,1-.21.89.78.78,0,0,1-.55.43,3,3,0,0,1-.4.07l-.5,0a.53.53,0,0,0-.33.08.21.21,0,0,0-.08.18.19.19,0,0,0,.13.19.74.74,0,0,0,.37.07c.26,0,.55,0,.85,0l.93,0h.85l.61,0,1.3,0,1.68,0,2.11.07,2.62,0a5.46,5.46,0,0,0,.75,0,.7.7,0,0,0,.41-.17.94.94,0,0,0,.21-.45,4.65,4.65,0,0,0,.12-.56c0-.25.08-.51.11-.79s.07-.56.09-.8,0-.45,0-.6a1.63,1.63,0,0,0,0-.39.22.22,0,0,0-.2-.19.23.23,0,0,0-.19.09,1,1,0,0,0-.1.29,3.47,3.47,0,0,1-.38,1.19,1.54,1.54,0,0,1-.73.65,4,4,0,0,1-.78.21,6.42,6.42,0,0,1-.87.09l-.78,0a10,10,0,0,1-2-.16,1.74,1.74,0,0,1-1.08-.62,2.29,2.29,0,0,1-.34-1.3c0-.18,0-.44,0-.76s0-.66,0-1V59.58c0-.33,0-.61,0-.83v-2a.5.5,0,0,1,0-.19.12.12,0,0,1,.11-.08h.63l.94,0,1,0,.9,0,.54,0a2.42,2.42,0,0,1,.77.18,1.27,1.27,0,0,1,.44.33,1.5,1.5,0,0,1,.22.46,2.59,2.59,0,0,1,0,.47c0,.15,0,.3,0,.43a.2.2,0,0,0,.06.15.23.23,0,0,0,.35,0,.69.69,0,0,0,.08-.23,1.85,1.85,0,0,0,0-.23s0-.13,0-.26,0-.28,0-.45,0-.34,0-.51,0-.32,0-.44l.12-1c0-.25.05-.43.06-.56a1.46,1.46,0,0,0,0-.25.36.36,0,0,0-.05-.19.19.19,0,0,0-.15-.08.31.31,0,0,0-.17.09,2.76,2.76,0,0,1-.24.23.92.92,0,0,1-.47.27,4.29,4.29,0,0,1-.76.11l-.63,0-1,0h-2.84a.15.15,0,0,1-.14-.08.45.45,0,0,1,0-.18V48.76a.29.29,0,0,1,0-.17.16.16,0,0,1,.13-.06h.58l.94,0,1.06,0,.92,0a4.92,4.92,0,0,1,.54,0,3.58,3.58,0,0,1,1,.19,1.15,1.15,0,0,1,.49.31,1.63,1.63,0,0,1,.24.4,1.17,1.17,0,0,1,.11.33,2.21,2.21,0,0,1,0,.33c0,.1,0,.19,0,.25a.55.55,0,0,0,0,.24.16.16,0,0,0,.16.08.19.19,0,0,0,.16-.08.56.56,0,0,0,.09-.17c0-.06,0-.12,0-.16a3.28,3.28,0,0,0,0-.34c0-.15,0-.31,0-.48s0-.34,0-.49,0-.25,0-.32c0-.38.05-.68.08-.89s.06-.37.08-.48a.9.9,0,0,0,0-.24.38.38,0,0,0,0-.16s-.07-.07-.14-.07a.58.58,0,0,0-.2.05l-.21.06-.44.08-.64.07h-7l-1,0-1.33,0h-1.39a1.29,1.29,0,0,0-.44,0q-.15.06-.15.18a.24.24,0,0,0,.12.2.72.72,0,0,0,.32.07,5.52,5.52,0,0,1,.58,0,2,2,0,0,1,.44.06A2,2,0,0,1,139,48a.85.85,0,0,1,.34.41,1.69,1.69,0,0,1,.13.67c0,.15,0,.31,0,.48s0,.38,0,.62v8.54Zm17.89-9.85a.46.46,0,0,1,.05-.23.39.39,0,0,1,.19-.12,4.72,4.72,0,0,1,.61-.07l.9,0a4,4,0,0,1,1,.13,4,4,0,0,1,1.05.41,3.56,3.56,0,0,1,.94.81,3.87,3.87,0,0,1,.68,1.26,6,6,0,0,1,.26,1.81,5.43,5.43,0,0,1-.26,1.73,3.86,3.86,0,0,1-.62,1.2,3.92,3.92,0,0,1-.79.75,1.67,1.67,0,0,1-.43.24,2,2,0,0,1-.55.13,6.28,6.28,0,0,1-.83,0c-.32,0-.66,0-1,0a5.15,5.15,0,0,1-.95-.19.4.4,0,0,1-.18-.16.6.6,0,0,1-.05-.28Zm-3.27,9.85c0,.76,0,1.48,0,2.15s0,1.27,0,1.8-.05,1-.09,1.33a2.71,2.71,0,0,1-.21.89.78.78,0,0,1-.55.43,3.27,3.27,0,0,1-.4.07l-.5,0a.53.53,0,0,0-.33.08.21.21,0,0,0-.08.18.19.19,0,0,0,.13.19.7.7,0,0,0,.36.07h.86l.92,0,.82,0,.56,0,.57,0,1,0,1.22,0h1.19a.88.88,0,0,0,.39-.07.2.2,0,0,0,.14-.19.29.29,0,0,0-.08-.18.36.36,0,0,0-.24-.08h-.39l-.45,0-.42,0A1.24,1.24,0,0,1,158,65a.91.91,0,0,1-.28-.45,2.7,2.7,0,0,1-.12-.64q-.06-.53-.09-1.32c0-.53,0-1.13,0-1.8s0-1.39,0-2.16v-.35a.18.18,0,0,1,.06-.16.25.25,0,0,1,.15,0l2.3.06a.69.69,0,0,1,.25,0,.45.45,0,0,1,.22.14,5,5,0,0,1,.37.5c.17.23.36.51.58.83l.71,1c.25.36.51.7.77,1,.47.65.9,1.21,1.3,1.68a9.62,9.62,0,0,0,1.12,1.21,5.16,5.16,0,0,0,1.08.77,4,4,0,0,0,.71.28,5,5,0,0,0,.88.16,10.8,10.8,0,0,0,1.22,0h2.45a.94.94,0,0,0,.37,0,.22.22,0,0,0,.13-.21.26.26,0,0,0-.09-.18.34.34,0,0,0-.23-.08h-.29a2.67,2.67,0,0,1-.33,0,4.1,4.1,0,0,1-.57-.15,3.63,3.63,0,0,1-.92-.45,7.17,7.17,0,0,1-1.25-1c-.77-.78-1.62-1.72-2.55-2.83s-2-2.36-3.09-3.77a15.44,15.44,0,0,0,2-1.91A7,7,0,0,0,166,53.36a4.47,4.47,0,0,0,.36-1.79,3.68,3.68,0,0,0-.18-1.17,4.64,4.64,0,0,0-.45-1,5.26,5.26,0,0,0-.59-.76,3.68,3.68,0,0,0-.59-.51,5.29,5.29,0,0,0-1.51-.68,9.22,9.22,0,0,0-1.68-.3,16.25,16.25,0,0,0-1.69-.07h-.83l-1.14,0-1.14,0h-1.47l-.87,0-1,0h-1.05a1.23,1.23,0,0,0-.43,0c-.1,0-.15.09-.15.18a.22.22,0,0,0,.12.2.73.73,0,0,0,.32.06l.58,0a3.13,3.13,0,0,1,.44.07,2.28,2.28,0,0,1,.64.27.88.88,0,0,1,.34.4,2,2,0,0,1,.13.68c0,.15,0,.31,0,.48s0,.38,0,.62,0,.54,0,.9v7.64Zm21.69-.41a.11.11,0,0,1-.1,0s0-.07,0-.13l2.48-6.28a.94.94,0,0,1,.06-.15s0-.08.09-.08.05,0,.07.08,0,.1.05.15l2.42,6.31s0,.08,0,.11,0,0-.11,0Zm5.52,1.37a.33.33,0,0,1,.15,0,.26.26,0,0,1,.11.15l2,5a.45.45,0,0,1,0,.38.34.34,0,0,1-.23.18.43.43,0,0,0-.25.08.24.24,0,0,0-.07.18c0,.08.07.14.21.16s.32,0,.55,0c.73,0,1.41,0,2,0l1.7,0h1.2l.71,0a.87.87,0,0,0,.33-.08.19.19,0,0,0,.07-.16c0-.17-.12-.26-.35-.26l-.45,0-.52-.07a1.56,1.56,0,0,1-.4-.15,1.93,1.93,0,0,1-.49-.39,3.92,3.92,0,0,1-.6-.78,13.51,13.51,0,0,1-.7-1.35c-.24-.55-.51-1.2-.84-2s-.68-1.59-1.06-2.48-.77-1.79-1.16-2.72-.79-1.84-1.16-2.72-.72-1.7-1-2.44-.59-1.37-.81-1.9l-.47-1.08a4.6,4.6,0,0,0-.23-.45.69.69,0,0,0-.22-.25.5.5,0,0,0-.31-.09.48.48,0,0,0-.37.24,3.23,3.23,0,0,0-.39.76l-6.72,15.63a6.8,6.8,0,0,1-.53,1.08,2.24,2.24,0,0,1-.65.74,2.08,2.08,0,0,1-.95.37h-.38l-.38,0a.32.32,0,0,0-.23.08.26.26,0,0,0-.06.18.22.22,0,0,0,.11.21.81.81,0,0,0,.35,0l1.31,0,1.08,0,.59,0,.92,0,1,0,.94,0a.62.62,0,0,0,.3,0,.26.26,0,0,0,0-.39.48.48,0,0,0-.31-.08h-.38a1.33,1.33,0,0,1-.81-.19.61.61,0,0,1-.22-.51,2.71,2.71,0,0,1,.1-.64,4.44,4.44,0,0,1,.28-.88l1.38-3.33a.22.22,0,0,1,.08-.14.21.21,0,0,1,.15,0Zm14.76-5.35V52.37c0-.53,0-1,0-1.34s0-.66,0-.9,0-.45,0-.62,0-.33,0-.48a1.89,1.89,0,0,1,.24-1,1,1,0,0,1,.72-.39l.5-.07.5,0a.79.79,0,0,0,.35-.06.23.23,0,0,0,.11-.2.18.18,0,0,0-.13-.18,1.13,1.13,0,0,0-.42,0h-.91l-1.09,0-1,0h-1.38l-.9,0-1,0h-1a1,1,0,0,0-.41,0c-.1,0-.14.09-.14.18s.14.26.44.26l.46,0a2.38,2.38,0,0,1,.38.07,2,2,0,0,1,.64.27.83.83,0,0,1,.34.4,1.79,1.79,0,0,1,.13.68c0,.15,0,.31,0,.48s0,.38,0,.62V60.81c0,.68,0,1.28,0,1.81s0,1-.08,1.33a2.69,2.69,0,0,1-.22.89.75.75,0,0,1-.54.43l-.4.07-.51,0a.49.49,0,0,0-.32.08.26.26,0,0,0-.09.18.21.21,0,0,0,.13.19.76.76,0,0,0,.37.07c.27,0,.55,0,.86,0l.92,0h.85l.61,0,1.62,0,1.8,0,2.1.07,2.52,0a6.11,6.11,0,0,0,1,0,.82.82,0,0,0,.45-.2,1,1,0,0,0,.2-.42,5.92,5.92,0,0,0,.15-.72c0-.28.09-.58.12-.88s.06-.56.08-.8,0-.39,0-.46a1.12,1.12,0,0,0-.05-.39.2.2,0,0,0-.18-.17.25.25,0,0,0-.22.1.88.88,0,0,0-.07.28,2.76,2.76,0,0,1-.12.52,3.76,3.76,0,0,1-.23.55,1.74,1.74,0,0,1-.3.42,1.83,1.83,0,0,1-.76.48,4,4,0,0,1-1,.19,12.21,12.21,0,0,1-1.24,0c-.66,0-1.22,0-1.68,0a6.54,6.54,0,0,1-1.11-.17,1.68,1.68,0,0,1-.63-.3,1.5,1.5,0,0,1-.39-.86,11.13,11.13,0,0,1-.15-1.71c0-.72,0-1.61,0-2.66V54.28Zm19.22,2.12V54.87c0-.5,0-.95,0-1.35s0-.72,0-1a.6.6,0,0,1,0-.26.44.44,0,0,1,.2-.13,1,1,0,0,1,.3-.08l.47,0a4.1,4.1,0,0,1,.48,0q.6,0,1.29.06a9.67,9.67,0,0,1,1.44.25,7.59,7.59,0,0,1,1.49.57,6.92,6.92,0,0,1,1.45,1,4.2,4.2,0,0,1,.68.75,6.45,6.45,0,0,1,.61,1.05,7.21,7.21,0,0,1,.44,1.38,9,9,0,0,1,.17,1.71,10.85,10.85,0,0,1-.16,1.93,6.15,6.15,0,0,1-.54,1.65,3.93,3.93,0,0,1-1,1.29,5,5,0,0,1-1.28.8,5.66,5.66,0,0,1-1.45.42,11.05,11.05,0,0,1-1.7.12,6.23,6.23,0,0,1-1.33-.12,3.12,3.12,0,0,1-.87-.3,1.16,1.16,0,0,1-.45-.36,1,1,0,0,1-.13-.35c0-.15-.05-.32-.07-.51s0-.36,0-.53,0-.38,0-.74,0-.82,0-1.36,0-1.17,0-1.87Zm-2.72,3.76v1.7c0,.53,0,1,0,1.43s0,.77-.06,1.05a2.31,2.31,0,0,1-.17.7.62.62,0,0,1-.43.34l-.32.05a2.42,2.42,0,0,1-.4,0,.43.43,0,0,0-.26.07.2.2,0,0,0-.06.14.15.15,0,0,0,.1.15.72.72,0,0,0,.29,0H212l.73,0h.67l.48,0,.92,0,1.14.09,1.24.07c.41,0,.81,0,1.18,0a12.7,12.7,0,0,0,2.51-.23,10.8,10.8,0,0,0,1.95-.57,8.83,8.83,0,0,0,1.42-.75,6.82,6.82,0,0,0,.93-.75,7.46,7.46,0,0,0,1.09-1.38,7.28,7.28,0,0,0,.8-1.83,8.25,8.25,0,0,0,0-4.37,6.3,6.3,0,0,0-3.5-4.17,8.69,8.69,0,0,0-2.1-.66,15,15,0,0,0-2.18-.25c-.71,0-1.39,0-2,0h-.94l-.94,0h-2.2l-1.05,0L211,51a1.46,1.46,0,0,0-.35,0,.15.15,0,0,0-.11.15.16.16,0,0,0,.09.15.46.46,0,0,0,.25.06h.46a1.48,1.48,0,0,1,.35.06,1.57,1.57,0,0,1,.5.2.72.72,0,0,1,.27.33,1.69,1.69,0,0,1,.11.53c0,.12,0,.25,0,.38s0,.3,0,.49v6.74Zm25,4.9A6.11,6.11,0,0,1,235,64.5,5.64,5.64,0,0,1,233.12,63a7,7,0,0,1-1.22-2.3,10,10,0,0,1-.12-5.31,5.39,5.39,0,0,1,.78-1.74,4.16,4.16,0,0,1,1.13-1.09A4.32,4.32,0,0,1,235,52a5.42,5.42,0,0,1,1.38-.16,5.54,5.54,0,0,1,2.3.48,5.64,5.64,0,0,1,1.87,1.4,6.62,6.62,0,0,1,1.26,2.21,8.82,8.82,0,0,1,.45,2.92,10.61,10.61,0,0,1-.24,2.41,6.22,6.22,0,0,1-.65,1.7,4.51,4.51,0,0,1-.9,1.12,4.07,4.07,0,0,1-2,1,5.6,5.6,0,0,1-.84.08Zm-.83,1.06a10.21,10.21,0,0,0,2.9-.41,8.17,8.17,0,0,0,2.36-1.12,7.41,7.41,0,0,0,2.87-3.94,8.31,8.31,0,0,0,.39-2.56,8,8,0,0,0-.58-3.05,6.48,6.48,0,0,0-1.65-2.31,7.53,7.53,0,0,0-2.62-1.47,10.94,10.94,0,0,0-3.46-.51,10.25,10.25,0,0,0-2.77.34,8.12,8.12,0,0,0-2.18.91,6.89,6.89,0,0,0-1.62,1.34,7.8,7.8,0,0,0-2,5.09,7.79,7.79,0,0,0,.21,1.78,8,8,0,0,0,.64,1.77A7.17,7.17,0,0,0,232,64.9a7.75,7.75,0,0,0,2.11.89,10.49,10.49,0,0,0,2.67.33m28.63.17c.48,0,1,0,1.45,0s1-.07,1.45-.12.91-.13,1.31-.21a5.55,5.55,0,0,0,1.05-.3,1.56,1.56,0,0,0,.39-.2.75.75,0,0,0,.22-.25,1.78,1.78,0,0,0,.15-.4q.09-.3.18-.75c.06-.29.12-.61.17-.94s.11-.65.15-1,.08-.57.11-.79,0-.37,0-.44a.71.71,0,0,0-.06-.31.22.22,0,0,0-.21-.13.23.23,0,0,0-.24.12,1.39,1.39,0,0,0-.14.46,3.08,3.08,0,0,1-.2.61,4.4,4.4,0,0,1-.34.69,4.2,4.2,0,0,1-.45.63,4.12,4.12,0,0,1-1.32,1,6,6,0,0,1-1.74.49,17.28,17.28,0,0,1-2.29.13,7.84,7.84,0,0,1-2-.29,9.44,9.44,0,0,1-2.08-.86A10.16,10.16,0,0,1,259,62a9.33,9.33,0,0,1-1.62-2,10.19,10.19,0,0,1-1.11-2.6,12.13,12.13,0,0,1-.41-3.18,17.13,17.13,0,0,1,.22-2.79,10,10,0,0,1,.82-2.58,7.52,7.52,0,0,1,1.65-2.2,6.28,6.28,0,0,1,1.43-1,7.11,7.11,0,0,1,1.79-.61,11.17,11.17,0,0,1,2.27-.21,13.31,13.31,0,0,1,2.52.24,8.74,8.74,0,0,1,2,.65,4.48,4.48,0,0,1,1.37.92,4.06,4.06,0,0,1,.83,1.29,4,4,0,0,1,.31,1.4,1.45,1.45,0,0,0,.06.47.23.23,0,0,0,.23.17.28.28,0,0,0,.27-.17,1.85,1.85,0,0,0,.08-.5,4.75,4.75,0,0,0,0-.6c0-.26,0-.54,0-.84s0-.6,0-.9,0-.57,0-.82.05-.61.06-.81.05-.38.06-.5a1.89,1.89,0,0,0,0-.29.29.29,0,0,0-.1-.23.51.51,0,0,0-.34-.12c-.43,0-.89-.13-1.37-.23s-1-.19-1.55-.27l-1.29-.16-1.34-.1c-.47,0-1,0-1.61,0a18.66,18.66,0,0,0-3.86.37,12.11,12.11,0,0,0-3,1.06,11.48,11.48,0,0,0-2.36,1.66,10.17,10.17,0,0,0-1.72,2.06,10.73,10.73,0,0,0-1,2.17,11.64,11.64,0,0,0-.52,2,12.89,12.89,0,0,0-.14,1.73,15.11,15.11,0,0,0,.17,2.19,11.51,11.51,0,0,0,.57,2.24,10.19,10.19,0,0,0,1.11,2.18,10.6,10.6,0,0,0,1.77,2A12,12,0,0,0,258.3,65a13.81,13.81,0,0,0,3.34,1,20.81,20.81,0,0,0,3.78.31m23.77-37.52c0,.76,0,1.48,0,2.15s0,1.27,0,1.8-.05,1-.09,1.33a2.71,2.71,0,0,1-.21.89.78.78,0,0,1-.55.43,3,3,0,0,1-.4.07l-.5,0a.53.53,0,0,0-.33.08.24.24,0,0,0-.08.18.19.19,0,0,0,.13.19.74.74,0,0,0,.37.07c.26,0,.55,0,.85,0l.93,0h.85l.61,0,1.3,0,1.68,0,2.11.07,2.62,0c.31,0,.56,0,.74,0a.68.68,0,0,0,.41-.17,1,1,0,0,0,.22-.45,3.44,3.44,0,0,0,.11-.56c0-.25.08-.51.12-.79s.06-.56.08-.8a5.23,5.23,0,0,0,0-.6,1.67,1.67,0,0,0,0-.39.22.22,0,0,0-.2-.19.2.2,0,0,0-.18.09.92.92,0,0,0-.11.29,3.47,3.47,0,0,1-.38,1.19,1.54,1.54,0,0,1-.73.65,3.28,3.28,0,0,1-.78.21,8.08,8.08,0,0,1-.86.09l-.78,0a10,10,0,0,1-2.05-.16,1.74,1.74,0,0,1-1.08-.62,2.25,2.25,0,0,1-.34-1.29c0-.19,0-.45,0-.77s0-.66,0-1V29.68c0-.33,0-.6,0-.82v-2a.48.48,0,0,1,0-.18.11.11,0,0,1,.11-.08h.63l.94,0,1,0,.9,0a4.24,4.24,0,0,1,.53,0,2.13,2.13,0,0,1,.77.18,1.09,1.09,0,0,1,.44.33,1.05,1.05,0,0,1,.22.45,4,4,0,0,1,.06.47c0,.16,0,.3,0,.44a.19.19,0,0,0,.05.14.24.24,0,0,0,.18.06c.08,0,.14,0,.17-.1a.48.48,0,0,0,.08-.22,1.94,1.94,0,0,0,0-.24s0-.13,0-.26a3.91,3.91,0,0,1,0-.45l0-.51c0-.16,0-.31,0-.44l.12-1c0-.26.05-.44.07-.57s0-.21,0-.25a.26.26,0,0,0-.06-.18.19.19,0,0,0-.15-.08.26.26,0,0,0-.17.09c0,.06-.14.14-.23.23a1,1,0,0,1-.48.27,5.09,5.09,0,0,1-.75.11l-.64,0h-3.86a.15.15,0,0,1-.14-.08.48.48,0,0,1,0-.18V18.87a.29.29,0,0,1,0-.17.15.15,0,0,1,.13-.06h.58l.94,0,1.06,0,.92,0a3.91,3.91,0,0,1,.53,0,3.66,3.66,0,0,1,1,.19,1.11,1.11,0,0,1,.48.31,2.06,2.06,0,0,1,.25.4,2.55,2.55,0,0,1,.11.33c0,.12,0,.23.05.33s0,.19,0,.25a.55.55,0,0,0,0,.24.16.16,0,0,0,.16.08.21.21,0,0,0,.16-.08.56.56,0,0,0,.09-.17l0-.16c0-.08,0-.19,0-.34s0-.32,0-.49,0-.33,0-.48a2.67,2.67,0,0,0,0-.32c0-.38,0-.68.08-.89a4.22,4.22,0,0,1,.09-.48,1.67,1.67,0,0,0,0-.24.27.27,0,0,0,0-.16s-.07-.07-.14-.07a.49.49,0,0,0-.19,0l-.22.06-.44.08-.64.07h-7l-1,0-1.33,0c-.47,0-.94,0-1.39,0a1.61,1.61,0,0,0-.44.05q-.15.06-.15.18a.23.23,0,0,0,.13.2.65.65,0,0,0,.31.07,5.52,5.52,0,0,1,.58,0,2,2,0,0,1,.44.06,2,2,0,0,1,.64.27.85.85,0,0,1,.34.41,1.89,1.89,0,0,1,.13.67c0,.15,0,.31,0,.48s0,.38,0,.62v8.53Zm-12.83,29.9v2.14c0,.68,0,1.28,0,1.81s-.05,1-.08,1.33a2.69,2.69,0,0,1-.22.89.79.79,0,0,1-.54.43l-.4.07-.51,0a.53.53,0,0,0-.33.08.29.29,0,0,0-.08.18.21.21,0,0,0,.13.19.76.76,0,0,0,.37.07c.27,0,.55,0,.85,0l.93,0h.85l.61,0,1.31,0,1.67,0,2.11.07,2.62,0a5.46,5.46,0,0,0,.75,0,.7.7,0,0,0,.41-.17,1,1,0,0,0,.22-.45,5,5,0,0,0,.11-.56c0-.25.08-.51.12-.79s.06-.56.08-.8a5.23,5.23,0,0,0,0-.6,1.61,1.61,0,0,0,0-.39.22.22,0,0,0-.2-.19.23.23,0,0,0-.19.09,1,1,0,0,0-.1.29,3.47,3.47,0,0,1-.38,1.19,1.54,1.54,0,0,1-.73.65,4,4,0,0,1-.78.21,6.44,6.44,0,0,1-.86.09l-.78,0a10.07,10.07,0,0,1-2.06-.16,1.74,1.74,0,0,1-1.08-.62,2.34,2.34,0,0,1-.34-1.3c0-.18,0-.44,0-.76v-1c0-.37,0-.72,0-1.06V56.77a.5.5,0,0,1,0-.19.11.11,0,0,1,.12-.07h.62l.94,0,1,0,.9,0,.54,0a2.42,2.42,0,0,1,.77.18,1.18,1.18,0,0,1,.44.33,1.3,1.3,0,0,1,.22.46,2.59,2.59,0,0,1,.05.47c0,.15,0,.3,0,.43a.2.2,0,0,0,.05.15.23.23,0,0,0,.18.06.2.2,0,0,0,.17-.1.53.53,0,0,0,.08-.22,2.09,2.09,0,0,0,0-.24s0-.13,0-.26,0-.28,0-.45,0-.34,0-.51,0-.32,0-.44l.12-1c0-.25.05-.43.07-.56s0-.21,0-.25a.29.29,0,0,0-.06-.19.19.19,0,0,0-.15-.08.28.28,0,0,0-.17.1l-.24.22a.88.88,0,0,1-.47.27,4.16,4.16,0,0,1-.75.11l-.64,0-1,0H280a.14.14,0,0,1-.14-.07.38.38,0,0,1,0-.19V48.77a.25.25,0,0,1,.05-.17.13.13,0,0,1,.13-.07h.58l.94,0,1.05,0,.92,0,.54,0a3.58,3.58,0,0,1,1,.19,1.09,1.09,0,0,1,.49.31,1.52,1.52,0,0,1,.24.41,1.1,1.1,0,0,1,.11.32,2.21,2.21,0,0,1,.05.33c0,.11,0,.19,0,.25a.55.55,0,0,0,0,.24.16.16,0,0,0,.16.08.19.19,0,0,0,.16-.08.56.56,0,0,0,.09-.17c0-.06,0-.12,0-.16a3.28,3.28,0,0,0,.05-.34c0-.15,0-.31,0-.48s0-.34,0-.49,0-.25,0-.32c0-.38.05-.67.08-.89a3.59,3.59,0,0,1,.09-.47,1.61,1.61,0,0,0,0-.25.38.38,0,0,0,0-.16s-.07-.07-.14-.07a.58.58,0,0,0-.2.05,1.29,1.29,0,0,1-.21.06l-.44.08-.64.07h-7l-1,0-1.33,0-1.39,0a1.61,1.61,0,0,0-.44,0q-.15.06-.15.18a.23.23,0,0,0,.12.2.72.72,0,0,0,.32.07,5.52,5.52,0,0,1,.58,0,1.92,1.92,0,0,1,.44.07,2.06,2.06,0,0,1,.64.26.85.85,0,0,1,.34.41,1.69,1.69,0,0,1,.13.67c0,.15,0,.32,0,.49s0,.38,0,.61v8.54Zm18.71-.41a.11.11,0,0,1-.1,0s0-.07,0-.13l2.48-6.28a.94.94,0,0,1,.06-.15s.05-.08.09-.08.05,0,.07.08,0,.1.05.15l2.42,6.31a.11.11,0,0,1,0,.11.16.16,0,0,1-.11,0Zm5.52,1.37a.41.41,0,0,1,.16,0,.3.3,0,0,1,.1.15l2,5a.45.45,0,0,1,0,.38.32.32,0,0,1-.22.18.44.44,0,0,0-.26.08.2.2,0,0,0-.06.18c0,.08.07.14.2.16l.55,0c.73,0,1.41,0,2,0l1.7,0H308l.72,0a.8.8,0,0,0,.32-.08.16.16,0,0,0,.07-.16c0-.17-.11-.26-.35-.26l-.45,0-.51-.07a1.33,1.33,0,0,1-.4-.15,2,2,0,0,1-.5-.39,4.85,4.85,0,0,1-.6-.78,11.82,11.82,0,0,1-.69-1.35l-.85-2c-.33-.76-.68-1.59-1.06-2.48s-.77-1.79-1.16-2.72-.79-1.84-1.16-2.72-.72-1.7-1-2.44-.59-1.37-.81-1.9L299,47.3a4.6,4.6,0,0,0-.23-.45.61.61,0,0,0-.22-.25.49.49,0,0,0-.31-.08.46.46,0,0,0-.37.23,3.67,3.67,0,0,0-.39.76L290.8,63.14a7.82,7.82,0,0,1-.52,1.08,2.36,2.36,0,0,1-.65.74,2.13,2.13,0,0,1-1,.37h-.38l-.38,0a.29.29,0,0,0-.22.08.26.26,0,0,0,0,.39.86.86,0,0,0,.36,0l1.31,0,1.08,0,.59,0,.92,0,1,0,.93,0a.62.62,0,0,0,.3,0,.26.26,0,0,0,0-.39.44.44,0,0,0-.31-.08h-.38a1.33,1.33,0,0,1-.81-.19.58.58,0,0,1-.21-.51,3.2,3.2,0,0,1,.09-.64,5.3,5.3,0,0,1,.29-.88l1.37-3.33a.21.21,0,0,1,.23-.18ZM313.8,48.82a.37.37,0,0,1,.05-.23.36.36,0,0,1,.18-.12,5.17,5.17,0,0,1,.62-.07l.9,0a4,4,0,0,1,1,.13,4.15,4.15,0,0,1,1,.41,3.72,3.72,0,0,1,.94.81A3.68,3.68,0,0,1,319.2,51a5.9,5.9,0,0,1,.27,1.81,5.73,5.73,0,0,1-.26,1.73,3.81,3.81,0,0,1-1.41,1.95,1.73,1.73,0,0,1-.44.24,1.94,1.94,0,0,1-.54.13,6.63,6.63,0,0,1-.83,0c-.33,0-.67,0-1,0a5,5,0,0,1-1-.19.39.39,0,0,1-.18-.15.56.56,0,0,1-.05-.29Zm-3.27,9.85c0,.76,0,1.48,0,2.15s0,1.27,0,1.8,0,1-.08,1.33a2.69,2.69,0,0,1-.22.89.75.75,0,0,1-.54.43l-.4.07-.51,0a.51.51,0,0,0-.32.08.21.21,0,0,0-.08.18.2.2,0,0,0,.12.19.76.76,0,0,0,.37.07h.86l.92,0,.82,0h1.13l1,0,1.22,0H316a.81.81,0,0,0,.38-.07.19.19,0,0,0,.14-.19.24.24,0,0,0-.08-.18.35.35,0,0,0-.24-.08h-.38l-.45,0-.42,0a1.2,1.2,0,0,1-.59-.23.91.91,0,0,1-.28-.45,3.27,3.27,0,0,1-.13-.64c0-.35-.06-.79-.08-1.32s0-1.13-.05-1.8,0-1.39,0-2.16v-.35a.18.18,0,0,1,.06-.16.22.22,0,0,1,.14,0l2.31.06a.88.88,0,0,1,.24,0,.6.6,0,0,1,.23.15c.08.09.2.26.37.5l.58.83c.22.32.45.66.71,1s.5.7.76,1c.47.65.91,1.21,1.3,1.68a11.39,11.39,0,0,0,1.12,1.21,5,5,0,0,0,1.09.77,4.26,4.26,0,0,0,.7.28,5.08,5.08,0,0,0,.89.16,10.72,10.72,0,0,0,1.21,0H328a.94.94,0,0,0,.37,0,.21.21,0,0,0,.12-.21.29.29,0,0,0-.08-.18.36.36,0,0,0-.24-.08h-.28a2.42,2.42,0,0,1-.33,0,3.83,3.83,0,0,1-.58-.15,3.76,3.76,0,0,1-.91-.45,7.56,7.56,0,0,1-1.26-1c-.77-.78-1.61-1.72-2.54-2.83s-2-2.36-3.1-3.77a15.47,15.47,0,0,0,2-1.91,6.79,6.79,0,0,0,1.16-1.79,4.49,4.49,0,0,0,.37-1.79,4.34,4.34,0,0,0-.18-1.17,4.64,4.64,0,0,0-.45-1,5.26,5.26,0,0,0-.59-.76,4.17,4.17,0,0,0-.59-.51,5.55,5.55,0,0,0-1.51-.68,9.54,9.54,0,0,0-1.68-.3A16.25,16.25,0,0,0,316,47.1h-.83l-1.14,0-1.15,0h-1.46l-.87,0-1,0h-1a1.2,1.2,0,0,0-.43,0c-.11,0-.15.09-.15.18a.22.22,0,0,0,.12.2.68.68,0,0,0,.31.06l.58,0a3.07,3.07,0,0,1,.45.07A2.08,2.08,0,0,1,310,48a.91.91,0,0,1,.35.4,2.28,2.28,0,0,1,.13.68c0,.15,0,.31,0,.48s0,.38,0,.62,0,.54,0,.9v7.64Zm28.84-18a1.23,1.23,0,0,0-.18-.27.34.34,0,0,0-.23-.08l-.21,0a1.61,1.61,0,0,0-.37.21c-.1.07-.29.19-.56.39l-1,.71-1.16.9-1.14.9-.89.78-.18.2a.34.34,0,0,0-.08.18.15.15,0,0,0,.07.14.26.26,0,0,0,.1,0l.19-.07a2.94,2.94,0,0,1,.31-.16c.28-.15.61-.32,1-.49s.83-.35,1.29-.52a14,14,0,0,1,1.39-.44,10.31,10.31,0,0,1,1.31-.28,5.42,5.42,0,0,1,.66,0l.33,0a.18.18,0,0,0,.19-.09c.05-.06,0-.18,0-.35-.18-.39-.33-.73-.47-1s-.26-.53-.38-.74ZM332,58.26a.11.11,0,0,1-.1,0s0-.07,0-.13l2.48-6.28a.94.94,0,0,1,.06-.15s.05-.08.09-.08.05,0,.07.08,0,.1.05.15l2.42,6.31a.2.2,0,0,1,0,.11.17.17,0,0,1-.12,0Zm5.52,1.37a.33.33,0,0,1,.15,0,.26.26,0,0,1,.11.15l2,5a.45.45,0,0,1,0,.38.34.34,0,0,1-.23.18.43.43,0,0,0-.25.08.24.24,0,0,0-.07.18c0,.08.08.14.21.16s.32,0,.55,0c.73,0,1.41,0,2,0l1.7,0h1.2l.71,0a.81.81,0,0,0,.33-.08.19.19,0,0,0,.07-.16c0-.17-.12-.26-.35-.26l-.45,0-.52-.07a1.39,1.39,0,0,1-.39-.15,1.8,1.8,0,0,1-.5-.39,3.92,3.92,0,0,1-.6-.78,13.51,13.51,0,0,1-.7-1.35c-.23-.55-.51-1.2-.84-2s-.68-1.59-1.06-2.48-.77-1.79-1.16-2.72-.79-1.84-1.16-2.72-.72-1.7-1-2.44-.59-1.37-.81-1.9L336,47.3a4.6,4.6,0,0,0-.23-.45.69.69,0,0,0-.22-.25.49.49,0,0,0-.31-.08c-.13,0-.25.07-.37.23a3.23,3.23,0,0,0-.39.76l-6.72,15.63a7.82,7.82,0,0,1-.52,1.08,2.27,2.27,0,0,1-.66.74,2.08,2.08,0,0,1-.95.37h-.38l-.38,0a.28.28,0,0,0-.22.08.26.26,0,0,0,0,.39.83.83,0,0,0,.36,0l1.3,0,1.09,0,.58,0,.93,0,1,0,.94,0a.62.62,0,0,0,.3,0,.26.26,0,0,0,0-.39.46.46,0,0,0-.31-.08h-.38a1.33,1.33,0,0,1-.81-.19.61.61,0,0,1-.22-.51,2.71,2.71,0,0,1,.1-.64,5.21,5.21,0,0,1,.28-.88l1.38-3.33a.22.22,0,0,1,.08-.14.21.21,0,0,1,.15,0ZM183.2,18.93a.37.37,0,0,1,.05-.23.34.34,0,0,1,.18-.12,5.17,5.17,0,0,1,.62-.07l.9,0a4.45,4.45,0,0,1,1,.12A4.61,4.61,0,0,1,187,19a3.52,3.52,0,0,1,.93.81,3.45,3.45,0,0,1,.68,1.26,5.61,5.61,0,0,1,.26,1.8,5.52,5.52,0,0,1-.25,1.74,3.78,3.78,0,0,1-.63,1.2,3.58,3.58,0,0,1-.78.74,1.77,1.77,0,0,1-.44.25,2,2,0,0,1-.54.12,6.47,6.47,0,0,1-.83,0c-.33,0-.67,0-1,0a6.17,6.17,0,0,1-.95-.18.47.47,0,0,1-.18-.16.54.54,0,0,1-.05-.28Zm-3.27,9.84c0,.76,0,1.48,0,2.15s0,1.27,0,1.8,0,1-.08,1.33a2.71,2.71,0,0,1-.21.89.78.78,0,0,1-.55.43,3.27,3.27,0,0,1-.4.07l-.5,0a.53.53,0,0,0-.33.08.21.21,0,0,0-.08.18.19.19,0,0,0,.13.19.71.71,0,0,0,.37.07h.85l.92,0,.82,0,.56,0,.57,0,1,0,1.22,0h1.2a.81.81,0,0,0,.38-.07.19.19,0,0,0,.14-.19.24.24,0,0,0-.08-.18.35.35,0,0,0-.24-.08h-.38l-.45,0-.42-.05a1.2,1.2,0,0,1-.59-.23.91.91,0,0,1-.28-.45,2.7,2.7,0,0,1-.12-.64q-.06-.52-.09-1.32c0-.53,0-1.13,0-1.8s0-1.39,0-2.16v-.35a.2.2,0,0,1,.06-.16.21.21,0,0,1,.14,0l2.31.05a.61.61,0,0,1,.24,0,.57.57,0,0,1,.23.14l.37.5.58.83c.22.32.45.66.71,1s.5.7.76,1.05c.47.64.9,1.2,1.3,1.67A10.43,10.43,0,0,0,191,34.72a5.16,5.16,0,0,0,1.08.77,5,5,0,0,0,.71.28,6,6,0,0,0,.89.16,10.51,10.51,0,0,0,1.21,0h2.45a.94.94,0,0,0,.37,0,.22.22,0,0,0,.13-.21.26.26,0,0,0-.09-.18.35.35,0,0,0-.24-.08h-.28a2.67,2.67,0,0,1-.33-.05,3.49,3.49,0,0,1-.57-.15,3.63,3.63,0,0,1-.92-.45,7.17,7.17,0,0,1-1.25-1c-.77-.78-1.62-1.72-2.55-2.83s-1.95-2.36-3.09-3.77a14.82,14.82,0,0,0,2-1.9,7,7,0,0,0,1.16-1.79,4.39,4.39,0,0,0,.36-1.8,3.66,3.66,0,0,0-.18-1.16,3.82,3.82,0,0,0-.45-1,4.73,4.73,0,0,0-.59-.77,3.65,3.65,0,0,0-.59-.5,5.29,5.29,0,0,0-1.51-.68,9.27,9.27,0,0,0-1.67-.3,16.25,16.25,0,0,0-1.69-.07h-.83l-1.14,0-1.15,0h-1.46l-.87,0-1,0h-1.05a1.23,1.23,0,0,0-.43.05.18.18,0,0,0-.15.18.22.22,0,0,0,.12.2.73.73,0,0,0,.32.06l.58,0a3.13,3.13,0,0,1,.44.07,2.29,2.29,0,0,1,.64.26,1,1,0,0,1,.34.41,2.27,2.27,0,0,1,.13.67c0,.16,0,.32,0,.49s0,.38,0,.62,0,.54,0,.9v7.63Zm22.93,7.53a12.21,12.21,0,0,0,1.45-.07,7.72,7.72,0,0,0,1.49-.3,4.55,4.55,0,0,0,1.35-.65,7.23,7.23,0,0,0,1.5-1.38,5,5,0,0,0,.82-1.53,5.74,5.74,0,0,0,.25-1.73,5.54,5.54,0,0,0-.4-2.14,5.78,5.78,0,0,0-1.38-2,12.62,12.62,0,0,0-2.66-1.89L204.23,24a11.48,11.48,0,0,1-1.4-.9,4.48,4.48,0,0,1-.82-.8,2.33,2.33,0,0,1-.39-.77,2.67,2.67,0,0,1-.11-.8,2.46,2.46,0,0,1,.29-1.13,2.6,2.6,0,0,1,.78-.84,3.59,3.59,0,0,1,1.12-.51,4.73,4.73,0,0,1,1.32-.18,5,5,0,0,1,1.4.2,3.29,3.29,0,0,1,.92.46,2.7,2.7,0,0,1,.54.51,2.43,2.43,0,0,1,.42.66,3.16,3.16,0,0,1,.2.59,1.31,1.31,0,0,1,.05.39c0,.29.09.43.26.43s.18-.06.24-.2a1.43,1.43,0,0,0,.09-.58c0-.65,0-1.18,0-1.58s0-.71,0-.92,0-.38,0-.48a.29.29,0,0,0-.08-.21.56.56,0,0,0-.27-.11,11,11,0,0,0-1.45-.28,17.36,17.36,0,0,0-2.2-.13,8.85,8.85,0,0,0-2.51.35,6.69,6.69,0,0,0-2.06,1,4.9,4.9,0,0,0-1.4,1.58,4.39,4.39,0,0,0-.51,2.06,5.07,5.07,0,0,0,1.64,3.87,11.39,11.39,0,0,0,2.39,1.76l1.49.88a9.74,9.74,0,0,1,1.36,1,4.23,4.23,0,0,1,.77.89,2.53,2.53,0,0,1,.33.84,3.23,3.23,0,0,1,.08.81,3,3,0,0,1-1.65,2.73,4.17,4.17,0,0,1-1.91.43,5.87,5.87,0,0,1-1.24-.13,4.6,4.6,0,0,1-1.2-.41,3.24,3.24,0,0,1-1-.76,3,3,0,0,1-.65-1.15,5.78,5.78,0,0,1-.17-.69,3.57,3.57,0,0,1-.06-.6.65.65,0,0,0,0-.27.23.23,0,0,0-.22-.14.26.26,0,0,0-.23.18,1,1,0,0,0-.09.46q0,.16,0,.51c0,.22,0,.49-.05.79s0,.64,0,1,0,.68,0,1a1.65,1.65,0,0,0,0,.43.44.44,0,0,0,.14.25,1.1,1.1,0,0,0,.31.17,6.32,6.32,0,0,0,1.25.39,12.66,12.66,0,0,0,1.43.19q.75.06,1.5.06m11.57-7.53V31c0,.69,0,1.3,0,1.84s-.05,1-.09,1.32a2,2,0,0,1-.21.83.8.8,0,0,1-.54.37l-.4.07-.51,0a.53.53,0,0,0-.33.08.29.29,0,0,0-.08.18.19.19,0,0,0,.13.19.76.76,0,0,0,.37.07h.87l1,0,.89,0,.63,0,1,0,1.46,0,1.67,0a.74.74,0,0,0,.36-.07.21.21,0,0,0,.14-.19.24.24,0,0,0-.1-.18.5.5,0,0,0-.31-.08h-.43l-.47,0-.41-.05a1.4,1.4,0,0,1-.59-.21.74.74,0,0,1-.3-.39,2.64,2.64,0,0,1-.14-.57c0-.35-.06-.8-.08-1.34s0-1.16,0-1.85V21.14c0-.36,0-.66,0-.9s0-.45,0-.62l0-.49a2,2,0,0,1,.24-.95,1,1,0,0,1,.73-.39l.39-.07.37,0a.78.78,0,0,0,.3-.05.28.28,0,0,0,.11-.24q0-.11-.15-.15a1,1,0,0,0-.38-.05h-.84l-.94,0-.87,0h-1.36l-.92,0-1,0h-.84a1.35,1.35,0,0,0-.46.05c-.1,0-.16.08-.16.15a.28.28,0,0,0,.11.24.62.62,0,0,0,.3.05,3.87,3.87,0,0,1,.48,0,3.4,3.4,0,0,1,.46.09,1.24,1.24,0,0,1,.46.23.88.88,0,0,1,.28.41,2.2,2.2,0,0,1,.13.67c0,.16,0,.32,0,.49s0,.38,0,.62,0,.54,0,.9v7.63ZM228.92,24V22.07c0-.63,0-1.2,0-1.71s0-.91,0-1.2a.56.56,0,0,1,.08-.32.43.43,0,0,1,.25-.17,1,1,0,0,1,.38-.1l.59-.06.6,0a15.89,15.89,0,0,1,1.64.08,11.43,11.43,0,0,1,1.82.32,9.7,9.7,0,0,1,1.89.71A8.81,8.81,0,0,1,238,20.86a5.69,5.69,0,0,1,.86.94,7.37,7.37,0,0,1,.77,1.34,8.36,8.36,0,0,1,.55,1.75,10.25,10.25,0,0,1,.22,2.16,14.4,14.4,0,0,1-.2,2.43,7.33,7.33,0,0,1-.68,2.09,5.19,5.19,0,0,1-1.31,1.64,6.93,6.93,0,0,1-1.62,1,7.69,7.69,0,0,1-1.84.53,13,13,0,0,1-2.15.15,8.82,8.82,0,0,1-1.69-.15,4.13,4.13,0,0,1-1.1-.37,1.78,1.78,0,0,1-.57-.47,1.29,1.29,0,0,1-.16-.43,6,6,0,0,1-.08-.66c0-.23,0-.45-.05-.66s0-.49,0-.94,0-1,0-1.73,0-1.47,0-2.36Zm-3.44,4.76c0,.76,0,1.48,0,2.15s0,1.27,0,1.8,0,1-.08,1.33a3,3,0,0,1-.21.89.78.78,0,0,1-.55.43,3.27,3.27,0,0,1-.4.07l-.5,0a.53.53,0,0,0-.33.08.21.21,0,0,0-.08.18.2.2,0,0,0,.12.19.76.76,0,0,0,.37.07c.27,0,.55,0,.86,0l.93,0h.85l.61,0c.32,0,.71,0,1.15,0l1.44.11,1.57.09c.53,0,1,0,1.5.06a16.85,16.85,0,0,0,3.18-.3,13.06,13.06,0,0,0,2.46-.73,9.39,9.39,0,0,0,1.8-.95,7.93,7.93,0,0,0,1.17-.94,8.82,8.82,0,0,0,1.38-1.74,9.64,9.64,0,0,0,1-2.32,10.28,10.28,0,0,0,.41-2.86,10.88,10.88,0,0,0-.34-2.67,8.83,8.83,0,0,0-.89-2.09,7.41,7.41,0,0,0-1.2-1.55,8.07,8.07,0,0,0-2.34-1.64,11.5,11.5,0,0,0-2.67-.84,20,20,0,0,0-2.75-.31c-.9,0-1.77-.05-2.57,0h-1.2l-1.17,0-1,0h-.77l-1,0-1.32,0h-1.4a1.23,1.23,0,0,0-.43.05c-.1,0-.15.09-.15.18a.22.22,0,0,0,.12.2.73.73,0,0,0,.32.06l.58,0a3.13,3.13,0,0,1,.44.07,2.29,2.29,0,0,1,.64.26,1,1,0,0,1,.34.41,2.27,2.27,0,0,1,.13.67c0,.16,0,.32,0,.49s0,.38,0,.62,0,.54,0,.9v7.63Zm24.83-.41a.11.11,0,0,1-.1,0,.12.12,0,0,1,0-.13l2.48-6.28c0-.05,0-.1.05-.15a.13.13,0,0,1,.1-.09s.05,0,.07.09,0,.1,0,.15l2.43,6.31a.11.11,0,0,1,0,.1s0,0-.11,0Zm5.52,1.37a.26.26,0,0,1,.15,0,.27.27,0,0,1,.11.14l2,5a.46.46,0,0,1,0,.38.36.36,0,0,1-.23.18.47.47,0,0,0-.26.08.23.23,0,0,0-.06.18c0,.08.07.14.2.15a3.6,3.6,0,0,0,.56.05c.72,0,1.4,0,2,0L262,36h1.2l.72,0a.75.75,0,0,0,.32-.08.16.16,0,0,0,.07-.16c0-.18-.11-.26-.35-.26l-.45,0-.51-.07a1.67,1.67,0,0,1-.4-.15,2.21,2.21,0,0,1-.5-.39,4.57,4.57,0,0,1-.6-.79,12.38,12.38,0,0,1-.69-1.34l-.85-2-1.05-2.48-1.17-2.72c-.4-.93-.78-1.84-1.16-2.72l-1-2.43-.81-1.9-.47-1.08c-.09-.18-.16-.33-.23-.45a.69.69,0,0,0-.22-.25.52.52,0,0,0-.31-.09.48.48,0,0,0-.37.24,3.23,3.23,0,0,0-.39.76L246,33.24a7.82,7.82,0,0,1-.52,1.08,2.36,2.36,0,0,1-.65.74,2.13,2.13,0,0,1-1,.37h-.38l-.38,0a.34.34,0,0,0-.22.07.32.32,0,0,0-.07.19.22.22,0,0,0,.11.21.86.86,0,0,0,.36,0l1.31,0,1.08,0,.59,0,.92,0,1,0,.94,0a.62.62,0,0,0,.3,0,.22.22,0,0,0,.11-.21.26.26,0,0,0-.07-.19.54.54,0,0,0-.31-.07h-.38a1.33,1.33,0,0,1-.81-.19.59.59,0,0,1-.21-.51,3.11,3.11,0,0,1,.09-.64,4.51,4.51,0,0,1,.29-.88l1.37-3.33a.26.26,0,0,1,.08-.14.21.21,0,0,1,.15,0ZM270.67,24V22.07c0-.63,0-1.2,0-1.71s0-.91,0-1.2a.56.56,0,0,1,.07-.32.43.43,0,0,1,.25-.17,1.06,1.06,0,0,1,.38-.1l.6-.06.59,0a15.89,15.89,0,0,1,1.64.08,11.05,11.05,0,0,1,1.82.32,9.7,9.7,0,0,1,1.89.71,9.14,9.14,0,0,1,1.84,1.26,6.14,6.14,0,0,1,.85.94,6.83,6.83,0,0,1,.77,1.34,8.36,8.36,0,0,1,.56,1.75,10.28,10.28,0,0,1,.21,2.16,13.46,13.46,0,0,1-.19,2.43,7.66,7.66,0,0,1-.69,2.09A5.19,5.19,0,0,1,280,33.21a6.93,6.93,0,0,1-1.62,1,7.69,7.69,0,0,1-1.84.53,13,13,0,0,1-2.14.15,8.85,8.85,0,0,1-1.7-.15,4.26,4.26,0,0,1-1.1-.37,1.62,1.62,0,0,1-.56-.47,1.11,1.11,0,0,1-.16-.43,5.86,5.86,0,0,1-.09-.66c0-.23,0-.45,0-.66s0-.49,0-.94,0-1,0-1.73,0-1.47,0-2.36Zm-3.45,4.76v2.15q0,1,0,1.8c0,.54-.05,1-.09,1.33a2.48,2.48,0,0,1-.21.89.79.79,0,0,1-.54.43l-.4.07-.51,0a.53.53,0,0,0-.33.08.29.29,0,0,0-.08.18.21.21,0,0,0,.13.19.76.76,0,0,0,.37.07c.27,0,.55,0,.85,0l.93,0h.85l.61,0c.32,0,.71,0,1.16,0l1.44.11,1.56.09c.53,0,1,0,1.5.06a16.85,16.85,0,0,0,3.18-.3,13.17,13.17,0,0,0,2.47-.73,9.59,9.59,0,0,0,1.79-.95,8.66,8.66,0,0,0,1.18-.94,9.17,9.17,0,0,0,1.37-1.74,8.91,8.91,0,0,0,1-2.32,9.93,9.93,0,0,0,.41-2.86,10.42,10.42,0,0,0-.34-2.67,9.25,9.25,0,0,0-.88-2.09,8,8,0,0,0-3.55-3.19,11.5,11.5,0,0,0-2.67-.84,20,20,0,0,0-2.75-.31c-.9,0-1.76-.05-2.57,0H271.9l-1.18,0-1,0h-.77l-1,0-1.33,0h-1.39a1.29,1.29,0,0,0-.44.05c-.1,0-.15.09-.15.18a.24.24,0,0,0,.12.2.73.73,0,0,0,.32.06l.58,0a2.9,2.9,0,0,1,.44.07,2.29,2.29,0,0,1,.64.26.9.9,0,0,1,.34.41,2,2,0,0,1,.13.67c0,.16,0,.32,0,.49s0,.38,0,.62v8.53Zm-155.3-6.31H112c.14.12.38.37.76.77l1.39,1.46c.55.58,1.15,1.2,1.82,1.88s1.34,1.34,2,2l2.08,2,2.07,2,1.88,1.79,1.47,1.38a2.16,2.16,0,0,0,.47.36,1.15,1.15,0,0,0,.58.16.36.36,0,0,0,.29-.18,1.29,1.29,0,0,0,.12-.6l.29-15.65a5.15,5.15,0,0,1,.11-1.11,1.32,1.32,0,0,1,.28-.63,1.19,1.19,0,0,1,.55-.31,2.55,2.55,0,0,1,.42-.08H129a.7.7,0,0,0,.33-.07.24.24,0,0,0,.11-.19c0-.1-.06-.16-.17-.19a1.24,1.24,0,0,0-.42,0c-.63,0-1.17,0-1.61,0l-.9,0-.79,0-1.16,0h-1.32a1.5,1.5,0,0,0-.46,0c-.12,0-.18.09-.18.19a.24.24,0,0,0,.08.19.62.62,0,0,0,.33.07h.42a3.88,3.88,0,0,1,.48,0,1.89,1.89,0,0,1,.44.1,1.16,1.16,0,0,1,.5.33,1.61,1.61,0,0,1,.27.67,6.79,6.79,0,0,1,.11,1.19l.26,11h-.12l-.55-.55-1.06-1.07-1.34-1.36-1.38-1.39-1.22-1.21-2.22-2.19-2.08-2.08c-.66-.65-1.24-1.25-1.76-1.77l-1.26-1.28-.59-.59c-.22-.23-.42-.42-.6-.58a.91.91,0,0,0-.51-.24.36.36,0,0,0-.31.24,1.29,1.29,0,0,0-.13.61L110,32.33c0,.72,0,1.28-.07,1.71a2.46,2.46,0,0,1-.22.92.74.74,0,0,1-.5.38,4.71,4.71,0,0,1-.58.09l-.59,0a.65.65,0,0,0-.29.07.24.24,0,0,0-.11.19.21.21,0,0,0,.16.22,1.24,1.24,0,0,0,.42,0l1.25,0,1,0,.53,0,1.22,0c.57,0,1.28,0,2.11,0a1.3,1.3,0,0,0,.43,0,.22.22,0,0,0,.16-.21.24.24,0,0,0-.11-.19.6.6,0,0,0-.33-.07,5.07,5.07,0,0,1-.66,0,3,3,0,0,1-.68-.14.82.82,0,0,1-.44-.35,2.44,2.44,0,0,1-.3-.82,10.26,10.26,0,0,1-.14-1.52l-.29-10.13Zm21.7,6.31V31c0,.69,0,1.3,0,1.84s-.05,1-.09,1.32a2,2,0,0,1-.21.83.8.8,0,0,1-.54.37l-.4.07-.51,0a.53.53,0,0,0-.33.08.29.29,0,0,0-.08.18.21.21,0,0,0,.13.19.76.76,0,0,0,.37.07h.87l1,0,.89,0,.63,0,1,0,1.46,0,1.67,0a.74.74,0,0,0,.36-.07.21.21,0,0,0,.14-.19.24.24,0,0,0-.1-.18.48.48,0,0,0-.31-.08h-.43l-.47,0-.41-.05a1.4,1.4,0,0,1-.59-.21.79.79,0,0,1-.3-.39,2.64,2.64,0,0,1-.14-.57c0-.35-.06-.8-.08-1.34s0-1.16,0-1.85V21.14c0-.36,0-.66,0-.9s0-.45,0-.62,0-.33,0-.49a2,2,0,0,1,.24-.95,1,1,0,0,1,.73-.39l.39-.07.37,0a.78.78,0,0,0,.3-.05.28.28,0,0,0,.11-.24c0-.07,0-.12-.14-.15a1.09,1.09,0,0,0-.39-.05h-.84l-.94,0-.87,0h-1.36l-.92,0-1,0H132a1.35,1.35,0,0,0-.46.05c-.1,0-.16.08-.16.15a.28.28,0,0,0,.11.24.62.62,0,0,0,.3.05,3.87,3.87,0,0,1,.48,0,3.4,3.4,0,0,1,.46.09,1.24,1.24,0,0,1,.46.23.88.88,0,0,1,.28.41,2.2,2.2,0,0,1,.13.67c0,.16,0,.32,0,.49s0,.38,0,.62v8.53Zm16,6c.16.39.3.69.41.91a1.76,1.76,0,0,0,.33.46.42.42,0,0,0,.31.12.44.44,0,0,0,.33-.15,2.44,2.44,0,0,0,.37-.55c.14-.27.32-.64.53-1.11s.46-1,.78-1.72l1.15-2.57,1.48-3.3.93-2c.28-.58.53-1.12.76-1.62s.47-1,.69-1.49.47-1,.72-1.6A12.57,12.57,0,0,1,159,19a4,4,0,0,1,.43-.65,1.39,1.39,0,0,1,.34-.32,1.3,1.3,0,0,1,.46-.22,2,2,0,0,1,.45-.07h.35a.61.61,0,0,0,.3-.06.23.23,0,0,0,.11-.2.18.18,0,0,0-.14-.18,1.09,1.09,0,0,0-.39-.05h-.88l-.89,0-.65,0-.57,0-1,0h-1.22a2,2,0,0,0-.55.05q-.18,0-.18.18a.25.25,0,0,0,.13.2.75.75,0,0,0,.31.06l.52,0a3.21,3.21,0,0,1,.5.09.68.68,0,0,1,.27.15.46.46,0,0,1,.08.29,1.51,1.51,0,0,1-.07.41,4.66,4.66,0,0,1-.16.49l-.41,1.06-.66,1.63-.81,2c-.3.71-.59,1.43-.89,2.16s-.6,1.43-.88,2.11-.54,1.3-.78,1.86-.43,1-.59,1.4h-.09l-4.32-11.13q-.27-.66-.42-1.14a2.49,2.49,0,0,1-.16-.72.67.67,0,0,1,.06-.3.64.64,0,0,1,.2-.2,1,1,0,0,1,.42-.14,3.32,3.32,0,0,1,.57,0,.6.6,0,0,0,.29-.06.22.22,0,0,0,.12-.2c0-.09-.07-.15-.19-.18a1.34,1.34,0,0,0-.42-.05h-1.28l-1.15,0h-1.91l-1.29,0h-1.38a1.47,1.47,0,0,0-.46,0,.19.19,0,0,0-.18.19.23.23,0,0,0,.29.26h.43a3.78,3.78,0,0,1,.56.08,3.22,3.22,0,0,1,.78.27,1.89,1.89,0,0,1,.57.53,5.11,5.11,0,0,1,.55,1l6.48,15.18Zm14.87-6v2.15q0,1,0,1.8c0,.54-.05,1-.09,1.33a2.48,2.48,0,0,1-.21.89.79.79,0,0,1-.54.43l-.4.07-.51,0a.55.55,0,0,0-.33.08.29.29,0,0,0-.08.18.21.21,0,0,0,.13.19.76.76,0,0,0,.37.07c.27,0,.55,0,.85,0l.93,0h.85l.61,0,1.3,0,1.68,0,2.11.07,2.62,0c.31,0,.56,0,.74,0a.68.68,0,0,0,.41-.17.94.94,0,0,0,.22-.45,4.65,4.65,0,0,0,.12-.56c0-.25.07-.51.11-.79s.06-.56.09-.8,0-.45,0-.6a1.67,1.67,0,0,0,0-.39.22.22,0,0,0-.19-.19.21.21,0,0,0-.19.09.92.92,0,0,0-.11.29,3.48,3.48,0,0,1-.37,1.19,1.64,1.64,0,0,1-.73.65,3.41,3.41,0,0,1-.78.21,8.55,8.55,0,0,1-.87.09l-.78,0a10,10,0,0,1-2-.16,1.74,1.74,0,0,1-1.08-.62,2.25,2.25,0,0,1-.34-1.29c0-.19,0-.45,0-.77s0-.66,0-1V29.68c0-.33,0-.6,0-.82v-2a.48.48,0,0,1,0-.18.12.12,0,0,1,.11-.08h.63l.94,0,1,0,.9,0a4.24,4.24,0,0,1,.53,0,2.13,2.13,0,0,1,.77.18,1.09,1.09,0,0,1,.44.33,1.05,1.05,0,0,1,.22.45,4,4,0,0,1,.06.47c0,.16,0,.3,0,.44a.24.24,0,0,0,.05.14.24.24,0,0,0,.18.06c.08,0,.14,0,.17-.1a.48.48,0,0,0,.08-.22,1.94,1.94,0,0,0,0-.24s0-.13,0-.26a3.91,3.91,0,0,1,0-.45l0-.51c0-.16,0-.31,0-.44,0-.41.08-.74.11-1s.06-.44.07-.57a1.46,1.46,0,0,0,0-.25.26.26,0,0,0-.06-.18.19.19,0,0,0-.14-.08.22.22,0,0,0-.17.09l-.24.23a1,1,0,0,1-.48.27,5.09,5.09,0,0,1-.75.11l-.64,0h-3.86a.15.15,0,0,1-.14-.08.48.48,0,0,1,0-.18V18.87a.29.29,0,0,1,0-.17.16.16,0,0,1,.13-.06h.58l.94,0,1.06,0,.92,0a3.91,3.91,0,0,1,.53,0,3.58,3.58,0,0,1,1,.19,1.11,1.11,0,0,1,.48.31,2.06,2.06,0,0,1,.25.4A2.55,2.55,0,0,1,174,20c0,.12,0,.23,0,.33a2.45,2.45,0,0,1,0,.25.55.55,0,0,0,0,.24.18.18,0,0,0,.17.08.23.23,0,0,0,.16-.08.38.38,0,0,0,.08-.17l.05-.16c0-.08,0-.19,0-.34s0-.32,0-.49,0-.33,0-.48,0-.26,0-.32c0-.38.05-.68.08-.89l.09-.48a1.67,1.67,0,0,0,0-.24.27.27,0,0,0,0-.16s-.06-.07-.14-.07a.54.54,0,0,0-.19,0l-.21.06-.45.08-.63.07h-7l-1,0-1.32,0c-.48,0-.94,0-1.4,0a1.48,1.48,0,0,0-.43.05c-.11,0-.15.1-.15.18a.22.22,0,0,0,.12.2.68.68,0,0,0,.31.07,5.52,5.52,0,0,1,.58,0,2.23,2.23,0,0,1,.45.06,2.08,2.08,0,0,1,.63.27.85.85,0,0,1,.34.41,1.69,1.69,0,0,1,.13.67c0,.15,0,.31,0,.48s0,.38,0,.62,0,.54,0,.9v7.63Z"/><path d="M87.73,89a5.71,5.71,0,0,1-2-1.15,4.81,4.81,0,0,1-.84-1,5.07,5.07,0,0,1-.53-1.07,5.34,5.34,0,0,1-.27-1.08A7.92,7.92,0,0,1,84,83.69a7,7,0,0,1,.07-.83,5.77,5.77,0,0,1,.74-2,4.91,4.91,0,0,1,.78-1,5,5,0,0,1,.73-.6,4.07,4.07,0,0,1,.93-.48,7.06,7.06,0,0,1,1.19-.32A8.29,8.29,0,0,1,90,78.3l1,0a9.37,9.37,0,0,1,1.08.14l.76.13.68.08a.28.28,0,0,1,.15,0,.12.12,0,0,1,0,.11s0,.14,0,.25,0,.29,0,.54,0,.25,0,.39,0,.29,0,.44,0,.26,0,.38v.25c0,.2-.06.3-.13.3s-.12-.1-.12-.3a2.32,2.32,0,0,0-.15-.81,1.62,1.62,0,0,0-.44-.63,3.17,3.17,0,0,0-1.14-.57,5.63,5.63,0,0,0-1.7-.24,7.37,7.37,0,0,0-1.23.09,4.9,4.9,0,0,0-.92.24,3.38,3.38,0,0,0-.66.33,3.71,3.71,0,0,0-.45.37,3.62,3.62,0,0,0-1,1.68,7.68,7.68,0,0,0-.25,2,5.35,5.35,0,0,0,1.43,3.61,5.08,5.08,0,0,0,1.61,1.15,4.93,4.93,0,0,0,2.08.43,6.72,6.72,0,0,0,1.43-.14,2,2,0,0,0,1-.57,1.78,1.78,0,0,0,.36-.62,3.5,3.5,0,0,0,.17-.57c0-.14.07-.21.14-.21s.06,0,.08.06a.61.61,0,0,1,0,.15s0,.11,0,.26,0,.32-.07.5-.06.39-.1.58-.08.35-.11.47a1,1,0,0,1-.13.27.7.7,0,0,1-.24.15,4.6,4.6,0,0,1-.51.14,4.28,4.28,0,0,1-.64.1c-.23,0-.46,0-.7.06s-.48,0-.71,0A8.51,8.51,0,0,1,87.73,89"/><path d="M98.66,80.34a1.82,1.82,0,0,1,.17-.38c0-.06.08-.09.13-.09s.11,0,.14.12l.15.32.25.6L100,82l.59,1.44c.21.53.43,1,.63,1.56s.41,1,.59,1.45.34.84.48,1.14a4.09,4.09,0,0,0,.32.66,2.2,2.2,0,0,0,.28.38,1,1,0,0,0,.25.2.69.69,0,0,0,.21.08l.27.06h.23a.17.17,0,0,1,.1,0,.06.06,0,0,1,0,.07s0,.07-.08.08a.62.62,0,0,1-.2,0h-1.33l-.64,0-.31,0c-.09,0-.13,0-.13-.06a.06.06,0,0,1,0,0l.06,0a.31.31,0,0,0,.12-.09c0-.05,0-.13,0-.23l-1.12-2.77a.13.13,0,0,0-.12-.07H97.35a.14.14,0,0,0-.13.1l-.7,1.93a2.22,2.22,0,0,0-.19.81.25.25,0,0,0,.14.25.57.57,0,0,0,.29.07h.11c.09,0,.13,0,.13.1s-.06.1-.19.1h-.28l-.34,0h-1l-.38,0h-.39c-.16,0-.24,0-.24-.1a.1.1,0,0,1,.11-.1h.19l.18,0a.94.94,0,0,0,.65-.36,3.72,3.72,0,0,0,.4-.75Zm1.39,5s0,0,0-.08L98.86,82c-.08-.18-.15-.18-.22,0l-1.16,3.31c0,.06,0,.08,0,.08Z"/><path d="M115,87.66c0,.11,0,.22,0,.35a1.56,1.56,0,0,0,.1.37,1.35,1.35,0,0,0,.19.33.62.62,0,0,0,.31.2,1.94,1.94,0,0,0,.49.1h.32c.06,0,.1,0,.1.09a.11.11,0,0,1-.07.09l-.19,0h-.39l-.61,0-.64,0-.49,0-.29-.05a.09.09,0,0,1-.06-.08.09.09,0,0,1,.08-.09s.07-.06.07-.14a1,1,0,0,0,0-.29l-.6-6.1h0l-3,6.16c-.13.26-.23.43-.28.51s-.11.13-.16.13-.11,0-.16-.12a4.46,4.46,0,0,1-.27-.44l-.32-.59c-.14-.25-.27-.51-.42-.78s-.27-.54-.41-.8S108,86,108,85.85l-.37-.77-.48-1-.45-.93c-.13-.29-.23-.49-.29-.62h0L105.82,88c0,.1,0,.2,0,.3v.31a.33.33,0,0,0,.3.34l.28.06h.2c.07,0,.1,0,.1.09s-.08.11-.23.11h-.36l-.36,0h-.88l-.32,0h-.29c-.14,0-.21,0-.21-.11s0-.09.12-.09h.15l.22,0a.43.43,0,0,0,.38-.34A5.36,5.36,0,0,0,105,88l.91-7.88c0-.14.07-.21.14-.21a.3.3,0,0,1,.26.18l3.77,7.5,3.64-7.48c.06-.13.13-.2.19-.2s.16.11.19.33Z"/><path d="M118.72,83.59V81.75c0-.19,0-.34,0-.45a3,3,0,0,0,0-.31,1.19,1.19,0,0,0-.11-.46c-.06-.11-.19-.17-.4-.2l-.2,0h-.22c-.07,0-.1,0-.1-.1s.06-.1.19-.1h3.23a5.82,5.82,0,0,1,1,.08,3.33,3.33,0,0,1,.7.19,2.39,2.39,0,0,1,.43.23l.24.18a2.42,2.42,0,0,1,.42.58,1.86,1.86,0,0,1,.2.87,2.83,2.83,0,0,1-.23,1.18,2.63,2.63,0,0,1-.66.91,2.87,2.87,0,0,1-1,.58,3.93,3.93,0,0,1-1.32.21h-.18l-.17,0a.16.16,0,0,1-.09,0,.09.09,0,0,1,0-.08.1.1,0,0,1,.06-.1.78.78,0,0,1,.27,0,2.75,2.75,0,0,0,.93-.15,2.19,2.19,0,0,0,.73-.41,1.88,1.88,0,0,0,.48-.61,1.84,1.84,0,0,0,.17-.77c0-.09,0-.21,0-.36a2.18,2.18,0,0,0-.09-.46,3.45,3.45,0,0,0-.21-.51,2.25,2.25,0,0,0-.4-.5,1.8,1.8,0,0,0-.5-.36,2.14,2.14,0,0,0-.48-.17,1.6,1.6,0,0,0-.42,0h-.29l-.37,0a1.42,1.42,0,0,0-.32,0c-.07,0-.1.09-.1.23v6.47c0,.45,0,.8,0,1a1.16,1.16,0,0,0,.12.43.51.51,0,0,0,.38.21l.3,0h.25a.09.09,0,0,1,.1.1c0,.07-.06.1-.2.1h-.52l-.49,0h-1l-.39,0H118c-.13,0-.2,0-.2-.1a.09.09,0,0,1,.1-.1h.19l.19,0a.31.31,0,0,0,.24-.21c0-.11.06-.25.09-.43a7,7,0,0,0,.06-1c0-.45,0-1,0-1.56Z"/><path d="M126.4,83.59V81.75c0-.19,0-.34,0-.45s0-.21,0-.31a1.28,1.28,0,0,0-.12-.45q-.07-.17-.39-.21l-.21,0h-.22a.09.09,0,0,1-.1-.1c0-.07.07-.1.2-.1h2.7c.14,0,.21,0,.21.1s0,.1-.11.1h-.15l-.17,0a.41.41,0,0,0-.32.2,1.58,1.58,0,0,0-.1.46,3,3,0,0,0,0,.31c0,.11,0,.26,0,.45v3.53a7.51,7.51,0,0,0,.07,1.13,5,5,0,0,0,.19.82,2.24,2.24,0,0,0,.29.58,3.08,3.08,0,0,0,.37.42,2.28,2.28,0,0,0,.89.53,3.63,3.63,0,0,0,1,.12,2.66,2.66,0,0,0,1.09-.23,2.42,2.42,0,0,0,.84-.62,2.61,2.61,0,0,0,.57-1.25,9.3,9.3,0,0,0,.14-1.67V82.46c0-.3,0-.54,0-.72s0-.33,0-.44,0-.21,0-.31a1.11,1.11,0,0,0-.1-.45c0-.11-.19-.18-.4-.21l-.2,0H132c-.07,0-.1,0-.1-.1s.07-.1.2-.1h1.35l.41,0h.64c.13,0,.2,0,.2.1a.09.09,0,0,1-.1.1h-.15l-.17,0a.46.46,0,0,0-.33.21,1.4,1.4,0,0,0-.11.45c0,.1,0,.2,0,.32v3.57c0,.33,0,.67,0,1a6.27,6.27,0,0,1-.17,1,4.45,4.45,0,0,1-.36.9,2.51,2.51,0,0,1-.59.74A3.52,3.52,0,0,1,132,89a4.1,4.1,0,0,1-.68.26,4,4,0,0,1-.66.12l-.58,0h-.46a4.74,4.74,0,0,1-.67-.1,5.16,5.16,0,0,1-.75-.26,2.39,2.39,0,0,1-.72-.48,4.18,4.18,0,0,1-.43-.49,2.84,2.84,0,0,1-.34-.65,4.23,4.23,0,0,1-.24-.86,6.71,6.71,0,0,1-.08-1.17Z"/><path d="M137.25,89.31a2.92,2.92,0,0,1-.88-.26.32.32,0,0,1-.16-.14,1.76,1.76,0,0,1,0-.31c0-.3,0-.57,0-.79s0-.38,0-.49,0-.2.1-.2.11,0,.11.15a1.49,1.49,0,0,0,0,.19,1.13,1.13,0,0,0,0,.25,1.29,1.29,0,0,0,.27.55,1.62,1.62,0,0,0,.48.37,2.28,2.28,0,0,0,.59.2,2.83,2.83,0,0,0,.63.07,2,2,0,0,0,1.41-.46,1.56,1.56,0,0,0,.47-1.15,1.76,1.76,0,0,0-.09-.58,1.91,1.91,0,0,0-.29-.49,3.72,3.72,0,0,0-.49-.47c-.2-.16-.43-.35-.71-.56l-.56-.42a5.5,5.5,0,0,1-1.4-1.36,2.22,2.22,0,0,1-.39-1.22,2.1,2.1,0,0,1,.2-1,1.9,1.9,0,0,1,.56-.72,2.92,2.92,0,0,1,.88-.45,3.89,3.89,0,0,1,1.12-.15,5.58,5.58,0,0,1,.72,0,5.27,5.27,0,0,1,.58.1l.27,0h.17q.12,0,.12.09s0,.14,0,.35,0,.51,0,.93c0,.18,0,.27-.1.27s-.08,0-.09,0a.53.53,0,0,1,0-.11,1.56,1.56,0,0,0-.07-.3,1.62,1.62,0,0,0-.11-.3.7.7,0,0,0-.13-.15,1.21,1.21,0,0,0-.29-.2,2.22,2.22,0,0,0-.48-.17,3,3,0,0,0-.72-.07,2.06,2.06,0,0,0-1.17.33,1.09,1.09,0,0,0-.49,1,1.78,1.78,0,0,0,.08.53,1.33,1.33,0,0,0,.27.47,3.34,3.34,0,0,0,.5.49c.2.16.46.35.77.56l.35.24a7.48,7.48,0,0,1,1,.74,4.4,4.4,0,0,1,.63.71,2.47,2.47,0,0,1,.35.71,2.67,2.67,0,0,1,.11.75,2.57,2.57,0,0,1-.25,1.07,2.42,2.42,0,0,1-.92,1,2.25,2.25,0,0,1-.93.34,6.38,6.38,0,0,1-1.05.09,6.22,6.22,0,0,1-.94-.07"/><path d="M149.47,83.59V81.75c0-.19,0-.34,0-.45s0-.21,0-.31a1.17,1.17,0,0,0-.12-.46c0-.11-.18-.17-.39-.2l-.21,0h-.22a.09.09,0,0,1-.1-.1c0-.07.07-.1.2-.1h4.22a7.71,7.71,0,0,1,1.32.12,5.7,5.7,0,0,1,1.36.4,4.05,4.05,0,0,1,1.23.85,4.93,4.93,0,0,1,.85,1.22,4.14,4.14,0,0,1,.37,1.84,5.17,5.17,0,0,1-.11,1.07,5.64,5.64,0,0,1-.3.93,4.48,4.48,0,0,1-.43.78,6.57,6.57,0,0,1-.51.61,4,4,0,0,1-.51.46,4.09,4.09,0,0,1-.78.44,5.48,5.48,0,0,1-1.08.35,6.07,6.07,0,0,1-1.41.14c-.28,0-.57,0-.88,0l-.87,0-.7,0-.32,0h-.51l-.4,0h-.35c-.14,0-.2,0-.2-.1a.09.09,0,0,1,.1-.1h.19l.19,0a.29.29,0,0,0,.23-.21,2.51,2.51,0,0,0,.1-.43q0-.37.06-1c0-.45,0-1,0-1.56Zm1.13,1.31v1.71c0,.23,0,.42,0,.58s0,.27,0,.33,0,.32,0,.5a.83.83,0,0,0,.1.37,1,1,0,0,0,.18.17,1.56,1.56,0,0,0,.36.15,3.45,3.45,0,0,0,.61.12c.24,0,.55,0,.92,0a4.47,4.47,0,0,0,1.61-.28,3.7,3.7,0,0,0,1.31-.81,2.69,2.69,0,0,0,.43-.55,3.43,3.43,0,0,0,.3-.7,6.09,6.09,0,0,0,.19-.79,5.9,5.9,0,0,0,.06-.83,4.74,4.74,0,0,0-.11-1,4.45,4.45,0,0,0-.29-.85,3.46,3.46,0,0,0-.38-.66,5.11,5.11,0,0,0-.4-.47,3.94,3.94,0,0,0-.91-.71,4.23,4.23,0,0,0-1-.41,5.25,5.25,0,0,0-1.05-.19c-.36,0-.72,0-1.09,0l-.43,0a1.64,1.64,0,0,0-.32.06.22.22,0,0,0-.16.24Z"/><path d="M161,83.59V81.75c0-.19,0-.34,0-.45s0-.21,0-.31a1.17,1.17,0,0,0-.12-.46c-.05-.11-.19-.17-.39-.2l-.21,0H160c-.07,0-.1,0-.1-.1s.07-.1.2-.1h4.43l.34,0,.22,0,.09,0,.08,0s.06,0,.06.11a.88.88,0,0,1,0,.2,1.73,1.73,0,0,0-.07.37,1,1,0,0,1,0,.15,2.32,2.32,0,0,1,0,.24c0,.08,0,.16,0,.24a.72.72,0,0,1,0,.17.59.59,0,0,1,0,.08.08.08,0,0,1-.07,0c-.07,0-.1,0-.1-.15a1.76,1.76,0,0,0,0-.19,1,1,0,0,0-.05-.24l-.08-.13a.35.35,0,0,0-.15-.09,1.15,1.15,0,0,0-.26-.08,2.63,2.63,0,0,0-.41-.07l-.35,0h-1.45c-.05,0-.07,0-.07.13V84c0,.08,0,.12.07.12h1.66l.43,0,.37-.05a.55.55,0,0,0,.24-.12c.1-.11.16-.16.18-.16s.07,0,.07.1a1.26,1.26,0,0,1,0,.21,3,3,0,0,0-.07.46c0,.12,0,.27,0,.44s0,.29,0,.34a.78.78,0,0,1,0,.14c0,.06-.05.08-.1.08s-.08,0-.08-.11a1.28,1.28,0,0,0,0-.19.63.63,0,0,0-.05-.21.4.4,0,0,0-.15-.22,1,1,0,0,0-.49-.15l-.41,0-.58,0h-.89c-.06,0-.09,0-.09.08v3.07a2.13,2.13,0,0,0,.07.49.53.53,0,0,0,.22.29,1.19,1.19,0,0,0,.45.15,7.48,7.48,0,0,0,.75,0h.62a1.76,1.76,0,0,0,.63-.12.91.91,0,0,0,.37-.29,1.25,1.25,0,0,0,.2-.54c0-.13.07-.19.12-.19s.07,0,.07.06a.51.51,0,0,1,0,.13s0,.07,0,.17a2.23,2.23,0,0,1,0,.34c0,.13,0,.25,0,.37a2.57,2.57,0,0,1-.06.28.61.61,0,0,1-.08.18.27.27,0,0,1-.12.09.5.5,0,0,1-.19,0h-1.56l-.92,0-.65,0h-.57l-.35,0-.38,0h-.35c-.13,0-.19,0-.19-.1s0-.1.09-.1a.71.71,0,0,0,.2,0l.19,0a.27.27,0,0,0,.23-.2,2.79,2.79,0,0,0,.09-.44,8.38,8.38,0,0,0,.07-1c0-.45,0-1,0-1.56Z"/><path d="M173.7,82.61V80.43c0-.22,0-.39,0-.52s0-.25,0-.36a1.27,1.27,0,0,0-.14-.56.7.7,0,0,0-.47-.25,1,1,0,0,0-.23,0h-.25c-.08,0-.11,0-.11-.09s.07-.11.22-.11h.51l.51,0H175l.52,0H176a8.89,8.89,0,0,1,1.36.1,2.94,2.94,0,0,1,1.24.52l.3.28a2.29,2.29,0,0,1,.31.42,2.55,2.55,0,0,1,.26.55,2.11,2.11,0,0,1,.11.68,3.66,3.66,0,0,1-.39,1.6,5.86,5.86,0,0,1-1.33,1.68l1.6,2c.49.62.93,1.15,1.35,1.59a3.49,3.49,0,0,0,1,.8,3.59,3.59,0,0,0,.71.22l.34,0h.21c.09,0,.13,0,.13.09a.08.08,0,0,1-.07.09.91.91,0,0,1-.27,0h-1a7.09,7.09,0,0,1-.92,0,1.68,1.68,0,0,1-.59-.22,2.78,2.78,0,0,1-.88-.76c-.29-.34-.63-.78-1-1.32l-.45-.61-.44-.6c-.13-.19-.26-.36-.38-.52l-.28-.37a.23.23,0,0,0-.18-.09l-1.75,0q-.09,0-.09.12v2.16a12,12,0,0,0,.07,1.26,1.73,1.73,0,0,0,.12.52.52.52,0,0,0,.43.26l.35,0h.29c.07,0,.11,0,.11.09s-.07.11-.23.11h-.59l-.55,0h-.6l-.51,0-.44,0h-.38c-.16,0-.23,0-.23-.11s0-.09.11-.09H173l.21,0a.38.38,0,0,0,.29-.26,2.68,2.68,0,0,0,.12-.52,10.13,10.13,0,0,0,.06-1.26c0-.53,0-1.14,0-1.82Zm1.14,1.24a.2.2,0,0,0,.09.17,1.89,1.89,0,0,0,.59.16,6.58,6.58,0,0,0,.9.06,2.53,2.53,0,0,0,.54,0,1.18,1.18,0,0,0,.53-.22,2,2,0,0,0,.62-.81,3.5,3.5,0,0,0,.24-1.37,3.06,3.06,0,0,0-.65-2.09,2.25,2.25,0,0,0-1.8-.75,5,5,0,0,0-.58,0L175,79c-.08,0-.11.08-.11.17Z"/><path d="M183.43,83.59V81.3c0-.11,0-.21,0-.31a1.28,1.28,0,0,0-.12-.45c0-.11-.19-.18-.4-.21l-.2,0h-.22c-.07,0-.1,0-.1-.1s.07-.1.2-.1h2.69c.15,0,.22,0,.22.1s0,.1-.12.1h-.14l-.17,0a.4.4,0,0,0-.32.2,1.31,1.31,0,0,0-.1.46l0,.31v4a7.51,7.51,0,0,0,.07,1.13,5,5,0,0,0,.19.82,2.24,2.24,0,0,0,.29.58,2.53,2.53,0,0,0,.37.42,2.28,2.28,0,0,0,.89.53,3.58,3.58,0,0,0,1,.12,2.66,2.66,0,0,0,1.09-.23,2.42,2.42,0,0,0,.84-.62,2.71,2.71,0,0,0,.57-1.25,9.3,9.3,0,0,0,.14-1.67V82.46c0-.3,0-.54,0-.72s0-.33,0-.44,0-.21,0-.31a1.11,1.11,0,0,0-.1-.45.5.5,0,0,0-.4-.21l-.2,0h-.22c-.07,0-.1,0-.1-.1s.06-.1.2-.1h1.34l.42,0h.63c.14,0,.2,0,.2.1s0,.1-.1.1h-.14l-.17,0a.46.46,0,0,0-.33.21,1.4,1.4,0,0,0-.11.45c0,.1,0,.2,0,.32v3.57c0,.33,0,.67-.05,1a4.57,4.57,0,0,1-.17,1,3.91,3.91,0,0,1-.35.9,2.39,2.39,0,0,1-.6.74,3.2,3.2,0,0,1-.68.47,4.19,4.19,0,0,1-.69.26,3.89,3.89,0,0,1-.65.12l-.59,0h-.45a4.74,4.74,0,0,1-.67-.1,5.27,5.27,0,0,1-.76-.26,2.23,2.23,0,0,1-.71-.48,2.9,2.9,0,0,1-.43-.49,3.32,3.32,0,0,1-.35-.65,4.26,4.26,0,0,1-.23-.86,6.63,6.63,0,0,1-.09-1.17Z"/><path d="M194.29,89.31a2.84,2.84,0,0,1-.88-.26.28.28,0,0,1-.16-.14,1,1,0,0,1,0-.31c0-.3,0-.57,0-.79s0-.38,0-.49,0-.2.1-.2.12,0,.12.15v.19c0,.08,0,.16,0,.25a1.29,1.29,0,0,0,.27.55,1.62,1.62,0,0,0,.48.37,2.28,2.28,0,0,0,.59.2,2.7,2.7,0,0,0,.63.07,2,2,0,0,0,1.41-.46,1.56,1.56,0,0,0,.47-1.15,1.76,1.76,0,0,0-.1-.58,1.63,1.63,0,0,0-.28-.49,3.72,3.72,0,0,0-.49-.47l-.71-.56-.57-.42a5.6,5.6,0,0,1-1.39-1.36,2.24,2.24,0,0,1-.2-2.17,2,2,0,0,1,.57-.72,3,3,0,0,1,.87-.45,4,4,0,0,1,1.13-.15,5.58,5.58,0,0,1,.72,0,4.67,4.67,0,0,1,.57.1l.28,0H198c.09,0,.13,0,.13.09s0,.14,0,.35,0,.51,0,.93c0,.18,0,.27-.1.27a.08.08,0,0,1-.08,0,.53.53,0,0,1,0-.11,1.56,1.56,0,0,0-.07-.3,3,3,0,0,0-.11-.3l-.13-.15a1.21,1.21,0,0,0-.29-.2,2.22,2.22,0,0,0-.48-.17,3,3,0,0,0-.72-.07,2,2,0,0,0-1.17.33,1.09,1.09,0,0,0-.49,1,1.51,1.51,0,0,0,.08.53,1.33,1.33,0,0,0,.27.47,3.23,3.23,0,0,0,.49.49c.21.16.46.35.78.56l.35.24a7.48,7.48,0,0,1,1,.74,4.4,4.4,0,0,1,.63.71,2.47,2.47,0,0,1,.35.71,2.66,2.66,0,0,1,.1.75,2.56,2.56,0,0,1-.24,1.07,2.42,2.42,0,0,1-.92,1,2.29,2.29,0,0,1-.94.34,6.38,6.38,0,0,1-1.05.09,6.19,6.19,0,0,1-.93-.07"/><path d="M201.72,89.31a2.92,2.92,0,0,1-.88-.26.29.29,0,0,1-.15-.14,1,1,0,0,1,0-.31c0-.3,0-.57,0-.79s0-.38,0-.49,0-.2.1-.2.11,0,.11.15a1.49,1.49,0,0,0,0,.19,2.42,2.42,0,0,0,0,.25,1.29,1.29,0,0,0,.27.55,1.92,1.92,0,0,0,.48.37,2.23,2.23,0,0,0,.6.2,2.7,2.7,0,0,0,.63.07,2,2,0,0,0,1.4-.46,1.56,1.56,0,0,0,.47-1.15,1.76,1.76,0,0,0-.09-.58,1.66,1.66,0,0,0-.29-.49,3.18,3.18,0,0,0-.49-.47l-.7-.56-.57-.42a5.68,5.68,0,0,1-1.4-1.36,2.2,2.2,0,0,1-.19-2.17,1.83,1.83,0,0,1,.57-.72,2.75,2.75,0,0,1,.87-.45,3.91,3.91,0,0,1,1.13-.15,5.53,5.53,0,0,1,.71,0,4.88,4.88,0,0,1,.58.1l.27,0h.17c.08,0,.13,0,.13.09s0,.14,0,.35,0,.51,0,.93c0,.18,0,.27-.1.27s-.08,0-.09,0a.27.27,0,0,1,0-.11,1.7,1.7,0,0,0-.08-.3,1.12,1.12,0,0,0-.11-.3.7.7,0,0,0-.13-.15,1,1,0,0,0-.29-.2,2.22,2.22,0,0,0-.48-.17,2.92,2.92,0,0,0-.72-.07,2.06,2.06,0,0,0-1.17.33,1.12,1.12,0,0,0-.49,1,1.78,1.78,0,0,0,.08.53,1.33,1.33,0,0,0,.27.47,3.34,3.34,0,0,0,.5.49c.2.16.46.35.77.56l.36.24a8.08,8.08,0,0,1,.95.74,4.4,4.4,0,0,1,.63.71,2.23,2.23,0,0,1,.35.71,2.67,2.67,0,0,1,.11.75,2.43,2.43,0,0,1-.25,1.07,2.39,2.39,0,0,1-.91,1,2.35,2.35,0,0,1-.94.34,6.38,6.38,0,0,1-1.05.09,6.32,6.32,0,0,1-.94-.07"/><path d="M211.23,80.34a1.82,1.82,0,0,1,.17-.38c0-.06.08-.09.13-.09s.11,0,.15.12.08.19.14.32.13.29.25.6l.46,1.13.59,1.44q.33.8.63,1.56c.21.51.41,1,.59,1.45l.48,1.14a4.09,4.09,0,0,0,.32.66,2.2,2.2,0,0,0,.28.38,1,1,0,0,0,.25.2.8.8,0,0,0,.21.08l.27.06h.23a.23.23,0,0,1,.11,0,.08.08,0,0,1,0,.07s0,.07-.09.08a.62.62,0,0,1-.2,0h-1.32l-.65,0-.31,0c-.09,0-.13,0-.13-.06a.06.06,0,0,1,0,0s0,0,.06,0a.44.44,0,0,0,.13-.09.21.21,0,0,0,0-.23l-1.12-2.77a.13.13,0,0,0-.12-.07h-2.88a.12.12,0,0,0-.12.1l-.71,1.93a2.22,2.22,0,0,0-.19.81A.25.25,0,0,0,209,89a.57.57,0,0,0,.29.07h.11c.09,0,.13,0,.13.1s-.06.1-.19.1h-.28l-.34,0h-1l-.38,0H207c-.16,0-.24,0-.24-.1a.1.1,0,0,1,.11-.1h.19l.18,0a.92.92,0,0,0,.65-.36,3.72,3.72,0,0,0,.4-.75Zm1.39,5s0,0,0-.08L211.43,82c-.08-.18-.15-.18-.22,0l-1.16,3.31c0,.06,0,.08,0,.08Z"/><path d="M218,89.31a2.92,2.92,0,0,1-.88-.26c-.08,0-.14-.09-.15-.14a1,1,0,0,1,0-.31c0-.3,0-.57,0-.79s0-.38,0-.49,0-.2.1-.2.11,0,.11.15a1.49,1.49,0,0,0,0,.19,1.13,1.13,0,0,0,0,.25,1.29,1.29,0,0,0,.27.55,1.76,1.76,0,0,0,.48.37,2.28,2.28,0,0,0,.59.2,2.85,2.85,0,0,0,.64.07,2,2,0,0,0,1.4-.46,1.56,1.56,0,0,0,.47-1.15,1.76,1.76,0,0,0-.09-.58,1.91,1.91,0,0,0-.29-.49,3.72,3.72,0,0,0-.49-.47c-.2-.16-.43-.35-.71-.56l-.56-.42a5.5,5.5,0,0,1-1.4-1.36,2.22,2.22,0,0,1-.39-1.22,2.1,2.1,0,0,1,.2-1,1.9,1.9,0,0,1,.56-.72,2.92,2.92,0,0,1,.88-.45,3.89,3.89,0,0,1,1.12-.15,5.58,5.58,0,0,1,.72,0,5.27,5.27,0,0,1,.58.1l.27,0h.17q.12,0,.12.09s0,.14,0,.35,0,.51,0,.93c0,.18,0,.27-.1.27s-.08,0-.09,0a.53.53,0,0,1,0-.11,1.56,1.56,0,0,0-.07-.3,1.12,1.12,0,0,0-.11-.3.7.7,0,0,0-.13-.15,1,1,0,0,0-.29-.2,2.22,2.22,0,0,0-.48-.17,3,3,0,0,0-.72-.07,2.06,2.06,0,0,0-1.17.33,1.09,1.09,0,0,0-.49,1,1.78,1.78,0,0,0,.08.53,1.33,1.33,0,0,0,.27.47,3.34,3.34,0,0,0,.5.49c.2.16.46.35.77.56l.35.24a7.48,7.48,0,0,1,1,.74,4.4,4.4,0,0,1,.63.71,2.47,2.47,0,0,1,.35.71,2.67,2.67,0,0,1,.11.75,2.57,2.57,0,0,1-.25,1.07,2.42,2.42,0,0,1-.92,1,2.25,2.25,0,0,1-.93.34,6.38,6.38,0,0,1-1.05.09,6.22,6.22,0,0,1-.94-.07"/></g></g></svg>