<?xml version="1.0" encoding="UTF-8" standalone="no"?>
<svg
   xmlns:dc="http://purl.org/dc/elements/1.1/"
   xmlns:cc="http://creativecommons.org/ns#"
   xmlns:rdf="http://www.w3.org/1999/02/22-rdf-syntax-ns#"
   xmlns:svg="http://www.w3.org/2000/svg"
   xmlns="http://www.w3.org/2000/svg"
   xmlns:sodipodi="http://sodipodi.sourceforge.net/DTD/sodipodi-0.dtd"
   xmlns:inkscape="http://www.inkscape.org/namespaces/inkscape"
   viewBox="0 0 640 320.05197"
   version="1.1"
   id="svg584"
   sodipodi:docname="rodape_2020_2.svg"
   width="640"
   height="320.05197"
   inkscape:version="1.0.1 (3bc2e813f5, 2020-09-07)">
  <metadata
     id="metadata588">
    <rdf:RDF>
      <cc:Work
         rdf:about="">
        <dc:format>image/svg+xml</dc:format>
        <dc:type
           rdf:resource="http://purl.org/dc/dcmitype/StillImage" />
        <dc:title>rodape_2020</dc:title>
      </cc:Work>
    </rdf:RDF>
  </metadata>
  <sodipodi:namedview
     pagecolor="#ffffff"
     bordercolor="#666666"
     borderopacity="1"
     objecttolerance="10"
     gridtolerance="10"
     guidetolerance="10"
     inkscape:pageopacity="0"
     inkscape:pageshadow="2"
     inkscape:window-width="1366"
     inkscape:window-height="704"
     id="namedview586"
     showgrid="false"
     inkscape:zoom="0.6078125"
     inkscape:cx="180.32515"
     inkscape:cy="160.02603"
     inkscape:window-x="0"
     inkscape:window-y="27"
     inkscape:window-maximized="1"
     inkscape:current-layer="svg584" />
  <defs
     id="defs512">
    <style
       id="style501">.cls-1{fill:none;}.cls-2{isolation:isolate;}.cls-3{fill:#fff;}.cls-4{fill:#1d1d1b;}.cls-5{fill:#3359a4;}.cls-6{fill:#ee84b3;}.cls-7{fill:#f0f0f0;}.cls-8{fill:#e85417;}.cls-9{mix-blend-mode:difference;}.cls-10{clip-path:url(#clip-path);}.cls-11{fill:#40a7de;}.cls-12{clip-path:url(#clip-path-2);}.cls-13{clip-path:url(#clip-path-3);}</style>
    <clipPath
       id="clip-path">
      <rect
         class="cls-1"
         x="1600"
         y="159.74001"
         width="0.0099999998"
         height="0.25999999"
         id="rect503" />
    </clipPath>
    <clipPath
       id="clip-path-2">
      <rect
         class="cls-1"
         x="1600"
         y="159.74001"
         width="160"
         height="138.85001"
         id="rect506" />
    </clipPath>
    <clipPath
       id="clip-path-3">
      <rect
         class="cls-1"
         x="1600"
         y="21.41"
         width="159.99001"
         height="138.33"
         id="rect509" />
    </clipPath>
  </defs>
  <title
     id="title514">rodape_2020</title>
  <path
     class="cls-5"
     d="m 160,160.02603 v -0.26 H 2.1022115e-6 v 0.26 A 160,160 0 0 0 240,298.61603 a 160,160 0 0 1 -80,-138.59"
     id="path528"
     style="isolation:isolate" />
  <path
     class="cls-7"
     d="M 240,21.436034 A 160,160 0 0 0 2.1022115e-6,159.76603 H 160 A 159.93,159.93 0 0 1 240,21.436034"
     id="path530"
     style="isolation:isolate" />
  <path
     class="cls-8"
     d="M 240,21.436034 A 160,160 0 0 0 2.1022115e-6,159.76603 H 160 A 159.93,159.93 0 0 1 240,21.436034"
     id="path532"
     style="isolation:isolate" />
  <path
     class="cls-8"
     d="m 400,298.61603 a 160,160 0 0 1 -80,-138.59 160,160 0 0 1 -80,138.59 160.17,160.17 0 0 0 160,0"
     id="path534"
     style="isolation:isolate" />
  <g
     class="cls-9"
     id="g540"
     style="isolation:isolate"
     transform="translate(-1280,0.02603416)">
    <g
       class="cls-10"
       clip-path="url(#clip-path)"
       id="g538">
      <path
         class="cls-11"
         d="M 1600,159.74 Z"
         id="path536" />
    </g>
  </g>
  <path
     class="cls-7"
     d="m 400,21.436034 a 160.17,160.17 0 0 0 -160,0 159.93,159.93 0 0 1 80,138.329996 v 0 A 159.93,159.93 0 0 1 400,21.436034"
     id="path542"
     style="isolation:isolate" />
  <path
     class="cls-5"
     d="m 400,21.436034 a 160.17,160.17 0 0 0 -160,0 159.93,159.93 0 0 1 80,138.329996 v 0 A 159.93,159.93 0 0 1 400,21.436034"
     id="path544"
     style="isolation:isolate" />
  <path
     class="cls-8"
     d="m 320,160.02603 v -0.26 H 160 v 0.26 a 160,160 0 0 0 80,138.59 160,160 0 0 0 80,-138.59"
     id="path546"
     style="isolation:isolate" />
  <path
     class="cls-6"
     d="m 320,160.02603 v -0.26 H 160 v 0.26 a 160,160 0 0 0 80,138.59 160,160 0 0 0 80,-138.59"
     id="path548"
     style="isolation:isolate" />
  <path
     class="cls-7"
     d="M 240,21.436034 A 159.93,159.93 0 0 0 160,159.76603 H 320 A 159.93,159.93 0 0 0 240,21.436034"
     id="path550"
     style="isolation:isolate" />
  <path
     class="cls-8"
     d="M 240,21.436034 A 159.93,159.93 0 0 0 160,159.76603 H 320 A 159.93,159.93 0 0 0 240,21.436034"
     id="path552"
     style="isolation:isolate" />
  <path
     class="cls-4"
     d="M 240,21.436034 A 159.93,159.93 0 0 0 160,159.76603 H 320 A 159.93,159.93 0 0 0 240,21.436034"
     id="path554"
     style="isolation:isolate" />
  <path
     class="cls-5"
     d="m 480,160.02603 a 160,160 0 0 1 -80,138.59 160,160 0 0 0 240,-138.59 v -0.26 H 480 v 0.26"
     id="path556"
     style="isolation:isolate" />
  <path
     class="cls-7"
     d="M 480,0.02603416 A 159.27,159.27 0 0 0 400,21.436034 159.93,159.93 0 0 1 480,159.76603 H 640 A 160,160 0 0 0 480,0.02603416"
     id="path558"
     style="isolation:isolate" />
  <path
     class="cls-8"
     d="M 480,0.02603416 A 159.27,159.27 0 0 0 400,21.436034 159.93,159.93 0 0 1 480,159.76603 H 640 A 160,160 0 0 0 480,0.02603416"
     id="path560"
     style="isolation:isolate" />
  <g
     class="cls-9"
     id="g566"
     style="isolation:isolate"
     transform="translate(-1280,0.02603416)">
    <g
       class="cls-12"
       clip-path="url(#clip-path-2)"
       id="g564">
      <path
         class="cls-11"
         d="m 1760,160 v -0.26 H 1600 V 160 a 160,160 0 0 0 80,138.59 160,160 0 0 0 80,-138.59"
         id="path562" />
    </g>
  </g>
  <path
     class="cls-4"
     d="m 480,160.02603 v -0.26 H 320 v 0.26 a 160,160 0 0 0 80,138.59 160,160 0 0 0 80,-138.59"
     id="path568"
     style="isolation:isolate" />
  <path
     class="cls-7"
     d="M 320,159.76603 H 480 A 159.93,159.93 0 0 0 400,21.436034 159.93,159.93 0 0 0 320,159.76603"
     id="path570"
     style="isolation:isolate" />
  <g
     class="cls-9"
     id="g576"
     style="isolation:isolate"
     transform="translate(-1280,0.02603416)">
    <g
       class="cls-13"
       clip-path="url(#clip-path-3)"
       id="g574">
      <path
         class="cls-11"
         d="m 1600,159.74 h 160 a 159.93,159.93 0 0 0 -80,-138.33 159.93,159.93 0 0 0 -80,138.33"
         id="path572" />
    </g>
  </g>
  <path
     class="cls-6"
     d="M 320,159.76603 H 480 A 159.93,159.93 0 0 0 400,21.436034 159.93,159.93 0 0 0 320,159.76603"
     id="path578"
     style="isolation:isolate" />
</svg>
