<svg xmlns="http://www.w3.org/2000/svg" viewBox="0 0 507.75 302.52"><defs><style>.cls-1{font-size:55px;font-family:Butler-UltraLight, Butler;font-weight:100;}</style></defs><title>assinatura_eu_landingpage</title><g id="Camada_2" data-name="Camada 2"><g id="Camada_1-2" data-name="Camada 1"><text class="cls-1" transform="translate(0.05 47.06) rotate(-0.07)">EU 2021</text><path d="M35.13,121.23l.68,8.68c-4.17,2.76-7.55,3.49-13.59,3.49-11.66,0-19.55-7.78-19.55-20.35S10.56,92.7,22.22,92.7c5.81,0,10,.57,13.59,3.44l-.68,8.74H34.4c-1.58-9.3-7.61-11.44-12.18-11.44-5.86,0-12.34,2.59-12.34,19.61,0,17.31,6.65,19.62,12.34,19.62A12,12,0,0,0,34.4,121.23Z"/><path d="M54.86,93.21v.73c-2.42,0-3.94,1-3.94,4.46v28.46c0,3.84,1.58,5.3,3.94,5.3v.73H41.17v-.73c2.42,0,3.94-1.46,3.94-5.3V98.4c0-3.5-1.46-4.46-3.94-4.46v-.73Z"/><path d="M87.73,121.17v11.72H59.37v-.73c2.37,0,3.05-2,3.05-5.86V99.24c0-3.49-.57-5.3-3.05-5.3v-.73H87v10.15h-.73c-.68-9.3-10.43-9.42-15-9.42h-3v18.55h3.67c1.52,0,7.49,0,7.78-5.69h.73v12.12h-.73c-.29-5.64-6.37-5.7-7.78-5.7H68.22v18.94h2.6c5,0,15,.28,16.17-11ZM80.34,91.46h1.35L73.63,80.87l-8,10.59h1.3l6.7-5.74Z"/><path d="M135.3,93.21v.68c-8.17,0-8,8.12-8,13.36v25.64h-1.81L101.54,102V118.8c0,5,0,13.36,7.38,13.36v.73H92.63v-.73c8.18,0,8.18-8.28,8.18-13.36V101.16l-2.32-3c-3.6-4.51-5.24-4.17-6.7-4.28v-.68h10.43l24.35,31.45V107.25c0-5.24.05-13.36-7.39-13.36v-.68Z"/><path d="M171.44,121.23l.67,8.68c-4.17,2.76-7.55,3.49-13.58,3.49-11.67,0-19.56-7.78-19.56-20.35s7.89-20.35,19.56-20.35c5.8,0,10,.57,13.58,3.44l-.67,8.74h-.74c-1.57-9.3-7.61-11.44-12.17-11.44-5.86,0-12.34,2.59-12.34,19.61,0,17.31,6.65,19.62,12.34,19.62a12,12,0,0,0,12.17-11.44Z"/><path d="M191.17,93.21v.73c-2.43,0-3.95,1-3.95,4.46v28.46c0,3.84,1.58,5.3,3.95,5.3v.73h-13.7v-.73c2.42,0,3.95-1.46,3.95-5.3V98.4c0-3.5-1.47-4.46-3.95-4.46v-.73Z"/><path d="M231.87,132.89H219v-.73c3.05,0,2.48-3.21,1.19-6.37l-2-4.9h-14.6c-1.53,4.51-4,11.5,3.83,11.27v.73H194.89v-.73c2.14,0,3.55-.28,8.45-13.3l9.42-25.65h.62c6.87,16.57,13.86,34.39,13.86,34.39,1.86,4.51,3,4.45,4.63,4.56ZM218,120.16l-7.38-18.72-6.82,18.72Z"/><path d="M285.59,128.84a4.48,4.48,0,0,1-4.23,4.56,6.27,6.27,0,0,1-5.41-2.82l-3.61-5.41c-1.58,6.32-12.45,12.06-18.94,5-6.31-7,0-14.94,4.68-17.47l3.78-2.37-2.43-3.49c-6.14-8-4.28-14.66,2-15.73,3.5-.56,6.37.45,8,2.25,2.87,3.16,4.39,10.6-4.62,16l8.56,12.46c2.14-6.48,5.7-7.44,7.11-7.72a3.36,3.36,0,0,1,2.87.51,2,2,0,0,1,.23,2.87,2.12,2.12,0,0,1-2.94.23,1.61,1.61,0,0,1-.73-1.36c0-1.35-4.34-.5-6.14,6l4.51,6.37a5.88,5.88,0,0,0,4.11,2.76,2.55,2.55,0,0,0,2.76-2.59ZM272,124.72l-9.8-14L258.42,113c-3.55,2.19-8.57,9.3-3,15.61C259.83,133.63,268.85,132.67,272,124.72Zm-7.44-15.78c7.67-4.51,7.78-11.16,4.46-15.33A7,7,0,0,0,261.63,92c-4.51,1.75-3.72,7.39-1,11.39Z"/><path d="M16.25,189.77c-9.19,0-13.42-3.15-13.42-3.15V175.79h.68C4.13,182.67,6.67,189,16.25,189c8.57,0,9.69-9.53,3.1-14.2l-9.36-6c-5.35-3.56-10.48-8.69-6.14-15.34,0,0,2.76-4.39,10.6-4.39,8.17,0,12.9,2.65,12.9,2.65v9.47h-.79c-.5-5.53-2.7-11.39-12.11-11.39-6.09,0-10.71,7.83-2.2,13.36l9.3,6.14c7.55,5,8.79,11.22,5.86,15.84C27.41,185.15,25,189.77,16.25,189.77Z"/><path d="M52.83,189.77c-12.4,0-18.32-8.85-18.32-20.06s5.92-20.63,18.32-20.63,18.32,9.47,18.32,20.63S65.23,189.77,52.83,189.77Zm0-40c-6.7,0-11.83,4.45-11.83,19.9S46.13,189,52.83,189s11.78-3.83,11.78-19.33S59.49,149.81,52.83,149.81Z"/><path d="M108.53,177.6l.67,8.68c-4.17,2.76-7.55,3.49-13.58,3.49-11.67,0-19.56-7.78-19.56-20.35S84,149.08,95.62,149.08c5.81,0,10,.56,13.58,3.43l-.67,8.74h-.73c-1.58-9.3-7.61-11.44-12.18-11.44-5.86,0-12.34,2.59-12.34,19.61,0,17.31,6.65,19.62,12.34,19.62A12,12,0,0,0,107.8,177.6Z"/><path d="M128.26,149.58v.74c-2.42,0-3.95,1-3.95,4.45v28.46c0,3.84,1.58,5.3,3.95,5.3v.74h-13.7v-.74c2.43,0,4-1.46,4-5.3V154.77c0-3.49-1.47-4.45-4-4.45v-.74Z"/><path d="M161.12,177.54v11.73H132.77v-.74c2.37,0,3-2,3-5.86V155.61c0-3.49-.56-5.29-3-5.29v-.74h27.62v10.15h-.73c-.68-9.3-10.43-9.41-15-9.41h-3v18.54h3.66c1.52,0,7.5,0,7.78-5.69h.73v12.12h-.73c-.28-5.64-6.37-5.7-7.78-5.7h-3.66v18.94h2.59c5,0,15,.28,16.18-11Z"/><path d="M179.22,189.27H167.1v-.74c2.42,0,3.83-2.14,3.83-6V156.24c0-3.5-1.35-5.92-3.83-5.92v-.74h12.12c11.22,0,22.38,3.44,22.38,20C201.6,186.56,190.44,189.27,179.22,189.27Zm0-39h-2.48v38.21h2.48c6.09,0,15.61-.28,15.61-19C194.83,151.33,185.42,150.32,179.22,150.32Z"/><path d="M239.82,189.27H227v-.74c3,0,2.48-3.21,1.19-6.37l-2-4.9H211.58c-1.53,4.51-4,11.5,3.83,11.27v.74H202.84v-.74c2.14-.05,3.55-.28,8.45-13.3l9.42-25.65h.62C228.2,166.16,235.19,184,235.19,184c1.86,4.51,3.05,4.45,4.63,4.56ZM226,176.53l-7.38-18.72-6.83,18.72Z"/><path d="M255.55,189.27H243.43v-.74c2.42,0,3.83-2.14,3.83-6V156.24c0-3.5-1.35-5.92-3.83-5.92v-.74h12.12c11.21,0,22.37,3.44,22.37,20C277.92,186.56,266.76,189.27,255.55,189.27Zm0-39h-2.48v38.21h2.48c6.08,0,15.61-.28,15.61-19C271.16,151.33,261.75,150.32,255.55,150.32Z"/><path d="M311.41,177.54v11.73H283.06v-.74c2.36,0,3-2,3-5.86V155.61c0-3.49-.57-5.29-3-5.29v-.74h27.61v10.15h-.73c-.67-9.3-10.43-9.41-15-9.41H291.9v18.54h3.67c1.52,0,7.49,0,7.78-5.69h.73v12.12h-.73c-.29-5.64-6.37-5.7-7.78-5.7H291.9v18.94h2.6c5,0,15,.28,16.17-11Z"/><path d="M24.76,241.52s-2.14,4.62-10.54,4.62c-7.44,0-11.44-2.87-11.44-2.87V232.45h.45c0,10.31,1.8,13.19,10.93,13.19,11.11,0,11.56-10.88,5.19-15.22l-10-6.65c-2.7-2.09-10-6.65-6-13.87,0,0,2.76-4.45,9.58-4.45A24.8,24.8,0,0,1,24.2,208v9.47h-.57c0-8.12-1-11.55-10.71-11.55-6.08,0-13.13,8.22-3.49,14.48l9.92,6.48C27,232,26.45,238.37,24.76,241.52Z"/><path d="M55.14,234.48v11.16H30.23v-.51c2.37,0,2.76-1.13,2.76-5v-30c0-3.49-.28-3.72-2.76-3.72V206H54.41v9.58H53.9c0-8.91-4.22-9.08-13.35-9.08H36.43v18.89h5.3c3,0,6.48-.06,6.48-5.53h.51v11.56h-.51c0-5.47-3.61-5.53-6.48-5.53h-5.3v19.28h3.16c10,0,15,.51,15-10.65Z"/><path d="M101.88,233.91v11.73H73.52v-.74c2.37,0,3-2,3-5.86V212c0-3.5-.57-5.3-3-5.3V206h27.62V216.1h-.73c-.68-9.3-10.43-9.41-15-9.41h-3v18.54H86c1.52,0,7.49,0,7.78-5.69h.73v12.12h-.73C93.53,226,87.45,226,86,226H82.37V244.9H85c5,0,15,.29,16.18-11Z"/><path d="M149.45,206v.67c-8.17,0-8,8.12-8,13.36v25.65h-1.81l-23.95-30.89v16.8c0,5,0,13.35,7.38,13.35v.74H106.78v-.74c8.17,0,8.17-8.28,8.17-13.35V213.9l-2.31-3c-3.6-4.51-5.24-4.18-6.7-4.29V206h10.42l24.35,31.45V220c0-5.24.06-13.36-7.38-13.36V206Z"/><path d="M185.59,234l.67,8.68c-4.17,2.76-7.55,3.49-13.58,3.49-11.67,0-19.56-7.77-19.56-20.34s7.89-20.35,19.56-20.35c5.8,0,10,.56,13.58,3.44l-.67,8.73h-.74c-1.57-9.3-7.61-11.44-12.17-11.44-5.86,0-12.35,2.59-12.35,19.62,0,17.3,6.66,19.61,12.35,19.61A12,12,0,0,0,184.85,234Z"/><path d="M209.32,246.14c-12.4,0-18.32-8.84-18.32-20.06s5.92-20.63,18.32-20.63,18.32,9.47,18.32,20.63S221.72,246.14,209.32,246.14Zm0-40c-6.71,0-11.84,4.45-11.84,19.9s5.13,19.33,11.84,19.33,11.78-3.83,11.78-19.33S216,206.18,209.32,206.18Z"/><path d="M274.37,206v.67c-8.17,0-8,8.12-8,13.36v25.65h-1.81l-23.95-30.89v16.8c0,5,0,13.35,7.38,13.35v.74H231.7v-.74c8.17,0,8.17-8.28,8.17-13.35V213.9l-2.31-3c-3.61-4.51-5.24-4.18-6.71-4.29V206h10.43l24.35,31.45V220c0-5.24.06-13.36-7.38-13.36V206Z"/><path d="M311.35,206v9.92h-.73c-.23-9.08-9.64-9.19-10.43-9.19h-3.33v33.48c0,3.72,1.75,4.73,4.12,4.73v.74H287.22v-.74c2.37,0,4.06-1,4.06-4.73V206.69H288c-1.75,0-10.15.11-10.37,9.19h-.74V206Z"/><path d="M348.44,245.64h-4.28c-7.22,0-6.37-.06-9.58-12.29-1.58-5.92-7.28-5.92-8.74-5.92h-2.65v12.35c0,3.88,1.24,5.12,3.61,5.12v.74H314.17v-.74c2.42,0,3.5-1.12,3.5-5.86V211c0-3.49-1-4.28-3.5-4.28V206h10.77c11.21,0,17.41,1.35,17.41,10.76,0,7.67-4.39,9.92-10.48,10.32,3.72.17,7.61.56,10.54,12.9a6.23,6.23,0,0,0,6,5Zm-23.5-38.95h-1.75v20h1.75c6.37,0,11.21.05,11.21-10C336.15,206.46,331,206.69,324.94,206.69Z"/><path d="M386.72,245.64H373.87v-.74c3,0,2.48-3.21,1.18-6.37l-2-4.9h-14.6c-1.52,4.51-4,11.5,3.83,11.27v.74H349.74v-.74c2.14-.05,3.55-.28,8.46-13.3L367.61,206h.62c6.88,16.57,13.87,34.38,13.87,34.38,1.86,4.51,3,4.45,4.62,4.56ZM372.85,232.9l-7.38-18.72-6.82,18.72Z"/><path d="M437.56,244.9v.74H423.13v-.74c2.37,0,4.06-1.29,4.06-5.86V208.1l-13.64,38h-.68l-15.72-34.49V231.6c0,6.54,1,13.3,7.21,13.3v.74H388.41v-.74c7,0,8-6.93,8-13.3V210.41a6.85,6.85,0,0,0-6.32-3.72V206h11.22L416,237.86,427.19,206h10v.73c-2.42,0-4.34,1.13-4.34,5V239C432.83,243.61,435.14,244.9,437.56,244.9Z"/><path d="M41.84,262.33v.45c-7.78,0-7.55,2.82-7.55,13.3V302h-.62L10.33,271.18v17c0,10,.06,13.3,7.1,13.3V302H2v-.51c7.78,0,7.83-3.15,7.83-13.3V270.5L7.4,267.29c-3.61-4.51-5.24-4.4-6.71-4.51v-.45H7.74l26,34.89V276.08c0-10.48,0-13.3-7-13.3v-.45Z"/><path d="M77.92,301.5V302H68.34v-.51c1.69,0,3.49-.39.84-6.71L67,289H51.15c-3.11,9-4.51,12.46,2.25,12.46V302H42.13v-.51c2.81,0,4.22-1,8.45-13.58l9.13-25.59h.23l13.47,34.1C75.21,300.94,76.23,301.39,77.92,301.5Zm-11.1-13-8-20.91-7.5,20.91Z"/><path d="M97.88,288.48V268c0-3.83-1.53-4.9-4-4.9v-.73h14v.73c-2.42,0-4.45.51-4.45,5v21c0,7,4.17,11,10.26,11,5.74,0,10.2-4,10.2-11.27V273.37c0-5.29-.12-10.31-6.71-10.31v-.73h14.66v.73c-7.39,0-7.22,5-7.22,10.31v15.34c0,10.09-6.76,13.81-13.7,13.81C103.63,302.52,97.88,297.67,97.88,288.48Z"/><path d="M177.24,262.33V263c-8.17,0-8,8.12-8,13.36V302h-1.8l-24-30.89v16.8c0,5,0,13.36,7.38,13.36V302H134.57v-.73c8.18,0,8.18-8.29,8.18-13.36V270.27l-2.31-3c-3.61-4.51-5.25-4.17-6.71-4.29v-.67h10.43l24.35,31.45V276.36c0-5.24.05-13.36-7.39-13.36v-.67Z"/><path d="M195.28,262.33v.73c-2.42,0-3.94,1-3.94,4.45V296c0,3.83,1.58,5.3,3.94,5.3V302H181.59v-.73c2.42,0,3.94-1.47,3.94-5.3V267.51c0-3.49-1.46-4.45-3.94-4.45v-.73Z"/><path d="M238.58,262.33v.73c-3.72,0-5.13,0-10.26,13.47L218.62,302h-.79c-6.93-16.57-13.64-34.84-13.64-34.84-1.63-4-3.44-4.11-5.35-4.11v-.73H214v.73c-4.68,0-3.5,4.62-3.38,5l10,26.88,7-18.54c1.75-5.24,5.07-13.36-3-13.36v-.73Z"/><path d="M270,290.28V302H241.68v-.73c2.37,0,3-2,3-5.87V268.36c0-3.5-.56-5.3-3-5.3v-.73H269.3v10.14h-.73c-.68-9.3-10.43-9.41-15-9.41h-3V281.6h3.66c1.52,0,7.5,0,7.78-5.69h.73V288H262c-.28-5.64-6.37-5.69-7.78-5.69h-3.66v18.94h2.59c5,0,15,.28,16.18-11Z"/><path d="M309.43,302h-4.28c-7.21,0-6.37-.06-9.58-12.29-1.58-5.92-7.27-5.92-8.74-5.92h-2.65v12.35c0,3.89,1.24,5.13,3.61,5.13V302H275.16v-.73c2.43,0,3.5-1.13,3.5-5.87V267.34c0-3.49-1-4.28-3.5-4.28v-.73h10.77c11.22,0,17.42,1.35,17.42,10.76,0,7.67-4.4,9.92-10.49,10.32,3.72.17,7.61.56,10.54,12.91a6.25,6.25,0,0,0,6,5Zm-23.5-38.95h-1.75v20h1.75c6.37,0,11.22.06,11.22-10C297.15,262.83,292,263.06,285.93,263.06Z"/><path d="M325.61,302.52c-9.18,0-13.41-3.16-13.41-3.16V288.54h.68c.62,6.87,3.15,13.24,12.73,13.24,8.57,0,9.7-9.52,3.11-14.2l-9.36-6c-5.36-3.55-10.49-8.68-6.15-15.33,0,0,2.77-4.4,10.6-4.4,8.17,0,12.91,2.65,12.91,2.65v9.47h-.79c-.51-5.53-2.71-11.39-12.12-11.39-6.09,0-10.71,7.84-2.2,13.36l9.3,6.15c7.56,5,8.8,11.21,5.87,15.83C336.78,297.89,334.35,302.52,325.61,302.52Z"/><path d="M358.2,262.33v.73c-2.43,0-3.95,1-3.95,4.45V296c0,3.83,1.58,5.3,3.95,5.3V302H344.5v-.73c2.42,0,3.95-1.47,3.95-5.3V267.51c0-3.49-1.47-4.45-3.95-4.45v-.73Z"/><path d="M375.56,302H363.44v-.73c2.42,0,3.83-2.15,3.83-6V269c0-3.5-1.35-5.92-3.83-5.92v-.73h12.12c11.22,0,22.38,3.44,22.38,19.95C397.94,299.3,386.78,302,375.56,302Zm0-38.95h-2.48v38.22h2.48c6.09,0,15.61-.29,15.61-19C391.17,264.07,381.76,263.06,375.56,263.06Z"/><path d="M436.16,302H423.3v-.73c3.05,0,2.49-3.22,1.19-6.37l-2-4.91h-14.6c-1.52,4.51-4,11.5,3.83,11.28V302H399.18v-.73c2.14-.06,3.55-.29,8.46-13.31l9.41-25.64h.62c6.87,16.57,13.86,34.38,13.86,34.38,1.86,4.51,3.05,4.45,4.63,4.57Zm-13.87-12.74-7.38-18.71-6.82,18.71Z"/><path d="M451.89,302H439.77v-.73c2.42,0,3.83-2.15,3.83-6V269c0-3.5-1.35-5.92-3.83-5.92v-.73h12.12c11.21,0,22.37,3.44,22.37,19.95C474.26,299.3,463.1,302,451.89,302Zm0-38.95h-2.48v38.22h2.48c6.08,0,15.61-.29,15.61-19C467.5,264.07,458.09,263.06,451.89,263.06Z"/><path d="M507.75,290.28V302H479.4v-.73c2.36,0,3-2,3-5.87V268.36c0-3.5-.56-5.3-3-5.3v-.73H507v10.14h-.74c-.67-9.3-10.42-9.41-15-9.41h-3V281.6h3.66c1.52,0,7.5,0,7.78-5.69h.73V288h-.73c-.28-5.64-6.37-5.69-7.78-5.69h-3.66v18.94h2.59c5,0,15,.28,16.18-11Z"/></g></g></svg>