<svg xmlns="http://www.w3.org/2000/svg" xmlns:xlink="http://www.w3.org/1999/xlink" viewBox="0 0 2029.38 1120.96"><defs><style>.cls-1{fill:none;}.cls-2{fill:#dedede;}.cls-3{clip-path:url(#clip-path);}.cls-4{fill:#f3a6c8;}.cls-5{fill:#f3a4c6;}.cls-6{fill:#f3a3c4;}.cls-7{fill:#f3a1c2;}.cls-8{fill:#f39fc0;}.cls-9{fill:#f39ebe;}.cls-10{fill:#f39cbc;}.cls-11{fill:#f39aba;}.cls-12{fill:#f399b8;}.cls-13{fill:#f297b6;}.cls-14{fill:#f296b4;}.cls-15{fill:#f294b2;}.cls-16{fill:#f292b1;}.cls-17{fill:#f291ae;}.cls-18{fill:#f28fac;}.cls-19{fill:#f28eaa;}.cls-20{fill:#f28ca8;}.cls-21{fill:#f28ba7;}.cls-22{fill:#f289a5;}.cls-23{fill:#f288a3;}.cls-24{fill:#f287a1;}.cls-25{fill:#f286a0;}.cls-26{fill:#f2859e;}.cls-27{fill:#f2839c;}.cls-28{fill:#f2829b;}.cls-29{fill:#f28199;}.cls-30{fill:#f28097;}.cls-31{fill:#f27f96;}.cls-32{fill:#f27e94;}.cls-33{fill:#f27c93;}.cls-34{fill:#f27b90;}.cls-35{fill:#f27a8f;}.cls-36{fill:#f2788d;}.cls-37{fill:#f2778c;}.cls-38{fill:#f2768a;}.cls-39{fill:#f27589;}.cls-40{fill:#f27387;}.cls-41{fill:#f27286;}.cls-42{fill:#f27184;}.cls-43{fill:#f27083;}.cls-44{fill:#f26f82;}.cls-45{fill:#f26e80;}.cls-46{fill:#f26d80;}.cls-47{fill:#f26b7f;}.cls-48{fill:#f26a7d;}.cls-49{fill:#f1697c;}.cls-50{fill:#f1687b;}.cls-51{fill:#f1677a;}.cls-52{fill:#f16677;}.cls-53{fill:#f16576;}.cls-54{fill:#f16475;}.cls-55{fill:#f16374;}.cls-56{fill:#f16273;}.cls-57{fill:#f16171;}.cls-58{fill:#f16170;}.cls-59{fill:#f1606f;}.cls-60{fill:#f15f6e;}.cls-61{fill:#f15f6d;}.cls-62{fill:#f15e6c;}.cls-63{fill:#f15d6b;}.cls-64{fill:#f15c6a;}.cls-65{fill:#f15b69;}.cls-66{fill:#f15a68;}.cls-67{fill:#f15967;}.cls-68{fill:#f15966;}.cls-69{fill:#f15865;}.cls-70{fill:#f15764;}.cls-71{fill:#f15662;}.cls-72{fill:#f15661;}.cls-73{fill:#f15560;}.cls-74{fill:#f15460;}.cls-75{fill:#f1535f;}.cls-76{fill:#f1535e;}.cls-77{fill:#f1525d;}.cls-78{fill:#f1515c;}.cls-79{fill:#f1505b;}.cls-80{fill:#f14f5a;}.cls-81{fill:#f14f59;}.cls-82{fill:#f14e59;}.cls-83{fill:#f14e58;}.cls-84{fill:#f14d57;}.cls-85{fill:#f14c56;}.cls-86{fill:#f14c55;}.cls-87{fill:#f14b55;}.cls-88{fill:#f14b53;}.cls-89{fill:#f14a54;}.cls-90{fill:#f14a52;}.cls-91{fill:#f14952;}.cls-92{fill:#f14951;}.cls-93{fill:#f14950;}.cls-94{fill:#f14850;}.cls-95{fill:#f1484f;}.cls-96{fill:#f1474e;}.cls-97{fill:#f1474d;}.cls-98{fill:#f1464d;}.cls-99{fill:#f1464c;}.cls-100{fill:#f1454c;}.cls-101{fill:#f1454b;}.cls-102{fill:#f1444b;}.cls-103{fill:#f1444a;}.cls-104{fill:#f14349;}.cls-105{clip-path:url(#clip-path-2);}.cls-106{fill:#fff;}.cls-107{fill:#f6e904;}.cls-108{fill:#3ac1de;}.cls-109{clip-path:url(#clip-path-3);}.cls-110{fill:#f5e90b;}.cls-111{fill:#f4e90c;}.cls-112{fill:#f3e813;}.cls-113{fill:#f2e818;}.cls-114{fill:#f1e818;}.cls-115{fill:#f0e81c;}.cls-116{fill:#efe81f;}.cls-117{fill:#eee720;}.cls-118{fill:#ede624;}.cls-119{fill:#ece627;}.cls-120{fill:#ebe627;}.cls-121{fill:#eae629;}.cls-122{fill:#e9e62c;}.cls-123{fill:#e8e62c;}.cls-124{fill:#e7e52f;}.cls-125{fill:#e6e531;}.cls-126{fill:#e5e531;}.cls-127{fill:#e4e534;}.cls-128{fill:#e3e536;}.cls-129{fill:#e2e436;}.cls-130{fill:#e1e439;}.cls-131{fill:#e0e43b;}.cls-132{fill:#dfe43b;}.cls-133{fill:#dfe43d;}.cls-134{fill:#dee43e;}.cls-135{fill:#dde33f;}.cls-136{fill:#dce341;}.cls-137{fill:#dbe343;}.cls-138{fill:#dae343;}.cls-139{fill:#d9e344;}.cls-140{fill:#d8e346;}.cls-141{fill:#d7e247;}.cls-142{fill:#d6e248;}.cls-143{fill:#d5e24a;}.cls-144{fill:#d4e24a;}.cls-145{fill:#d3e24c;}.cls-146{fill:#d2e24d;}.cls-147{fill:#d1e14e;}.cls-148{fill:#d0e14f;}.cls-149{fill:#cfe151;}.cls-150{fill:#cee151;}.cls-151{fill:#cde152;}.cls-152{fill:#cce054;}.cls-153{fill:#cbe054;}.cls-154{fill:#cae056;}.cls-155{fill:#c9e057;}.cls-156{fill:#c8e057;}.cls-157{fill:#c8e059;}.cls-158{fill:#c7df5b;}.cls-159{fill:#c6df5b;}.cls-160{fill:#c5df5c;}.cls-161{fill:#c4df5e;}.cls-162{fill:#c3df5e;}.cls-163{fill:#c2df5f;}.cls-164{fill:#c1de61;}.cls-165{fill:#c0de61;}.cls-166{fill:#bfde62;}.cls-167{fill:#bede64;}.cls-168{fill:#bdde64;}.cls-169{fill:#bcdd65;}.cls-170{fill:#bbdd67;}.cls-171{fill:#badd67;}.cls-172{fill:#b9dd68;}.cls-173{fill:#b8dd69;}.cls-174{fill:#b7dd69;}.cls-175{fill:#b6dc6b;}.cls-176{fill:#b5dc6c;}.cls-177{fill:#b4dc6e;}.cls-178{fill:#b3dc6f;}.cls-179{fill:#b2dc6f;}.cls-180{fill:#b1db70;}.cls-181{fill:#b0db72;}.cls-182{fill:#afdb72;}.cls-183{fill:#aedb73;}.cls-184{fill:#addb74;}.cls-185{fill:#acda75;}.cls-186{fill:#abda76;}.cls-187{fill:#aada77;}.cls-188{fill:#a9da77;}.cls-189{fill:#a8da78;}.cls-190{fill:#a7da7a;}.cls-191{fill:#a6d97a;}.cls-192{fill:#a5d97b;}.cls-193{fill:#a4d97c;}.cls-194{fill:#a3d97e;}.cls-195{fill:#a2d97f;}.cls-196{fill:#a1d87f;}.cls-197{fill:#a0d880;}.cls-198{fill:#9fd881;}.cls-199{fill:#9ed881;}.cls-200{fill:#9dd882;}.cls-201{fill:#9cd883;}.cls-202{fill:#9bd783;}.cls-203{fill:#9ad784;}.cls-204{fill:#99d786;}.cls-205{fill:#98d786;}.cls-206{fill:#97d787;}.cls-207{fill:#96d688;}.cls-208{fill:#95d688;}.cls-209{fill:#95d689;}.cls-210{fill:#94d68b;}.cls-211{fill:#93d68b;}.cls-212{fill:#92d68c;}.cls-213{fill:#90d48d;}.cls-214{fill:#8fd48e;}.cls-215{fill:#8ed48e;}.cls-216{fill:#8dd490;}.cls-217{fill:#8cd491;}.cls-218{fill:#8bd491;}.cls-219{fill:#8ad392;}.cls-220{fill:#89d393;}.cls-221{fill:#88d394;}.cls-222{fill:#87d396;}.cls-223{fill:#86d296;}.cls-224{fill:#85d297;}.cls-225{fill:#84d298;}.cls-226{fill:#83d298;}.cls-227{fill:#82d299;}.cls-228{fill:#81d29a;}.cls-229{fill:#80d19b;}.cls-230{fill:#80d19c;}.cls-231{fill:#7fd19d;}.cls-232{fill:#7ed19e;}.cls-233{fill:#7dd19f;}.cls-234{fill:#7cd09f;}.cls-235{fill:#7bd0a1;}.cls-236{fill:#7ad0a2;}.cls-237{fill:#79d0a2;}.cls-238{fill:#78d0a3;}.cls-239{fill:#77d0a4;}.cls-240{fill:#76cfa4;}.cls-241{fill:#75cfa5;}.cls-242{fill:#75cfa6;}.cls-243{fill:#74cfa6;}.cls-244{fill:#73cfa8;}.cls-245{fill:#72cea9;}.cls-246{fill:#71cea9;}.cls-247{fill:#70ceaa;}.cls-248{fill:#6fceab;}.cls-249{fill:#6eceab;}.cls-250{fill:#6dceac;}.cls-251{fill:#6ccdad;}.cls-252{fill:#6bcdaf;}.cls-253{fill:#6acdb0;}.cls-254{fill:#69cdb0;}.cls-255{fill:#68cdb1;}.cls-256{fill:#67ccb2;}.cls-257{fill:#66ccb2;}.cls-258{fill:#66ccb3;}.cls-259{fill:#65ccb4;}.cls-260{fill:#64ccb4;}.cls-261{fill:#63cbb6;}.cls-262{fill:#62cbb7;}.cls-263{fill:#61cbb7;}.cls-264{fill:#60cbb8;}.cls-265{fill:#60cbb9;}.cls-266{fill:#5fcbb9;}.cls-267{fill:#5ecaba;}.cls-268{fill:#5dcabb;}.cls-269{fill:#5ccabb;}.cls-270{fill:#5bcabc;}.cls-271{fill:#5acabe;}.cls-272{fill:#59c9bf;}.cls-273{fill:#58c9c0;}.cls-274{fill:#57c9c0;}.cls-275{fill:#56c9c1;}.cls-276{fill:#55c9c2;}.cls-277{fill:#55c8c2;}.cls-278{fill:#54c8c3;}.cls-279{fill:#53c8c4;}.cls-280{fill:#52c8c4;}.cls-281{fill:#51c8c5;}.cls-282{fill:#51c8c7;}.cls-283{fill:#50c7c7;}.cls-284{fill:#4fc7c8;}.cls-285{fill:#4ec7c9;}.cls-286{fill:#4dc7c9;}.cls-287{fill:#4dc6ca;}.cls-288{fill:#4cc6cb;}.cls-289{fill:#4bc5cb;}.cls-290{fill:#4ac5cc;}.cls-291{fill:#49c5cd;}.cls-292{fill:#48c5ce;}.cls-293{fill:#47c5d0;}.cls-294{fill:#46c4d0;}.cls-295{fill:#46c4d1;}.cls-296{fill:#45c4d2;}.cls-297{fill:#44c4d2;}.cls-298{fill:#44c4d3;}.cls-299{fill:#43c3d4;}.cls-300{fill:#42c3d4;}.cls-301{fill:#41c3d5;}.cls-302{fill:#41c3d6;}.cls-303{fill:#40c3d6;}.cls-304{fill:#3fc3d7;}.cls-305{fill:#3fc2d9;}.cls-306{fill:#3ec2d9;}.cls-307{fill:#3dc2da;}.cls-308{fill:#3dc2db;}.cls-309{fill:#3cc2db;}.cls-310{fill:#3cc2dc;}.cls-311{fill:#3bc1dd;}.cls-312{fill:#3ac1dd;}</style><clipPath id="clip-path"><rect class="cls-1" x="656.1" width="1373.29" height="1080"/></clipPath><clipPath id="clip-path-2"><rect class="cls-1" x="109.29" width="549.9" height="1080"/></clipPath><clipPath id="clip-path-3"><path class="cls-1" d="M384.22,635.38a186.92,186.92,0,0,1,22.82,1.4v37.71a150.59,150.59,0,0,0-22.82-1.74,148.56,148.56,0,1,0,141,195.36h39a186,186,0,0,1-180,139.13c-102.69,0-185.93-83.25-185.93-185.93S281.53,635.38,384.22,635.38Z"/></clipPath></defs><title>bkgd_depoimento</title><g id="Camada_2" data-name="Camada 2"><g id="Camada_1-2" data-name="Camada 1"><rect class="cls-2" x="109.29" width="546.81" height="1080"/><g class="cls-3"><path class="cls-4" d="M2029.38,0h0Z"/><rect class="cls-4" x="656.1" width="1373.29" height="7.15"/><rect class="cls-5" x="656.1" y="7.15" width="1373.29" height="7.15"/><rect class="cls-6" x="656.1" y="14.29" width="1373.29" height="7.15"/><rect class="cls-7" x="656.1" y="21.44" width="1373.29" height="7.15"/><rect class="cls-8" x="656.1" y="28.58" width="1373.29" height="7.15"/><rect class="cls-9" x="656.1" y="35.73" width="1373.29" height="7.15"/><rect class="cls-10" x="656.1" y="42.87" width="1373.29" height="7.15"/><rect class="cls-11" x="656.1" y="50.02" width="1373.29" height="7.15"/><rect class="cls-12" x="656.1" y="57.16" width="1373.29" height="7.15"/><rect class="cls-13" x="656.1" y="64.31" width="1373.29" height="7.15"/><rect class="cls-14" x="656.1" y="71.45" width="1373.29" height="7.15"/><rect class="cls-15" x="656.1" y="78.6" width="1373.29" height="7.15"/><rect class="cls-16" x="656.1" y="85.74" width="1373.29" height="7.15"/><rect class="cls-17" x="656.1" y="92.89" width="1373.29" height="7.15"/><rect class="cls-18" x="656.1" y="100.03" width="1373.29" height="7.15"/><rect class="cls-19" x="656.1" y="107.18" width="1373.29" height="7.15"/><rect class="cls-20" x="656.1" y="114.32" width="1373.29" height="7.15"/><rect class="cls-21" x="656.1" y="121.47" width="1373.29" height="7.15"/><rect class="cls-22" x="656.1" y="128.61" width="1373.29" height="7.15"/><rect class="cls-23" x="656.1" y="135.76" width="1373.29" height="7.15"/><rect class="cls-24" x="656.1" y="142.9" width="1373.29" height="7.15"/><rect class="cls-25" x="656.1" y="150.05" width="1373.29" height="7.15"/><rect class="cls-26" x="656.1" y="157.19" width="1373.29" height="7.15"/><rect class="cls-27" x="656.1" y="164.34" width="1373.29" height="7.15"/><rect class="cls-28" x="656.1" y="171.48" width="1373.29" height="7.15"/><rect class="cls-29" x="656.1" y="178.63" width="1373.29" height="7.15"/><rect class="cls-30" x="656.1" y="185.77" width="1373.29" height="7.15"/><rect class="cls-31" x="656.1" y="192.92" width="1373.29" height="7.15"/><rect class="cls-32" x="656.1" y="200.06" width="1373.29" height="7.15"/><rect class="cls-33" x="656.1" y="207.21" width="1373.29" height="7.15"/><rect class="cls-34" x="656.1" y="214.35" width="1373.29" height="7.15"/><rect class="cls-35" x="656.1" y="221.5" width="1373.29" height="7.15"/><rect class="cls-36" x="656.1" y="228.64" width="1373.29" height="7.15"/><rect class="cls-37" x="656.1" y="235.79" width="1373.29" height="7.15"/><rect class="cls-38" x="656.1" y="242.93" width="1373.29" height="7.15"/><rect class="cls-39" x="656.1" y="250.08" width="1373.29" height="7.15"/><rect class="cls-40" x="656.1" y="257.22" width="1373.29" height="7.15"/><rect class="cls-41" x="656.1" y="264.37" width="1373.29" height="7.15"/><rect class="cls-42" x="656.1" y="271.51" width="1373.29" height="7.15"/><rect class="cls-43" x="656.1" y="278.66" width="1373.29" height="7.15"/><rect class="cls-44" x="656.1" y="285.8" width="1373.29" height="7.15"/><rect class="cls-45" x="656.1" y="292.95" width="1373.29" height="7.15"/><rect class="cls-46" x="656.1" y="300.09" width="1373.29" height="7.15"/><rect class="cls-47" x="656.1" y="307.24" width="1373.29" height="7.15"/><rect class="cls-48" x="656.1" y="314.38" width="1373.29" height="7.15"/><rect class="cls-49" x="656.1" y="321.53" width="1373.29" height="7.15"/><rect class="cls-50" x="656.1" y="328.67" width="1373.29" height="7.15"/><rect class="cls-51" x="656.1" y="335.82" width="1373.29" height="7.15"/><rect class="cls-52" x="656.1" y="342.96" width="1373.29" height="7.15"/><rect class="cls-53" x="656.1" y="350.11" width="1373.29" height="7.15"/><rect class="cls-54" x="656.1" y="357.25" width="1373.29" height="7.15"/><rect class="cls-55" x="656.1" y="364.4" width="1373.29" height="7.15"/><rect class="cls-56" x="656.1" y="371.54" width="1373.29" height="7.15"/><rect class="cls-57" x="656.1" y="378.69" width="1373.29" height="7.15"/><rect class="cls-58" x="656.1" y="385.83" width="1373.29" height="7.15"/><rect class="cls-59" x="656.1" y="392.98" width="1373.29" height="7.15"/><rect class="cls-60" x="656.1" y="400.12" width="1373.29" height="7.15"/><rect class="cls-61" x="656.1" y="407.27" width="1373.29" height="7.15"/><rect class="cls-62" x="656.1" y="414.41" width="1373.29" height="7.15"/><rect class="cls-63" x="656.1" y="421.56" width="1373.29" height="7.15"/><rect class="cls-64" x="656.1" y="428.7" width="1373.29" height="7.15"/><rect class="cls-65" x="656.1" y="435.85" width="1373.29" height="7.15"/><rect class="cls-66" x="656.1" y="442.99" width="1373.29" height="7.15"/><rect class="cls-67" x="656.1" y="450.14" width="1373.29" height="7.15"/><rect class="cls-68" x="656.1" y="457.28" width="1373.29" height="7.15"/><rect class="cls-69" x="656.1" y="464.43" width="1373.29" height="7.15"/><rect class="cls-70" x="656.1" y="471.57" width="1373.29" height="7.15"/><rect class="cls-71" x="656.1" y="478.72" width="1373.29" height="7.15"/><rect class="cls-72" x="656.1" y="485.86" width="1373.29" height="7.15"/><rect class="cls-73" x="656.1" y="493.01" width="1373.29" height="7.15"/><rect class="cls-74" x="656.1" y="500.15" width="1373.29" height="7.15"/><rect class="cls-75" x="656.1" y="507.3" width="1373.29" height="7.15"/><rect class="cls-76" x="656.1" y="514.44" width="1373.29" height="7.15"/><rect class="cls-77" x="656.1" y="521.59" width="1373.29" height="7.15"/><rect class="cls-78" x="656.1" y="528.73" width="1373.29" height="7.15"/><rect class="cls-78" x="656.1" y="535.88" width="1373.29" height="7.15"/><rect class="cls-79" x="656.1" y="543.02" width="1373.29" height="7.15"/><rect class="cls-80" x="656.1" y="550.17" width="1373.29" height="7.15"/><rect class="cls-81" x="656.1" y="557.31" width="1373.29" height="7.15"/><rect class="cls-82" x="656.1" y="564.46" width="1373.29" height="7.15"/><rect class="cls-83" x="656.1" y="571.6" width="1373.29" height="7.15"/><rect class="cls-84" x="656.1" y="578.75" width="1373.29" height="7.15"/><rect class="cls-84" x="656.1" y="585.89" width="1373.29" height="7.15"/><rect class="cls-85" x="656.1" y="593.04" width="1373.29" height="7.15"/><rect class="cls-86" x="656.1" y="600.18" width="1373.29" height="7.15"/><rect class="cls-87" x="656.1" y="607.33" width="1373.29" height="7.15"/><rect class="cls-88" x="656.1" y="614.47" width="1373.29" height="7.15"/><rect class="cls-89" x="656.1" y="621.62" width="1373.29" height="7.15"/><rect class="cls-90" x="656.1" y="628.76" width="1373.29" height="7.15"/><rect class="cls-91" x="656.1" y="635.91" width="1373.29" height="7.15"/><rect class="cls-92" x="656.1" y="643.05" width="1373.29" height="7.15"/><rect class="cls-92" x="656.1" y="650.2" width="1373.29" height="7.15"/><rect class="cls-93" x="656.1" y="657.34" width="1373.29" height="7.15"/><rect class="cls-94" x="656.1" y="664.49" width="1373.29" height="7.15"/><rect class="cls-95" x="656.1" y="671.63" width="1373.29" height="7.15"/><rect class="cls-95" x="656.1" y="678.78" width="1373.29" height="7.15"/><rect class="cls-96" x="656.1" y="685.92" width="1373.29" height="7.15"/><rect class="cls-96" x="656.1" y="693.07" width="1373.29" height="7.15"/><rect class="cls-97" x="656.1" y="700.21" width="1373.29" height="7.15"/><rect class="cls-98" x="656.1" y="707.36" width="1373.29" height="7.15"/><rect class="cls-98" x="656.1" y="714.5" width="1373.29" height="7.15"/><rect class="cls-99" x="656.1" y="721.65" width="1373.29" height="7.15"/><rect class="cls-99" x="656.1" y="728.79" width="1373.29" height="7.15"/><rect class="cls-100" x="656.1" y="735.94" width="1373.29" height="7.15"/><rect class="cls-101" x="656.1" y="743.08" width="1373.29" height="7.15"/><rect class="cls-101" x="656.1" y="750.23" width="1373.29" height="7.15"/><rect class="cls-101" x="656.1" y="757.37" width="1373.29" height="7.15"/><rect class="cls-102" x="656.1" y="764.52" width="1373.29" height="7.15"/><rect class="cls-103" x="656.1" y="771.66" width="1373.29" height="7.15"/><rect class="cls-103" x="656.1" y="778.81" width="1373.29" height="7.15"/><rect class="cls-103" x="656.1" y="785.95" width="1373.29" height="7.15"/><rect class="cls-103" x="656.1" y="793.1" width="1373.29" height="7.15"/><rect class="cls-103" x="656.1" y="800.24" width="1373.29" height="7.15"/><rect class="cls-103" x="656.1" y="807.39" width="1373.29" height="7.15"/><rect class="cls-104" x="656.1" y="814.53" width="1373.29" height="7.15"/><rect class="cls-104" x="656.1" y="821.68" width="1373.29" height="7.15"/><rect class="cls-104" x="656.1" y="828.82" width="1373.29" height="7.15"/><rect class="cls-104" x="656.1" y="835.97" width="1373.29" height="7.15"/><rect class="cls-104" x="656.1" y="843.11" width="1373.29" height="7.15"/><rect class="cls-104" x="656.1" y="850.26" width="1373.29" height="7.15"/><rect class="cls-104" x="656.1" y="857.4" width="1373.29" height="7.15"/><rect class="cls-104" x="656.1" y="864.55" width="1373.29" height="7.15"/><rect class="cls-104" x="656.1" y="871.69" width="1373.29" height="7.15"/><rect class="cls-104" x="656.1" y="878.84" width="1373.29" height="201.16"/></g><g class="cls-105"><path d="M657.06,671.05H0V0H657.06ZM1.64,669.42H655.42V1.63H1.64Z"/><rect x="0.82" y="557.85" width="655.42" height="1.63"/><rect x="0.82" y="446.28" width="655.42" height="1.63"/><rect x="0.82" y="334.71" width="655.42" height="1.63"/><rect x="0.82" y="223.14" width="655.42" height="1.63"/><rect x="0.82" y="111.57" width="655.42" height="1.63"/><rect x="546.19" y="0.82" width="1.64" height="669.42"/><rect x="436.95" y="0.82" width="1.64" height="669.42"/><rect x="327.71" y="0.82" width="1.64" height="669.42"/><rect x="218.47" y="0.82" width="1.64" height="669.42"/><rect x="109.24" y="0.82" width="1.64" height="669.42"/><polygon points="1.89 1120.96 1.89 671.04 654.46 671.04 654.46 1120.96 656.1 1120.96 656.1 669.41 0.25 669.41 0.25 1120.96 1.89 1120.96"/><rect x="1.07" y="1117.3" width="654.21" height="1.64"/><rect x="1.07" y="1005.33" width="654.21" height="1.64"/><rect x="1.07" y="893.35" width="654.21" height="1.64"/><rect x="1.07" y="781.38" width="654.21" height="1.64"/><rect x="545.42" y="670.23" width="1.64" height="450.73"/><rect x="436.39" y="670.23" width="1.64" height="450.73"/><rect x="327.35" y="670.23" width="1.64" height="450.73"/><rect x="218.32" y="670.23" width="1.64" height="450.73"/><rect x="109.28" y="670.23" width="1.64" height="450.73"/></g><path class="cls-106" d="M1792.79,657.5c-8.22-11.54,6.33-25.74,38.92-22.59s23.07-28.1,55.28-36,35.88,32.3,62.41,31.25,27.6-25.21,46.37-26,38.46,18.65,15.35,40.18-58.42-9.45-78.45-.26-34,29.94-65.48,20.23S1805.32,675.09,1792.79,657.5Z"/><path d="M1882.81,667.56A53.64,53.64,0,0,1,1867,665c-14.34-4.42-28.4-2.53-40.8-.86-14.46,1.94-26.94,3.62-34-6.23h0c-2.86-4-3.16-8.43-.85-12.43,4-7,16.75-13.56,40.42-11.27,16.92,1.63,22.15-6.15,28.22-15.17,5.38-8,11.48-17,26.82-20.8,18-4.39,27.25,5.82,36.23,15.69,7.5,8.24,14.57,16,26.32,15.55,14.13-.56,20.74-7.65,27.14-14.51,5.33-5.72,10.37-11.12,19.23-11.5,10.91-.45,21.5,5.59,25.17,14.37,2.06,4.94,3.6,15-9.31,27-13.66,12.73-31.74,7.43-47.69,2.76-11.7-3.43-22.74-6.67-31-2.9a111,111,0,0,0-15.28,9.11C1907.58,660.61,1897.21,667.56,1882.81,667.56Zm-35.28-6.7a66.85,66.85,0,0,1,19.87,2.79c22.68,7,36.31-2.14,49.5-11a113.72,113.72,0,0,1,15.47-9.21c8.69-4,20-.68,31.94,2.82,16.35,4.79,33.26,9.75,46.33-2.43,9.1-8.48,12.29-17.53,9-25.47-3.45-8.25-13.46-13.93-23.81-13.5-8.28.35-12.91,5.31-18.26,11-6.28,6.74-13.41,14.37-28.11,15l-1,0c-11.79,0-19.2-8.15-26.38-16-8.71-9.57-17.71-19.46-34.85-15.27-14.82,3.62-20.5,12.06-26,20.22-6.06,9-11.78,17.5-29.53,15.78-19-1.83-34.28,2.32-39.05,10.57-2,3.5-1.75,7.37.77,10.91h0c6.53,9.16,18.05,7.61,32.63,5.65A160.17,160.17,0,0,1,1847.53,660.86Z"/><path class="cls-107" d="M1727.62,1044.15a17.66,17.66,0,1,0,17.65,17.65A17.65,17.65,0,0,0,1727.62,1044.15Zm0,30.57a12.92,12.92,0,1,1,12.92-12.92A12.91,12.91,0,0,1,1727.62,1074.72Z"/><path d="M1727.62,1080a18.2,18.2,0,1,1,18.2-18.2A18.22,18.22,0,0,1,1727.62,1080Zm0-35.31a17.11,17.11,0,1,0,17.11,17.11A17.14,17.14,0,0,0,1727.62,1044.69Zm0,30.58a13.47,13.47,0,1,1,13.46-13.47A13.48,13.48,0,0,1,1727.62,1075.27Zm0-25.85A12.38,12.38,0,1,0,1740,1061.8,12.4,12.4,0,0,0,1727.62,1049.42Z"/><path class="cls-107" d="M1784.9,1044.15a17.66,17.66,0,1,0,17.65,17.65A17.66,17.66,0,0,0,1784.9,1044.15Zm0,30.57a12.92,12.92,0,1,1,12.92-12.92A12.91,12.91,0,0,1,1784.9,1074.72Z"/><path d="M1784.9,1080a18.2,18.2,0,1,1,18.2-18.2A18.21,18.21,0,0,1,1784.9,1080Zm0-35.31A17.11,17.11,0,1,0,1802,1061.8,17.13,17.13,0,0,0,1784.9,1044.69Zm0,30.58a13.47,13.47,0,1,1,13.46-13.47A13.48,13.48,0,0,1,1784.9,1075.27Zm0-25.85a12.38,12.38,0,1,0,12.38,12.38A12.4,12.4,0,0,0,1784.9,1049.42Z"/><circle class="cls-107" cx="1727.62" cy="1061.8" r="2.55"/><path d="M1727.62,1064.9a3.1,3.1,0,1,1,3.1-3.1A3.09,3.09,0,0,1,1727.62,1064.9Zm0-5.11a2,2,0,1,0,2,2A2,2,0,0,0,1727.62,1059.79Z"/><circle class="cls-107" cx="1784.9" cy="1061.8" r="2.55"/><path d="M1784.9,1064.9a3.1,3.1,0,1,1,3.09-3.1A3.1,3.1,0,0,1,1784.9,1064.9Zm0-5.11a2,2,0,1,0,2,2A2,2,0,0,0,1784.9,1059.79Z"/><rect x="1742.78" y="1034.25" width="32.7" height="1.09"/><polygon points="1754.97 1062.35 1726.69 1062.35 1742.31 1034.53 1743.25 1035.06 1728.55 1061.26 1754.44 1061.26 1775.05 1034.46 1775.91 1035.13 1754.97 1062.35"/><circle class="cls-107" cx="1754.71" cy="1061.8" r="4.03"/><path d="M1754.71,1066.37a4.57,4.57,0,1,1,4.57-4.57A4.58,4.58,0,0,1,1754.71,1066.37Zm0-8a3.49,3.49,0,1,0,3.48,3.48A3.49,3.49,0,0,0,1754.71,1058.32Z"/><rect x="1746.33" y="1024.67" width="1.09" height="38.79" transform="translate(-272.89 794.72) rotate(-23.83)"/><path d="M1784.39,1062l-13.45-38.54h13.85a4.25,4.25,0,1,1,0,8.5h-2.44v-1.08h2.44a3.17,3.17,0,0,0,0-6.34h-12.32l12.94,37.1Z"/><rect class="cls-107" x="1731.42" y="1023.98" width="15.45" height="3.39" rx="1.42"/><path d="M1745.41,1027.91h-12.53a2,2,0,0,1-2-2v-.47a2,2,0,0,1,2-2h12.53a2,2,0,0,1,2,2v.47A2,2,0,0,1,1745.41,1027.91Zm-12.53-3.39a.92.92,0,0,0-.92.92v.47a.92.92,0,0,0,.92.92h12.53a.92.92,0,0,0,.92-.92v-.47a.92.92,0,0,0-.92-.92Z"/><rect class="cls-107" x="384.18" y="531.72" width="64.42" height="245.89" transform="translate(1125.89 968.67) rotate(146.33)"/><path d="M457.47,776.24l-.56-.83L320,569.93l55.29-36.83L512.76,739.41ZM322.82,570.48,458,773.46,510,738.86l-135.21-203Z"/><rect class="cls-108" x="292.43" y="508.75" width="64.42" height="16.35" transform="translate(881.41 767.17) rotate(146.33)"/><path d="M302.09,543,291.91,527.7l55.28-36.82,10.18,15.28Zm-7.4-14.72,7.95,11.94,51.95-34.6-7.95-11.94Z"/><rect class="cls-108" x="318.89" y="520.85" width="39.63" height="34.38" transform="matrix(-0.83, 0.55, -0.55, -0.83, 918.88, 798.05)"/><path d="M331.46,564.72l-20.17-30.28L346,511.36l20.17,30.28ZM314.07,535,332,561.94l31.31-20.86-17.94-26.94Z"/><path class="cls-108" d="M470.3,755.64h37.44a13.49,13.49,0,0,1,13.49,13.49v2.62a0,0,0,0,1,0,0H456.81a0,0,0,0,1,0,0v-2.62A13.49,13.49,0,0,1,470.3,755.64Z" transform="translate(1319.4 1128.17) rotate(146.33)"/><path d="M470.18,784.41a13.51,13.51,0,0,1-11.28-6l-2.54-3.82,55.28-36.83,2.54,3.82a13.53,13.53,0,0,1-3.75,18.76l-32.77,21.83A13.48,13.48,0,0,1,470.18,784.41Zm-11-9.28,1.43,2.15a11.55,11.55,0,0,0,16,3.2l32.76-21.83a11.52,11.52,0,0,0,3.2-16l-1.42-2.14Z"/><g class="cls-109"><polygon class="cls-107" points="198.29 898.32 307.2 1007.24 198.29 1007.24 198.29 898.32"/><polygon class="cls-107" points="198.29 897.56 307.96 1007.24 307.2 1007.24 198.29 898.32 198.29 897.56"/><polygon class="cls-110" points="198.29 896.8 308.73 1007.24 307.96 1007.24 198.29 897.56 198.29 896.8"/><polygon class="cls-111" points="198.29 896.04 309.49 1007.24 308.73 1007.24 198.29 896.8 198.29 896.04"/><polygon class="cls-112" points="198.29 895.28 310.25 1007.24 309.49 1007.24 198.29 896.04 198.29 895.28"/><polygon class="cls-113" points="198.29 894.51 311.01 1007.24 310.25 1007.24 198.29 895.28 198.29 894.51"/><polygon class="cls-114" points="198.29 893.75 311.77 1007.24 311.01 1007.24 198.29 894.51 198.29 893.75"/><polygon class="cls-115" points="198.29 892.99 312.54 1007.24 311.77 1007.24 198.29 893.75 198.29 892.99"/><polygon class="cls-116" points="198.29 892.23 313.3 1007.24 312.54 1007.24 198.29 892.99 198.29 892.23"/><polygon class="cls-117" points="198.29 891.47 314.06 1007.24 313.3 1007.24 198.29 892.23 198.29 891.47"/><polygon class="cls-118" points="198.29 890.7 314.82 1007.24 314.06 1007.24 198.29 891.47 198.29 890.7"/><polygon class="cls-119" points="198.29 889.94 315.58 1007.24 314.82 1007.24 198.29 890.7 198.29 889.94"/><polygon class="cls-120" points="198.29 889.18 316.35 1007.24 315.58 1007.24 198.29 889.94 198.29 889.18"/><polygon class="cls-121" points="198.29 888.42 317.11 1007.24 316.35 1007.24 198.29 889.18 198.29 888.42"/><polygon class="cls-122" points="198.29 887.66 317.87 1007.24 317.11 1007.24 198.29 888.42 198.29 887.66"/><polygon class="cls-123" points="198.29 886.89 318.63 1007.24 317.87 1007.24 198.29 887.66 198.29 886.89"/><polygon class="cls-124" points="198.29 886.13 319.39 1007.24 318.63 1007.24 198.29 886.89 198.29 886.13"/><polygon class="cls-125" points="198.29 885.37 320.15 1007.24 319.39 1007.24 198.29 886.13 198.29 885.37"/><polygon class="cls-126" points="198.29 884.61 320.92 1007.24 320.15 1007.24 198.29 885.37 198.29 884.61"/><polygon class="cls-127" points="198.29 883.85 321.68 1007.24 320.92 1007.24 198.29 884.61 198.29 883.85"/><polygon class="cls-128" points="198.29 883.09 322.44 1007.24 321.68 1007.24 198.29 883.85 198.29 883.09"/><polygon class="cls-129" points="198.29 882.32 323.2 1007.24 322.44 1007.24 198.29 883.09 198.29 882.32"/><polygon class="cls-130" points="198.29 881.56 323.96 1007.24 323.2 1007.24 198.29 882.32 198.29 881.56"/><polygon class="cls-131" points="198.29 880.8 324.73 1007.24 323.96 1007.24 198.29 881.56 198.29 880.8"/><polygon class="cls-132" points="198.29 880.04 325.49 1007.24 324.73 1007.24 198.29 880.8 198.29 880.04"/><polygon class="cls-133" points="198.29 879.27 326.25 1007.24 325.49 1007.24 198.29 880.04 198.29 879.27"/><polygon class="cls-134" points="198.29 878.51 327.01 1007.24 326.25 1007.24 198.29 879.27 198.29 878.51"/><polygon class="cls-135" points="198.29 877.75 327.77 1007.24 327.01 1007.24 198.29 878.51 198.29 877.75"/><polygon class="cls-136" points="198.29 876.99 328.54 1007.24 327.77 1007.24 198.29 877.75 198.29 876.99"/><polygon class="cls-137" points="198.29 876.23 329.3 1007.24 328.54 1007.24 198.29 876.99 198.29 876.23"/><polygon class="cls-138" points="198.29 875.47 330.06 1007.24 329.3 1007.24 198.29 876.23 198.29 875.47"/><polygon class="cls-139" points="198.29 874.7 330.82 1007.24 330.06 1007.24 198.29 875.47 198.29 874.7"/><polygon class="cls-140" points="198.29 873.94 331.58 1007.24 330.82 1007.24 198.29 874.7 198.29 873.94"/><polygon class="cls-141" points="198.29 873.18 332.35 1007.24 331.58 1007.24 198.29 873.94 198.29 873.18"/><polygon class="cls-142" points="198.29 872.42 333.11 1007.24 332.35 1007.24 198.29 873.18 198.29 872.42"/><polygon class="cls-143" points="198.29 871.66 333.87 1007.24 333.11 1007.24 198.29 872.42 198.29 871.66"/><polygon class="cls-144" points="198.29 870.89 334.63 1007.24 333.87 1007.24 198.29 871.66 198.29 870.89"/><polygon class="cls-145" points="198.29 870.13 335.39 1007.24 334.63 1007.24 198.29 870.89 198.29 870.13"/><polygon class="cls-146" points="198.29 869.37 336.16 1007.24 335.39 1007.24 198.29 870.13 198.29 869.37"/><polygon class="cls-147" points="198.29 868.61 336.92 1007.24 336.16 1007.24 198.29 869.37 198.29 868.61"/><polygon class="cls-148" points="198.29 867.85 337.68 1007.24 336.92 1007.24 198.29 868.61 198.29 867.85"/><polygon class="cls-149" points="198.29 867.09 338.44 1007.24 337.68 1007.24 198.29 867.85 198.29 867.09"/><polygon class="cls-150" points="198.29 866.32 339.2 1007.24 338.44 1007.24 198.29 867.09 198.29 866.32"/><polygon class="cls-151" points="198.29 865.56 339.96 1007.24 339.2 1007.24 198.29 866.32 198.29 865.56"/><polygon class="cls-152" points="198.29 864.8 340.73 1007.24 339.96 1007.24 198.29 865.56 198.29 864.8"/><polygon class="cls-153" points="198.29 864.04 341.49 1007.24 340.73 1007.24 198.29 864.8 198.29 864.04"/><polygon class="cls-154" points="198.29 863.27 342.25 1007.24 341.49 1007.24 198.29 864.04 198.29 863.27"/><polygon class="cls-155" points="198.29 862.51 343.01 1007.24 342.25 1007.24 198.29 863.27 198.29 862.51"/><polygon class="cls-156" points="198.29 861.75 343.77 1007.24 343.01 1007.24 198.29 862.51 198.29 861.75"/><polygon class="cls-157" points="198.29 860.99 344.54 1007.24 343.77 1007.24 198.29 861.75 198.29 860.99"/><polygon class="cls-158" points="198.29 860.23 345.3 1007.24 344.54 1007.24 198.29 860.99 198.29 860.23"/><polygon class="cls-159" points="198.29 859.47 346.06 1007.24 345.3 1007.24 198.29 860.23 198.29 859.47"/><polygon class="cls-160" points="198.29 858.7 346.82 1007.24 346.06 1007.24 198.29 859.47 198.29 858.7"/><polygon class="cls-161" points="198.29 857.94 347.58 1007.24 346.82 1007.24 198.29 858.7 198.29 857.94"/><polygon class="cls-162" points="198.29 857.18 348.35 1007.24 347.58 1007.24 198.29 857.94 198.29 857.18"/><polygon class="cls-163" points="198.29 856.42 349.11 1007.24 348.35 1007.24 198.29 857.18 198.29 856.42"/><polygon class="cls-164" points="198.29 855.66 349.87 1007.24 349.11 1007.24 198.29 856.42 198.29 855.66"/><polygon class="cls-165" points="198.29 854.89 350.63 1007.24 349.87 1007.24 198.29 855.66 198.29 854.89"/><polygon class="cls-166" points="198.29 854.13 351.39 1007.24 350.63 1007.24 198.29 854.89 198.29 854.13"/><polygon class="cls-167" points="198.29 853.37 352.16 1007.24 351.39 1007.24 198.29 854.13 198.29 853.37"/><polygon class="cls-168" points="198.29 852.61 352.92 1007.24 352.16 1007.24 198.29 853.37 198.29 852.61"/><polygon class="cls-169" points="198.29 851.85 353.68 1007.24 352.92 1007.24 198.29 852.61 198.29 851.85"/><polygon class="cls-170" points="198.29 851.08 354.44 1007.24 353.68 1007.24 198.29 851.85 198.29 851.08"/><polygon class="cls-171" points="198.29 850.32 355.2 1007.24 354.44 1007.24 198.29 851.08 198.29 850.32"/><polygon class="cls-172" points="198.29 849.56 355.97 1007.24 355.2 1007.24 198.29 850.32 198.29 849.56"/><polygon class="cls-173" points="198.29 848.8 356.73 1007.24 355.97 1007.24 198.29 849.56 198.29 848.8"/><polygon class="cls-174" points="198.29 848.04 357.49 1007.24 356.73 1007.24 198.29 848.8 198.29 848.04"/><polygon class="cls-175" points="198.29 847.27 358.25 1007.24 357.49 1007.24 198.29 848.04 198.29 847.27"/><polygon class="cls-176" points="198.29 846.51 359.01 1007.24 358.25 1007.24 198.29 847.27 198.29 846.51"/><polygon class="cls-176" points="198.29 845.75 359.78 1007.24 359.01 1007.24 198.29 846.51 198.29 845.75"/><polygon class="cls-177" points="198.29 844.99 360.54 1007.24 359.78 1007.24 198.29 845.75 198.29 844.99"/><polygon class="cls-178" points="198.29 844.23 361.3 1007.24 360.54 1007.24 198.29 844.99 198.29 844.23"/><polygon class="cls-179" points="198.29 843.47 362.06 1007.24 361.3 1007.24 198.29 844.23 198.29 843.47"/><polygon class="cls-180" points="198.29 842.7 362.82 1007.24 362.06 1007.24 198.29 843.47 198.29 842.7"/><polygon class="cls-181" points="198.29 841.94 363.58 1007.24 362.82 1007.24 198.29 842.7 198.29 841.94"/><polygon class="cls-182" points="198.29 841.18 364.35 1007.24 363.58 1007.24 198.29 841.94 198.29 841.18"/><polygon class="cls-183" points="198.29 840.42 365.11 1007.24 364.35 1007.24 198.29 841.18 198.29 840.42"/><polygon class="cls-184" points="198.29 839.65 365.87 1007.24 365.11 1007.24 198.29 840.42 198.29 839.65"/><polygon class="cls-185" points="198.29 838.89 366.63 1007.24 365.87 1007.24 198.29 839.65 198.29 838.89"/><polygon class="cls-186" points="198.29 838.13 367.39 1007.24 366.63 1007.24 198.29 838.89 198.29 838.13"/><polygon class="cls-187" points="198.29 837.37 368.16 1007.24 367.39 1007.24 198.29 838.13 198.29 837.37"/><polygon class="cls-188" points="198.29 836.61 368.92 1007.24 368.16 1007.24 198.29 837.37 198.29 836.61"/><polygon class="cls-189" points="198.29 835.85 369.68 1007.24 368.92 1007.24 198.29 836.61 198.29 835.85"/><polygon class="cls-190" points="198.29 835.08 370.44 1007.24 369.68 1007.24 198.29 835.85 198.29 835.08"/><polygon class="cls-191" points="198.29 834.32 371.2 1007.24 370.44 1007.24 198.29 835.08 198.29 834.32"/><polygon class="cls-192" points="198.29 833.56 371.97 1007.24 371.2 1007.24 198.29 834.32 198.29 833.56"/><polygon class="cls-193" points="198.29 832.8 372.73 1007.24 371.97 1007.24 198.29 833.56 198.29 832.8"/><polygon class="cls-193" points="198.29 832.04 373.49 1007.24 372.73 1007.24 198.29 832.8 198.29 832.04"/><polygon class="cls-194" points="198.29 831.27 374.25 1007.24 373.49 1007.24 198.29 832.04 198.29 831.27"/><polygon class="cls-195" points="198.29 830.51 375.01 1007.24 374.25 1007.24 198.29 831.27 198.29 830.51"/><polygon class="cls-196" points="198.29 829.75 375.78 1007.24 375.01 1007.24 198.29 830.51 198.29 829.75"/><polygon class="cls-197" points="198.29 828.99 376.54 1007.24 375.78 1007.24 198.29 829.75 198.29 828.99"/><polygon class="cls-198" points="198.29 828.23 377.3 1007.24 376.54 1007.24 198.29 828.99 198.29 828.23"/><polygon class="cls-199" points="198.29 827.46 378.06 1007.24 377.3 1007.24 198.29 828.23 198.29 827.46"/><polygon class="cls-200" points="198.29 826.7 378.82 1007.24 378.06 1007.24 198.29 827.46 198.29 826.7"/><polygon class="cls-201" points="198.29 825.94 379.59 1007.24 378.82 1007.24 198.29 826.7 198.29 825.94"/><polygon class="cls-202" points="198.29 825.18 380.35 1007.24 379.59 1007.24 198.29 825.94 198.29 825.18"/><polygon class="cls-203" points="198.29 824.42 381.11 1007.24 380.35 1007.24 198.29 825.18 198.29 824.42"/><polygon class="cls-204" points="198.29 823.65 381.87 1007.24 381.11 1007.24 198.29 824.42 198.29 823.65"/><polygon class="cls-205" points="198.29 822.89 382.63 1007.24 381.87 1007.24 198.29 823.65 198.29 822.89"/><polygon class="cls-206" points="198.29 822.13 383.39 1007.24 382.63 1007.24 198.29 822.89 198.29 822.13"/><polygon class="cls-207" points="198.29 821.37 384.16 1007.24 383.39 1007.24 198.29 822.13 198.29 821.37"/><polygon class="cls-208" points="198.29 820.61 384.92 1007.24 384.16 1007.24 198.29 821.37 198.29 820.61"/><polygon class="cls-209" points="198.29 819.85 385.68 1007.24 384.92 1007.24 198.29 820.61 198.29 819.85"/><polygon class="cls-210" points="198.29 819.08 386.44 1007.24 385.68 1007.24 198.29 819.85 198.29 819.08"/><polygon class="cls-211" points="198.29 818.32 387.2 1007.24 386.44 1007.24 198.29 819.08 198.29 818.32"/><polygon class="cls-212" points="198.29 817.56 387.97 1007.24 387.2 1007.24 198.29 818.32 198.29 817.56"/><polygon class="cls-213" points="198.29 816.8 388.73 1007.24 387.97 1007.24 198.29 817.56 198.29 816.8"/><polygon class="cls-214" points="198.29 816.03 389.49 1007.24 388.73 1007.24 198.29 816.8 198.29 816.03"/><polygon class="cls-215" points="198.29 815.27 390.25 1007.24 389.49 1007.24 198.29 816.03 198.29 815.27"/><polygon class="cls-216" points="198.29 814.51 391.01 1007.24 390.25 1007.24 198.29 815.27 198.29 814.51"/><polygon class="cls-217" points="198.29 813.75 391.78 1007.24 391.01 1007.24 198.29 814.51 198.29 813.75"/><polygon class="cls-218" points="198.29 812.99 392.54 1007.24 391.78 1007.24 198.29 813.75 198.29 812.99"/><polygon class="cls-219" points="198.29 812.23 393.3 1007.24 392.54 1007.24 198.29 812.99 198.29 812.23"/><polygon class="cls-220" points="198.29 811.46 394.06 1007.24 393.3 1007.24 198.29 812.23 198.29 811.46"/><polygon class="cls-220" points="198.29 810.7 394.82 1007.24 394.06 1007.24 198.29 811.46 198.29 810.7"/><polygon class="cls-221" points="198.29 809.94 395.59 1007.24 394.82 1007.24 198.29 810.7 198.29 809.94"/><polygon class="cls-222" points="198.29 809.18 396.35 1007.24 395.59 1007.24 198.29 809.94 198.29 809.18"/><polygon class="cls-223" points="198.29 808.42 397.11 1007.24 396.35 1007.24 198.29 809.18 198.29 808.42"/><polygon class="cls-224" points="198.29 807.65 397.87 1007.24 397.11 1007.24 198.29 808.42 198.29 807.65"/><polygon class="cls-225" points="198.29 806.89 398.63 1007.24 397.87 1007.24 198.29 807.65 198.29 806.89"/><polygon class="cls-226" points="198.29 806.13 399.4 1007.24 398.63 1007.24 198.29 806.89 198.29 806.13"/><polygon class="cls-227" points="198.29 805.37 400.16 1007.24 399.4 1007.24 198.29 806.13 198.29 805.37"/><polygon class="cls-228" points="198.29 804.61 400.92 1007.24 400.16 1007.24 198.29 805.37 198.29 804.61"/><polygon class="cls-229" points="198.29 803.85 401.68 1007.24 400.92 1007.24 198.29 804.61 198.29 803.85"/><polygon class="cls-230" points="198.29 803.08 402.44 1007.24 401.68 1007.24 198.29 803.85 198.29 803.08"/><polygon class="cls-231" points="198.29 802.32 403.21 1007.24 402.44 1007.24 198.29 803.08 198.29 802.32"/><polygon class="cls-231" points="198.29 801.56 403.97 1007.24 403.21 1007.24 198.29 802.32 198.29 801.56"/><polygon class="cls-232" points="198.29 800.8 404.73 1007.24 403.97 1007.24 198.29 801.56 198.29 800.8"/><polygon class="cls-233" points="198.29 800.03 405.49 1007.24 404.73 1007.24 198.29 800.8 198.29 800.03"/><polygon class="cls-234" points="198.29 799.27 406.25 1007.24 405.49 1007.24 198.29 800.03 198.29 799.27"/><polygon class="cls-235" points="198.29 798.51 407.01 1007.24 406.25 1007.24 198.29 799.27 198.29 798.51"/><polygon class="cls-236" points="198.29 797.75 407.78 1007.24 407.01 1007.24 198.29 798.51 198.29 797.75"/><polygon class="cls-237" points="198.29 796.99 408.54 1007.24 407.78 1007.24 198.29 797.75 198.29 796.99"/><polygon class="cls-238" points="198.29 796.23 409.3 1007.24 408.54 1007.24 198.29 796.99 198.29 796.23"/><polygon class="cls-239" points="198.29 795.46 410.06 1007.24 409.3 1007.24 198.29 796.23 198.29 795.46"/><polygon class="cls-240" points="198.29 794.7 410.82 1007.24 410.06 1007.24 198.29 795.46 198.29 794.7"/><polygon class="cls-241" points="198.29 793.94 411.59 1007.24 410.82 1007.24 198.29 794.7 198.29 793.94"/><polygon class="cls-242" points="198.29 793.18 412.35 1007.24 411.59 1007.24 198.29 793.94 198.29 793.18"/><polygon class="cls-243" points="198.29 792.42 413.11 1007.24 412.35 1007.24 198.29 793.18 198.29 792.42"/><polygon class="cls-244" points="198.29 791.65 413.87 1007.24 413.11 1007.24 198.29 792.42 198.29 791.65"/><polygon class="cls-245" points="198.29 790.89 414.63 1007.24 413.87 1007.24 198.29 791.65 198.29 790.89"/><polygon class="cls-246" points="198.29 790.13 415.4 1007.24 414.63 1007.24 198.29 790.89 198.29 790.13"/><polygon class="cls-247" points="198.29 789.37 416.16 1007.24 415.4 1007.24 198.29 790.13 198.29 789.37"/><polygon class="cls-248" points="198.29 788.61 416.92 1007.24 416.16 1007.24 198.29 789.37 198.29 788.61"/><polygon class="cls-249" points="198.29 787.84 417.68 1007.24 416.92 1007.24 198.29 788.61 198.29 787.84"/><polygon class="cls-250" points="198.29 787.08 418.44 1007.24 417.68 1007.24 198.29 787.84 198.29 787.08"/><polygon class="cls-251" points="198.29 786.32 419.21 1007.24 418.44 1007.24 198.29 787.08 198.29 786.32"/><polygon class="cls-251" points="198.29 785.56 419.97 1007.24 419.21 1007.24 198.29 786.32 198.29 785.56"/><polygon class="cls-252" points="198.29 784.8 420.73 1007.24 419.97 1007.24 198.29 785.56 198.29 784.8"/><polygon class="cls-253" points="198.29 784.03 421.49 1007.24 420.73 1007.24 198.29 784.8 198.29 784.03"/><polygon class="cls-254" points="198.29 783.27 422.25 1007.24 421.49 1007.24 198.29 784.03 198.29 783.27"/><polygon class="cls-255" points="198.29 782.51 423.02 1007.24 422.25 1007.24 198.29 783.27 198.29 782.51"/><polygon class="cls-256" points="198.29 781.75 423.78 1007.24 423.02 1007.24 198.29 782.51 198.29 781.75"/><polygon class="cls-257" points="198.29 780.99 424.54 1007.24 423.78 1007.24 198.29 781.75 198.29 780.99"/><polygon class="cls-258" points="198.29 780.23 425.3 1007.24 424.54 1007.24 198.29 780.99 198.29 780.23"/><polygon class="cls-259" points="198.29 779.46 426.06 1007.24 425.3 1007.24 198.29 780.23 198.29 779.46"/><polygon class="cls-260" points="198.29 778.7 426.82 1007.24 426.06 1007.24 198.29 779.46 198.29 778.7"/><polygon class="cls-261" points="198.29 777.94 427.59 1007.24 426.82 1007.24 198.29 778.7 198.29 777.94"/><polygon class="cls-262" points="198.29 777.18 428.35 1007.24 427.59 1007.24 198.29 777.94 198.29 777.18"/><polygon class="cls-263" points="198.29 776.41 429.11 1007.24 428.35 1007.24 198.29 777.18 198.29 776.41"/><polygon class="cls-264" points="198.29 775.65 429.87 1007.24 429.11 1007.24 198.29 776.41 198.29 775.65"/><polygon class="cls-265" points="198.29 774.89 430.63 1007.24 429.87 1007.24 198.29 775.65 198.29 774.89"/><polygon class="cls-266" points="198.29 774.13 431.4 1007.24 430.63 1007.24 198.29 774.89 198.29 774.13"/><polygon class="cls-267" points="198.29 773.37 432.16 1007.24 431.4 1007.24 198.29 774.13 198.29 773.37"/><polygon class="cls-268" points="198.29 772.61 432.92 1007.24 432.16 1007.24 198.29 773.37 198.29 772.61"/><polygon class="cls-269" points="198.29 771.84 433.68 1007.24 432.92 1007.24 198.29 772.61 198.29 771.84"/><polygon class="cls-270" points="198.29 771.08 434.44 1007.24 433.68 1007.24 198.29 771.84 198.29 771.08"/><polygon class="cls-271" points="198.29 770.32 435.21 1007.24 434.44 1007.24 198.29 771.08 198.29 770.32"/><polygon class="cls-271" points="198.29 769.56 435.97 1007.24 435.21 1007.24 198.29 770.32 198.29 769.56"/><polygon class="cls-272" points="198.29 768.8 436.73 1007.24 435.97 1007.24 198.29 769.56 198.29 768.8"/><polygon class="cls-273" points="198.29 768.03 437.49 1007.24 436.73 1007.24 198.29 768.8 198.29 768.03"/><polygon class="cls-274" points="198.29 767.27 438.25 1007.24 437.49 1007.24 198.29 768.03 198.29 767.27"/><polygon class="cls-275" points="198.29 766.51 439.02 1007.24 438.25 1007.24 198.29 767.27 198.29 766.51"/><polygon class="cls-276" points="198.29 765.75 439.78 1007.24 439.02 1007.24 198.29 766.51 198.29 765.75"/><polygon class="cls-277" points="198.29 764.99 440.54 1007.24 439.78 1007.24 198.29 765.75 198.29 764.99"/><polygon class="cls-278" points="198.29 764.22 441.3 1007.24 440.54 1007.24 198.29 764.99 198.29 764.22"/><polygon class="cls-279" points="198.29 763.46 442.06 1007.24 441.3 1007.24 198.29 764.22 198.29 763.46"/><polygon class="cls-280" points="198.29 762.7 442.83 1007.24 442.06 1007.24 198.29 763.46 198.29 762.7"/><polygon class="cls-281" points="198.29 761.94 443.59 1007.24 442.83 1007.24 198.29 762.7 198.29 761.94"/><polygon class="cls-282" points="198.29 761.18 444.35 1007.24 443.59 1007.24 198.29 761.94 198.29 761.18"/><polygon class="cls-283" points="198.29 760.41 445.11 1007.24 444.35 1007.24 198.29 761.18 198.29 760.41"/><polygon class="cls-284" points="198.29 759.65 445.87 1007.24 445.11 1007.24 198.29 760.41 198.29 759.65"/><polygon class="cls-285" points="198.29 758.89 446.63 1007.24 445.87 1007.24 198.29 759.65 198.29 758.89"/><polygon class="cls-286" points="198.29 758.13 447.4 1007.24 446.63 1007.24 198.29 758.89 198.29 758.13"/><polygon class="cls-287" points="198.29 757.37 448.16 1007.24 447.4 1007.24 198.29 758.13 198.29 757.37"/><polygon class="cls-288" points="198.29 756.61 448.92 1007.24 448.16 1007.24 198.29 757.37 198.29 756.61"/><polygon class="cls-289" points="198.29 755.84 449.68 1007.24 448.92 1007.24 198.29 756.61 198.29 755.84"/><polygon class="cls-290" points="198.29 755.08 450.44 1007.24 449.68 1007.24 198.29 755.84 198.29 755.08"/><polygon class="cls-291" points="198.29 754.32 451.21 1007.24 450.44 1007.24 198.29 755.08 198.29 754.32"/><polygon class="cls-291" points="198.29 753.56 451.97 1007.24 451.21 1007.24 198.29 754.32 198.29 753.56"/><polygon class="cls-292" points="198.29 752.79 452.73 1007.24 451.97 1007.24 198.29 753.56 198.29 752.79"/><polygon class="cls-293" points="198.29 752.03 453.49 1007.24 452.73 1007.24 198.29 752.79 198.29 752.03"/><polygon class="cls-294" points="198.29 751.27 454.25 1007.24 453.49 1007.24 198.29 752.03 198.29 751.27"/><polygon class="cls-295" points="198.29 750.51 455.02 1007.24 454.25 1007.24 198.29 751.27 198.29 750.51"/><polygon class="cls-296" points="198.29 749.75 455.78 1007.24 455.02 1007.24 198.29 750.51 198.29 749.75"/><polygon class="cls-297" points="198.29 748.99 456.54 1007.24 455.78 1007.24 198.29 749.75 198.29 748.99"/><polygon class="cls-298" points="198.29 748.22 457.3 1007.24 456.54 1007.24 198.29 748.99 198.29 748.22"/><polygon class="cls-299" points="198.29 747.46 458.06 1007.24 457.3 1007.24 198.29 748.22 198.29 747.46"/><polygon class="cls-300" points="198.29 746.7 458.83 1007.24 458.06 1007.24 198.29 747.46 198.29 746.7"/><polygon class="cls-301" points="198.29 745.94 459.59 1007.24 458.83 1007.24 198.29 746.7 198.29 745.94"/><polygon class="cls-302" points="198.29 745.18 460.35 1007.24 459.59 1007.24 198.29 745.94 198.29 745.18"/><polygon class="cls-303" points="198.29 744.41 461.11 1007.24 460.35 1007.24 198.29 745.18 198.29 744.41"/><polygon class="cls-304" points="198.29 743.65 461.87 1007.24 461.11 1007.24 198.29 744.41 198.29 743.65"/><polygon class="cls-305" points="198.29 742.89 462.64 1007.24 461.87 1007.24 198.29 743.65 198.29 742.89"/><polygon class="cls-306" points="198.29 742.13 463.4 1007.24 462.64 1007.24 198.29 742.89 198.29 742.13"/><polygon class="cls-307" points="198.29 741.37 464.16 1007.24 463.4 1007.24 198.29 742.13 198.29 741.37"/><polygon class="cls-308" points="198.29 740.6 464.92 1007.24 464.16 1007.24 198.29 741.37 198.29 740.6"/><polygon class="cls-309" points="198.29 739.84 465.68 1007.24 464.92 1007.24 198.29 740.6 198.29 739.84"/><polygon class="cls-310" points="198.29 739.08 466.45 1007.24 465.68 1007.24 198.29 739.84 198.29 739.08"/><polygon class="cls-311" points="198.29 738.32 467.21 1007.24 466.45 1007.24 198.29 739.08 198.29 738.32"/><polygon class="cls-312" points="198.29 737.56 467.97 1007.24 467.21 1007.24 198.29 738.32 198.29 737.56"/><polygon class="cls-108" points="198.29 736.79 468.73 1007.24 467.97 1007.24 198.29 737.56 198.29 736.79"/><polygon class="cls-108" points="198.29 714.84 277.75 635.38 564.2 635.38 564.2 931.17 488.14 1007.24 468.73 1007.24 198.29 736.79 198.29 714.84"/></g><path d="M384.22,1008.24c-103.08,0-186.93-83.86-186.93-186.93s83.85-186.93,186.93-186.93a189.6,189.6,0,0,1,22.94,1.4l.89.11v39.77l-1.16-.17a149.31,149.31,0,0,0-22.67-1.74c-81.37,0-147.56,66.2-147.56,147.56s66.19,147.56,147.56,147.56A147.34,147.34,0,0,0,524.3,867.79l.23-.69h41l-.33,1.26A186.87,186.87,0,0,1,384.22,1008.24Zm0-371.85c-102,0-184.93,83-184.93,184.92s83,184.92,184.93,184.92A184.86,184.86,0,0,0,562.9,869.11H526A149.33,149.33,0,0,1,384.22,970.88c-82.47,0-149.57-67.1-149.57-149.57s67.1-149.57,149.57-149.57A151.5,151.5,0,0,1,406,673.33V637.67A187.83,187.83,0,0,0,384.22,636.39Z"/><circle class="cls-108" cx="411.12" cy="646.75" r="36.29"/><path d="M411.12,684a37.29,37.29,0,1,1,37.29-37.29A37.33,37.33,0,0,1,411.12,684Zm0-72.57a35.28,35.28,0,1,0,35.28,35.28A35.31,35.31,0,0,0,411.12,611.47Z"/><circle class="cls-107" cx="411.12" cy="646.75" r="17.23"/><path d="M411.15,665a18.26,18.26,0,0,1-15.21-8.12h0A18.24,18.24,0,1,1,411.15,665Zm-13.54-9.24a16.23,16.23,0,1,0,4.51-22.5,16.24,16.24,0,0,0-4.51,22.5Z"/><circle class="cls-108" cx="529.68" cy="906.53" r="32.99"/><path d="M529.68,940.52a34,34,0,1,1,34-34A34,34,0,0,1,529.68,940.52Zm0-66a32,32,0,1,0,32,32A32,32,0,0,0,529.68,874.54Z"/><circle class="cls-107" cx="529.68" cy="906.53" r="23.58"/><path d="M529.68,931.11a24.59,24.59,0,1,1,24.59-24.58A24.61,24.61,0,0,1,529.68,931.11Zm0-47.16a22.58,22.58,0,1,0,22.58,22.58A22.59,22.59,0,0,0,529.68,884Z"/><circle class="cls-108" cx="529.68" cy="906.53" r="11.33"/><path d="M529.68,918.86A12.34,12.34,0,1,1,542,906.53,12.35,12.35,0,0,1,529.68,918.86Zm0-22.66A10.33,10.33,0,1,0,540,906.53,10.34,10.34,0,0,0,529.68,896.2Z"/><rect class="cls-108" x="425.9" y="861.16" width="207.91" height="18.36" transform="translate(1059.71 1740.68) rotate(-180)"/><path d="M634.81,880.52H424.89V860.16H634.81Zm-207.91-2H632.81V862.16H426.9Z"/><rect class="cls-108" x="288.2" y="1052.95" width="253.81" height="26.05" transform="translate(830.21 2131.94) rotate(-180)"/><path d="M543,1080H287.2v-28.06H543Zm-253.82-2H541v-24H289.2Z"/><path class="cls-107" d="M288.2,915.74H439.3a0,0,0,0,1,0,0v73.92A63.28,63.28,0,0,1,376,1052.95H351.48a63.28,63.28,0,0,1-63.28-63.28V915.74A0,0,0,0,1,288.2,915.74Z" transform="translate(727.49 1968.69) rotate(-180)"/><path d="M440.3,1054H287.2V974.49A59.82,59.82,0,0,1,347,914.74h33.59a59.83,59.83,0,0,1,59.76,59.75Zm-151.1-2H438.29V974.49a57.8,57.8,0,0,0-57.75-57.74H347a57.81,57.81,0,0,0-57.75,57.74Z"/><circle class="cls-108" cx="363.75" cy="984.34" r="20.47"/><path d="M363.75,1005.82a21.48,21.48,0,1,1,21.47-21.48A21.51,21.51,0,0,1,363.75,1005.82Zm0-40.94a19.47,19.47,0,1,0,19.46,19.46A19.48,19.48,0,0,0,363.75,964.88Z"/><rect class="cls-107" x="1834.63" y="727.67" width="114.76" height="351.79"/><path d="M1949.93,1080H1834.09V727.13h115.84Zm-114.76-1.09h113.68V728.21H1835.17Z"/><rect class="cls-107" x="1949.39" y="890.38" width="79.35" height="189.08" transform="translate(3978.13 1969.84) rotate(180)"/><path d="M2029.29,1080h-80.44V889.84h80.44Zm-79.36-1.09h78.27v-188h-78.27Z"/><rect class="cls-106" x="1827.13" y="890.38" width="122.26" height="9.98"/><path d="M1949.93,900.9H1826.58V889.84h123.35Zm-122.26-1.08h121.18v-8.9H1827.67Z"/><rect class="cls-106" x="1827.13" y="804.03" width="130.91" height="9.98"/><path d="M1958.57,814.56h-132V803.49h132Zm-130.9-1.09h129.82v-8.89H1827.67Z"/><rect class="cls-106" x="1827.13" y="717.69" width="130.91" height="9.98"/><path d="M1958.57,728.21h-132V717.15h132Zm-130.9-1.08h129.82v-8.9H1827.67Z"/><rect class="cls-106" x="1949.39" y="890.38" width="79.35" height="9.98" transform="translate(3978.13 1790.74) rotate(180)"/><path d="M2029.29,900.9h-80.44V889.84h80.44Zm-79.36-1.08h78.27v-8.9h-78.27Z"/><rect class="cls-106" x="1827.13" y="976.72" width="122.26" height="9.98"/><path d="M1949.93,987.25H1826.58V976.18h123.35Zm-122.26-1.09h121.18v-8.89H1827.67Z"/><rect class="cls-106" x="1949.39" y="976.72" width="79.35" height="9.98" transform="translate(3978.13 1963.43) rotate(180)"/><path d="M2029.29,987.25h-80.44V976.18h80.44Zm-79.36-1.09h78.27v-8.89h-78.27Z"/><rect class="cls-107" x="1844.24" y="823.15" width="25.84" height="56.15"/><path d="M1870.63,879.84H1843.7V822.61h26.93Zm-25.84-1.08h24.75V823.69h-24.75Z"/><rect class="cls-107" x="1879.66" y="823.15" width="25.84" height="56.15"/><path d="M1906,879.84h-26.93V822.61H1906Zm-25.84-1.08H1905V823.69H1880.2Z"/><rect class="cls-107" x="1915.07" y="823.15" width="25.84" height="56.15"/><path d="M1941.46,879.84h-26.93V822.61h26.93Zm-25.85-1.08h24.76V823.69h-24.76Z"/><rect class="cls-107" x="1844.24" y="737.78" width="25.84" height="56.15"/><path d="M1870.63,794.47H1843.7V737.23h26.93Zm-25.84-1.09h24.75V738.32h-24.75Z"/><rect class="cls-107" x="1879.66" y="737.78" width="25.84" height="56.15"/><path d="M1906,794.47h-26.93V737.23H1906Zm-25.84-1.09H1905V738.32H1880.2Z"/><rect class="cls-107" x="1915.07" y="737.78" width="25.84" height="56.15"/><path d="M1941.46,794.47h-26.93V737.23h26.93Zm-25.85-1.09h24.76V738.32h-24.76Z"/><rect class="cls-107" x="1844.24" y="910.47" width="25.84" height="56.15"/><path d="M1870.63,967.16H1843.7V909.92h26.93Zm-25.84-1.09h24.75V911h-24.75Z"/><rect class="cls-107" x="1879.66" y="910.47" width="25.84" height="56.15"/><path d="M1906,967.16h-26.93V909.92H1906Zm-25.84-1.09H1905V911H1880.2Z"/><rect class="cls-107" x="1915.07" y="910.47" width="25.84" height="56.15"/><path d="M1941.46,967.16h-26.93V909.92h26.93Zm-25.85-1.09h24.76V911h-24.76Z"/><rect class="cls-107" x="1958.52" y="910.47" width="25.84" height="56.15"/><path d="M1984.91,967.16H1958V909.92h26.93Zm-25.84-1.09h24.75V911h-24.75Z"/><rect class="cls-107" x="1993.94" y="910.47" width="25.84" height="56.15"/><path d="M2020.32,967.16h-26.93V909.92h26.93Zm-25.84-1.09h24.76V911h-24.76Z"/><rect x="1834.63" y="996.36" width="194.11" height="1.09"/><rect class="cls-107" x="1847.79" y="740.92" width="18.75" height="49.87"/><path d="M1867.08,791.33h-19.83v-51h19.83Zm-18.75-1.09H1866V741.46h-17.66Z"/><rect x="1847.79" y="740.38" width="18.75" height="1.09"/><rect x="1847.79" y="746.61" width="18.75" height="1.09"/><rect x="1847.79" y="752.84" width="18.75" height="1.09"/><rect x="1847.79" y="759.08" width="18.75" height="1.09"/><rect x="1847.79" y="765.31" width="18.75" height="1.09"/><rect x="1847.79" y="771.54" width="18.75" height="1.09"/><rect x="1847.79" y="777.77" width="18.75" height="1.09"/><rect x="1847.79" y="784.01" width="18.75" height="1.09"/><rect x="1847.79" y="790.24" width="18.75" height="1.09"/><rect class="cls-107" x="1883.2" y="740.92" width="18.75" height="49.87"/><path d="M1902.49,791.33h-19.83v-51h19.83Zm-18.74-1.09h17.66V741.46h-17.66Z"/><rect x="1883.2" y="740.38" width="18.75" height="1.09"/><rect x="1883.2" y="746.61" width="18.75" height="1.09"/><rect x="1883.2" y="752.84" width="18.75" height="1.09"/><rect x="1883.2" y="759.08" width="18.75" height="1.09"/><rect x="1883.2" y="765.31" width="18.75" height="1.09"/><rect x="1883.2" y="771.54" width="18.75" height="1.09"/><rect x="1883.2" y="777.77" width="18.75" height="1.09"/><rect x="1883.2" y="784.01" width="18.75" height="1.09"/><rect x="1883.2" y="790.24" width="18.75" height="1.09"/><rect class="cls-107" x="1918.62" y="740.92" width="18.75" height="49.87"/><path d="M1937.91,791.33h-19.83v-51h19.83Zm-18.75-1.09h17.66V741.46h-17.66Z"/><rect x="1918.62" y="740.38" width="18.75" height="1.09"/><rect x="1918.62" y="746.61" width="18.75" height="1.09"/><rect x="1918.62" y="752.84" width="18.75" height="1.09"/><rect x="1918.62" y="759.08" width="18.75" height="1.09"/><rect x="1918.62" y="765.31" width="18.75" height="1.09"/><rect x="1918.62" y="771.54" width="18.75" height="1.09"/><rect x="1918.62" y="777.77" width="18.75" height="1.09"/><rect x="1918.62" y="784.01" width="18.75" height="1.09"/><rect x="1918.62" y="790.24" width="18.75" height="1.09"/><rect class="cls-107" x="1847.79" y="826.29" width="18.75" height="49.87"/><path d="M1867.08,876.7h-19.83v-51h19.83Zm-18.75-1.09H1866V826.83h-17.66Z"/><rect x="1847.79" y="825.75" width="18.75" height="1.09"/><rect x="1847.79" y="831.98" width="18.75" height="1.09"/><rect x="1847.79" y="838.21" width="18.75" height="1.09"/><rect x="1847.79" y="844.45" width="18.75" height="1.09"/><rect x="1847.79" y="850.68" width="18.75" height="1.09"/><rect x="1847.79" y="856.91" width="18.75" height="1.09"/><rect x="1847.79" y="863.15" width="18.75" height="1.09"/><rect x="1847.79" y="869.38" width="18.75" height="1.09"/><rect x="1847.79" y="875.61" width="18.75" height="1.09"/><rect class="cls-107" x="1883.2" y="826.29" width="18.75" height="49.87"/><path d="M1902.49,876.7h-19.83v-51h19.83Zm-18.74-1.09h17.66V826.83h-17.66Z"/><rect x="1883.2" y="825.75" width="18.75" height="1.09"/><rect x="1883.2" y="831.98" width="18.75" height="1.09"/><rect x="1883.2" y="838.21" width="18.75" height="1.09"/><rect x="1883.2" y="844.45" width="18.75" height="1.09"/><rect x="1883.2" y="850.68" width="18.75" height="1.09"/><rect x="1883.2" y="856.91" width="18.75" height="1.09"/><rect x="1883.2" y="863.15" width="18.75" height="1.09"/><rect x="1883.2" y="869.38" width="18.75" height="1.09"/><rect x="1883.2" y="875.61" width="18.75" height="1.09"/><rect class="cls-107" x="1918.62" y="826.29" width="18.75" height="49.87"/><path d="M1937.91,876.7h-19.83v-51h19.83Zm-18.75-1.09h17.66V826.83h-17.66Z"/><rect x="1918.62" y="825.75" width="18.75" height="1.09"/><rect x="1918.62" y="831.98" width="18.75" height="1.09"/><rect x="1918.62" y="838.21" width="18.75" height="1.09"/><rect x="1918.62" y="844.45" width="18.75" height="1.09"/><rect x="1918.62" y="850.68" width="18.75" height="1.09"/><rect x="1918.62" y="856.91" width="18.75" height="1.09"/><rect x="1918.62" y="863.15" width="18.75" height="1.09"/><rect x="1918.62" y="869.38" width="18.75" height="1.09"/><rect x="1918.62" y="875.61" width="18.75" height="1.09"/><rect class="cls-107" x="1847.79" y="913.61" width="18.75" height="49.87"/><path d="M1867.08,964h-19.83V913.07h19.83Zm-18.75-1.09H1866V914.15h-17.66Z"/><rect x="1847.79" y="913.07" width="18.75" height="1.09"/><rect x="1847.79" y="919.3" width="18.75" height="1.09"/><rect x="1847.79" y="925.53" width="18.75" height="1.09"/><rect x="1847.79" y="931.77" width="18.75" height="1.09"/><rect x="1847.79" y="938" width="18.75" height="1.09"/><rect x="1847.79" y="944.23" width="18.75" height="1.09"/><rect x="1847.79" y="950.46" width="18.75" height="1.09"/><rect x="1847.79" y="956.7" width="18.75" height="1.09"/><rect x="1847.79" y="962.93" width="18.75" height="1.09"/><rect class="cls-107" x="1883.2" y="913.61" width="18.75" height="49.87"/><path d="M1902.49,964h-19.83V913.07h19.83Zm-18.74-1.09h17.66V914.15h-17.66Z"/><rect x="1883.2" y="913.07" width="18.75" height="1.09"/><rect x="1883.2" y="919.3" width="18.75" height="1.09"/><rect x="1883.2" y="925.53" width="18.75" height="1.09"/><rect x="1883.2" y="931.77" width="18.75" height="1.09"/><rect x="1883.2" y="938" width="18.75" height="1.09"/><rect x="1883.2" y="944.23" width="18.75" height="1.09"/><rect x="1883.2" y="950.46" width="18.75" height="1.09"/><rect x="1883.2" y="956.7" width="18.75" height="1.09"/><rect x="1883.2" y="962.93" width="18.75" height="1.09"/><rect class="cls-107" x="1918.62" y="913.61" width="18.75" height="49.87"/><path d="M1937.91,964h-19.83V913.07h19.83Zm-18.75-1.09h17.66V914.15h-17.66Z"/><rect x="1918.62" y="913.07" width="18.75" height="1.09"/><rect x="1918.62" y="919.3" width="18.75" height="1.09"/><rect x="1918.62" y="925.53" width="18.75" height="1.09"/><rect x="1918.62" y="931.77" width="18.75" height="1.09"/><rect x="1918.62" y="938" width="18.75" height="1.09"/><rect x="1918.62" y="944.23" width="18.75" height="1.09"/><rect x="1918.62" y="950.46" width="18.75" height="1.09"/><rect x="1918.62" y="956.7" width="18.75" height="1.09"/><rect x="1918.62" y="962.93" width="18.75" height="1.09"/><rect class="cls-107" x="1962.07" y="913.61" width="18.75" height="49.87"/><path d="M1981.36,964h-19.83V913.07h19.83Zm-18.75-1.09h17.67V914.15h-17.67Z"/><rect x="1962.07" y="913.07" width="18.75" height="1.09"/><rect x="1962.07" y="919.3" width="18.75" height="1.09"/><rect x="1962.07" y="925.53" width="18.75" height="1.09"/><rect x="1962.07" y="931.77" width="18.75" height="1.09"/><rect x="1962.07" y="938" width="18.75" height="1.09"/><rect x="1962.07" y="944.23" width="18.75" height="1.09"/><rect x="1962.07" y="950.46" width="18.75" height="1.09"/><rect x="1962.07" y="956.7" width="18.75" height="1.09"/><rect x="1962.07" y="962.93" width="18.75" height="1.09"/><rect class="cls-107" x="1997.48" y="913.61" width="18.75" height="49.87"/><path d="M2016.78,964h-19.84V913.07h19.84ZM1998,962.93h17.66V914.15H1998Z"/><rect x="1997.48" y="913.07" width="18.75" height="1.09"/><rect x="1997.48" y="919.3" width="18.75" height="1.09"/><rect x="1997.48" y="925.53" width="18.75" height="1.09"/><rect x="1997.48" y="931.77" width="18.75" height="1.09"/><rect x="1997.48" y="938" width="18.75" height="1.09"/><rect x="1997.48" y="944.23" width="18.75" height="1.09"/><rect x="1997.48" y="950.46" width="18.75" height="1.09"/><rect x="1997.48" y="956.7" width="18.75" height="1.09"/><rect x="1997.48" y="962.93" width="18.75" height="1.09"/><rect class="cls-107" x="1844.24" y="1005.24" width="25.84" height="74.22"/><path d="M1870.63,1080H1843.7v-75.3h26.93Zm-25.84-1.09h24.75v-73.13h-24.75Z"/><rect class="cls-107" x="1879.66" y="1005.24" width="25.84" height="74.22"/><path d="M1906,1080h-26.93v-75.3H1906Zm-25.84-1.09H1905v-73.13H1880.2Z"/><rect class="cls-107" x="1915.07" y="1005.24" width="25.84" height="74.22"/><path d="M1941.46,1080h-26.93v-75.3h26.93Zm-25.85-1.09h24.76v-73.13h-24.76Z"/><rect class="cls-107" x="1958.52" y="1005.24" width="25.84" height="74.22"/><path d="M1984.91,1080H1958v-75.3h26.93Zm-25.84-1.09h24.75v-73.13h-24.75Z"/><rect class="cls-107" x="1993.94" y="1005.24" width="25.84" height="74.22"/><path d="M2020.32,1080h-26.93v-75.3h26.93Zm-25.84-1.09h24.76v-73.13h-24.76Z"/><rect class="cls-107" x="1847.79" y="1009.64" width="18.75" height="69.82"/><path d="M1867.08,1080h-19.83v-70.91h19.83Zm-18.75-1.09H1866v-68.73h-17.66Z"/><rect x="1847.79" y="1009.09" width="18.75" height="1.09"/><rect x="1847.79" y="1017.82" width="18.75" height="1.09"/><rect x="1847.79" y="1026.55" width="18.75" height="1.09"/><rect x="1847.79" y="1035.28" width="18.75" height="1.09"/><rect x="1847.79" y="1044" width="18.75" height="1.09"/><rect x="1847.79" y="1052.73" width="18.75" height="1.09"/><rect x="1847.79" y="1061.46" width="18.75" height="1.09"/><rect x="1847.79" y="1070.19" width="18.75" height="1.09"/><rect x="1847.79" y="1078.91" width="18.75" height="1.09"/><rect class="cls-107" x="1883.2" y="1009.64" width="18.75" height="69.82"/><path d="M1902.49,1080h-19.83v-70.91h19.83Zm-18.74-1.09h17.66v-68.73h-17.66Z"/><rect x="1883.2" y="1009.09" width="18.75" height="1.09"/><rect x="1883.2" y="1017.82" width="18.75" height="1.09"/><rect x="1883.2" y="1026.55" width="18.75" height="1.09"/><rect x="1883.2" y="1035.28" width="18.75" height="1.09"/><rect x="1883.2" y="1044" width="18.75" height="1.09"/><rect x="1883.2" y="1052.73" width="18.75" height="1.09"/><rect x="1883.2" y="1061.46" width="18.75" height="1.09"/><rect x="1883.2" y="1070.19" width="18.75" height="1.09"/><rect x="1883.2" y="1078.91" width="18.75" height="1.09"/><rect class="cls-107" x="1918.62" y="1009.64" width="18.75" height="69.82"/><path d="M1937.91,1080h-19.83v-70.91h19.83Zm-18.75-1.09h17.66v-68.73h-17.66Z"/><rect x="1918.62" y="1009.09" width="18.75" height="1.09"/><rect x="1918.62" y="1017.82" width="18.75" height="1.09"/><rect x="1918.62" y="1026.55" width="18.75" height="1.09"/><rect x="1918.62" y="1035.28" width="18.75" height="1.09"/><rect x="1918.62" y="1044" width="18.75" height="1.09"/><rect x="1918.62" y="1052.73" width="18.75" height="1.09"/><rect x="1918.62" y="1061.46" width="18.75" height="1.09"/><rect x="1918.62" y="1070.19" width="18.75" height="1.09"/><rect x="1918.62" y="1078.91" width="18.75" height="1.09"/><rect class="cls-107" x="1962.07" y="1009.64" width="18.75" height="69.82"/><path d="M1981.36,1080h-19.83v-70.91h19.83Zm-18.75-1.09h17.67v-68.73h-17.67Z"/><rect x="1962.07" y="1009.09" width="18.75" height="1.09"/><rect x="1962.07" y="1017.82" width="18.75" height="1.09"/><rect x="1962.07" y="1026.55" width="18.75" height="1.09"/><rect x="1962.07" y="1035.28" width="18.75" height="1.09"/><rect x="1962.07" y="1044" width="18.75" height="1.09"/><rect x="1962.07" y="1052.73" width="18.75" height="1.09"/><rect x="1962.07" y="1061.46" width="18.75" height="1.09"/><rect x="1962.07" y="1070.19" width="18.75" height="1.09"/><rect x="1962.07" y="1078.91" width="18.75" height="1.09"/><rect class="cls-107" x="1997.48" y="1009.64" width="18.75" height="69.82"/><path d="M2016.78,1080h-19.84v-70.91h19.84Zm-18.75-1.09h17.66v-68.73H1998Z"/><rect x="1997.48" y="1009.09" width="18.75" height="1.09"/><rect x="1997.48" y="1017.82" width="18.75" height="1.09"/><rect x="1997.48" y="1026.55" width="18.75" height="1.09"/><rect x="1997.48" y="1035.28" width="18.75" height="1.09"/><rect x="1997.48" y="1044" width="18.75" height="1.09"/><rect x="1997.48" y="1052.73" width="18.75" height="1.09"/><rect x="1997.48" y="1061.46" width="18.75" height="1.09"/><rect x="1997.48" y="1070.19" width="18.75" height="1.09"/><rect x="1997.48" y="1078.91" width="18.75" height="1.09"/></g></g></svg>