<svg xmlns="http://www.w3.org/2000/svg" viewBox="0 0 818.87 440.6"><defs><style>.cls-1{font-size:36px;font-family:Butler-Bold, Butler;font-weight:700;}.cls-2{fill:#f14349;}.cls-3{fill:#fff;}</style></defs><title>cronograma_assinatura_topo</title><g id="Camada_2" data-name="Camada 2"><g id="Camada_1-2" data-name="Camada 1"><text class="cls-1" transform="translate(372.71 306.29)">2021</text><polygon points="516.04 163.51 513.58 163.51 512.25 167.23 514.21 167.23 516.04 163.51"/><path d="M420.25,137.12a9.55,9.55,0,0,0-2.46-1.13,10,10,0,0,0-6.52.29,9.06,9.06,0,0,0-5,4.76,8.41,8.41,0,0,0-.74,3.49V158.3h5.67V144.53a3.37,3.37,0,0,1,.3-1.41,3.54,3.54,0,0,1,.82-1.15,3.65,3.65,0,0,1,1.19-.75A3.92,3.92,0,0,1,415,141a3.56,3.56,0,0,1,2.67,1.06,3.81,3.81,0,0,1,1.12,2.52V158.3h5.66V144.53a8.24,8.24,0,0,0-1.13-4.24,9.19,9.19,0,0,0-3.06-3.17"/><path d="M434.69,142.78a6.47,6.47,0,0,1,2.2-1.38,6.94,6.94,0,0,1,2.45-.45,7.13,7.13,0,0,1,2.5.45,6.34,6.34,0,0,1,2.19,1.38l4-3.8a12,12,0,0,0-4-2.54,13,13,0,0,0-4.67-.86,12.56,12.56,0,0,0-4.48.84,12.83,12.83,0,0,0-3.93,2.36,12.14,12.14,0,0,0-2.8,3.67,10.49,10.49,0,0,0-1.08,4.77,11,11,0,0,0,.86,4.19,11.51,11.51,0,0,0,2.45,3.72,12.72,12.72,0,0,0,3.88,2.68,12,12,0,0,0,5.1,1A12.8,12.8,0,0,0,444,158a12,12,0,0,0,4-2.54l-4-3.79a6.31,6.31,0,0,1-2.19,1.37,7.13,7.13,0,0,1-2.5.45,6.73,6.73,0,0,1-2.32-.43,6.91,6.91,0,0,1-2.14-1.23,6.54,6.54,0,0,1-1.55-2,5.66,5.66,0,0,1-.6-2.63,5.92,5.92,0,0,1,.49-2.37,6.2,6.2,0,0,1,1.47-2.07"/><path d="M467.82,137.58a13.63,13.63,0,0,0-3.22-1.46,12.28,12.28,0,0,0-3.66-.54,12.75,12.75,0,0,0-8.65,3.36,11.93,11.93,0,0,0-2.66,3.69,10.68,10.68,0,0,0-1,4.59,10.84,10.84,0,0,0,1,4.54,11.58,11.58,0,0,0,2.65,3.69,12.67,12.67,0,0,0,3.91,2.49,12.74,12.74,0,0,0,13.43-2.49,12,12,0,0,0,2.64-3.69,10.95,10.95,0,0,0-.51-10.08,12.86,12.86,0,0,0-3.91-4.1m-.8,12.07a6.12,6.12,0,0,1-2.4,2.77,6.6,6.6,0,0,1-3.68,1.06,6.78,6.78,0,0,1-2.61-.5,6.68,6.68,0,0,1-2.1-1.34,6.08,6.08,0,0,1-1.4-2,6.07,6.07,0,0,1,0-4.87,6.14,6.14,0,0,1,1.42-2,6.57,6.57,0,0,1,2.12-1.35,6.87,6.87,0,0,1,2.57-.48,6.63,6.63,0,0,1,2.51.48,6.89,6.89,0,0,1,2.1,1.33,6.53,6.53,0,0,1,1.46,2,5.9,5.9,0,0,1,0,4.91"/><path d="M490.86,137.12A9.55,9.55,0,0,0,488.4,136a10,10,0,0,0-6.52.29,9.28,9.28,0,0,0-3,1.91,9.12,9.12,0,0,0-2,2.85,8.41,8.41,0,0,0-.74,3.49V158.3h5.67V144.53a3.23,3.23,0,0,1,.31-1.41,3.52,3.52,0,0,1,.81-1.15,3.76,3.76,0,0,1,1.19-.75,4,4,0,0,1,1.48-.27,3.55,3.55,0,0,1,2.66,1.06,3.81,3.81,0,0,1,1.12,2.52V158.3h5.67V144.53a8.25,8.25,0,0,0-1.14-4.24,9,9,0,0,0-3.06-3.17"/><polygon points="497.84 141.5 503.51 141.5 503.51 158.3 509.18 158.3 509.18 141.5 514.85 141.5 514.85 136.13 497.84 136.13 497.84 141.5"/><path d="M519.16,140.7a11.27,11.27,0,0,0-1.53,3,10.84,10.84,0,0,0-.55,3.48V158.3h5.67V147.22a5.8,5.8,0,0,1,.51-2.42,6.58,6.58,0,0,1,1.4-2,6.73,6.73,0,0,1,2.1-1.36,6.85,6.85,0,0,1,2.61-.5v-5.37a12.55,12.55,0,0,0-5.82,1.38,12.09,12.09,0,0,0-4.39,3.74"/><path d="M549.85,137.58a13.38,13.38,0,0,0-3.21-1.46,12.3,12.3,0,0,0-3.67-.54,12.7,12.7,0,0,0-8.64,3.36,12,12,0,0,0-2.67,3.69,11.23,11.23,0,0,0,0,9.13,11.74,11.74,0,0,0,2.65,3.69,12.72,12.72,0,0,0,3.92,2.49,12.7,12.7,0,0,0,13.42-2.49,12.06,12.06,0,0,0,2.65-3.69,11,11,0,0,0-.51-10.08,12.9,12.9,0,0,0-3.92-4.1m-.79,12.07a6.25,6.25,0,0,1-2.4,2.77,6.66,6.66,0,0,1-3.69,1.06,6.84,6.84,0,0,1-4.71-1.84,6.06,6.06,0,0,1-1.39-2,6,6,0,0,1,0-4.87,6.11,6.11,0,0,1,1.41-2,6.67,6.67,0,0,1,2.12-1.35A6.91,6.91,0,0,1,543,141a6.63,6.63,0,0,1,2.51.48,7.06,7.06,0,0,1,2.11,1.33,6.67,6.67,0,0,1,1.45,2,5.77,5.77,0,0,1,.55,2.48,6,6,0,0,1-.53,2.43"/><path d="M572.35,151.32c0-.17,0-.34,0-.51a7.22,7.22,0,0,0-7.38-6.2h-.25a1.7,1.7,0,0,1-1.74-1.48s0-.09,0-.14,0-.11,0-.16a1.7,1.7,0,0,1,1.74-1.46h6.74v-5.24h-6.68a7.93,7.93,0,0,0-2.87.56,7.74,7.74,0,0,0-2.4,1.5,7.14,7.14,0,0,0-1.62,2.22,6,6,0,0,0-.58,2.28v.14a.92.92,0,0,0,0,.16v.12a1.21,1.21,0,0,1,0,.19c0,.15,0,.3,0,.44h0a5.85,5.85,0,0,0,.52,1.79,7,7,0,0,0,1.18,1.79l.42.43a7.61,7.61,0,0,0,2.4,1.52,7.73,7.73,0,0,0,3,.56h.13a1.69,1.69,0,0,1,1.73,1.47,1,1,0,0,1,0,.28,1.69,1.69,0,0,1-1.73,1.47h-6.74v5.24h7a7.32,7.32,0,0,0,6.87-5.06v0c0-.13.08-.26.11-.39l.09-.48c0-.25.06-.5.07-.76Z"/><polygon points="401.87 141.5 401.87 136.13 391.84 136.13 386.96 136.13 386.17 136.13 386.17 158.3 386.96 158.3 391.84 158.3 401.87 158.3 401.87 152.93 391.84 152.93 391.84 149.76 399.85 149.76 399.85 144.9 391.84 144.9 391.84 141.5 401.87 141.5"/><path d="M392.61,177.5c0,1.69-.77,2.63-2.17,2.63s-2.18-.94-2.18-2.63v-8.23h-2.15v8.23c0,2.94,1.57,4.63,4.33,4.63s4.32-1.69,4.32-4.63v-8.23h-2.15Z"/><polygon points="406.22 177.7 401.88 169.27 399.75 169.27 399.75 181.95 401.91 181.95 401.91 173.53 406.25 181.95 408.37 181.95 408.37 169.27 406.22 169.27 406.22 177.7"/><polygon points="413.19 171.27 416.62 171.27 416.62 179.95 413.19 179.95 413.19 181.95 422.2 181.95 422.2 179.95 418.77 179.95 418.77 171.27 422.2 171.27 422.2 169.27 413.19 169.27 413.19 171.27"/><polygon points="431.32 178.35 428.5 169.27 426.31 169.27 430.32 181.95 432.31 181.95 436.32 169.27 434.13 169.27 431.32 178.35"/><polygon points="440.97 181.95 449.45 181.95 449.45 179.95 443.13 179.95 443.13 176.17 448.83 176.17 448.83 174.17 443.13 174.17 443.13 171.27 449.45 171.27 449.45 169.27 440.97 169.27 440.97 181.95"/><path d="M463,172.72c0-2.16-1.42-3.45-3.8-3.45H454.6V182h2.16v-5.78H458l3.56,5.78H464l-3.63-5.9a3.16,3.16,0,0,0,2.63-3.33m-6.2-1.45h2.4c1.17,0,1.65.42,1.65,1.45s-.48,1.45-1.65,1.45h-2.4Z"/><path d="M472.47,174.3c-1.86-.54-2.24-1-2.24-1.53,0-1,.78-1.68,2-1.68a2.58,2.58,0,0,1,2.6,2.28l.05.31,1.94-.47,0-.27a4.39,4.39,0,0,0-4.55-3.85c-2.47,0-4.13,1.48-4.13,3.68,0,1.72,1.11,2.75,3.86,3.56,2.32.68,2.79,1.25,2.79,1.89,0,1.16-1,1.91-2.52,1.91a2.54,2.54,0,0,1-2.78-2.63v-.3h-2.07v.3c0,2.77,1.95,4.62,4.85,4.62s4.68-1.56,4.68-3.9c0-1.84-1.24-2.94-4.42-3.92"/><polygon points="481.34 171.27 484.76 171.27 484.76 179.95 481.34 179.95 481.34 181.95 490.34 181.95 490.34 179.95 486.92 179.95 486.92 171.27 490.34 171.27 490.34 169.27 481.34 169.27 481.34 171.27"/><polygon points="494.97 171.27 498.39 171.27 498.39 181.95 500.55 181.95 500.55 171.27 503.97 171.27 503.97 169.27 494.97 169.27 494.97 171.27"/><path d="M512.1,169.27l-4,12.68h2.18l1.09-3.46h3.48l1.07,3.46h2.18l-4-12.68Zm2.12,7.23H512l1.12-4.29Z"/><path d="M531.11,172.72c0-2.16-1.42-3.45-3.81-3.45h-4.55V182h2.15v-5.78h1.21l3.57,5.78h2.43l-3.63-5.9a3.16,3.16,0,0,0,2.63-3.33m-6.21-1.45h2.4c1.18,0,1.65.42,1.65,1.45s-.47,1.45-1.65,1.45h-2.4Z"/><polygon points="535.86 171.27 539.28 171.27 539.28 179.95 535.86 179.95 535.86 181.95 544.86 181.95 544.86 179.95 541.43 179.95 541.43 171.27 544.86 171.27 544.86 169.27 535.86 169.27 535.86 171.27"/><path d="M554,169.09c-3.09,0-4.85,2.38-4.85,6.52s1.76,6.52,4.85,6.52,4.85-2.38,4.85-6.52-1.77-6.52-4.85-6.52m0,11c-2.35,0-2.7-2.83-2.7-4.52s.35-4.52,2.7-4.52,2.69,2.83,2.69,4.52-.35,4.52-2.69,4.52"/><path d="M567.87,174.3c-1.86-.54-2.23-1-2.23-1.53,0-1,.77-1.68,2-1.68a2.58,2.58,0,0,1,2.59,2.28l.06.31,1.94-.47,0-.27a4.4,4.4,0,0,0-4.55-3.85c-2.48,0-4.14,1.48-4.14,3.68,0,1.72,1.12,2.75,3.86,3.56,2.32.68,2.8,1.25,2.8,1.89,0,1.16-1,1.91-2.52,1.91a2.54,2.54,0,0,1-2.79-2.63v-.3h-2.07v.3c0,2.77,2,4.62,4.86,4.62s4.67-1.56,4.67-3.9c0-1.84-1.23-2.94-4.42-3.92"/><path d="M307,98.33a60.5,60.5,0,1,0,60.49,60.49A60.49,60.49,0,0,0,307,98.33m-45.42,44,3.84-3.85,7.69-7.68,3.85,3.84-7.69,7.69,2.56,2.56,6.32-6.32,3.74,3.74-6.32,6.32,2.67,2.67,7.69-7.69,3.84,3.84-7.69,7.69L278.25,159l-3.84-3.85-9-9Zm25.57,43.36-4.39-3.21-10.7,14.62-4.39-3.21,10.71-14.63L274,176.09l3.21-4.38,13.16,9.63Zm4.35-59.1,9-11.41a8.69,8.69,0,0,1,2.73-2.34,9.42,9.42,0,0,1,3.3-1.08,9.13,9.13,0,0,1,3.44.24,8.89,8.89,0,0,1,3.25,1.66,8.49,8.49,0,0,1,1.85,2,9.25,9.25,0,0,1,1.48,6.69,8.92,8.92,0,0,1-1.8,4l-9,11.4-4.27-3.36,8.95-11.4a3.9,3.9,0,0,0,.74-2.67,3.32,3.32,0,0,0-1.35-2.42,3.81,3.81,0,0,0-1.28-.66,3.53,3.53,0,0,0-1.37-.11,3.66,3.66,0,0,0-1.33.44,3.44,3.44,0,0,0-1.11.94l-9,11.4Zm8.24,41.43a11.19,11.19,0,0,1-1.43-5.6,11.43,11.43,0,0,1,.94-4.6,12.15,12.15,0,0,1,2.54-3.73,12,12,0,0,1,3.75-2.53,11.56,11.56,0,0,1,4.55-.92,11.35,11.35,0,0,1,4.57.93,12,12,0,0,1,3.75,2.51,11.8,11.8,0,0,1,2.54,3.74,11.56,11.56,0,0,1,.92,4.6,11.35,11.35,0,0,1-.94,4.64,11.8,11.8,0,0,1-6.31,6.24,11.52,11.52,0,0,1-4.53.9,11.31,11.31,0,0,1-3.51-.54,13,13,0,0,1-3.09-1.49,12.68,12.68,0,0,1-3.75-4.15m25.1,30.52-3-5.6a1.71,1.71,0,0,0-1.12-.91,1.84,1.84,0,0,0-1.33.16,1.69,1.69,0,0,0-.92,1.1,1.87,1.87,0,0,0,.17,1.35,7.17,7.17,0,0,1,.72,2,7.12,7.12,0,0,1-1.11,5.37,7.16,7.16,0,0,1-5.4,3.2,7.13,7.13,0,0,1-2.77-.31,7.27,7.27,0,0,1-4.25-3.51l-3-5.6,4.8-2.55,3,5.6a1.72,1.72,0,0,0,1.09.88,1.83,1.83,0,0,0,2.12-2.58,7,7,0,0,1-.83-2.79,7.16,7.16,0,0,1,.32-2.77,7.47,7.47,0,0,1,1.3-2.44,7,7,0,0,1,2.21-1.8,6.77,6.77,0,0,1,2.75-.81,7.27,7.27,0,0,1,2.76.3,7.39,7.39,0,0,1,2.46,1.3,6.8,6.8,0,0,1,1.83,2.21l3,5.6Zm6.62-76.75,4.73,2.68a6.28,6.28,0,0,0-.8,2.43,6.37,6.37,0,0,0,.21,2.43,6.64,6.64,0,0,0,1.08,2.16,6.34,6.34,0,0,0,1.89,1.63L348.83,139l-2.69,4.73-10.24-5.82a11.52,11.52,0,0,1-2.8-2.19,12.4,12.4,0,0,1-2-2.8,11.93,11.93,0,0,1-1.22-5.53,11.57,11.57,0,0,1,1.55-5.54m21.42,54a12,12,0,0,1-2.85,3.56,11.41,11.41,0,0,1-4.08,2.22l-1.61-5.18a6.33,6.33,0,0,0,2.21-1.21,6.48,6.48,0,0,0,1.51-1.91,6.62,6.62,0,0,0,.7-2.3,6.2,6.2,0,0,0-.26-2.51,6.42,6.42,0,0,0-1.21-2.23,6.19,6.19,0,0,0-1.89-1.53,6,6,0,0,0-2.63-.72,6.46,6.46,0,0,0-4.52,1.62,6.33,6.33,0,0,0-1.42,1.77,6.51,6.51,0,0,0-.71,2.33,6,6,0,0,0,.26,2.51l-5.19,1.61a11.35,11.35,0,0,1-.48-4.61,11.78,11.78,0,0,1,1.31-4.37,11.16,11.16,0,0,1,3.2-3.84,12.28,12.28,0,0,1,4.14-2,11.84,11.84,0,0,1,4.43-.33,11.69,11.69,0,0,1,4.13,1.25,11,11,0,0,1,3.79,3.15,12.05,12.05,0,0,1,2.41,8.56,11.39,11.39,0,0,1-1.24,4.19"/><path d="M304.27,160a6.29,6.29,0,0,1,5.83-3.88,6.11,6.11,0,0,1,2.5.51,6.42,6.42,0,0,1,2,1.36,6.26,6.26,0,0,1,1.34,2,6.35,6.35,0,0,1,.49,2.46,6.31,6.31,0,0,1-3.88,5.86,6.25,6.25,0,0,1-2.47.48,6.09,6.09,0,0,1-2.4-.48,6.66,6.66,0,0,1-2-1.34,6.58,6.58,0,0,1-1.4-2,6,6,0,0,1-.52-2.5,6.2,6.2,0,0,1,.51-2.46"/><path class="cls-2" d="M761.1.68a349.46,349.46,0,0,1-27.62,136.88A350.7,350.7,0,0,1,658.1,249.35a350.54,350.54,0,0,1-111.79,75.38,349.41,349.41,0,0,1-135.76,27.61v57.09a406.24,406.24,0,0,0,158-32.13,407.43,407.43,0,0,0,129.91-87.59A407.43,407.43,0,0,0,786.05,159.8,406.28,406.28,0,0,0,818.18.68Z"/><path d="M409.87,410.11V351.66h.68A348.88,348.88,0,0,0,546,324.1a350.08,350.08,0,0,0,111.58-75.23,350.08,350.08,0,0,0,75.23-111.58A348.81,348.81,0,0,0,760.42.68V0h58.45V.68a406.85,406.85,0,0,1-32.19,159.38A408,408,0,0,1,699,290.2a408,408,0,0,1-130.14,87.73,406.73,406.73,0,0,1-158.26,32.18ZM411.24,353v55.72a405.37,405.37,0,0,0,157-32.07A406.54,406.54,0,0,0,698,289.23a406.54,406.54,0,0,0,87.44-129.7A405.5,405.5,0,0,0,817.5,1.37H761.78a350.29,350.29,0,0,1-27.67,136.46,351.21,351.21,0,0,1-75.53,112,351.32,351.32,0,0,1-112,75.53A350.17,350.17,0,0,1,411.24,353Z"/><path class="cls-3" d="M410.55,352.34h-1.12a349.44,349.44,0,0,1-136.87-27.62,350.43,350.43,0,0,1-111.79-75.38A350.54,350.54,0,0,1,85.39,137.56,349.46,349.46,0,0,1,57.77.68H.68A406.29,406.29,0,0,0,32.82,159.8,407.4,407.4,0,0,0,120.4,289.71,407.36,407.36,0,0,0,250.32,377.3a406.26,406.26,0,0,0,159.11,32.13h1.12Z"/><path d="M409.43,410.12a406.8,406.8,0,0,1-159.37-32.19A408,408,0,0,1,119.92,290.2,408,408,0,0,1,32.19,160.06,406.85,406.85,0,0,1,0,.68V0H58.45V.68A348.81,348.81,0,0,0,86,137.29a350.08,350.08,0,0,0,75.23,111.58A350,350,0,0,0,272.83,324.1a348.8,348.8,0,0,0,136.6,27.57h1.81v58.45ZM1.37,1.37A405.5,405.5,0,0,0,33.45,159.53a406.54,406.54,0,0,0,87.44,129.7,406.54,406.54,0,0,0,129.7,87.44,405.44,405.44,0,0,0,158.84,32.08h.44V353h-.44a350.23,350.23,0,0,1-137.14-27.67,351.21,351.21,0,0,1-112-75.53,351.21,351.21,0,0,1-75.53-112A349.93,349.93,0,0,1,57.09,1.37Z"/><polyline class="cls-2" points="469.18 405.12 452.39 407.78 410.55 372.62 416.02 360.33 462.07 348.29"/><polygon points="452.19 408.5 409.72 372.81 415.52 359.75 461.9 347.63 462.25 348.95 416.51 360.91 411.39 372.43 452.59 407.06 469.07 404.44 469.28 405.79 452.19 408.5"/><path class="cls-3" d="M356.41,348.4l67.51-.21L411.5,360.86l38.7,38.71a8.46,8.46,0,0,1,0,12h0a8.46,8.46,0,0,1-12,0l-3.16-3.16,2.94,3a8.92,8.92,0,0,1,.1,12.52h0a8.92,8.92,0,0,1-12.71.1L422,420.63l3.57,3.57a8.48,8.48,0,0,1,0,12l-.15.14a8.49,8.49,0,0,1-9.68,1.65l-70.9-33.59"/><path d="M419.46,439.5a9.11,9.11,0,0,1-4-.91L344.59,405l.59-1.23,70.9,33.59a7.8,7.8,0,0,0,8.9-1.51l.14-.14a7.79,7.79,0,0,0,0-11l-.17-.18-.06-.05-3.34-3.34,1-1,3.39,3.39a8.24,8.24,0,0,0,11.6-11.7l-2.95-2.94,1-1,3.16,3.16a7.8,7.8,0,1,0,11-11l-39.19-39.18,11.76-12-65.88.2v-1.36l69.15-.22-13.09,13.36,38.23,38.23A9.16,9.16,0,0,1,440.55,414a9.66,9.66,0,0,1-2,10.37,9.63,9.63,0,0,1-10.56,2.2,9.2,9.2,0,0,1-1.93,10.13l-.14.15A9.17,9.17,0,0,1,419.46,439.5Z"/><path class="cls-2" d="M462.07,348.29H424.58a27.49,27.49,0,0,0-22.82,12.16h0a27.49,27.49,0,0,0-4.68,15.34v15.09a8.57,8.57,0,0,0,8.56,8.57h0a8.56,8.56,0,0,0,8.17-6l7.27-23h0a21.8,21.8,0,0,0,31-.14l.78-.79"/><path d="M405.64,400.13a9.26,9.26,0,0,1-9.25-9.25V375.79a28.18,28.18,0,0,1,28.19-28.18h37.49V349H424.58a26.81,26.81,0,0,0-26.82,26.81v15.09a7.88,7.88,0,0,0,15.4,2.38l7.61-24.09.8.8a21.11,21.11,0,0,0,30-.14l.78-.79,1,1-.78.79a22.35,22.35,0,0,1-15.94,6.73h-.11a22.29,22.29,0,0,1-15.08-5.82l-7,22A9.21,9.21,0,0,1,405.64,400.13Z"/><rect class="cls-2" x="360.28" y="395.08" width="17.64" height="28.81" rx="8.82" transform="translate(275.23 -133.75) rotate(32.23)"/><path d="M366.1,423.72a9.5,9.5,0,0,1-8-14.57l6-9.46a9.5,9.5,0,1,1,16.08,10.13l-6,9.46a9.55,9.55,0,0,1-8.06,4.44Zm6-27.09a8.12,8.12,0,0,0-6.89,3.79l-6,9.46a8.13,8.13,0,0,0,2.54,11.21h0A8.12,8.12,0,0,0,373,418.55l6-9.45a8.13,8.13,0,0,0-6.87-12.47Z"/><rect class="cls-2" x="376.38" y="403.31" width="17.64" height="28.81" rx="8.82" transform="translate(282.09 -141.06) rotate(32.23)"/><path d="M382.2,431.94a9.5,9.5,0,0,1-8-14.57l6-9.45a9.5,9.5,0,1,1,16.07,10.13l-6,9.46A9.49,9.49,0,0,1,382.2,431.94Zm6-27.09a8.58,8.58,0,0,0-1.81.2,8,8,0,0,0-5.08,3.6l-6,9.45a8.14,8.14,0,0,0,13.77,8.68l6-9.46a8.13,8.13,0,0,0-6.87-12.47Z"/><rect class="cls-2" x="391.98" y="411.96" width="17.64" height="28.81" rx="8.82" transform="matrix(0.85, 0.53, -0.53, 0.85, 289.11, -148.05)"/><path d="M397.79,440.6a9.39,9.39,0,0,1-5-1.47h0a9.51,9.51,0,0,1-3-13.1l6-9.46a9.5,9.5,0,0,1,16.07,10.14l-6,9.45a9.41,9.41,0,0,1-5.94,4.2A9.51,9.51,0,0,1,397.79,440.6ZM393.48,438a8.12,8.12,0,0,0,11.21-2.55l6-9.45a8.13,8.13,0,1,0-13.76-8.68l-6,9.46A8.14,8.14,0,0,0,393.48,438Z"/></g></g></svg>