<?xml version="1.0" standalone="no"?>
<!DOCTYPE svg PUBLIC "-//W3C//DTD SVG 20010904//EN"
 "http://www.w3.org/TR/2001/REC-SVG-20010904/DTD/svg10.dtd">
<svg version="1.0" xmlns="http://www.w3.org/2000/svg"
 width="384.000000pt" height="650.000000pt" viewBox="0 0 384.000000 650.000000"
 preserveAspectRatio="xMidYMid meet">

<g transform="translate(0.000000,650.000000) scale(0.100000,-0.100000)"
fill="#000000" stroke="none">
<path d="M1785 6433 c-246 -30 -493 -123 -705 -264 -131 -87 -335 -291 -423
-424 -115 -174 -196 -366 -238 -558 -31 -148 -38 -355 -33 -977 2 -322 4 -658
4 -747 l0 -163 1050 -2 1050 -3 0 -1573 0 -1572 525 2 526 3 0 2380 c1 1309
-2 2414 -6 2455 -18 209 -73 400 -172 592 -75 148 -160 264 -283 388 -250 252
-561 408 -910 455 -95 13 -309 18 -385 8z"/>
</g>
</svg>
