<svg xmlns="http://www.w3.org/2000/svg" xmlns:xlink="http://www.w3.org/1999/xlink" viewBox="0 0 2059 1167"><defs><style>.cls-1{fill:none;}.cls-2{fill:#f6e904;}.cls-3{clip-path:url(#clip-path);}.cls-4{fill:#f14349;}.cls-5{fill:#3ac1de;}.cls-6{fill:#f3a6c8;}</style><clipPath id="clip-path"><rect class="cls-1" width="1920" height="1080"/></clipPath></defs><title>landing_page</title><g id="Camada_2" data-name="Camada 2"><g id="Camada_1-2" data-name="Camada 1"><rect class="cls-2" width="1920" height="1080"/><g class="cls-3"><path class="cls-2" d="M1278.73,991.83c27.09.74,75.73-4.74,120.37-14.65,62.9-13.95,130.1-37,194.35-66.69,66.74-30.83,127.43-67.59,175.51-106.31,52.25-42.08,88.23-84.78,106.94-126.94,27.65-62.3,27.64-113.42,0-151.92-10.78-15-25.92-28.23-45-39.28-19.52-11.32-43.24-20.44-70.51-27.11-55.66-13.6-126.89-16.89-206-9.5-14.33,2-25.87,4.47-25.87,4.47l-4.43.59a19.32,19.32,0,0,1-21.84-16.38L1496.8,400a6.53,6.53,0,0,1,2.73-6.27,6.36,6.36,0,0,1,2.13-1h0a6.46,6.46,0,0,1,2.58-.13l-9.19-28a50.05,50.05,0,0,1-2-8.63h0a7.72,7.72,0,0,1,6.56-8.74h0a7.72,7.72,0,0,1,8,4.15l25,49.33a18.1,18.1,0,0,0,17.92,9.82l.24,0c84.56-7.9,158.21-4.38,218.91,10.46,63.89,15.62,110.31,43.05,138,81.55,17.85,24.84,27.27,53.68,28,85.73s-7.35,67.35-24,104.88c-21.25,47.89-61,95.51-118.15,141.53-50.54,40.69-114,79.2-183.64,111.35-66.75,30.83-136.7,54.82-202.28,69.37-46.5,10.32-89.56,15.55-127.07,15.55-39.06,0-64.53-9.74-64.53-9.74l-11.23-37.42,8.09-5.21,32.25,10.87S1251.64,991.08,1278.73,991.83Z"/><path d="M1280.5,1031.63c-38.74,0-64.54-9.68-64.79-9.78l-.33-.13-11.49-38.29,8.84-5.69,32.58,11s6.84,1.65,33.44,2.39c28.42.78,77.85-5.24,120.19-14.63,62.85-13.94,130-37,194.21-66.65,66.68-30.8,127.32-67.53,175.36-106.21,52.16-42,88.07-84.62,106.73-126.67,27.54-62.06,27.55-112.93,0-151.21-10.73-14.92-25.79-28.07-44.77-39.08-19.46-11.28-43.12-20.37-70.32-27-55.59-13.59-126.74-16.87-205.75-9.49-14.1,2-25.66,4.43-25.77,4.46l-4.49.59a20,20,0,0,1-22.65-17l-5.45-38.12a7.26,7.26,0,0,1,5.39-8,8,8,0,0,1,1.74-.22l-8.86-27a51.68,51.68,0,0,1-2-8.75,8.46,8.46,0,0,1,15.91-5l25,49.33a17.25,17.25,0,0,0,17.2,9.43l.24,0c84.65-7.91,158.38-4.38,219.15,10.47,64.06,15.66,110.62,43.2,138.39,81.83,17.94,25,27.4,53.95,28.14,86.15S1929,655.78,1912.3,693.4c-21.3,48-61.12,95.71-118.36,141.8-50.58,40.73-114.13,79.27-183.78,111.45-66.8,30.85-136.8,54.86-202.43,69.42C1361.18,1026.4,1318.37,1031.63,1280.5,1031.63Zm-63.94-11c3.11,1.12,27.84,9.57,63.94,9.57,37.77,0,80.46-5.23,126.91-15.53,65.54-14.54,135.43-38.51,202.14-69.33,69.54-32.12,133-70.6,183.49-111.26,57-45.94,96.73-93.47,117.94-141.26,16.61-37.42,24.66-72.6,23.93-104.56s-10.1-60.61-27.87-85.33c-27.56-38.35-73.84-65.69-137.56-81.27-60.61-14.82-134.18-18.33-218.66-10.44l-.24,0A18.73,18.73,0,0,1,1531.94,401l-25-49.33a7,7,0,0,0-13.19,4.16,49.83,49.83,0,0,0,2,8.51l9.56,29.15-1.17-.17a5.84,5.84,0,0,0-4.19,1,5.79,5.79,0,0,0-2.42,5.58L1503,438a18.6,18.6,0,0,0,21,15.77l4.44-.59c.06,0,11.67-2.49,25.86-4.47,79.2-7.4,150.51-4.1,206.25,9.52,27.34,6.68,51.12,15.83,70.7,27.18,19.16,11.11,34.38,24.39,45.22,39.49,27.83,38.72,27.86,90.08.1,152.64-18.76,42.26-54.8,85.06-107.14,127.2-48.13,38.76-108.87,75.55-175.66,106.4-64.3,29.71-131.56,52.79-194.5,66.75-42.45,9.42-92,15.45-120.55,14.66-26.86-.74-33.54-2.37-33.81-2.44l-32-10.77-7.34,4.72Z"/><path class="cls-4" d="M1798.58,1045.11l-.22.05a7.75,7.75,0,0,1,9.39,5.72h0a6.67,6.67,0,0,1-4.94,8l-5.35,1.28a30.09,30.09,0,0,1-19.94-2.1l-19.54-9.32a101.33,101.33,0,0,1-11.66,1.21q-17.25.82-35.61.83c-28.19,0-58.2-1.47-89.65-4.39-111.5-10.35-220.59-46.64-307.17-102.17-43.48-27.88-80.19-59.75-109.11-94.71-30.39-36.74-51.38-76-62.38-116.6-7.09-26.21-8.85-52.18-5.22-77.18A184.19,184.19,0,0,1,1163,585.69c45.61-74.37,145.87-131,282.31-159.54l.27-.06a23,23,0,0,0,17.64-18.23l9.65-51.53a7.73,7.73,0,0,1,6.5-6.23h0a7.73,7.73,0,0,1,8.75,6.56h0a50.2,50.2,0,0,1,.48,8.84l-1,29.49a6.39,6.39,0,0,1,2.51-.6h0a6.62,6.62,0,0,1,2.32.33,6.52,6.52,0,0,1,4.37,5.26l5.45,38.12A19.3,19.3,0,0,1,1485.87,460l-4.41.68s-13.27,1-28.19,3.8c-63.09,13.18-117.63,32.44-162.08,57.22-43.43,24.2-75.36,52.63-94.9,84.48-22,35.82-27.39,75-16.14,116.61,9.53,35.2,28,69.49,54.76,101.89,26.34,31.85,60,61,100.09,86.72,81.42,52.22,184.29,86.37,289.68,96.16,38.28,3.55,74.24,5.06,107.1,3.92,22-.77,58.39-13.09,58.39-13.09a13.54,13.54,0,0,1,16.32,10l5.91,24.67a8.53,8.53,0,0,1-6.31,10.29l-7.51,1.8a8.54,8.54,0,0,1-6.18-.87L1783,1039a7.22,7.22,0,0,1-2.47-10.28h0a7.22,7.22,0,0,1,9.76-2.19l8.66,5.24"/><path d="M1790.48,1061.76a30.75,30.75,0,0,1-13.27-3l-19.33-9.21a111.43,111.43,0,0,1-11.51,1.17c-11.47.56-23.46.83-35.66.83-28.17,0-58.36-1.47-89.72-4.39-111.61-10.36-220.81-46.69-307.5-102.28C1270,917,1233.19,885,1204.22,850c-30.45-36.82-51.49-76.14-62.51-116.87-7.13-26.31-8.89-52.37-5.25-77.48a185,185,0,0,1,25.88-70.36c45.72-74.54,146.15-131.31,282.78-159.87l.26-.06a22.28,22.28,0,0,0,17.08-17.65l9.66-51.53a8.45,8.45,0,0,1,16.68.36,51.74,51.74,0,0,1,.49,9l-.94,28.42a7.72,7.72,0,0,1,1.73-.28,7.27,7.27,0,0,1,7.44,6.22L1503,438a20,20,0,0,1-17,22.67l-4.41.67c-.19,0-13.46,1-28.17,3.8-63,13.17-117.47,32.39-161.86,57.14-43.32,24.14-75.15,52.48-94.63,84.23-21.86,35.64-27.26,74.68-16.06,116,9.5,35.1,27.88,69.29,54.62,101.62,26.29,31.79,59.91,60.92,99.92,86.58,81.32,52.15,184.08,86.26,289.36,96,39.72,3.69,75.72,5,107,3.92,21.68-.75,57.82-12.92,58.18-13a14.3,14.3,0,0,1,17.26,10.53l5.91,24.66a9.27,9.27,0,0,1-6.85,11.16l-3.08.74a8.7,8.7,0,0,1,1.44.7,8.43,8.43,0,0,1,3.83,5.27,7.4,7.4,0,0,1-5.47,8.91l-5.35,1.28A30.32,30.32,0,0,1,1790.48,1061.76Zm-32.4-13.72,19.75,9.42a29.45,29.45,0,0,0,19.47,2l5.35-1.29a5.94,5.94,0,0,0,4.39-7.17,7,7,0,0,0-8.25-5.25h0a9.21,9.21,0,0,1-6.7-.94l-9.36-5.27a7.93,7.93,0,0,1-2.72-11.31,7.91,7.91,0,0,1,10.73-2.41l8.66,5.24-.75,1.24-8.66-5.24a6.48,6.48,0,0,0-8.78,2,6.5,6.5,0,0,0,2.23,9.25l9.36,5.27a7.73,7.73,0,0,0,5.43.84h0l.29-.06,7.44-1.79a7.82,7.82,0,0,0,5.78-9.41l-5.91-24.67a12.83,12.83,0,0,0-15.45-9.47c-.3.1-36.64,12.34-58.53,13.1-31.35,1.09-67.42-.23-107.2-3.92-105.5-9.8-208.49-44-290-96.27-40.14-25.74-73.87-55-100.26-86.86-26.87-32.49-45.34-66.87-54.9-102.17-11.3-41.76-5.85-81.19,16.23-117.17,19.6-32,51.62-60.48,95.15-84.75,44.53-24.81,99.13-44.09,162.29-57.29,14.81-2.78,28.15-3.8,28.28-3.81l4.36-.68a18.57,18.57,0,0,0,15.78-21l-5.45-38.12a5.75,5.75,0,0,0-3.89-4.67,6,6,0,0,0-2.06-.3,5.76,5.76,0,0,0-2.24.54l-1.07.49,1-30.67a49.74,49.74,0,0,0-.47-8.71,7,7,0,0,0-13.83-.31L1463.89,408a23.74,23.74,0,0,1-18.19,18.81l-.28.06c-136.24,28.47-236.33,85-281.84,159.21a183.3,183.3,0,0,0-25.68,69.81c-3.62,24.91-1.87,50.78,5.2,76.89,11,40.53,31.91,79.67,62.24,116.33,28.87,34.9,65.52,66.72,108.94,94.56,86.49,55.47,195.46,91.72,306.85,102.06,31.31,2.91,61.45,4.39,89.58,4.39,12.18,0,24.15-.28,35.58-.83a100.88,100.88,0,0,0,11.56-1.2Z"/><polyline class="cls-2" points="1595.15 872.93 1587.22 871.53 1562.25 844.73 1567.33 837.04 1591.41 841.04"/><polygon points="1595.02 873.64 1586.86 872.2 1561.33 844.81 1566.98 836.25 1591.53 840.33 1591.29 841.76 1567.67 837.83 1563.17 844.65 1587.59 870.86 1595.27 872.22 1595.02 873.64"/><line class="cls-5" x1="2006.13" y1="620.18" x2="1998.29" y2="612.26"/><rect x="2001.49" y="610.65" width="1.45" height="11.14" transform="translate(145.01 1585.45) rotate(-44.67)"/><path class="cls-4" d="M1790.62,1019.87s.48,7.09,8.37,11.87"/><path d="M1798.61,1032.36c-8.12-4.92-8.69-12.14-8.71-12.44l1.44-.1c0,.07.57,6.79,8,11.3Z"/><path class="cls-5" d="M1834.39,717.66c46.45,29.24,79.44,67,95.39,109.15,28.48,75.32,8.34,124-63.4,153l-12.39,3.2-37.48,9a13.54,13.54,0,0,0-10,16.32l5.91,24.67a8.54,8.54,0,0,0,10.29,6.31l7.73-1.86a7.77,7.77,0,0,0-5.77,9.37h0a6.67,6.67,0,0,0,8,4.93l5.35-1.28a30.16,30.16,0,0,0,16.83-10.91l14.33-18.74,11.88-4.75c46.3-18.77,77-46.19,91.17-81.5,13.71-34.1,11.73-75-5.9-121.61-26.64-69-84.47-110.85-109.95-126.6a23,23,0,0,1-10.76-22.2l6.15-53.35a7.83,7.83,0,0,0-4.42-8h0a7.83,7.83,0,0,0-10.41,3.72h0a51.67,51.67,0,0,0-3.11,8.4l-16.42,59.91"/><path d="M1831.14,1052.68a7.43,7.43,0,0,1-7.2-5.68,8.45,8.45,0,0,1,1-6.43,8.69,8.69,0,0,1,1-1.27l-3.08.73a9.26,9.26,0,0,1-11.16-6.84l-5.91-24.67a14.28,14.28,0,0,1,10.55-17.19l37.48-9,12.38-3.21c71.2-28.87,91.22-77.2,62.9-152.07-15.9-42-48.78-79.64-95.1-108.8l.77-1.22c46.59,29.32,79.68,67.19,95.68,109.51,28.66,75.77,8.39,124.69-63.79,154l-12.49,3.23-37.5,9a12.82,12.82,0,0,0-9.47,15.45l5.91,24.66a7.82,7.82,0,0,0,9.41,5.78l7.65-1.84.09,0,.33,1.41h0l-.06,0a7,7,0,0,0-5.17,8.47,6,6,0,0,0,7.17,4.4l5.35-1.29a29.47,29.47,0,0,0,16.43-10.64l14.44-18.9,12.07-4.83c46.1-18.69,76.65-46,90.77-81.09,13.64-33.92,11.66-74.66-5.9-121.09C1938.91,743.94,1880.07,701.87,1856,687a23.82,23.82,0,0,1-11.1-22.89l6.15-53.35a7.09,7.09,0,0,0-13.45-3.85,50.8,50.8,0,0,0-3.07,8.28l-16.42,59.91-1.4-.38,16.42-59.91a51.56,51.56,0,0,1,3.16-8.52,8.54,8.54,0,0,1,11.37-4.06,8.54,8.54,0,0,1,4.83,8.7l-6.15,53.35a22.37,22.37,0,0,0,10.42,21.49c24.18,15,83.32,57.25,110.25,127,17.69,46.78,19.67,87.87,5.89,122.14-14.27,35.49-45.08,63-91.57,81.9l-11.7,4.68L1855.44,1040a30.88,30.88,0,0,1-17.23,11.17l-5.35,1.28A7.29,7.29,0,0,1,1831.14,1052.68Z"/><path class="cls-5" d="M1838.3,650.06l3.83-33.27a5.94,5.94,0,0,0-3.36-6h0a5.94,5.94,0,0,0-7.91,2.83h0a80.14,80.14,0,0,0-4.4,11.48l-20.11,67.32"/><path d="M1807.05,692.57l-1.39-.41,20.1-67.32a82.77,82.77,0,0,1,4.44-11.58,6.67,6.67,0,0,1,12.65,3.62L1839,650.14l-1.44-.16,3.83-33.27a5.22,5.22,0,0,0-9.9-2.83,80.67,80.67,0,0,0-4.36,11.38Z"/><path class="cls-5" d="M1821.54,682.86l6.47-32.94a6.6,6.6,0,0,0-4.29-7.49h0a6.59,6.59,0,0,0-8.14,3.4L1798.92,681a19.52,19.52,0,0,0,9.28,26l4.09,1.94s15.17,4.36,22.1,8.72"/><path d="M1834,718.27c-6.76-4.25-21.76-8.59-21.91-8.64l-.11,0-4.09-1.93a20.28,20.28,0,0,1-9.63-27l16.67-35.18a7.32,7.32,0,0,1,13.79,4.54L1822.25,683l-1.42-.28,6.47-32.94a5.87,5.87,0,0,0-11.07-3.64l-16.66,35.18a18.83,18.83,0,0,0,8.94,25l4,1.91c1.17.34,15.43,4.51,22.22,8.79Z"/><path class="cls-5" d="M1825.86,1011.43s2.79,6.54-2.08,14.37"/><path d="M1824.4,1026.18l-1.23-.76c4.59-7.4,2-13.65,2-13.71l1.33-.57C1826.65,1011.42,1829.41,1018.12,1824.4,1026.18Z"/><path class="cls-5" d="M1830.2,1037.53a8.52,8.52,0,0,0,5.12-3.57l6-8.94a7.23,7.23,0,0,0-2.45-10.29h0a7.22,7.22,0,0,0-9.69,2.47l-5.35,8.6"/><path d="M1830.37,1038.23l-.34-1.4a7.78,7.78,0,0,0,4.69-3.27l6-8.94a6.5,6.5,0,1,0-10.93-7l-5.34,8.59-1.23-.76,5.34-8.6a7.95,7.95,0,1,1,13.36,8.6l-5.95,8.94A9.21,9.21,0,0,1,1830.37,1038.23Z"/><path class="cls-2" d="M1517.85,391.09l-15-29.54a5.88,5.88,0,0,0-6.08-3.16h0a5.88,5.88,0,0,0-5,6.65h0a78.85,78.85,0,0,0,2.63,11.87l20.14,66.51"/><path d="M1513.89,443.63l-20.14-66.51a80.61,80.61,0,0,1-2.66-12,6.6,6.6,0,0,1,12.42-3.92l15,29.54-1.29.65-15-29.54a5.16,5.16,0,0,0-9.7,3.07,80.46,80.46,0,0,0,2.61,11.76l20.15,66.51Z"/><path class="cls-2" d="M1521.92,427.29l-12.63-30.7a6.52,6.52,0,0,0-5-4,6.46,6.46,0,0,0-2.58.13h0a6.36,6.36,0,0,0-2.13,1,6.53,6.53,0,0,0-2.73,6.27l5.45,38.12a19.32,19.32,0,0,0,21.84,16.38"/><path d="M1521.35,455.41a20.05,20.05,0,0,1-19.81-17.2l-5.45-38.12a7.26,7.26,0,0,1,5.39-8,7.28,7.28,0,0,1,8.48,4.27L1522.59,427l-1.34.55-12.63-30.71a5.81,5.81,0,0,0-4.49-3.52,5.84,5.84,0,0,0-4.19,1,5.79,5.79,0,0,0-2.42,5.58L1503,438a18.6,18.6,0,0,0,21,15.77l.21,1.43A19.73,19.73,0,0,1,1521.35,455.41Z"/><path class="cls-4" d="M1474.1,397.34l6.11-32.55a5.9,5.9,0,0,1,5-4.74h0a5.88,5.88,0,0,1,6.65,5h0a80.69,80.69,0,0,1,.8,12.13l-.71,69.49"/><path d="M1492.63,446.67h-1.45l.7-69.49a79.37,79.37,0,0,0-.79-12,5.16,5.16,0,0,0-5.83-4.37,5.15,5.15,0,0,0-4.34,4.15l-6.11,32.55-1.42-.26,6.11-32.56a6.6,6.6,0,0,1,13,.29,80.85,80.85,0,0,1,.81,12.24Z"/><path class="cls-4" d="M1485.87,460a19.3,19.3,0,0,0,16.38-21.84L1496.8,400a6.52,6.52,0,0,0-4.37-5.26,6.62,6.62,0,0,0-2.32-.33h0a6.39,6.39,0,0,0-2.51.6,6.53,6.53,0,0,0-3.74,5.22l-3.52,33"/><path d="M1486,460.67l-.21-1.44a18.57,18.57,0,0,0,15.77-21l-5.45-38.12a5.75,5.75,0,0,0-3.89-4.67,6,6,0,0,0-2.06-.3,5.76,5.76,0,0,0-2.24.54,5.84,5.84,0,0,0-3.32,4.64l-3.52,33-1.44-.15,3.52-33a7.25,7.25,0,0,1,14.38-.26L1503,438a20,20,0,0,1-17,22.67Z"/><path class="cls-6" d="M1721.16,528.34q-1.14-10.86-2.43-21.34l-39.61-2.11c9,70.78,13.2,155.13,11.17,240.9-3.84,162.24-29,293.41-67.3,350.89-13,19.54-27,29.77-41.39,30.42-1,.05-2,.07-3,.07-40.65,0-80.26-37.11-109.07-102.43-23.34-52.93-36.29-117.45-35.52-177q.16-13,1.2-25.29l-38.08-12.92c-8.39,75.56,6.65,163.07,36.62,231,16.74,38,37.11,68.15,60.54,89.75,25.61,23.62,54.65,36,84.28,36,1.6,0,3.19,0,4.79-.11,27.58-1.24,51.86-17.32,72.17-47.8,22.83-34.27,40.93-87.29,53.79-157.57,11.27-61.58,18.21-135.6,20.07-214.08C1731.16,671.9,1728.31,596.39,1721.16,528.34Z"/><path d="M1578.57,1167c-29.78,0-59.1-12.52-84.77-36.19-23.51-21.68-43.93-52-60.71-90-14.95-33.9-26.27-72.92-32.75-112.84-6.64-40.93-8-81.93-3.93-118.56l.1-.89L1436,821.92l0,.56c-.69,8.25-1.09,16.74-1.2,25.24-.76,59.48,12.16,123.89,35.47,176.73,28.58,64.82,68.09,102,108.4,102,1,0,2,0,3-.07,14.2-.64,27.93-10.77,40.81-30.1,38.23-57.37,63.35-188.4,67.19-350.5,2-83.48-2-169-11.17-240.8l-.11-.86,41.09,2.19.07.6c.87,7.11,1.68,14.29,2.43,21.36,7.15,68.07,10,143.61,8.23,218.47-1.86,78.51-8.8,152.57-20.07,214.19-12.88,70.38-31,123.48-53.91,157.84-20.45,30.68-44.92,46.87-72.74,48.12C1581.8,1167,1580.17,1167,1578.57,1167ZM1397.75,810.48c-7.87,72.62,6.15,160.56,36.67,229.75,16.69,37.86,37,68,60.36,89.51,25.4,23.43,54.38,35.81,83.79,35.81,1.58,0,3.18,0,4.76-.1,27.33-1.23,51.42-17.21,71.6-47.48,22.78-34.19,40.84-87.12,53.68-157.3,11.26-61.54,18.19-135.53,20.05-214,1.77-74.79-1.07-150.27-8.22-218.28-.72-6.86-1.51-13.83-2.35-20.73l-38.15-2c9.11,71.69,13,156.93,11.07,240.15-3.84,162.37-29,293.68-67.42,351.27-13.16,19.74-27.27,30.08-42,30.75-1,0-2,.06-3,.06-40.91,0-80.9-37.49-109.73-102.85-23.38-53-36.35-117.66-35.59-177.34.11-8.34.5-16.67,1.16-24.77Z"/><path class="cls-6" d="M1768.84,688.36A116.62,116.62,0,0,0,1746.67,678c-44.17-14.85-106.1-21.45-154.61-16.09-49.61,5.49-89.18,21.74-114.42,47-23.52,23.53-38.26,63.29-42.43,113.48l-38.08-12.92c5.74-51.68,22.44-97.78,52.84-128.2,31.6-31.63,79.25-51.76,137.79-58.24,53.71-5.93,114.23.31,170.41,17.58h0a23,23,0,0,0,23.6-5.86l37.94-39.14a7.83,7.83,0,0,1,9-1.62h0a7.82,7.82,0,0,1,3.72,10.41h0a51,51,0,0,1-4.53,7.72l-35.94,50.67"/><path d="M1435.85,823.41,1396.34,810l.07-.58c6.17-55.6,24.52-100.08,53-128.63,31.72-31.74,79.52-51.95,138.22-58.45,53.81-5.94,114.43.31,170.7,17.61a22.41,22.41,0,0,0,22.88-5.68l37.93-39.13a8.54,8.54,0,0,1,13.85,9.6,51.58,51.58,0,0,1-4.59,7.83l-35.94,50.67-1.18-.84,35.94-50.66a50.59,50.59,0,0,0,4.46-7.62,7.09,7.09,0,0,0-11.5-8l-37.94,39.13a23.87,23.87,0,0,1-24.35,6.05c-56.07-17.24-116.49-23.47-170.1-17.55-58.37,6.46-105.87,26.52-137.35,58C1422.29,710,1404.11,754,1397.91,809l36.65,12.44c4.34-50.41,19-89.47,42.57-113,25.36-25.39,65.08-41.71,114.85-47.22,48.15-5.32,110.41,1.16,154.92,16.12a119.42,119.42,0,0,1,22.33,10.42l-.78,1.22a117.46,117.46,0,0,0-22-10.27c-44.33-14.9-106.34-21.35-154.3-16.05-49.44,5.47-88.86,21.65-114,46.8-23.42,23.44-38,62.52-42.22,113Z"/><path class="cls-6" d="M1797.91,630.93l23.31-24a5.94,5.94,0,0,1,6.81-1.23h0a5.94,5.94,0,0,1,2.83,7.91h0a81,81,0,0,1-6.09,10.68l-39.35,58.2"/><path d="M1786,682.86l-1.2-.81,39.35-58.21a79.51,79.51,0,0,0,6-10.58,5.22,5.22,0,0,0-8.46-5.87l-23.31,24.05-1-1,23.31-24a6.66,6.66,0,0,1,10.81,7.49,80.63,80.63,0,0,1-6.14,10.77Z"/><path class="cls-6" d="M1768.84,688.36l4.09,1.94a19.52,19.52,0,0,0,26-9.29l16.66-35.18a6.6,6.6,0,0,0-2.52-8.45h0a6.59,6.59,0,0,0-8.52,1.43l-21.38,25.88"/><path d="M1781.27,692.91a20.2,20.2,0,0,1-8.65-2l-4.09-1.94.62-1.3,4.09,1.93a18.79,18.79,0,0,0,25-8.94l16.67-35.18a5.87,5.87,0,0,0-9.83-6.25l-21.38,25.88-1.12-.93L1804,638.35a7.31,7.31,0,0,1,12.25,7.79l-16.66,35.18a20.09,20.09,0,0,1-11.48,10.4A20.41,20.41,0,0,1,1781.27,692.91Z"/><path class="cls-6" d="M1687.29,358.9c-15.53-42.5-35.91-75.71-60.58-98.7-24.46-22.8-52.25-35.06-82.62-36.44-36.95-1.68-75.37,13.34-111.08,43.44-34.43,29-65.39,71.39-89.53,122.53-29.65,62.8-49.59,127.19-57.67,186.21-4.23,30.92-5.17,60.18-2.82,87,2.51,28.54,8.8,54.4,18.68,76.85s23.47,41.7,40.34,57.12c17.76,16.22,39.26,28.32,63.9,36,29.31,9.08,67.54,18.39,108.31,26.41l44.22,30.26a5.82,5.82,0,0,0,6.72,0l.12-.09a5.81,5.81,0,0,0,1.35-8.1l-2-2.82,1.89,2.64a6.11,6.11,0,0,0,9.94-7.11l.13.17a5.81,5.81,0,0,0,9.45-6.76l-21.81-30.52,9.82-7.17-45.64-7.59.4.11c-42.09-8.06-81.62-17.57-111.31-26.76-37.3-11.55-64.23-35.6-80-71.48-16.18-36.77-20.65-86.14-12.9-142.76,7.54-55.13,26.31-115.58,54.28-174.81,21.76-46.1,49.21-83.91,79.38-109.33,28-23.65,57.13-35.5,84.09-34.27,20.84.94,40.26,9.68,57.74,26,20.12,18.76,37.12,46.86,50.51,83.52,12,32.77,21.68,78.75,28.56,132.57l39.61,2.11C1711.3,446,1700.52,395.12,1687.29,358.9Z"/><path d="M1561.78,891.28a6.57,6.57,0,0,1-3.76-1.19l-44.08-30.17c-40.67-8-79.11-17.37-108.24-26.4-24.75-7.66-46.34-19.81-64.18-36.11-16.94-15.48-30.57-34.78-40.51-57.36s-16.22-48.46-18.74-77.08c-2.36-26.84-1.41-56.16,2.83-87.13,8.08-59.09,28-123.56,57.72-186.42,24.19-51.23,55.22-93.69,89.72-122.78,35.85-30.21,74.44-45.29,111.58-43.6,30.55,1.39,58.5,13.71,83.08,36.63,24.76,23.07,45.2,56.37,60.77,99,13.17,36.07,24.06,87.33,31.48,148.26l.11.86-41.08-2.19-.08-.6c-7-54.68-16.86-100.47-28.52-132.41-13.35-36.55-30.29-64.56-50.33-83.24-17.34-16.17-36.61-24.84-57.27-25.78-26.77-1.22-55.69,10.57-83.6,34.1-30.08,25.36-57.47,63.08-79.19,109.09-27.94,59.17-46.69,119.54-54.21,174.6-7.73,56.49-3.29,105.72,12.84,142.37,15.71,35.68,42.48,59.59,79.57,71.08,29.57,9.15,68.91,18.61,110.81,26.65v0l47.34,7.88-10.63,7.76L1586.61,867a6.53,6.53,0,0,1-6.39,10.24,6.16,6.16,0,0,1-2-.67,6.88,6.88,0,0,1-2.7,6.49,3.85,3.85,0,0,0-7.19,2.69,6.44,6.44,0,0,1-2.64,4.24l-.12.09A6.5,6.5,0,0,1,1561.78,891.28Zm-23.29-666.92c-35.06,0-71.24,14.92-105,43.39-34.35,29-65.25,71.24-89.35,122.29-29.62,62.73-49.54,127.05-57.6,186-4.22,30.86-5.17,60.07-2.82,86.8,2.51,28.47,8.77,54.25,18.62,76.62s23.38,41.54,40.17,56.88c17.67,16.16,39.08,28.2,63.63,35.8,29.12,9,67.56,18.39,108.23,26.39l.15,0,44.33,30.34a5.11,5.11,0,0,0,5.9,0l.12-.09a5.08,5.08,0,0,0,1.18-7.09l-2-2.82,1.18-.84,1.89,2.63a5.28,5.28,0,0,0,3.54,2.19,5.35,5.35,0,0,0,4-1,5.41,5.41,0,0,0,1.19-7.47l1.17-.84,0,0,.1.14a5.09,5.09,0,0,0,3.31,2.07,5.09,5.09,0,0,0,5-8l-22.23-31.1,9-6.58-43.55-7.25V823c-42.11-8.07-81.67-17.58-111.38-26.78-37.52-11.62-64.59-35.8-80.47-71.88-16.24-36.89-20.72-86.39-13-143.15,7.55-55.2,26.34-115.72,54.34-175,21.81-46.19,49.33-84.08,79.57-109.58,28.19-23.76,57.45-35.67,84.6-34.44,21,1,40.58,9.76,58.19,26.17,20.21,18.84,37.27,47,50.7,83.8,11.66,31.93,21.52,77.61,28.52,132.13l38.15,2c-7.41-60.44-18.23-111.29-31.3-147.08-15.49-42.39-35.8-75.51-60.39-98.43-24.33-22.67-52-34.86-82.16-36.24C1542.21,224.4,1540.35,224.36,1538.49,224.36Z"/><path class="cls-4" d="M1999.76,613.8c-50.91-51.34-129.57-92.75-215.82-113.63a532.73,532.73,0,0,0-138.77-15c-50.05,1.28-98.28,9.95-143.34,25.77-41.12,14.44-81.91,35.24-121.24,61.84-20.44,14.72-46.3,37-46.3,37a13.16,13.16,0,0,0-1.68,18.54l15.8,18.93a8.28,8.28,0,0,0,11.68,1l5.77-4.81.16-.14h0a7.54,7.54,0,0,0-1,10.64h0a6.5,6.5,0,0,0,9.14.83l4.11-3.43a29.23,29.23,0,0,0,9.94-16.76l4.23-21.38a115.7,115.7,0,0,1,10-8.11c36.56-24.71,74.34-44,112.29-57.33,41.21-14.47,85.42-22.4,131.38-23.57a493.86,493.86,0,0,1,128.58,13.95c79.4,19.22,148.4,53.94,194.35,100.28l3.88,5.31,5.09,7.5,27.1,9.74,3.88-37.87-9.28-9.34"/><path d="M2005.79,662l-28.2-10.13-5.22-7.69-3.83-5.25c-44.71-45.06-113.59-80.59-194-100A492.9,492.9,0,0,0,1646.18,525c-45.89,1.17-90,9.09-131.16,23.53-37.89,13.31-75.61,32.57-112.12,57.25a122.81,122.81,0,0,0-9.79,7.88l-4.18,21.15a30.11,30.11,0,0,1-10.19,17.18l-4.11,3.42a7.2,7.2,0,0,1-10.15-.91,8.19,8.19,0,0,1-1.88-6.06,8.08,8.08,0,0,1,.26-1.47l-2.31,1.93a9,9,0,0,1-12.7-1.15l-15.79-18.93a13.89,13.89,0,0,1,1.76-19.55c.25-.22,26.12-22.5,46.35-37.07,39.4-26.64,80.24-47.47,121.42-61.93,45.13-15.85,93.43-24.53,143.56-25.81a533.76,533.76,0,0,1,139,15.06c86.37,20.9,165.16,62.39,216.16,113.82l9.53,9.58Zm-27.26-11.33,26,9.34,3.75-36.6-9-9.1c-50.82-51.25-129.36-92.59-215.48-113.43a531.71,531.71,0,0,0-138.58-15c-50,1.27-98.13,9.92-143.12,25.73C1461,526,1420.28,546.78,1381,573.34c-20.16,14.52-46,36.76-46.24,37a12.45,12.45,0,0,0-1.59,17.53L1349,646.77a7.59,7.59,0,0,0,10.67,1l5.71-4.77.22-.19.93,1.11-.2.17a6.83,6.83,0,0,0-.7,9.46,5.76,5.76,0,0,0,8.12.73l4.1-3.42a28.63,28.63,0,0,0,9.7-16.35l4.27-21.61.17-.16a119.72,119.72,0,0,1,10.12-8.16c36.63-24.77,74.46-44.09,112.47-57.43,41.28-14.5,85.56-22.44,131.6-23.62a494.42,494.42,0,0,1,128.77,14c80.66,19.52,149.8,55.2,194.7,100.47l.07.08,3.87,5.31Z"/><path class="cls-4" d="M1365.86,643.48a8.34,8.34,0,0,0,2.91-5.32l1.32-10.35a7,7,0,0,0-6.57-7.9h0a7,7,0,0,0-7.38,6.34l-.94,9.79"/><path d="M1366.32,644l-.93-1.11a7.57,7.57,0,0,0,2.66-4.86l1.32-10.35a6.29,6.29,0,0,0-5.89-7.09,6.29,6.29,0,0,0-6.62,5.69l-.94,9.79-1.44-.14.94-9.79a7.74,7.74,0,1,1,15.39,1.72l-1.32,10.36A9,9,0,0,1,1366.32,644Z"/><path class="cls-4" d="M1350.81,622.62s5.25,4.49,4.39,13.42"/><path d="M1355.92,636.11l-1.44-.14c.81-8.41-4.1-12.75-4.15-12.8l1-1.1C1351.5,622.27,1356.8,626.91,1355.92,636.11Z"/><path class="cls-2" d="M1591.18,847.39l-.62.44a14.94,14.94,0,0,1-21-3.38h0l-7.5,14.74a5.87,5.87,0,0,1-6.2,3.12h0a5.87,5.87,0,0,1-4.82-6.75l1.69-10.2a18.92,18.92,0,0,1,4.89-9.85h0a18.86,18.86,0,0,1,16.8-5.65l25.34,4.22,4.65.67c120.47,16.87,202.37,14.06,250.27,8.61,41.14-4.69,75.28-13.28,101.48-25.53,27.08-12.67,45.68-29.34,55.28-49.57,10.18-21.44,10.28-44.89.28-69.69l-25.92-35.7,12.17,2.2,7.15-37.46a5.91,5.91,0,0,1,6.91-4.69h0a5.91,5.91,0,0,1,4.7,6.91l-.59,3.06.55-2.85a6.21,6.21,0,0,1,7.17-5h0a6.22,6.22,0,0,1,5,7.29l-.62,3.23.66-3.45a5.9,5.9,0,0,1,6.91-4.7l.14,0a5.91,5.91,0,0,1,4.73,4.93l7.26,51.53c14.06,34.86,13.64,69.81-1.21,101.1-25.25,53.17-88.39,85.86-187.66,97.17a761.66,761.66,0,0,1-85.74,4.45c-48.29,0-107.39-3.32-182.39-14.3"/><path d="M1773.42,887.39c-57,0-116.71-4.68-182.49-14.31l.21-1.44c65.7,9.62,125.33,14.3,182.28,14.3a764.34,764.34,0,0,0,85.66-4.45c99-11.28,162-43.83,187.08-96.76,14.77-31.1,15.18-65.86,1.2-100.52l0-.17-7.26-51.52a5.2,5.2,0,0,0-4.16-4.33l-.14,0a5.2,5.2,0,0,0-6.06,4.12l-.66,3.46-1.42-.27.61-3.24a5.49,5.49,0,0,0-10.78-2.06l-.55,2.85-1.42-.27.59-3a5.19,5.19,0,1,0-10.19-2l-7.29,38.16-11.09-2,24.94,34.4c10.08,25,10,48.64-.3,70.27-9.67,20.38-28.39,37.18-55.63,49.91-26.26,12.29-60.48,20.9-101.7,25.59-47.54,5.42-129.58,8.32-250.45-8.6l-4.65-.67-25.36-4.22a18.11,18.11,0,0,0-20.85,14.9l-1.7,10.2a5.15,5.15,0,0,0,9.66,3.18l8-15.8.69,1a14.23,14.23,0,0,0,19.94,3.22l.61-.45.85,1.17-.61.45a15.68,15.68,0,0,1-21.25-2.62l-7,13.71a6.59,6.59,0,0,1-12.38-4.07l1.7-10.2a19.58,19.58,0,0,1,22.51-16.09l25.35,4.22,4.63.67c120.72,16.9,202.63,14,250.09,8.6,41.06-4.68,75.13-13.25,101.25-25.47,26.93-12.59,45.41-29.15,54.94-49.22,10.08-21.23,10.18-44.45.29-69l-26.92-37.08,13.23,2.39,7-36.75a6.64,6.64,0,0,1,12.91-.53,6.93,6.93,0,0,1,11.18.31,6.74,6.74,0,0,1,1,2,6.64,6.64,0,0,1,6.53-2.51l.15,0a6.63,6.63,0,0,1,5.31,5.54l7.25,51.44c14.1,35,13.66,70.15-1.27,101.6-25.36,53.41-88.69,86.24-188.23,97.58A764.67,764.67,0,0,1,1773.42,887.39Z"/><path class="cls-4" d="M1971,640.84l14.68,21.61a19.15,19.15,0,0,0,15.93,8.39h0a19.15,19.15,0,0,0,10.67-3.31l8.7-5.9a6,6,0,0,0,1.58-8.29h0a6,6,0,0,0-6.64-2.37l-16.11,4.82h0a15.19,15.19,0,0,0-12.2-17.79l-.76-.14"/><path d="M2001.5,671.56a19.85,19.85,0,0,1-16.44-8.7l-14.68-21.61,1.2-.81,14.67,21.6a18.43,18.43,0,0,0,25.61,4.89l8.69-5.9a5.24,5.24,0,0,0-4.45-9.36l-17.24,5.15.22-1.17a14.46,14.46,0,0,0-11.62-16.94l-.76-.13.26-1.43.76.14a15.92,15.92,0,0,1,13,17.48l15-4.49a6.69,6.69,0,0,1,5.68,11.94l-8.7,5.91a19.73,19.73,0,0,1-11.08,3.43Z"/><rect class="cls-4" x="2036.49" y="660.43" width="12.28" height="20.07" rx="3.1" transform="matrix(-0.03, -1, 1, -0.03, 1442.44, 2734.84)"/><path d="M2038.73,677.46a6.86,6.86,0,0,1-.23-13.72l7.78-.27a6.87,6.87,0,0,1,7.1,6.63h0a6.87,6.87,0,0,1-6.63,7.09l-7.78.27Zm7.79-12.55h-.19l-7.78.26a5.42,5.42,0,0,0,.37,10.83l7.78-.26a5.42,5.42,0,0,0-.18-10.84Z"/><rect class="cls-4" x="2034.93" y="647.94" width="12.28" height="20.07" rx="3.1" transform="translate(1453.31 2720.36) rotate(-91.96)"/><path d="M2037.17,665a6.87,6.87,0,0,1-.23-13.73l7.78-.26a6.86,6.86,0,1,1,.47,13.72l-7.78.27Zm7.79-12.55h-.19l-7.78.27a5.42,5.42,0,0,0,.37,10.83l7.78-.27a5.4,5.4,0,0,0,5.23-5.6h0a5.41,5.41,0,0,0-5.41-5.23Z"/><rect class="cls-4" x="2033.81" y="635.56" width="12.28" height="20.07" rx="3.1" transform="translate(1464.53 2706.44) rotate(-91.96)"/><path d="M2036.05,652.59a6.86,6.86,0,0,1-.23-13.72l7.79-.27a6.87,6.87,0,0,1,7.09,6.63h0a6.85,6.85,0,0,1-6.62,7.09l-7.79.27Zm7.79-12.55h-.19l-7.78.26a5.42,5.42,0,1,0,.38,10.83l7.78-.26a5.43,5.43,0,0,0,5.23-5.6h0A5.43,5.43,0,0,0,2043.84,640Z"/><rect class="cls-2" x="1524.04" y="855.12" width="12.08" height="19.74" rx="3.05" transform="translate(962.27 -798.43) rotate(41.67)"/><path d="M1527.53,874.62a6.69,6.69,0,0,1-4.49-1.72h0a6.76,6.76,0,0,1-.56-9.55l5.1-5.72a6.76,6.76,0,0,1,11.8,4.11,6.67,6.67,0,0,1-1.7,4.89l-5.09,5.72a6.7,6.7,0,0,1-4.66,2.25Zm5.1-17.81a5.3,5.3,0,0,0-4,1.78l-5.1,5.72a5.32,5.32,0,0,0-1.33,3.85,5.25,5.25,0,0,0,1.77,3.66h0a5.32,5.32,0,0,0,7.51-.43l5.09-5.73a5.32,5.32,0,0,0-4-8.85Z"/><rect class="cls-2" x="1534" y="862.49" width="12.08" height="19.74" rx="3.05" transform="translate(969.69 -803.18) rotate(41.67)"/><path d="M1537.49,882a6.74,6.74,0,0,1-4.5-1.71h0a6.77,6.77,0,0,1-.55-9.55l5.09-5.72a6.77,6.77,0,0,1,10.11,9l-5.09,5.72A6.77,6.77,0,0,1,1537.49,882Zm5.1-17.8h-.31a5.3,5.3,0,0,0-3.67,1.77l-5.09,5.72a5.33,5.33,0,0,0,.44,7.51h0a5.33,5.33,0,0,0,7.51-.43l5.09-5.72a5.33,5.33,0,0,0-4-8.86Z"/><rect class="cls-2" x="1543.57" y="870.09" width="12.08" height="19.74" rx="3.05" transform="translate(977.17 -807.62) rotate(41.67)"/><path d="M1547.05,889.59a6.72,6.72,0,0,1-4.49-1.71h0a6.77,6.77,0,0,1-.55-9.55l5.09-5.73a6.77,6.77,0,0,1,10.11,9l-5.09,5.72a6.75,6.75,0,0,1-4.66,2.26Zm5.11-17.81h-.31a5.35,5.35,0,0,0-3.67,1.78l-5.09,5.72a5.31,5.31,0,0,0,.44,7.51h0a5.33,5.33,0,0,0,7.51-.44l5.09-5.72a5.33,5.33,0,0,0-4-8.86Z"/><path class="cls-5" d="M1151.68,977.8c-19-31.6-17.08-84.69,5.81-143.18,20.91-53.44,58.56-111.37,106-163.12,22.23-23.92,50.47-44.71,50.47-44.71a13.16,13.16,0,0,1,18.54,1.6l15.86,18.87a8.3,8.3,0,0,1-1,11.69l-5.75,4.83-.17.14h0a7.54,7.54,0,0,1,10.65.9h0a6.49,6.49,0,0,1-.79,9.14l-4.09,3.44a29.22,29.22,0,0,1-18.25,6.84l-21.79.41a163.32,163.32,0,0,0-14.85,13.28c-44.28,48.28-79.23,101.89-98.43,150.94-10.58,27.06-15.87,51.58-16.08,72.16a95.1,95.1,0,0,0,.45,10.5,31.59,31.59,0,0,0,14.16,23.25l29.88,19.6-12.39,2.71,8,38.32a6.07,6.07,0,0,1-4.71,7.17h0a6.07,6.07,0,0,1-7.17-4.71l-.65-3.13.61,2.92a6.37,6.37,0,0,1-4.85,7.52h0a6.37,6.37,0,0,1-7.64-4.92l-.69-3.31.74,3.53a6.07,6.07,0,0,1-4.71,7.17l-.14,0a6.05,6.05,0,0,1-6.43-2.81S1160.81,993.2,1151.68,977.8Z"/><path d="M1187.44,1028.53a6.78,6.78,0,0,1-5.82-3.29c-.2-.28-21.53-31.82-30.56-47.07h0c-19.15-31.9-17-85.66,5.75-143.81,21-53.52,58.65-111.53,106.17-163.35,22-23.69,50.28-44.6,50.57-44.81a13.88,13.88,0,0,1,19.52,1.73l15.86,18.87a9,9,0,0,1-1.1,12.71l-2.3,1.93a8.4,8.4,0,0,1,7.13,2.91,7.23,7.23,0,0,1-.88,10.16l-4.1,3.44a30,30,0,0,1-18.7,7l-21.54.4a162.14,162.14,0,0,0-14.59,13.06c-44.2,48.21-79.11,101.73-98.27,150.71-10.28,26.27-15.83,51.13-16,71.89a95.26,95.26,0,0,0,.44,10.43,30.69,30.69,0,0,0,13.84,22.72l31.32,20.54-13.38,2.92,7.82,37.62a6.78,6.78,0,0,1-10.37,7,6.47,6.47,0,0,1-1.65-1.52,7.14,7.14,0,0,1-5.3,5.1,7.06,7.06,0,0,1-5.41-1,7.17,7.17,0,0,1-1.7-1.54,6.8,6.8,0,0,1-5.2,5l-.14,0A6.46,6.46,0,0,1,1187.44,1028.53Zm135-404.11a12.35,12.35,0,0,0-8,2.92c-.32.24-28.47,21.06-50.4,44.66-47.4,51.68-85,109.53-105.88,162.88-22.59,57.74-24.78,111-5.86,142.55h0c9,15.21,30.32,46.72,30.54,47a5.34,5.34,0,0,0,5.68,2.51l.14,0a5.34,5.34,0,0,0,4.15-6.31l-.74-3.54,1.42-.29.69,3.31a5.66,5.66,0,0,0,6.77,4.37,5.68,5.68,0,0,0,4.31-6.61l-.62-3,1.42-.29.61,2.91v.07l0,.15a5.34,5.34,0,0,0,10.46-2.18l-8.11-39,11.41-2.49L1192,955.39a32.17,32.17,0,0,1-14.48-23.79,95.61,95.61,0,0,1-.45-10.58c.21-20.94,5.79-46,16.13-72.41,19.23-49.14,54.23-102.82,98.57-151.16a162.48,162.48,0,0,1,14.94-13.37l.19-.14,22-.42a28.55,28.55,0,0,0,17.8-6.68l4.1-3.44a5.78,5.78,0,0,0,.7-8.12,6.83,6.83,0,0,0-9.43-1l-.21.17-.93-1.11.23-.19,5.69-4.78a7.59,7.59,0,0,0,.93-10.67L1332,628.86a12.35,12.35,0,0,0-8.44-4.39C1323.15,624.44,1322.79,624.42,1322.42,624.42Z"/><path class="cls-5" d="M1341.62,663.78a8.31,8.31,0,0,1-5.75,1.94l-10.43-.52a7,7,0,0,1-6.62-7.86h0a7,7,0,0,1,7.54-6.15l9.81.8"/><path d="M1336.29,666.45h-.45l-10.43-.51a7.75,7.75,0,1,1,1-15.46l9.8.8-.11,1.44-9.81-.79a6.29,6.29,0,1,0-.82,12.56l10.43.52a7.61,7.61,0,0,0,5.25-1.77l.93,1.11A9,9,0,0,1,1336.29,666.45Z"/><path class="cls-5" d="M1325.44,642.84s2.17,6.55,10.76,9.13"/><path d="M1336,652.67c-8.85-2.66-11.15-9.32-11.24-9.61l1.37-.45c0,.06,2.19,6.24,10.29,8.67Z"/><path class="cls-2" d="M1231.23,998.47l-.77.17a15.58,15.58,0,0,1-18.57-12.06h0l-13.38,10.9a6.12,6.12,0,0,1-7.22.38h0a6.13,6.13,0,0,1-1.77-8.48l5.92-9a19.63,19.63,0,0,1,8.82-7.34h0a19.64,19.64,0,0,1,18.4,1.68l22.42,14.71"/><path d="M1227.11,999.72a16.29,16.29,0,0,1-15.65-11.86L1199,998a6.85,6.85,0,0,1-10-9.06l5.92-9a20.37,20.37,0,0,1,28.22-5.86l22.42,14.7-.8,1.21-22.41-14.7a18.93,18.93,0,0,0-26.22,5.45l-5.92,9a5.4,5.4,0,0,0,7.93,7.14l14.29-11.66.25,1.17a14.85,14.85,0,0,0,17.7,11.5l.78-.17.3,1.42-.77.16A16,16,0,0,1,1227.11,999.72Z"/><rect class="cls-2" x="1159.2" y="979.23" width="12.61" height="20.6" rx="3.18" transform="translate(1582.34 -481.46) rotate(65.49)"/><path d="M1161.87,998.22a7.06,7.06,0,0,1-6.4-4.12h0a7.05,7.05,0,0,1,3.48-9.31l7.27-3.31a7,7,0,1,1,5.83,12.79l-7.27,3.31A6.92,6.92,0,0,1,1161.87,998.22Zm7.26-15.93a5.59,5.59,0,0,0-2.31.5l-7.27,3.32a5.58,5.58,0,0,0-2.76,7.39h0a5.55,5.55,0,0,0,7.39,2.76l7.27-3.31a5.58,5.58,0,0,0-2.32-10.66Z"/><rect class="cls-2" x="1165.6" y="990.46" width="12.61" height="20.6" rx="3.18" transform="translate(1596.3 -480.71) rotate(65.49)"/><path d="M1168.27,1009.45a7,7,0,0,1-2.92-13.43l7.27-3.31a7,7,0,0,1,9.31,3.48,7,7,0,0,1-3.48,9.31l-7.27,3.31A6.92,6.92,0,0,1,1168.27,1009.45Zm7.26-15.93a5.65,5.65,0,0,0-2.31.5l-7.27,3.32a5.58,5.58,0,0,0-2.76,7.39,5.58,5.58,0,0,0,7.39,2.76l7.27-3.31a5.59,5.59,0,0,0-.36-10.31A5.79,5.79,0,0,0,1175.53,993.52Z"/><rect class="cls-2" x="1171.53" y="1001.75" width="12.61" height="20.6" rx="3.18" transform="translate(1610.04 -479.5) rotate(65.49)"/><path d="M1174.2,1020.74a7.09,7.09,0,0,1-2.47-.45,7,7,0,0,1-.45-13l7.27-3.31a7,7,0,0,1,5.83,12.79l-7.27,3.31A6.92,6.92,0,0,1,1174.2,1020.74Zm7.26-15.93a5.54,5.54,0,0,0-2.31.51l-7.27,3.31a5.58,5.58,0,0,0-2.76,7.39h0a5.57,5.57,0,0,0,7.39,2.77l7.27-3.32a5.59,5.59,0,0,0-2.32-10.66Z"/></g></g></g></svg>