<svg xmlns="http://www.w3.org/2000/svg" viewBox="0 0 302.88 80.19"><title>logo_ufrussas</title><g id="Camada_2" data-name="Camada 2"><g id="Camada_1-2" data-name="Camada 1"><path d="M61.61,56.28a14,14,0,0,0-.52-2.22,50.38,50.38,0,0,1-1.53-5.63,10.06,10.06,0,0,1,.26-5.28l.12-.28a.74.74,0,0,0-.17-.95.76.76,0,0,0-1,0,2.78,2.78,0,0,1-.27.21,14.06,14.06,0,0,0-3,3c-.21-.47-.44-.93-.65-1.4a9.72,9.72,0,0,1-1-4.06v-.25a.77.77,0,0,0-.52-.74.75.75,0,0,0-.84.29,1.34,1.34,0,0,0-.18.28l0,0v0c-1.39,3.36-1.12,6.15-.26,9.49l-1.47-.12a1,1,0,0,0-.84.19,1,1,0,0,0-.26.8c0,1.07-.09,2.13-.14,3.2a10.94,10.94,0,0,1-3.48,7.8l0-2.07A9.67,9.67,0,0,0,48,52.82L49.26,23.1,48.62,23l-1.68-.22L47,19.44a.82.82,0,0,0,.35-.23.88.88,0,0,0,.21-.58,2,2,0,0,0-.17-3.7h-.06c-.31-.06-.63-.1-1-.15l0-.06a4.65,4.65,0,0,0,2.37-3,3,3,0,0,0-.8-2.39.22.22,0,0,1-.06-.15,3.64,3.64,0,0,1,.35-.84c.15-.3.31-.59.43-.89a4.18,4.18,0,0,0,.15-3.41.56.56,0,0,1,0-.12.59.59,0,0,0-.56-.44c-.38,0-.53.28-.6.59a2,2,0,0,1-.84,1.2.74.74,0,0,1-.07-.45A2.81,2.81,0,0,1,47,4.05a2.82,2.82,0,0,0,.32-1.34A3.93,3.93,0,0,0,46.17.33L46.09.22a.57.57,0,0,0-.7-.16.56.56,0,0,0-.3.64s0,.07,0,.1a3,3,0,0,1-1.53,2.89A6.28,6.28,0,0,0,41.9,4.86a7.37,7.37,0,0,0-1.31,1.78l-.13-.17-.1-.11a.58.58,0,0,0-.62-.16.57.57,0,0,0-.38.5.49.49,0,0,0,0,.12s0,.06,0,.1a3,3,0,0,1-.88,1.71l-.53.61A2.29,2.29,0,0,0,37.2,11a2.78,2.78,0,0,0,.62,1.45c.09.13.18.26.28.38a11.47,11.47,0,0,0,1.73,1.82l-.12.17c-.29,0-.58.08-.87.13h-.06a2,2,0,0,0-.23,3.68.81.81,0,0,0,.21.59.71.71,0,0,0,.34.23l.08,2.62c-1.5-.1-3-.17-4.49-.22l.06-2.39a.82.82,0,0,0,.35-.23.83.83,0,0,0,.21-.58,2,2,0,0,0-.17-3.7h-.06c-.31-.06-.63-.1-.95-.15l0,0a4.71,4.71,0,0,0,2.39-3,3,3,0,0,0-.79-2.39.22.22,0,0,1-.06-.15A2.94,2.94,0,0,1,36,8.35c.14-.3.3-.59.43-.89a4.18,4.18,0,0,0,.14-3.41s0-.08,0-.12A.58.58,0,0,0,36,3.49c-.39,0-.54.28-.6.59a2,2,0,0,1-.85,1.2.83.83,0,0,1-.07-.45,3.17,3.17,0,0,1,.28-.78,2.82,2.82,0,0,0,.32-1.34A3.88,3.88,0,0,0,33.93.33a.76.76,0,0,0-.08-.11.57.57,0,0,0-1,.48s0,.07,0,.1a3.06,3.06,0,0,1-1.54,2.89,6.45,6.45,0,0,0-1.67,1.17,7.37,7.37,0,0,0-1.31,1.78l-.13-.17a.52.52,0,0,0-.1-.11.58.58,0,0,0-.62-.16.59.59,0,0,0-.38.5s0,.08,0,.12,0,.06,0,.1a3,3,0,0,1-.89,1.71c-.18.2-.34.41-.53.61A2.24,2.24,0,0,0,25,11a2.63,2.63,0,0,0,.62,1.45,3.28,3.28,0,0,0,.27.38,12.14,12.14,0,0,0,1.71,1.8l-.14.19c-.29,0-.58.08-.87.13h0a2,2,0,0,0-.24,3.68.86.86,0,0,0,.21.59.71.71,0,0,0,.34.23l.07,2.39c-1.51.05-3,.12-4.53.22l.08-2.6a.86.86,0,0,0,.34-.23.83.83,0,0,0,.21-.58,2,2,0,0,0-.17-3.7h-.05l-1-.15-.06-.08a4.65,4.65,0,0,0,2.34-3,3,3,0,0,0-.8-2.39.22.22,0,0,1-.06-.15,3.64,3.64,0,0,1,.35-.84c.15-.3.31-.59.43-.89a4.18,4.18,0,0,0,.15-3.41l-.05-.12a.57.57,0,0,0-.55-.44c-.38,0-.53.28-.6.59a2,2,0,0,1-.85,1.2.74.74,0,0,1-.06-.45,2.78,2.78,0,0,1,.27-.78,3,3,0,0,0,.33-1.34A4,4,0,0,0,21.53.33L21.44.22a.57.57,0,0,0-.7-.16.58.58,0,0,0-.3.64.44.44,0,0,1,0,.1,3.05,3.05,0,0,1-1.53,2.89,6.5,6.5,0,0,0-1.68,1.17,7.65,7.65,0,0,0-1.31,1.78l-.13-.17a.52.52,0,0,0-.1-.11.56.56,0,0,0-.61-.16.58.58,0,0,0-.39.5.49.49,0,0,1,0,.12v.1a3,3,0,0,1-.88,1.71c-.18.2-.35.41-.54.61A2.28,2.28,0,0,0,12.56,11a2.7,2.7,0,0,0,.62,1.45l.27.38a12.91,12.91,0,0,0,1.77,1.85l-.11.14c-.29,0-.58.08-.87.13h-.05A2,2,0,0,0,14,18.61a.86.86,0,0,0,.21.59.7.7,0,0,0,.35.23l.09,3.37L13,23l-.64.09,1.3,29.73a9.65,9.65,0,0,0,2,5.65l0,2.1a10.93,10.93,0,0,1-3.38-7.7c-.05-1.07-.09-2.13-.14-3.2a1,1,0,0,0-.26-.8,1,1,0,0,0-.84-.19l-1.46.12c.86-3.34,1.13-6.13-.27-9.49v0l0,0A1.89,1.89,0,0,0,9.14,39a.74.74,0,0,0-1.36.45,2,2,0,0,0,0,.25,9.56,9.56,0,0,1-1,4.06c-.22.47-.45.93-.66,1.4a13.83,13.83,0,0,0-3-3L2.85,42a.76.76,0,0,0-1,0,.75.75,0,0,0-.17.95,2.36,2.36,0,0,1,.12.28,10.06,10.06,0,0,1,.26,5.28A50.33,50.33,0,0,1,.56,54.06,13,13,0,0,0,0,56.28a2.21,2.21,0,0,0,.42,1.83,1.63,1.63,0,0,0,1.07.48h0l3.6.34h0A19,19,0,0,0,11.69,68,22,22,0,0,0,16,70.53l.1,3.65c-.27,0-.54,0-.78,0h-.61l0,.61a1.23,1.23,0,0,0,.38.88,2.34,2.34,0,0,0,.68.4.72.72,0,0,1,.29.22,1.23,1.23,0,0,1,0,.43,1.41,1.41,0,0,0,.15.76,1,1,0,0,0,.21.24A1.23,1.23,0,0,0,17,78a1.68,1.68,0,0,0,3,0,1.13,1.13,0,0,0,.53-.25c.44-.36.34-.78.36-1.27,0,0,0-.08,0-.11s0,0,0,0a.8.8,0,0,1,.29-.22,2.39,2.39,0,0,0,.69-.4,1.23,1.23,0,0,0,.38-.88l0-.61h-.6a6.08,6.08,0,0,0-.85,0l.05-2a39.13,39.13,0,0,0,7.46,1l.07,2.24a7.47,7.47,0,0,0-.82,0H27l0,.6a1.25,1.25,0,0,0,.38.89,2.44,2.44,0,0,0,.68.4.58.58,0,0,1,.29.22,1.22,1.22,0,0,1,0,.43,1.42,1.42,0,0,0,.15.76,1.07,1.07,0,0,0,.74.48,1.68,1.68,0,0,0,3,0,1.12,1.12,0,0,0,.53-.24c.44-.36.34-.79.36-1.28a.52.52,0,0,1,0-.11.06.06,0,0,1,0,0,.63.63,0,0,1,.29-.22,2.65,2.65,0,0,0,.69-.4,1.29,1.29,0,0,0,.38-.89l0-.6H34a8.8,8.8,0,0,0-.89,0l.06-2.23a39.51,39.51,0,0,0,7.43-1h0l0,2c-.27,0-.54,0-.78,0h-.61l0,.61a1.23,1.23,0,0,0,.38.88,2.22,2.22,0,0,0,.68.4.8.8,0,0,1,.29.22,1.23,1.23,0,0,1,0,.43,1.41,1.41,0,0,0,.15.76,1,1,0,0,0,.21.24,1.23,1.23,0,0,0,.53.25,1.68,1.68,0,0,0,3,0,1.13,1.13,0,0,0,.53-.25c.44-.36.34-.78.36-1.27a.36.36,0,0,1,0-.11.09.09,0,0,1,0,0,.8.8,0,0,1,.29-.22,2.39,2.39,0,0,0,.69-.4,1.27,1.27,0,0,0,.38-.88l0-.61h-.6a6.06,6.06,0,0,0-.85,0l.1-3.61-.12,0A22.38,22.38,0,0,0,50,68a19,19,0,0,0,6.56-9.05h0l3.6-.34h0a1.63,1.63,0,0,0,1.07-.48,2.18,2.18,0,0,0,.42-1.83m-14.3-4.66-1-1.22,1.11-.94Zm-.72-32.75a31.18,31.18,0,0,0-7,0c-.4.05-.36-.14-.37-.43a24.32,24.32,0,0,1,3.91-.27,25,25,0,0,1,3.86.26c0,.29,0,.49-.37.45m-1.52.93a.52.52,0,0,0-.52.49l0,2.22L43,22.36V20.64a.51.51,0,0,1,.52-.49h.12a.52.52,0,0,0-1,.13v2h0l-1.55-.13,0-1.55a.5.5,0,0,1,.52-.49h.12a.51.51,0,0,0-.5-.36.5.5,0,0,0-.52.49l0,1.87h0l-.75-.06h0l-.08-2.9a31.7,31.7,0,0,1,6.46,0l-.1,3.5-1.28-.14,0-1.92a.5.5,0,0,1,.52-.49h.12a.52.52,0,0,0-.51-.36m-6.53-7.33c-.09-.12-.18-.25-.26-.38a2,2,0,0,1-.52-1.15,1.7,1.7,0,0,1,.56-1.32c.2-.21.35-.4.55-.62a3.38,3.38,0,0,0,1.05-2.3,2.19,2.19,0,0,1,.56,1.55,7.89,7.89,0,0,1,1.81-3,6.26,6.26,0,0,1,1.54-1.07A3.55,3.55,0,0,0,45.62.53a3.83,3.83,0,0,1,1.12,2.2c0,.8-.5,1.28-.6,2a1.34,1.34,0,0,0,.16.86c-.3.33-.91.89-.86,1.4a12.56,12.56,0,0,1,1.4-1.1A2.6,2.6,0,0,0,48.18,4a3.58,3.58,0,0,1,0,3.22,12.38,12.38,0,0,0-.81,1.85.72.72,0,0,0,.17.59c1.55,1.81.32,3.48-1.52,4.62a2.92,2.92,0,0,0-1.09-.25l-.22,0c1.72-1,3.25-2.87,1.09-4.67A5.09,5.09,0,0,1,43.56,14h-1A3.31,3.31,0,0,0,44,11.48a4.67,4.67,0,0,0-.29-2.12c-.19-.53-.33-.64-.11-1.19a5.64,5.64,0,0,1,.88-1.44A4,4,0,0,0,45.5,3a5.33,5.33,0,0,1-1.28,2.82c-.13.14-.28.28-.45.43s-.58.57-.88.8A6.48,6.48,0,0,0,41,9.67a5.65,5.65,0,0,1,.58-.36L42,9.07A3.87,3.87,0,0,0,43.2,7.29,3,3,0,0,1,42,9.77,3.4,3.4,0,0,0,41,11a2.28,2.28,0,0,0-.17.79,3.11,3.11,0,0,0,.13.87,2.75,2.75,0,0,1-.17-.29,2.48,2.48,0,0,1-.31-1.48,1.94,1.94,0,0,0-.54,1.4c0,.12,0,.25,0,.38A2.73,2.73,0,0,1,40,10.64a3,3,0,0,1,.66-.72A6.8,6.8,0,0,0,40,7.83a4.67,4.67,0,0,1-.45,2.08,2.24,2.24,0,0,0-.2,1.75A4.45,4.45,0,0,0,41,13.91a.38.38,0,0,0,0,.15,2.45,2.45,0,0,0-.72.17h0a11.27,11.27,0,0,1-1.69-1.76m5-3a4.53,4.53,0,0,1,.27,2,3.13,3.13,0,0,1-.66,1.73,4.35,4.35,0,0,1-.87.79l-.62,0h0s0,0-.06,0l-.4-1.35a2.42,2.42,0,0,1-.11-.8,1.83,1.83,0,0,1,.15-.73,3,3,0,0,1,.91-1.17,3.25,3.25,0,0,0,1.06-1.4A4.29,4.29,0,0,0,43.4,7.3l0-.5.46-.43c.16-.14.32-.29.47-.45a4.32,4.32,0,0,0,1-1.77c0,.15,0,.3,0,.45a4.15,4.15,0,0,1-1,2h0A5.71,5.71,0,0,0,43.4,8.1c-.24.61-.09.76.12,1.33m-2,4.58h-.1l-.37-.27a4.64,4.64,0,0,1-.9-.87v-.19c0-.12,0-.24,0-.36a2.25,2.25,0,0,1,.15-.78,3,3,0,0,0,.32.94l.18.31Zm4.2.77.14.19a21.49,21.49,0,0,0-2.78-.15,24.62,24.62,0,0,0-2.85.15l.18-.24c.31-.33,5-.31,5.31,0M43.88,14A5.54,5.54,0,0,0,46,9.87c1.22,1.34.43,2.67-1,3.7a8.09,8.09,0,0,1-.69.44l-.43,0M43,7.16v0a3.65,3.65,0,0,1-1.17,1.7,2.46,2.46,0,0,1-.34.22l0,0a5.88,5.88,0,0,1,1.53-2l0,0m-3.44,4.71c0-.09-.07-.18-.09-.27A2.09,2.09,0,0,1,39.7,10a7.36,7.36,0,0,0,.41-1.32,4.06,4.06,0,0,1,.36,1.18,3,3,0,0,0-.62.7h0v0a3,3,0,0,0-.25,1.3M39,18.09a1.35,1.35,0,0,1,0-2.56,24.78,24.78,0,0,1,8.3,0,1.35,1.35,0,0,1,0,2.56,23.79,23.79,0,0,0-4.15-.29,23.86,23.86,0,0,0-4.15.29M26.31,12.47a3.28,3.28,0,0,1-.27-.38,2.19,2.19,0,0,1-.52-1.15,1.74,1.74,0,0,1,.56-1.32c.2-.21.35-.4.55-.62a3.45,3.45,0,0,0,1.06-2.3,2.28,2.28,0,0,1,.56,1.55,7.76,7.76,0,0,1,1.8-3,6.26,6.26,0,0,1,1.54-1.07A3.57,3.57,0,0,0,33.39.53a3.87,3.87,0,0,1,1.11,2.2c0,.8-.5,1.28-.6,2a1.41,1.41,0,0,0,.16.86c-.3.33-.91.89-.85,1.4a12.44,12.44,0,0,1,1.39-1.1A2.57,2.57,0,0,0,35.94,4a3.55,3.55,0,0,1,0,3.22,13.51,13.51,0,0,0-.81,1.85.72.72,0,0,0,.17.59c1.56,1.82.31,3.49-1.54,4.63a2.77,2.77,0,0,0-1.11-.26h-.14c1.73-1,3.27-2.88,1.11-4.68A5.1,5.1,0,0,1,31.37,14h-.95a3.28,3.28,0,0,0,1.38-2.49,4.54,4.54,0,0,0-.28-2.12c-.2-.53-.33-.64-.12-1.19a5.68,5.68,0,0,1,.89-1.44,4,4,0,0,0,1-3.76A5.39,5.39,0,0,1,32,5.79l-.46.43c-.31.26-.57.57-.88.8a6.57,6.57,0,0,0-1.86,2.65c.19-.13.38-.25.58-.36a2.81,2.81,0,0,0,.36-.24A3.79,3.79,0,0,0,31,7.29a2.91,2.91,0,0,1-1.19,2.48,3.43,3.43,0,0,0-1,1.26,2.27,2.27,0,0,0-.16.79,2.76,2.76,0,0,0,.12.87l-.17-.29a2.64,2.64,0,0,1-.31-1.48,2,2,0,0,0-.54,1.4,2.41,2.41,0,0,0,0,.38,2.73,2.73,0,0,1,.06-2.06,2.8,2.8,0,0,1,.66-.72,6.79,6.79,0,0,0-.73-2.09,4.53,4.53,0,0,1-.45,2.08,2.24,2.24,0,0,0-.2,1.75,4.51,4.51,0,0,0,1.64,2.25.33.33,0,0,0,0,.14,2.59,2.59,0,0,0-.78.17h0a11.06,11.06,0,0,1-1.67-1.75m5-3a4.4,4.4,0,0,1,.27,2A3.2,3.2,0,0,1,31,13.19a4.35,4.35,0,0,1-.87.79l-.64,0h0s0,0,0,0L29,12.63a2.43,2.43,0,0,1-.12-.8A2.26,2.26,0,0,1,29,11.1a3.25,3.25,0,0,1,.91-1.17A3.28,3.28,0,0,0,31,8.53a4.28,4.28,0,0,0,.2-1.23l0-.5.46-.43a4,4,0,0,0,.47-.45,4.32,4.32,0,0,0,1-1.77,3.42,3.42,0,0,1,0,.45,4.15,4.15,0,0,1-1,2h0a5.42,5.42,0,0,0-.91,1.49c-.25.61-.1.76.11,1.33m-2,4.57h-.1l-.37-.26a4.32,4.32,0,0,1-.89-.87v-.19a2.16,2.16,0,0,1,0-.36,2.26,2.26,0,0,1,.16-.78,3,3,0,0,0,.32.94l.17.31Zm4.11.78.14.19a21.49,21.49,0,0,0-2.78-.15A24.74,24.74,0,0,0,28,15l.18-.24c.31-.33,5-.31,5.31,0M31.69,14a5.51,5.51,0,0,0,2.14-4.12c1.22,1.34.44,2.67-1,3.7a6.46,6.46,0,0,1-.71.44l-.42,0m-.84-6.83,0,0a3.65,3.65,0,0,1-1.17,1.7,2,2,0,0,1-.34.22l0,0a5.85,5.85,0,0,1,1.52-2l0,0m-3.44,4.71c0-.09-.07-.18-.1-.27a2.14,2.14,0,0,1,.2-1.62,6.63,6.63,0,0,0,.41-1.32,4.07,4.07,0,0,1,.37,1.18,2.76,2.76,0,0,0-.62.7h0v0a3.09,3.09,0,0,0-.24,1.3m-.74,6.22a1.35,1.35,0,0,1,0-2.56,24.78,24.78,0,0,1,8.3,0,1.35,1.35,0,0,1,0,2.56,23.79,23.79,0,0,0-4.15-.29,23.86,23.86,0,0,0-4.15.29m6.12,1.71a.52.52,0,0,0-.52.49v1.48H30.7V20.64a.51.51,0,0,1,.52-.49h.12a.52.52,0,0,0-1,.13v1.47l-1.56,0,0-1.14a.5.5,0,0,1,.52-.49h.12a.51.51,0,0,0-.5-.36.5.5,0,0,0-.52.49l0,1.5h-.75l-.07-2.6a31.7,31.7,0,0,1,6.46,0L34,21.81l-1.31,0h0l0-1.14a.5.5,0,0,1,.52-.49h.12a.52.52,0,0,0-.51-.36m-5.51-.94c-.4.05-.36-.14-.37-.43a24.32,24.32,0,0,1,3.91-.27,25,25,0,0,1,3.86.26c0,.29,0,.49-.37.45a31.18,31.18,0,0,0-7,0m21.25,4.85L47.45,48.38,44.39,44.8l-1.66,1.42L40.4,43.5l1.66-1.42L38.49,37.9l-1.66,1.43L34.5,36.6l1.66-1.42L32.59,31l-1.67,1.43L28.59,29.7l1.67-1.42L26.68,24.1,25,25.53l-2.38-2.8h0a128.77,128.77,0,0,1,25.89,1M13.9,12.47l-.27-.38a2.19,2.19,0,0,1-.52-1.15,1.77,1.77,0,0,1,.56-1.32c.21-.21.36-.4.55-.62a3.45,3.45,0,0,0,1.06-2.3,2.24,2.24,0,0,1,.56,1.55,7.89,7.89,0,0,1,1.8-3,6.31,6.31,0,0,1,1.55-1.07A3.58,3.58,0,0,0,21,.53a3.81,3.81,0,0,1,1.11,2.2c0,.8-.49,1.28-.59,2a1.34,1.34,0,0,0,.15.86c-.29.33-.91.89-.85,1.4a12.44,12.44,0,0,1,1.39-1.1A2.58,2.58,0,0,0,23.54,4a3.61,3.61,0,0,1,0,3.22,12.46,12.46,0,0,0-.82,1.85.76.76,0,0,0,.17.59c1.55,1.8.34,3.46-1.49,4.6a3,3,0,0,0-1.07-.23l-.21,0c1.72-1,3.26-2.87,1.1-4.67A5.1,5.1,0,0,1,19,14H18a3.28,3.28,0,0,0,1.38-2.49,4.54,4.54,0,0,0-.28-2.12c-.19-.53-.33-.64-.12-1.19a5.68,5.68,0,0,1,.89-1.44,4,4,0,0,0,1-3.76,5.39,5.39,0,0,1-1.27,2.82l-.46.43c-.31.26-.57.57-.88.8a6.57,6.57,0,0,0-1.86,2.65c.19-.13.39-.25.58-.36a2.81,2.81,0,0,0,.36-.24,3.72,3.72,0,0,0,1.23-1.78,2.91,2.91,0,0,1-1.19,2.48,3.54,3.54,0,0,0-1,1.26,2.27,2.27,0,0,0-.16.79,2.76,2.76,0,0,0,.12.87l-.17-.29a2.56,2.56,0,0,1-.3-1.48,2,2,0,0,0-.55,1.4,2.41,2.41,0,0,0,0,.38,2.73,2.73,0,0,1,.06-2.06,2.8,2.8,0,0,1,.66-.72,6.79,6.79,0,0,0-.73-2.09,4.53,4.53,0,0,1-.45,2.08,2.29,2.29,0,0,0-.2,1.75,4.51,4.51,0,0,0,1.64,2.25.24.24,0,0,0,0,.15,2.18,2.18,0,0,0-.77.19,11.93,11.93,0,0,1-1.7-1.78m5-3a4.4,4.4,0,0,1,.28,2,3.29,3.29,0,0,1-.66,1.73,4.35,4.35,0,0,1-.87.79l-.63,0h0s0,0-.05,0l-.4-1.35a2.43,2.43,0,0,1-.12-.8,2.26,2.26,0,0,1,.15-.73,3.25,3.25,0,0,1,.91-1.17,3.28,3.28,0,0,0,1.07-1.4,4.28,4.28,0,0,0,.2-1.23l0-.5.46-.43a5.11,5.11,0,0,0,.48-.45,4.4,4.4,0,0,0,1-1.77,2.28,2.28,0,0,1,0,.45,4.15,4.15,0,0,1-1,2h0a5.42,5.42,0,0,0-.91,1.49c-.25.61-.1.76.11,1.33M17,14h-.1l-.38-.26a4.32,4.32,0,0,1-.89-.87v-.19a2.16,2.16,0,0,1,0-.36,2.26,2.26,0,0,1,.16-.78,3,3,0,0,0,.32.94l.17.31Zm4.18.77.14.19a21.49,21.49,0,0,0-2.78-.15,24.74,24.74,0,0,0-2.85.15l.18-.24c.31-.33,5-.31,5.31,0M19.3,14a5.53,5.53,0,0,0,2.13-4.12c1.22,1.34.44,2.67-1,3.7-.23.16-.46.3-.7.44l-.42,0Zm-.85-6.83,0,0a3.71,3.71,0,0,1-1.16,1.7,2.56,2.56,0,0,1-.35.22l0,0a5.75,5.75,0,0,1,1.53-2l0,0M15,11.87c0-.09-.07-.18-.1-.27a2.14,2.14,0,0,1,.2-1.62,6.63,6.63,0,0,0,.41-1.32,4.07,4.07,0,0,1,.37,1.18,2.76,2.76,0,0,0-.62.7h0v0a3.09,3.09,0,0,0-.24,1.3m-.66,6.22a1.35,1.35,0,0,1,0-2.56,24.78,24.78,0,0,1,8.3,0,1.35,1.35,0,0,1,0,2.56,23.79,23.79,0,0,0-4.15-.29,23.86,23.86,0,0,0-4.15.29m.24.34a24.32,24.32,0,0,1,3.91-.27,24.79,24.79,0,0,1,3.86.26c0,.29,0,.49-.37.45a31.09,31.09,0,0,0-7,0h0c-.41.05-.37-.14-.38-.43m7,3.67-1.3.1,0-1.56a.5.5,0,0,1,.52-.49H21a.53.53,0,0,0-1,.13l0,1.94-1.54.14,0-1.73a.51.51,0,0,1,.53-.49H19a.52.52,0,0,0-.51-.36.51.51,0,0,0-.52.49v2.12h0l-1.54.16-.05-1.93a.51.51,0,0,1,.52-.49h.12a.51.51,0,0,0-.5-.36.5.5,0,0,0-.52.49l0,2.33h0l-.74.09-.1-3.51a31.7,31.7,0,0,1,6.46,0l-.08,2.9Zm-8.5,1.61c3-.41,5.86-.72,8.75-.92L25,26.38,26.61,25l2.79,3.25-1.66,1.43,3.11,3.64,1.67-1.42,2.78,3.25-1.66,1.43,3.12,3.64,1.66-1.42L41.21,42l-1.67,1.43,2.77,3.22.35.42,1.67-1.42,2.78,3.25-1.66,1.42,1.83,2.14,0,.33c-.15,3.7-2.12,7.43-8.14,9.16l-2.71-3.17-.36-.41L34.39,59.8l-2.78-3.25h0l1.66-1.42-3.12-3.64L28.49,52.9,25.7,49.65l1.67-1.43-3.12-3.64L22.58,46,19.8,42.75l1.66-1.43-3.12-3.64L16.68,39.1l-2.79-3.25,1.67-1.43L13.48,32Zm32,35.75,0,1.86-.13.1-.43.32V60c.21-.18.41-.36.6-.55m-1,.9,0,1.68c-.27.17-.54.33-.82.48V60.94h0c.29-.18.57-.37.85-.58m-1.25,2.38c-.24.13-.49.24-.74.36l0-1.51c.27-.13.52-.26.77-.41ZM41.07,62l.53-.22,0,1.48c-.17.08-.35.14-.53.21h0Zm-.58,1.69-.11,0h0A26.71,26.71,0,0,1,33.44,65l0-1.37a26.29,26.29,0,0,0,6.86-1.27l0,1.45.11,0M13.62,35.28l-.09-2.17,1.17,1.25Zm.76,17.52-.7-16.27L16.61,40l1.66-1.42,2.34,2.72-1.67,1.42,3.58,4.18,1.66-1.43,2.33,2.73-1.66,1.42,3.57,4.18,1.66-1.43,2.33,2.72-1.66,1.43,3.57,4.18L36,59.23l2.47,2.83-.11.1a32,32,0,0,1-7.53.79c-12.64,0-16.23-5.1-16.44-10.15M32.74,63.62l0,1.37h-.48V63.63Zm-1,0,0,1.36H31V63.66h.79M30.59,65h-.71l0-1.36h.73Zm-1.2,0h-.51l0-1.38h0l.52,0Zm-1.25,0a27,27,0,0,1-7-1.22l0-1.45h0a25.66,25.66,0,0,0,6.9,1.29l0,1.38Zm-8.23-1.69h0l0-1.5.54.24,0,1.47.1,0-.1,0h0l-.52-.21m-.43-1.71v1.52l-.8-.39V61.1c.26.16.54.31.82.45m-2,.43h0l-.07-.05.07,0,0-1.7.07,0,.73.52v1.6l0,0,0,0h0c-.26-.15-.51-.3-.76-.47M17,61.69l-.05,0h0l-.31-.23-.23-.18-.05-1.88.55.52,0,1.77a.1.1,0,0,1,.05,0M1.72,57.89c-3.43,0,3.15-8.81.76-15-.2-.54-.31-.55.21-.15a10.27,10.27,0,0,1,3.49,4c.87-2.52,2.2-3.87,2.3-7.11,0-.3,0-.53.21-.1,1.47,3.55.94,6.42.1,9.55H8.64l-3.27.28-.46,0a1.51,1.51,0,0,0-.74.19C3,50.5,3,53.34,3,54.47c-.1,1.81-.32,3.42-1.23,3.42m.86.07a2.69,2.69,0,0,0,.56-1.21,12.23,12.23,0,0,0,.26-2.26c0-.2,0-.47,0-.8h0v0h0v0h0v0h0v-.07h0v0h0v0h0c0-.3,0-.62.08-.94h0v0h0v0h0q0-.3.09-.6h0V51.7h0c0-.16.07-.32.11-.47h0c0-.15.1-.3.15-.43h0v0H4v0H4v0H4v0H4v0H4l0,0h0l0,0h0l0,0h0l0,0h0l0,0h0v0h0l.13,2.95v0h0a20.59,20.59,0,0,0,.82,4.87ZM18.5,78.34a.83.83,0,1,1,0-1.62.83.83,0,1,1,0,1.62m3.2-3.57c0,.8-.87.59-1.27,1.22-.27.43,0,1-.26,1.29a.83.83,0,0,1-.27.12,1.44,1.44,0,0,0-2.79,0,.74.74,0,0,1-.27-.12c-.31-.26,0-.86-.26-1.29-.4-.63-1.24-.42-1.27-1.22,1.7,0,1.33.13,2.34,1.16l.25-.17a3.43,3.43,0,0,1-.38-1.17,1.36,1.36,0,0,1,1-.7,1.36,1.36,0,0,1,1,.7,3.43,3.43,0,0,1-.38,1.17l.25.17c1-1,.64-1.19,2.34-1.16m-5-3.91.48.19.07,2.86a1.62,1.62,0,0,0-.28.39l-.05.09-.12-.06Zm.82.32c.25.1.51.19.76.27v1.87a2.15,2.15,0,0,0-.64.26l0-2.36Zm1.81,2.42a2,2,0,0,0-.66-.27V71.59l-.14,0h0l.8.25,0,1.8Zm.29-1.72h0l.75.2L20.18,72l-.07,2.34-.05,0,0-.09a2.18,2.18,0,0,0-.33-.45h0l.05-2ZM30.82,79.6a.83.83,0,1,1,1-.81.92.92,0,0,1-1,.81M34,76c0,.79-.88.58-1.27,1.21-.27.43,0,1-.27,1.29a.57.57,0,0,1-.26.12,1.36,1.36,0,0,0-1.4-1.08,1.34,1.34,0,0,0-1.39,1.08.61.61,0,0,1-.27-.12c-.31-.25,0-.86-.26-1.29-.4-.63-1.24-.42-1.27-1.21,1.7,0,1.33.12,2.34,1.15l.24-.16a3.92,3.92,0,0,1-.38-1.17,1.34,1.34,0,0,1,1-.7,1.31,1.31,0,0,1,1,.7A3.43,3.43,0,0,1,31.43,77l.24.16c1-1,.65-1.19,2.35-1.15m-3.38-2.77v1.32a1.9,1.9,0,0,0-.64.25l0-1.58h-.41l.05,1.89a2,2,0,0,0-.31.43l-.05.08-.09,0v-.13l-.06-2.24-.49,0c.5,0,1,0,1.48,0h.53Zm1,0,0,1.59a1.92,1.92,0,0,0-.64-.26V73.27h.51l.94,0-.07,2.24v.16h0l-.05-.08a2,2,0,0,0-.36-.48L32,73.25h-.35m11.25.06a2.15,2.15,0,0,0-.64.26l0-1.78-.24.07c.43-.12.85-.25,1.27-.4l-.37.13Zm-1,.59a1.62,1.62,0,0,0-.28.39l-.05.09-.12-.06-.07-2.28h0l.61-.16-.13,0Zm1.22,4.43a.83.83,0,1,1,1-.81.93.93,0,0,1-1,.81m3.2-3.57c0,.8-.88.59-1.27,1.22-.27.43,0,1-.27,1.29a.67.67,0,0,1-.27.12,1.43,1.43,0,0,0-2.78,0,.74.74,0,0,1-.27-.12c-.31-.26,0-.86-.27-1.29-.39-.63-1.23-.42-1.26-1.22,1.7,0,1.33.13,2.34,1.16l.24-.17a3.92,3.92,0,0,1-.38-1.17,1.37,1.37,0,0,1,1-.7,1.36,1.36,0,0,1,1,.7,3.43,3.43,0,0,1-.38,1.17l.24.17c1-1,.65-1.19,2.35-1.16m-3-1.44V71.46l.79-.28-.13,0,0,2.36a2.06,2.06,0,0,0-.65-.26m1,.53.07-2.77h0l.5-.2h0l-.1,3.46-.05,0,0-.09a1.81,1.81,0,0,0-.33-.44m5.25-6.44c-5.33,4-12.2,5.14-18.71,5.14h0c-6.5,0-13.37-1.09-18.7-5.14A18.44,18.44,0,0,1,4.78,53.2l-.13-3c0-.25,0-.3.11-.31H5l6.19-.52c.36,0,.31,0,.32.31,0,1.07.1,2.13.14,3.2A11.62,11.62,0,0,0,16.25,62c4.08,3.11,9.6,3.75,14.57,3.75v0s0,0,0,0c5,0,10.49-.64,14.56-3.75A11.62,11.62,0,0,0,50,52.91c.05-1.07.09-2.13.14-3.2,0-.36,0-.35.33-.31l6.19.52h.18c.14,0,.12.06.11.31l-.13,3a18.46,18.46,0,0,1-7.33,14.22m7-9.24a20.08,20.08,0,0,0,.81-4.87h0v0l.13-2.95h0l0,0h0l0,0h0l0,0h0l0,0h0l0,0h0v0h0v0h0v0h0v0h0l0,0h0c.05.13.1.28.15.43h0c0,.15.08.31.11.47h0l0,.09h0q.06.3.09.6h0v0h0v0h0c0,.32.06.64.07.94h0v0h0v0h0v.07h0v0h0v0h0v0h0c0,.33,0,.6,0,.8a13.16,13.16,0,0,0,.27,2.26A2.69,2.69,0,0,0,59.07,58Zm3.43-.29c-.91,0-1.13-1.61-1.23-3.42-.05-1.13-.05-4-1.22-4.81a1.54,1.54,0,0,0-.74-.19l-.46,0L53,49.15h-.15c-.84-3.13-1.37-6,.1-9.55.23-.43.2-.2.21.1.1,3.24,1.43,4.59,2.3,7.11a10.27,10.27,0,0,1,3.49-4c.52-.4.41-.39.21.15-2.39,6.18,4.19,15,.76,15"/><path d="M32.83,67.71v-.22s0-.1,0-.15h0l-.76,0h-.85l-.39,0h-.36s0,.07,0,.11,0,.08,0,.13a2.46,2.46,0,0,1,0,.26v0h0l.34,0h.44c0,.25,0,.5,0,.74v.63c0,.34,0,.68,0,1s0,.53,0,.79v0h0l.25,0h.3l.28,0h0v0c0-.28,0-.55,0-.83,0-.47,0-.94,0-1.4v-.22c0-.15,0-.29,0-.44s0-.2,0-.3h.38l.39.05h0v0s0-.09,0-.14"/><path d="M54.24,54.45l-1,.28h0a.69.69,0,0,0-.18-.54,1,1,0,0,0-.58-.3,1,1,0,0,0-.76.1,1,1,0,0,0-.38.7c0,.15-.05.3-.07.45s0,.28-.06.42a2.45,2.45,0,0,1-.08.29v0h0l.79.11,1,.19.18,0,.88.19q.36.07.72.18h0l0-.24c0-.05,0-.1,0-.15s0-.1,0-.15l.06-.23v0h0l-.47-.06-.53-.1-.63-.12q.51-.17,1-.3a6.91,6.91,0,0,1,.76-.17h0a2.29,2.29,0,0,1,0-.25l0-.18c0-.06,0-.11,0-.17s0-.2.08-.29v0h0l-1,.32m-1.33,1h0l-.7-.13-.34-.07-.24-.06s0,0,0-.06a0,0,0,0,0,0,0,.61.61,0,0,1,.23-.41.74.74,0,0,1,.49,0,.79.79,0,0,1,.48.26.72.72,0,0,1,.07.54"/><path d="M52.71,57.17A2,2,0,0,0,51.3,57a1.56,1.56,0,0,0-.92.94,1.63,1.63,0,0,0,0,1.38,2.08,2.08,0,0,0,1.15,1,2,2,0,0,0,1.43.14,1.83,1.83,0,0,0,.94-2.33,2.16,2.16,0,0,0-1.17-1m.82,2.19a.69.69,0,0,1-.62.43,2.36,2.36,0,0,1-1.13-.22,2.33,2.33,0,0,1-.94-.66.71.71,0,0,1-.13-.75.73.73,0,0,1,.62-.43,2.36,2.36,0,0,1,1.14.23,2.21,2.21,0,0,1,.94.66.71.71,0,0,1,.12.74"/><path d="M51.74,61.79l-.71-.5-.17-.12L50,60.56c-.21-.16-.43-.33-.64-.51h0v0l-.13.23a.41.41,0,0,1-.07.11l-.1.12-.18.2v0h0c.25.15.49.31.73.47l.79.56.81.61.63.5v0l.15-.23a.24.24,0,0,1,.06-.09.76.76,0,0,1,.11-.14,1.63,1.63,0,0,1,.17-.2v0h0l-.62-.41"/><path d="M49.93,63.89l-1-1-.15-.16a3,3,0,0,1-.3-.32l-.21-.22h0l.29-.26.31-.24h0a.52.52,0,0,1-.11-.1l-.1-.09-.06-.07-.09-.11h0l-.53.55-.29.29-.32.3-.55.49h0l.08.07.09.09a1.63,1.63,0,0,1,.17.2l0,0v0l.25-.3a3.45,3.45,0,0,1,.26-.28l.53.52.44.45.7.75c.18.2.36.39.53.6h0a1.54,1.54,0,0,1,.17-.19l.11-.12.1-.09.22-.18h0l-.61-.57"/><path d="M47.78,65.71l-.88-.53a.72.72,0,0,0,.27-.5A1.06,1.06,0,0,0,47,64a1,1,0,0,0-.59-.49,1.09,1.09,0,0,0-.76.21c-.14.08-.26.17-.39.26l-.35.24-.26.14h0v0c.16.21.32.43.47.66s.37.57.55.86l.1.16c.16.25.32.51.47.77s.24.43.35.65h0a1.33,1.33,0,0,1,.19-.14l.12-.09.14-.08.21-.1h0l-.27-.4-.3-.45-.34-.54c.31.17.62.35.92.54a7.33,7.33,0,0,1,.64.45h0l.2-.15.15-.1a.65.65,0,0,1,.16-.09l.26-.15h0l-.89-.49M46.49,65a.71.71,0,0,1-.35.41h0l-.38-.61-.18-.29-.12-.22,0,0h0a.53.53,0,0,1,.45-.11.65.65,0,0,1,.36.33.72.72,0,0,1,.14.53"/><path d="M43.81,65.35a1.64,1.64,0,0,0-1.32,0,1.67,1.67,0,0,0-1,1,2.08,2.08,0,0,0,.09,1.51,2,2,0,0,0,.89,1.13,1.58,1.58,0,0,0,1.33,0,1.64,1.64,0,0,0,1-1,2.24,2.24,0,0,0-.1-1.53,2,2,0,0,0-.89-1.11M44.14,68a.71.71,0,0,1-1.19.47,2.33,2.33,0,0,1-.63-1,2.36,2.36,0,0,1-.18-1.14.7.7,0,0,1,1.19-.46,2.4,2.4,0,0,1,.63,1A2.32,2.32,0,0,1,44.14,68"/><path d="M40.64,68.06l0-.13a.9.9,0,0,1,0-.16s0-.06,0-.09h0l-.52.14-.39.1-.06-.26-.09-.45a2.87,2.87,0,0,1-.05-.31h0l.09,0,.17,0a3.43,3.43,0,0,1,.34-.06l.34,0h0v0l0-.13,0-.09a.43.43,0,0,0,0-.11.59.59,0,0,0,0-.13v0h0l-.54.13-.36.08-.25,0-.6.11h0v0c.07.21.13.42.18.64s.15.61.21.92l.13.58c.05.27.11.55.16.82s.06.41.08.61v0h0l.22,0,.17-.05.18,0,.24,0h0v0c0-.11-.07-.22-.1-.33l-.09-.38-.2-1,.43-.08.5-.07h0l0-.11"/><path d="M35.57,68.94c-.25-.61-.49-1.23-.72-1.85h-.07a.86.86,0,0,1-.17,0h-.24c-.12.64-.26,1.27-.41,1.9s-.31,1.28-.48,1.92v0h0l.13,0,.11,0H34v0c.06-.34.13-.67.18-1l.28,0,.18,0,.27,0h.2l.18.51c0,.16.11.32.17.48h0l.23,0,.21,0h.44v0l-.75-1.76m-.65.41-.33,0-.3,0h0c0-.18.07-.36.11-.54s.09-.38.13-.56c.08.17.16.34.23.52s.14.34.2.52Z"/><path d="M29,67.34h-.29l-.26,0h0v0c0,.29,0,.58,0,.87s0,.64,0,1,0,.67-.05,1,0,.54-.07.81h.58l.26,0h0c0-.25,0-.5,0-.75s0-.58,0-.87v-.21c0-.34,0-.68,0-1l.06-.82v0h0l-.27,0"/><path d="M27.08,67.18H27l-.09,0-.13,0h0v0c0,.21,0,.41,0,.62s-.05.5-.07.74l-.1,1h0q-.37-.6-.72-1.2c-.24-.43-.47-.86-.68-1.3H24.7l-.17,0h0c0,.34-.05.67-.08,1s-.05.54-.07.82l-.12,1-.12.82h.23l.1,0,.13,0h0c0-.18,0-.36,0-.55s0-.26,0-.4l.15-1.42c.25.41.5.82.74,1.25s.47.86.69,1.3h.28l.1,0,.16,0h0v0l0-.48c0-.21,0-.43.06-.65l0-.25c.06-.49.11-1,.17-1.47,0-.26.08-.52.13-.78v0h-.15"/><path d="M23.57,66.73h-.09l-.09,0-.15,0h0c0,.1-.09.21-.14.31s-.09.18-.14.28L22,68.91,21.87,67c0-.1,0-.2,0-.3s0-.24,0-.36v0h0l-.28,0-.12,0-.17,0L21,66.16h0l.29,2.89a.13.13,0,0,1,0,.06c0,.29.05.59.06.88v0h.26l.1,0,.13,0h0v0c.07-.15.14-.3.22-.45l.21-.39,1-1.69c.08-.12.15-.25.23-.38s.18-.28.28-.42v0h0l-.17,0"/><path d="M18.6,65.19a1.76,1.76,0,0,0-.37-.23,1.2,1.2,0,0,0-.89-.06,1.18,1.18,0,0,0-.63.65,1.06,1.06,0,0,0-.09.61,2,2,0,0,0,.4.76,1.68,1.68,0,0,1,.29.5.39.39,0,0,1,0,.3A.47.47,0,0,1,17,68a.51.51,0,0,1-.4,0,.61.61,0,0,1-.33-.32,1.06,1.06,0,0,1,0-.56h0l-.09,0h0c-.09.15-.19.29-.28.43l-.2.32h0a1.44,1.44,0,0,0,.28.27,2.6,2.6,0,0,0,.36.21,1.31,1.31,0,0,0,1,.08,1.2,1.2,0,0,0,.68-.68,1.17,1.17,0,0,0,.11-.61,2.08,2.08,0,0,0-.38-.74l-.09-.13c-.13-.17-.35-.49-.25-.72a.47.47,0,0,1,.26-.24.48.48,0,0,1,.37,0,.51.51,0,0,1,.27.27,1.16,1.16,0,0,1,.05.49h0l.07,0h0l.21-.29.23-.28h0a1.63,1.63,0,0,0-.27-.31"/><path d="M16.43,64.62l.42-.29,0,0h0l-.15-.08-.09,0-.07,0L16.41,64h0c-.08.08-.15.16-.24.24l-.23.2-1.46,1.21L15,63.85l.09-.28c.05-.12.09-.23.14-.34v0h0L15,63.07,14.88,63l-.15-.11a1.84,1.84,0,0,1-.22-.17l0,0-.81,2.8s0,0,0,0c-.09.29-.18.57-.28.85h0l.13.06.09.05.08.06.1.1h0l.37-.34.35-.28,1.54-1.2.35-.26"/><path d="M13.5,62.33a3.47,3.47,0,0,1,.25.29,3.24,3.24,0,0,1,.24.31v0l0,0,.09-.1.1-.1.06-.06.11-.09h0L13.83,62l-.29-.29-.3-.32c-.16-.18-.32-.37-.49-.55h0l-.07.07-.09.1-.19.17,0,0,0,0,.31.25.28.26-.53.53-.44.43c-.25.24-.5.48-.76.71s-.39.35-.59.52l0,0h0l.19.16.11.12.1.1.18.21v0q.27-.3.57-.6c.32-.33.66-.66,1-1l.15-.16.32-.3Z"/><path d="M10.64,60.93a.66.66,0,0,0,.49.27,1.06,1.06,0,0,0,.64-.16,1,1,0,0,0,.5-.59,1.13,1.13,0,0,0-.19-.77c-.08-.13-.17-.25-.26-.38s-.16-.24-.23-.36a2.15,2.15,0,0,1-.14-.26v0h0l-.66.45-.88.55-.16.09q-.37.24-.78.45l-.65.35h0v0l.14.19.08.13a.61.61,0,0,1,.07.14,1.39,1.39,0,0,1,.11.21h0c.13-.09.26-.18.4-.26l.45-.29.55-.33c-.18.31-.36.61-.56.91s-.29.43-.45.63h0a2.43,2.43,0,0,1,.14.2.86.86,0,0,1,.1.16l.09.15.14.27v0c.16-.3.33-.59.5-.88s.37-.59.56-.87Zm-.24-.77h0l.62-.37.29-.17.22-.12,0,0,0,0a.61.61,0,0,1,.1.45.7.7,0,0,1-.34.36.72.72,0,0,1-.53.13.72.72,0,0,1-.41-.36"/><path d="M9.16,58.49l.2-.07,1-.36.77-.25h0v0L11,57.55a.61.61,0,0,1-.05-.12.88.88,0,0,1-.05-.15c0-.09,0-.18-.07-.26v0h0l-.79.34-.9.36-1,.36-.76.25h0v0a1.89,1.89,0,0,1,.11.25.93.93,0,0,1,0,.1,1,1,0,0,1,.05.16,2.58,2.58,0,0,1,.08.26h0c.23-.11.45-.21.68-.3l.81-.33"/><path d="M9.69,56.38l.43.06.5.09h0v0l-.06-.16a.44.44,0,0,0,0-.1.28.28,0,0,1,0-.09.81.81,0,0,1,0-.16h-.35l-.31,0L8,55.79l1.66-.9.27-.13.33-.15h0v0c0-.09,0-.18-.07-.27l0-.11,0-.18,0-.28v0l-2.55,1.4,0,0c-.26.14-.52.28-.79.4h0l0,.14a.29.29,0,0,1,0,.09.41.41,0,0,1,0,.11.61.61,0,0,1,0,.14h0l.5,0,.44,0Z"/><path d="M44.67,8.11a3.34,3.34,0,0,0,.08,3.31,1.15,1.15,0,0,0,0-.19,10.81,10.81,0,0,1,.13-1.61c.24-.87,1-1.12,1.61-1.82.28-.3.48-.61.74-.92l.23-.33a2.89,2.89,0,0,0,.28-.8c-.63,1.1-2.31,1.32-3.06,2.36m2.47-1.46h0l-.08.1c-.25.3-.46.63-.73.92-.6.67-1.4,1-1.66,1.9a5.84,5.84,0,0,0-.1.84v0a2.75,2.75,0,0,1,.26-2.21c.52-.73,1.53-1,2.31-1.58"/><path d="M32.48,8.11a3.31,3.31,0,0,0,.09,3.31,1.28,1.28,0,0,1,0-.19,9.62,9.62,0,0,1,.12-1.61c.24-.87,1-1.12,1.62-1.82.27-.3.48-.61.73-.92a2.54,2.54,0,0,0,.23-.34,2.71,2.71,0,0,0,.29-.79c-.63,1.1-2.32,1.32-3.07,2.36M35,6.65h0l-.07.1c-.25.3-.47.63-.73.92-.6.67-1.4,1-1.66,1.9a3.94,3.94,0,0,0-.1.84v0a2.79,2.79,0,0,1,.25-2.21c.53-.73,1.54-1,2.31-1.58"/><path d="M20.08,8.11a3.31,3.31,0,0,0,.09,3.31,1.28,1.28,0,0,1,0-.19,9.62,9.62,0,0,1,.12-1.61c.24-.87,1-1.12,1.62-1.82.27-.3.48-.61.73-.92a1.85,1.85,0,0,0,.23-.34,2.71,2.71,0,0,0,.29-.79c-.63,1.1-2.32,1.32-3.07,2.36m2.47-1.46h0l-.07.1c-.25.3-.47.63-.73.92-.6.67-1.4,1-1.66,1.9a3.94,3.94,0,0,0-.1.84v0a2.75,2.75,0,0,1,.26-2.21c.52-.73,1.53-1,2.3-1.58"/><path d="M15.61,32.62a4.59,4.59,0,0,0,.81.29c.32.1.65.18,1,.25l.41.09-.95.09c-.25,0-.5,0-.75.08h-.05a.27.27,0,0,0-.23.24.26.26,0,0,0,.2.26l.05,0a4,4,0,0,0,.77.13,8.87,8.87,0,0,0,.89.06h.11l-.55.16c-.2.06-.4.12-.6.2h-.05a.27.27,0,0,0-.18.26.26.26,0,0,0,.2.24h.06a2.94,2.94,0,0,0,.78,0c.32,0,.63-.06.94-.11h.07L18,35.2c-.15.09-.32.19-.46.29s-.19.17-.14.32a.27.27,0,0,0,.24.18h.05a4.23,4.23,0,0,0,1.4-.3l.41-.14-.45.41c-.1.09-.23.2-.32.3a.29.29,0,0,0-.07.32.25.25,0,0,0,.23.14H19a3.23,3.23,0,0,0,1.46-.67l-.33.62h0l0,.05a.28.28,0,0,0,.06.29.29.29,0,0,0,.35,0,3.9,3.9,0,0,0,2-3,1.21,1.21,0,0,1,.08-.28L24.7,36.4c.07.08.12.16.26.15a.26.26,0,0,0,.23-.16.24.24,0,0,1,.14-.12.3.3,0,0,0,.2-.18.29.29,0,0,0-.1-.3L23.1,33.23l.29,0a3.68,3.68,0,0,0,3.32-1.49.27.27,0,0,0,0-.33.26.26,0,0,0-.27-.11h-.06l-.69.26a3.4,3.4,0,0,0,.9-1.36.07.07,0,0,1,0-.05.3.3,0,0,0-.11-.25.3.3,0,0,0-.33,0,4.11,4.11,0,0,0-.35.27l-.47.38.21-.38a4.44,4.44,0,0,0,.5-1.34.43.43,0,0,1,0,0,.29.29,0,0,0-.15-.27.28.28,0,0,0-.33.1,4.71,4.71,0,0,0-.35.41l-.33.42,0-.06c.09-.3.18-.6.25-.91a2.81,2.81,0,0,0,.08-.76v-.05a.25.25,0,0,0-.18-.26c-.16-.06-.26,0-.33.16s-.19.38-.28.57-.17.35-.25.53a.41.41,0,0,0,0-.11c0-.3.07-.59.09-.89a5,5,0,0,0,0-.78v-.05a.26.26,0,0,0-.22-.24.24.24,0,0,0-.27.17.14.14,0,0,0,0,.06c-.08.24-.14.49-.2.73l-.24.9c0-.13,0-.27,0-.4,0-.33-.05-.66-.09-1a6,6,0,0,0-.17-.84.43.43,0,0,1,0-.05A.26.26,0,0,0,22.8,26a.24.24,0,0,0-.23.23s0,0,0,.06c0,.26,0,.53-.06.8s0,.53-.05.79h0c-.07-.35-.14-.7-.23-1A6.11,6.11,0,0,0,22,26c-.05-.13-.1-.26-.3-.22a.25.25,0,0,0-.21.25v.06c0,.29,0,.58,0,.86s.05.51.07.77c-.1-.3-.21-.6-.32-.9a9.28,9.28,0,0,0-.37-.86c-.06-.12-.13-.25-.33-.2a.25.25,0,0,0-.18.24v.11c0,.3.1.61.16.91s.11.49.16.74c-.13-.26-.26-.52-.4-.77a8.61,8.61,0,0,0-.49-.83c-.08-.12-.15-.26-.35-.19a.25.25,0,0,0-.17.24v.06s0,.05,0,.07a7.64,7.64,0,0,0,.28.93c.07.23.16.45.24.68-.15-.22-.3-.44-.46-.65a7.86,7.86,0,0,0-.62-.78c-.1-.1-.21-.21-.38-.1a.25.25,0,0,0-.12.21.56.56,0,0,0,0,.07.06.06,0,0,1,0,0l0,.06a7.91,7.91,0,0,0,.41.89l.43.8c-.2-.22-.41-.43-.62-.64s-.51-.48-.77-.69l-.06,0a.26.26,0,0,0-.34,0,.26.26,0,0,0,0,.32l0,.07a7.24,7.24,0,0,0,.57.87q.28.39.57.75l-.77-.58a7.54,7.54,0,0,0-.83-.56l-.05,0h0l-.06,0a.24.24,0,0,0-.23.08.25.25,0,0,0,0,.37,7.85,7.85,0,0,0,.67.74l.59.57-.63-.35c-.29-.14-.58-.29-.88-.41l-.05,0s0,0,0,0a.27.27,0,0,0-.29.1c-.11.16,0,.28.08.38s.5.42.75.62.48.36.73.53l-.71-.27a8.87,8.87,0,0,0-.87-.29.29.29,0,0,0-.24,0,.24.24,0,0,0-.13.12c-.09.17,0,.28.14.36a7,7,0,0,0,.79.49c.28.16.56.32.85.47l-.76-.19c-.28-.07-.56-.13-.85-.18h0a.25.25,0,0,0-.28.18c-.06.19.05.26.17.32a5.54,5.54,0,0,0,.81.4l1,.38h0l-.81-.08-.8-.06h-.05a.24.24,0,0,0-.26.2.26.26,0,0,0,.16.29h0M25.25,36c.06.06.05,0,0,.07a.55.55,0,0,0-.28.24s0,0-.08,0l-2.27-2.82h0c-.11-.13.06-.27.18-.14Zm-9.54-3.59c.74,0,2.42.23,3.34.28.05,0,.07,0,0-.07a23.25,23.25,0,0,1-3.41-1.32c-.06,0-.1-.05,0,0,.81.14,2.55.62,3.5.85.06,0,.06,0,0-.06a35.36,35.36,0,0,1-3.37-1.83s-.06-.05,0-.05l.07,0a28.58,28.58,0,0,1,3.51,1.41c.05,0,.05,0,0-.05-.88-.64-2.51-1.74-3.19-2.38-.08-.07,0-.05,0,0A26.62,26.62,0,0,1,19.58,31c.05,0,.06,0,0,0-.82-.78-2.3-2.08-2.89-2.81-.05-.07-.05-.07,0,0A31.21,31.21,0,0,1,20,30.64s.05,0,0,0a30,30,0,0,1-2.45-3.25c-.06-.11-.06-.1,0,0a28.61,28.61,0,0,1,2.85,2.92s0,0,0,0a32,32,0,0,1-1.94-3.54c0-.1,0-.1,0,0,.63.69,1.7,2.38,2.34,3.3,0,0,0,0,0,0a25.35,25.35,0,0,1-1.4-3.68c0-.14,0-.08,0,0,.51.75,1.34,2.51,1.84,3.48,0,0,0,0,0,0A33.86,33.86,0,0,1,20.61,26c0-.11,0-.09,0,0A34.94,34.94,0,0,1,22,29.63s0,0,.06,0c-.09-1-.3-2.77-.31-3.58,0-.1,0-.07,0,0a23.93,23.93,0,0,1,.78,3.57s0,0,.07,0c.09-.92.16-2.6.23-3.33,0-.1,0-.08,0,0a17.68,17.68,0,0,1,.33,3.44s0,.05.08,0c.29-.88.62-2.37.79-2.88,0-.09,0-.07,0,0A15.12,15.12,0,0,1,23.79,30s0,.05.06,0c.32-.62.87-1.92,1.14-2.39.05-.1,0-.05,0,0a10.75,10.75,0,0,1-.72,2.79s0,.06.05.06c.39-.45,1.12-1.48,1.43-1.79.05-.05.05-.06,0,0a8.21,8.21,0,0,1-1.11,2.36c0,.07,0,.1,0,.1a14.08,14.08,0,0,0,1.57-1.15c.06,0,.05,0,0,0,0,.43-1,1.38-1.45,1.87q-.06.07,0,.09l1.55-.59c.08,0,.08,0,0,.05A3.43,3.43,0,0,1,23.41,33h0a4.66,4.66,0,0,0,1.26-.58c.08-.07,0-.16-.08-.1a4.58,4.58,0,0,1-1.25.57,4.81,4.81,0,0,0,1.18-1.2c.05-.09-.06-.15-.11-.07a4.68,4.68,0,0,1-1.26,1.25,5.38,5.38,0,0,0,1-1.74c0-.1-.09-.14-.12,0a5.41,5.41,0,0,1-1,1.73,7.08,7.08,0,0,0,.71-2.09c0-.1-.11-.12-.12,0a7.11,7.11,0,0,1-.7,2.05,7.1,7.1,0,0,0,.31-2.3.06.06,0,1,0-.12,0,7.19,7.19,0,0,1-.3,2.21,7.81,7.81,0,0,0-.13-2.31.07.07,0,1,0-.13,0,7.6,7.6,0,0,1,.14,2.23,8.85,8.85,0,0,0-.48-2.26c0-.1-.15-.06-.12,0a8.61,8.61,0,0,1,.47,2.23,11.8,11.8,0,0,0-.79-2.2c0-.1-.15,0-.11.05a12.56,12.56,0,0,1,.79,2.2,16.79,16.79,0,0,0-1.12-2.09c-.06-.08-.16,0-.11.07a15.9,15.9,0,0,1,1.11,2.07c-.45-.65-.93-1.29-1.42-1.92-.06-.08-.16,0-.1.08.5.64,1,1.25,1.42,1.92-.59-.56-1.13-1.1-1.69-1.69-.06-.07-.15,0-.09.09.55.57,1.1,1.14,1.68,1.69a15,15,0,0,1-1.87-1.41c-.08-.07-.16,0-.09.09A15.9,15.9,0,0,0,22.05,33,11.72,11.72,0,0,1,20,31.85c-.09-.05-.15,0-.07.11A12.76,12.76,0,0,0,22,33.08a9.34,9.34,0,0,1-2.13-.81c-.09-.05-.14.06-.06.11A9.05,9.05,0,0,0,22,33.2a7.88,7.88,0,0,1-2.19-.48.06.06,0,1,0,0,.12,8,8,0,0,0,2.26.49,7.25,7.25,0,0,1-2.23,0c-.1,0-.12.11,0,.12a7,7,0,0,0,2.32,0,6.89,6.89,0,0,1-2.14.38.07.07,0,1,0,0,.13,7,7,0,0,0,2.17-.39,5.25,5.25,0,0,1-1.87.75c-.1,0-.07.14,0,.12a5.53,5.53,0,0,0,1.89-.74,4.57,4.57,0,0,1-1.43,1,.07.07,0,1,0,.05.12,4.71,4.71,0,0,0,1.37-1A4.51,4.51,0,0,1,21.36,35c-.07.07,0,.16.09.1A4.65,4.65,0,0,0,22.22,34v0h0a3.64,3.64,0,0,1-1.84,2.85c-.07,0-.06,0,0,0l.79-1.44s0,0-.06,0A6.53,6.53,0,0,1,19,36.48c-.07,0-.08,0,0,0a14.76,14.76,0,0,0,1.38-1.38s0-.07-.09,0a8.65,8.65,0,0,1-2.5.74c-.09,0-.09,0,0-.05.35-.25,1.48-.82,2-1.14,0,0,0,0-.05,0h0a11.24,11.24,0,0,1-2.88.28c-.1,0-.09,0,0-.05.51-.19,1.87-.54,2.53-.76,0,0,0,0,0-.07a14.9,14.9,0,0,1-3.14-.19c-.09,0-.09,0,0,0,.41-.07,1.48-.14,2.35-.24l.6-.09s.08-.06,0-.09a18.67,18.67,0,0,1-3.37-.85c-.06,0-.09,0,0,0"/><path d="M27.24,37.19l0,.06a7.91,7.91,0,0,0,.41.89l.43.8c-.2-.22-.41-.43-.63-.64a7.16,7.16,0,0,0-.77-.69l-.05,0a.27.27,0,0,0-.34,0,.26.26,0,0,0-.05.33l0,.07a7.24,7.24,0,0,0,.57.87l.56.75c-.25-.2-.5-.4-.76-.58a6.81,6.81,0,0,0-.84-.56l0,0,0,0h-.05a.26.26,0,0,0-.24.08.26.26,0,0,0,0,.37,7.85,7.85,0,0,0,.67.74l.59.57-.63-.35a7.77,7.77,0,0,0-.88-.41l-.05,0,0,0a.24.24,0,0,0-.28.1c-.11.16,0,.28.08.37s.5.43.75.63.48.36.73.53l-.71-.27a6.83,6.83,0,0,0-.87-.29.29.29,0,0,0-.24,0,.24.24,0,0,0-.13.12c-.09.17,0,.27.13.36a8.15,8.15,0,0,0,.8.49c.27.16.56.31.84.46l-.75-.18c-.28-.07-.57-.13-.85-.18h-.05a.26.26,0,0,0-.29.18c0,.18.06.25.17.32a6.16,6.16,0,0,0,.82.39c.33.14.66.27,1,.39h0l-.81-.07q-.4,0-.81-.06h-.05a.23.23,0,0,0-.25.2.23.23,0,0,0,.15.28l0,0a5.17,5.17,0,0,0,.81.29c.32.1.64.18,1,.25l.41.09-.95.08-.75.09H25a.27.27,0,0,0-.22.24.25.25,0,0,0,.19.26l.06,0a4,4,0,0,0,.77.13c.29,0,.59,0,.89.06h.11l-.55.16-.6.19-.05,0a.25.25,0,0,0-.18.26.26.26,0,0,0,.2.24h.06a2.92,2.92,0,0,0,.78,0c.32,0,.63-.06.94-.11h.07l-.47.26a4.43,4.43,0,0,0-.46.29.27.27,0,0,0-.14.32.24.24,0,0,0,.24.17h0a4.23,4.23,0,0,0,1.4-.3,3.39,3.39,0,0,0,.41-.15l-.45.42c-.1.09-.23.2-.32.3a.27.27,0,0,0-.07.32.25.25,0,0,0,.23.14h0a3.34,3.34,0,0,0,1.46-.67l-.34.61v0l0,0a.24.24,0,0,0,.06.28.27.27,0,0,0,.35,0,3.94,3.94,0,0,0,2-3,1.21,1.21,0,0,1,.08-.28l2.16,2.67c.07.09.12.17.26.16a.26.26,0,0,0,.23-.16.24.24,0,0,1,.14-.12.3.3,0,0,0,.2-.18.29.29,0,0,0-.1-.3l-2.33-2.56a1,1,0,0,1,.29,0A3.68,3.68,0,0,0,35.7,42.2a.27.27,0,0,0,0-.33.26.26,0,0,0-.27-.11h-.07l-.68.26a3.49,3.49,0,0,0,.9-1.37v0a.25.25,0,0,0-.11-.25.29.29,0,0,0-.32,0,4.11,4.11,0,0,0-.35.27l-.47.38.21-.39a4.29,4.29,0,0,0,.5-1.33.13.13,0,0,1,0-.06.26.26,0,0,0-.48-.17c-.12.13-.24.28-.35.42l-.33.41,0-.05a9.36,9.36,0,0,0,.24-.91,2.5,2.5,0,0,0,.09-.77v0a.27.27,0,0,0-.18-.26c-.16-.05-.26,0-.33.17s-.19.38-.28.57-.17.35-.25.53c0,0,0-.07,0-.11q.06-.45.09-.9a5,5,0,0,0,0-.77.07.07,0,0,0,0,0,.26.26,0,0,0-.22-.24.24.24,0,0,0-.27.17.14.14,0,0,0,0,.06c-.08.23-.14.48-.21.72s-.15.61-.23.91c0-.13,0-.27,0-.4,0-.33,0-.66-.09-1a6,6,0,0,0-.17-.84v0a.26.26,0,0,0-.27-.2.26.26,0,0,0-.23.24.11.11,0,0,0,0,0c0,.27,0,.54-.06.8s0,.53,0,.8h0c-.07-.35-.14-.7-.23-1a6.11,6.11,0,0,0-.26-.86c-.05-.13-.11-.26-.3-.23a.25.25,0,0,0-.21.26s0,0,0,.06c0,.28,0,.58,0,.86s.05.51.07.76c-.1-.3-.21-.6-.32-.89a9.28,9.28,0,0,0-.37-.86c-.06-.12-.13-.25-.33-.2a.25.25,0,0,0-.18.24v.11c0,.3.1.61.16.91s.11.49.16.73c-.13-.25-.26-.51-.4-.76s-.31-.57-.49-.84-.15-.25-.36-.18a.25.25,0,0,0-.16.24v.05s0,.06,0,.08c.07.31.17.63.27.93s.16.45.25.68c-.15-.22-.3-.44-.46-.65a7.86,7.86,0,0,0-.62-.78c-.1-.11-.21-.21-.38-.11a.27.27,0,0,0-.12.22.22.22,0,0,0,0,.06.11.11,0,0,1,0,0m7,9.26c0,.06,0,0,0,.07a.52.52,0,0,0-.27.24c0,.05,0,0-.08,0L31.6,43.9c-.1-.13.07-.27.19-.14Zm-6.71-9.31c.64.69,1.71,2.38,2.35,3.3,0,0,0,0,0,0a25.35,25.35,0,0,1-1.4-3.68c0-.14,0-.08.05,0,.51.76,1.34,2.52,1.84,3.49,0,0,0,0,.05,0a29.22,29.22,0,0,1-.86-3.68c0-.11,0-.09,0,0a34.12,34.12,0,0,1,1.29,3.59s.05,0,.07,0c-.09-1-.3-2.76-.31-3.58,0-.1,0-.07,0,0a25.25,25.25,0,0,1,.78,3.57s0,0,.07,0c.09-.91.16-2.59.23-3.32,0-.1,0-.08,0,0a17.78,17.78,0,0,1,.33,3.45s0,0,.08,0c.29-.87.62-2.36.79-2.87,0-.09,0-.07,0,0a15.12,15.12,0,0,1-.28,3.13s0,0,.06,0c.32-.62.87-1.92,1.14-2.39.05-.1,0,0,0,0A10.58,10.58,0,0,1,33.3,41s0,.07.05.06c.39-.44,1.12-1.47,1.43-1.78,0-.05,0-.06,0,0a8.21,8.21,0,0,1-1.11,2.36c0,.06,0,.1,0,.1a15.09,15.09,0,0,0,1.57-1.15c.06,0,0,0,0,0,0,.42-1,1.38-1.45,1.86q-.06.07,0,.09L35.46,42c.08,0,.07,0,0,.05a3.46,3.46,0,0,1-3.1,1.38h0a4.66,4.66,0,0,0,1.26-.58c.08-.07,0-.16-.08-.1a4.58,4.58,0,0,1-1.25.57,4.6,4.6,0,0,0,1.17-1.2c.05-.09,0-.15-.1-.07a4.68,4.68,0,0,1-1.26,1.25,5.32,5.32,0,0,0,1-1.75.06.06,0,1,0-.12,0,5.21,5.21,0,0,1-1,1.73,7,7,0,0,0,.71-2.08c0-.1-.11-.12-.13,0a6.64,6.64,0,0,1-.7,2.05,6.88,6.88,0,0,0,.32-2.3c0-.1-.13-.09-.12,0a7.19,7.19,0,0,1-.3,2.21,7.79,7.79,0,0,0-.13-2.31.07.07,0,1,0-.13,0,7.58,7.58,0,0,1,.14,2.23,8.85,8.85,0,0,0-.48-2.26c0-.1-.15-.06-.12,0a8.61,8.61,0,0,1,.47,2.23,13,13,0,0,0-.79-2.21c0-.09-.15,0-.11.06a12.56,12.56,0,0,1,.79,2.2A16.79,16.79,0,0,0,30.31,41c-.06-.08-.16,0-.11.07a14.7,14.7,0,0,1,1.11,2.07c-.45-.65-.93-1.29-1.42-1.92-.06-.08-.16,0-.1.08.5.64,1,1.25,1.42,1.92-.59-.56-1.13-1.1-1.69-1.69-.06-.07-.16,0-.09.08.55.58,1.1,1.15,1.68,1.7a16.06,16.06,0,0,1-1.87-1.41c-.08-.07-.16,0-.09.09A14.43,14.43,0,0,0,31,43.46,13.2,13.2,0,0,1,29,42.34c-.09-.05-.16,0-.07.11a12,12,0,0,0,2,1.11,8.87,8.87,0,0,1-2.13-.8c-.09,0-.15.06-.06.11a9.5,9.5,0,0,0,2.17.82,7.88,7.88,0,0,1-2.19-.48.06.06,0,1,0,0,.12,7.67,7.67,0,0,0,2.26.48,7,7,0,0,1-2.23,0c-.1,0-.12.1,0,.12a7,7,0,0,0,2.33,0,7.2,7.2,0,0,1-2.14.38c-.1,0-.1.13,0,.12a6.79,6.79,0,0,0,2.17-.38,5.53,5.53,0,0,1-1.87.75.06.06,0,1,0,0,.12,5.35,5.35,0,0,0,1.89-.75,4.6,4.6,0,0,1-1.43,1c-.09,0-.05.15,0,.12a4.71,4.71,0,0,0,1.37-1,4.51,4.51,0,0,1-.76,1.15c-.07.07,0,.16.09.09a4.16,4.16,0,0,0,.76-1.16v0h0a3.66,3.66,0,0,1-1.84,2.85c-.08,0-.06,0,0,0l.8-1.44s0,0-.06,0A6.53,6.53,0,0,1,28,47c-.07,0-.08,0,0-.06a13.44,13.44,0,0,0,1.37-1.37s0-.07-.08,0a8.71,8.71,0,0,1-2.51.74c-.08,0-.08,0,0,0,.34-.25,1.48-.82,2-1.14,0,0,0,0-.05,0h0a10.89,10.89,0,0,1-2.88.29c-.1,0-.09,0,0-.05.51-.19,1.87-.54,2.53-.76,0,0,0-.05,0-.07a15.6,15.6,0,0,1-3.14-.19c-.09,0-.09,0,0,0,.42-.07,1.49-.14,2.36-.25l.6-.08c.05,0,.07-.06,0-.09a18.79,18.79,0,0,1-3.36-.86c-.06,0-.09,0,0,0,.74,0,2.42.23,3.34.28,0,0,.07,0,0-.07a25.06,25.06,0,0,1-3.42-1.32c-.06,0-.09,0,0,0,.81.13,2.55.61,3.5.85.06,0,.06,0,0-.06a35.38,35.38,0,0,1-3.37-1.84l-.05,0,.07,0a30.12,30.12,0,0,1,3.51,1.4c.05,0,.05,0,0,0-.88-.65-2.51-1.74-3.19-2.38-.08-.07-.05-.05,0,0a26.62,26.62,0,0,1,3.4,1.92s.06,0,0,0c-.82-.78-2.31-2.08-2.89-2.81-.05-.07-.05-.07,0,0a31.37,31.37,0,0,1,3.22,2.48s0,0,0,0a31,31,0,0,1-2.45-3.25c-.06-.11-.07-.11,0,0a28.4,28.4,0,0,1,2.84,2.91s0,0,0,0a32,32,0,0,1-1.94-3.54c0-.11,0-.11,0,0"/><path d="M36.23,47.67l0,.07a7.91,7.91,0,0,0,.41.89l.43.8c-.2-.22-.41-.43-.63-.64a7.16,7.16,0,0,0-.77-.69l-.06-.05a.26.26,0,0,0-.33,0,.26.26,0,0,0-.05.33l0,.07a8.13,8.13,0,0,0,.57.87l.56.75c-.25-.2-.5-.4-.76-.59s-.55-.39-.84-.56l0,0,0,0h-.06a.22.22,0,0,0-.23.08c-.12.14-.05.26,0,.37s.45.5.68.74l.59.57c-.21-.12-.42-.24-.64-.35a6.9,6.9,0,0,0-.87-.41l0,0h0a.26.26,0,0,0-.29.1c-.11.15,0,.28.09.37a8.81,8.81,0,0,0,.75.62l.72.54-.7-.28c-.29-.1-.58-.21-.88-.29a.36.36,0,0,0-.23,0,.29.29,0,0,0-.13.12c-.09.18,0,.28.13.36a7.45,7.45,0,0,0,.79.5l.85.46-.75-.18c-.28-.07-.57-.13-.85-.18H33.6a.26.26,0,0,0-.28.18c0,.18.06.25.17.32a6.16,6.16,0,0,0,.82.39c.32.14.66.27,1,.39h0l-.81-.07-.81-.06h-.05a.27.27,0,0,0-.26.21.26.26,0,0,0,.16.28l0,0a5.17,5.17,0,0,0,.81.29l1,.25.4.08c-.31,0-.63.06-.94.09s-.51,0-.75.09H34a.26.26,0,0,0,0,.5l.06,0a3.87,3.87,0,0,0,.77.13c.29,0,.59,0,.89.06h.11l-.55.16-.6.19-.05,0a.25.25,0,0,0-.18.26.26.26,0,0,0,.2.24h.06a2.9,2.9,0,0,0,.78,0c.31,0,.63-.05.94-.1h.06l-.46.26a4.43,4.43,0,0,0-.46.29.25.25,0,0,0-.14.31.25.25,0,0,0,.24.18h.05a4.28,4.28,0,0,0,1.4-.3l.41-.15-.45.41c-.1.1-.23.2-.32.31a.26.26,0,0,0,.16.46h0A3.17,3.17,0,0,0,38.42,57l-.34.61v0l0,0a.25.25,0,0,0,.06.28.27.27,0,0,0,.35,0,3.94,3.94,0,0,0,2-3,1.09,1.09,0,0,1,.08-.28l2.16,2.67c.07.09.12.16.25.16a.28.28,0,0,0,.24-.16.29.29,0,0,1,.14-.13c.09,0,.16-.06.19-.17a.26.26,0,0,0-.09-.3l-2.33-2.56a.76.76,0,0,1,.29,0,3.69,3.69,0,0,0,3.32-1.49.27.27,0,0,0,0-.33.28.28,0,0,0-.27-.12h-.07l-.68.26a3.49,3.49,0,0,0,.9-1.37v0a.24.24,0,0,0-.11-.24.26.26,0,0,0-.32,0,3,3,0,0,0-.35.27l-.47.38.21-.39a4.25,4.25,0,0,0,.5-1.34.11.11,0,0,1,0,0,.28.28,0,0,0-.15-.26.27.27,0,0,0-.33.09,4.58,4.58,0,0,0-.35.42l-.33.41,0,0a9.36,9.36,0,0,0,.24-.91,2.5,2.5,0,0,0,.09-.77v0a.27.27,0,0,0-.18-.26c-.16,0-.26.05-.33.17s-.19.38-.28.57-.17.35-.25.53c0,0,0-.08,0-.11q.06-.45.09-.9a5,5,0,0,0,0-.77.43.43,0,0,0,0,0,.26.26,0,0,0-.22-.24.24.24,0,0,0-.27.17.14.14,0,0,0,0,.06c-.08.23-.14.48-.21.72s-.15.61-.23.91c0-.14,0-.27,0-.4q0-.49-.09-1a6.11,6.11,0,0,0-.17-.83s0,0,0-.05a.26.26,0,0,0-.27-.2.25.25,0,0,0-.23.24.07.07,0,0,0,0,0c0,.27,0,.54-.06.8s0,.53,0,.8h0c-.07-.35-.14-.7-.23-1.05a7,7,0,0,0-.26-.86c0-.12-.11-.25-.3-.22a.26.26,0,0,0-.22.26V47c0,.28,0,.57,0,.86s.05.51.07.76c-.1-.3-.21-.6-.32-.89a8.25,8.25,0,0,0-.37-.86c-.06-.12-.14-.25-.33-.2a.27.27,0,0,0-.19.24s0,0,0,0v.07c0,.3.1.61.16.91s.1.49.16.73l-.4-.77c-.15-.28-.32-.56-.49-.83s-.15-.26-.36-.18a.23.23,0,0,0-.16.24v.05a.24.24,0,0,0,0,.08c.07.31.17.63.27.93s.16.45.25.67l-.46-.65c-.2-.26-.4-.53-.62-.77s-.21-.21-.38-.11a.27.27,0,0,0-.12.22.35.35,0,0,0,0,.06s0,0,0,0m7,9.27c.06.06.06.05,0,.07a.48.48,0,0,0-.27.24s0,0-.08,0l-2.28-2.82h0c-.1-.13.07-.27.19-.14Zm-6.7-9.31c.64.69,1.71,2.38,2.35,3.3,0,0,0,0,0,0a25.45,25.45,0,0,1-1.4-3.69c0-.14,0-.07.05,0,.51.76,1.34,2.52,1.84,3.49,0,0,0,0,.05,0A29.63,29.63,0,0,1,38.59,47c0-.11,0-.1,0,0a36.53,36.53,0,0,1,1.29,3.59s0,0,.06,0c-.09-1-.29-2.76-.3-3.58,0-.1,0-.07,0,0a25,25,0,0,1,.78,3.57s0,0,.07,0c.09-.91.15-2.6.23-3.32,0-.1,0-.08,0,0a19.5,19.5,0,0,1,.33,3.45s0,.05.08,0c.29-.87.61-2.36.78-2.87,0-.1,0-.07,0,0A14.48,14.48,0,0,1,41.76,51s0,0,.06,0c.33-.63.88-1.92,1.15-2.4.05-.09,0,0,0,0a10.58,10.58,0,0,1-.72,2.78s0,.07.05.06c.39-.44,1.12-1.48,1.43-1.78,0,0,0-.06,0,0a8.21,8.21,0,0,1-1.11,2.36c0,.06,0,.09,0,.1a13.81,13.81,0,0,0,1.56-1.15c.07,0,.06,0,.05,0,0,.42-1,1.38-1.45,1.86q-.06.07,0,.09l1.55-.58c.08,0,.07,0,0,0a3.44,3.44,0,0,1-3.1,1.39h0a4.59,4.59,0,0,0,1.27-.58c.08-.07,0-.17-.08-.1a4.64,4.64,0,0,1-1.26.57,4.52,4.52,0,0,0,1.18-1.21c.05-.08,0-.15-.11-.06a4.51,4.51,0,0,1-1.25,1.25,5.32,5.32,0,0,0,1-1.75A.06.06,0,1,0,42,52a5.38,5.38,0,0,1-1,1.73,7.42,7.42,0,0,0,.71-2.08c0-.1-.11-.12-.13,0a6.64,6.64,0,0,1-.7,2,6.88,6.88,0,0,0,.32-2.3.07.07,0,1,0-.13,0,6.92,6.92,0,0,1-.29,2.22,7.8,7.8,0,0,0-.14-2.31c0-.1-.14-.07-.12,0a7.58,7.58,0,0,1,.14,2.23,9.38,9.38,0,0,0-.48-2.27.06.06,0,1,0-.12,0,9.15,9.15,0,0,1,.47,2.23,12.86,12.86,0,0,0-.79-2.2c0-.09-.15,0-.11,0a12.66,12.66,0,0,1,.79,2.21,16.79,16.79,0,0,0-1.12-2.09c-.06-.08-.16,0-.11.07a14.7,14.7,0,0,1,1.11,2.07c-.45-.66-.93-1.29-1.42-1.92-.06-.08-.16,0-.1.08.5.64.95,1.25,1.41,1.92-.59-.56-1.12-1.11-1.68-1.69-.07-.08-.16,0-.09.08.55.58,1.1,1.15,1.68,1.7a17.06,17.06,0,0,1-1.88-1.41c-.07-.07-.15,0-.08.09A16.44,16.44,0,0,0,40,54,12.76,12.76,0,0,1,38,52.83c-.09,0-.16.05-.07.11A12.7,12.7,0,0,0,40,54.05a8.71,8.71,0,0,1-2.13-.8c-.09,0-.15.06-.06.11a9.6,9.6,0,0,0,2.16.82,7.89,7.89,0,0,1-2.18-.48c-.09,0-.14.08,0,.12A7.67,7.67,0,0,0,40,54.3a7,7,0,0,1-2.24,0c-.09,0-.12.1,0,.12a7,7,0,0,0,2.32,0,7.08,7.08,0,0,1-2.14.38c-.09,0-.09.12,0,.12a7.08,7.08,0,0,0,2.17-.38,5.31,5.31,0,0,1-1.87.74c-.1,0-.08.15,0,.13a5.35,5.35,0,0,0,1.89-.75,4.77,4.77,0,0,1-1.43,1.05c-.09,0,0,.15,0,.12a4.75,4.75,0,0,0,1.37-1A4.74,4.74,0,0,1,39.34,56c-.07.07,0,.16.08.09a4.34,4.34,0,0,0,.77-1.16v0h0a3.68,3.68,0,0,1-1.84,2.85c-.08,0-.06,0,0,0l.8-1.44s0,0-.06,0c-.53.36-1.64,1.17-2.08,1.14-.07,0-.08,0,0-.05A13.44,13.44,0,0,0,38.31,56c0-.06,0-.07-.08-.05a8.71,8.71,0,0,1-2.51.74c-.08,0-.08,0,0,0,.34-.26,1.48-.82,2-1.14,0,0,0-.05,0-.05h0a10.89,10.89,0,0,1-2.88.29c-.1,0-.09,0,0,0,.51-.19,1.87-.54,2.53-.76,0,0,0-.05,0-.07a15.55,15.55,0,0,1-3.14-.19c-.09,0-.09,0,0,0,.42-.07,1.49-.15,2.36-.25l.6-.08s.07-.06,0-.09a18.9,18.9,0,0,1-3.37-.86s-.08,0,0,0c.74,0,2.42.23,3.34.28,0,0,.07,0,0-.08a24.56,24.56,0,0,1-3.42-1.31c-.06,0-.09-.05,0,0,.8.14,2.55.62,3.5.86.06,0,.06,0,0-.06a35.38,35.38,0,0,1-3.37-1.84l-.06,0,.08,0a30.12,30.12,0,0,1,3.51,1.4s.05,0,0,0c-.89-.65-2.51-1.74-3.19-2.38-.08-.08-.06,0,0,0A24.77,24.77,0,0,1,37.55,52c.05,0,.07,0,0,0a39.08,39.08,0,0,1-2.89-2.82c0-.06,0-.06,0,0a31.37,31.37,0,0,1,3.22,2.48s0,0,0,0a28.75,28.75,0,0,1-2.45-3.24c-.06-.11-.07-.11,0,0a28.4,28.4,0,0,1,2.84,2.91s0,0,0,0a31.28,31.28,0,0,1-1.94-3.54c0-.11-.05-.11,0,0"/><path d="M76.21,23.32a14.17,14.17,0,0,0,.3,3.14,7.4,7.4,0,0,0,.81,2.17,5.58,5.58,0,0,0,1.16,1.46,6.23,6.23,0,0,0,1.49,1,7.36,7.36,0,0,0,1.54.52,9,9,0,0,0,1.45.22q.69,0,1.2,0a9.21,9.21,0,0,0,1.71-.13A7,7,0,0,0,89.47,30a5.4,5.4,0,0,0,1.29-1.58,7.42,7.42,0,0,0,.73-1.89,11.87,11.87,0,0,0,.33-2.08c.06-.71.09-1.43.08-2.14V17.61c0-.55,0-1,0-1.38v-.92c0-.25,0-.46,0-.64s0-.34,0-.5a2.22,2.22,0,0,1,.24-1,1,1,0,0,1,.71-.44l.38-.06.36,0a1,1,0,0,0,.34,0,.2.2,0,0,0,.12-.19.19.19,0,0,0-.13-.18,1.44,1.44,0,0,0-.41,0h-.83l-.88,0-.75,0h-.74l-.7,0-.94,0h-1a1.09,1.09,0,0,0-.4,0,.2.2,0,0,0-.14.18.2.2,0,0,0,.11.19,1,1,0,0,0,.33,0h.32l.33,0,.27,0a1.63,1.63,0,0,1,.65.27,1,1,0,0,1,.33.46,3.36,3.36,0,0,1,.12.73c0,.15,0,.33,0,.5s0,.39,0,.64v.92c0,.37,0,.83,0,1.38v5.17c0,.66,0,1.3,0,1.91a11.63,11.63,0,0,1-.18,1.72,6.38,6.38,0,0,1-.44,1.5,4.17,4.17,0,0,1-.82,1.21,4.36,4.36,0,0,1-1.13.81,5.19,5.19,0,0,1-1.21.44,5.62,5.62,0,0,1-1.19.13,8.51,8.51,0,0,1-1-.06,4.83,4.83,0,0,1-1.09-.3,4.55,4.55,0,0,1-1.15-.69,4.75,4.75,0,0,1-.84-.89A5,5,0,0,1,80,27.31a8.18,8.18,0,0,1-.39-1.74,18.64,18.64,0,0,1-.14-2.41V16.23c0-.36,0-.67,0-.92s0-.46,0-.64,0-.35,0-.5a2.18,2.18,0,0,1,.24-1,1,1,0,0,1,.71-.44l.38-.06.36,0a.8.8,0,0,0,.3,0,.2.2,0,0,0,.11-.19.2.2,0,0,0-.14-.18,1.4,1.4,0,0,0-.42-.05l-.8,0-.89,0-.84,0h-.62l-1,0c-.41,0-.85,0-1.33,0l-1.4,0a1.53,1.53,0,0,0-.43.05.2.2,0,0,0,0,.37.92.92,0,0,0,.32,0l.56,0a3.35,3.35,0,0,1,.44.06,1.8,1.8,0,0,1,.65.26,1.06,1.06,0,0,1,.33.47,2.85,2.85,0,0,1,.12.73c0,.15,0,.33,0,.5s0,.39,0,.64,0,.56,0,.92v7.09Zm3.52,24.86a.26.26,0,0,1,0-.18.16.16,0,0,1,.13,0h2.3l.89,0c.26,0,.46,0,.6,0a2,2,0,0,1,.66.21,1.21,1.21,0,0,1,.42.34A1,1,0,0,1,85,49c0,.16.09.3.12.44a3.12,3.12,0,0,1,0,.35.62.62,0,0,0,0,.25.16.16,0,0,0,.16.11.22.22,0,0,0,.23-.16,1.08,1.08,0,0,0,0-.32c0-.06,0-.15,0-.3s0-.32,0-.51l0-.58c0-.19,0-.35,0-.48,0-.41.08-.75.13-1s.07-.47.07-.56,0-.23-.15-.23a.29.29,0,0,0-.18.07l-.15.19a1,1,0,0,1-.47.34,2,2,0,0,1-.63.12l-.55,0h-.6l-3.28,0a.18.18,0,0,1-.15-.06.37.37,0,0,1,0-.17V40.08a.5.5,0,0,1,.06-.29.21.21,0,0,1,.17-.07l3.94.08a3.17,3.17,0,0,1,.83.12,2,2,0,0,1,.56.29,1.17,1.17,0,0,1,.3.35,2.34,2.34,0,0,1,.14.55,3.28,3.28,0,0,1,0,.43.91.91,0,0,0,.08.31A.19.19,0,0,0,86,42a.22.22,0,0,0,.19-.11.61.61,0,0,0,.06-.25,2.81,2.81,0,0,0,0-.42c0-.2,0-.41,0-.64s0-.44,0-.63,0-.32,0-.38a7.68,7.68,0,0,1,.13-.76,2.5,2.5,0,0,0,.08-.4.3.3,0,0,0,0-.16.19.19,0,0,0-.13-.07.76.76,0,0,0-.2.06,1,1,0,0,1-.21.1,2.54,2.54,0,0,1-.44.07l-.61,0H78.2l-.69,0-.92,0-1,0h-1a1.26,1.26,0,0,0-.44,0,.2.2,0,0,0-.15.21.16.16,0,0,0,.12.15.69.69,0,0,0,.31,0l.56,0a2.22,2.22,0,0,1,.44.06,1.63,1.63,0,0,1,.65.26,1,1,0,0,1,.33.47,2.84,2.84,0,0,1,.12.72q0,.24,0,.51c0,.18,0,.39,0,.64s0,.56,0,.93v7.85c0,1.23,0,2.31,0,3.24s0,1.66-.11,2.2a5.59,5.59,0,0,1-.12.68,1.25,1.25,0,0,1-.22.48.63.63,0,0,1-.4.25,3.27,3.27,0,0,1-.4.07,4.05,4.05,0,0,1-.52,0,.56.56,0,0,0-.3.06.15.15,0,0,0-.08.15.2.2,0,0,0,.13.2,1.08,1.08,0,0,0,.4.05h.83l.91,0,.86,0h.65l.95,0,1.36,0,1.58,0a1.19,1.19,0,0,0,.43-.06.19.19,0,0,0,.13-.19.14.14,0,0,0-.09-.15.71.71,0,0,0-.34-.06h-.41l-.46,0-.41,0a1,1,0,0,1-.58-.25,1,1,0,0,1-.3-.48,4.15,4.15,0,0,1-.12-.68c-.06-.54-.1-1.27-.11-2.2s0-2,0-3.24V48.19Zm10.45,3.17c0,.67,0,1.3,0,1.88s0,1.12,0,1.59,0,.85-.07,1.16a2.78,2.78,0,0,1-.19.78.65.65,0,0,1-.48.37,1.7,1.7,0,0,1-.35.06,3,3,0,0,1-.44,0,.48.48,0,0,0-.29.08.19.19,0,0,0-.07.15.18.18,0,0,0,.11.17.7.7,0,0,0,.32.06c.24,0,.49,0,.75,0l.81,0H91l.53,0,1.15,0,1.46,0L96,57.7l2.29,0a4.25,4.25,0,0,0,.66,0,.59.59,0,0,0,.35-.14.88.88,0,0,0,.2-.4c0-.12.06-.28.1-.49s.07-.44.1-.69,0-.49.07-.7,0-.4,0-.52a1.2,1.2,0,0,0,0-.34c0-.11-.09-.17-.17-.18a.2.2,0,0,0-.17.09,1,1,0,0,0-.09.25,3,3,0,0,1-.33,1,1.37,1.37,0,0,1-.64.57,3.69,3.69,0,0,1-.68.19c-.25,0-.51.06-.76.07l-.68,0a8.6,8.6,0,0,1-1.8-.14,1.54,1.54,0,0,1-1-.55,2.06,2.06,0,0,1-.29-1.13c0-.16,0-.38,0-.67s0-.58,0-.9v-.92c0-.29,0-.54,0-.73V49.69a.39.39,0,0,1,0-.16.11.11,0,0,1,.1-.07h1.37l.9,0c.3,0,.57,0,.79,0l.47,0a2.27,2.27,0,0,1,.68.16,1,1,0,0,1,.58.69,3,3,0,0,1,0,.41c0,.14,0,.27,0,.38a.15.15,0,0,0,0,.13.22.22,0,0,0,.16.05.18.18,0,0,0,.15-.08.59.59,0,0,0,.06-.2,1.5,1.5,0,0,0,0-.2s0-.12,0-.24,0-.24,0-.39l0-.44c0-.15,0-.28,0-.39,0-.36.08-.65.1-.87s.05-.39.06-.5a1.08,1.08,0,0,0,0-.22.28.28,0,0,0-.05-.16.19.19,0,0,0-.13-.07.22.22,0,0,0-.15.08,2.12,2.12,0,0,1-.21.2.88.88,0,0,1-.41.24,5.91,5.91,0,0,1-.66.1l-.56,0H93.35a.13.13,0,0,1-.12-.07.27.27,0,0,1,0-.16V42.69a.28.28,0,0,1,0-.15.14.14,0,0,1,.12-.06h1.33l.92,0q.47,0,.81,0a2.37,2.37,0,0,1,.47,0,3.28,3.28,0,0,1,.84.16,1,1,0,0,1,.43.27,1.31,1.31,0,0,1,.21.36,1.16,1.16,0,0,1,.1.28c0,.11,0,.2,0,.29s0,.17,0,.22a.42.42,0,0,0,0,.21s.07.07.14.07a.18.18,0,0,0,.15-.07.52.52,0,0,0,.07-.15,1,1,0,0,0,0-.14,2.89,2.89,0,0,0,0-.29l0-.43c0-.15,0-.29,0-.42s0-.23,0-.29c0-.33,0-.59.07-.77s0-.33.07-.42a1.43,1.43,0,0,0,0-.21.26.26,0,0,0,0-.14s-.06-.07-.13-.07l-.17,0-.18.06-.39.07-.56.06h-7l-1.16,0H88.41a1.18,1.18,0,0,0-.37,0c-.09,0-.14.09-.14.16a.18.18,0,0,0,.11.17.55.55,0,0,0,.28.06l.5,0a2.31,2.31,0,0,1,.39.06,2.15,2.15,0,0,1,.56.23.81.81,0,0,1,.3.36,1.72,1.72,0,0,1,.11.59c0,.13,0,.27,0,.42s0,.34,0,.54v7.48Zm16-4.16v-1.7c0-.55,0-1.05,0-1.5s0-.8,0-1.05a.43.43,0,0,1,.07-.28.34.34,0,0,1,.21-.15,1,1,0,0,1,.34-.09l.52-.05.52,0c.45,0,.93,0,1.44.07a9.79,9.79,0,0,1,1.6.28,8.19,8.19,0,0,1,1.65.63,7.62,7.62,0,0,1,1.61,1.09,5.65,5.65,0,0,1,.75.83,7.51,7.51,0,0,1,.67,1.17,8.08,8.08,0,0,1,.49,1.53,9.36,9.36,0,0,1,.18,1.9A11.21,11.21,0,0,1,116.1,52a6.56,6.56,0,0,1-.6,1.83,4.4,4.4,0,0,1-1.15,1.43,6.06,6.06,0,0,1-1.41.89,6.46,6.46,0,0,1-1.62.46,11,11,0,0,1-1.88.13,7,7,0,0,1-1.48-.13,3.83,3.83,0,0,1-1-.32,1.56,1.56,0,0,1-.5-.41,1.17,1.17,0,0,1-.14-.38,4.93,4.93,0,0,1-.07-.57c0-.21,0-.41,0-.59s0-.42,0-.82,0-.9,0-1.51,0-1.3,0-2.07Zm-3,4.16c0,.67,0,1.3,0,1.88s0,1.12,0,1.59,0,.85-.07,1.16a2.78,2.78,0,0,1-.19.78.64.64,0,0,1-.48.37,1.7,1.7,0,0,1-.35.06,3,3,0,0,1-.44,0,.48.48,0,0,0-.29.08.19.19,0,0,0-.07.15.18.18,0,0,0,.11.17.7.7,0,0,0,.32.06c.24,0,.49,0,.76,0l.8,0H104l.53,0c.29,0,.63,0,1,0l1.26.09,1.37.08c.46,0,.9.05,1.31.05a14.55,14.55,0,0,0,2.79-.26,11.1,11.1,0,0,0,2.16-.63,9.09,9.09,0,0,0,1.57-.84,7,7,0,0,0,1-.83,7.9,7.9,0,0,0,1.2-1.52,8,8,0,0,0,.9-2,8.65,8.65,0,0,0,.35-2.51,8.84,8.84,0,0,0-.29-2.33,7.64,7.64,0,0,0-.78-1.83,6.79,6.79,0,0,0-1-1.36,7.13,7.13,0,0,0-2.05-1.44,10.09,10.09,0,0,0-2.34-.73,16.61,16.61,0,0,0-2.41-.27c-.79,0-1.54-.05-2.25,0h-2.08l-.9,0H103.8l-1.16,0h-1.23a1.29,1.29,0,0,0-.38,0,.17.17,0,0,0-.13.16.18.18,0,0,0,.11.17.55.55,0,0,0,.28.06l.5,0a1.6,1.6,0,0,1,.39.06,1.85,1.85,0,0,1,.56.23.81.81,0,0,1,.3.36,1.72,1.72,0,0,1,.11.59c0,.13,0,.27,0,.42v.54c0,.21,0,.48,0,.79v6.68Zm19,0v1.88q0,.89,0,1.59c0,.46,0,.85-.07,1.16a2.78,2.78,0,0,1-.19.78.64.64,0,0,1-.48.37,1.58,1.58,0,0,1-.35.06,2.89,2.89,0,0,1-.44,0,.5.5,0,0,0-.29.08.19.19,0,0,0-.07.15.18.18,0,0,0,.11.17.75.75,0,0,0,.33.06c.23,0,.48,0,.75,0l.81,0H123l.54,0,1.14,0,1.46,0,1.85.05,2.3,0a4.16,4.16,0,0,0,.65,0,.6.6,0,0,0,.36-.14,1,1,0,0,0,.19-.4,4.55,4.55,0,0,0,.1-.49c0-.21.07-.44.1-.69s0-.49.08-.7,0-.4,0-.52a1.18,1.18,0,0,0,0-.34.19.19,0,0,0-.17-.18.2.2,0,0,0-.17.09.73.73,0,0,0-.08.25,3.16,3.16,0,0,1-.34,1,1.37,1.37,0,0,1-.64.57,3.69,3.69,0,0,1-.68.19c-.25,0-.51.06-.76.07l-.68,0a8.6,8.6,0,0,1-1.8-.14,1.49,1.49,0,0,1-.94-.55,2,2,0,0,1-.3-1.13c0-.16,0-.38,0-.67s0-.58,0-.9v-.92c0-.29,0-.54,0-.73V49.69a.7.7,0,0,1,0-.16.11.11,0,0,1,.11-.07h1.36l.91,0c.3,0,.56,0,.79,0l.46,0a2.12,2.12,0,0,1,.68.16,1.2,1.2,0,0,1,.39.29,1.34,1.34,0,0,1,.19.4,3,3,0,0,1,0,.41c0,.14,0,.27,0,.38a.19.19,0,0,0,.05.13.22.22,0,0,0,.16.05.16.16,0,0,0,.15-.08.93.93,0,0,0,.07-.2c0-.07,0-.14,0-.2s0-.12,0-.24,0-.24,0-.39l0-.44c0-.15,0-.28,0-.39,0-.36.08-.65.1-.87s.05-.39.06-.5a1.08,1.08,0,0,0,0-.22.28.28,0,0,0-.05-.16.17.17,0,0,0-.13-.07.25.25,0,0,0-.15.08,2.12,2.12,0,0,1-.21.2.83.83,0,0,1-.41.24,5.91,5.91,0,0,1-.66.1l-.56,0h-3.38a.13.13,0,0,1-.12-.07.38.38,0,0,1,0-.16V42.69a.21.21,0,0,1,0-.15.11.11,0,0,1,.11-.06h1.33l.93,0c.3,0,.57,0,.8,0a2.37,2.37,0,0,1,.47,0,3.47,3.47,0,0,1,.85.16,1.05,1.05,0,0,1,.42.27,1.31,1.31,0,0,1,.21.36.85.85,0,0,1,.1.28c0,.11,0,.2.05.29s0,.17,0,.22a.58.58,0,0,0,0,.21s.08.07.15.07a.16.16,0,0,0,.14-.07.53.53,0,0,0,.08-.15.89.89,0,0,0,0-.14,1.43,1.43,0,0,0,0-.29c0-.14,0-.28,0-.43s0-.29,0-.42,0-.23,0-.29c0-.33,0-.59.07-.77a3.16,3.16,0,0,1,.08-.42,1.14,1.14,0,0,0,0-.21.26.26,0,0,0,0-.14.11.11,0,0,0-.12-.07l-.17,0a.7.7,0,0,1-.19.06l-.39.07-.56.06h-7l-1.16,0h-1.22a1.21,1.21,0,0,0-.38,0c-.09,0-.13.09-.13.16a.17.17,0,0,0,.1.17.55.55,0,0,0,.28.06l.51,0a2.34,2.34,0,0,1,.38.06,2,2,0,0,1,.56.23.75.75,0,0,1,.3.36,1.69,1.69,0,0,1,.12.59c0,.13,0,.27,0,.42s0,.34,0,.54v7.48Zm15.66-8.61a.35.35,0,0,1,0-.2.3.3,0,0,1,.17-.11,2.9,2.9,0,0,1,.54-.06l.79,0a4,4,0,0,1,.86.11,3.55,3.55,0,0,1,.92.37,3.15,3.15,0,0,1,.82.7,3.12,3.12,0,0,1,.59,1.1,5,5,0,0,1,.23,1.58,4.85,4.85,0,0,1-.22,1.53,3.29,3.29,0,0,1-.55,1,3,3,0,0,1-.69.66,1.58,1.58,0,0,1-.38.21,1.87,1.87,0,0,1-.48.12,7,7,0,0,1-.72,0c-.29,0-.58,0-.89,0a3.85,3.85,0,0,1-.82-.16.34.34,0,0,1-.17-.14.49.49,0,0,1,0-.24Zm-2.86,8.61c0,.67,0,1.3,0,1.89s0,1.11,0,1.58,0,.85-.08,1.16a2.49,2.49,0,0,1-.18.78.65.65,0,0,1-.48.37,1.7,1.7,0,0,1-.35.06,3,3,0,0,1-.44,0,.48.48,0,0,0-.29.08.17.17,0,0,0-.07.15.18.18,0,0,0,.11.17.7.7,0,0,0,.32.06h.75l.81,0,.72,0,.49,0,.5,0,.88,0,1.07,0h1.05a.83.83,0,0,0,.34-.06.18.18,0,0,0,.12-.17.23.23,0,0,0-.07-.15.33.33,0,0,0-.21-.08h-.34l-.39,0-.37,0a1,1,0,0,1-.52-.2.78.78,0,0,1-.24-.39,2.14,2.14,0,0,1-.11-.56c0-.31-.06-.69-.08-1.16s0-1,0-1.57,0-1.22,0-1.9v-.3a.18.18,0,0,1,0-.14.2.2,0,0,1,.13,0l2,.05a.66.66,0,0,1,.21,0,.47.47,0,0,1,.2.12l.32.44.51.73.62.89c.22.31.45.61.67.91.42.56.79,1.05,1.14,1.47a10.46,10.46,0,0,0,1,1.06,4.6,4.6,0,0,0,.95.67,3.07,3.07,0,0,0,.62.24,3.89,3.89,0,0,0,.77.15c.3,0,.65,0,1.07,0h2.14a.76.76,0,0,0,.33-.05.18.18,0,0,0,.11-.18.26.26,0,0,0-.07-.15.36.36,0,0,0-.21-.08h-.25a2,2,0,0,1-.29-.05,3.39,3.39,0,0,1-.5-.13,3,3,0,0,1-.8-.39,6.45,6.45,0,0,1-1.1-.91c-.68-.68-1.42-1.51-2.23-2.48s-1.72-2.07-2.71-3.3a14.19,14.19,0,0,0,1.79-1.67,6.1,6.1,0,0,0,1-1.57,3.77,3.77,0,0,0,.32-1.57,3,3,0,0,0-.16-1,3.76,3.76,0,0,0-.39-.86,5.37,5.37,0,0,0-.52-.67,2.83,2.83,0,0,0-.52-.44,4.63,4.63,0,0,0-1.32-.59,7.07,7.07,0,0,0-1.47-.27,14.77,14.77,0,0,0-1.48-.06H138l-1,0h-1.29l-.75,0h-1.81a1.29,1.29,0,0,0-.38,0,.17.17,0,0,0-.13.16.18.18,0,0,0,.11.17.54.54,0,0,0,.27.06l.51,0a1.69,1.69,0,0,1,.39.06,1.85,1.85,0,0,1,.56.23.88.88,0,0,1,.3.36,1.72,1.72,0,0,1,.11.59c0,.13,0,.27,0,.42s0,.33,0,.54,0,.48,0,.79v6.68Zm19-.35a.09.09,0,0,1-.08,0,.13.13,0,0,1,0-.12L156,45.35a.74.74,0,0,1,0-.14.13.13,0,0,1,.09-.07.14.14,0,0,1,.06.07s0,.09,0,.14l2.12,5.52a.14.14,0,0,1,0,.09.13.13,0,0,1-.1,0Zm4.83,1.2a.29.29,0,0,1,.14,0,.19.19,0,0,1,.09.12l1.74,4.37a.38.38,0,0,1,0,.33.31.31,0,0,1-.2.16.38.38,0,0,0-.23.08.17.17,0,0,0,0,.15c0,.07.06.12.18.14a4.59,4.59,0,0,0,.48,0l1.79,0,1.48,0h1.05l.63,0a.53.53,0,0,0,.28-.07.15.15,0,0,0,.07-.14c0-.15-.11-.23-.31-.23a2.55,2.55,0,0,1-.39,0l-.45,0a1.59,1.59,0,0,1-.35-.14,1.54,1.54,0,0,1-.44-.34,3.84,3.84,0,0,1-.52-.68,9.69,9.69,0,0,1-.61-1.18l-.74-1.72c-.29-.66-.6-1.39-.93-2.17l-1-2.38-1-2.38L158.52,44c-.28-.65-.52-1.2-.71-1.66s-.33-.76-.41-.94a3.69,3.69,0,0,0-.2-.4.72.72,0,0,0-.2-.22.45.45,0,0,0-.27-.07.38.38,0,0,0-.32.2,3.11,3.11,0,0,0-.34.67l-5.88,13.68a8.49,8.49,0,0,1-.46.95,2.26,2.26,0,0,1-.57.65,1.92,1.92,0,0,1-.84.32h-.66a.28.28,0,0,0-.2.07.23.23,0,0,0-.06.16.17.17,0,0,0,.1.18.64.64,0,0,0,.31.05l1.14,0,1,0,.52,0c.24,0,.51,0,.8,0l.89,0,.81,0a.5.5,0,0,0,.27-.05.18.18,0,0,0,.09-.18.19.19,0,0,0-.06-.16.42.42,0,0,0-.27-.07h-.33a1.14,1.14,0,0,1-.71-.16.55.55,0,0,1-.19-.45,3.08,3.08,0,0,1,.08-.56,4.57,4.57,0,0,1,.25-.77l1.21-2.92a.22.22,0,0,1,.07-.12.21.21,0,0,1,.13,0Zm12.93-4.68V44.67c0-.31,0-.58,0-.79s0-.39,0-.54l0-.42a1.71,1.71,0,0,1,.21-.84.88.88,0,0,1,.63-.34,2.75,2.75,0,0,1,.44-.06l.43,0a.63.63,0,0,0,.31-.06.18.18,0,0,0,.1-.17.17.17,0,0,0-.12-.16,1.11,1.11,0,0,0-.36,0h-1.75l-.89,0h-1.21l-.79,0H167a1.07,1.07,0,0,0-.36,0,.16.16,0,0,0-.12.16c0,.16.12.23.38.23l.41,0a1.39,1.39,0,0,1,.33.06,1.85,1.85,0,0,1,.56.23.81.81,0,0,1,.3.36,1.72,1.72,0,0,1,.11.59c0,.13,0,.27,0,.42s0,.33,0,.54v9.35q0,.89,0,1.59c0,.46,0,.85-.07,1.16a2.78,2.78,0,0,1-.19.78.64.64,0,0,1-.48.37,1.58,1.58,0,0,1-.35.06,2.89,2.89,0,0,1-.44,0,.5.5,0,0,0-.29.08.19.19,0,0,0-.07.15.18.18,0,0,0,.11.17.75.75,0,0,0,.33.06c.23,0,.48,0,.75,0l.81,0h.74l.54,0,1.41,0,1.58,0,1.83.05,2.21,0a6.2,6.2,0,0,0,.86,0,.59.59,0,0,0,.39-.18.8.8,0,0,0,.18-.37,4.69,4.69,0,0,0,.13-.62c0-.25.07-.51.1-.77s.06-.5.08-.7,0-.34,0-.41a1.13,1.13,0,0,0,0-.34.19.19,0,0,0-.16-.15.21.21,0,0,0-.19.09.68.68,0,0,0-.07.24,2.12,2.12,0,0,1-.1.46,2.86,2.86,0,0,1-.2.48,1.85,1.85,0,0,1-.26.37,1.73,1.73,0,0,1-.67.42,3.14,3.14,0,0,1-.87.16,9.44,9.44,0,0,1-1.09,0c-.58,0-1.07,0-1.47,0a5.09,5.09,0,0,1-1-.15,1.54,1.54,0,0,1-.56-.27,1.31,1.31,0,0,1-.34-.75,9,9,0,0,1-.12-1.49c0-.63,0-1.41,0-2.34V47.52Zm16.82,1.85V48c0-.43,0-.83,0-1.18s0-.63,0-.83a.46.46,0,0,1,0-.23.33.33,0,0,1,.18-.11.77.77,0,0,1,.26-.07l.41,0,.42,0c.35,0,.73,0,1.13.06a7.25,7.25,0,0,1,1.26.22,6.35,6.35,0,0,1,1.31.49,6.25,6.25,0,0,1,1.27.87,4.24,4.24,0,0,1,.59.65,5.82,5.82,0,0,1,.53.93,5.73,5.73,0,0,1,.38,1.21,6.9,6.9,0,0,1,.15,1.49,9.13,9.13,0,0,1-.13,1.69,5,5,0,0,1-.48,1.44,3.55,3.55,0,0,1-.9,1.14,5.34,5.34,0,0,1-1.12.7,5.26,5.26,0,0,1-1.28.36,9.6,9.6,0,0,1-1.48.11,6.2,6.2,0,0,1-1.17-.11,2.68,2.68,0,0,1-.76-.26,1,1,0,0,1-.39-.32.61.61,0,0,1-.11-.3c0-.14,0-.28-.07-.45s0-.32,0-.46,0-.33,0-.65,0-.71,0-1.19,0-1,0-1.64Zm-2.38,3.3v1.48c0,.46,0,.88,0,1.25s0,.68-.06.92a2.09,2.09,0,0,1-.15.61.51.51,0,0,1-.38.3l-.27.05h-.35a.4.4,0,0,0-.23.06.17.17,0,0,0-.06.12.17.17,0,0,0,.09.14.6.6,0,0,0,.26,0l.59,0,.64,0h1l.8,0,1,.07,1.08.07,1,0a11.18,11.18,0,0,0,2.2-.21,9.55,9.55,0,0,0,1.7-.5,7.58,7.58,0,0,0,1.25-.66,5.56,5.56,0,0,0,.81-.65,6,6,0,0,0,1-1.21,6.51,6.51,0,0,0,.71-1.6,7.23,7.23,0,0,0,.28-2,7.39,7.39,0,0,0-.24-1.84,5.73,5.73,0,0,0-1.44-2.53,5.71,5.71,0,0,0-1.62-1.13,8,8,0,0,0-1.85-.58,12.41,12.41,0,0,0-1.9-.21c-.63,0-1.22,0-1.78,0h-.82l-.82,0h-1.25l-.68,0h-.92l-1,0a1,1,0,0,0-.3,0c-.07,0-.11.07-.11.13a.14.14,0,0,0,.09.13.41.41,0,0,0,.21,0h.4a1.66,1.66,0,0,1,.31,0,1.54,1.54,0,0,1,.44.18.65.65,0,0,1,.24.28,1.45,1.45,0,0,1,.09.47c0,.1,0,.22,0,.33s0,.27,0,.43v5.91ZM208,57a5.27,5.27,0,0,1-2.25-.49,4.82,4.82,0,0,1-1.69-1.35,6,6,0,0,1-1.06-2,8.52,8.52,0,0,1-.37-2.47,8.09,8.09,0,0,1,.26-2.18,4.55,4.55,0,0,1,.69-1.52,3.71,3.71,0,0,1,1-1,4.3,4.3,0,0,1,1.17-.5,5.46,5.46,0,0,1,1.2-.14,5,5,0,0,1,2,.43A4.85,4.85,0,0,1,210.59,47a5.77,5.77,0,0,1,1.1,1.93,8.14,8.14,0,0,1,.4,2.56,9.77,9.77,0,0,1-.22,2.11,5.73,5.73,0,0,1-.56,1.49,4.18,4.18,0,0,1-.79,1,4,4,0,0,1-.9.56,3.26,3.26,0,0,1-.88.27A4.14,4.14,0,0,1,208,57Zm-.72.93a8.78,8.78,0,0,0,2.53-.36,7.07,7.07,0,0,0,2.07-1,6.6,6.6,0,0,0,2.52-3.45,7.45,7.45,0,0,0,.33-2.24,6.87,6.87,0,0,0-.5-2.67,5.64,5.64,0,0,0-1.45-2,6.56,6.56,0,0,0-2.29-1.29,9.84,9.84,0,0,0-3-.45,9.37,9.37,0,0,0-2.42.3,7,7,0,0,0-1.91.8,6.29,6.29,0,0,0-1.42,1.17,6.56,6.56,0,0,0-1,1.41,7.15,7.15,0,0,0-.56,1.54,6.6,6.6,0,0,0-.17,1.51,7.68,7.68,0,0,0,.17,1.56,7.5,7.5,0,0,0,.56,1.54,6.25,6.25,0,0,0,2.35,2.56,7.2,7.2,0,0,0,1.85.78,9.36,9.36,0,0,0,2.34.29m25.06.15,1.27,0c.43,0,.85-.06,1.27-.11s.79-.11,1.15-.18a6.86,6.86,0,0,0,.92-.27,1.26,1.26,0,0,0,.33-.17.63.63,0,0,0,.2-.23,1.42,1.42,0,0,0,.13-.34c0-.18.1-.4.16-.66s.1-.53.15-.82.09-.57.13-.84.07-.5.09-.69,0-.33,0-.39a.7.7,0,0,0,0-.27.2.2,0,0,0-.19-.11.19.19,0,0,0-.21.1,1.59,1.59,0,0,0-.12.41,3.18,3.18,0,0,1-.17.53,4.2,4.2,0,0,1-.3.6,3.23,3.23,0,0,1-.4.55,3.57,3.57,0,0,1-1.16.9,5.12,5.12,0,0,1-1.52.43,16.58,16.58,0,0,1-2,.11,6.67,6.67,0,0,1-1.78-.26,7.94,7.94,0,0,1-1.83-.75,8.8,8.8,0,0,1-1.7-1.26,8.89,8.89,0,0,1-1.42-1.77,9.38,9.38,0,0,1-1-2.28,10.55,10.55,0,0,1-.35-2.79A14.1,14.1,0,0,1,224.2,45a8.7,8.7,0,0,1,.72-2.25,6.33,6.33,0,0,1,1.44-1.93,5.82,5.82,0,0,1,1.25-.87,6.44,6.44,0,0,1,1.57-.53,9.21,9.21,0,0,1,2-.19,11.63,11.63,0,0,1,2.2.22,7.54,7.54,0,0,1,1.79.56,4.05,4.05,0,0,1,1.2.81,3.71,3.71,0,0,1,.73,1.13,3.89,3.89,0,0,1,.27,1.22,1.2,1.2,0,0,0,0,.42.2.2,0,0,0,.2.14.23.23,0,0,0,.23-.14,1.51,1.51,0,0,0,.08-.44c0-.14,0-.31,0-.53s0-.47,0-.73,0-.53,0-.79,0-.5,0-.72,0-.53.06-.71,0-.33,0-.44,0-.19,0-.25a.24.24,0,0,0-.08-.2.46.46,0,0,0-.3-.11,11.54,11.54,0,0,1-1.2-.2c-.42-.08-.87-.17-1.36-.23l-1.13-.14q-.56-.06-1.17-.09t-1.41,0a15.68,15.68,0,0,0-3.38.33,10.44,10.44,0,0,0-2.63.93,9.26,9.26,0,0,0-2.07,1.45,8.85,8.85,0,0,0-1.5,1.8,9.14,9.14,0,0,0-.91,1.9,10.36,10.36,0,0,0-.46,1.8,10.86,10.86,0,0,0-.12,1.51,12.58,12.58,0,0,0,.15,1.91,9.5,9.5,0,0,0,.5,2,9,9,0,0,0,1,1.91,9.28,9.28,0,0,0,1.55,1.75,10.46,10.46,0,0,0,2.53,1.62,12.65,12.65,0,0,0,2.93.9,19.46,19.46,0,0,0,3.31.27m20.81-32.85c0,.67,0,1.3,0,1.88s0,1.12,0,1.58,0,.86-.08,1.17a2.36,2.36,0,0,1-.18.77.67.67,0,0,1-.48.38A1.7,1.7,0,0,1,252,31l-.44,0a.49.49,0,0,0-.29.07.21.21,0,0,0-.07.16.2.2,0,0,0,.11.17.87.87,0,0,0,.32.06l.75,0,.81,0,.75,0h.53l1.14,0,1.47,0c.55,0,1.16,0,1.85.06l2.29,0,.65,0a.6.6,0,0,0,.36-.15.88.88,0,0,0,.19-.39,4.55,4.55,0,0,0,.1-.49c0-.22.07-.45.1-.69s.06-.49.08-.71,0-.39,0-.52a1.27,1.27,0,0,0,0-.34.19.19,0,0,0-.17-.17.18.18,0,0,0-.16.08.6.6,0,0,0-.09.25,3.15,3.15,0,0,1-.34,1.05,1.32,1.32,0,0,1-.63.56,2.67,2.67,0,0,1-.69.19,6.36,6.36,0,0,1-.75.08l-.69,0a8.39,8.39,0,0,1-1.79-.15,1.51,1.51,0,0,1-1-.54,2.06,2.06,0,0,1-.3-1.13c0-.17,0-.39,0-.67v-.9c0-.32,0-.63,0-.93V23.52a.38.38,0,0,1,0-.16.11.11,0,0,1,.1-.07h1.37l.9,0c.3,0,.56,0,.79,0a2.44,2.44,0,0,1,.47,0,1.9,1.9,0,0,1,.67.15,1.1,1.1,0,0,1,.39.29,1.14,1.14,0,0,1,.19.4,3.05,3.05,0,0,1,.05.41c0,.14,0,.27,0,.38a.18.18,0,0,0,0,.13.23.23,0,0,0,.16.05.16.16,0,0,0,.15-.08.43.43,0,0,0,.07-.2,1.48,1.48,0,0,0,0-.21s0-.11,0-.23,0-.24,0-.39a3.15,3.15,0,0,1,0-.44,3.63,3.63,0,0,1,0-.39c0-.36.07-.65.1-.87s0-.38.06-.5a2.13,2.13,0,0,0,0-.22.22.22,0,0,0-.05-.16.15.15,0,0,0-.12-.07.22.22,0,0,0-.15.08l-.21.2a.91.91,0,0,1-.42.24,4.23,4.23,0,0,1-.66.1l-.55,0h-3.38a.14.14,0,0,1-.13-.07.38.38,0,0,1,0-.16V16.52a.33.33,0,0,1,0-.15.13.13,0,0,1,.12-.05h.5l.83,0,.92,0,.81,0,.46,0a2.85,2.85,0,0,1,.85.17,1,1,0,0,1,.42.27,1.86,1.86,0,0,1,.22.35,1.4,1.4,0,0,1,.09.29,1.6,1.6,0,0,1,.05.29,1.86,1.86,0,0,1,0,.22.56.56,0,0,0,0,.2.16.16,0,0,0,.15.08.18.18,0,0,0,.14-.08.53.53,0,0,0,.08-.15,1.11,1.11,0,0,0,0-.13,1.68,1.68,0,0,0,0-.3c0-.13,0-.28,0-.43s0-.29,0-.42,0-.22,0-.28c0-.33,0-.59.07-.78s.06-.33.08-.42a1,1,0,0,0,0-.21.32.32,0,0,0,0-.14.12.12,0,0,0-.12-.06.38.38,0,0,0-.17,0,1.39,1.39,0,0,1-.19.06l-.39.06c-.16,0-.35,0-.56.07h-6.13l-.86,0-1.16,0h-1.23a1.18,1.18,0,0,0-.37,0c-.09,0-.14.08-.14.16a.18.18,0,0,0,.11.17.55.55,0,0,0,.28.06,4.1,4.1,0,0,1,.5,0,1.6,1.6,0,0,1,.39.06,1.85,1.85,0,0,1,.56.23.84.84,0,0,1,.3.35,1.82,1.82,0,0,1,.11.59c0,.13,0,.28,0,.43v.54c0,.21,0,.47,0,.79v6.68ZM241.92,51.36c0,.66,0,1.29,0,1.87s0,1.12,0,1.59,0,.85-.07,1.16a2.78,2.78,0,0,1-.19.78.65.65,0,0,1-.48.37,1.7,1.7,0,0,1-.35.06,3,3,0,0,1-.44,0,.48.48,0,0,0-.29.08.19.19,0,0,0-.07.15.18.18,0,0,0,.11.17.7.7,0,0,0,.32.06c.24,0,.49,0,.75,0l.81,0h.75l.53,0,1.15,0,1.46,0,1.85.05,2.29,0a4.25,4.25,0,0,0,.66,0,.59.59,0,0,0,.35-.14.88.88,0,0,0,.2-.4c0-.12.06-.28.1-.49s.07-.44.1-.69,0-.49.07-.7,0-.4,0-.52a1.2,1.2,0,0,0,0-.34c0-.11-.09-.17-.17-.18a.2.2,0,0,0-.17.09,1,1,0,0,0-.09.25,3,3,0,0,1-.33,1,1.37,1.37,0,0,1-.64.57,3.92,3.92,0,0,1-.68.19c-.25,0-.51.06-.76.07l-.68,0a8.6,8.6,0,0,1-1.8-.14,1.54,1.54,0,0,1-1-.55,2.06,2.06,0,0,1-.29-1.13c0-.16,0-.38,0-.67s0-.58,0-.9v-.92c0-.29,0-.54,0-.73V49.69a.39.39,0,0,1,0-.16.11.11,0,0,1,.11-.07h1.36l.91,0c.3,0,.56,0,.79,0a2.32,2.32,0,0,1,.46,0,1.91,1.91,0,0,1,.68.15,1.2,1.2,0,0,1,.39.29,1.34,1.34,0,0,1,.19.4,3,3,0,0,1,0,.41c0,.14,0,.27,0,.38a.19.19,0,0,0,.05.13.22.22,0,0,0,.16.05.16.16,0,0,0,.15-.08.93.93,0,0,0,.07-.2c0-.07,0-.14,0-.2a2.3,2.3,0,0,1,0-.23c0-.12,0-.25,0-.4l0-.44c0-.15,0-.28,0-.39,0-.36.08-.65.1-.87s.05-.39.06-.5a1.08,1.08,0,0,0,0-.22.28.28,0,0,0,0-.16.17.17,0,0,0-.13-.07.22.22,0,0,0-.15.08,2.12,2.12,0,0,1-.21.2.88.88,0,0,1-.41.24,5.91,5.91,0,0,1-.66.1l-.56,0h-3.38a.13.13,0,0,1-.12-.07.38.38,0,0,1,0-.16V42.69a.21.21,0,0,1,0-.15.11.11,0,0,1,.11-.06h.51l.82,0,.92,0c.31,0,.58,0,.81,0a3.58,3.58,0,0,1,.47,0,3.28,3.28,0,0,1,.84.16,1,1,0,0,1,.43.28,1.13,1.13,0,0,1,.21.35,1.1,1.1,0,0,1,.1.29c0,.1,0,.2,0,.28s0,.17,0,.22a.42.42,0,0,0,0,.21s.07.07.14.07a.15.15,0,0,0,.14-.07.36.36,0,0,0,.08-.15s0-.1,0-.13,0-.17,0-.3,0-.28,0-.43l0-.42c0-.13,0-.23,0-.29a6.2,6.2,0,0,1,.07-.77c0-.19.05-.33.07-.42a1.43,1.43,0,0,0,0-.21.26.26,0,0,0,0-.14s-.06-.07-.13-.07l-.17,0a.64.64,0,0,1-.18.06l-.39.07c-.17,0-.35.05-.56.06h-7l-1.16,0h-1.23a1.29,1.29,0,0,0-.38,0c-.08,0-.13.09-.13.16a.2.2,0,0,0,.11.18.7.7,0,0,0,.28,0l.5,0a2.31,2.31,0,0,1,.39.06,2.15,2.15,0,0,1,.56.23.81.81,0,0,1,.3.36,1.77,1.77,0,0,1,.11.59c0,.13,0,.28,0,.42s0,.34,0,.55,0,.47,0,.78v6.69ZM258.29,51a.09.09,0,0,1-.08,0,.11.11,0,0,1,0-.12l2.17-5.49a.78.78,0,0,1,.05-.14.1.1,0,0,1,.08-.07.11.11,0,0,1,.06.07s0,.09,0,.14l2.12,5.52a.14.14,0,0,1,0,.09.12.12,0,0,1-.1,0Zm4.84,1.2a.28.28,0,0,1,.13,0,.25.25,0,0,1,.1.12l1.74,4.37a.41.41,0,0,1,0,.33.31.31,0,0,1-.2.16.38.38,0,0,0-.23.08.25.25,0,0,0-.05.15c0,.07.06.12.18.14a4.59,4.59,0,0,0,.48,0l1.79,0,1.48,0h1.06l.62,0a.5.5,0,0,0,.28-.07.15.15,0,0,0,.07-.14c0-.15-.1-.23-.31-.23a2.61,2.61,0,0,1-.39,0l-.45,0a1.59,1.59,0,0,1-.35-.14,1.69,1.69,0,0,1-.44-.34,4.39,4.39,0,0,1-.52-.68,11.35,11.35,0,0,1-.61-1.18l-.74-1.72c-.29-.66-.59-1.39-.93-2.17l-1-2.38-1-2.38L262.89,44l-.71-1.66c-.19-.45-.33-.76-.41-.94a3.69,3.69,0,0,0-.2-.4.62.62,0,0,0-.2-.22.4.4,0,0,0-.26-.07.38.38,0,0,0-.33.2,3.66,3.66,0,0,0-.34.67l-5.88,13.68a7,7,0,0,1-.46.95,2.26,2.26,0,0,1-.57.65,1.87,1.87,0,0,1-.84.32H252a.28.28,0,0,0-.2.07.23.23,0,0,0-.06.16.19.19,0,0,0,.1.18.64.64,0,0,0,.31.05l1.15,0,.94,0,.52,0c.24,0,.51,0,.81,0l.88,0,.82,0a.48.48,0,0,0,.26-.05.18.18,0,0,0,.09-.18.17.17,0,0,0-.06-.16.4.4,0,0,0-.27-.07H257a1.14,1.14,0,0,1-.71-.16.55.55,0,0,1-.19-.45,2.51,2.51,0,0,1,.09-.56,3.81,3.81,0,0,1,.25-.77l1.2-2.92a.31.31,0,0,1,.07-.12.23.23,0,0,1,.13,0Zm11.56-9.46a.35.35,0,0,1,0-.2.27.27,0,0,1,.16-.11,2.9,2.9,0,0,1,.54-.06l.79,0a4,4,0,0,1,.87.11,3.35,3.35,0,0,1,.91.37,3.19,3.19,0,0,1,.83.7,3.48,3.48,0,0,1,.59,1.1,5.27,5.27,0,0,1,.23,1.58,4.83,4.83,0,0,1-.23,1.53,3.28,3.28,0,0,1-.54,1,3,3,0,0,1-.69.66,1.58,1.58,0,0,1-.38.21,1.87,1.87,0,0,1-.48.12c-.19,0-.43,0-.72,0s-.59,0-.89,0a4.07,4.07,0,0,1-.83-.16.32.32,0,0,1-.16-.14.49.49,0,0,1,0-.24Zm-2.87,8.62v1.88c0,.58,0,1.11,0,1.58a11.45,11.45,0,0,1-.07,1.16,2.23,2.23,0,0,1-.19.78.64.64,0,0,1-.47.37,1.82,1.82,0,0,1-.35.06,3.1,3.1,0,0,1-.45,0,.47.47,0,0,0-.28.08.17.17,0,0,0-.07.15.17.17,0,0,0,.11.17.67.67,0,0,0,.32.06h.75l.81,0,.71,0,.49,0,.5,0,.89,0,1.07,0h1.05a.75.75,0,0,0,.33-.06.19.19,0,0,0,.13-.17.21.21,0,0,0-.08-.15.33.33,0,0,0-.21-.08h-.33l-.39,0-.38,0a1,1,0,0,1-.51-.2.8.8,0,0,1-.25-.39,2.69,2.69,0,0,1-.1-.56c0-.31-.06-.69-.08-1.16s0-1,0-1.57,0-1.22,0-1.89v-.31c0-.07,0-.11.05-.14a.18.18,0,0,1,.13,0l2,.05a.71.71,0,0,1,.21,0,.53.53,0,0,1,.2.12l.32.44.51.73.62.89c.22.31.44.61.67.91q.61.84,1.14,1.47a10.46,10.46,0,0,0,1,1.06,4.72,4.72,0,0,0,.95.67,3.07,3.07,0,0,0,.62.24,3.89,3.89,0,0,0,.77.15c.29,0,.65,0,1.06,0h2.15a.69.69,0,0,0,.32-.05.17.17,0,0,0,.11-.18.19.19,0,0,0-.07-.15.33.33,0,0,0-.21-.08H287a2,2,0,0,1-.29-.05,3.8,3.8,0,0,1-.51-.13,3.35,3.35,0,0,1-.8-.39,7.33,7.33,0,0,1-1.1-.91c-.67-.68-1.41-1.51-2.23-2.48s-1.71-2.07-2.7-3.3a14,14,0,0,0,1.78-1.67,6.15,6.15,0,0,0,1-1.57,4.12,4.12,0,0,0,.32-1.57,3.63,3.63,0,0,0-.16-1,3.39,3.39,0,0,0-.4-.86,4.53,4.53,0,0,0-.51-.67,3.2,3.2,0,0,0-.52-.44,4.63,4.63,0,0,0-1.32-.59,7.32,7.32,0,0,0-1.47-.27c-.51,0-1-.07-1.48-.06h-1.72l-1,0h-1.28l-.76,0h-1.8a1.21,1.21,0,0,0-.38,0c-.09,0-.13.09-.13.16a.19.19,0,0,0,.1.17.58.58,0,0,0,.28.06l.51,0a2,2,0,0,1,.94.29.75.75,0,0,1,.3.36,1.69,1.69,0,0,1,.12.59c0,.13,0,.27,0,.42s0,.33,0,.54v7.48ZM297.07,35.6a1.09,1.09,0,0,0-.16-.24.28.28,0,0,0-.2-.06.54.54,0,0,0-.18,0,2,2,0,0,0-.33.19,5.58,5.58,0,0,0-.48.34l-.85.62-1,.78-1,.79q-.47.39-.78.69l-.16.17a.31.31,0,0,0-.07.16.17.17,0,0,0,.06.11.16.16,0,0,0,.1,0,.46.46,0,0,0,.16-.06l.27-.14.89-.43c.34-.15.72-.3,1.13-.45s.8-.28,1.21-.39a9.48,9.48,0,0,1,1.15-.24,4.2,4.2,0,0,1,.58,0l.28,0a.18.18,0,0,0,.18-.08s0-.15-.05-.3c-.15-.35-.29-.65-.41-.89s-.23-.47-.33-.65ZM290.6,51a.09.09,0,0,1-.08,0,.13.13,0,0,1,0-.12l2.18-5.49a.39.39,0,0,1,.05-.14.1.1,0,0,1,.08-.07.14.14,0,0,1,.06.07s0,.09,0,.14l2.12,5.52a.14.14,0,0,1,0,.09.13.13,0,0,1-.1,0Zm4.83,1.2a.29.29,0,0,1,.14,0,.19.19,0,0,1,.09.12l1.74,4.37a.38.38,0,0,1,0,.33.31.31,0,0,1-.2.16.38.38,0,0,0-.23.08.17.17,0,0,0-.05.15c0,.07.06.12.18.14a4.59,4.59,0,0,0,.48,0l1.79,0,1.48,0h1l.63,0a.53.53,0,0,0,.28-.07.15.15,0,0,0,.07-.14c0-.15-.11-.23-.31-.23a2.55,2.55,0,0,1-.39,0l-.46,0a1.75,1.75,0,0,1-.34-.14,1.54,1.54,0,0,1-.44-.34,3.84,3.84,0,0,1-.52-.68,9.69,9.69,0,0,1-.61-1.18c-.21-.48-.46-1-.74-1.72s-.6-1.39-.93-2.17l-1-2.38-1-2.38L295.2,44c-.28-.65-.52-1.2-.71-1.66s-.33-.76-.41-.94a3.69,3.69,0,0,0-.2-.4.62.62,0,0,0-.2-.22.45.45,0,0,0-.27-.07.38.38,0,0,0-.32.2,3.11,3.11,0,0,0-.34.67l-5.88,13.68a8.49,8.49,0,0,1-.46.95,2.26,2.26,0,0,1-.57.65,1.92,1.92,0,0,1-.84.32h-.66a.28.28,0,0,0-.2.07.23.23,0,0,0-.06.16.17.17,0,0,0,.1.18.64.64,0,0,0,.31.05l1.15,0,.94,0,.52,0c.24,0,.51,0,.8,0l.89,0,.81,0a.5.5,0,0,0,.27-.05.18.18,0,0,0,.09-.18.19.19,0,0,0-.06-.16.4.4,0,0,0-.27-.07h-.33a1.14,1.14,0,0,1-.71-.16.55.55,0,0,1-.19-.45,3.08,3.08,0,0,1,.08-.56,4.57,4.57,0,0,1,.25-.77l1.21-2.92a.22.22,0,0,1,.07-.12.21.21,0,0,1,.13,0ZM160.37,16.57a.35.35,0,0,1,0-.2.29.29,0,0,1,.16-.11l.54-.06h.79a3.3,3.3,0,0,1,.86.1,3.62,3.62,0,0,1,.92.37,3,3,0,0,1,.82.7,3.26,3.26,0,0,1,.59,1.11,5.45,5.45,0,0,1,0,3.1,3.26,3.26,0,0,1-.55,1.05,3.42,3.42,0,0,1-.68.65,1.64,1.64,0,0,1-.39.21,2.47,2.47,0,0,1-.47.12,7.18,7.18,0,0,1-.73,0c-.28,0-.58,0-.88-.05a3.94,3.94,0,0,1-.83-.16.28.28,0,0,1-.16-.14.49.49,0,0,1,0-.24Zm-2.87,8.61v1.89c0,.58,0,1.11,0,1.57a11.48,11.48,0,0,1-.07,1.17,2.11,2.11,0,0,1-.19.77.65.65,0,0,1-.47.38,1.82,1.82,0,0,1-.35.06l-.45,0a.47.47,0,0,0-.28.07.18.18,0,0,0-.07.16.18.18,0,0,0,.11.17.82.82,0,0,0,.32.06l.75,0,.81,0,.71,0h1l.89,0,1.06,0,1.05,0a1,1,0,0,0,.34-.06.19.19,0,0,0,.12-.17.21.21,0,0,0-.07-.16.33.33,0,0,0-.21-.07h-.33l-.4,0-.37,0a1,1,0,0,1-.51-.2.8.8,0,0,1-.25-.39,2.78,2.78,0,0,1-.11-.56c0-.31-.06-.69-.07-1.16s0-1,0-1.58V24.88c0-.07,0-.11,0-.14a.16.16,0,0,1,.12,0l2,.05a.78.78,0,0,1,.22,0,.44.44,0,0,1,.19.12l.33.44.5.73.62.89.67.91q.63.84,1.14,1.47a10.27,10.27,0,0,0,1,1.05,4.25,4.25,0,0,0,.95.67,3.09,3.09,0,0,0,.62.25,4.85,4.85,0,0,0,.77.14c.3,0,.65.05,1.06.05h2.15a.85.85,0,0,0,.32-.05.17.17,0,0,0,.12-.18.23.23,0,0,0-.08-.16.33.33,0,0,0-.21-.07h-.24l-.29,0a3.8,3.8,0,0,1-.51-.13,4.36,4.36,0,0,1-.8-.39,7,7,0,0,1-1.09-.92c-.68-.68-1.42-1.5-2.23-2.47S166,25,165,23.78a13.53,13.53,0,0,0,1.79-1.67,5.93,5.93,0,0,0,1-1.57,3.9,3.9,0,0,0,.32-1.57,3.11,3.11,0,0,0-.16-1,4,4,0,0,0-.39-.86,5.23,5.23,0,0,0-.52-.66,3.29,3.29,0,0,0-.51-.45,4.89,4.89,0,0,0-1.32-.59,8.08,8.08,0,0,0-1.47-.26c-.51-.05-1-.07-1.48-.07h-.73l-1,0-1,0H158.3l-.76,0-.89,0h-.91a1.2,1.2,0,0,0-.38,0,.16.16,0,0,0-.13.16.21.21,0,0,0,.1.17.58.58,0,0,0,.28.06h.51l.39.06a2.06,2.06,0,0,1,.55.23.75.75,0,0,1,.3.36,1.8,1.8,0,0,1,.12.59c0,.13,0,.28,0,.43s0,.33,0,.54v7.46Zm20.08,6.6q.6,0,1.26-.06a6.49,6.49,0,0,0,1.31-.27,4,4,0,0,0,1.18-.57,5.92,5.92,0,0,0,1.31-1.2,4.31,4.31,0,0,0,.72-1.35,4.64,4.64,0,0,0,.22-1.51,4.8,4.8,0,0,0-.35-1.88A5.1,5.1,0,0,0,182,23.21a11,11,0,0,0-2.32-1.66l-.92-.51a10.32,10.32,0,0,1-1.23-.78,4,4,0,0,1-.72-.71,1.85,1.85,0,0,1-.34-.67,2.07,2.07,0,0,1-.09-.7,2,2,0,0,1,.25-1,2.25,2.25,0,0,1,.68-.73,3,3,0,0,1,1-.45,4.33,4.33,0,0,1,1.16-.16,4.19,4.19,0,0,1,1.22.18,2.78,2.78,0,0,1,.81.4,2.56,2.56,0,0,1,.47.45,2.3,2.3,0,0,1,.37.57,2.94,2.94,0,0,1,.18.52,2,2,0,0,1,0,.34c0,.25.08.38.23.38s.16-.06.21-.17a1.66,1.66,0,0,0,.07-.52c0-.56,0-1,0-1.37s0-.63,0-.81,0-.34,0-.43a.21.21,0,0,0-.08-.17.55.55,0,0,0-.23-.11,10,10,0,0,0-1.27-.23,13.5,13.5,0,0,0-1.92-.12,7.87,7.87,0,0,0-2.21.3,6,6,0,0,0-1.8.88,4.21,4.21,0,0,0-1.22,1.38,3.76,3.76,0,0,0-.45,1.81,4.58,4.58,0,0,0,.33,1.78,4.74,4.74,0,0,0,1.1,1.6,10.59,10.59,0,0,0,2.1,1.55l1.3.77a7.1,7.1,0,0,1,1.19.84,3.7,3.7,0,0,1,.67.77,2.5,2.5,0,0,1,.3.74,3.49,3.49,0,0,1,.07.71,2.63,2.63,0,0,1-1.45,2.39,3.61,3.61,0,0,1-1.67.37,5,5,0,0,1-1.08-.11,3.9,3.9,0,0,1-1.06-.36,2.79,2.79,0,0,1-.87-.66,2.45,2.45,0,0,1-.57-1,4.39,4.39,0,0,1-.15-.6,2.86,2.86,0,0,1-.06-.53.45.45,0,0,0,0-.23.21.21,0,0,0-.2-.13.26.26,0,0,0-.2.16.93.93,0,0,0-.08.41c0,.09,0,.24,0,.43s0,.44,0,.7,0,.56,0,.86,0,.6,0,.89a1.35,1.35,0,0,0,0,.38.33.33,0,0,0,.13.21.83.83,0,0,0,.27.16,6.34,6.34,0,0,0,1.09.34,12.15,12.15,0,0,0,1.25.17c.44,0,.88.05,1.32.05m10.13-6.6c0,.71,0,1.36,0,2s0,1.15,0,1.61,0,.86-.08,1.16a2,2,0,0,1-.18.73.73.73,0,0,1-.48.32,1.7,1.7,0,0,1-.35.06l-.44,0a.49.49,0,0,0-.29.07.18.18,0,0,0-.07.16.2.2,0,0,0,.11.17.87.87,0,0,0,.32.06l.77,0,.85,0,.77,0h.55l.89,0,1.28,0,1.46,0a.66.66,0,0,0,.31-.06.22.22,0,0,0,.13-.17.21.21,0,0,0-.09-.16.46.46,0,0,0-.27-.07h-.38l-.41,0-.36,0a1.09,1.09,0,0,1-.51-.18.76.76,0,0,1-.27-.34,2.16,2.16,0,0,1-.12-.5c0-.31,0-.7-.07-1.18s0-1,0-1.62V18.5c0-.31,0-.57,0-.78s0-.39,0-.54,0-.3,0-.43a1.71,1.71,0,0,1,.21-.84.88.88,0,0,1,.63-.34l.35-.06h.32a.6.6,0,0,0,.26-.05.22.22,0,0,0,.1-.21c0-.06,0-.11-.13-.13a1,1,0,0,0-.33,0h-.74l-.82,0-.76,0h-1.19l-.81,0-.85,0h-.74a1.3,1.3,0,0,0-.4,0c-.09,0-.13.07-.13.13a.23.23,0,0,0,.09.21.6.6,0,0,0,.26.05,2.88,2.88,0,0,1,.42,0,2.57,2.57,0,0,1,.4.08,1.21,1.21,0,0,1,.41.2.79.79,0,0,1,.24.36,2,2,0,0,1,.12.59c0,.13,0,.28,0,.43s0,.33,0,.54v7.46ZM200.39,21v-1.7c0-.55,0-1.05,0-1.5s0-.79,0-1a.55.55,0,0,1,.06-.29.47.47,0,0,1,.22-.15,1.11,1.11,0,0,1,.34-.08c.15,0,.33,0,.51-.06h.53a12,12,0,0,1,1.43.06,10.55,10.55,0,0,1,1.6.28,8,8,0,0,1,1.65.63,7.68,7.68,0,0,1,1.61,1.1,5.08,5.08,0,0,1,.75.82,7.63,7.63,0,0,1,.67,1.18,7.13,7.13,0,0,1,.48,1.52,8.68,8.68,0,0,1,.19,1.9,11.21,11.21,0,0,1-.17,2.13,6.78,6.78,0,0,1-.6,1.83,4.62,4.62,0,0,1-1.14,1.43,5.76,5.76,0,0,1-1.42.88,6.1,6.1,0,0,1-1.61.46,11,11,0,0,1-1.88.14,6.82,6.82,0,0,1-1.48-.14,3.43,3.43,0,0,1-1-.32,1.31,1.31,0,0,1-.49-.41.92.92,0,0,1-.14-.38,4.35,4.35,0,0,1-.08-.57c0-.2,0-.4,0-.58s0-.42,0-.82,0-.91,0-1.51,0-1.3,0-2.07Zm-3,4.16c0,.67,0,1.3,0,1.88s0,1.12,0,1.58,0,.86-.08,1.17a2.36,2.36,0,0,1-.18.77.69.69,0,0,1-.48.38,1.7,1.7,0,0,1-.35.06l-.44,0a.49.49,0,0,0-.29.07.18.18,0,0,0-.07.16.2.2,0,0,0,.11.17.87.87,0,0,0,.32.06l.75,0,.81,0,.75,0h.53l1,0,1.27.1,1.37.08c.46,0,.9,0,1.31.05a14.52,14.52,0,0,0,2.78-.26,11.81,11.81,0,0,0,2.16-.64A9.1,9.1,0,0,0,210.2,30a7,7,0,0,0,1-.83,7.9,7.9,0,0,0,1.2-1.52,8.38,8.38,0,0,0,.9-2,8.65,8.65,0,0,0,.35-2.51,8.43,8.43,0,0,0-.3-2.33,7.25,7.25,0,0,0-.77-1.83,7,7,0,0,0-3.1-2.79,10.11,10.11,0,0,0-2.34-.74,16.64,16.64,0,0,0-2.4-.27c-.8,0-1.55,0-2.26,0h-1l-1,0-.91,0H198l-1.16,0-1.22,0a1.25,1.25,0,0,0-.38,0,.16.16,0,0,0-.13.16.2.2,0,0,0,.11.17.54.54,0,0,0,.27.06H196l.39.06a2.15,2.15,0,0,1,.56.23.79.79,0,0,1,.29.36,1.58,1.58,0,0,1,.12.59c0,.13,0,.28,0,.43s0,.33,0,.54,0,.47,0,.78v6.68Zm21.73-.35a.13.13,0,0,1-.09,0,.17.17,0,0,1,0-.12l2.18-5.49a.65.65,0,0,1,0-.13.13.13,0,0,1,.08-.08s0,0,.06.08,0,.08.05.13l2.12,5.52s0,.07,0,.09,0,0-.1,0Zm4.83,1.2a.32.32,0,0,1,.14,0,.31.31,0,0,1,.09.12l1.74,4.37a.41.41,0,0,1,0,.33.31.31,0,0,1-.2.16.43.43,0,0,0-.22.07.21.21,0,0,0-.06.16c0,.07.07.12.18.13a4.16,4.16,0,0,0,.49.05l1.78,0h2.54l.62,0a.78.78,0,0,0,.28-.07.16.16,0,0,0,.07-.14c0-.16-.1-.23-.31-.23l-.39,0-.45-.06a1.27,1.27,0,0,1-.35-.13,1.94,1.94,0,0,1-.44-.34,4.09,4.09,0,0,1-.52-.69,9.61,9.61,0,0,1-.61-1.18c-.21-.47-.45-1.05-.74-1.71s-.59-1.39-.92-2.17-.68-1.57-1-2.38l-1-2.38c-.32-.77-.63-1.48-.9-2.13L223,16.19c-.2-.45-.33-.77-.41-1s-.14-.29-.2-.39a.66.66,0,0,0-.2-.23.45.45,0,0,0-.27-.07.42.42,0,0,0-.32.21,2.77,2.77,0,0,0-.34.66l-5.88,13.67a6.5,6.5,0,0,1-.46.95,2.14,2.14,0,0,1-.57.65,1.87,1.87,0,0,1-.84.32h-.33l-.33,0a.24.24,0,0,0-.2.07.21.21,0,0,0-.06.16.19.19,0,0,0,.1.18.8.8,0,0,0,.31.05l1.15,0,.94,0,.52,0,.8,0,.89,0,.81,0a.62.62,0,0,0,.27-.05.23.23,0,0,0,0-.34.38.38,0,0,0-.27-.07h-.33a1.13,1.13,0,0,1-.71-.17.53.53,0,0,1-.19-.45,2.88,2.88,0,0,1,.08-.55,5,5,0,0,1,.25-.78l1.21-2.91a.22.22,0,0,1,.07-.12.21.21,0,0,1,.13,0Zm13-5v-1.7c0-.55,0-1.05,0-1.5s0-.79,0-1a.55.55,0,0,1,.06-.29.47.47,0,0,1,.22-.15,1.11,1.11,0,0,1,.34-.08c.15,0,.33,0,.52-.06h.52a12,12,0,0,1,1.43.06,10.55,10.55,0,0,1,1.6.28,8,8,0,0,1,1.65.63,7.68,7.68,0,0,1,1.61,1.1,5.08,5.08,0,0,1,.75.82,6.89,6.89,0,0,1,.67,1.18,7.13,7.13,0,0,1,.48,1.52,8.68,8.68,0,0,1,.19,1.9,11.21,11.21,0,0,1-.17,2.13,6.78,6.78,0,0,1-.6,1.83,4.62,4.62,0,0,1-1.14,1.43,5.76,5.76,0,0,1-1.42.88,6.1,6.1,0,0,1-1.61.46,11,11,0,0,1-1.88.14,6.82,6.82,0,0,1-1.48-.14,3.43,3.43,0,0,1-1-.32,1.39,1.39,0,0,1-.49-.41.92.92,0,0,1-.14-.38,4.35,4.35,0,0,1-.08-.57c0-.2,0-.4,0-.58s0-.42,0-.82,0-.91,0-1.51,0-1.3,0-2.07Zm-3,4.16c0,.67,0,1.3,0,1.88s0,1.12,0,1.58,0,.86-.08,1.17a2.36,2.36,0,0,1-.18.77.67.67,0,0,1-.48.38,1.7,1.7,0,0,1-.35.06l-.44,0a.49.49,0,0,0-.29.07.18.18,0,0,0-.07.16.2.2,0,0,0,.11.17.87.87,0,0,0,.32.06l.75,0,.81,0,.75,0h.53l1,0,1.27.1,1.37.08c.46,0,.9,0,1.31.05a14.52,14.52,0,0,0,2.78-.26,11.81,11.81,0,0,0,2.16-.64,9.1,9.1,0,0,0,1.57-.83,7,7,0,0,0,1-.83A7.9,7.9,0,0,0,249,27.6a8.38,8.38,0,0,0,.9-2,8.65,8.65,0,0,0,.35-2.51,8.43,8.43,0,0,0-.3-2.33,7.25,7.25,0,0,0-.77-1.83,7,7,0,0,0-3.1-2.79,10.11,10.11,0,0,0-2.34-.74,16.64,16.64,0,0,0-2.4-.27c-.8,0-1.55,0-2.26,0h-1l-1,0-.91,0h-1.54l-1.15,0-1.23,0a1.25,1.25,0,0,0-.38,0,.16.16,0,0,0-.13.16.2.2,0,0,0,.11.17.54.54,0,0,0,.27.06h.51l.39.06a2.15,2.15,0,0,1,.56.23.88.88,0,0,1,.3.36,1.82,1.82,0,0,1,.11.59c0,.13,0,.28,0,.43s0,.33,0,.54,0,.47,0,.78v6.68ZM98,19.66H98c.12.11.34.33.66.67l1.22,1.28c.48.51,1,1.05,1.59,1.64s1.18,1.18,1.8,1.78l1.82,1.76L107,28.52l1.64,1.56c.5.48.93.88,1.29,1.21a1.82,1.82,0,0,0,.4.32,1,1,0,0,0,.52.14.31.31,0,0,0,.25-.16,1.28,1.28,0,0,0,.11-.53l.25-13.7a5.72,5.72,0,0,1,.09-1,.93.93,0,0,1,.73-.82,1.88,1.88,0,0,1,.37-.06,1.69,1.69,0,0,1,.32,0,.64.64,0,0,0,.29-.07.19.19,0,0,0,.09-.16.16.16,0,0,0-.14-.17,1.22,1.22,0,0,0-.37,0q-.83,0-1.41,0l-.79,0h-.69l-1,0-1.16,0a1.49,1.49,0,0,0-.4,0c-.11,0-.16.08-.16.17a.2.2,0,0,0,.07.16.61.61,0,0,0,.29.07h.36a3.28,3.28,0,0,1,.43,0,1.12,1.12,0,0,1,.38.09,1,1,0,0,1,.44.29,1.51,1.51,0,0,1,.24.58,6.36,6.36,0,0,1,.09,1l.23,9.66h-.1a6,6,0,0,1-.49-.48c-.25-.25-.56-.56-.92-.94L107,24.6c-.42-.42-.82-.83-1.22-1.22l-1.06-1.06-1.95-1.92L101,18.59,99.43,17l-1.1-1.12-.52-.52c-.19-.2-.36-.37-.52-.51a.76.76,0,0,0-.45-.21.32.32,0,0,0-.27.21,1.13,1.13,0,0,0-.11.53l-.2,12.88c0,.63,0,1.12-.06,1.49a2.27,2.27,0,0,1-.2.82.68.68,0,0,1-.43.33l-.52.08-.51,0a.41.41,0,0,0-.25.07.17.17,0,0,0-.1.16.19.19,0,0,0,.14.19,1.22,1.22,0,0,0,.37,0l1.09,0,.87,0,.46,0,1.07,0,1.85,0a1.18,1.18,0,0,0,.37-.05.18.18,0,0,0,.14-.18.21.21,0,0,0-.09-.17.6.6,0,0,0-.29-.06l-.58,0a2.47,2.47,0,0,1-.6-.13.71.71,0,0,1-.38-.3,2.1,2.1,0,0,1-.26-.72,8.14,8.14,0,0,1-.13-1.33L98,19.66Zm19,5.52c0,.71,0,1.36,0,2s0,1.15,0,1.61,0,.86-.08,1.16a2,2,0,0,1-.18.73.71.71,0,0,1-.48.32,1.7,1.7,0,0,1-.35.06l-.44,0a.49.49,0,0,0-.29.07.21.21,0,0,0-.07.16.2.2,0,0,0,.11.17.88.88,0,0,0,.33.06l.76,0,.85,0,.77,0h.55l.89,0,1.28,0,1.46,0a.63.63,0,0,0,.31-.06.2.2,0,0,0,.13-.17.21.21,0,0,0-.09-.16.44.44,0,0,0-.27-.07h-.38l-.41,0L121,31a1.09,1.09,0,0,1-.51-.18.76.76,0,0,1-.27-.34,2.18,2.18,0,0,1-.11-.5c0-.31-.06-.7-.08-1.18s0-1,0-1.62,0-1.25,0-2V19.67c0-.46,0-.85,0-1.17s0-.57,0-.78,0-.39,0-.54,0-.3,0-.43a1.71,1.71,0,0,1,.21-.84.93.93,0,0,1,.64-.34l.34-.06h.32a.62.62,0,0,0,.27-.05.23.23,0,0,0,.09-.21.14.14,0,0,0-.12-.13,1,1,0,0,0-.34,0h-.74l-.82,0-.76,0h-1.19l-.81,0-.85,0h-.73a1.3,1.3,0,0,0-.4,0c-.09,0-.14.07-.14.13a.23.23,0,0,0,.09.21.62.62,0,0,0,.27.05,2.75,2.75,0,0,1,.41,0,2.48,2.48,0,0,1,.41.08,1.36,1.36,0,0,1,.4.2.75.75,0,0,1,.25.36,2.07,2.07,0,0,1,.11.59c0,.13,0,.28,0,.43v.54c0,.21,0,.47,0,.78v6.68Zm14,5.29c.14.34.26.61.36.8a1.67,1.67,0,0,0,.28.4.45.45,0,0,0,.28.11.42.42,0,0,0,.29-.13,2.43,2.43,0,0,0,.32-.49,10.42,10.42,0,0,0,.46-1l.69-1.5c.28-.64.61-1.39,1-2.25l1.3-2.89c.3-.66.58-1.25.82-1.76s.46-1,.66-1.41l.6-1.3c.2-.43.41-.91.63-1.41s.36-.81.5-1.07a3.71,3.71,0,0,1,.38-.57,1.28,1.28,0,0,1,.3-.28,1.33,1.33,0,0,1,.4-.19l.39-.06H141a.48.48,0,0,0,.26-.06.2.2,0,0,0,.09-.17.18.18,0,0,0-.12-.17,1.44,1.44,0,0,0-.34,0l-.77,0-.78,0h-1.07l-.84,0-1.06,0a2.51,2.51,0,0,0-.48,0c-.11,0-.16.09-.16.17a.21.21,0,0,0,.12.17.53.53,0,0,0,.26.06,3.62,3.62,0,0,1,.46,0,2.66,2.66,0,0,1,.44.08.56.56,0,0,1,.23.13.37.37,0,0,1,.07.25,1.34,1.34,0,0,1-.06.36,3.09,3.09,0,0,1-.14.43l-.36.93c-.16.4-.35.88-.58,1.43s-.45,1.12-.71,1.74-.51,1.25-.78,1.89-.52,1.25-.76,1.85l-.69,1.62c-.2.49-.37.9-.52,1.23h-.07l-3.78-9.74c-.16-.39-.28-.72-.38-1a3.61,3.61,0,0,1-.14-.64.61.61,0,0,1,.06-.25.58.58,0,0,1,.17-.18.81.81,0,0,1,.37-.12,2.64,2.64,0,0,1,.5,0,.48.48,0,0,0,.26-.06.19.19,0,0,0,.1-.17c0-.08-.06-.13-.16-.17a2,2,0,0,0-.38,0l-1.11,0-1,0h-1.67l-1.13,0-1.21,0a1.45,1.45,0,0,0-.4,0c-.11,0-.16.08-.16.17a.28.28,0,0,0,0,.16.34.34,0,0,0,.2.07,2.56,2.56,0,0,1,.38,0,2.85,2.85,0,0,1,.49.06,2.56,2.56,0,0,1,.68.24,1.5,1.5,0,0,1,.51.47,4.56,4.56,0,0,1,.47.9L131,30.47Zm13-5.29c0,.67,0,1.3,0,1.88s0,1.12,0,1.58,0,.86-.08,1.17a2.36,2.36,0,0,1-.18.77.69.69,0,0,1-.48.38,1.7,1.7,0,0,1-.35.06l-.44,0a.49.49,0,0,0-.29.07.18.18,0,0,0-.07.16.2.2,0,0,0,.11.17.87.87,0,0,0,.32.06l.75,0,.81,0,.75,0h.53l1.14,0,1.47,0c.55,0,1.16,0,1.85.06l2.29,0,.65,0a.6.6,0,0,0,.36-.15.88.88,0,0,0,.19-.39,4.55,4.55,0,0,0,.1-.49c0-.22.07-.45.1-.69s.05-.49.08-.71,0-.39,0-.52a1.27,1.27,0,0,0,0-.34.19.19,0,0,0-.17-.17.21.21,0,0,0-.17.08.81.81,0,0,0-.08.25,3.15,3.15,0,0,1-.34,1.05,1.35,1.35,0,0,1-.64.56,2.59,2.59,0,0,1-.68.19,6.31,6.31,0,0,1-.76.08l-.68,0a9.16,9.16,0,0,1-1.79-.14,1.56,1.56,0,0,1-.95-.55,2,2,0,0,1-.3-1.13c0-.17,0-.39,0-.67v-.9c0-.32,0-.63,0-.93V23.52a.38.38,0,0,1,0-.16.1.1,0,0,1,.1-.07h1.37l.9,0c.3,0,.56,0,.79,0a2.51,2.51,0,0,1,.47,0,1.9,1.9,0,0,1,.67.15,1.1,1.1,0,0,1,.39.29,1.14,1.14,0,0,1,.19.4,3,3,0,0,1,0,.41c0,.14,0,.27,0,.38a.18.18,0,0,0,0,.13.22.22,0,0,0,.16.05.16.16,0,0,0,.15-.08.93.93,0,0,0,.07-.2c0-.07,0-.14,0-.21s0-.11,0-.23a3,3,0,0,1,0-.39,3.15,3.15,0,0,1,0-.44q0-.22,0-.39c.05-.36.08-.65.11-.87s0-.38.06-.5a2.13,2.13,0,0,0,0-.22.22.22,0,0,0-.05-.16.17.17,0,0,0-.13-.07.28.28,0,0,0-.15.08c0,.06-.12.12-.2.2a.91.91,0,0,1-.42.24,4.23,4.23,0,0,1-.66.1l-.56,0H147.2a.13.13,0,0,1-.13-.07.38.38,0,0,1,0-.16V16.52a.33.33,0,0,1,0-.15.12.12,0,0,1,.12-.05h.5l.82,0,.93,0,.8,0,.47,0a3,3,0,0,1,.85.17,1,1,0,0,1,.42.27,1.86,1.86,0,0,1,.22.35,1.4,1.4,0,0,1,.09.29c0,.1,0,.2,0,.29s0,.16,0,.22a.56.56,0,0,0,0,.2.15.15,0,0,0,.15.08.2.2,0,0,0,.14-.08.53.53,0,0,0,.08-.15,1.3,1.3,0,0,1,0-.13,1.68,1.68,0,0,0,0-.3c0-.13,0-.28,0-.43s0-.29,0-.42,0-.22,0-.28c0-.33,0-.59.07-.78a3.16,3.16,0,0,1,.08-.42,1,1,0,0,0,0-.21.32.32,0,0,0,0-.14.12.12,0,0,0-.12-.06.38.38,0,0,0-.17,0,1.39,1.39,0,0,1-.19.06l-.39.06-.56.07h-6.13l-.86,0-1.16,0h-1.23a1.29,1.29,0,0,0-.38,0,.17.17,0,0,0-.13.16.18.18,0,0,0,.11.17.55.55,0,0,0,.28.06,4.1,4.1,0,0,1,.5,0,1.69,1.69,0,0,1,.39.06,1.85,1.85,0,0,1,.56.23.92.92,0,0,1,.3.35,1.82,1.82,0,0,1,.11.59c0,.13,0,.28,0,.43s0,.33,0,.54,0,.47,0,.79v6.68Z"/><path d="M76.79,77.94a5,5,0,0,1-1.72-1,4.89,4.89,0,0,1-.74-.87,4.8,4.8,0,0,1-.46-.94,4.54,4.54,0,0,1-.23-.95,5.79,5.79,0,0,1-.07-.92,5.22,5.22,0,0,1,.06-.73,4.62,4.62,0,0,1,.22-.87,4.46,4.46,0,0,1,.43-.92,4.27,4.27,0,0,1,.68-.87,4.15,4.15,0,0,1,.63-.52,4,4,0,0,1,.82-.43,6.83,6.83,0,0,1,1-.27,6.5,6.5,0,0,1,1.3-.11l.85,0a7.25,7.25,0,0,1,1,.12l.66.11c.21,0,.41.06.61.07a.27.27,0,0,1,.13,0A.12.12,0,0,1,82,69s0,.12,0,.22,0,.25,0,.48a3.28,3.28,0,0,0,0,.34c0,.13,0,.25,0,.38s0,.23,0,.33V71c0,.17,0,.26-.11.26s-.1-.09-.1-.26a2,2,0,0,0-.14-.71,1.43,1.43,0,0,0-.38-.56,2.81,2.81,0,0,0-1-.5A5,5,0,0,0,78.66,69a6.81,6.81,0,0,0-1.08.08,5.73,5.73,0,0,0-.8.21,2.85,2.85,0,0,0-.58.3,2.24,2.24,0,0,0-.4.32,3.27,3.27,0,0,0-.9,1.47,7,7,0,0,0-.21,1.77,4.7,4.7,0,0,0,1.24,3.16,4.7,4.7,0,0,0,1.42,1,4.36,4.36,0,0,0,1.82.38,5.83,5.83,0,0,0,1.25-.12,1.76,1.76,0,0,0,.91-.51,1.58,1.58,0,0,0,.32-.54,2.63,2.63,0,0,0,.14-.5c0-.12.07-.18.13-.18s0,0,.06,0A.27.27,0,0,1,82,76s0,.1,0,.23,0,.28-.06.44l-.09.5c0,.17-.07.31-.1.42a.81.81,0,0,1-.11.23.58.58,0,0,1-.21.13,3.52,3.52,0,0,1-.45.13,4.68,4.68,0,0,1-.56.09l-.61.05-.62,0a7.18,7.18,0,0,1-2.38-.34"/><path d="M86.36,70.33a2.69,2.69,0,0,1,.15-.34.13.13,0,0,1,.11-.07.13.13,0,0,1,.13.1l.13.28c0,.08.11.25.22.52l.4,1L88,73.08l.55,1.36c.18.45.36.87.52,1.27l.41,1a5.08,5.08,0,0,0,.28.57,2.14,2.14,0,0,0,.25.34.77.77,0,0,0,.22.17,1,1,0,0,0,.19.08l.23,0h.2L91,78A.07.07,0,0,1,91,78s0,0-.08.06a.47.47,0,0,1-.17,0H89.6l-.57,0-.27,0c-.08,0-.11,0-.11-.06s0,0,0,0l0,0,.11-.09a.2.2,0,0,0,0-.2l-1-2.42a.12.12,0,0,0-.1-.06H85.22a.11.11,0,0,0-.11.09l-.62,1.69a2,2,0,0,0-.17.7.24.24,0,0,0,.12.23.58.58,0,0,0,.26.06h.1c.07,0,.11,0,.11.09s-.06.08-.16.08H84.5l-.3,0h-.86l-.34,0h-.34c-.14,0-.21,0-.21-.08s0-.09.1-.09h.16l.16,0a.78.78,0,0,0,.57-.31,3.52,3.52,0,0,0,.35-.65Zm1.22,4.39s0,0,0-.07l-1.08-2.89c-.07-.16-.13-.16-.19,0l-1,2.89s0,.07,0,.07Z"/><path d="M100.63,76.74c0,.09,0,.19,0,.3a1.17,1.17,0,0,0,.09.32,1,1,0,0,0,.16.29.47.47,0,0,0,.27.18,2,2,0,0,0,.43.09h.28c.06,0,.09,0,.09.07s0,.06-.07.08l-.16,0h-.34l-.53,0h-.57l-.42,0a1.29,1.29,0,0,1-.26-.05s0,0,0-.06a.09.09,0,0,1,.07-.09s.06,0,.07-.12a1.19,1.19,0,0,0,0-.25l-.52-5.34h0l-2.64,5.39a3.64,3.64,0,0,1-.24.45c0,.07-.09.11-.14.11A.17.17,0,0,1,96,78a3.65,3.65,0,0,1-.23-.39c-.08-.13-.17-.3-.29-.52s-.24-.44-.36-.68l-.36-.7q-.18-.33-.27-.54c-.09-.17-.2-.39-.33-.67l-.42-.86-.39-.81-.25-.54h0L92.63,77c0,.09,0,.17,0,.27v.27a.29.29,0,0,0,.26.3l.25,0h.17c.06,0,.09,0,.09.07s-.07.1-.2.1h-.31l-.31,0h-.78l-.28,0h-.26c-.12,0-.18,0-.18-.1s0-.07.11-.07h.13l.19,0a.35.35,0,0,0,.33-.3c0-.16.07-.34.1-.54l.79-6.9q0-.18.12-.18a.25.25,0,0,1,.23.16l3.3,6.56,3.18-6.55c.06-.11.12-.17.18-.17s.13.09.16.28Z"/><path d="M103.92,73.17v-2c0-.1,0-.19,0-.27a1.16,1.16,0,0,0-.1-.41.43.43,0,0,0-.35-.17l-.18,0h-.19a.08.08,0,0,1-.09-.09s.06-.08.18-.08H106a4.48,4.48,0,0,1,.88.07,3.12,3.12,0,0,1,.61.16,2.56,2.56,0,0,1,.38.2l.21.16a2,2,0,0,1,.37.51,1.55,1.55,0,0,1,.18.76,2.51,2.51,0,0,1-.21,1,2.26,2.26,0,0,1-.57.79,2.69,2.69,0,0,1-.89.51,3.51,3.51,0,0,1-1.15.18h-.31a.13.13,0,0,1-.08,0,.11.11,0,0,1,0-.07.11.11,0,0,1,.05-.09l.23,0a2.66,2.66,0,0,0,.82-.13,2.35,2.35,0,0,0,.64-.36,1.79,1.79,0,0,0,.42-.54,1.53,1.53,0,0,0,.15-.67c0-.09,0-.19,0-.31a1.6,1.6,0,0,0-.07-.41,2.08,2.08,0,0,0-.19-.45,1.93,1.93,0,0,0-.34-.44,1.69,1.69,0,0,0-.44-.31,2.14,2.14,0,0,0-.42-.15,1.72,1.72,0,0,0-.37-.05h-.25l-.33,0-.28.05c-.06,0-.09.07-.09.2V75c0,.51,0,1,0,1.36s0,.71,0,.92a1,1,0,0,0,.11.38.44.44,0,0,0,.33.18l.26,0h.22A.08.08,0,0,1,106,78s-.06.08-.18.08h-.46l-.42,0H104l-.35,0h-.3c-.12,0-.18,0-.18-.08a.08.08,0,0,1,.09-.09h.17l.17,0a.28.28,0,0,0,.2-.18,2.25,2.25,0,0,0,.08-.38,8.57,8.57,0,0,0,.06-.92V73.17Z"/><path d="M110.64,73.17v-2c0-.1,0-.19,0-.27a1.22,1.22,0,0,0-.1-.4.41.41,0,0,0-.35-.18l-.18,0h-.19a.08.08,0,0,1-.09-.09s.06-.08.18-.08h2.36c.12,0,.18,0,.18.08s0,.09-.1.09h-.12l-.15,0a.32.32,0,0,0-.28.18,1,1,0,0,0-.09.4,2.13,2.13,0,0,0,0,.27c0,.09,0,.22,0,.39v3.09a7.1,7.1,0,0,0,.06,1,3.82,3.82,0,0,0,.17.72,2,2,0,0,0,.26.51,2.22,2.22,0,0,0,.32.36,2,2,0,0,0,.77.47,3.28,3.28,0,0,0,.86.1,2.19,2.19,0,0,0,1-.2,2.14,2.14,0,0,0,.73-.54,2.33,2.33,0,0,0,.51-1.1,8,8,0,0,0,.12-1.46V72.18c0-.26,0-.47,0-.63s0-.29,0-.38a2.62,2.62,0,0,1,0-.27,1,1,0,0,0-.09-.4.39.39,0,0,0-.34-.18l-.18,0h-.2s-.08,0-.08-.09.05-.08.17-.08h2.1c.12,0,.17,0,.17.08s0,.09-.08.09h-.13l-.15,0a.39.39,0,0,0-.29.18,1.19,1.19,0,0,0-.09.4,2.26,2.26,0,0,0,0,.27V74.3c0,.29,0,.58,0,.88A6.19,6.19,0,0,1,117,76a4.09,4.09,0,0,1-.31.78,2.19,2.19,0,0,1-.52.65,3.05,3.05,0,0,1-.6.41,3.48,3.48,0,0,1-.6.23,3.11,3.11,0,0,1-.57.1l-.52,0h-.4a3.59,3.59,0,0,1-.58-.09,3.65,3.65,0,0,1-.66-.22,2,2,0,0,1-.63-.43,2.53,2.53,0,0,1-.37-.42,2.8,2.8,0,0,1-.31-.57,4.16,4.16,0,0,1-.2-.76,6,6,0,0,1-.08-1Z"/><path d="M120.14,78.18a2.57,2.57,0,0,1-.77-.23c-.07,0-.12-.08-.13-.12a.75.75,0,0,1,0-.27,6.73,6.73,0,0,1,0-.69c0-.2,0-.34,0-.43s0-.18.09-.18.1,0,.1.13a1.16,1.16,0,0,0,0,.17.76.76,0,0,0,0,.21,1.11,1.11,0,0,0,.23.49,1.46,1.46,0,0,0,.42.32,2.28,2.28,0,0,0,.52.18,2.64,2.64,0,0,0,.55.06,1.67,1.67,0,0,0,1.23-.41,1.32,1.32,0,0,0,.41-1,1.38,1.38,0,0,0-.32-.93,3.45,3.45,0,0,0-.43-.42l-.62-.48-.5-.38A4.92,4.92,0,0,1,119.77,73a2,2,0,0,1-.35-1.08,1.9,1.9,0,0,1,.18-.83,1.68,1.68,0,0,1,.49-.63,2.33,2.33,0,0,1,.77-.39,3.35,3.35,0,0,1,1-.13c.21,0,.42,0,.62,0l.51.09a1.48,1.48,0,0,0,.24,0h.14c.08,0,.11,0,.11.07s0,.13,0,.31a8,8,0,0,0,0,.81c0,.16,0,.24-.08.24s-.07,0-.08,0a.87.87,0,0,1,0-.1,1.54,1.54,0,0,0-.07-.27,1.37,1.37,0,0,0-.09-.25,1,1,0,0,0-.12-.14.9.9,0,0,0-.25-.17,1.69,1.69,0,0,0-.42-.15,2.8,2.8,0,0,0-.63-.06,1.83,1.83,0,0,0-1,.29,1,1,0,0,0-.42.85,1.65,1.65,0,0,0,.06.46,1.5,1.5,0,0,0,.24.42,3.63,3.63,0,0,0,.44.42c.17.14.4.31.67.49l.31.21a7,7,0,0,1,.84.65,3.77,3.77,0,0,1,.55.62,2.25,2.25,0,0,1,.31.62,2.44,2.44,0,0,1,.09.66,2.08,2.08,0,0,1-1,1.8,2.06,2.06,0,0,1-.82.3,7.26,7.26,0,0,1-.92.07,6.09,6.09,0,0,1-.82-.06"/><path d="M130.84,73.17V71.56c0-.17,0-.3,0-.39a2.13,2.13,0,0,0,0-.27,1,1,0,0,0-.1-.41.41.41,0,0,0-.34-.17l-.18,0H130c-.05,0-.08,0-.08-.09s.05-.08.17-.08h3.7a8,8,0,0,1,1.15.11,5.21,5.21,0,0,1,1.19.35,3.53,3.53,0,0,1,1.08.74,4,4,0,0,1,.74,1.08,3.57,3.57,0,0,1,.33,1.6,4.27,4.27,0,0,1-.37,1.76,3.6,3.6,0,0,1-.37.67,5.35,5.35,0,0,1-.44.54,3.22,3.22,0,0,1-.46.4,3.29,3.29,0,0,1-.68.39,5.89,5.89,0,0,1-.95.31,5.7,5.7,0,0,1-1.23.12l-.76,0-.77,0-.61,0h-.73l-.35,0h-.31c-.11,0-.17,0-.17-.08s0-.09.08-.09h.17l.17,0a.25.25,0,0,0,.2-.18,3.63,3.63,0,0,0,.09-.38,6.87,6.87,0,0,0,.05-.92c0-.4,0-.85,0-1.36Zm1,1.14v1.51c0,.2,0,.37,0,.51v.28c0,.14,0,.28,0,.44a.82.82,0,0,0,.09.32.47.47,0,0,0,.16.15,1.43,1.43,0,0,0,.32.14,3.71,3.71,0,0,0,.52.1q.33,0,.81,0a4,4,0,0,0,1.41-.24,3.32,3.32,0,0,0,1.15-.71,2.55,2.55,0,0,0,.37-.48,3.05,3.05,0,0,0,.27-.61,4.79,4.79,0,0,0,.16-.7,4.31,4.31,0,0,0,0-1.64,4.58,4.58,0,0,0-.25-.74,2.61,2.61,0,0,0-.34-.57c-.12-.16-.24-.3-.34-.42a4.16,4.16,0,0,0-.81-.62,3.41,3.41,0,0,0-.86-.36,4.66,4.66,0,0,0-.92-.16c-.31,0-.63,0-1,0l-.38,0a1,1,0,0,0-.28,0,.2.2,0,0,0-.14.21Z"/><path d="M140.89,73.17V71.56c0-.17,0-.3,0-.39a2.13,2.13,0,0,0,0-.27,1.16,1.16,0,0,0-.1-.41.42.42,0,0,0-.35-.17l-.18,0H140a.08.08,0,0,1-.09-.09s.06-.08.18-.08H144l.3,0,.2,0,.07,0,.08,0s0,0,0,.1a.67.67,0,0,1,0,.17,2.54,2.54,0,0,0-.06.33v.13a1.23,1.23,0,0,0,0,.2,1.83,1.83,0,0,0,0,.21,1.39,1.39,0,0,1,0,.15.3.3,0,0,1,0,.08.06.06,0,0,1-.06,0c-.06,0-.09,0-.09-.13a1.16,1.16,0,0,0,0-.17.8.8,0,0,0,0-.21l-.07-.11a.32.32,0,0,0-.13-.08,1,1,0,0,0-.22-.07l-.36-.06-.31,0h-1.27s-.06,0-.06.12v2.86q0,.12.06.12h1.45a2.8,2.8,0,0,0,.38,0l.32,0a.36.36,0,0,0,.21-.11.6.6,0,0,1,.16-.13s.06,0,.06.08a1,1,0,0,1,0,.19,2.5,2.5,0,0,0-.05.4,3.15,3.15,0,0,0,0,.39c0,.15,0,.25,0,.29a.69.69,0,0,1,0,.13.08.08,0,0,1-.08.07s-.08,0-.08-.1v-.16a.77.77,0,0,0-.05-.19.35.35,0,0,0-.13-.2.81.81,0,0,0-.42-.12l-.36,0H142s-.07,0-.07.07v2.69a2.11,2.11,0,0,0,.06.42.48.48,0,0,0,.19.27,1,1,0,0,0,.4.12,5.55,5.55,0,0,0,.65,0h.55a1.64,1.64,0,0,0,.55-.1.87.87,0,0,0,.33-.26,1.11,1.11,0,0,0,.16-.47c0-.11.07-.17.11-.17a.07.07,0,0,1,.07,0,.45.45,0,0,1,0,.12,1.36,1.36,0,0,1,0,.15c0,.09,0,.19,0,.3s0,.22,0,.32a1.59,1.59,0,0,1-.05.24.48.48,0,0,1-.07.16.25.25,0,0,1-.1.08.43.43,0,0,1-.17,0h-1.36l-.81,0c-.23,0-.42,0-.57,0h-.81l-.33,0h-.3c-.12,0-.17,0-.17-.08s0-.09.08-.09l.17,0,.17,0a.24.24,0,0,0,.2-.17,2.39,2.39,0,0,0,.08-.39,5.3,5.3,0,0,0,.06-.92c0-.4,0-.85,0-1.36Z"/><path d="M152.05,72.32V70.4c0-.19,0-.34,0-.45s0-.22,0-.32a1.1,1.1,0,0,0-.13-.48.6.6,0,0,0-.41-.23l-.2,0h-.22c-.07,0-.1,0-.1-.08s.07-.1.2-.1H154a6.64,6.64,0,0,1,1.18.1,2.44,2.44,0,0,1,1.09.45,2.62,2.62,0,0,1,.26.24,2.75,2.75,0,0,1,.28.37,2.68,2.68,0,0,1,.23.48,1.93,1.93,0,0,1,.09.6,3.17,3.17,0,0,1-.34,1.4,5.26,5.26,0,0,1-1.16,1.47l1.4,1.79c.42.54.81,1,1.18,1.39a2.93,2.93,0,0,0,.89.69,2.67,2.67,0,0,0,.62.2l.3,0h.19c.07,0,.11,0,.11.07a.07.07,0,0,1-.06.08.69.69,0,0,1-.24,0h-.88a4.33,4.33,0,0,1-.81,0,1.53,1.53,0,0,1-.52-.18,2.74,2.74,0,0,1-.77-.67c-.25-.3-.55-.69-.91-1.16l-.39-.53c-.14-.18-.26-.36-.38-.52l-.34-.46-.24-.33a.21.21,0,0,0-.16-.07l-1.53,0c-.06,0-.09,0-.09.1v.3c0,.6,0,1.13,0,1.6a9.73,9.73,0,0,0,.06,1.1,1.24,1.24,0,0,0,.11.46.45.45,0,0,0,.37.22l.31,0h.25c.07,0,.1,0,.1.07s-.07.1-.2.1h-.52l-.48,0h-1l-.39,0h-.33c-.14,0-.2,0-.2-.1s0-.07.1-.07h.18l.19,0a.33.33,0,0,0,.25-.22,2.39,2.39,0,0,0,.11-.46,10.17,10.17,0,0,0,0-1.1c0-.47,0-1,0-1.6Zm1,1.08a.15.15,0,0,0,.09.14,1.42,1.42,0,0,0,.52.15,6.56,6.56,0,0,0,.79,0,2.71,2.71,0,0,0,.47,0,1.15,1.15,0,0,0,.46-.19,1.75,1.75,0,0,0,.54-.72,3,3,0,0,0,.21-1.2,2.7,2.7,0,0,0-.57-1.82,2,2,0,0,0-1.57-.66,3.89,3.89,0,0,0-.51,0,1.65,1.65,0,0,0-.33,0,.14.14,0,0,0-.1.14Z"/><path d="M160.57,73.17v-2c0-.1,0-.19,0-.27a1.22,1.22,0,0,0-.1-.4.41.41,0,0,0-.35-.18l-.18,0h-.19a.08.08,0,0,1-.09-.09s.06-.08.17-.08h2.36c.13,0,.19,0,.19.08s0,.09-.1.09h-.12l-.15,0a.32.32,0,0,0-.28.18,1.16,1.16,0,0,0-.1.4c0,.08,0,.17,0,.27s0,.22,0,.39v3.09a7.1,7.1,0,0,0,.06,1,3.82,3.82,0,0,0,.17.72,2,2,0,0,0,.25.51,2.28,2.28,0,0,0,.33.36,2,2,0,0,0,.77.47,3.25,3.25,0,0,0,.85.1,2.23,2.23,0,0,0,1-.2,2.14,2.14,0,0,0,.73-.54,2.33,2.33,0,0,0,.51-1.1,9,9,0,0,0,.11-1.46v-3c0-.16,0-.29,0-.38a2.62,2.62,0,0,1,0-.27,1,1,0,0,0-.09-.4c-.05-.1-.16-.16-.35-.18l-.18,0h-.19c-.06,0-.08,0-.08-.09s.05-.08.17-.08h2.1c.11,0,.17,0,.17.08s0,.09-.08.09h-.13l-.15,0a.39.39,0,0,0-.29.18,1,1,0,0,0-.09.4,2.13,2.13,0,0,0,0,.27V74.3c0,.29,0,.58,0,.88a6.19,6.19,0,0,1-.15.86,4.09,4.09,0,0,1-.31.78,2.19,2.19,0,0,1-.52.65,2.84,2.84,0,0,1-.61.41,3.06,3.06,0,0,1-1.16.33l-.52,0h-.4a3.43,3.43,0,0,1-.58-.09,3.74,3.74,0,0,1-.67-.22,2.1,2.1,0,0,1-.62-.43,2.53,2.53,0,0,1-.37-.42,2.8,2.8,0,0,1-.31-.57,3.48,3.48,0,0,1-.2-.76,6,6,0,0,1-.08-1Z"/><path d="M170.07,78.18a2.57,2.57,0,0,1-.77-.23c-.07,0-.12-.08-.13-.12a.75.75,0,0,1,0-.27,6.73,6.73,0,0,1,0-.69c0-.2,0-.34,0-.43s0-.18.09-.18.1,0,.1.13a1.16,1.16,0,0,0,0,.17.76.76,0,0,0,0,.21,1.11,1.11,0,0,0,.23.49,1.46,1.46,0,0,0,.42.32,2.13,2.13,0,0,0,.52.18,2.64,2.64,0,0,0,.55.06,1.67,1.67,0,0,0,1.23-.41,1.32,1.32,0,0,0,.41-1,1.37,1.37,0,0,0-.08-.51,1.23,1.23,0,0,0-.25-.42,2.77,2.77,0,0,0-.42-.42l-.63-.48-.49-.38A5.19,5.19,0,0,1,169.69,73a2,2,0,0,1-.34-1.08,1.9,1.9,0,0,1,.18-.83,1.68,1.68,0,0,1,.49-.63,2.33,2.33,0,0,1,.77-.39,3.32,3.32,0,0,1,1-.13q.33,0,.63,0l.5.09.25,0h.14c.07,0,.11,0,.11.07s0,.13,0,.31a8,8,0,0,0,0,.81q0,.24-.09.24s-.06,0-.07,0a.25.25,0,0,1,0-.1,1.54,1.54,0,0,0-.07-.27.86.86,0,0,0-.1-.25.49.49,0,0,0-.11-.14,1.08,1.08,0,0,0-.25-.17,1.86,1.86,0,0,0-.42-.15,2.8,2.8,0,0,0-.63-.06,1.83,1.83,0,0,0-1,.29,1,1,0,0,0-.43.85,1.64,1.64,0,0,0,.07.46,1.5,1.5,0,0,0,.24.42,4.34,4.34,0,0,0,.43.42c.18.14.41.31.68.49l.31.21a7,7,0,0,1,.84.65,3.77,3.77,0,0,1,.55.62,2.57,2.57,0,0,1,.31.62,2.44,2.44,0,0,1,.09.66,2.08,2.08,0,0,1-1,1.8,2.06,2.06,0,0,1-.82.3,7.26,7.26,0,0,1-.92.07,6.09,6.09,0,0,1-.82-.06"/><path d="M176.58,78.18a2.48,2.48,0,0,1-.77-.23.35.35,0,0,1-.14-.12,1.31,1.31,0,0,1,0-.27c0-.27,0-.5,0-.69s0-.34,0-.43,0-.18.09-.18.1,0,.1.13v.17a1.55,1.55,0,0,0,0,.21,1,1,0,0,0,.23.49,1.46,1.46,0,0,0,.42.32,2.13,2.13,0,0,0,.52.18,2.57,2.57,0,0,0,.55.06,1.67,1.67,0,0,0,1.23-.41,1.36,1.36,0,0,0,.41-1,1.6,1.6,0,0,0-.08-.51,1.41,1.41,0,0,0-.25-.42,2.46,2.46,0,0,0-.43-.42l-.62-.48-.49-.38A5.19,5.19,0,0,1,176.2,73a1.94,1.94,0,0,1-.34-1.08,2.05,2.05,0,0,1,.17-.83,1.82,1.82,0,0,1,.5-.63,2.38,2.38,0,0,1,.76-.39,3.44,3.44,0,0,1,1-.13q.33,0,.63,0l.5.09.24,0h.15c.07,0,.11,0,.11.07s0,.13,0,.31,0,.45,0,.81q0,.24-.09.24s-.06,0-.07,0a.62.62,0,0,1,0-.1,1.36,1.36,0,0,0-.06-.27.86.86,0,0,0-.1-.25.49.49,0,0,0-.11-.14,1.08,1.08,0,0,0-.25-.17,2,2,0,0,0-.43-.15,2.77,2.77,0,0,0-.62-.06,1.83,1.83,0,0,0-1,.29,1,1,0,0,0-.43.85,1.64,1.64,0,0,0,.07.46,1.5,1.5,0,0,0,.24.42,3.46,3.46,0,0,0,.43.42c.18.14.41.31.68.49l.31.21a7,7,0,0,1,.84.65,3.77,3.77,0,0,1,.55.62,2.21,2.21,0,0,1,.3.62,2.11,2.11,0,0,1,.1.66,2.08,2.08,0,0,1-1,1.8,2.11,2.11,0,0,1-.82.3,7.4,7.4,0,0,1-.92.07,6,6,0,0,1-.82-.06"/><path d="M184.9,70.33a2.69,2.69,0,0,1,.15-.34.13.13,0,0,1,.11-.07.13.13,0,0,1,.13.1l.13.28c0,.08.11.25.22.52l.4,1,.52,1.27.55,1.36c.19.45.36.87.52,1.27l.41,1a5.08,5.08,0,0,0,.28.57,2.14,2.14,0,0,0,.25.34.77.77,0,0,0,.22.17,1,1,0,0,0,.19.08l.23,0h.2l.09,0a.07.07,0,0,1,.05.07s0,0-.08.06a.44.44,0,0,1-.17,0h-1.16l-.57,0-.27,0c-.08,0-.11,0-.11-.06s0,0,0,0l0,0a.44.44,0,0,0,.11-.09.2.2,0,0,0,0-.2l-1-2.42a.11.11,0,0,0-.1-.06h-2.52a.11.11,0,0,0-.11.09L183,76.94a2,2,0,0,0-.16.7.23.23,0,0,0,.11.23.58.58,0,0,0,.26.06h.1c.07,0,.11,0,.11.09s0,.08-.16.08H183l-.3,0h-.86l-.34,0h-.34c-.14,0-.21,0-.21-.08s0-.09.1-.09h.16l.16,0a.78.78,0,0,0,.57-.31,3,3,0,0,0,.35-.65Zm1.22,4.39s0,0,0-.07l-1.08-2.89c-.07-.16-.13-.16-.19,0l-1,2.89s0,.07,0,.07Z"/><path d="M190.84,78.18a2.48,2.48,0,0,1-.77-.23.29.29,0,0,1-.14-.12,1.31,1.31,0,0,1,0-.27c0-.27,0-.5,0-.69s0-.34,0-.43,0-.18.09-.18.1,0,.1.13v.17l0,.21a1,1,0,0,0,.24.49,1.23,1.23,0,0,0,.42.32,2.13,2.13,0,0,0,.52.18,2.57,2.57,0,0,0,.55.06,1.67,1.67,0,0,0,1.23-.41,1.36,1.36,0,0,0,.41-1,1.6,1.6,0,0,0-.08-.51,1.66,1.66,0,0,0-.25-.42,2.46,2.46,0,0,0-.43-.42l-.62-.48-.5-.38A5.31,5.31,0,0,1,190.46,73a1.94,1.94,0,0,1-.34-1.08,2.05,2.05,0,0,1,.17-.83,1.71,1.71,0,0,1,.5-.63,2.28,2.28,0,0,1,.76-.39,3.44,3.44,0,0,1,1-.13c.22,0,.42,0,.63,0l.5.09.24,0h.15c.07,0,.11,0,.11.07s0,.13,0,.31,0,.45,0,.81q0,.24-.09.24s-.07,0-.07,0a.62.62,0,0,1,0-.1c0-.07,0-.15-.06-.27a1.28,1.28,0,0,0-.1-.25.79.79,0,0,0-.11-.14,1,1,0,0,0-.26-.17,1.69,1.69,0,0,0-.42-.15,2.8,2.8,0,0,0-.63-.06,1.82,1.82,0,0,0-1,.29,1,1,0,0,0-.43.85A1.35,1.35,0,0,0,191,72a1.13,1.13,0,0,0,.24.42,3.46,3.46,0,0,0,.43.42c.18.14.4.31.68.49l.31.21a7,7,0,0,1,.84.65,4.3,4.3,0,0,1,.55.62,2.21,2.21,0,0,1,.3.62,2.45,2.45,0,0,1,.1.66,2.3,2.3,0,0,1-.22.94,2.22,2.22,0,0,1-.8.86,2.11,2.11,0,0,1-.82.3,7.4,7.4,0,0,1-.92.07,6,6,0,0,1-.82-.06"/></g></g></svg>