<svg xmlns="http://www.w3.org/2000/svg" xmlns:xlink="http://www.w3.org/1999/xlink" viewBox="0 0 1234.47 164.67"><defs><style>.cls-1{fill:none;}.cls-2{clip-path:url(#clip-path);}.cls-3{fill:#fff;}.cls-4{fill:#dedede;}.cls-5{fill:#f6e904;}.cls-6{fill:#3ac1de;}.cls-7{fill:#f14349;}</style><clipPath id="clip-path" transform="translate(0 -77.54)"><rect class="cls-1" x="65.53" width="1280.28" height="319.74"/></clipPath></defs><title>rodape_1</title><g id="Camada_2" data-name="Camada 2"><g id="Camada_1-2" data-name="Camada 1"><g class="cls-2"><path class="cls-3" d="M629.14,137V95.73a14.88,14.88,0,0,0-14.88-14.88h0a14.89,14.89,0,0,0-14.89,14.88v14a27.3,27.3,0,0,1-27.3,27.3H59.33V238.89h610V137Z" transform="translate(0 -77.54)"/><path d="M670.18,239.73H59.33V136.17H572.07a26.49,26.49,0,0,0,26.46-26.46v-14a15.73,15.73,0,0,1,31.45,0v40.44h40.2ZM59.33,238.05H668.5V137.85H628.3V95.73a14,14,0,0,0-28.09,0v14a28.17,28.17,0,0,1-28.14,28.14H59.33Z" transform="translate(0 -77.54)"/><path class="cls-4" d="M534.54,238.89a12.7,12.7,0,0,0-12.7-12.71,12.71,12.71,0,0,0,0-25.41,12.71,12.71,0,0,0,0-25.41,12.71,12.71,0,0,0,0-25.42,12.7,12.7,0,0,0,12.7-12.71H382.06V238.89Z" transform="translate(0 -77.54)"/><path d="M535.39,239.73H381.22V136.39H535.39v.84a13.57,13.57,0,0,1-8.85,12.71,13.55,13.55,0,0,1,0,25.42,13.54,13.54,0,0,1,0,25.41,13.54,13.54,0,0,1,0,25.41,13.58,13.58,0,0,1,8.85,12.71ZM382.9,238.05H533.67a11.87,11.87,0,0,0-11.83-11v-1.69a11.87,11.87,0,0,0,0-23.73v-1.68a11.87,11.87,0,0,0,0-23.73v-1.69a11.87,11.87,0,0,0,0-23.73V149.1a11.87,11.87,0,0,0,11.83-11H382.9Z" transform="translate(0 -77.54)"/><path d="M382.06,163.49v-1.68a11.87,11.87,0,0,0,0-23.73v-1.69a13.55,13.55,0,0,1,0,27.1Z" transform="translate(0 -77.54)"/><path d="M382.06,188.91v-1.69a11.87,11.87,0,0,0,0-23.73v-1.68a13.55,13.55,0,1,1,0,27.1Z" transform="translate(0 -77.54)"/><path d="M382.06,214.32v-1.68a11.87,11.87,0,0,0,0-23.73v-1.69a13.55,13.55,0,1,1,0,27.1Z" transform="translate(0 -77.54)"/><path d="M382.06,239.73v-1.68a11.87,11.87,0,0,0,0-23.73v-1.68a13.55,13.55,0,1,1,0,27.09Z" transform="translate(0 -77.54)"/><path d="M394.77,150.78V149.1a11.88,11.88,0,0,0,11.86-11.87h1.69A13.56,13.56,0,0,1,394.77,150.78Z" transform="translate(0 -77.54)"/><path d="M394.77,176.2v-1.69a11.87,11.87,0,0,0,0-23.73V149.1a13.55,13.55,0,1,1,0,27.1Z" transform="translate(0 -77.54)"/><path d="M394.77,201.61v-1.68a11.87,11.87,0,0,0,0-23.73v-1.69a13.55,13.55,0,0,1,0,27.1Z" transform="translate(0 -77.54)"/><path d="M394.77,227v-1.69a11.87,11.87,0,0,0,0-23.73v-1.68a13.55,13.55,0,1,1,0,27.1Z" transform="translate(0 -77.54)"/><path d="M408.32,238.89h-1.69A11.87,11.87,0,0,0,394.77,227v-1.69A13.57,13.57,0,0,1,408.32,238.89Z" transform="translate(0 -77.54)"/><path d="M407.47,163.49v-1.68a11.87,11.87,0,1,0,0-23.73v-1.69a13.55,13.55,0,0,1,0,27.1Z" transform="translate(0 -77.54)"/><path d="M407.47,188.91v-1.69a11.87,11.87,0,1,0,0-23.73v-1.68a13.55,13.55,0,0,1,0,27.1Z" transform="translate(0 -77.54)"/><path d="M407.47,214.32v-1.68a11.87,11.87,0,1,0,0-23.73v-1.69a13.55,13.55,0,0,1,0,27.1Z" transform="translate(0 -77.54)"/><path d="M407.47,239.73v-1.68a11.87,11.87,0,1,0,0-23.73v-1.68a13.55,13.55,0,1,1,0,27.09Z" transform="translate(0 -77.54)"/><path d="M420.18,150.78V149.1A11.88,11.88,0,0,0,432,137.23h1.69A13.56,13.56,0,0,1,420.18,150.78Z" transform="translate(0 -77.54)"/><path d="M420.18,176.2v-1.69a11.87,11.87,0,0,0,0-23.73V149.1a13.55,13.55,0,1,1,0,27.1Z" transform="translate(0 -77.54)"/><path d="M420.18,201.61v-1.68a11.87,11.87,0,0,0,0-23.73v-1.69a13.55,13.55,0,0,1,0,27.1Z" transform="translate(0 -77.54)"/><path d="M420.18,227v-1.69a11.87,11.87,0,0,0,0-23.73v-1.68a13.55,13.55,0,1,1,0,27.1Z" transform="translate(0 -77.54)"/><path d="M433.73,238.89H432A11.87,11.87,0,0,0,420.18,227v-1.69A13.57,13.57,0,0,1,433.73,238.89Z" transform="translate(0 -77.54)"/><path d="M432.89,163.49v-1.68a11.87,11.87,0,0,0,0-23.73v-1.69a13.55,13.55,0,0,1,0,27.1Z" transform="translate(0 -77.54)"/><path d="M432.89,188.91v-1.69a11.87,11.87,0,0,0,0-23.73v-1.68a13.55,13.55,0,1,1,0,27.1Z" transform="translate(0 -77.54)"/><path d="M432.89,214.32v-1.68a11.87,11.87,0,0,0,0-23.73v-1.69a13.55,13.55,0,1,1,0,27.1Z" transform="translate(0 -77.54)"/><path d="M432.89,239.73v-1.68a11.87,11.87,0,0,0,0-23.73v-1.68a13.55,13.55,0,1,1,0,27.09Z" transform="translate(0 -77.54)"/><path d="M445.59,150.78V149.1a11.88,11.88,0,0,0,11.87-11.87h1.68A13.55,13.55,0,0,1,445.59,150.78Z" transform="translate(0 -77.54)"/><path d="M445.59,176.2v-1.69a11.87,11.87,0,1,0,0-23.73V149.1a13.55,13.55,0,1,1,0,27.1Z" transform="translate(0 -77.54)"/><path d="M445.59,201.61v-1.68a11.87,11.87,0,1,0,0-23.73v-1.69a13.55,13.55,0,0,1,0,27.1Z" transform="translate(0 -77.54)"/><path d="M445.59,227v-1.69a11.87,11.87,0,1,0,0-23.73v-1.68a13.55,13.55,0,1,1,0,27.1Z" transform="translate(0 -77.54)"/><path d="M459.14,238.89h-1.68A11.88,11.88,0,0,0,445.59,227v-1.69A13.56,13.56,0,0,1,459.14,238.89Z" transform="translate(0 -77.54)"/><path d="M458.3,163.49v-1.68a11.87,11.87,0,1,0,0-23.73v-1.69a13.55,13.55,0,0,1,0,27.1Z" transform="translate(0 -77.54)"/><path d="M458.3,188.91v-1.69a11.87,11.87,0,1,0,0-23.73v-1.68a13.55,13.55,0,1,1,0,27.1Z" transform="translate(0 -77.54)"/><path d="M458.3,214.32v-1.68a11.87,11.87,0,1,0,0-23.73v-1.69a13.55,13.55,0,1,1,0,27.1Z" transform="translate(0 -77.54)"/><path d="M458.3,239.73v-1.68a11.87,11.87,0,1,0,0-23.73v-1.68a13.55,13.55,0,1,1,0,27.09Z" transform="translate(0 -77.54)"/><path d="M471,150.78V149.1a11.88,11.88,0,0,0,11.86-11.87h1.69A13.56,13.56,0,0,1,471,150.78Z" transform="translate(0 -77.54)"/><path d="M471,176.2v-1.69a11.87,11.87,0,0,0,0-23.73V149.1a13.55,13.55,0,1,1,0,27.1Z" transform="translate(0 -77.54)"/><path d="M471,201.61v-1.68a11.87,11.87,0,0,0,0-23.73v-1.69a13.55,13.55,0,0,1,0,27.1Z" transform="translate(0 -77.54)"/><path d="M471,227v-1.69a11.87,11.87,0,0,0,0-23.73v-1.68a13.55,13.55,0,1,1,0,27.1Z" transform="translate(0 -77.54)"/><path d="M484.56,238.89h-1.69A11.87,11.87,0,0,0,471,227v-1.69A13.57,13.57,0,0,1,484.56,238.89Z" transform="translate(0 -77.54)"/><path d="M483.72,163.49v-1.68a11.87,11.87,0,0,0,0-23.73v-1.69a13.55,13.55,0,0,1,0,27.1Z" transform="translate(0 -77.54)"/><path d="M483.72,188.91v-1.69a11.87,11.87,0,0,0,0-23.73v-1.68a13.55,13.55,0,0,1,0,27.1Z" transform="translate(0 -77.54)"/><path d="M483.72,214.32v-1.68a11.87,11.87,0,0,0,0-23.73v-1.69a13.55,13.55,0,0,1,0,27.1Z" transform="translate(0 -77.54)"/><path d="M483.72,239.73v-1.68a11.87,11.87,0,0,0,0-23.73v-1.68a13.55,13.55,0,1,1,0,27.09Z" transform="translate(0 -77.54)"/><path d="M496.42,150.78V149.1a11.88,11.88,0,0,0,11.87-11.87H510A13.56,13.56,0,0,1,496.42,150.78Z" transform="translate(0 -77.54)"/><path d="M496.42,176.2v-1.69a11.87,11.87,0,1,0,0-23.73V149.1a13.55,13.55,0,1,1,0,27.1Z" transform="translate(0 -77.54)"/><path d="M496.42,201.61v-1.68a11.87,11.87,0,1,0,0-23.73v-1.69a13.55,13.55,0,0,1,0,27.1Z" transform="translate(0 -77.54)"/><path d="M496.42,227v-1.69a11.87,11.87,0,1,0,0-23.73v-1.68a13.55,13.55,0,1,1,0,27.1Z" transform="translate(0 -77.54)"/><path d="M510,238.89h-1.68A11.88,11.88,0,0,0,496.42,227v-1.69A13.57,13.57,0,0,1,510,238.89Z" transform="translate(0 -77.54)"/><path d="M509.13,163.49v-1.68a11.87,11.87,0,1,0,0-23.73v-1.69a13.55,13.55,0,0,1,0,27.1Z" transform="translate(0 -77.54)"/><path d="M509.13,188.91v-1.69a11.87,11.87,0,1,0,0-23.73v-1.68a13.55,13.55,0,0,1,0,27.1Z" transform="translate(0 -77.54)"/><path d="M509.13,214.32v-1.68a11.87,11.87,0,1,0,0-23.73v-1.69a13.55,13.55,0,0,1,0,27.1Z" transform="translate(0 -77.54)"/><path d="M509.13,239.73v-1.68a11.87,11.87,0,1,0,0-23.73v-1.68a13.55,13.55,0,1,1,0,27.09Z" transform="translate(0 -77.54)"/><path class="cls-4" d="M407.47,238.89a12.71,12.71,0,0,0-12.7-12.71,12.71,12.71,0,0,0,0-25.41,12.71,12.71,0,0,0,0-25.41,12.71,12.71,0,0,0,0-25.42,12.71,12.71,0,0,0,12.7-12.71H255V238.89Z" transform="translate(0 -77.54)"/><path d="M408.32,239.73H254.14V136.39H408.32v.84a13.57,13.57,0,0,1-8.85,12.71,13.55,13.55,0,0,1,0,25.42,13.54,13.54,0,0,1,0,25.41,13.54,13.54,0,0,1,0,25.41,13.58,13.58,0,0,1,8.85,12.71Zm-152.49-1.68H406.6a11.88,11.88,0,0,0-11.83-11v-1.69a11.87,11.87,0,0,0,0-23.73v-1.68a11.87,11.87,0,0,0,0-23.73v-1.69a11.87,11.87,0,0,0,0-23.73V149.1a11.88,11.88,0,0,0,11.83-11H255.83Z" transform="translate(0 -77.54)"/><path d="M255,163.49v-1.68a11.87,11.87,0,0,0,0-23.73v-1.69a13.55,13.55,0,0,1,0,27.1Z" transform="translate(0 -77.54)"/><path d="M255,188.91v-1.69a11.87,11.87,0,0,0,0-23.73v-1.68a13.55,13.55,0,1,1,0,27.1Z" transform="translate(0 -77.54)"/><path d="M255,214.32v-1.68a11.87,11.87,0,0,0,0-23.73v-1.69a13.55,13.55,0,1,1,0,27.1Z" transform="translate(0 -77.54)"/><path d="M255,239.73v-1.68a11.87,11.87,0,0,0,0-23.73v-1.68a13.55,13.55,0,1,1,0,27.09Z" transform="translate(0 -77.54)"/><path d="M267.69,150.78V149.1a11.88,11.88,0,0,0,11.87-11.87h1.68A13.56,13.56,0,0,1,267.69,150.78Z" transform="translate(0 -77.54)"/><path d="M267.69,176.2v-1.69a11.87,11.87,0,1,0,0-23.73V149.1a13.55,13.55,0,1,1,0,27.1Z" transform="translate(0 -77.54)"/><path d="M267.69,201.61v-1.68a11.87,11.87,0,1,0,0-23.73v-1.69a13.55,13.55,0,0,1,0,27.1Z" transform="translate(0 -77.54)"/><path d="M267.69,227v-1.69a11.87,11.87,0,1,0,0-23.73v-1.68a13.55,13.55,0,1,1,0,27.1Z" transform="translate(0 -77.54)"/><path d="M281.24,238.89h-1.68A11.88,11.88,0,0,0,267.69,227v-1.69A13.57,13.57,0,0,1,281.24,238.89Z" transform="translate(0 -77.54)"/><path d="M280.4,163.49v-1.68a11.87,11.87,0,1,0,0-23.73v-1.69a13.55,13.55,0,0,1,0,27.1Z" transform="translate(0 -77.54)"/><path d="M280.4,188.91v-1.69a11.87,11.87,0,1,0,0-23.73v-1.68a13.55,13.55,0,1,1,0,27.1Z" transform="translate(0 -77.54)"/><path d="M280.4,214.32v-1.68a11.87,11.87,0,1,0,0-23.73v-1.69a13.55,13.55,0,1,1,0,27.1Z" transform="translate(0 -77.54)"/><path d="M280.4,239.73v-1.68a11.87,11.87,0,1,0,0-23.73v-1.68a13.55,13.55,0,1,1,0,27.09Z" transform="translate(0 -77.54)"/><path d="M293.11,150.78V149.1A11.88,11.88,0,0,0,305,137.23h1.69A13.56,13.56,0,0,1,293.11,150.78Z" transform="translate(0 -77.54)"/><path d="M293.11,176.2v-1.69a11.87,11.87,0,0,0,0-23.73V149.1a13.55,13.55,0,1,1,0,27.1Z" transform="translate(0 -77.54)"/><path d="M293.11,201.61v-1.68a11.87,11.87,0,0,0,0-23.73v-1.69a13.55,13.55,0,0,1,0,27.1Z" transform="translate(0 -77.54)"/><path d="M293.11,227v-1.69a11.87,11.87,0,0,0,0-23.73v-1.68a13.55,13.55,0,1,1,0,27.1Z" transform="translate(0 -77.54)"/><path d="M306.66,238.89H305A11.87,11.87,0,0,0,293.11,227v-1.69A13.57,13.57,0,0,1,306.66,238.89Z" transform="translate(0 -77.54)"/><path d="M305.81,163.49v-1.68a11.87,11.87,0,1,0,0-23.73v-1.69a13.55,13.55,0,0,1,0,27.1Z" transform="translate(0 -77.54)"/><path d="M305.81,188.91v-1.69a11.87,11.87,0,1,0,0-23.73v-1.68a13.55,13.55,0,1,1,0,27.1Z" transform="translate(0 -77.54)"/><path d="M305.81,214.32v-1.68a11.87,11.87,0,1,0,0-23.73v-1.69a13.55,13.55,0,1,1,0,27.1Z" transform="translate(0 -77.54)"/><path d="M305.81,239.73v-1.68a11.87,11.87,0,1,0,0-23.73v-1.68a13.55,13.55,0,1,1,0,27.09Z" transform="translate(0 -77.54)"/><path d="M318.52,150.78V149.1a11.88,11.88,0,0,0,11.87-11.87h1.68A13.56,13.56,0,0,1,318.52,150.78Z" transform="translate(0 -77.54)"/><path d="M318.52,176.2v-1.69a11.87,11.87,0,1,0,0-23.73V149.1a13.55,13.55,0,1,1,0,27.1Z" transform="translate(0 -77.54)"/><path d="M318.52,201.61v-1.68a11.87,11.87,0,1,0,0-23.73v-1.69a13.55,13.55,0,0,1,0,27.1Z" transform="translate(0 -77.54)"/><path d="M318.52,227v-1.69a11.87,11.87,0,1,0,0-23.73v-1.68a13.55,13.55,0,1,1,0,27.1Z" transform="translate(0 -77.54)"/><path d="M332.07,238.89h-1.68A11.88,11.88,0,0,0,318.52,227v-1.69A13.57,13.57,0,0,1,332.07,238.89Z" transform="translate(0 -77.54)"/><path d="M331.23,163.49v-1.68a11.87,11.87,0,0,0,0-23.73v-1.69a13.55,13.55,0,0,1,0,27.1Z" transform="translate(0 -77.54)"/><path d="M331.23,188.91v-1.69a11.87,11.87,0,0,0,0-23.73v-1.68a13.55,13.55,0,0,1,0,27.1Z" transform="translate(0 -77.54)"/><path d="M331.23,214.32v-1.68a11.87,11.87,0,0,0,0-23.73v-1.69a13.55,13.55,0,0,1,0,27.1Z" transform="translate(0 -77.54)"/><path d="M331.23,239.73v-1.68a11.87,11.87,0,0,0,0-23.73v-1.68a13.55,13.55,0,1,1,0,27.09Z" transform="translate(0 -77.54)"/><path d="M343.94,150.78V149.1a11.88,11.88,0,0,0,11.86-11.87h1.69A13.56,13.56,0,0,1,343.94,150.78Z" transform="translate(0 -77.54)"/><path d="M343.94,176.2v-1.69a11.87,11.87,0,0,0,0-23.73V149.1a13.55,13.55,0,1,1,0,27.1Z" transform="translate(0 -77.54)"/><path d="M343.94,201.61v-1.68a11.87,11.87,0,0,0,0-23.73v-1.69a13.55,13.55,0,0,1,0,27.1Z" transform="translate(0 -77.54)"/><path d="M343.94,227v-1.69a11.87,11.87,0,0,0,0-23.73v-1.68a13.55,13.55,0,1,1,0,27.1Z" transform="translate(0 -77.54)"/><path d="M357.49,238.89H355.8A11.87,11.87,0,0,0,343.94,227v-1.69A13.57,13.57,0,0,1,357.49,238.89Z" transform="translate(0 -77.54)"/><path d="M356.64,163.49v-1.68a11.87,11.87,0,1,0,0-23.73v-1.69a13.55,13.55,0,0,1,0,27.1Z" transform="translate(0 -77.54)"/><path d="M356.64,188.91v-1.69a11.87,11.87,0,1,0,0-23.73v-1.68a13.55,13.55,0,1,1,0,27.1Z" transform="translate(0 -77.54)"/><path d="M356.64,214.32v-1.68a11.87,11.87,0,1,0,0-23.73v-1.69a13.55,13.55,0,1,1,0,27.1Z" transform="translate(0 -77.54)"/><path d="M356.64,239.73v-1.68a11.87,11.87,0,1,0,0-23.73v-1.68a13.55,13.55,0,1,1,0,27.09Z" transform="translate(0 -77.54)"/><path d="M369.35,150.78V149.1a11.88,11.88,0,0,0,11.87-11.87h1.68A13.56,13.56,0,0,1,369.35,150.78Z" transform="translate(0 -77.54)"/><path d="M369.35,176.2v-1.69a11.87,11.87,0,1,0,0-23.73V149.1a13.55,13.55,0,0,1,0,27.1Z" transform="translate(0 -77.54)"/><path d="M369.35,201.61v-1.68a11.87,11.87,0,1,0,0-23.73v-1.69a13.55,13.55,0,0,1,0,27.1Z" transform="translate(0 -77.54)"/><path d="M369.35,227v-1.69a11.87,11.87,0,1,0,0-23.73v-1.68a13.55,13.55,0,0,1,0,27.1Z" transform="translate(0 -77.54)"/><path d="M382.9,238.89h-1.68A11.88,11.88,0,0,0,369.35,227v-1.69A13.57,13.57,0,0,1,382.9,238.89Z" transform="translate(0 -77.54)"/><path d="M382.06,163.49v-1.68a11.87,11.87,0,0,0,0-23.73v-1.69a13.55,13.55,0,0,1,0,27.1Z" transform="translate(0 -77.54)"/><path d="M382.06,188.91v-1.69a11.87,11.87,0,0,0,0-23.73v-1.68a13.55,13.55,0,1,1,0,27.1Z" transform="translate(0 -77.54)"/><path d="M382.06,214.32v-1.68a11.87,11.87,0,0,0,0-23.73v-1.69a13.55,13.55,0,1,1,0,27.1Z" transform="translate(0 -77.54)"/><path d="M382.06,239.73v-1.68a11.87,11.87,0,0,0,0-23.73v-1.68a13.55,13.55,0,1,1,0,27.09Z" transform="translate(0 -77.54)"/><path class="cls-4" d="M280.4,238.89a12.71,12.71,0,0,0-12.71-12.71,12.71,12.71,0,1,0,0-25.41,12.71,12.71,0,1,0,0-25.41,12.71,12.71,0,0,0,0-25.42,12.71,12.71,0,0,0,12.71-12.71H127.91V238.89Z" transform="translate(0 -77.54)"/><path d="M281.24,239.73H127.07V136.39H281.24v.84a13.56,13.56,0,0,1-8.84,12.71,13.56,13.56,0,0,1,0,25.42,13.55,13.55,0,0,1,0,25.41,13.55,13.55,0,0,1,0,25.41,13.57,13.57,0,0,1,8.84,12.71Zm-152.48-1.68H279.53a11.88,11.88,0,0,0-11.84-11v-1.69a11.87,11.87,0,1,0,0-23.73v-1.68a11.87,11.87,0,1,0,0-23.73v-1.69a11.87,11.87,0,1,0,0-23.73V149.1a11.88,11.88,0,0,0,11.84-11H128.76Z" transform="translate(0 -77.54)"/><path d="M127.91,163.49v-1.68a11.87,11.87,0,1,0,0-23.73v-1.69a13.55,13.55,0,1,1,0,27.1Z" transform="translate(0 -77.54)"/><path d="M127.91,188.91v-1.69a11.87,11.87,0,1,0,0-23.73v-1.68a13.55,13.55,0,1,1,0,27.1Z" transform="translate(0 -77.54)"/><path d="M127.91,214.32v-1.68a11.87,11.87,0,1,0,0-23.73v-1.69a13.55,13.55,0,1,1,0,27.1Z" transform="translate(0 -77.54)"/><path d="M127.91,239.73v-1.68a11.87,11.87,0,1,0,0-23.73v-1.68a13.55,13.55,0,1,1,0,27.09Z" transform="translate(0 -77.54)"/><path d="M140.62,150.78V149.1a11.88,11.88,0,0,0,11.87-11.87h1.68A13.56,13.56,0,0,1,140.62,150.78Z" transform="translate(0 -77.54)"/><path d="M140.62,176.2v-1.69a11.87,11.87,0,1,0,0-23.73V149.1a13.55,13.55,0,0,1,0,27.1Z" transform="translate(0 -77.54)"/><path d="M140.62,201.61v-1.68a11.87,11.87,0,1,0,0-23.73v-1.69a13.55,13.55,0,0,1,0,27.1Z" transform="translate(0 -77.54)"/><path d="M140.62,227v-1.69a11.87,11.87,0,1,0,0-23.73v-1.68a13.55,13.55,0,0,1,0,27.1Z" transform="translate(0 -77.54)"/><path d="M154.17,238.89h-1.68A11.88,11.88,0,0,0,140.62,227v-1.69A13.57,13.57,0,0,1,154.17,238.89Z" transform="translate(0 -77.54)"/><path d="M153.33,163.49v-1.68a11.87,11.87,0,0,0,0-23.73v-1.69a13.55,13.55,0,0,1,0,27.1Z" transform="translate(0 -77.54)"/><path d="M153.33,188.91v-1.69a11.87,11.87,0,0,0,0-23.73v-1.68a13.55,13.55,0,0,1,0,27.1Z" transform="translate(0 -77.54)"/><path d="M153.33,214.32v-1.68a11.87,11.87,0,0,0,0-23.73v-1.69a13.55,13.55,0,0,1,0,27.1Z" transform="translate(0 -77.54)"/><path d="M153.33,239.73v-1.68a11.87,11.87,0,0,0,0-23.73v-1.68a13.55,13.55,0,1,1,0,27.09Z" transform="translate(0 -77.54)"/><path d="M166,150.78V149.1a11.88,11.88,0,0,0,11.86-11.87h1.69A13.56,13.56,0,0,1,166,150.78Z" transform="translate(0 -77.54)"/><path d="M166,176.2v-1.69a11.87,11.87,0,0,0,0-23.73V149.1a13.55,13.55,0,1,1,0,27.1Z" transform="translate(0 -77.54)"/><path d="M166,201.61v-1.68a11.87,11.87,0,0,0,0-23.73v-1.69a13.55,13.55,0,1,1,0,27.1Z" transform="translate(0 -77.54)"/><path d="M166,227v-1.69a11.87,11.87,0,0,0,0-23.73v-1.68a13.55,13.55,0,1,1,0,27.1Z" transform="translate(0 -77.54)"/><path d="M179.59,238.89H177.9A11.87,11.87,0,0,0,166,227v-1.69A13.57,13.57,0,0,1,179.59,238.89Z" transform="translate(0 -77.54)"/><path d="M178.74,163.49v-1.68a11.87,11.87,0,1,0,0-23.73v-1.69a13.55,13.55,0,0,1,0,27.1Z" transform="translate(0 -77.54)"/><path d="M178.74,188.91v-1.69a11.87,11.87,0,1,0,0-23.73v-1.68a13.55,13.55,0,0,1,0,27.1Z" transform="translate(0 -77.54)"/><path d="M178.74,214.32v-1.68a11.87,11.87,0,1,0,0-23.73v-1.69a13.55,13.55,0,0,1,0,27.1Z" transform="translate(0 -77.54)"/><path d="M178.74,239.73v-1.68a11.87,11.87,0,1,0,0-23.73v-1.68a13.55,13.55,0,1,1,0,27.09Z" transform="translate(0 -77.54)"/><path d="M191.45,150.78V149.1a11.88,11.88,0,0,0,11.86-11.87H205A13.56,13.56,0,0,1,191.45,150.78Z" transform="translate(0 -77.54)"/><path d="M191.45,176.2v-1.69a11.87,11.87,0,0,0,0-23.73V149.1a13.55,13.55,0,0,1,0,27.1Z" transform="translate(0 -77.54)"/><path d="M191.45,201.61v-1.68a11.87,11.87,0,0,0,0-23.73v-1.69a13.55,13.55,0,0,1,0,27.1Z" transform="translate(0 -77.54)"/><path d="M191.45,227v-1.69a11.87,11.87,0,0,0,0-23.73v-1.68a13.55,13.55,0,1,1,0,27.1Z" transform="translate(0 -77.54)"/><path d="M205,238.89h-1.69A11.87,11.87,0,0,0,191.45,227v-1.69A13.57,13.57,0,0,1,205,238.89Z" transform="translate(0 -77.54)"/><path d="M204.16,163.49v-1.68a11.87,11.87,0,0,0,0-23.73v-1.69a13.55,13.55,0,1,1,0,27.1Z" transform="translate(0 -77.54)"/><path d="M204.16,188.91v-1.69a11.87,11.87,0,0,0,0-23.73v-1.68a13.55,13.55,0,0,1,0,27.1Z" transform="translate(0 -77.54)"/><path d="M204.16,214.32v-1.68a11.87,11.87,0,0,0,0-23.73v-1.69a13.55,13.55,0,1,1,0,27.1Z" transform="translate(0 -77.54)"/><path d="M204.16,239.73v-1.68a11.87,11.87,0,0,0,0-23.73v-1.68a13.55,13.55,0,1,1,0,27.09Z" transform="translate(0 -77.54)"/><path d="M216.86,150.78V149.1a11.88,11.88,0,0,0,11.87-11.87h1.68A13.55,13.55,0,0,1,216.86,150.78Z" transform="translate(0 -77.54)"/><path d="M216.86,176.2v-1.69a11.87,11.87,0,1,0,0-23.73V149.1a13.55,13.55,0,0,1,0,27.1Z" transform="translate(0 -77.54)"/><path d="M216.86,201.61v-1.68a11.87,11.87,0,1,0,0-23.73v-1.69a13.55,13.55,0,0,1,0,27.1Z" transform="translate(0 -77.54)"/><path d="M216.86,227v-1.69a11.87,11.87,0,1,0,0-23.73v-1.68a13.55,13.55,0,0,1,0,27.1Z" transform="translate(0 -77.54)"/><path d="M230.41,238.89h-1.68A11.88,11.88,0,0,0,216.86,227v-1.69A13.56,13.56,0,0,1,230.41,238.89Z" transform="translate(0 -77.54)"/><path d="M229.57,163.49v-1.68a11.87,11.87,0,1,0,0-23.73v-1.69a13.55,13.55,0,0,1,0,27.1Z" transform="translate(0 -77.54)"/><path d="M229.57,188.91v-1.69a11.87,11.87,0,1,0,0-23.73v-1.68a13.55,13.55,0,1,1,0,27.1Z" transform="translate(0 -77.54)"/><path d="M229.57,214.32v-1.68a11.87,11.87,0,1,0,0-23.73v-1.69a13.55,13.55,0,0,1,0,27.1Z" transform="translate(0 -77.54)"/><path d="M229.57,239.73v-1.68a11.87,11.87,0,1,0,0-23.73v-1.68a13.55,13.55,0,1,1,0,27.09Z" transform="translate(0 -77.54)"/><path d="M242.28,150.78V149.1a11.88,11.88,0,0,0,11.86-11.87h1.69A13.56,13.56,0,0,1,242.28,150.78Z" transform="translate(0 -77.54)"/><path d="M242.28,176.2v-1.69a11.87,11.87,0,0,0,0-23.73V149.1a13.55,13.55,0,1,1,0,27.1Z" transform="translate(0 -77.54)"/><path d="M242.28,201.61v-1.68a11.87,11.87,0,0,0,0-23.73v-1.69a13.55,13.55,0,1,1,0,27.1Z" transform="translate(0 -77.54)"/><path d="M242.28,227v-1.69a11.87,11.87,0,0,0,0-23.73v-1.68a13.55,13.55,0,1,1,0,27.1Z" transform="translate(0 -77.54)"/><path d="M255.83,238.89h-1.69A11.87,11.87,0,0,0,242.28,227v-1.69A13.57,13.57,0,0,1,255.83,238.89Z" transform="translate(0 -77.54)"/><path d="M255,163.49v-1.68a11.87,11.87,0,0,0,0-23.73v-1.69a13.55,13.55,0,0,1,0,27.1Z" transform="translate(0 -77.54)"/><path d="M255,188.91v-1.69a11.87,11.87,0,0,0,0-23.73v-1.68a13.55,13.55,0,1,1,0,27.1Z" transform="translate(0 -77.54)"/><path d="M255,214.32v-1.68a11.87,11.87,0,0,0,0-23.73v-1.69a13.55,13.55,0,1,1,0,27.1Z" transform="translate(0 -77.54)"/><path d="M255,239.73v-1.68a11.87,11.87,0,0,0,0-23.73v-1.68a13.55,13.55,0,1,1,0,27.09Z" transform="translate(0 -77.54)"/><path class="cls-4" d="M153.33,238.89a12.71,12.71,0,0,0-12.71-12.71,12.71,12.71,0,1,0,0-25.41,12.71,12.71,0,1,0,0-25.41,12.71,12.71,0,1,0,0-25.42,12.71,12.71,0,0,0,12.71-12.71H.84V238.89Z" transform="translate(0 -77.54)"/><path d="M154.17,239.73H0V136.39H154.17v.84a13.56,13.56,0,0,1-8.84,12.71,13.56,13.56,0,0,1,0,25.42,13.55,13.55,0,0,1,0,25.41,13.55,13.55,0,0,1,0,25.41,13.59,13.59,0,0,1,8.84,12.71ZM1.68,238.05H152.46a11.89,11.89,0,0,0-11.84-11v-1.69a11.87,11.87,0,1,0,0-23.73v-1.68a11.87,11.87,0,1,0,0-23.73v-1.69a11.87,11.87,0,1,0,0-23.73V149.1a11.89,11.89,0,0,0,11.84-11H1.68Z" transform="translate(0 -77.54)"/><path d="M.84,163.49v-1.68a11.89,11.89,0,0,0,11.87-11.87A11.88,11.88,0,0,0,.84,138.08v-1.69a13.55,13.55,0,0,1,0,27.1Z" transform="translate(0 -77.54)"/><path d="M.84,188.91v-1.69a11.87,11.87,0,1,0,0-23.73v-1.68a13.55,13.55,0,0,1,0,27.1Z" transform="translate(0 -77.54)"/><path d="M.84,214.32v-1.68a11.89,11.89,0,0,0,11.87-11.87A11.88,11.88,0,0,0,.84,188.91v-1.69a13.55,13.55,0,0,1,0,27.1Z" transform="translate(0 -77.54)"/><path d="M.84,239.73v-1.68a11.87,11.87,0,1,0,0-23.73v-1.68a13.55,13.55,0,1,1,0,27.09Z" transform="translate(0 -77.54)"/><path d="M13.55,150.78V149.1a11.88,11.88,0,0,0,11.86-11.87H27.1A13.56,13.56,0,0,1,13.55,150.78Z" transform="translate(0 -77.54)"/><path d="M13.55,176.2v-1.69a11.87,11.87,0,0,0,0-23.73V149.1a13.55,13.55,0,1,1,0,27.1Z" transform="translate(0 -77.54)"/><path d="M13.55,201.61v-1.68a11.87,11.87,0,0,0,0-23.73v-1.69a13.55,13.55,0,0,1,0,27.1Z" transform="translate(0 -77.54)"/><path d="M13.55,227v-1.69a11.87,11.87,0,0,0,0-23.73v-1.68a13.55,13.55,0,1,1,0,27.1Z" transform="translate(0 -77.54)"/><path d="M27.1,238.89H25.41A11.87,11.87,0,0,0,13.55,227v-1.69A13.57,13.57,0,0,1,27.1,238.89Z" transform="translate(0 -77.54)"/><path d="M26.26,163.49v-1.68a11.87,11.87,0,0,0,0-23.73v-1.69a13.55,13.55,0,0,1,0,27.1Z" transform="translate(0 -77.54)"/><path d="M26.26,188.91v-1.69a11.87,11.87,0,0,0,0-23.73v-1.68a13.55,13.55,0,1,1,0,27.1Z" transform="translate(0 -77.54)"/><path d="M26.26,214.32v-1.68a11.87,11.87,0,0,0,0-23.73v-1.69a13.55,13.55,0,0,1,0,27.1Z" transform="translate(0 -77.54)"/><path d="M26.26,239.73v-1.68a11.87,11.87,0,0,0,0-23.73v-1.68a13.55,13.55,0,1,1,0,27.09Z" transform="translate(0 -77.54)"/><path d="M39,150.78V149.1a11.88,11.88,0,0,0,11.87-11.87h1.68A13.56,13.56,0,0,1,39,150.78Z" transform="translate(0 -77.54)"/><path d="M39,176.2v-1.69a11.87,11.87,0,1,0,0-23.73V149.1a13.55,13.55,0,0,1,0,27.1Z" transform="translate(0 -77.54)"/><path d="M39,201.61v-1.68a11.87,11.87,0,1,0,0-23.73v-1.69a13.55,13.55,0,0,1,0,27.1Z" transform="translate(0 -77.54)"/><path d="M39,227v-1.69a11.87,11.87,0,1,0,0-23.73v-1.68A13.55,13.55,0,0,1,39,227Z" transform="translate(0 -77.54)"/><path d="M52.51,238.89H50.83A11.88,11.88,0,0,0,39,227v-1.69A13.57,13.57,0,0,1,52.51,238.89Z" transform="translate(0 -77.54)"/><path d="M51.67,163.49v-1.68a11.87,11.87,0,1,0,0-23.73v-1.69a13.55,13.55,0,0,1,0,27.1Z" transform="translate(0 -77.54)"/><path d="M51.67,188.91v-1.69a11.87,11.87,0,1,0,0-23.73v-1.68a13.55,13.55,0,1,1,0,27.1Z" transform="translate(0 -77.54)"/><path d="M51.67,214.32v-1.68a11.87,11.87,0,1,0,0-23.73v-1.69a13.55,13.55,0,0,1,0,27.1Z" transform="translate(0 -77.54)"/><path d="M51.67,239.73v-1.68a11.87,11.87,0,1,0,0-23.73v-1.68a13.55,13.55,0,1,1,0,27.09Z" transform="translate(0 -77.54)"/><path d="M64.38,150.78V149.1a11.88,11.88,0,0,0,11.86-11.87h1.69A13.56,13.56,0,0,1,64.38,150.78Z" transform="translate(0 -77.54)"/><path d="M64.38,176.2v-1.69a11.87,11.87,0,0,0,0-23.73V149.1a13.55,13.55,0,1,1,0,27.1Z" transform="translate(0 -77.54)"/><path d="M64.38,201.61v-1.68a11.87,11.87,0,0,0,0-23.73v-1.69a13.55,13.55,0,0,1,0,27.1Z" transform="translate(0 -77.54)"/><path d="M64.38,227v-1.69a11.87,11.87,0,0,0,0-23.73v-1.68a13.55,13.55,0,1,1,0,27.1Z" transform="translate(0 -77.54)"/><path d="M77.93,238.89H76.24A11.87,11.87,0,0,0,64.38,227v-1.69A13.57,13.57,0,0,1,77.93,238.89Z" transform="translate(0 -77.54)"/><path d="M77.08,163.49v-1.68a11.87,11.87,0,1,0,0-23.73v-1.69a13.55,13.55,0,0,1,0,27.1Z" transform="translate(0 -77.54)"/><path d="M77.08,188.91v-1.69a11.87,11.87,0,1,0,0-23.73v-1.68a13.55,13.55,0,1,1,0,27.1Z" transform="translate(0 -77.54)"/><path d="M77.08,214.32v-1.68a11.87,11.87,0,1,0,0-23.73v-1.69a13.55,13.55,0,0,1,0,27.1Z" transform="translate(0 -77.54)"/><path d="M77.08,239.73v-1.68a11.87,11.87,0,1,0,0-23.73v-1.68a13.55,13.55,0,1,1,0,27.09Z" transform="translate(0 -77.54)"/><path d="M89.79,150.78V149.1a11.88,11.88,0,0,0,11.87-11.87h1.68A13.56,13.56,0,0,1,89.79,150.78Z" transform="translate(0 -77.54)"/><path d="M89.79,176.2v-1.69a11.87,11.87,0,1,0,0-23.73V149.1a13.55,13.55,0,0,1,0,27.1Z" transform="translate(0 -77.54)"/><path d="M89.79,201.61v-1.68a11.87,11.87,0,1,0,0-23.73v-1.69a13.55,13.55,0,0,1,0,27.1Z" transform="translate(0 -77.54)"/><path d="M89.79,227v-1.69a11.87,11.87,0,1,0,0-23.73v-1.68a13.55,13.55,0,0,1,0,27.1Z" transform="translate(0 -77.54)"/><path d="M103.34,238.89h-1.68A11.88,11.88,0,0,0,89.79,227v-1.69A13.57,13.57,0,0,1,103.34,238.89Z" transform="translate(0 -77.54)"/><path d="M102.5,163.49v-1.68a11.87,11.87,0,1,0,0-23.73v-1.69a13.55,13.55,0,0,1,0,27.1Z" transform="translate(0 -77.54)"/><path d="M102.5,188.91v-1.69a11.87,11.87,0,1,0,0-23.73v-1.68a13.55,13.55,0,1,1,0,27.1Z" transform="translate(0 -77.54)"/><path d="M102.5,214.32v-1.68a11.87,11.87,0,1,0,0-23.73v-1.69a13.55,13.55,0,0,1,0,27.1Z" transform="translate(0 -77.54)"/><path d="M102.5,239.73v-1.68a11.87,11.87,0,1,0,0-23.73v-1.68a13.55,13.55,0,1,1,0,27.09Z" transform="translate(0 -77.54)"/><path d="M115.21,150.78V149.1a11.88,11.88,0,0,0,11.86-11.87h1.69A13.56,13.56,0,0,1,115.21,150.78Z" transform="translate(0 -77.54)"/><path d="M115.21,176.2v-1.69a11.87,11.87,0,0,0,0-23.73V149.1a13.55,13.55,0,0,1,0,27.1Z" transform="translate(0 -77.54)"/><path d="M115.21,201.61v-1.68a11.87,11.87,0,0,0,0-23.73v-1.69a13.55,13.55,0,0,1,0,27.1Z" transform="translate(0 -77.54)"/><path d="M115.21,227v-1.69a11.87,11.87,0,0,0,0-23.73v-1.68a13.55,13.55,0,0,1,0,27.1Z" transform="translate(0 -77.54)"/><path d="M128.76,238.89h-1.69A11.87,11.87,0,0,0,115.21,227v-1.69A13.57,13.57,0,0,1,128.76,238.89Z" transform="translate(0 -77.54)"/><path d="M127.91,163.49v-1.68a11.87,11.87,0,1,0,0-23.73v-1.69a13.55,13.55,0,1,1,0,27.1Z" transform="translate(0 -77.54)"/><path d="M127.91,188.91v-1.69a11.87,11.87,0,1,0,0-23.73v-1.68a13.55,13.55,0,1,1,0,27.1Z" transform="translate(0 -77.54)"/><path d="M127.91,214.32v-1.68a11.87,11.87,0,1,0,0-23.73v-1.69a13.55,13.55,0,1,1,0,27.1Z" transform="translate(0 -77.54)"/><path d="M127.91,239.73v-1.68a11.87,11.87,0,1,0,0-23.73v-1.68a13.55,13.55,0,1,1,0,27.09Z" transform="translate(0 -77.54)"/><path class="cls-3" d="M685.07,137H646.71a12.74,12.74,0,1,0,0,25.47h38.36a12.74,12.74,0,0,0,0-25.47Z" transform="translate(0 -77.54)"/><path d="M685.07,163.32H646.71a13.58,13.58,0,1,1,0-27.15h38.36a13.58,13.58,0,0,1,0,27.15Zm-38.36-25.47a11.9,11.9,0,1,0,0,23.79h38.36a11.9,11.9,0,0,0,0-23.79Z" transform="translate(0 -77.54)"/><path class="cls-3" d="M685.07,162.48H646.71a12.74,12.74,0,1,0,0,25.47h38.36a12.74,12.74,0,0,0,0-25.47Z" transform="translate(0 -77.54)"/><path d="M685.07,188.79H646.71a13.58,13.58,0,1,1,0-27.15h38.36a13.58,13.58,0,0,1,0,27.15Zm-38.36-25.47a11.9,11.9,0,1,0,0,23.79h38.36a11.9,11.9,0,0,0,0-23.79Z" transform="translate(0 -77.54)"/><path class="cls-3" d="M685.07,188H646.71A12.74,12.74,0,0,0,634,200.69h0a12.73,12.73,0,0,0,12.74,12.73h38.36a12.73,12.73,0,0,0,12.73-12.73h0A12.73,12.73,0,0,0,685.07,188Z" transform="translate(0 -77.54)"/><path d="M685.07,214.26H646.71a13.58,13.58,0,1,1,0-27.15h38.36a13.58,13.58,0,0,1,0,27.15Zm-38.36-25.47a11.9,11.9,0,1,0,0,23.79h38.36a11.9,11.9,0,0,0,0-23.79Z" transform="translate(0 -77.54)"/><rect class="cls-3" x="633.97" y="135.88" width="63.83" height="25.47" rx="12.74"/><path d="M685.07,239.73H646.71a13.58,13.58,0,1,1,0-27.15h38.36a13.58,13.58,0,0,1,0,27.15Zm-38.36-25.47a11.9,11.9,0,1,0,0,23.79h38.36a11.9,11.9,0,0,0,0-23.79Z" transform="translate(0 -77.54)"/><path class="cls-3" d="M629.14,137A35.14,35.14,0,0,1,594,172.15" transform="translate(0 -77.54)"/><path d="M594,173V171.3A34.33,34.33,0,0,0,628.3,137H630A36,36,0,0,1,594,173Z" transform="translate(0 -77.54)"/><path d="M890,113.65l.48,6.15c-3,2-5.36,2.48-9.63,2.48-8.28,0-13.87-5.52-13.87-14.43s5.59-14.43,13.87-14.43c4.11,0,7.11.4,9.63,2.44l-.48,6.19h-.52c-1.12-6.59-5.4-8.11-8.63-8.11-4.16,0-8.76,1.84-8.76,13.91,0,12.27,4.72,13.91,8.76,13.91a8.52,8.52,0,0,0,8.63-8.11Z" transform="translate(0 -77.54)"/><path d="M904,93.78v.52c-1.72,0-2.8.68-2.8,3.16v20.18c0,2.72,1.12,3.76,2.8,3.76v.52H894.3v-.52c1.72,0,2.8-1,2.8-3.76V97.46c0-2.48-1-3.16-2.8-3.16v-.52Z" transform="translate(0 -77.54)"/><path d="M927.32,113.61v8.31H907.21v-.52c1.68,0,2.16-1.44,2.16-4.16V98.06c0-2.48-.4-3.76-2.16-3.76v-.52H926.8V101h-.52c-.48-6.59-7.4-6.67-10.64-6.67h-2.15v13.15h2.59c1.08,0,5.32,0,5.52-4h.52V112h-.52c-.2-4-4.52-4-5.52-4h-2.59V121.4h1.83c3.56,0,10.64.2,11.48-7.79Zm-5.24-21.07h1L917.32,85l-5.67,7.51h.92l4.75-4.08Z" transform="translate(0 -77.54)"/><path d="M961.05,93.78v.48c-5.79,0-5.67,5.76-5.67,9.47v18.19H954.1l-17-21.9v11.91c0,3.51,0,9.47,5.24,9.47v.52H930.79v-.52c5.8,0,5.8-5.88,5.8-9.47V99.42L935,97.3c-2.56-3.2-3.72-3-4.75-3v-.48h7.39l17.27,22.3V103.73c0-3.71,0-9.47-5.24-9.47v-.48Z" transform="translate(0 -77.54)"/><path d="M986.68,113.65l.48,6.15c-3,2-5.36,2.48-9.64,2.48-8.27,0-13.87-5.52-13.87-14.43s5.6-14.43,13.87-14.43c4.12,0,7.12.4,9.64,2.44l-.48,6.19h-.52c-1.12-6.59-5.4-8.11-8.64-8.11-4.15,0-8.75,1.84-8.75,13.91,0,12.27,4.72,13.91,8.75,13.91a8.52,8.52,0,0,0,8.64-8.11Z" transform="translate(0 -77.54)"/><path d="M1000.67,93.78v.52c-1.72,0-2.8.68-2.8,3.16v20.18c0,2.72,1.12,3.76,2.8,3.76v.52H991v-.52c1.72,0,2.8-1,2.8-3.76V97.46c0-2.48-1-3.16-2.8-3.16v-.52Z" transform="translate(0 -77.54)"/><path d="M1029.53,121.92h-9.11v-.52c2.16,0,1.76-2.28.84-4.52l-1.4-3.47h-10.35c-1.08,3.19-2.84,8.15,2.71,8v.52h-8.91v-.52c1.52,0,2.52-.2,6-9.43L1016,93.78h.44c4.88,11.75,9.83,24.38,9.83,24.38,1.32,3.2,2.16,3.16,3.28,3.24Zm-9.83-9-5.24-13.27-4.83,13.27Z" transform="translate(0 -77.54)"/><path d="M998.93,159a3.18,3.18,0,0,1-3,3.24,4.46,4.46,0,0,1-3.83-2l-2.56-3.84c-1.12,4.48-8.84,8.55-13.43,3.52s0-10.6,3.31-12.39l2.68-1.68-1.72-2.48c-4.35-5.68-3-10.39,1.44-11.15a6.22,6.22,0,0,1,5.68,1.59c2,2.24,3.12,7.52-3.28,11.36L990.3,154c1.51-4.6,4-5.28,5-5.48a2.4,2.4,0,0,1,2,.36,1.38,1.38,0,0,1,.16,2,1.5,1.5,0,0,1-2.08.16,1.13,1.13,0,0,1-.52-1c0-1-3.07-.36-4.35,4.24l3.19,4.52a4.18,4.18,0,0,0,2.92,2,1.81,1.81,0,0,0,2-1.84Zm-9.63-2.92-7-9.91-2.68,1.6c-2.51,1.55-6.07,6.59-2.15,11.07C980.66,162.42,987.06,161.74,989.3,156.1ZM984,144.91c5.44-3.2,5.52-7.92,3.16-10.87a5,5,0,0,0-5.24-1.16c-3.2,1.23-2.64,5.23-.72,8.07Z" transform="translate(0 -77.54)"/><path d="M1022.44,162.26c-6.52,0-9.52-2.24-9.52-2.24v-7.68h.48c.44,4.88,2.24,9.4,9,9.4,6.07,0,6.87-6.76,2.2-10.08l-6.64-4.27c-3.8-2.52-7.43-6.16-4.36-10.88,0,0,2-3.11,7.52-3.11a20.2,20.2,0,0,1,9.15,1.87V142h-.56c-.36-3.92-1.92-8.08-8.59-8.08-4.32,0-7.6,5.56-1.56,9.48l6.59,4.36c5.36,3.51,6.24,7.95,4.16,11.23C1030.35,159,1028.63,162.26,1022.44,162.26Z" transform="translate(0 -77.54)"/><path d="M1048.38,162.26c-8.79,0-13-6.28-13-14.24s4.2-14.62,13-14.62,13,6.71,13,14.62S1057.17,162.26,1048.38,162.26Zm0-28.35c-4.76,0-8.39,3.16-8.39,14.11s3.63,13.72,8.39,13.72,8.36-2.72,8.36-13.72S1053.1,133.91,1048.38,133.91Z" transform="translate(0 -77.54)"/><path d="M1087.88,153.62l.48,6.16c-3,2-5.36,2.48-9.64,2.48-8.27,0-13.87-5.52-13.87-14.43s5.6-14.43,13.87-14.43c4.12,0,7.12.39,9.64,2.43l-.48,6.2h-.52c-1.12-6.6-5.4-8.12-8.64-8.12-4.15,0-8.75,1.84-8.75,13.92,0,12.27,4.72,13.91,8.75,13.91a8.52,8.52,0,0,0,8.64-8.12Z" transform="translate(0 -77.54)"/><path d="M1101.87,133.76v.51c-1.72,0-2.8.68-2.8,3.16v20.19c0,2.72,1.12,3.76,2.8,3.76v.52h-9.72v-.52c1.72,0,2.8-1,2.8-3.76V137.43c0-2.48-1-3.16-2.8-3.16v-.51Z" transform="translate(0 -77.54)"/><path d="M1125.17,153.58v8.32h-20.1v-.52c1.68,0,2.15-1.44,2.15-4.16V138c0-2.48-.39-3.76-2.15-3.76v-.51h19.58V141h-.52c-.48-6.6-7.39-6.68-10.63-6.68h-2.16v13.16h2.6c1.08,0,5.32,0,5.52-4h.52V152h-.52c-.2-4-4.52-4-5.52-4h-2.6v13.43h1.84c3.56,0,10.63.2,11.47-7.8Z" transform="translate(0 -77.54)"/><path d="M1138,161.9h-8.6v-.52c1.72,0,2.72-1.52,2.72-4.24V138.47c0-2.48-1-4.2-2.72-4.2v-.51h8.6c8,0,15.86,2.43,15.86,14.14C1153.87,160,1146,161.9,1138,161.9Zm0-27.63h-1.76v27.11H1138c4.31,0,11.07-.2,11.07-13.48C1149.08,135,1142.4,134.27,1138,134.27Z" transform="translate(0 -77.54)"/><path d="M1181,161.9h-9.12v-.52c2.16,0,1.76-2.28.84-4.52l-1.4-3.48H1161c-1.08,3.2-2.84,8.16,2.72,8v.52h-8.91v-.52c1.51,0,2.51-.2,6-9.44l6.68-18.18h.44c4.87,11.75,9.83,24.38,9.83,24.38,1.32,3.2,2.16,3.16,3.28,3.24Zm-9.84-9-5.23-13.27-4.84,13.27Z" transform="translate(0 -77.54)"/><path d="M1192.13,161.9h-8.59v-.52c1.72,0,2.72-1.52,2.72-4.24V138.47c0-2.48-1-4.2-2.72-4.2v-.51h8.59c8,0,15.87,2.43,15.87,14.14C1208,160,1200.09,161.9,1192.13,161.9Zm0-27.63h-1.76v27.11h1.76c4.32,0,11.07-.2,11.07-13.48C1203.2,135,1196.53,134.27,1192.13,134.27Z" transform="translate(0 -77.54)"/><path d="M1231.75,153.58v8.32h-20.11v-.52c1.68,0,2.16-1.44,2.16-4.16V138c0-2.48-.4-3.76-2.16-3.76v-.51h19.59V141h-.52c-.48-6.6-7.4-6.68-10.64-6.68h-2.15v13.16h2.59c1.08,0,5.32,0,5.52-4h.52V152H1226c-.2-4-4.52-4-5.52-4h-2.59v13.43h1.83c3.56,0,10.64.2,11.48-7.8Z" transform="translate(0 -77.54)"/><path d="M882.66,199s-1.52,3.28-7.47,3.28c-5.28,0-8.11-2-8.11-2v-7.67h.32c0,7.31,1.27,9.35,7.75,9.35,7.87,0,8.19-7.71,3.68-10.79l-7.08-4.72c-1.92-1.48-7.11-4.72-4.28-9.83a8,8,0,0,1,6.8-3.16,17.49,17.49,0,0,1,8,1.84v6.71h-.4c0-5.75-.67-8.19-7.59-8.19-4.32,0-9.31,5.84-2.48,10.27l7,4.6C884.26,192.2,883.86,196.71,882.66,199Z" transform="translate(0 -77.54)"/><path d="M904.21,194v7.91H886.54v-.36c1.68,0,2-.8,2-3.52V176.73c0-2.48-.2-2.64-2-2.64v-.36h17.15v6.8h-.36c0-6.32-3-6.44-9.47-6.44h-2.92v13.39h3.76c2.16,0,4.59,0,4.59-3.92h.36v8.2h-.36c0-3.88-2.55-3.92-4.59-3.92h-3.76v13.67h2.24c7.11,0,10.67.36,10.67-7.55Z" transform="translate(0 -77.54)"/><path d="M938,193.56v8.31H917.84v-.52c1.68,0,2.16-1.44,2.16-4.16V178c0-2.48-.4-3.76-2.16-3.76v-.52h19.59v7.2h-.52c-.48-6.6-7.4-6.68-10.63-6.68h-2.16V187.4h2.6c1.08,0,5.31,0,5.51-4h.52V192h-.52c-.2-4-4.51-4-5.51-4h-2.6v13.43H926c3.55,0,10.63.2,11.47-7.79Z" transform="translate(0 -77.54)"/><path d="M971.69,173.73v.48c-5.8,0-5.68,5.76-5.68,9.47v18.19h-1.28l-17-21.9v11.91c0,3.52,0,9.47,5.24,9.47v.52H941.43v-.52c5.79,0,5.79-5.87,5.79-9.47V179.37l-1.63-2.12c-2.56-3.2-3.72-3-4.76-3v-.48h7.39L965.49,196V183.68c0-3.71,0-9.47-5.23-9.47v-.48Z" transform="translate(0 -77.54)"/><path d="M997.31,193.6l.48,6.15c-3,2-5.35,2.48-9.63,2.48-8.28,0-13.87-5.52-13.87-14.43s5.59-14.43,13.87-14.43c4.12,0,7.11.4,9.63,2.44l-.48,6.19h-.52c-1.12-6.59-5.39-8.11-8.63-8.11-4.16,0-8.76,1.84-8.76,13.91,0,12.27,4.72,13.91,8.76,13.91a8.51,8.51,0,0,0,8.63-8.11Z" transform="translate(0 -77.54)"/><path d="M1014.14,202.23c-8.79,0-13-6.27-13-14.23s4.2-14.63,13-14.63,13,6.72,13,14.63S1022.94,202.23,1014.14,202.23Zm0-28.34c-4.76,0-8.39,3.16-8.39,14.11s3.63,13.71,8.39,13.71,8.36-2.72,8.36-13.71S1018.86,173.89,1014.14,173.89Z" transform="translate(0 -77.54)"/><path d="M1060.27,173.73v.48c-5.79,0-5.67,5.76-5.67,9.47v18.19h-1.28l-17-21.9v11.91c0,3.52,0,9.47,5.24,9.47v.52H1030v-.52c5.8,0,5.8-5.87,5.8-9.47V179.37l-1.64-2.12c-2.56-3.2-3.72-3-4.76-3v-.48h7.4l17.27,22.3V183.68c0-3.71,0-9.47-5.24-9.47v-.48Z" transform="translate(0 -77.54)"/><path d="M1086.5,173.73v7H1086c-.16-6.44-6.84-6.52-7.4-6.52h-2.36V198c0,2.64,1.24,3.36,2.92,3.36v.52h-9.75v-.52c1.68,0,2.88-.72,2.88-3.36V174.25h-2.36c-1.24,0-7.2.08-7.36,6.52H1062v-7Z" transform="translate(0 -77.54)"/><path d="M1112.8,201.87h-3c-5.11,0-4.51,0-6.79-8.71-1.12-4.2-5.16-4.2-6.2-4.2h-1.88v8.75c0,2.76.88,3.64,2.56,3.64v.52h-9v-.52c1.72,0,2.47-.8,2.47-4.16v-19.9c0-2.48-.71-3-2.47-3v-.52h7.63c8,0,12.35,1,12.35,7.64,0,5.43-3.11,7-7.43,7.31,2.64.12,5.39.4,7.47,9.15a4.42,4.42,0,0,0,4.28,3.52Zm-16.67-27.62h-1.24v14.19h1.24c4.52,0,8,0,8-7.07C1104.09,174.09,1100.41,174.25,1096.13,174.25Z" transform="translate(0 -77.54)"/><path d="M1139.94,201.87h-9.11v-.52c2.16,0,1.76-2.28.84-4.52l-1.4-3.47h-10.35c-1.08,3.19-2.84,8.15,2.72,8v.52h-8.92v-.52c1.52,0,2.52-.2,6-9.43l6.67-18.19h.44c4.88,11.75,9.83,24.38,9.83,24.38,1.32,3.2,2.16,3.16,3.28,3.24Zm-9.83-9-5.24-13.27L1120,192.84Z" transform="translate(0 -77.54)"/><path d="M1176,201.35v.52h-10.23v-.52c1.68,0,2.87-.92,2.87-4.16V175.25l-9.67,27h-.48l-11.15-24.46v14.15c0,4.63.68,9.43,5.12,9.43v.52h-11.32v-.52c5,0,5.68-4.92,5.68-9.43v-15a4.87,4.87,0,0,0-4.48-2.64v-.52h8l10.39,22.62,8-22.62h7.08v.52c-1.72,0-3.08.8-3.08,3.52v19.42C1172.64,200.43,1174.28,201.35,1176,201.35Z" transform="translate(0 -77.54)"/><path d="M895,213.71V214c-5.51,0-5.35,2-5.35,9.43v18.39h-.44L872.61,220v12.07c0,7.08,0,9.44,5,9.44v.36h-11v-.36c5.52,0,5.56-2.24,5.56-9.44V219.5l-1.72-2.28c-2.56-3.19-3.72-3.11-4.76-3.19v-.32h5l18.47,24.74v-15c0-7.44,0-9.43-5-9.43v-.32Z" transform="translate(0 -77.54)"/><path d="M920.54,241.49v.36h-6.8v-.36c1.2,0,2.48-.28.6-4.76l-1.55-4.08H901.55c-2.2,6.4-3.19,8.84,1.6,8.84v.36h-8v-.36c2,0,3-.68,6-9.64l6.48-18.14h.16l9.55,24.18C918.62,241.09,919.34,241.41,920.54,241.49Zm-7.87-9.2L907,217.46l-5.32,14.83Z" transform="translate(0 -77.54)"/><path d="M941.09,232.25V217.7c0-2.71-1.08-3.47-2.84-3.47v-.52h10v.52c-1.72,0-3.15.36-3.15,3.51v14.87c0,5,3,7.8,7.27,7.8,4.08,0,7.24-2.84,7.24-8V221.54c0-3.76-.08-7.31-4.76-7.31v-.52h10.39v.52c-5.23,0-5.11,3.55-5.11,7.31v10.87c0,7.16-4.8,9.8-9.72,9.8C945.17,242.21,941.09,238.77,941.09,232.25Z" transform="translate(0 -77.54)"/><path d="M997.37,213.71v.48c-5.8,0-5.68,5.75-5.68,9.47v18.19h-1.27l-17-21.91v11.91c0,3.52,0,9.48,5.23,9.48v.52H967.11v-.52c5.8,0,5.8-5.88,5.8-9.48V219.34l-1.64-2.12c-2.56-3.19-3.72-2.95-4.76-3v-.48h7.4L991.18,236V223.66c0-3.72,0-9.47-5.24-9.47v-.48Z" transform="translate(0 -77.54)"/><path d="M1010.16,213.71v.52c-1.71,0-2.79.68-2.79,3.15v20.19c0,2.72,1.12,3.76,2.79,3.76v.52h-9.71v-.52c1.72,0,2.8-1,2.8-3.76V217.38c0-2.47-1-3.15-2.8-3.15v-.52Z" transform="translate(0 -77.54)"/><path d="M1040.86,213.71v.52c-2.63,0-3.63,0-7.27,9.55l-6.88,18.07h-.56c-4.91-11.76-9.67-24.71-9.67-24.71-1.16-2.83-2.44-2.91-3.8-2.91v-.52h10.76v.52c-3.32,0-2.48,3.27-2.4,3.55l7.11,19.07,5-13.15c1.24-3.72,3.6-9.47-2.16-9.47v-.52Z" transform="translate(0 -77.54)"/><path d="M1063.17,233.53v8.32h-20.1v-.52c1.67,0,2.15-1.44,2.15-4.16V218c0-2.48-.4-3.75-2.15-3.75v-.52h19.58v7.19h-.52c-.48-6.59-7.39-6.67-10.63-6.67h-2.16v13.15h2.6c1.08,0,5.32,0,5.51-4h.52v8.59h-.52c-.19-4-4.51-4-5.51-4h-2.6v13.43h1.84c3.56,0,10.63.2,11.47-7.8Z" transform="translate(0 -77.54)"/><path d="M1091.11,241.85h-3c-5.12,0-4.52,0-6.8-8.72-1.12-4.19-5.16-4.19-6.2-4.19h-1.87v8.75c0,2.76.87,3.64,2.55,3.64v.52h-9v-.52c1.72,0,2.48-.8,2.48-4.16V217.26c0-2.47-.72-3-2.48-3v-.52h7.64c8,0,12.35,1,12.35,7.63,0,5.44-3.12,7-7.44,7.32,2.64.12,5.4.4,7.48,9.15a4.41,4.41,0,0,0,4.27,3.52Zm-16.66-27.62h-1.24v14.19h1.24c4.51,0,8,0,8-7.08C1082.4,214.07,1078.72,214.23,1074.45,214.23Z" transform="translate(0 -77.54)"/><path d="M1102.59,242.21c-6.52,0-9.52-2.24-9.52-2.24v-7.68h.48c.44,4.88,2.24,9.4,9,9.4,6.07,0,6.87-6.76,2.2-10.08l-6.64-4.27c-3.8-2.52-7.43-6.16-4.36-10.88,0,0,2-3.11,7.52-3.11a20.2,20.2,0,0,1,9.15,1.87v6.72h-.56c-.36-3.92-1.92-8.07-8.59-8.07-4.32,0-7.6,5.55-1.56,9.47l6.59,4.36c5.36,3.51,6.24,8,4.16,11.23C1110.5,238.93,1108.78,242.21,1102.59,242.21Z" transform="translate(0 -77.54)"/><path d="M1125.69,213.71v.52c-1.72,0-2.79.68-2.79,3.15v20.19c0,2.72,1.11,3.76,2.79,3.76v.52H1116v-.52c1.72,0,2.8-1,2.8-3.76V217.38c0-2.47-1-3.15-2.8-3.15v-.52Z" transform="translate(0 -77.54)"/><path d="M1138,241.85h-8.6v-.52c1.72,0,2.72-1.52,2.72-4.24V218.42c0-2.48-1-4.19-2.72-4.19v-.52h8.6c8,0,15.86,2.43,15.86,14.15C1153.87,239.93,1146,241.85,1138,241.85Zm0-27.62h-1.76v27.1H1138c4.31,0,11.07-.2,11.07-13.47C1149.08,215,1142.4,214.23,1138,214.23Z" transform="translate(0 -77.54)"/><path d="M1181,241.85h-9.12v-.52c2.16,0,1.76-2.28.84-4.52l-1.4-3.48H1161c-1.08,3.2-2.84,8.16,2.72,8v.52h-8.91v-.52c1.51,0,2.51-.2,6-9.44l6.68-18.18h.44c4.87,11.75,9.83,24.38,9.83,24.38,1.32,3.2,2.16,3.16,3.28,3.24Zm-9.84-9-5.23-13.27-4.84,13.27Z" transform="translate(0 -77.54)"/><path d="M1192.13,241.85h-8.59v-.52c1.72,0,2.72-1.52,2.72-4.24V218.42c0-2.48-1-4.19-2.72-4.19v-.52h8.59c8,0,15.87,2.43,15.87,14.15C1208,239.93,1200.09,241.85,1192.13,241.85Zm0-27.62h-1.76v27.1h1.76c4.32,0,11.07-.2,11.07-13.47C1203.2,215,1196.53,214.23,1192.13,214.23Z" transform="translate(0 -77.54)"/><path d="M1231.75,233.53v8.32h-20.11v-.52c1.68,0,2.16-1.44,2.16-4.16V218c0-2.48-.4-3.75-2.16-3.75v-.52h19.59v7.19h-.52c-.48-6.59-7.4-6.67-10.64-6.67h-2.15v13.15h2.59c1.08,0,5.32,0,5.52-4h.52v8.59H1226c-.2-4-4.52-4-5.52-4h-2.59v13.43h1.83c3.56,0,10.64.2,11.48-7.8Z" transform="translate(0 -77.54)"/><path class="cls-3" d="M910.69,149l-3.49-3.44a3.49,3.49,0,0,0-4.84-.07h0a3.49,3.49,0,0,0,0,5.12l3.81,3.54a4.14,4.14,0,0,0,2.81,1.1h3.74a4.14,4.14,0,0,0,4.13-4.14v-8.35a6.56,6.56,0,0,0-6.56-6.55l-36.94,0-3.2,16h19l8.44,6.82a14.62,14.62,0,0,0,9.16,3.23h2.66a3.24,3.24,0,0,0,3.23-3.24h0a3.76,3.76,0,0,0-3.78-3.75H909" transform="translate(0 -77.54)"/><path d="M906.76,162.62a15,15,0,0,1-9.41-3.33L889,152.57H869.64l3.37-16.8,37.28,0h0a7,7,0,0,1,7,7v8.35a4.57,4.57,0,0,1-4.55,4.56h-1.31a5,5,0,0,1,.43.37,4.16,4.16,0,0,1,1.23,3,3.65,3.65,0,0,1-3.65,3.65h-2.67Zm-17.44-10.89,8.56,6.91a14.19,14.19,0,0,0,8.88,3.14h2.67a2.82,2.82,0,0,0,2.81-2.82,3.33,3.33,0,0,0-3.22-3.33h0a4.53,4.53,0,0,1-3.09-1.21l-3.82-3.54a3.92,3.92,0,1,1,5.41-5.66l3.49,3.45-.59.59-3.48-3.44a3.08,3.08,0,0,0-4.27-.06,3.1,3.1,0,0,0,0,4.51l3.82,3.53a3.67,3.67,0,0,0,2.41,1h3.85a3.72,3.72,0,0,0,3.71-3.72v-8.35a6.16,6.16,0,0,0-6.14-6.13h0l-36.59,0-3,15.12Z" transform="translate(0 -77.54)"/><path class="cls-3" d="M908.09,142.44a7.93,7.93,0,0,0,2.6,6.54" transform="translate(0 -77.54)"/><path d="M910.39,149.28a8.35,8.35,0,0,1-2.72-6.91l.83.14-.41-.07.41.07a7.49,7.49,0,0,0,2.48,6.17Z" transform="translate(0 -77.54)"/><path class="cls-5" d="M923,149l3.49-3.45a3.49,3.49,0,0,1,4.84-.07h0a3.5,3.5,0,0,1,0,5.12l-3.81,3.54a4.12,4.12,0,0,1-2.81,1.1H921a4.13,4.13,0,0,1-4.13-4.13v-8.35a6.55,6.55,0,0,1,6.55-6.55h36.94l3.22,15.95h-19L936.11,159a14.58,14.58,0,0,1-9.15,3.24H924.3a3.23,3.23,0,0,1-3.23-3.23h0a3.76,3.76,0,0,1,3.77-3.76h-.11" transform="translate(0 -77.54)"/><path d="M927,162.63H924.3a3.65,3.65,0,0,1-3.65-3.65,4.12,4.12,0,0,1,1.23-3,3.89,3.89,0,0,1,.43-.38H921a4.55,4.55,0,0,1-4.55-4.55v-8.35a7,7,0,0,1,7-7H960.7l3.39,16.79H944.7l-8.32,6.74A15.08,15.08,0,0,1,927,162.63Zm-2.25-7a3.35,3.35,0,0,0-3.23,3.34,2.82,2.82,0,0,0,2.82,2.81H927a14.19,14.19,0,0,0,8.89-3.15l8.55-6.92h18.66l-3-15.11h-36.6a6.14,6.14,0,0,0-6.13,6.13v8.35A3.71,3.71,0,0,0,921,154.8h3.85a3.65,3.65,0,0,0,2.42-1l3.81-3.54a3.08,3.08,0,1,0-4.26-4.44l-3.48,3.45-.59-.6,3.48-3.45a3.92,3.92,0,1,1,5.42,5.66l-3.81,3.54a4.57,4.57,0,0,1-3.1,1.21Z" transform="translate(0 -77.54)"/><path class="cls-5" d="M925.63,142.44A7.93,7.93,0,0,1,923,149" transform="translate(0 -77.54)"/><path d="M923.33,149.28l-.59-.6a7.49,7.49,0,0,0,2.48-6.17l.82-.14A8.29,8.29,0,0,1,923.33,149.28Z" transform="translate(0 -77.54)"/><path class="cls-6" d="M1150,104.14l-8.22-24.21a2.91,2.91,0,0,0-5.66.93,19.51,19.51,0,0,0,.29,3.32l4,22.72,2,12.25h85.33l2.43-15Z" transform="translate(0 -77.54)"/><path d="M1228.14,119.57h-86L1140,107l-4-22.72a19.33,19.33,0,0,1-.3-3.39,3.32,3.32,0,0,1,6.47-1.07l8.13,23.93h80.38Zm-85.32-.84h84.61l2.3-14.17h-80l-8.32-24.5a2.49,2.49,0,0,0-4.84.8,18.59,18.59,0,0,0,.29,3.24l4,22.73Z" transform="translate(0 -77.54)"/><path class="cls-6" d="M1143.51,95.24l-4-11.78a2.2,2.2,0,0,0-2.09-1.49h0a2.2,2.2,0,0,0-2.21,2.2h0a30.24,30.24,0,0,0,.35,4.56l4,25.8" transform="translate(0 -77.54)"/><path d="M1139.1,114.59l-3.95-25.8a29.77,29.77,0,0,1-.36-4.62,2.63,2.63,0,0,1,5.12-.84l4,11.78-.79.27-4-11.78a1.77,1.77,0,0,0-1.69-1.21,1.79,1.79,0,0,0-1.79,1.78,30.88,30.88,0,0,0,.34,4.5l4,25.8Z" transform="translate(0 -77.54)"/><path class="cls-6" d="M1143.1,108.92,1140,96.83A2.45,2.45,0,0,0,1137.4,95h0a2.45,2.45,0,0,0-2.19,2.44V111.9a7.26,7.26,0,0,0,7.25,7.25h1.68" transform="translate(0 -77.54)"/><path d="M1144.14,119.57h-1.68a7.68,7.68,0,0,1-7.67-7.67V97.44a2.87,2.87,0,0,1,5.65-.71l3.07,12.09-.82.21-3.06-12.09a2,2,0,0,0-4,.5V111.9a6.85,6.85,0,0,0,6.83,6.83h1.68Z" transform="translate(0 -77.54)"/><path class="cls-5" d="M1114.83,104.14h5.56l8.23-24.21a2.9,2.9,0,0,1,5.65.93,18.54,18.54,0,0,1-.29,3.32l-4,22.72-2,12.25h-85.32l-2.43-15Z" transform="translate(0 -77.54)"/><path d="M1128.32,119.57h-86l-2.57-15.85h80.38l8.13-23.93a3.32,3.32,0,0,1,6.47,1.07,19.33,19.33,0,0,1-.3,3.39l-4,22.72Zm-85.33-.84h84.62l2-11.9,4-22.73a18.57,18.57,0,0,0,.28-3.24,2.48,2.48,0,0,0-4.83-.8l-8.33,24.5h-80Z" transform="translate(0 -77.54)"/><path class="cls-5" d="M1126.91,95.24l4-11.78A2.22,2.22,0,0,1,1133,82h0a2.2,2.2,0,0,1,2.21,2.2h0a30.23,30.23,0,0,1-.34,4.56l-4,25.8" transform="translate(0 -77.54)"/><path d="M1131.32,114.59l-.82-.12,4-25.8a29.35,29.35,0,0,0,.34-4.5,1.79,1.79,0,0,0-3.48-.57l-4,11.78-.79-.27,4-11.78a2.62,2.62,0,0,1,5.11.84,30.94,30.94,0,0,1-.35,4.62Z" transform="translate(0 -77.54)"/><path class="cls-5" d="M1127.32,108.92l3.07-12.09A2.44,2.44,0,0,1,1133,95h0a2.44,2.44,0,0,1,2.19,2.44V111.9a7.25,7.25,0,0,1-7.25,7.25h-1.68" transform="translate(0 -77.54)"/><path d="M1128,119.57h-1.68v-.84H1128a6.84,6.84,0,0,0,6.83-6.83V97.44a2,2,0,0,0-4-.5L1127.73,109l-.81-.21L1130,96.73a2.87,2.87,0,0,1,5.65.71V111.9A7.68,7.68,0,0,1,1128,119.57Z" transform="translate(0 -77.54)"/><polygon class="cls-7" points="1221.84 97.12 1221.84 100.96 1210.51 100.96 1208.77 104.89 1222.13 116.11 1227.76 115.07 1233.96 115.07 1230.61 97.12 1221.84 97.12"/><path d="M1222,194.1l-13.76-11.56,2-4.46h11.18v-3.84H1231l3.52,18.79h-6.67Zm-12.73-11.79,13,10.89,5.52-1h5.7l-3.2-17.11h-8v3.84h-11.48Z" transform="translate(0 -77.54)"/><path class="cls-5" d="M1221.43,191l-12.36-12.36,4-4h-21.56v0h-6.06l-3.36,18.18h5.75l22.64,10.45a2.72,2.72,0,0,0,3.09-.52l0-.05a2.7,2.7,0,0,0,0-3.83l-1.14-1.14,1.07,1.07a2.85,2.85,0,1,0,4-4l.07.07a2.71,2.71,0,0,0,3.83-3.83Z" transform="translate(0 -77.54)"/><path d="M1211.61,204a3.14,3.14,0,0,1-1.36-.31l-22.54-10.42h-6.16l3.51-19h6.06l.35,0H1214l-4.37,4.47,12.06,12.06a3.13,3.13,0,0,1-3.06,5.22,3.25,3.25,0,0,1-3.12,4.12,3.05,3.05,0,0,1-.87-.11,3.16,3.16,0,0,1-.8,3.06l0,0A3.13,3.13,0,0,1,1211.61,204Zm-29-11.56h5.33l.08,0,22.64,10.45a2.28,2.28,0,0,0,2.62-.44l0,0a2.29,2.29,0,0,0,0-3.24l-1.14-1.14.59-.6,1.07,1.07a2.37,2.37,0,0,0,1.71.71h0a2.4,2.4,0,0,0,1.73-.73,2.44,2.44,0,0,0,0-3.41l.59-.6.07.07a2.29,2.29,0,1,0,3.24-3.24l-12.65-12.65L1212,175h-20.22l-.35,0h-5.71Z" transform="translate(0 -77.54)"/><path class="cls-7" d="M1225.22,174.66h-12a8.76,8.76,0,0,0-7.28,3.88h0a8.73,8.73,0,0,0-1.5,4.9v4.81a2.74,2.74,0,0,0,2.74,2.74h0a2.74,2.74,0,0,0,2.61-1.91l2.32-7.35h0a7,7,0,0,0,9.89,0l.24-.26" transform="translate(0 -77.54)"/><path d="M1207.2,191.41a3.17,3.17,0,0,1-3.16-3.16v-4.81a9.2,9.2,0,0,1,9.2-9.2h12v.84h-12a8.35,8.35,0,0,0-8.36,8.36v4.81a2.32,2.32,0,0,0,4.53.7l2.53-8,.48.48a6.5,6.5,0,0,0,4.63,1.92h0a6.5,6.5,0,0,0,4.64-2l.24-.25.6.59-.24.25a7.36,7.36,0,0,1-5.24,2.21,7.2,7.2,0,0,1-4.75-1.71l-2.13,6.73A3.14,3.14,0,0,1,1207.2,191.41Z" transform="translate(0 -77.54)"/><path class="cls-7" d="M1198,190.3a2.82,2.82,0,0,0-3.88.88l-1.9,3a2.82,2.82,0,1,0,4.76,3l1.9-3A2.82,2.82,0,0,0,1198,190.3Z" transform="translate(0 -77.54)"/><path d="M1194.57,198.94a3.24,3.24,0,0,1-2.73-5l1.9-3a3.24,3.24,0,1,1,5.48,3.45l-1.9,3a3.24,3.24,0,0,1-2,1.43A3.53,3.53,0,0,1,1194.57,198.94Zm1.92-8.65a2.48,2.48,0,0,0-.54.06,2.42,2.42,0,0,0-1.5,1.06l-1.9,3a2.4,2.4,0,0,0,2.56,3.61,2.42,2.42,0,0,0,1.5-1.06l1.9-3a2.39,2.39,0,0,0-.75-3.3h0A2.34,2.34,0,0,0,1196.49,190.29Z" transform="translate(0 -77.54)"/><path class="cls-7" d="M1203.12,192.93a2.81,2.81,0,0,0-3.88.88l-1.9,3a2.81,2.81,0,1,0,4.76,3l1.9-3A2.81,2.81,0,0,0,1203.12,192.93Z" transform="translate(0 -77.54)"/><path d="M1199.71,201.57a3.24,3.24,0,0,1-2.73-5l1.9-3a3.24,3.24,0,0,1,2-1.43,3.18,3.18,0,0,1,2.44.42,3.23,3.23,0,0,1,1,4.46l-1.91,3a3.23,3.23,0,0,1-2,1.43A3.53,3.53,0,0,1,1199.71,201.57Zm1.92-8.66a2.41,2.41,0,0,0-2,1.12l-1.9,3a2.4,2.4,0,0,0,2.56,3.62,2.37,2.37,0,0,0,1.49-1.06l1.91-3a2.39,2.39,0,0,0,.31-1.81,2.42,2.42,0,0,0-1.06-1.5h0A2.43,2.43,0,0,0,1201.63,192.91Z" transform="translate(0 -77.54)"/><path class="cls-7" d="M1208.1,195.69a2.82,2.82,0,0,0-3.88.88l-1.9,3a2.82,2.82,0,1,0,4.76,3l1.9-3A2.82,2.82,0,0,0,1208.1,195.69Z" transform="translate(0 -77.54)"/><path d="M1204.69,204.33a3.23,3.23,0,0,1-2.73-5l1.9-3a3.24,3.24,0,0,1,4.47-1h0a3.23,3.23,0,0,1,1,4.46l-1.91,3a3.19,3.19,0,0,1-2,1.43A3.53,3.53,0,0,1,1204.69,204.33Zm1.92-8.65a2.48,2.48,0,0,0-.54.06,2.42,2.42,0,0,0-1.5,1.06l-1.9,3a2.39,2.39,0,0,0,.75,3.3,2.4,2.4,0,0,0,3.31-.75l1.9-3a2.39,2.39,0,0,0-.75-3.3h0A2.34,2.34,0,0,0,1206.61,195.68Z" transform="translate(0 -77.54)"/><rect x="1115.65" y="77.55" width="0.84" height="10.82" transform="translate(53.21 355.88) rotate(-22.5)"/><rect x="1108.85" y="82.09" width="0.84" height="10.82" transform="translate(263.02 732.46) rotate(-45)"/><rect x="1104.3" y="88.9" width="0.84" height="10.82" transform="translate(594.8 1001.3) rotate(-67.5)"/><rect x="1148.94" y="82.54" width="10.82" height="0.84" transform="translate(636.07 1040.21) rotate(-67.51)"/><rect x="1155.75" y="87.09" width="10.82" height="0.84" transform="translate(278.22 769.16) rotate(-45)"/><rect x="1160.29" y="93.89" width="10.83" height="0.84" transform="translate(52.69 375.89) rotate(-22.51)"/></g></g></g></svg>