<svg xmlns="http://www.w3.org/2000/svg" xmlns:xlink="http://www.w3.org/1999/xlink" viewBox="0 0 738.01 902.35"><defs><style>.cls-1{fill:none;}.cls-2{clip-path:url(#clip-path);}.cls-3{clip-path:url(#clip-path-2);}.cls-4{fill:#f6e904;}.cls-5{fill:#f5e90b;}.cls-6{fill:#f4e90c;}.cls-7{fill:#f3e813;}.cls-8{fill:#f2e818;}.cls-9{fill:#f1e818;}.cls-10{fill:#f0e81c;}.cls-11{fill:#efe81f;}.cls-12{fill:#eee720;}.cls-13{fill:#ede624;}.cls-14{fill:#ece627;}.cls-15{fill:#ebe627;}.cls-16{fill:#eae629;}.cls-17{fill:#e9e62c;}.cls-18{fill:#e8e62c;}.cls-19{fill:#e7e52f;}.cls-20{fill:#e6e531;}.cls-21{fill:#e5e531;}.cls-22{fill:#e4e534;}.cls-23{fill:#e3e536;}.cls-24{fill:#e2e436;}.cls-25{fill:#e1e439;}.cls-26{fill:#e0e43b;}.cls-27{fill:#dfe43b;}.cls-28{fill:#dfe43d;}.cls-29{fill:#dee43e;}.cls-30{fill:#dde33f;}.cls-31{fill:#dce341;}.cls-32{fill:#dbe343;}.cls-33{fill:#dae343;}.cls-34{fill:#d9e344;}.cls-35{fill:#d8e346;}.cls-36{fill:#d7e247;}.cls-37{fill:#d6e248;}.cls-38{fill:#d5e24a;}.cls-39{fill:#d4e24a;}.cls-40{fill:#d3e24c;}.cls-41{fill:#d2e24d;}.cls-42{fill:#d1e14e;}.cls-43{fill:#d0e14f;}.cls-44{fill:#cfe151;}.cls-45{fill:#cee151;}.cls-46{fill:#cde152;}.cls-47{fill:#cce054;}.cls-48{fill:#cbe054;}.cls-49{fill:#cae056;}.cls-50{fill:#c9e057;}.cls-51{fill:#c8e057;}.cls-52{fill:#c8e059;}.cls-53{fill:#c7df5b;}.cls-54{fill:#c6df5b;}.cls-55{fill:#c5df5c;}.cls-56{fill:#c4df5e;}.cls-57{fill:#c3df5e;}.cls-58{fill:#c2df5f;}.cls-59{fill:#c1de61;}.cls-60{fill:#c0de61;}.cls-61{fill:#bfde62;}.cls-62{fill:#bede64;}.cls-63{fill:#bdde64;}.cls-64{fill:#bcdd65;}.cls-65{fill:#bbdd67;}.cls-66{fill:#badd67;}.cls-67{fill:#b9dd68;}.cls-68{fill:#b8dd69;}.cls-69{fill:#b7dd69;}.cls-70{fill:#b6dc6b;}.cls-71{fill:#b5dc6c;}.cls-72{fill:#b4dc6e;}.cls-73{fill:#b3dc6f;}.cls-74{fill:#b2dc6f;}.cls-75{fill:#b1db70;}.cls-76{fill:#b0db72;}.cls-77{fill:#afdb72;}.cls-78{fill:#aedb73;}.cls-79{fill:#addb74;}.cls-80{fill:#acda75;}.cls-81{fill:#abda76;}.cls-82{fill:#aada77;}.cls-83{fill:#a9da77;}.cls-84{fill:#a8da78;}.cls-85{fill:#a7da7a;}.cls-86{fill:#a6d97a;}.cls-87{fill:#a5d97b;}.cls-88{fill:#a4d97c;}.cls-89{fill:#a3d97e;}.cls-90{fill:#a2d97f;}.cls-91{fill:#a1d87f;}.cls-92{fill:#a0d880;}.cls-93{fill:#9fd881;}.cls-94{fill:#9ed881;}.cls-95{fill:#9dd882;}.cls-96{fill:#9cd883;}.cls-97{fill:#9bd783;}.cls-98{fill:#9ad784;}.cls-99{fill:#99d786;}.cls-100{fill:#98d786;}.cls-101{fill:#97d787;}.cls-102{fill:#96d688;}.cls-103{fill:#95d688;}.cls-104{fill:#95d689;}.cls-105{fill:#94d68b;}.cls-106{fill:#93d68b;}.cls-107{fill:#92d68c;}.cls-108{fill:#90d48d;}.cls-109{fill:#8fd48e;}.cls-110{fill:#8ed48e;}.cls-111{fill:#8dd490;}.cls-112{fill:#8cd491;}.cls-113{fill:#8bd491;}.cls-114{fill:#8ad392;}.cls-115{fill:#89d393;}.cls-116{fill:#88d394;}.cls-117{fill:#87d396;}.cls-118{fill:#86d296;}.cls-119{fill:#85d297;}.cls-120{fill:#84d298;}.cls-121{fill:#83d298;}.cls-122{fill:#82d299;}.cls-123{fill:#81d29a;}.cls-124{fill:#80d19b;}.cls-125{fill:#80d19c;}.cls-126{fill:#7fd19d;}.cls-127{fill:#7ed19e;}.cls-128{fill:#7dd19f;}.cls-129{fill:#7cd09f;}.cls-130{fill:#7bd0a1;}.cls-131{fill:#7ad0a2;}.cls-132{fill:#79d0a2;}.cls-133{fill:#78d0a3;}.cls-134{fill:#77d0a4;}.cls-135{fill:#76cfa4;}.cls-136{fill:#75cfa5;}.cls-137{fill:#75cfa6;}.cls-138{fill:#74cfa6;}.cls-139{fill:#73cfa8;}.cls-140{fill:#72cea9;}.cls-141{fill:#71cea9;}.cls-142{fill:#70ceaa;}.cls-143{fill:#6fceab;}.cls-144{fill:#6eceab;}.cls-145{fill:#6dceac;}.cls-146{fill:#6ccdad;}.cls-147{fill:#6bcdaf;}.cls-148{fill:#6acdb0;}.cls-149{fill:#69cdb0;}.cls-150{fill:#68cdb1;}.cls-151{fill:#67ccb2;}.cls-152{fill:#66ccb2;}.cls-153{fill:#66ccb3;}.cls-154{fill:#65ccb4;}.cls-155{fill:#64ccb4;}.cls-156{fill:#63cbb6;}.cls-157{fill:#62cbb7;}.cls-158{fill:#61cbb7;}.cls-159{fill:#60cbb8;}.cls-160{fill:#60cbb9;}.cls-161{fill:#5fcbb9;}.cls-162{fill:#5ecaba;}.cls-163{fill:#5dcabb;}.cls-164{fill:#5ccabb;}.cls-165{fill:#5bcabc;}.cls-166{fill:#5acabe;}.cls-167{fill:#59c9bf;}.cls-168{fill:#58c9c0;}.cls-169{fill:#57c9c0;}.cls-170{fill:#56c9c1;}.cls-171{fill:#55c9c2;}.cls-172{fill:#55c8c2;}.cls-173{fill:#54c8c3;}.cls-174{fill:#53c8c4;}.cls-175{fill:#52c8c4;}.cls-176{fill:#51c8c5;}.cls-177{fill:#51c8c7;}.cls-178{fill:#50c7c7;}.cls-179{fill:#4fc7c8;}.cls-180{fill:#4ec7c9;}.cls-181{fill:#4dc7c9;}.cls-182{fill:#4dc6ca;}.cls-183{fill:#4cc6cb;}.cls-184{fill:#4bc5cb;}.cls-185{fill:#4ac5cc;}.cls-186{fill:#49c5cd;}.cls-187{fill:#48c5ce;}.cls-188{fill:#47c5d0;}.cls-189{fill:#46c4d0;}.cls-190{fill:#46c4d1;}.cls-191{fill:#45c4d2;}.cls-192{fill:#44c4d2;}.cls-193{fill:#44c4d3;}.cls-194{fill:#43c3d4;}.cls-195{fill:#42c3d4;}.cls-196{fill:#41c3d5;}.cls-197{fill:#41c3d6;}.cls-198{fill:#40c3d6;}.cls-199{fill:#3fc3d7;}.cls-200{fill:#3fc2d9;}.cls-201{fill:#3ec2d9;}.cls-202{fill:#3dc2da;}.cls-203{fill:#3dc2db;}.cls-204{fill:#3cc2db;}.cls-205{fill:#3cc2dc;}.cls-206{fill:#3bc1dd;}.cls-207{fill:#3ac1dd;}.cls-208{fill:#3ac1de;}.cls-209{clip-path:url(#clip-path-3);}.cls-210{fill:#f6e806;}.cls-211{fill:#f5e70f;}.cls-212{fill:#f5e611;}.cls-213{fill:#f5e517;}.cls-214{fill:#f5e418;}.cls-215{fill:#f5e31d;}.cls-216{fill:#f5e21e;}.cls-217{fill:#f5e122;}.cls-218{fill:#f5e023;}.cls-219{fill:#f5df27;}.cls-220{fill:#f5de27;}.cls-221{fill:#f5dd28;}.cls-222{fill:#f5dc2b;}.cls-223{fill:#f5db2c;}.cls-224{fill:#f5da2f;}.cls-225{fill:#f5d92f;}.cls-226{fill:#f5d832;}.cls-227{fill:#f5d733;}.cls-228{fill:#f5d635;}.cls-229{fill:#f5d436;}.cls-230{fill:#f5d338;}.cls-231{fill:#f5d239;}.cls-232{fill:#f5d13b;}.cls-233{fill:#f4d03b;}.cls-234{fill:#f4cf3c;}.cls-235{fill:#f4ce3e;}.cls-236{fill:#f4cd3e;}.cls-237{fill:#f4cc41;}.cls-238{fill:#f4cb41;}.cls-239{fill:#f4ca43;}.cls-240{fill:#f4c943;}.cls-241{fill:#f4c845;}.cls-242{fill:#f4c746;}.cls-243{fill:#f4c648;}.cls-244{fill:#f4c548;}.cls-245{fill:#f4c448;}.cls-246{fill:#f4c34a;}.cls-247{fill:#f4c24a;}.cls-248{fill:#f4c14c;}.cls-249{fill:#f4c04c;}.cls-250{fill:#f4bf4e;}.cls-251{fill:#f4be4f;}.cls-252{fill:#f4bd50;}.cls-253{fill:#f4bc51;}.cls-254{fill:#f4bb52;}.cls-255{fill:#f4ba52;}.cls-256{fill:#f4b953;}.cls-257{fill:#f4b854;}.cls-258{fill:#f4b755;}.cls-259{fill:#f4b656;}.cls-260{fill:#f3b556;}.cls-261{fill:#f3b458;}.cls-262{fill:#f3b358;}.cls-263{fill:#f3b25a;}.cls-264{fill:#f3b15a;}.cls-265{fill:#f3b05c;}.cls-266{fill:#f3af5c;}.cls-267{fill:#f3ae5c;}.cls-268{fill:#f3ad5d;}.cls-269{fill:#f3ac5e;}.cls-270{fill:#f3ab5f;}.cls-271{fill:#f3aa5f;}.cls-272{fill:#f3a961;}.cls-273{fill:#f3a861;}.cls-274{fill:#f3a762;}.cls-275{fill:#f3a663;}.cls-276{fill:#f3a564;}.cls-277{fill:#f3a464;}.cls-278{fill:#f3a366;}.cls-279{fill:#f2a166;}.cls-280{fill:#f2a066;}.cls-281{fill:#f29f68;}.cls-282{fill:#f29e68;}.cls-283{fill:#f29d69;}.cls-284{fill:#f29c69;}.cls-285{fill:#f29b6b;}.cls-286{fill:#f29a6b;}.cls-287{fill:#f2996c;}.cls-288{fill:#f2986c;}.cls-289{fill:#f2976e;}.cls-290{fill:#f2966e;}.cls-291{fill:#f2956e;}.cls-292{fill:#f1946f;}.cls-293{fill:#f1936f;}.cls-294{fill:#f19271;}.cls-295{fill:#f19171;}.cls-296{fill:#f19072;}.cls-297{fill:#f18f72;}.cls-298{fill:#f18e73;}.cls-299{fill:#f18d74;}.cls-300{fill:#f18c75;}.cls-301{fill:#f18b75;}.cls-302{fill:#f18a75;}.cls-303{fill:#f18976;}.cls-304{fill:#f18876;}.cls-305{fill:#f18778;}.cls-306{fill:#f18678;}.cls-307{fill:#f18579;}.cls-308{fill:#f18479;}.cls-309{fill:#f1837a;}.cls-310{fill:#f1827b;}.cls-311{fill:#f1817c;}.cls-312{fill:#f1807c;}.cls-313{fill:#f17f7d;}.cls-314{fill:#f17e7d;}.cls-315{fill:#f17d7e;}.cls-316{fill:#f17c7f;}.cls-317{fill:#f17b80;}.cls-318{fill:#f17a80;}.cls-319{fill:#f17980;}.cls-320{fill:#f17880;}.cls-321{fill:#f17781;}.cls-322{fill:#f17681;}.cls-323{fill:#f17583;}.cls-324{fill:#f17483;}.cls-325{fill:#f17383;}.cls-326{fill:#f17284;}.cls-327{fill:#f17184;}.cls-328{fill:#f17085;}.cls-329{fill:#f16f85;}.cls-330{fill:#f16e86;}.cls-331{fill:#f16d87;}.cls-332{fill:#f16c88;}.cls-333{fill:#f16b88;}.cls-334{fill:#f16a89;}.cls-335{fill:#f06989;}.cls-336{fill:#f06889;}.cls-337{fill:#f0678a;}.cls-338{fill:#f0668a;}.cls-339{fill:#f0658b;}.cls-340{fill:#f0648c;}.cls-341{fill:#f0638d;}.cls-342{fill:#f0628d;}.cls-343{fill:#f0618e;}.cls-344{fill:#f0608e;}.cls-345{fill:#f05f8f;}.cls-346{fill:#f05e8f;}</style><clipPath id="clip-path" transform="translate(0 -10.37)"><rect class="cls-1" x="52" width="639.82" height="319.74"/></clipPath><clipPath id="clip-path-2" transform="translate(0 -10.37)"><path class="cls-1" d="M369,911.8c203.28,0,368.08-164.8,368.08-368.08,0-184.17-135.26-336.75-311.86-363.81L394,88a11,11,0,0,0-10.43-7.48h0a11,11,0,0,0-11,11h0a72.51,72.51,0,0,0,1.1,12.57L381,145.49a9.37,9.37,0,0,0-3.67-.35h0a9.28,9.28,0,0,0-8.31,9.24v54.87a27.51,27.51,0,0,0,27.51,27.51l6.36.06c154.57,16.87,274.86,147.84,274.86,306.9,0,170.51-138.23,308.73-308.73,308.73"/></clipPath><clipPath id="clip-path-3" transform="translate(0 -10.37)"><path class="cls-1" d="M369,852.45c-170.51,0-308.74-138.22-308.74-308.73,0-159.06,120.29-290,274.86-306.9l6.37-.06A27.51,27.51,0,0,0,369,209.25V154.38a9.28,9.28,0,0,0-8.32-9.24h0a9.37,9.37,0,0,0-3.67.35l7.32-41.42a72.51,72.51,0,0,0,1.1-12.57h0a11,11,0,0,0-11-11h0A11,11,0,0,0,344,88l-31.2,92C136.19,207,.93,359.55.93,543.72.93,747,165.72,911.8,369,911.8"/></clipPath></defs><title>rodape_2</title><g id="Camada_2" data-name="Camada 2"><g id="Camada_1-2" data-name="Camada 1"><g class="cls-2"><rect x="362.77" width="1.85" height="55.11"/><rect x="321.07" y="17.73" width="1.86" height="55.11" transform="translate(3.93 102.48) rotate(-20)"/><rect x="284.4" y="38.9" width="1.85" height="55.11" transform="translate(24.04 188.58) rotate(-40)"/><rect x="257.18" y="71.33" width="1.85" height="55.11" transform="translate(43.42 262.6) rotate(-60)"/><rect x="242.7" y="111.12" width="1.85" height="55.11" transform="translate(64.75 344.15) rotate(-80)"/><rect x="216.07" y="180.09" width="55.11" height="1.85" transform="translate(-27.66 34.55) rotate(-9.97)"/><rect x="230.55" y="219.88" width="55.11" height="1.85" transform="translate(-75.83 148.29) rotate(-30)"/><rect x="257.77" y="252.32" width="55.11" height="1.85" transform="translate(-92.08 298.62) rotate(-49.99)"/><rect x="294.44" y="273.49" width="55.11" height="1.86" transform="translate(-45.93 472.9) rotate(-70.02)"/><rect x="362.77" y="243.84" width="1.85" height="55.11"/><rect x="404.47" y="246.86" width="1.86" height="55.11" transform="translate(-69.41 144.82) rotate(-20)"/><rect x="441.14" y="225.69" width="1.85" height="55.11" transform="translate(-59.36 333.03) rotate(-40)"/><rect x="468.36" y="193.25" width="1.85" height="55.11" transform="translate(43.42 506.45) rotate(-60)"/><rect x="482.84" y="153.46" width="1.85" height="55.11" transform="translate(221.49 615.63) rotate(-80)"/><rect x="456.21" y="137.75" width="55.11" height="1.85" transform="translate(-16.71 75.49) rotate(-9.97)"/><rect x="441.73" y="97.96" width="55.11" height="1.85" transform="translate(13.44 237.55) rotate(-30)"/><rect x="414.51" y="65.53" width="55.11" height="1.85" transform="translate(106.97 351.97) rotate(-49.99)"/><rect x="377.84" y="44.35" width="55.11" height="1.86" transform="translate(224.32 400.43) rotate(-70.02)"/><g class="cls-3"><rect class="cls-4" x="604.28" y="70.11" width="132.8" height="831.31"/><rect class="cls-4" x="603.42" y="70.11" width="0.86" height="831.31"/><rect class="cls-5" x="602.56" y="70.11" width="0.86" height="831.31"/><rect class="cls-6" x="601.69" y="70.11" width="0.86" height="831.31"/><rect class="cls-7" x="600.83" y="70.11" width="0.86" height="831.31"/><rect class="cls-8" x="599.97" y="70.11" width="0.86" height="831.31"/><rect class="cls-9" x="599.11" y="70.11" width="0.86" height="831.31"/><rect class="cls-10" x="598.24" y="70.11" width="0.86" height="831.31"/><rect class="cls-11" x="597.38" y="70.11" width="0.86" height="831.31"/><rect class="cls-12" x="596.52" y="70.11" width="0.86" height="831.31"/><rect class="cls-13" x="595.65" y="70.11" width="0.86" height="831.31"/><rect class="cls-14" x="594.79" y="70.11" width="0.86" height="831.31"/><rect class="cls-15" x="593.93" y="70.11" width="0.86" height="831.31"/><rect class="cls-16" x="593.07" y="70.11" width="0.86" height="831.31"/><rect class="cls-17" x="592.2" y="70.11" width="0.86" height="831.31"/><rect class="cls-18" x="591.34" y="70.11" width="0.86" height="831.31"/><rect class="cls-19" x="590.48" y="70.11" width="0.86" height="831.31"/><rect class="cls-20" x="589.61" y="70.11" width="0.86" height="831.31"/><rect class="cls-21" x="588.75" y="70.11" width="0.86" height="831.31"/><rect class="cls-22" x="587.89" y="70.11" width="0.86" height="831.31"/><rect class="cls-23" x="587.03" y="70.11" width="0.86" height="831.31"/><rect class="cls-24" x="586.16" y="70.11" width="0.86" height="831.31"/><rect class="cls-25" x="585.3" y="70.11" width="0.86" height="831.31"/><rect class="cls-26" x="584.44" y="70.11" width="0.86" height="831.31"/><rect class="cls-27" x="583.57" y="70.11" width="0.86" height="831.31"/><rect class="cls-28" x="582.71" y="70.11" width="0.86" height="831.31"/><rect class="cls-29" x="581.85" y="70.11" width="0.86" height="831.31"/><rect class="cls-30" x="580.99" y="70.11" width="0.86" height="831.31"/><rect class="cls-31" x="580.12" y="70.11" width="0.86" height="831.31"/><rect class="cls-32" x="579.26" y="70.11" width="0.86" height="831.31"/><rect class="cls-33" x="578.4" y="70.11" width="0.86" height="831.31"/><rect class="cls-34" x="577.53" y="70.11" width="0.86" height="831.31"/><rect class="cls-35" x="576.67" y="70.11" width="0.86" height="831.31"/><rect class="cls-36" x="575.81" y="70.11" width="0.86" height="831.31"/><rect class="cls-37" x="574.95" y="70.11" width="0.86" height="831.31"/><rect class="cls-38" x="574.08" y="70.11" width="0.86" height="831.31"/><rect class="cls-39" x="573.22" y="70.11" width="0.86" height="831.31"/><rect class="cls-40" x="572.36" y="70.11" width="0.86" height="831.31"/><rect class="cls-41" x="571.49" y="70.11" width="0.86" height="831.31"/><rect class="cls-42" x="570.63" y="70.11" width="0.86" height="831.31"/><rect class="cls-43" x="569.77" y="70.11" width="0.86" height="831.31"/><rect class="cls-44" x="568.91" y="70.11" width="0.86" height="831.31"/><rect class="cls-45" x="568.04" y="70.11" width="0.86" height="831.31"/><rect class="cls-46" x="567.18" y="70.11" width="0.86" height="831.31"/><rect class="cls-47" x="566.32" y="70.11" width="0.86" height="831.31"/><rect class="cls-48" x="565.45" y="70.11" width="0.86" height="831.31"/><rect class="cls-49" x="564.59" y="70.11" width="0.86" height="831.31"/><rect class="cls-50" x="563.73" y="70.11" width="0.86" height="831.31"/><rect class="cls-51" x="562.87" y="70.11" width="0.86" height="831.31"/><rect class="cls-52" x="562" y="70.11" width="0.86" height="831.31"/><rect class="cls-53" x="561.14" y="70.11" width="0.86" height="831.31"/><rect class="cls-54" x="560.28" y="70.11" width="0.86" height="831.31"/><rect class="cls-55" x="559.41" y="70.11" width="0.86" height="831.31"/><rect class="cls-56" x="558.55" y="70.11" width="0.86" height="831.31"/><rect class="cls-57" x="557.69" y="70.11" width="0.86" height="831.31"/><rect class="cls-58" x="556.83" y="70.11" width="0.86" height="831.31"/><rect class="cls-59" x="555.96" y="70.11" width="0.86" height="831.31"/><rect class="cls-60" x="555.1" y="70.11" width="0.86" height="831.31"/><rect class="cls-61" x="554.24" y="70.11" width="0.86" height="831.31"/><rect class="cls-62" x="553.38" y="70.11" width="0.86" height="831.31"/><rect class="cls-63" x="552.51" y="70.11" width="0.86" height="831.31"/><rect class="cls-64" x="551.65" y="70.11" width="0.86" height="831.31"/><rect class="cls-65" x="550.79" y="70.11" width="0.86" height="831.31"/><rect class="cls-66" x="549.92" y="70.11" width="0.86" height="831.31"/><rect class="cls-67" x="549.06" y="70.11" width="0.86" height="831.31"/><rect class="cls-68" x="548.2" y="70.11" width="0.86" height="831.31"/><rect class="cls-69" x="547.34" y="70.11" width="0.86" height="831.31"/><rect class="cls-70" x="546.47" y="70.11" width="0.86" height="831.31"/><rect class="cls-71" x="545.61" y="70.11" width="0.86" height="831.31"/><rect class="cls-71" x="544.75" y="70.11" width="0.86" height="831.31"/><rect class="cls-72" x="543.88" y="70.11" width="0.86" height="831.31"/><rect class="cls-73" x="543.02" y="70.11" width="0.86" height="831.31"/><rect class="cls-74" x="542.16" y="70.11" width="0.86" height="831.31"/><rect class="cls-75" x="541.3" y="70.11" width="0.86" height="831.31"/><rect class="cls-76" x="540.43" y="70.11" width="0.86" height="831.31"/><rect class="cls-77" x="539.57" y="70.11" width="0.86" height="831.31"/><rect class="cls-78" x="538.71" y="70.11" width="0.86" height="831.31"/><rect class="cls-79" x="537.84" y="70.11" width="0.86" height="831.31"/><rect class="cls-80" x="536.98" y="70.11" width="0.86" height="831.31"/><rect class="cls-81" x="536.12" y="70.11" width="0.86" height="831.31"/><rect class="cls-82" x="535.26" y="70.11" width="0.86" height="831.31"/><rect class="cls-83" x="534.39" y="70.11" width="0.86" height="831.31"/><rect class="cls-84" x="533.53" y="70.11" width="0.86" height="831.31"/><rect class="cls-85" x="532.67" y="70.11" width="0.86" height="831.31"/><rect class="cls-86" x="531.8" y="70.11" width="0.86" height="831.31"/><rect class="cls-87" x="530.94" y="70.11" width="0.86" height="831.31"/><rect class="cls-88" x="530.08" y="70.11" width="0.86" height="831.31"/><rect class="cls-88" x="529.22" y="70.11" width="0.86" height="831.31"/><rect class="cls-89" x="528.35" y="70.11" width="0.86" height="831.31"/><rect class="cls-90" x="527.49" y="70.11" width="0.86" height="831.31"/><rect class="cls-91" x="526.63" y="70.11" width="0.86" height="831.31"/><rect class="cls-92" x="525.76" y="70.11" width="0.86" height="831.31"/><rect class="cls-93" x="524.9" y="70.11" width="0.86" height="831.31"/><rect class="cls-94" x="524.04" y="70.11" width="0.86" height="831.31"/><rect class="cls-95" x="523.18" y="70.11" width="0.86" height="831.31"/><rect class="cls-96" x="522.31" y="70.11" width="0.86" height="831.31"/><rect class="cls-97" x="521.45" y="70.11" width="0.86" height="831.31"/><rect class="cls-98" x="520.59" y="70.11" width="0.86" height="831.31"/><rect class="cls-99" x="519.72" y="70.11" width="0.86" height="831.31"/><rect class="cls-100" x="518.86" y="70.11" width="0.86" height="831.31"/><rect class="cls-101" x="518" y="70.11" width="0.86" height="831.31"/><rect class="cls-102" x="517.14" y="70.11" width="0.86" height="831.31"/><rect class="cls-103" x="516.27" y="70.11" width="0.86" height="831.31"/><rect class="cls-104" x="515.41" y="70.11" width="0.86" height="831.31"/><rect class="cls-105" x="514.55" y="70.11" width="0.86" height="831.31"/><rect class="cls-106" x="513.68" y="70.11" width="0.86" height="831.31"/><rect class="cls-107" x="512.82" y="70.11" width="0.86" height="831.31"/><rect class="cls-108" x="511.96" y="70.11" width="0.86" height="831.31"/><rect class="cls-109" x="511.1" y="70.11" width="0.86" height="831.31"/><rect class="cls-110" x="510.23" y="70.11" width="0.86" height="831.31"/><rect class="cls-111" x="509.37" y="70.11" width="0.86" height="831.31"/><rect class="cls-112" x="508.51" y="70.11" width="0.86" height="831.31"/><rect class="cls-113" x="507.64" y="70.11" width="0.86" height="831.31"/><rect class="cls-114" x="506.78" y="70.11" width="0.86" height="831.31"/><rect class="cls-115" x="505.92" y="70.11" width="0.86" height="831.31"/><rect class="cls-115" x="505.06" y="70.11" width="0.86" height="831.31"/><rect class="cls-116" x="504.19" y="70.11" width="0.86" height="831.31"/><rect class="cls-117" x="503.33" y="70.11" width="0.86" height="831.31"/><rect class="cls-118" x="502.47" y="70.11" width="0.86" height="831.31"/><rect class="cls-119" x="501.6" y="70.11" width="0.86" height="831.31"/><rect class="cls-120" x="500.74" y="70.11" width="0.86" height="831.31"/><rect class="cls-121" x="499.88" y="70.11" width="0.86" height="831.31"/><rect class="cls-122" x="499.02" y="70.11" width="0.86" height="831.31"/><rect class="cls-123" x="498.15" y="70.11" width="0.86" height="831.31"/><rect class="cls-124" x="497.29" y="70.11" width="0.86" height="831.31"/><rect class="cls-125" x="496.43" y="70.11" width="0.86" height="831.31"/><rect class="cls-126" x="495.56" y="70.11" width="0.86" height="831.31"/><rect class="cls-126" x="494.7" y="70.11" width="0.86" height="831.31"/><rect class="cls-127" x="493.84" y="70.11" width="0.86" height="831.31"/><rect class="cls-128" x="492.98" y="70.11" width="0.86" height="831.31"/><rect class="cls-129" x="492.11" y="70.11" width="0.86" height="831.31"/><rect class="cls-130" x="491.25" y="70.11" width="0.86" height="831.31"/><rect class="cls-131" x="490.39" y="70.11" width="0.86" height="831.31"/><rect class="cls-132" x="489.53" y="70.11" width="0.86" height="831.31"/><rect class="cls-133" x="488.66" y="70.11" width="0.86" height="831.31"/><rect class="cls-134" x="487.8" y="70.11" width="0.86" height="831.31"/><rect class="cls-135" x="486.94" y="70.11" width="0.86" height="831.31"/><rect class="cls-136" x="486.07" y="70.11" width="0.86" height="831.31"/><rect class="cls-137" x="485.21" y="70.11" width="0.86" height="831.31"/><rect class="cls-138" x="484.35" y="70.11" width="0.86" height="831.31"/><rect class="cls-139" x="483.49" y="70.11" width="0.86" height="831.31"/><rect class="cls-140" x="482.62" y="70.11" width="0.86" height="831.31"/><rect class="cls-141" x="481.76" y="70.11" width="0.86" height="831.31"/><rect class="cls-142" x="480.9" y="70.11" width="0.86" height="831.31"/><rect class="cls-143" x="480.03" y="70.11" width="0.86" height="831.31"/><rect class="cls-144" x="479.17" y="70.11" width="0.86" height="831.31"/><rect class="cls-145" x="478.31" y="70.11" width="0.86" height="831.31"/><rect class="cls-146" x="477.45" y="70.11" width="0.86" height="831.31"/><rect class="cls-146" x="476.58" y="70.11" width="0.86" height="831.31"/><rect class="cls-147" x="475.72" y="70.11" width="0.86" height="831.31"/><rect class="cls-148" x="474.86" y="70.11" width="0.86" height="831.31"/><rect class="cls-149" x="473.99" y="70.11" width="0.86" height="831.31"/><rect class="cls-150" x="473.13" y="70.11" width="0.86" height="831.31"/><rect class="cls-151" x="472.27" y="70.11" width="0.86" height="831.31"/><rect class="cls-152" x="471.41" y="70.11" width="0.86" height="831.31"/><rect class="cls-153" x="470.54" y="70.11" width="0.86" height="831.31"/><rect class="cls-154" x="469.68" y="70.11" width="0.86" height="831.31"/><rect class="cls-155" x="468.82" y="70.11" width="0.86" height="831.31"/><rect class="cls-156" x="467.95" y="70.11" width="0.86" height="831.31"/><rect class="cls-157" x="467.09" y="70.11" width="0.86" height="831.31"/><rect class="cls-158" x="466.23" y="70.11" width="0.86" height="831.31"/><rect class="cls-159" x="465.37" y="70.11" width="0.86" height="831.31"/><rect class="cls-160" x="464.5" y="70.11" width="0.86" height="831.31"/><rect class="cls-161" x="463.64" y="70.11" width="0.86" height="831.31"/><rect class="cls-162" x="462.78" y="70.11" width="0.86" height="831.31"/><rect class="cls-163" x="461.91" y="70.11" width="0.86" height="831.31"/><rect class="cls-164" x="461.05" y="70.11" width="0.86" height="831.31"/><rect class="cls-165" x="460.19" y="70.11" width="0.86" height="831.31"/><rect class="cls-166" x="459.33" y="70.11" width="0.86" height="831.31"/><rect class="cls-166" x="458.46" y="70.11" width="0.86" height="831.31"/><rect class="cls-167" x="457.6" y="70.11" width="0.86" height="831.31"/><rect class="cls-168" x="456.74" y="70.11" width="0.86" height="831.31"/><rect class="cls-169" x="455.87" y="70.11" width="0.86" height="831.31"/><rect class="cls-170" x="455.01" y="70.11" width="0.86" height="831.31"/><rect class="cls-171" x="454.15" y="70.11" width="0.86" height="831.31"/><rect class="cls-172" x="453.29" y="70.11" width="0.86" height="831.31"/><rect class="cls-173" x="452.42" y="70.11" width="0.86" height="831.31"/><rect class="cls-174" x="451.56" y="70.11" width="0.86" height="831.31"/><rect class="cls-175" x="450.7" y="70.11" width="0.86" height="831.31"/><rect class="cls-176" x="449.83" y="70.11" width="0.86" height="831.31"/><rect class="cls-177" x="448.97" y="70.11" width="0.86" height="831.31"/><rect class="cls-178" x="448.11" y="70.11" width="0.86" height="831.31"/><rect class="cls-179" x="447.25" y="70.11" width="0.86" height="831.31"/><rect class="cls-180" x="446.38" y="70.11" width="0.86" height="831.31"/><rect class="cls-181" x="445.52" y="70.11" width="0.86" height="831.31"/><rect class="cls-182" x="444.66" y="70.11" width="0.86" height="831.31"/><rect class="cls-183" x="443.79" y="70.11" width="0.86" height="831.31"/><rect class="cls-184" x="442.93" y="70.11" width="0.86" height="831.31"/><rect class="cls-185" x="442.07" y="70.11" width="0.86" height="831.31"/><rect class="cls-186" x="441.21" y="70.11" width="0.86" height="831.31"/><rect class="cls-186" x="440.34" y="70.11" width="0.86" height="831.31"/><rect class="cls-187" x="439.48" y="70.11" width="0.86" height="831.31"/><rect class="cls-188" x="438.62" y="70.11" width="0.86" height="831.31"/><rect class="cls-189" x="437.75" y="70.11" width="0.86" height="831.31"/><rect class="cls-190" x="436.89" y="70.11" width="0.86" height="831.31"/><rect class="cls-191" x="436.03" y="70.11" width="0.86" height="831.31"/><rect class="cls-192" x="435.17" y="70.11" width="0.86" height="831.31"/><rect class="cls-193" x="434.3" y="70.11" width="0.86" height="831.31"/><rect class="cls-194" x="433.44" y="70.11" width="0.86" height="831.31"/><rect class="cls-195" x="432.58" y="70.11" width="0.86" height="831.31"/><rect class="cls-196" x="431.72" y="70.11" width="0.86" height="831.31"/><rect class="cls-197" x="430.85" y="70.11" width="0.86" height="831.31"/><rect class="cls-198" x="429.99" y="70.11" width="0.86" height="831.31"/><rect class="cls-199" x="429.13" y="70.11" width="0.86" height="831.31"/><rect class="cls-200" x="428.26" y="70.11" width="0.86" height="831.31"/><rect class="cls-201" x="427.4" y="70.11" width="0.86" height="831.31"/><rect class="cls-202" x="426.54" y="70.11" width="0.86" height="831.31"/><rect class="cls-203" x="425.68" y="70.11" width="0.86" height="831.31"/><rect class="cls-204" x="424.81" y="70.11" width="0.86" height="831.31"/><rect class="cls-205" x="423.95" y="70.11" width="0.86" height="831.31"/><rect class="cls-206" x="423.09" y="70.11" width="0.86" height="831.31"/><rect class="cls-207" x="422.22" y="70.11" width="0.86" height="831.31"/><rect class="cls-208" x="421.36" y="70.11" width="0.86" height="831.31"/><rect class="cls-208" x="369.01" y="70.11" width="52.35" height="831.31"/></g><path d="M369,912.72v-1.85a367.18,367.18,0,0,0,56.08-730l-.56-.08L393.14,88.25A10.09,10.09,0,0,0,373.5,91.5a71.65,71.65,0,0,0,1.09,12.41l7.58,42.9-1.45-.44a8.38,8.38,0,0,0-6.19.54,8.34,8.34,0,0,0-4.6,7.47v54.87a26.61,26.61,0,0,0,26.59,26.58l6.37.07A309.67,309.67,0,0,1,369,853.38v-1.86a307.82,307.82,0,0,0,33.77-613.77l-6.27-.06a28.47,28.47,0,0,1-28.43-28.44V154.38a10.23,10.23,0,0,1,9.14-10.16,10.35,10.35,0,0,1,2.61.06l-7.07-40a73.37,73.37,0,0,1-1.11-12.73,11.94,11.94,0,0,1,23.25-3.84l31,91.41A369,369,0,0,1,369,912.72Z" transform="translate(0 -10.37)"/><path class="cls-208" d="M400.5,146.07l-15.19-44.7a8.38,8.38,0,0,0-7.93-5.68h0a8.38,8.38,0,0,0-8.37,8.38h0a115,115,0,0,0,1.31,17.28l15,97.88" transform="translate(0 -10.37)"/><path d="M384.41,219.37l-15-97.88a115.32,115.32,0,0,1-1.33-17.42,9.3,9.3,0,0,1,18.11-3l15.19,44.69-1.76.59-15.19-44.69a7.45,7.45,0,0,0-14.5,2.4,113,113,0,0,0,1.31,17.14l15,97.88Z" transform="translate(0 -10.37)"/><path class="cls-208" d="M398.93,198,387.31,152.1a9.31,9.31,0,0,0-10-7h0a9.28,9.28,0,0,0-8.31,9.24v54.87a27.51,27.51,0,0,0,27.51,27.51" transform="translate(0 -10.37)"/><path d="M396.52,237.69a28.47,28.47,0,0,1-28.44-28.44V154.38a10.23,10.23,0,0,1,9.14-10.16,10,10,0,0,1,4,.38,10.29,10.29,0,0,1,6.95,7.27l11.62,45.86-1.8.46-11.62-45.86a8.44,8.44,0,0,0-5.69-6,8.38,8.38,0,0,0-6.19.54,8.34,8.34,0,0,0-4.6,7.47v54.87a26.61,26.61,0,0,0,26.59,26.58Z" transform="translate(0 -10.37)"/><g class="cls-209"><rect class="cls-4" x="0.93" y="70.11" width="132.8" height="831.31"/><rect class="cls-4" x="133.73" y="70.11" width="1.32" height="831.31"/><rect class="cls-210" x="135.05" y="70.11" width="1.32" height="831.31"/><rect class="cls-211" x="136.36" y="70.11" width="1.32" height="831.31"/><rect class="cls-212" x="137.68" y="70.11" width="1.32" height="831.31"/><rect class="cls-213" x="138.99" y="70.11" width="1.32" height="831.31"/><rect class="cls-214" x="140.31" y="70.11" width="1.32" height="831.31"/><rect class="cls-215" x="141.63" y="70.11" width="1.32" height="831.31"/><rect class="cls-216" x="142.94" y="70.11" width="1.32" height="831.31"/><rect class="cls-217" x="144.26" y="70.11" width="1.32" height="831.31"/><rect class="cls-218" x="145.57" y="70.11" width="1.32" height="831.31"/><rect class="cls-219" x="146.89" y="70.11" width="1.32" height="831.31"/><rect class="cls-220" x="148.21" y="70.11" width="1.32" height="831.31"/><rect class="cls-221" x="149.52" y="70.11" width="1.32" height="831.31"/><rect class="cls-222" x="150.84" y="70.11" width="1.32" height="831.31"/><rect class="cls-223" x="152.15" y="70.11" width="1.32" height="831.31"/><rect class="cls-224" x="153.47" y="70.11" width="1.32" height="831.31"/><rect class="cls-225" x="154.79" y="70.11" width="1.32" height="831.31"/><rect class="cls-226" x="156.1" y="70.11" width="1.32" height="831.31"/><rect class="cls-227" x="157.42" y="70.11" width="1.32" height="831.31"/><rect class="cls-228" x="158.73" y="70.11" width="1.32" height="831.31"/><rect class="cls-229" x="160.05" y="70.11" width="1.32" height="831.31"/><rect class="cls-230" x="161.37" y="70.11" width="1.32" height="831.31"/><rect class="cls-231" x="162.68" y="70.11" width="1.32" height="831.31"/><rect class="cls-232" x="164" y="70.11" width="1.32" height="831.31"/><rect class="cls-233" x="165.31" y="70.11" width="1.32" height="831.31"/><rect class="cls-234" x="166.63" y="70.11" width="1.32" height="831.31"/><rect class="cls-235" x="167.95" y="70.11" width="1.32" height="831.31"/><rect class="cls-236" x="169.26" y="70.11" width="1.32" height="831.31"/><rect class="cls-237" x="170.58" y="70.11" width="1.32" height="831.31"/><rect class="cls-238" x="171.89" y="70.11" width="1.32" height="831.31"/><rect class="cls-239" x="173.21" y="70.11" width="1.32" height="831.31"/><rect class="cls-240" x="174.53" y="70.11" width="1.32" height="831.31"/><rect class="cls-241" x="175.84" y="70.11" width="1.32" height="831.31"/><rect class="cls-242" x="177.16" y="70.11" width="1.32" height="831.31"/><rect class="cls-243" x="178.47" y="70.11" width="1.32" height="831.31"/><rect class="cls-244" x="179.79" y="70.11" width="1.32" height="831.31"/><rect class="cls-245" x="181.11" y="70.11" width="1.32" height="831.31"/><rect class="cls-246" x="182.42" y="70.11" width="1.32" height="831.31"/><rect class="cls-247" x="183.74" y="70.11" width="1.32" height="831.31"/><rect class="cls-248" x="185.05" y="70.11" width="1.32" height="831.31"/><rect class="cls-249" x="186.37" y="70.11" width="1.32" height="831.31"/><rect class="cls-250" x="187.69" y="70.11" width="1.32" height="831.31"/><rect class="cls-251" x="189" y="70.11" width="1.32" height="831.31"/><rect class="cls-252" x="190.32" y="70.11" width="1.32" height="831.31"/><rect class="cls-253" x="191.63" y="70.11" width="1.32" height="831.31"/><rect class="cls-254" x="192.95" y="70.11" width="1.32" height="831.31"/><rect class="cls-255" x="194.27" y="70.11" width="1.32" height="831.31"/><rect class="cls-256" x="195.58" y="70.11" width="1.32" height="831.31"/><rect class="cls-257" x="196.9" y="70.11" width="1.32" height="831.31"/><rect class="cls-258" x="198.21" y="70.11" width="1.32" height="831.31"/><rect class="cls-259" x="199.53" y="70.11" width="1.32" height="831.31"/><rect class="cls-260" x="200.85" y="70.11" width="1.32" height="831.31"/><rect class="cls-261" x="202.16" y="70.11" width="1.32" height="831.31"/><rect class="cls-262" x="203.48" y="70.11" width="1.32" height="831.31"/><rect class="cls-263" x="204.79" y="70.11" width="1.32" height="831.31"/><rect class="cls-264" x="206.11" y="70.11" width="1.32" height="831.31"/><rect class="cls-265" x="207.43" y="70.11" width="1.32" height="831.31"/><rect class="cls-266" x="208.74" y="70.11" width="1.32" height="831.31"/><rect class="cls-267" x="210.06" y="70.11" width="1.32" height="831.31"/><rect class="cls-268" x="211.37" y="70.11" width="1.32" height="831.31"/><rect class="cls-269" x="212.69" y="70.11" width="1.32" height="831.31"/><rect class="cls-270" x="214.01" y="70.11" width="1.32" height="831.31"/><rect class="cls-271" x="215.32" y="70.11" width="1.32" height="831.31"/><rect class="cls-272" x="216.64" y="70.11" width="1.32" height="831.31"/><rect class="cls-273" x="217.95" y="70.11" width="1.32" height="831.31"/><rect class="cls-274" x="219.27" y="70.11" width="1.32" height="831.31"/><rect class="cls-275" x="220.59" y="70.11" width="1.32" height="831.31"/><rect class="cls-276" x="221.9" y="70.11" width="1.32" height="831.31"/><rect class="cls-277" x="223.22" y="70.11" width="1.32" height="831.31"/><rect class="cls-278" x="224.53" y="70.11" width="1.32" height="831.31"/><rect class="cls-279" x="225.85" y="70.11" width="1.32" height="831.31"/><rect class="cls-280" x="227.17" y="70.11" width="1.32" height="831.31"/><rect class="cls-281" x="228.48" y="70.11" width="1.32" height="831.31"/><rect class="cls-282" x="229.8" y="70.11" width="1.32" height="831.31"/><rect class="cls-283" x="231.11" y="70.11" width="1.32" height="831.31"/><rect class="cls-284" x="232.43" y="70.11" width="1.32" height="831.31"/><rect class="cls-285" x="233.75" y="70.11" width="1.32" height="831.31"/><rect class="cls-286" x="235.06" y="70.11" width="1.32" height="831.31"/><rect class="cls-287" x="236.38" y="70.11" width="1.32" height="831.31"/><rect class="cls-288" x="237.69" y="70.11" width="1.32" height="831.31"/><rect class="cls-289" x="239.01" y="70.11" width="1.32" height="831.31"/><rect class="cls-290" x="240.33" y="70.11" width="1.32" height="831.31"/><rect class="cls-291" x="241.64" y="70.11" width="1.32" height="831.31"/><rect class="cls-292" x="242.96" y="70.11" width="1.32" height="831.31"/><rect class="cls-293" x="244.27" y="70.11" width="1.32" height="831.31"/><rect class="cls-294" x="245.59" y="70.11" width="1.32" height="831.31"/><rect class="cls-295" x="246.91" y="70.11" width="1.32" height="831.31"/><rect class="cls-296" x="248.22" y="70.11" width="1.32" height="831.31"/><rect class="cls-297" x="249.54" y="70.11" width="1.32" height="831.31"/><rect class="cls-298" x="250.85" y="70.11" width="1.32" height="831.31"/><rect class="cls-299" x="252.17" y="70.11" width="1.32" height="831.31"/><rect class="cls-300" x="253.48" y="70.11" width="1.32" height="831.31"/><rect class="cls-301" x="254.8" y="70.11" width="1.32" height="831.31"/><rect class="cls-302" x="256.12" y="70.11" width="1.32" height="831.31"/><rect class="cls-303" x="257.43" y="70.11" width="1.32" height="831.31"/><rect class="cls-304" x="258.75" y="70.11" width="1.32" height="831.31"/><rect class="cls-305" x="260.06" y="70.11" width="1.32" height="831.31"/><rect class="cls-306" x="261.38" y="70.11" width="1.32" height="831.31"/><rect class="cls-307" x="262.7" y="70.11" width="1.32" height="831.31"/><rect class="cls-308" x="264.01" y="70.11" width="1.32" height="831.31"/><rect class="cls-309" x="265.33" y="70.11" width="1.32" height="831.31"/><rect class="cls-310" x="266.64" y="70.11" width="1.32" height="831.31"/><rect class="cls-311" x="267.96" y="70.11" width="1.32" height="831.31"/><rect class="cls-312" x="269.28" y="70.11" width="1.32" height="831.31"/><rect class="cls-312" x="270.59" y="70.11" width="1.32" height="831.31"/><rect class="cls-313" x="271.91" y="70.11" width="1.32" height="831.31"/><rect class="cls-314" x="273.22" y="70.11" width="1.32" height="831.31"/><rect class="cls-315" x="274.54" y="70.11" width="1.32" height="831.31"/><rect class="cls-316" x="275.86" y="70.11" width="1.32" height="831.31"/><rect class="cls-317" x="277.17" y="70.11" width="1.32" height="831.31"/><rect class="cls-318" x="278.49" y="70.11" width="1.32" height="831.31"/><rect class="cls-319" x="279.8" y="70.11" width="1.32" height="831.31"/><rect class="cls-320" x="281.12" y="70.11" width="1.32" height="831.31"/><rect class="cls-321" x="282.44" y="70.11" width="1.32" height="831.31"/><rect class="cls-322" x="283.75" y="70.11" width="1.32" height="831.31"/><rect class="cls-323" x="285.07" y="70.11" width="1.32" height="831.31"/><rect class="cls-324" x="286.38" y="70.11" width="1.32" height="831.31"/><rect class="cls-325" x="287.7" y="70.11" width="1.32" height="831.31"/><rect class="cls-326" x="289.02" y="70.11" width="1.32" height="831.31"/><rect class="cls-327" x="290.33" y="70.11" width="1.32" height="831.31"/><rect class="cls-328" x="291.65" y="70.11" width="1.32" height="831.31"/><rect class="cls-329" x="292.96" y="70.11" width="1.32" height="831.31"/><rect class="cls-330" x="294.28" y="70.11" width="1.32" height="831.31"/><rect class="cls-331" x="295.6" y="70.11" width="1.32" height="831.31"/><rect class="cls-332" x="296.91" y="70.11" width="1.32" height="831.31"/><rect class="cls-333" x="298.23" y="70.11" width="1.32" height="831.31"/><rect class="cls-334" x="299.54" y="70.11" width="1.32" height="831.31"/><rect class="cls-335" x="300.86" y="70.11" width="1.32" height="831.31"/><rect class="cls-336" x="302.18" y="70.11" width="1.32" height="831.31"/><rect class="cls-337" x="303.49" y="70.11" width="1.32" height="831.31"/><rect class="cls-338" x="304.81" y="70.11" width="1.32" height="831.31"/><rect class="cls-339" x="306.12" y="70.11" width="1.32" height="831.31"/><rect class="cls-340" x="307.44" y="70.11" width="1.32" height="831.31"/><rect class="cls-341" x="308.76" y="70.11" width="1.32" height="831.31"/><rect class="cls-342" x="310.07" y="70.11" width="1.32" height="831.31"/><rect class="cls-343" x="311.39" y="70.11" width="1.32" height="831.31"/><rect class="cls-344" x="312.7" y="70.11" width="1.32" height="831.31"/><rect class="cls-345" x="314.02" y="70.11" width="1.32" height="831.31"/><rect class="cls-346" x="315.34" y="70.11" width="1.32" height="831.31"/><rect class="cls-346" x="316.65" y="70.11" width="52.35" height="831.31"/></g><path d="M369,912.72a369,369,0,0,1-56.92-733.65l31-91.41a11.95,11.95,0,0,1,23.26,3.84,73.38,73.38,0,0,1-1.12,12.73l-7.07,40.05a10.35,10.35,0,0,1,2.61-.06,10.21,10.21,0,0,1,9.14,10.16v54.87a28.47,28.47,0,0,1-28.43,28.44l-6.36.06A307.82,307.82,0,0,0,369,851.52v1.86A309.68,309.68,0,0,1,335,235.9l6.46-.07a26.61,26.61,0,0,0,26.59-26.58V154.38a8.33,8.33,0,0,0-4.6-7.47,8.48,8.48,0,0,0-2.88-.85,8.59,8.59,0,0,0-3.31.31l-1.44.44,7.58-42.9a71.64,71.64,0,0,0,1.08-12.41,10.09,10.09,0,0,0-19.64-3.25l-31.39,92.49-.55.08A367.18,367.18,0,0,0,369,910.87Z" transform="translate(0 -10.37)"/><path class="cls-346" d="M337.52,146.07l15.18-44.7a8.4,8.4,0,0,1,7.93-5.68h0a8.38,8.38,0,0,1,8.38,8.38h0a113.67,113.67,0,0,1-1.32,17.28l-15,97.88" transform="translate(0 -10.37)"/><path d="M353.6,219.37l-1.83-.28,15-97.88a113.12,113.12,0,0,0,1.31-17.14,7.45,7.45,0,0,0-14.5-2.4l-15.19,44.69-1.75-.59,15.18-44.69a9.3,9.3,0,0,1,18.11,3,115.51,115.51,0,0,1-1.32,17.42Z" transform="translate(0 -10.37)"/><path class="cls-346" d="M341.5,236.76A27.51,27.51,0,0,0,369,209.25V154.38a9.28,9.28,0,0,0-8.32-9.24h0a9.31,9.31,0,0,0-10,7L339.08,198" transform="translate(0 -10.37)"/><path d="M341.5,237.69v-1.86a26.61,26.61,0,0,0,26.58-26.58V154.38a8.33,8.33,0,0,0-4.6-7.47,8.48,8.48,0,0,0-2.88-.85,8.59,8.59,0,0,0-3.31.31,8.44,8.44,0,0,0-5.69,6L340,198.19l-1.8-.46,11.63-45.86a10.26,10.26,0,0,1,6.94-7.27,10,10,0,0,1,4-.38,10.21,10.21,0,0,1,9.14,10.16v54.87A28.47,28.47,0,0,1,341.5,237.69Z" transform="translate(0 -10.37)"/></g></g></g></svg>