<svg xmlns="http://www.w3.org/2000/svg" viewBox="0 0 226.22 84"><title>logo_eu</title><g id="Camada_2" data-name="Camada 2"><g id="Camada_1-2" data-name="Camada 1"><polygon points="187.13 45.25 185.42 45.25 184.49 47.84 185.86 47.84 187.13 45.25"/><path d="M120.62,26.93A6.89,6.89,0,0,0,117,25.86a6.81,6.81,0,0,0-2.58.48,6.53,6.53,0,0,0-2.08,1.34,6.23,6.23,0,0,0-1.39,2,5.82,5.82,0,0,0-.51,2.43v9.55h3.93V32.08a2.38,2.38,0,0,1,.21-1,2.5,2.5,0,0,1,.57-.79,2.38,2.38,0,0,1,.83-.52,2.61,2.61,0,0,1,1-.19,2.48,2.48,0,0,1,1.85.73,2.67,2.67,0,0,1,.78,1.76v9.55h3.93V32.08a5.81,5.81,0,0,0-.78-2.95,6.41,6.41,0,0,0-2.13-2.2"/><path d="M130.65,30.86a4.54,4.54,0,0,1,1.52-1,4.83,4.83,0,0,1,1.71-.31,4.9,4.9,0,0,1,1.73.31,4.45,4.45,0,0,1,1.52,1l2.79-2.64a8.33,8.33,0,0,0-2.8-1.76,8.84,8.84,0,0,0-6.35,0A8.78,8.78,0,0,0,128,28.09a8.32,8.32,0,0,0-1.95,2.54,7.41,7.41,0,0,0-.74,3.31,7.49,7.49,0,0,0,.59,2.91,8,8,0,0,0,1.7,2.58,8.81,8.81,0,0,0,2.69,1.87,8.47,8.47,0,0,0,3.55.72,9,9,0,0,0,3.24-.6,8.49,8.49,0,0,0,2.8-1.76L137.13,37a4.45,4.45,0,0,1-1.52,1,4.9,4.9,0,0,1-1.73.31,4.76,4.76,0,0,1-1.62-.3,4.84,4.84,0,0,1-1.48-.85,4.56,4.56,0,0,1-1.08-1.37,3.92,3.92,0,0,1-.42-1.83,4.17,4.17,0,0,1,1.37-3.08"/><path d="M153.65,27.25a9.42,9.42,0,0,0-2.23-1,8.6,8.6,0,0,0-2.55-.37,8.75,8.75,0,0,0-6,2.34A8.27,8.27,0,0,0,141,30.76a7.38,7.38,0,0,0-.68,3.18A7.47,7.47,0,0,0,141,37.1a8,8,0,0,0,1.83,2.56,9,9,0,0,0,2.72,1.73,8.83,8.83,0,0,0,9.32-1.73,8.53,8.53,0,0,0,1.84-2.56,7.47,7.47,0,0,0,.68-3.16,7.23,7.23,0,0,0-1-3.84,8.89,8.89,0,0,0-2.71-2.85m-.55,8.38a4.33,4.33,0,0,1-1.67,1.93,4.63,4.63,0,0,1-2.56.73A4.78,4.78,0,0,1,145.6,37a4.36,4.36,0,0,1-1-1.38,4.15,4.15,0,0,1,0-3.38,4.28,4.28,0,0,1,1-1.39,4.62,4.62,0,0,1,1.48-.94,4.77,4.77,0,0,1,1.78-.33,4.69,4.69,0,0,1,1.75.33,5,5,0,0,1,1.45.92,4.47,4.47,0,0,1,1,1.38,3.9,3.9,0,0,1,.38,1.72,4.17,4.17,0,0,1-.36,1.69"/><path d="M169.65,26.93A6.89,6.89,0,0,0,166,25.86a6.9,6.9,0,0,0-2.59.48,6.48,6.48,0,0,0-2.07,1.34,6.23,6.23,0,0,0-1.39,2,5.67,5.67,0,0,0-.52,2.43v9.55h3.94V32.08a2.38,2.38,0,0,1,.21-1,2.5,2.5,0,0,1,.57-.79,2.34,2.34,0,0,1,.82-.52,2.7,2.7,0,0,1,1-.19,2.48,2.48,0,0,1,1.85.73,2.61,2.61,0,0,1,.77,1.76v9.55h3.94V32.08a5.72,5.72,0,0,0-.79-2.95,6.29,6.29,0,0,0-2.12-2.2"/><polygon points="174.49 29.97 178.43 29.97 178.43 41.63 182.36 41.63 182.36 29.97 186.3 29.97 186.3 26.24 174.49 26.24 174.49 29.97"/><path d="M189.29,29.42a8,8,0,0,0-1.06,2.11,7.7,7.7,0,0,0-.38,2.41v7.69h3.94V33.94a4.11,4.11,0,0,1,.35-1.68,4.6,4.6,0,0,1,1-1.38,4.53,4.53,0,0,1,1.46-.94,4.71,4.71,0,0,1,1.81-.35V25.86a8.69,8.69,0,0,0-4,1,8.46,8.46,0,0,0-3.05,2.6"/><path d="M210.6,27.25a9.24,9.24,0,0,0-2.23-1,8.48,8.48,0,0,0-2.54-.37,8.87,8.87,0,0,0-3.29.62,8.75,8.75,0,0,0-2.71,1.72A8.3,8.3,0,0,0,198,30.76a7.53,7.53,0,0,0-.68,3.18A7.62,7.62,0,0,0,198,37.1a8.2,8.2,0,0,0,1.84,2.56,9,9,0,0,0,2.72,1.73,9,9,0,0,0,6.6,0,8.77,8.77,0,0,0,2.72-1.73,8.53,8.53,0,0,0,1.84-2.56,7.47,7.47,0,0,0,.68-3.16,7.32,7.32,0,0,0-1-3.84,8.92,8.92,0,0,0-2.72-2.85m-.55,8.38a4.27,4.27,0,0,1-1.67,1.93,4.6,4.6,0,0,1-2.55.73,4.76,4.76,0,0,1-1.82-.35,4.63,4.63,0,0,1-1.45-.93,4.21,4.21,0,0,1-1-1.38,4.15,4.15,0,0,1,0-3.38,4.13,4.13,0,0,1,1-1.39,4.68,4.68,0,0,1,1.47-.94,4.86,4.86,0,0,1,1.79-.33,4.64,4.64,0,0,1,1.74.33,5.1,5.1,0,0,1,1.46.92,4.47,4.47,0,0,1,1,1.38,4.06,4.06,0,0,1,0,3.41"/><path d="M226.22,36.79a2.19,2.19,0,0,0,0-.36,5,5,0,0,0-5.12-4.3h-.17a1.18,1.18,0,0,1-1.21-1v-.2a1.19,1.19,0,0,1,1.21-1h4.68V26.24h-4.64a5.55,5.55,0,0,0-2,.39,5.38,5.38,0,0,0-1.67,1.05,5,5,0,0,0-1.13,1.54,4.49,4.49,0,0,0-.4,1.58v.42l0,.31h0a4.49,4.49,0,0,0,.36,1.25A5,5,0,0,0,217,34l.3.3a5.16,5.16,0,0,0,1.66,1,5.43,5.43,0,0,0,2.06.39h.09a1.18,1.18,0,0,1,1.21,1V37a1.18,1.18,0,0,1-1.21,1h-4.68v3.64h4.88A5.09,5.09,0,0,0,226,38.11h0c0-.09.05-.18.07-.27s0-.22.06-.33a3.07,3.07,0,0,0,.05-.53Z"/><polygon points="107.86 29.97 107.86 26.24 100.89 26.24 97.51 26.24 96.96 26.24 96.96 41.63 97.51 41.63 100.89 41.63 107.86 41.63 107.86 37.91 100.89 37.91 100.89 35.7 106.46 35.7 106.46 32.34 100.89 32.34 100.89 29.97 107.86 29.97"/><path d="M101.43,55c0,1.18-.53,1.83-1.51,1.83s-1.51-.65-1.51-1.83V49.25H96.92V55c0,2,1.09,3.22,3,3.22s3-1.17,3-3.22V49.25h-1.5Z"/><polygon points="110.88 55.11 107.87 49.25 106.39 49.25 106.39 58.05 107.89 58.05 107.89 52.21 110.9 58.05 112.38 58.05 112.38 49.25 110.88 49.25 110.88 55.11"/><polygon points="115.72 50.64 118.1 50.64 118.1 56.67 115.72 56.67 115.72 58.06 121.97 58.06 121.97 56.67 119.59 56.67 119.59 50.64 121.97 50.64 121.97 49.25 115.72 49.25 115.72 50.64"/><polygon points="128.31 55.55 126.35 49.25 124.83 49.25 127.62 58.06 128.99 58.06 131.78 49.25 130.26 49.25 128.31 55.55"/><polygon points="135.01 58.06 140.9 58.06 140.9 56.67 136.51 56.67 136.51 54.04 140.46 54.04 140.46 52.65 136.51 52.65 136.51 50.64 140.9 50.64 140.9 49.25 135.01 49.25 135.01 58.06"/><path d="M150.28,51.65a2.33,2.33,0,0,0-2.64-2.4h-3.17v8.81H146V54h.84l2.47,4H151L148.45,54a2.2,2.2,0,0,0,1.83-2.31m-4.31-1h1.67c.81,0,1.14.29,1.14,1s-.33,1-1.14,1H146Z"/><path d="M156.87,52.75c-1.29-.38-1.55-.69-1.55-1.07,0-.71.54-1.16,1.38-1.16a1.79,1.79,0,0,1,1.8,1.58l0,.21,1.34-.33,0-.18a3,3,0,0,0-3.16-2.67,2.57,2.57,0,0,0-2.87,2.55c0,1.19.77,1.91,2.68,2.48,1.61.47,1.94.86,1.94,1.3,0,.81-.69,1.33-1.75,1.33A1.76,1.76,0,0,1,154.77,55v-.2h-1.44V55a3.12,3.12,0,0,0,3.37,3.22c1.94,0,3.24-1.09,3.24-2.72,0-1.27-.85-2-3.07-2.71"/><polygon points="163.03 50.64 165.41 50.64 165.41 56.67 163.03 56.67 163.03 58.06 169.29 58.06 169.29 56.67 166.91 56.67 166.91 50.64 169.29 50.64 169.29 49.25 163.03 49.25 163.03 50.64"/><polygon points="172.5 50.64 174.88 50.64 174.88 58.06 176.37 58.06 176.37 50.64 178.75 50.64 178.75 49.25 172.5 49.25 172.5 50.64"/><path d="M184.39,49.25l-2.78,8.81h1.51l.75-2.41h2.43l.74,2.41h1.51l-2.78-8.81Zm1.48,5h-1.56l.78-3Z"/><path d="M197.59,51.65a2.33,2.33,0,0,0-2.64-2.4h-3.16v8.81h1.49V54h.84l2.47,4h1.7L195.76,54a2.2,2.2,0,0,0,1.83-2.31m-4.31-1H195c.81,0,1.14.29,1.14,1s-.33,1-1.14,1h-1.67Z"/><polygon points="200.88 50.64 203.26 50.64 203.26 56.67 200.88 56.67 200.88 58.06 207.14 58.06 207.14 56.67 204.76 56.67 204.76 50.64 207.14 50.64 207.14 49.25 200.88 49.25 200.88 50.64"/><path d="M213.47,49.13c-2.14,0-3.37,1.65-3.37,4.52s1.23,4.53,3.37,4.53,3.37-1.65,3.37-4.53-1.22-4.52-3.37-4.52m0,7.66c-1.62,0-1.87-2-1.87-3.14s.25-3.13,1.87-3.13,1.88,2,1.88,3.13-.25,3.14-1.88,3.14"/><path d="M223.11,52.75c-1.29-.38-1.55-.69-1.55-1.07,0-.71.54-1.16,1.38-1.16a1.79,1.79,0,0,1,1.8,1.58l0,.21,1.34-.33,0-.18a3,3,0,0,0-3.16-2.67,2.57,2.57,0,0,0-2.87,2.55c0,1.19.77,1.91,2.68,2.48,1.61.47,1.94.86,1.94,1.3,0,.81-.69,1.33-1.75,1.33A1.77,1.77,0,0,1,221,55v-.2h-1.43V55a3.12,3.12,0,0,0,3.37,3.22c1.94,0,3.24-1.09,3.24-2.72,0-1.27-.86-2-3.07-2.71"/><path d="M42,0A42,42,0,1,0,84,42,42,42,0,0,0,42,0M10.46,30.57l2.67-2.67,5.34-5.33,2.67,2.66L15.8,30.57l1.78,1.78L22,28l2.6,2.6L20.18,35,22,36.8l5.34-5.34L30,34.13,24.7,39.47,22,42.14l-2.67-2.67-6.23-6.23ZM28.22,60.68l-3-2.23L17.74,68.6l-3-2.23,7.44-10.15L19.08,54l2.23-3.05,9.14,6.69Zm3-41,6.21-7.92a6.17,6.17,0,0,1,1.91-1.63A6.22,6.22,0,0,1,44,9.52a6.17,6.17,0,0,1,2.25,1.15,6.24,6.24,0,0,1,2.08,3,6.26,6.26,0,0,1,.23,3,6.15,6.15,0,0,1-1.25,2.81l-6.22,7.92-3-2.34,6.22-7.91a2.7,2.7,0,0,0,.51-1.86A2.29,2.29,0,0,0,44,13.63a2.58,2.58,0,0,0-.89-.45,2.36,2.36,0,0,0-1-.08,2.55,2.55,0,0,0-.92.3,2.32,2.32,0,0,0-.77.66L34.21,22ZM37,48.41a8.14,8.14,0,0,1-.34-7.08,8.66,8.66,0,0,1,1.76-2.59,8.26,8.26,0,0,1,5.77-2.4,7.89,7.89,0,0,1,3.17.65,8.33,8.33,0,0,1,2.6,1.75,8.17,8.17,0,0,1,1.75,9,8.51,8.51,0,0,1-1.77,2.59,8.26,8.26,0,0,1-2.61,1.73,8,8,0,0,1-3.14.64,8.14,8.14,0,0,1-2.44-.38,9,9,0,0,1-2.14-1A8.84,8.84,0,0,1,37,48.41M54.39,69.6l-2.07-3.89a1.17,1.17,0,0,0-.77-.63,1.34,1.34,0,0,0-.93.11A1.17,1.17,0,0,0,50,66a1.21,1.21,0,0,0,.11.93,5.08,5.08,0,0,1,.5,1.43,5.14,5.14,0,0,1,.07,1.46,5.22,5.22,0,0,1-.84,2.27A4.8,4.8,0,0,1,48,73.7a5,5,0,0,1-3.86.35,5,5,0,0,1-1.7-.92,4.79,4.79,0,0,1-1.25-1.51l-2.07-3.89L42.48,66l2.07,3.89a1.21,1.21,0,0,0,.75.61,1.26,1.26,0,0,0,1-.1,1.21,1.21,0,0,0,.6-.74,1.27,1.27,0,0,0-.08-1,4.91,4.91,0,0,1-.36-3.86,5.33,5.33,0,0,1,.91-1.69,4.8,4.8,0,0,1,1.53-1.25,4.68,4.68,0,0,1,1.91-.56,5.33,5.33,0,0,1,1.92.2,5.24,5.24,0,0,1,1.71.91,4.73,4.73,0,0,1,1.27,1.53l2.06,3.89ZM59,16.31l3.29,1.87a4.23,4.23,0,0,0-.56,1.68,4.33,4.33,0,0,0,.15,1.69,4.41,4.41,0,0,0,.75,1.5,4.1,4.1,0,0,0,1.31,1.13l7.11,4L69.17,31.5l-7.11-4a8.47,8.47,0,0,1-2-1.53,8.13,8.13,0,0,1-2.2-5.78A8.06,8.06,0,0,1,59,16.31M73.85,53.78a8.3,8.3,0,0,1-2,2.47A8,8,0,0,1,69,57.79l-1.12-3.6A4.43,4.43,0,0,0,71,50.43a4.21,4.21,0,0,0-.18-1.75A4.32,4.32,0,0,0,70,47.14a4.51,4.51,0,0,0-1.32-1.07,4.2,4.2,0,0,0-1.83-.5,4.34,4.34,0,0,0-1.7.27,4.64,4.64,0,0,0-2.42,2.09,4.5,4.5,0,0,0-.49,1.61,4,4,0,0,0,.18,1.74L58.79,52.4a7.94,7.94,0,0,1-.33-3.2,8.07,8.07,0,0,1,.91-3A7.85,7.85,0,0,1,61.6,43.5a8.46,8.46,0,0,1,2.86-1.4,8,8,0,0,1,3.08-.23,7.86,7.86,0,0,1,2.87.86A7.68,7.68,0,0,1,73,44.92a8.56,8.56,0,0,1,1.42,2.85,8.25,8.25,0,0,1,.25,3.09,7.79,7.79,0,0,1-.86,2.92"/><path d="M40.1,42.81a4.41,4.41,0,0,1,5.78-2.34,4.56,4.56,0,0,1,1.4,1,4.45,4.45,0,0,1,.93,4.82,4.64,4.64,0,0,1-.94,1.41,4.52,4.52,0,0,1-1.41.94,4.31,4.31,0,0,1-1.71.34,4.09,4.09,0,0,1-1.67-.34,4.63,4.63,0,0,1-1.4-.93,4.45,4.45,0,0,1-1-1.4,4,4,0,0,1-.37-1.73,4.32,4.32,0,0,1,.36-1.72"/></g></g></svg>